<?xml version="1.0" encoding="UTF-8" standalone="no"?>
<!DOCTYPE svg PUBLIC "-//W3C//DTD SVG 1.1//EN" "http://www.w3.org/Graphics/SVG/1.1/DTD/svg11.dtd">
<!-- Generated by graphviz version 2.38.0 (20140413.2041)
 -->
<!-- Title: cargo_base Pages: 1 -->
<svg width="838pt" height="760pt" viewBox="0.00 0.00 838.00 760.00" xmlns="http://www.w3.org/2000/svg" xmlns:xlink="http://www.w3.org/1999/xlink">
<g id="graph0" class="graph" transform="scale(1 1) rotate(0) translate(4 756)">
<title>cargo_base</title>
<polygon fill="white" stroke="none" points="-4,4 -4,-756 834,-756 834,4 -4,4"/>
<!-- cargo -->
<g id="node1" class="node"><title>cargo</title>
<polygon fill="none" stroke="black" points="0,-220.5 0,-542.5 110,-542.5 110,-220.5 0,-220.5"/>
<text text-anchor="middle" x="24" y="-377.8" font-family="Times New Roman,serif" font-size="14.00">cargo</text>
<polyline fill="none" stroke="black" points="48,-220.5 48,-542.5 "/>
<text text-anchor="middle" x="79" y="-527.3" font-family="Times New Roman,serif" font-size="14.00">build</text>
<polyline fill="none" stroke="black" points="48,-519.5 110,-519.5 "/>
<text text-anchor="middle" x="79" y="-504.3" font-family="Times New Roman,serif" font-size="14.00">check</text>
<polyline fill="none" stroke="black" points="48,-496.5 110,-496.5 "/>
<text text-anchor="middle" x="79" y="-481.3" font-family="Times New Roman,serif" font-size="14.00">clean</text>
<polyline fill="none" stroke="black" points="48,-473.5 110,-473.5 "/>
<text text-anchor="middle" x="79" y="-458.3" font-family="Times New Roman,serif" font-size="14.00">doc</text>
<polyline fill="none" stroke="black" points="48,-450.5 110,-450.5 "/>
<text text-anchor="middle" x="79" y="-435.3" font-family="Times New Roman,serif" font-size="14.00">new</text>
<polyline fill="none" stroke="black" points="48,-427.5 110,-427.5 "/>
<text text-anchor="middle" x="79" y="-412.3" font-family="Times New Roman,serif" font-size="14.00">init</text>
<polyline fill="none" stroke="black" points="48,-404.5 110,-404.5 "/>
<text text-anchor="middle" x="79" y="-389.3" font-family="Times New Roman,serif" font-size="14.00">run</text>
<polyline fill="none" stroke="black" points="48,-381.5 110,-381.5 "/>
<text text-anchor="middle" x="79" y="-366.3" font-family="Times New Roman,serif" font-size="14.00">test</text>
<polyline fill="none" stroke="black" points="48,-358.5 110,-358.5 "/>
<text text-anchor="middle" x="79" y="-343.3" font-family="Times New Roman,serif" font-size="14.00">bench</text>
<polyline fill="none" stroke="black" points="48,-335.5 110,-335.5 "/>
<text text-anchor="middle" x="79" y="-320.3" font-family="Times New Roman,serif" font-size="14.00">update</text>
<polyline fill="none" stroke="black" points="48,-312.5 110,-312.5 "/>
<text text-anchor="middle" x="79" y="-297.3" font-family="Times New Roman,serif" font-size="14.00">search</text>
<polyline fill="none" stroke="black" points="48,-289.5 110,-289.5 "/>
<text text-anchor="middle" x="79" y="-274.3" font-family="Times New Roman,serif" font-size="14.00">publish</text>
<polyline fill="none" stroke="black" points="48,-266.5 110,-266.5 "/>
<text text-anchor="middle" x="79" y="-251.3" font-family="Times New Roman,serif" font-size="14.00">install</text>
<polyline fill="none" stroke="black" points="48,-243.5 110,-243.5 "/>
<text text-anchor="middle" x="79" y="-228.3" font-family="Times New Roman,serif" font-size="14.00">uninstall</text>
</g>
<!-- cargo_build -->
<g id="node2" class="node"><title>cargo_build</title>
<polygon fill="none" stroke="black" points="326,-715.5 326,-751.5 830,-751.5 830,-715.5 326,-715.5"/>
<text text-anchor="middle" x="578" y="-729.8" font-family="Times New Roman,serif" font-size="14.00">Compile the current package</text>
</g>
<!-- cargo&#45;&gt;cargo_build -->
<g id="edge1" class="edge"><title>cargo:cargo_build-&gt;cargo_build:w</title>
<path fill="none" stroke="black" d="M110,-531.5C237.973,-531.5 196.91,-722.988 315.968,-733.086"/>
<polygon fill="black" stroke="black" points="315.864,-736.585 326,-733.5 316.153,-729.591 315.864,-736.585"/>
</g>
<!-- cargo_check -->
<g id="node3" class="node"><title>cargo_check</title>
<polygon fill="none" stroke="black" points="326,-385.5 326,-421.5 830,-421.5 830,-385.5 326,-385.5"/>
<text text-anchor="middle" x="578" y="-399.8" font-family="Times New Roman,serif" font-size="14.00">Analyze the current package and report errors, but don't build object files</text>
</g>
<!-- cargo&#45;&gt;cargo_check -->
<g id="edge2" class="edge"><title>cargo:cargo_cehck-&gt;cargo_check:w</title>
<path fill="none" stroke="black" d="M110.17,-388.612C162.398,-394.751 243.383,-402.744 315.837,-403.45"/>
<polygon fill="black" stroke="black" points="315.983,-406.95 326,-403.5 316.017,-399.95 315.983,-406.95"/>
</g>
<!-- cargo_clean -->
<g id="node4" class="node"><title>cargo_clean</title>
<polygon fill="none" stroke="black" points="326,-660.5 326,-696.5 830,-696.5 830,-660.5 326,-660.5"/>
<text text-anchor="middle" x="578" y="-674.8" font-family="Times New Roman,serif" font-size="14.00">Remove the target directory</text>
</g>
<!-- cargo&#45;&gt;cargo_clean -->
<g id="edge3" class="edge"><title>cargo:cargo_clean-&gt;cargo_clean:w</title>
<path fill="none" stroke="black" d="M110,-485.5C235.219,-485.5 199.402,-668.09 315.814,-678.075"/>
<polygon fill="black" stroke="black" points="315.863,-681.58 326,-678.5 316.155,-674.586 315.863,-681.58"/>
</g>
<!-- cargo_doc -->
<g id="node5" class="node"><title>cargo_doc</title>
<polygon fill="none" stroke="black" points="326,-605.5 326,-641.5 830,-641.5 830,-605.5 326,-605.5"/>
<text text-anchor="middle" x="578" y="-619.8" font-family="Times New Roman,serif" font-size="14.00">Build this package's and its dependencies' documentation</text>
</g>
<!-- cargo&#45;&gt;cargo_doc -->
<g id="edge4" class="edge"><title>cargo:cargo_doc-&gt;cargo_doc:w</title>
<path fill="none" stroke="black" d="M110,-462.5C226.226,-462.5 207.518,-614.205 315.838,-623.094"/>
<polygon fill="black" stroke="black" points="315.868,-626.597 326,-623.5 316.148,-619.603 315.868,-626.597"/>
</g>
<!-- cargo_new -->
<g id="node6" class="node"><title>cargo_new</title>
<polygon fill="none" stroke="black" points="326,-550.5 326,-586.5 830,-586.5 830,-550.5 326,-550.5"/>
<text text-anchor="middle" x="578" y="-564.8" font-family="Times New Roman,serif" font-size="14.00">Create a new cargo package</text>
</g>
<!-- cargo&#45;&gt;cargo_new -->
<g id="edge5" class="edge"><title>cargo:cargo_new-&gt;cargo_new:w</title>
<path fill="none" stroke="black" d="M110,-439.5C218.323,-439.5 214.543,-560.563 315.86,-568.13"/>
<polygon fill="black" stroke="black" points="315.879,-571.633 326,-568.5 316.134,-564.638 315.879,-571.633"/>
</g>
<!-- cargo_init -->
<g id="node7" class="node"><title>cargo_init</title>
<polygon fill="none" stroke="black" points="326,-495.5 326,-531.5 830,-531.5 830,-495.5 326,-495.5"/>
<text text-anchor="middle" x="578" y="-509.8" font-family="Times New Roman,serif" font-size="14.00">Create a new cargo package in an existing directory</text>
</g>
<!-- cargo&#45;&gt;cargo_init -->
<g id="edge6" class="edge"><title>cargo:cargo_init-&gt;cargo_init:w</title>
<path fill="none" stroke="black" d="M110,-416.5C211.742,-416.5 220.287,-507.166 315.84,-513.186"/>
<polygon fill="black" stroke="black" points="315.897,-516.69 326,-513.5 316.113,-509.693 315.897,-516.69"/>
</g>
<!-- cargo_run -->
<g id="node8" class="node"><title>cargo_run</title>
<polygon fill="none" stroke="black" points="326,-440.5 326,-476.5 830,-476.5 830,-440.5 326,-440.5"/>
<text text-anchor="middle" x="578" y="-454.8" font-family="Times New Roman,serif" font-size="14.00">Run a binary or example of the local package</text>
</g>
<!-- cargo&#45;&gt;cargo_run -->
<g id="edge7" class="edge"><title>cargo:cargo_run-&gt;cargo_run:w</title>
<path fill="none" stroke="black" d="M110,-393.5C206.728,-393.5 224.553,-454.01 315.733,-458.265"/>
<polygon fill="black" stroke="black" points="315.922,-461.77 326,-458.5 316.083,-454.772 315.922,-461.77"/>
</g>
<!-- cargo_test -->
<g id="node9" class="node"><title>cargo_test</title>
<polygon fill="none" stroke="black" points="326,-330.5 326,-366.5 830,-366.5 830,-330.5 326,-330.5"/>
<text text-anchor="middle" x="578" y="-344.8" font-family="Times New Roman,serif" font-size="14.00">Run the tests</text>
</g>
<!-- cargo&#45;&gt;cargo_test -->
<g id="edge8" class="edge"><title>cargo:cargo_test-&gt;cargo_test:w</title>
<path fill="none" stroke="black" d="M110,-369.5C202.968,-369.5 227.783,-349.99 315.825,-348.58"/>
<polygon fill="black" stroke="black" points="316.028,-352.079 326,-348.5 315.973,-345.079 316.028,-352.079"/>
</g>
<!-- cargo_bench -->
<g id="node10" class="node"><title>cargo_bench</title>
<polygon fill="none" stroke="black" points="326,-275.5 326,-311.5 830,-311.5 830,-275.5 326,-275.5"/>
<text text-anchor="middle" x="578" y="-289.8" font-family="Times New Roman,serif" font-size="14.00">Run the benchmarks</text>
</g>
<!-- cargo&#45;&gt;cargo_bench -->
<g id="edge9" class="edge"><title>cargo:cargo_bench-&gt;cargo_bench:w</title>
<path fill="none" stroke="black" d="M110,-346.5C205.373,-346.5 225.766,-297.161 315.866,-293.692"/>
<polygon fill="black" stroke="black" points="316.068,-297.189 326,-293.5 315.935,-290.19 316.068,-297.189"/>
</g>
<!-- cargo_update -->
<g id="node11" class="node"><title>cargo_update</title>
<polygon fill="none" stroke="black" points="326,-220.5 326,-256.5 830,-256.5 830,-220.5 326,-220.5"/>
<text text-anchor="middle" x="578" y="-234.8" font-family="Times New Roman,serif" font-size="14.00">Update dependencies listed in Cargo.lock</text>
</g>
<!-- cargo&#45;&gt;cargo_update -->
<g id="edge10" class="edge"><title>cargo:cargo_update-&gt;cargo_update:w</title>
<path fill="none" stroke="black" d="M110,-323.5C209.64,-323.5 222.064,-244.211 315.742,-238.791"/>
<polygon fill="black" stroke="black" points="316.103,-242.282 326,-238.5 315.905,-235.285 316.103,-242.282"/>
</g>
<!-- cargo_search -->
<g id="node12" class="node"><title>cargo_search</title>
<polygon fill="none" stroke="black" points="326,-165.5 326,-201.5 830,-201.5 830,-165.5 326,-165.5"/>
<text text-anchor="middle" x="578" y="-179.8" font-family="Times New Roman,serif" font-size="14.00">Search registry for crates</text>
</g>
<!-- cargo&#45;&gt;cargo_search -->
<g id="edge11" class="edge"><title>cargo:cargo_search-&gt;cargo_search:w</title>
<path fill="none" stroke="black" d="M110,-300.5C215.66,-300.5 216.857,-190.92 315.785,-183.857"/>
<polygon fill="black" stroke="black" points="316.128,-187.347 326,-183.5 315.884,-180.351 316.128,-187.347"/>
</g>
<!-- cargo_publish -->
<g id="node13" class="node"><title>cargo_publish</title>
<polygon fill="none" stroke="black" points="326,-110.5 326,-146.5 830,-146.5 830,-110.5 326,-110.5"/>
<text text-anchor="middle" x="578" y="-124.8" font-family="Times New Roman,serif" font-size="14.00">Package and upload this package to the registry</text>
</g>
<!-- cargo&#45;&gt;cargo_publish -->
<g id="edge12" class="edge"><title>cargo:cargo_publish-&gt;cargo_publish:w</title>
<path fill="none" stroke="black" d="M110,-277.5C223.094,-277.5 210.297,-137.385 315.769,-128.901"/>
<polygon fill="black" stroke="black" points="316.145,-132.389 326,-128.5 315.87,-125.395 316.145,-132.389"/>
</g>
<!-- cargo_install -->
<g id="node14" class="node"><title>cargo_install</title>
<polygon fill="none" stroke="black" points="326,-55.5 326,-91.5 830,-91.5 830,-55.5 326,-55.5"/>
<text text-anchor="middle" x="578" y="-69.8" font-family="Times New Roman,serif" font-size="14.00">Install a Rust binary. Default location is $HOME/.cargo/bin</text>
</g>
<!-- cargo&#45;&gt;cargo_install -->
<g id="edge13" class="edge"><title>cargo:cargo_install-&gt;cargo_install:w</title>
<path fill="none" stroke="black" d="M110,-254.5C231.702,-254.5 202.577,-83.6068 315.736,-73.9273"/>
<polygon fill="black" stroke="black" points="316.154,-77.413 326,-73.5 315.863,-70.4191 316.154,-77.413"/>
</g>
<!-- cargo_uninstall -->
<g id="node15" class="node"><title>cargo_uninstall</title>
<polygon fill="none" stroke="black" points="326,-0.5 326,-36.5 830,-36.5 830,-0.5 326,-0.5"/>
<text text-anchor="middle" x="578" y="-14.8" font-family="Times New Roman,serif" font-size="14.00">Uninstall a Rust binary</text>
</g>
<!-- cargo&#45;&gt;cargo_uninstall -->
<g id="edge14" class="edge"><title>cargo:cargo_uninstall-&gt;cargo_uninstall:w</title>
<path fill="none" stroke="black" d="M110,-231.5C241.27,-231.5 193.873,-29.5843 315.721,-18.9364"/>
<polygon fill="black" stroke="black" points="316.158,-22.4212 326,-18.5 315.86,-15.4275 316.158,-22.4212"/>
</g>
</g>
</svg>