<?xml version="1.0" encoding="UTF-8" standalone="no"?>
<!DOCTYPE svg PUBLIC "-//W3C//DTD SVG 1.1//EN" "http://www.w3.org/Graphics/SVG/1.1/DTD/svg11.dtd">
<!-- Generated by graphviz version 2.38.0 (20140413.2041)
 -->
<!-- Title: btree_20210918 Pages: 1 -->
<svg width="250pt" height="538pt" viewBox="0.00 0.00 250.00 538.00" xmlns="http://www.w3.org/2000/svg" xmlns:xlink="http://www.w3.org/1999/xlink">
<g id="graph0" class="graph" transform="scale(1 1) rotate(0) translate(4 534)">
<title>btree_20210918</title>
<polygon fill="white" stroke="none" points="-4,4 -4,-534 246,-534 246,4 -4,4"/>
<!-- BTree -->
<g id="node1" class="node"><title>BTree</title>
<polygon fill="none" stroke="black" points="0,-0.5 0,-529.5 242,-529.5 242,-0.5 0,-0.5"/>
<text text-anchor="middle" x="25.5" y="-261.3" font-family="Times New Roman,serif" font-size="14.00">BTree</text>
<polyline fill="none" stroke="black" points="51,-0.5 51,-529.5 "/>
<text text-anchor="middle" x="86" y="-491.3" font-family="Times New Roman,serif" font-size="14.00">Node</text>
<polyline fill="none" stroke="black" points="121,-460.5 121,-529.5 "/>
<text text-anchor="middle" x="181.5" y="-514.3" font-family="Times New Roman,serif" font-size="14.00">sons</text>
<polyline fill="none" stroke="black" points="121,-506.5 242,-506.5 "/>
<text text-anchor="middle" x="181.5" y="-491.3" font-family="Times New Roman,serif" font-size="14.00">keys</text>
<polyline fill="none" stroke="black" points="121,-483.5 242,-483.5 "/>
<text text-anchor="middle" x="181.5" y="-468.3" font-family="Times New Roman,serif" font-size="14.00">_lower_bound</text>
<polyline fill="none" stroke="black" points="51,-460.5 242,-460.5 "/>
<text text-anchor="middle" x="146.5" y="-445.3" font-family="Times New Roman,serif" font-size="14.00">_inorder</text>
<polyline fill="none" stroke="black" points="51,-437.5 242,-437.5 "/>
<text text-anchor="middle" x="146.5" y="-422.3" font-family="Times New Roman,serif" font-size="14.00">inorder</text>
<polyline fill="none" stroke="black" points="51,-414.5 242,-414.5 "/>
<text text-anchor="middle" x="146.5" y="-399.3" font-family="Times New Roman,serif" font-size="14.00">_preorder</text>
<polyline fill="none" stroke="black" points="51,-391.5 242,-391.5 "/>
<text text-anchor="middle" x="146.5" y="-376.3" font-family="Times New Roman,serif" font-size="14.00">preorder</text>
<polyline fill="none" stroke="black" points="51,-368.5 242,-368.5 "/>
<text text-anchor="middle" x="146.5" y="-353.3" font-family="Times New Roman,serif" font-size="14.00">_split</text>
<polyline fill="none" stroke="black" points="51,-345.5 242,-345.5 "/>
<text text-anchor="middle" x="146.5" y="-330.3" font-family="Times New Roman,serif" font-size="14.00">_insert</text>
<polyline fill="none" stroke="black" points="51,-322.5 242,-322.5 "/>
<text text-anchor="middle" x="146.5" y="-307.3" font-family="Times New Roman,serif" font-size="14.00">insert</text>
<polyline fill="none" stroke="black" points="51,-299.5 242,-299.5 "/>
<text text-anchor="middle" x="146.5" y="-284.3" font-family="Times New Roman,serif" font-size="14.00">_find</text>
<polyline fill="none" stroke="black" points="51,-276.5 242,-276.5 "/>
<text text-anchor="middle" x="146.5" y="-261.3" font-family="Times New Roman,serif" font-size="14.00">find</text>
<polyline fill="none" stroke="black" points="51,-253.5 242,-253.5 "/>
<text text-anchor="middle" x="146.5" y="-238.3" font-family="Times New Roman,serif" font-size="14.00">_find_predecessor</text>
<polyline fill="none" stroke="black" points="51,-230.5 242,-230.5 "/>
<text text-anchor="middle" x="146.5" y="-215.3" font-family="Times New Roman,serif" font-size="14.00">_find_succesor</text>
<polyline fill="none" stroke="black" points="51,-207.5 242,-207.5 "/>
<text text-anchor="middle" x="146.5" y="-192.3" font-family="Times New Roman,serif" font-size="14.00">_delete_key_leaf</text>
<polyline fill="none" stroke="black" points="51,-184.5 242,-184.5 "/>
<text text-anchor="middle" x="146.5" y="-169.3" font-family="Times New Roman,serif" font-size="14.00">_merge_children_around_key</text>
<polyline fill="none" stroke="black" points="51,-161.5 242,-161.5 "/>
<text text-anchor="middle" x="146.5" y="-146.3" font-family="Times New Roman,serif" font-size="14.00">_move_node_from_left_child</text>
<polyline fill="none" stroke="black" points="51,-138.5 242,-138.5 "/>
<text text-anchor="middle" x="146.5" y="-123.3" font-family="Times New Roman,serif" font-size="14.00">_move_node_from_right_child</text>
<polyline fill="none" stroke="black" points="51,-115.5 242,-115.5 "/>
<text text-anchor="middle" x="146.5" y="-100.3" font-family="Times New Roman,serif" font-size="14.00">_fix_empty_root</text>
<polyline fill="none" stroke="black" points="51,-92.5 242,-92.5 "/>
<text text-anchor="middle" x="146.5" y="-77.3" font-family="Times New Roman,serif" font-size="14.00">_delete</text>
<polyline fill="none" stroke="black" points="51,-69.5 242,-69.5 "/>
<text text-anchor="middle" x="146.5" y="-54.3" font-family="Times New Roman,serif" font-size="14.00">delete</text>
<polyline fill="none" stroke="black" points="51,-46.5 242,-46.5 "/>
<text text-anchor="middle" x="146.5" y="-31.3" font-family="Times New Roman,serif" font-size="14.00">_find_all</text>
<polyline fill="none" stroke="black" points="51,-23.5 242,-23.5 "/>
<text text-anchor="middle" x="146.5" y="-8.3" font-family="Times New Roman,serif" font-size="14.00">find_all</text>
</g>
</g>
</svg>