<?xml version="1.0" encoding="UTF-8" standalone="no"?>
<!DOCTYPE svg PUBLIC "-//W3C//DTD SVG 1.1//EN"
 "http://www.w3.org/Graphics/SVG/1.1/DTD/svg11.dtd">
<!-- Generated by graphviz version 2.38.0 (20140413.2041)
 -->
<!-- Title: %3 Pages: 1 -->
<svg width="1007pt" height="2195pt"
 viewBox="0.00 0.00 1007.00 2195.00" xmlns="http://www.w3.org/2000/svg" xmlns:xlink="http://www.w3.org/1999/xlink">
<g id="graph0" class="graph" transform="scale(1 1) rotate(0) translate(4 2191)">
<title>%3</title>
<polygon fill="white" stroke="none" points="-4,4 -4,-2191 1003,-2191 1003,4 -4,4"/>
<g id="clust1" class="cluster"><title>cluster_tree_root_17</title>
<polygon fill="none" stroke="black" points="8,-1193 8,-2179 711,-2179 711,-1193 8,-1193"/>
<text text-anchor="middle" x="359.5" y="-2163.8" font-family="Times New Roman,serif" font-size="14.00">btree(t=3)</text>
</g>
<g id="clust3" class="cluster"><title>cluster_add_node_1_1_17</title>
<polygon fill="none" stroke="black" points="577.5,-1201 577.5,-1384 670.5,-1384 670.5,-1201 577.5,-1201"/>
<text text-anchor="middle" x="624" y="-1368.8" font-family="Times New Roman,serif" font-size="14.00">node_1_1</text>
</g>
<g id="clust2" class="cluster"><title>cluster_add_root_17</title>
<polygon fill="none" stroke="black" points="16,-1583 16,-1766 388,-1766 388,-1583 16,-1583"/>
<text text-anchor="middle" x="202" y="-1750.8" font-family="Times New Roman,serif" font-size="14.00">root: bnode</text>
</g>
<g id="clust4" class="cluster"><title>cluster_add_node_1_2_17</title>
<polygon fill="none" stroke="black" points="577.5,-1392 577.5,-1575 670.5,-1575 670.5,-1392 577.5,-1392"/>
<text text-anchor="middle" x="624" y="-1559.8" font-family="Times New Roman,serif" font-size="14.00">node_1_2</text>
</g>
<g id="clust5" class="cluster"><title>cluster_add_node_1_3_17</title>
<polygon fill="none" stroke="black" points="577.5,-1583 577.5,-1766 670.5,-1766 670.5,-1583 577.5,-1583"/>
<text text-anchor="middle" x="624" y="-1750.8" font-family="Times New Roman,serif" font-size="14.00">node_1_3</text>
</g>
<g id="clust6" class="cluster"><title>cluster_add_node_1_4_17</title>
<polygon fill="none" stroke="black" points="571,-1774 571,-1957 677,-1957 677,-1774 571,-1774"/>
<text text-anchor="middle" x="624" y="-1941.8" font-family="Times New Roman,serif" font-size="14.00">node_1_4</text>
</g>
<g id="clust7" class="cluster"><title>cluster_add_node_1_5_17</title>
<polygon fill="none" stroke="black" points="545,-1965 545,-2148 703,-2148 703,-1965 545,-1965"/>
<text text-anchor="middle" x="624" y="-2132.8" font-family="Times New Roman,serif" font-size="14.00">node_1_5</text>
</g>
<g id="clust8" class="cluster"><title>cluster_tree_root_18</title>
<polygon fill="none" stroke="black" points="400,-8 400,-1185 991,-1185 991,-8 400,-8"/>
<text text-anchor="middle" x="695.5" y="-1169.8" font-family="Times New Roman,serif" font-size="14.00">btree(t=3)</text>
</g>
<g id="clust9" class="cluster"><title>cluster_add_root_18</title>
<polygon fill="none" stroke="black" points="408,-589 408,-772 840,-772 840,-589 408,-589"/>
<text text-anchor="middle" x="624" y="-756.8" font-family="Times New Roman,serif" font-size="14.00">root: bnode</text>
</g>
<g id="clust10" class="cluster"><title>cluster_add_node_1_1_18</title>
<polygon fill="none" stroke="black" points="875,-16 875,-199 968,-199 968,-16 875,-16"/>
<text text-anchor="middle" x="921.5" y="-183.8" font-family="Times New Roman,serif" font-size="14.00">node_1_1</text>
</g>
<g id="clust11" class="cluster"><title>cluster_add_node_1_2_18</title>
<polygon fill="none" stroke="black" points="875,-207 875,-390 968,-390 968,-207 875,-207"/>
<text text-anchor="middle" x="921.5" y="-374.8" font-family="Times New Roman,serif" font-size="14.00">node_1_2</text>
</g>
<g id="clust12" class="cluster"><title>cluster_add_node_1_3_18</title>
<polygon fill="none" stroke="black" points="875,-398 875,-581 968,-581 968,-398 875,-398"/>
<text text-anchor="middle" x="921.5" y="-565.8" font-family="Times New Roman,serif" font-size="14.00">node_1_3</text>
</g>
<g id="clust13" class="cluster"><title>cluster_add_node_1_4_18</title>
<polygon fill="none" stroke="black" points="868.5,-589 868.5,-772 974.5,-772 974.5,-589 868.5,-589"/>
<text text-anchor="middle" x="921.5" y="-756.8" font-family="Times New Roman,serif" font-size="14.00">node_1_4</text>
</g>
<g id="clust15" class="cluster"><title>cluster_add_node_1_6_18</title>
<polygon fill="none" stroke="black" points="860,-971 860,-1154 983,-1154 983,-971 860,-971"/>
<text text-anchor="middle" x="921.5" y="-1138.8" font-family="Times New Roman,serif" font-size="14.00">node_1_6</text>
</g>
<g id="clust14" class="cluster"><title>cluster_add_node_1_5_18</title>
<polygon fill="none" stroke="black" points="868.5,-780 868.5,-963 974.5,-963 974.5,-780 868.5,-780"/>
<text text-anchor="middle" x="921.5" y="-947.8" font-family="Times New Roman,serif" font-size="14.00">node_1_5</text>
</g>
<!-- keys=[3]_17 -->
<g id="node1" class="node"><title>keys=[3]_17</title>
<text text-anchor="middle" x="202" y="-1713.3" font-family="Times New Roman,serif" font-size="14.00">keys=[3,6,9,12]</text>
</g>
<!-- c_add_node_root_s_17 -->
<g id="node2" class="node"><title>c_add_node_root_s_17</title>
<text text-anchor="middle" x="202" y="-1659.3" font-family="Times New Roman,serif" font-size="14.00">sons=[node_1_1,node_1_2,node_1_3,node_1_4,node_1_5]</text>
</g>
<!-- empty_node_root_17 -->
<g id="node3" class="node"><title>empty_node_root_17</title>
</g>
<!-- empty_node_1_1_17 -->
<g id="node6" class="node"><title>empty_node_1_1_17</title>
</g>
<!-- empty_node_root_17&#45;&gt;empty_node_1_1_17 -->
<g id="edge1" class="edge"><title>empty_node_root_17&#45;&gt;empty_node_1_1_17</title>
<path fill="none" stroke="black" d="M229.103,-1615.15C269.752,-1622.99 347.685,-1630.78 388,-1587 413.08,-1559.76 374.949,-1281.26 400,-1254 447.052,-1202.8 536.751,-1209.82 586.857,-1218.8"/>
<polygon fill="black" stroke="black" points="586.439,-1222.29 596.919,-1220.73 587.755,-1215.41 586.439,-1222.29"/>
</g>
<!-- empty_node_1_2_17 -->
<g id="node9" class="node"><title>empty_node_1_2_17</title>
</g>
<!-- empty_node_root_17&#45;&gt;empty_node_1_2_17 -->
<g id="edge2" class="edge"><title>empty_node_root_17&#45;&gt;empty_node_1_2_17</title>
<path fill="none" stroke="black" d="M229.184,-1614.97C269.585,-1622.48 346.753,-1629.68 388,-1587 410.008,-1564.23 378.016,-1467.79 400,-1445 448.148,-1395.08 537.026,-1401.49 586.804,-1410.06"/>
<polygon fill="black" stroke="black" points="586.335,-1413.53 596.803,-1411.9 587.603,-1406.64 586.335,-1413.53"/>
</g>
<!-- empty_node_1_3_17 -->
<g id="node12" class="node"><title>empty_node_1_3_17</title>
</g>
<!-- empty_node_root_17&#45;&gt;empty_node_1_3_17 -->
<g id="edge3" class="edge"><title>empty_node_root_17&#45;&gt;empty_node_1_3_17</title>
<path fill="none" stroke="black" d="M229.273,-1609C301.532,-1609 503.379,-1609 586.511,-1609"/>
<polygon fill="black" stroke="black" points="586.737,-1612.5 596.737,-1609 586.737,-1605.5 586.737,-1612.5"/>
</g>
<!-- empty_node_1_4_17 -->
<g id="node15" class="node"><title>empty_node_1_4_17</title>
</g>
<!-- empty_node_root_17&#45;&gt;empty_node_1_4_17 -->
<g id="edge4" class="edge"><title>empty_node_root_17&#45;&gt;empty_node_1_4_17</title>
<path fill="none" stroke="black" d="M229.261,-1603.86C269.765,-1597.62 347.071,-1592.73 388,-1636 408.544,-1657.72 379.334,-1748.4 400,-1770 448.023,-1820.21 536.95,-1815.13 586.769,-1807.36"/>
<polygon fill="black" stroke="black" points="587.495,-1810.78 596.777,-1805.67 586.335,-1803.88 587.495,-1810.78"/>
</g>
<!-- empty_node_1_5_17 -->
<g id="node18" class="node"><title>empty_node_1_5_17</title>
</g>
<!-- empty_node_root_17&#45;&gt;empty_node_1_5_17 -->
<g id="edge5" class="edge"><title>empty_node_root_17&#45;&gt;empty_node_1_5_17</title>
<path fill="none" stroke="black" d="M229.204,-1603.66C269.991,-1597.05 348.111,-1591.55 388,-1636 412.135,-1662.89 375.715,-1934.24 400,-1961 446.814,-2012.58 536.607,-2006.86 586.791,-1998.64"/>
<polygon fill="black" stroke="black" points="587.627,-2002.05 596.869,-1996.87 586.414,-1995.15 587.627,-2002.05"/>
</g>
<!-- keys_1_217 -->
<g id="node4" class="node"><title>keys_1_217</title>
<text text-anchor="middle" x="624" y="-1331.3" font-family="Times New Roman,serif" font-size="14.00">keys=[1,2]</text>
</g>
<!-- c_add_node_1_1_s_17 -->
<g id="node5" class="node"><title>c_add_node_1_1_s_17</title>
<text text-anchor="middle" x="624" y="-1277.3" font-family="Times New Roman,serif" font-size="14.00">sons=[]</text>
</g>
<!-- keys_4_517 -->
<g id="node7" class="node"><title>keys_4_517</title>
<text text-anchor="middle" x="624" y="-1522.3" font-family="Times New Roman,serif" font-size="14.00">keys=[4,5]</text>
</g>
<!-- c_add_node_1_2_s_17 -->
<g id="node8" class="node"><title>c_add_node_1_2_s_17</title>
<text text-anchor="middle" x="624" y="-1468.3" font-family="Times New Roman,serif" font-size="14.00">sons=[]</text>
</g>
<!-- keys_7_817 -->
<g id="node10" class="node"><title>keys_7_817</title>
<text text-anchor="middle" x="624" y="-1713.3" font-family="Times New Roman,serif" font-size="14.00">keys=[7,8]</text>
</g>
<!-- c_add_node_1_3_s_17 -->
<g id="node11" class="node"><title>c_add_node_1_3_s_17</title>
<text text-anchor="middle" x="624" y="-1659.3" font-family="Times New Roman,serif" font-size="14.00">sons=[]</text>
</g>
<!-- keys_10_1117 -->
<g id="node13" class="node"><title>keys_10_1117</title>
<text text-anchor="middle" x="624" y="-1904.3" font-family="Times New Roman,serif" font-size="14.00">keys=[10,11]</text>
</g>
<!-- c_add_node_1_4_s_17 -->
<g id="node14" class="node"><title>c_add_node_1_4_s_17</title>
<text text-anchor="middle" x="624" y="-1850.3" font-family="Times New Roman,serif" font-size="14.00">sons=[]</text>
</g>
<!-- keys=[13,14,15,16,17] -->
<g id="node16" class="node"><title>keys=[13,14,15,16,17]</title>
<text text-anchor="middle" x="624" y="-2095.3" font-family="Times New Roman,serif" font-size="14.00">keys=[13,14,15,16,17]</text>
</g>
<!-- c_add_node_1_5_s_17 -->
<g id="node17" class="node"><title>c_add_node_1_5_s_17</title>
<text text-anchor="middle" x="624" y="-2041.3" font-family="Times New Roman,serif" font-size="14.00">sons=[]</text>
</g>
<!-- tag__2 -->
<g id="node19" class="node"><title>tag__2</title>
</g>
<!-- tag__3 -->
<g id="node41" class="node"><title>tag__3</title>
</g>
<!-- tag__2&#45;&gt;tag__3 -->
<g id="edge12" class="edge"><title>tag__2&#45;&gt;tag__3</title>
<path fill="none" stroke="black" d="M205.913,-1200.9C221.539,-1106.16 298.524,-668.474 400,-585 452.95,-541.443 538.559,-546.45 586.85,-553.821"/>
<polygon fill="black" stroke="black" points="586.415,-557.297 596.85,-555.464 587.55,-550.389 586.415,-557.297"/>
</g>
<!-- keys=[3]_18 -->
<g id="node20" class="node"><title>keys=[3]_18</title>
<text text-anchor="middle" x="624" y="-719.3" font-family="Times New Roman,serif" font-size="14.00">keys=[3,6,9,12,15]</text>
</g>
<!-- c_add_node_root_s_18 -->
<g id="node21" class="node"><title>c_add_node_root_s_18</title>
<text text-anchor="middle" x="624" y="-665.3" font-family="Times New Roman,serif" font-size="14.00">sons=[node_1_1,node_1_2,node_1_3,node_1_4,node_1_5,node_1_6]</text>
</g>
<!-- empty_node_root_18 -->
<g id="node22" class="node"><title>empty_node_root_18</title>
</g>
<!-- empty_node_1_1_18 -->
<g id="node25" class="node"><title>empty_node_1_1_18</title>
</g>
<!-- empty_node_root_18&#45;&gt;empty_node_1_1_18 -->
<g id="edge6" class="edge"><title>empty_node_root_18&#45;&gt;empty_node_1_1_18</title>
<path fill="none" stroke="black" d="M651.138,-621.815C696.917,-631.996 791.352,-644.856 840,-593 879.864,-550.507 827.362,-117.265 860,-69 865.847,-60.3534 875.151,-54.4441 884.727,-50.4181"/>
<polygon fill="black" stroke="black" points="886.047,-53.6629 894.275,-46.9881 883.681,-47.075 886.047,-53.6629"/>
</g>
<!-- empty_node_1_2_18 -->
<g id="node28" class="node"><title>empty_node_1_2_18</title>
</g>
<!-- empty_node_root_18&#45;&gt;empty_node_1_2_18 -->
<g id="edge7" class="edge"><title>empty_node_root_18&#45;&gt;empty_node_1_2_18</title>
<path fill="none" stroke="black" d="M651.024,-621.707C696.625,-631.718 790.789,-644.322 840,-593 891.308,-539.491 817.804,-320.953 860,-260 865.941,-251.418 875.273,-245.527 884.845,-241.499"/>
<polygon fill="black" stroke="black" points="886.16,-244.745 894.38,-238.06 883.785,-238.16 886.16,-244.745"/>
</g>
<!-- empty_node_1_3_18 -->
<g id="node31" class="node"><title>empty_node_1_3_18</title>
</g>
<!-- empty_node_root_18&#45;&gt;empty_node_1_3_18 -->
<g id="edge8" class="edge"><title>empty_node_root_18&#45;&gt;empty_node_1_3_18</title>
<path fill="none" stroke="black" d="M651.333,-621.449C696.562,-630.796 789.048,-642.054 840,-593 885.914,-548.797 821.659,-501.911 860,-451 866.227,-442.731 875.554,-436.939 885.03,-432.904"/>
<polygon fill="black" stroke="black" points="886.278,-436.175 894.448,-429.429 883.855,-429.608 886.278,-436.175"/>
</g>
<!-- empty_node_1_4_18 -->
<g id="node34" class="node"><title>empty_node_1_4_18</title>
</g>
<!-- empty_node_root_18&#45;&gt;empty_node_1_4_18 -->
<g id="edge9" class="edge"><title>empty_node_root_18&#45;&gt;empty_node_1_4_18</title>
<path fill="none" stroke="black" d="M651.224,-615C704.124,-615 823.711,-615 884.121,-615"/>
<polygon fill="black" stroke="black" points="884.335,-618.5 894.335,-615 884.335,-611.5 884.335,-618.5"/>
</g>
<!-- empty_node_1_5_18 -->
<g id="node37" class="node"><title>empty_node_1_5_18</title>
</g>
<!-- empty_node_root_18&#45;&gt;empty_node_1_5_18 -->
<g id="edge10" class="edge"><title>empty_node_root_18&#45;&gt;empty_node_1_5_18</title>
<path fill="none" stroke="black" d="M651.021,-609.37C696.192,-601.275 789.143,-592.311 840,-642 883.07,-684.081 824.558,-727.32 860,-776 866.21,-784.53 875.532,-790.77 885.009,-795.277"/>
<polygon fill="black" stroke="black" points="883.853,-798.587 894.429,-799.225 886.559,-792.131 883.853,-798.587"/>
</g>
<!-- empty_node_1_6_18 -->
<g id="node40" class="node"><title>empty_node_1_6_18</title>
</g>
<!-- empty_node_root_18&#45;&gt;empty_node_1_6_18 -->
<g id="edge11" class="edge"><title>empty_node_root_18&#45;&gt;empty_node_1_6_18</title>
<path fill="none" stroke="black" d="M651.111,-608.996C696.846,-600.199 791.216,-590.017 840,-642 889.516,-694.763 819.986,-906.712 860,-967 865.884,-975.865 875.199,-982.214 884.773,-986.718"/>
<polygon fill="black" stroke="black" points="883.735,-990.076 894.316,-990.631 886.391,-983.599 883.735,-990.076"/>
</g>
<!-- keys_1_218 -->
<g id="node23" class="node"><title>keys_1_218</title>
<text text-anchor="middle" x="921.5" y="-146.3" font-family="Times New Roman,serif" font-size="14.00">keys=[1,2]</text>
</g>
<!-- c_add_node_1_1_s_18 -->
<g id="node24" class="node"><title>c_add_node_1_1_s_18</title>
<text text-anchor="middle" x="921.5" y="-92.3" font-family="Times New Roman,serif" font-size="14.00">sons=[]</text>
</g>
<!-- keys_4_518 -->
<g id="node26" class="node"><title>keys_4_518</title>
<text text-anchor="middle" x="921.5" y="-337.3" font-family="Times New Roman,serif" font-size="14.00">keys=[4,5]</text>
</g>
<!-- c_add_node_1_2_s_18 -->
<g id="node27" class="node"><title>c_add_node_1_2_s_18</title>
<text text-anchor="middle" x="921.5" y="-283.3" font-family="Times New Roman,serif" font-size="14.00">sons=[]</text>
</g>
<!-- keys_7_818 -->
<g id="node29" class="node"><title>keys_7_818</title>
<text text-anchor="middle" x="921.5" y="-528.3" font-family="Times New Roman,serif" font-size="14.00">keys=[7,8]</text>
</g>
<!-- c_add_node_1_3_s_18 -->
<g id="node30" class="node"><title>c_add_node_1_3_s_18</title>
<text text-anchor="middle" x="921.5" y="-474.3" font-family="Times New Roman,serif" font-size="14.00">sons=[]</text>
</g>
<!-- keys_10_1118 -->
<g id="node32" class="node"><title>keys_10_1118</title>
<text text-anchor="middle" x="921.5" y="-719.3" font-family="Times New Roman,serif" font-size="14.00">keys=[10,11]</text>
</g>
<!-- c_add_node_1_4_s_18 -->
<g id="node33" class="node"><title>c_add_node_1_4_s_18</title>
<text text-anchor="middle" x="921.5" y="-665.3" font-family="Times New Roman,serif" font-size="14.00">sons=[]</text>
</g>
<!-- keys_13_1418 -->
<g id="node35" class="node"><title>keys_13_1418</title>
<text text-anchor="middle" x="921.5" y="-910.3" font-family="Times New Roman,serif" font-size="14.00">keys=[13,14]</text>
</g>
<!-- c_add_node_1_5_s_18 -->
<g id="node36" class="node"><title>c_add_node_1_5_s_18</title>
<text text-anchor="middle" x="921.5" y="-856.3" font-family="Times New Roman,serif" font-size="14.00">sons=[]</text>
</g>
<!-- keys_16_1718 -->
<g id="node38" class="node"><title>keys_16_1718</title>
<text text-anchor="middle" x="921.5" y="-1101.3" font-family="Times New Roman,serif" font-size="14.00">keys=[16,17,18]</text>
</g>
<!-- c_add_node_1_6_s_18 -->
<g id="node39" class="node"><title>c_add_node_1_6_s_18</title>
<text text-anchor="middle" x="921.5" y="-1047.3" font-family="Times New Roman,serif" font-size="14.00">sons=[]</text>
</g>
</g>
</svg>
