<?xml version="1.0" encoding="UTF-8" standalone="no"?>
<!DOCTYPE svg PUBLIC "-//W3C//DTD SVG 1.1//EN"
 "http://www.w3.org/Graphics/SVG/1.1/DTD/svg11.dtd">
<!-- Generated by graphviz version 2.38.0 (20140413.2041)
 -->
<!-- Title: %3 Pages: 1 -->
<svg width="1206pt" height="2273pt"
 viewBox="0.00 0.00 1206.00 2273.00" xmlns="http://www.w3.org/2000/svg" xmlns:xlink="http://www.w3.org/1999/xlink">
<g id="graph0" class="graph" transform="scale(1 1) rotate(0) translate(4 2269)">
<title>%3</title>
<polygon fill="white" stroke="none" points="-4,4 -4,-2269 1202,-2269 1202,4 -4,4"/>
<g id="clust1" class="cluster"><title>cluster_tree_root_8</title>
<polygon fill="none" stroke="black" points="8,-1844 8,-2257 424,-2257 424,-1844 8,-1844"/>
<text text-anchor="middle" x="216" y="-2241.8" font-family="Times New Roman,serif" font-size="14.00">btree(t=3)</text>
</g>
<g id="clust3" class="cluster"><title>cluster_add_node_1_1_8</title>
<polygon fill="none" stroke="black" points="307.5,-1852 307.5,-2035 400.5,-2035 400.5,-1852 307.5,-1852"/>
<text text-anchor="middle" x="354" y="-2019.8" font-family="Times New Roman,serif" font-size="14.00">node_1_1</text>
</g>
<g id="clust2" class="cluster"><title>cluster_add_root_8</title>
<polygon fill="none" stroke="black" points="16,-1970 16,-2153 208,-2153 208,-1970 16,-1970"/>
<text text-anchor="middle" x="112" y="-2137.8" font-family="Times New Roman,serif" font-size="14.00">root: bnode</text>
</g>
<g id="clust4" class="cluster"><title>cluster_add_node_1_2_8</title>
<polygon fill="none" stroke="black" points="292,-2043 292,-2226 416,-2226 416,-2043 292,-2043"/>
<text text-anchor="middle" x="354" y="-2210.8" font-family="Times New Roman,serif" font-size="14.00">node_1_2</text>
</g>
<g id="clust5" class="cluster"><title>cluster_tree_root_9</title>
<polygon fill="none" stroke="black" points="220,-1232 220,-1836 685.5,-1836 685.5,-1232 220,-1232"/>
<text text-anchor="middle" x="452.75" y="-1820.8" font-family="Times New Roman,serif" font-size="14.00">btree(t=3)</text>
</g>
<g id="clust6" class="cluster"><title>cluster_add_root_9</title>
<polygon fill="none" stroke="black" points="228,-1431 228,-1614 480,-1614 480,-1431 228,-1431"/>
<text text-anchor="middle" x="354" y="-1598.8" font-family="Times New Roman,serif" font-size="14.00">root: bnode</text>
</g>
<g id="clust7" class="cluster"><title>cluster_add_node_1_1_9</title>
<polygon fill="none" stroke="black" points="579.5,-1240 579.5,-1423 672.5,-1423 672.5,-1240 579.5,-1240"/>
<text text-anchor="middle" x="626" y="-1407.8" font-family="Times New Roman,serif" font-size="14.00">node_1_1</text>
</g>
<g id="clust8" class="cluster"><title>cluster_add_node_1_2_9</title>
<polygon fill="none" stroke="black" points="579.5,-1431 579.5,-1614 672.5,-1614 672.5,-1431 579.5,-1431"/>
<text text-anchor="middle" x="626" y="-1598.8" font-family="Times New Roman,serif" font-size="14.00">node_1_2</text>
</g>
<g id="clust9" class="cluster"><title>cluster_add_node_1_3_9</title>
<polygon fill="none" stroke="black" points="574.5,-1622 574.5,-1805 677.5,-1805 677.5,-1622 574.5,-1622"/>
<text text-anchor="middle" x="626" y="-1789.8" font-family="Times New Roman,serif" font-size="14.00">node_1_3</text>
</g>
<g id="clust10" class="cluster"><title>cluster_tree_root_10</title>
<polygon fill="none" stroke="black" points="492,-620 492,-1224 966,-1224 966,-620 492,-620"/>
<text text-anchor="middle" x="729" y="-1208.8" font-family="Times New Roman,serif" font-size="14.00">btree(t=3)</text>
</g>
<g id="clust11" class="cluster"><title>cluster_add_root_10</title>
<polygon fill="none" stroke="black" points="500,-819 500,-1002 752,-1002 752,-819 500,-819"/>
<text text-anchor="middle" x="626" y="-986.8" font-family="Times New Roman,serif" font-size="14.00">root: bnode</text>
</g>
<g id="clust12" class="cluster"><title>cluster_add_node_1_1_10</title>
<polygon fill="none" stroke="black" points="851.5,-628 851.5,-811 944.5,-811 944.5,-628 851.5,-628"/>
<text text-anchor="middle" x="898" y="-795.8" font-family="Times New Roman,serif" font-size="14.00">node_1_1</text>
</g>
<g id="clust13" class="cluster"><title>cluster_add_node_1_2_10</title>
<polygon fill="none" stroke="black" points="851.5,-819 851.5,-1002 944.5,-1002 944.5,-819 851.5,-819"/>
<text text-anchor="middle" x="898" y="-986.8" font-family="Times New Roman,serif" font-size="14.00">node_1_2</text>
</g>
<g id="clust14" class="cluster"><title>cluster_add_node_1_3_10</title>
<polygon fill="none" stroke="black" points="838,-1010 838,-1193 958,-1193 958,-1010 838,-1010"/>
<text text-anchor="middle" x="898" y="-1177.8" font-family="Times New Roman,serif" font-size="14.00">node_1_3</text>
</g>
<g id="clust15" class="cluster"><title>cluster_tree_root_11</title>
<polygon fill="none" stroke="black" points="764,-8 764,-612 1190,-612 1190,-8 764,-8"/>
<text text-anchor="middle" x="977" y="-596.8" font-family="Times New Roman,serif" font-size="14.00">btree(t=3)</text>
</g>
<g id="clust16" class="cluster"><title>cluster_add_root_11</title>
<polygon fill="none" stroke="black" points="772,-302 772,-485 1024,-485 1024,-302 772,-302"/>
<text text-anchor="middle" x="898" y="-469.8" font-family="Times New Roman,serif" font-size="14.00">root: bnode</text>
</g>
<g id="clust17" class="cluster"><title>cluster_add_node_1_1_11</title>
<polygon fill="none" stroke="black" points="1066.5,-16 1066.5,-199 1159.5,-199 1159.5,-16 1066.5,-16"/>
<text text-anchor="middle" x="1113" y="-183.8" font-family="Times New Roman,serif" font-size="14.00">node_1_1</text>
</g>
<g id="clust19" class="cluster"><title>cluster_add_node_1_3_11</title>
<polygon fill="none" stroke="black" points="1044,-398 1044,-581 1182,-581 1182,-398 1044,-398"/>
<text text-anchor="middle" x="1113" y="-565.8" font-family="Times New Roman,serif" font-size="14.00">node_1_3</text>
</g>
<g id="clust18" class="cluster"><title>cluster_add_node_1_2_11</title>
<polygon fill="none" stroke="black" points="1066.5,-207 1066.5,-390 1159.5,-390 1159.5,-207 1066.5,-207"/>
<text text-anchor="middle" x="1113" y="-374.8" font-family="Times New Roman,serif" font-size="14.00">node_1_2</text>
</g>
<!-- keys=[3]_8 -->
<g id="node1" class="node"><title>keys=[3]_8</title>
<text text-anchor="middle" x="112" y="-2100.3" font-family="Times New Roman,serif" font-size="14.00">keys=[3]</text>
</g>
<!-- c_add_node_root_s_8 -->
<g id="node2" class="node"><title>c_add_node_root_s_8</title>
<text text-anchor="middle" x="112" y="-2046.3" font-family="Times New Roman,serif" font-size="14.00">sons=[node_1_1,node_1_2]</text>
</g>
<!-- empty_node_root_8 -->
<g id="node3" class="node"><title>empty_node_root_8</title>
</g>
<!-- empty_node_1_1_8 -->
<g id="node6" class="node"><title>empty_node_1_1_8</title>
</g>
<!-- empty_node_root_8&#45;&gt;empty_node_1_1_8 -->
<g id="edge1" class="edge"><title>empty_node_root_8&#45;&gt;empty_node_1_1_8</title>
<path fill="none" stroke="black" d="M139.398,-1997.3C160.932,-1996.83 190.548,-1992.45 208,-1974 229.392,-1951.39 198.301,-1927.32 220,-1905 244.83,-1879.46 286.715,-1874.67 316.853,-1875.03"/>
<polygon fill="black" stroke="black" points="316.872,-1878.53 326.976,-1875.34 317.09,-1871.53 316.872,-1878.53"/>
</g>
<!-- empty_node_1_2_8 -->
<g id="node9" class="node"><title>empty_node_1_2_8</title>
</g>
<!-- empty_node_root_8&#45;&gt;empty_node_1_2_8 -->
<g id="edge2" class="edge"><title>empty_node_root_8&#45;&gt;empty_node_1_2_8</title>
<path fill="none" stroke="black" d="M139.119,-1998.82C159.371,-2002.03 187.369,-2008.82 208,-2023 215.326,-2028.03 212.538,-2034.17 220,-2039 249.071,-2057.82 288.355,-2064.93 316.682,-2067.56"/>
<polygon fill="black" stroke="black" points="316.716,-2071.08 326.959,-2068.37 317.263,-2064.1 316.716,-2071.08"/>
</g>
<!-- keys_1_28 -->
<g id="node4" class="node"><title>keys_1_28</title>
<text text-anchor="middle" x="354" y="-1982.3" font-family="Times New Roman,serif" font-size="14.00">keys=[1,2]</text>
</g>
<!-- c_add_node_1_1_s_8 -->
<g id="node5" class="node"><title>c_add_node_1_1_s_8</title>
<text text-anchor="middle" x="354" y="-1928.3" font-family="Times New Roman,serif" font-size="14.00">sons=[]</text>
</g>
<!-- keys=[4,5,6,7,8] -->
<g id="node7" class="node"><title>keys=[4,5,6,7,8]</title>
<text text-anchor="middle" x="354" y="-2173.3" font-family="Times New Roman,serif" font-size="14.00">keys=[4,5,6,7,8]</text>
</g>
<!-- c_add_node_1_2_s_8 -->
<g id="node8" class="node"><title>c_add_node_1_2_s_8</title>
<text text-anchor="middle" x="354" y="-2119.3" font-family="Times New Roman,serif" font-size="14.00">sons=[]</text>
</g>
<!-- tag__2 -->
<g id="node10" class="node"><title>tag__2</title>
</g>
<!-- tag__3 -->
<g id="node23" class="node"><title>tag__3</title>
</g>
<!-- tag__2&#45;&gt;tag__3 -->
<g id="edge12" class="edge"><title>tag__2&#45;&gt;tag__3</title>
<path fill="none" stroke="black" d="M113.036,-1851.77C114.005,-1787.73 124.513,-1569.22 220,-1427 244.384,-1390.68 287.391,-1363.39 317.893,-1347.36"/>
<polygon fill="black" stroke="black" points="319.608,-1350.41 326.923,-1342.75 316.425,-1344.18 319.608,-1350.41"/>
</g>
<!-- keys=[3]_9 -->
<g id="node11" class="node"><title>keys=[3]_9</title>
<text text-anchor="middle" x="354" y="-1561.3" font-family="Times New Roman,serif" font-size="14.00">keys=[3,6]</text>
</g>
<!-- c_add_node_root_s_9 -->
<g id="node12" class="node"><title>c_add_node_root_s_9</title>
<text text-anchor="middle" x="354" y="-1507.3" font-family="Times New Roman,serif" font-size="14.00">sons=[node_1_1,node_1_2,node_1_3]</text>
</g>
<!-- empty_node_root_9 -->
<g id="node13" class="node"><title>empty_node_root_9</title>
</g>
<!-- empty_node_1_1_9 -->
<g id="node16" class="node"><title>empty_node_1_1_9</title>
</g>
<!-- empty_node_root_9&#45;&gt;empty_node_1_1_9 -->
<g id="edge3" class="edge"><title>empty_node_root_9&#45;&gt;empty_node_1_1_9</title>
<path fill="none" stroke="black" d="M381.077,-1460.74C409.818,-1463.24 455.25,-1462.08 480,-1435 501.364,-1411.62 470.943,-1316.65 492,-1293 515.754,-1266.32 558.026,-1261.77 588.547,-1262.5"/>
<polygon fill="black" stroke="black" points="588.659,-1266.01 598.803,-1262.95 588.966,-1259.01 588.659,-1266.01"/>
</g>
<!-- empty_node_1_2_9 -->
<g id="node19" class="node"><title>empty_node_1_2_9</title>
</g>
<!-- empty_node_root_9&#45;&gt;empty_node_1_2_9 -->
<g id="edge4" class="edge"><title>empty_node_root_9&#45;&gt;empty_node_1_2_9</title>
<path fill="none" stroke="black" d="M381.38,-1457C429.997,-1457 533.787,-1457 588.89,-1457"/>
<polygon fill="black" stroke="black" points="588.91,-1460.5 598.91,-1457 588.91,-1453.5 588.91,-1460.5"/>
</g>
<!-- empty_node_1_3_9 -->
<g id="node22" class="node"><title>empty_node_1_3_9</title>
</g>
<!-- empty_node_root_9&#45;&gt;empty_node_1_3_9 -->
<g id="edge5" class="edge"><title>empty_node_root_9&#45;&gt;empty_node_1_3_9</title>
<path fill="none" stroke="black" d="M381.177,-1454.44C410.009,-1453.21 455.523,-1456.3 480,-1484 499.796,-1506.4 472.306,-1595.51 492,-1618 515.642,-1645 557.934,-1650.54 588.491,-1650.57"/>
<polygon fill="black" stroke="black" points="588.828,-1654.07 598.76,-1650.38 588.696,-1647.07 588.828,-1654.07"/>
</g>
<!-- keys_1_29 -->
<g id="node14" class="node"><title>keys_1_29</title>
<text text-anchor="middle" x="626" y="-1370.3" font-family="Times New Roman,serif" font-size="14.00">keys=[1,2]</text>
</g>
<!-- c_add_node_1_1_s_9 -->
<g id="node15" class="node"><title>c_add_node_1_1_s_9</title>
<text text-anchor="middle" x="626" y="-1316.3" font-family="Times New Roman,serif" font-size="14.00">sons=[]</text>
</g>
<!-- keys_4_59 -->
<g id="node17" class="node"><title>keys_4_59</title>
<text text-anchor="middle" x="626" y="-1561.3" font-family="Times New Roman,serif" font-size="14.00">keys=[4,5]</text>
</g>
<!-- c_add_node_1_2_s_9 -->
<g id="node18" class="node"><title>c_add_node_1_2_s_9</title>
<text text-anchor="middle" x="626" y="-1507.3" font-family="Times New Roman,serif" font-size="14.00">sons=[]</text>
</g>
<!-- keys=[7,8,9] -->
<g id="node20" class="node"><title>keys=[7,8,9]</title>
<text text-anchor="middle" x="626" y="-1752.3" font-family="Times New Roman,serif" font-size="14.00">keys=[7,8,9]</text>
</g>
<!-- c_add_node_1_3_s_9 -->
<g id="node21" class="node"><title>c_add_node_1_3_s_9</title>
<text text-anchor="middle" x="626" y="-1698.3" font-family="Times New Roman,serif" font-size="14.00">sons=[]</text>
</g>
<!-- tag__4 -->
<g id="node36" class="node"><title>tag__4</title>
</g>
<!-- tag__3&#45;&gt;tag__4 -->
<g id="edge13" class="edge"><title>tag__3&#45;&gt;tag__4</title>
<path fill="none" stroke="black" d="M355.529,-1312.74C358.402,-1242.15 376.697,-982.619 492,-815 516.718,-779.067 559.464,-751.768 589.82,-735.634"/>
<polygon fill="black" stroke="black" points="591.532,-738.689 598.809,-730.988 588.318,-732.47 591.532,-738.689"/>
</g>
<!-- keys=[3]_10 -->
<g id="node24" class="node"><title>keys=[3]_10</title>
<text text-anchor="middle" x="626" y="-949.3" font-family="Times New Roman,serif" font-size="14.00">keys=[3,6]</text>
</g>
<!-- c_add_node_root_s_10 -->
<g id="node25" class="node"><title>c_add_node_root_s_10</title>
<text text-anchor="middle" x="626" y="-895.3" font-family="Times New Roman,serif" font-size="14.00">sons=[node_1_1,node_1_2,node_1_3]</text>
</g>
<!-- empty_node_root_10 -->
<g id="node26" class="node"><title>empty_node_root_10</title>
</g>
<!-- empty_node_1_1_10 -->
<g id="node29" class="node"><title>empty_node_1_1_10</title>
</g>
<!-- empty_node_root_10&#45;&gt;empty_node_1_1_10 -->
<g id="edge6" class="edge"><title>empty_node_root_10&#45;&gt;empty_node_1_1_10</title>
<path fill="none" stroke="black" d="M653.077,-848.744C681.818,-851.242 727.25,-850.082 752,-823 773.364,-799.624 742.943,-704.653 764,-681 787.754,-654.318 830.026,-649.77 860.547,-650.498"/>
<polygon fill="black" stroke="black" points="860.659,-654.006 870.803,-650.948 860.966,-647.013 860.659,-654.006"/>
</g>
<!-- empty_node_1_2_10 -->
<g id="node32" class="node"><title>empty_node_1_2_10</title>
</g>
<!-- empty_node_root_10&#45;&gt;empty_node_1_2_10 -->
<g id="edge7" class="edge"><title>empty_node_root_10&#45;&gt;empty_node_1_2_10</title>
<path fill="none" stroke="black" d="M653.38,-845C701.997,-845 805.787,-845 860.89,-845"/>
<polygon fill="black" stroke="black" points="860.91,-848.5 870.91,-845 860.91,-841.5 860.91,-848.5"/>
</g>
<!-- empty_node_1_3_10 -->
<g id="node35" class="node"><title>empty_node_1_3_10</title>
</g>
<!-- empty_node_root_10&#45;&gt;empty_node_1_3_10 -->
<g id="edge8" class="edge"><title>empty_node_root_10&#45;&gt;empty_node_1_3_10</title>
<path fill="none" stroke="black" d="M653.177,-842.435C682.009,-841.21 727.523,-844.299 752,-872 771.796,-894.404 744.306,-983.506 764,-1006 787.642,-1033 829.934,-1038.54 860.491,-1038.57"/>
<polygon fill="black" stroke="black" points="860.828,-1042.07 870.76,-1038.38 860.696,-1035.07 860.828,-1042.07"/>
</g>
<!-- keys_1_210 -->
<g id="node27" class="node"><title>keys_1_210</title>
<text text-anchor="middle" x="898" y="-758.3" font-family="Times New Roman,serif" font-size="14.00">keys=[1,2]</text>
</g>
<!-- c_add_node_1_1_s_10 -->
<g id="node28" class="node"><title>c_add_node_1_1_s_10</title>
<text text-anchor="middle" x="898" y="-704.3" font-family="Times New Roman,serif" font-size="14.00">sons=[]</text>
</g>
<!-- keys_4_510 -->
<g id="node30" class="node"><title>keys_4_510</title>
<text text-anchor="middle" x="898" y="-949.3" font-family="Times New Roman,serif" font-size="14.00">keys=[4,5]</text>
</g>
<!-- c_add_node_1_2_s_10 -->
<g id="node31" class="node"><title>c_add_node_1_2_s_10</title>
<text text-anchor="middle" x="898" y="-895.3" font-family="Times New Roman,serif" font-size="14.00">sons=[]</text>
</g>
<!-- keys=[7,8,9,10] -->
<g id="node33" class="node"><title>keys=[7,8,9,10]</title>
<text text-anchor="middle" x="898" y="-1140.3" font-family="Times New Roman,serif" font-size="14.00">keys=[7,8,9,10]</text>
</g>
<!-- c_add_node_1_3_s_10 -->
<g id="node34" class="node"><title>c_add_node_1_3_s_10</title>
<text text-anchor="middle" x="898" y="-1086.3" font-family="Times New Roman,serif" font-size="14.00">sons=[]</text>
</g>
<!-- tag__5 -->
<g id="node49" class="node"><title>tag__5</title>
</g>
<!-- tag__4&#45;&gt;tag__5 -->
<g id="edge14" class="edge"><title>tag__4&#45;&gt;tag__5</title>
<path fill="none" stroke="black" d="M626.816,-700.755C627.218,-634.949 638.025,-407.901 764,-298 790.376,-274.99 831.175,-270.647 860.632,-271.03"/>
<polygon fill="black" stroke="black" points="860.816,-274.537 870.923,-271.359 861.04,-267.541 860.816,-274.537"/>
</g>
<!-- keys=[3]_11 -->
<g id="node37" class="node"><title>keys=[3]_11</title>
<text text-anchor="middle" x="898" y="-432.3" font-family="Times New Roman,serif" font-size="14.00">keys=[3,6]</text>
</g>
<!-- c_add_node_root_s_11 -->
<g id="node38" class="node"><title>c_add_node_root_s_11</title>
<text text-anchor="middle" x="898" y="-378.3" font-family="Times New Roman,serif" font-size="14.00">sons=[node_1_1,node_1_2,node_1_3]</text>
</g>
<!-- empty_node_root_11 -->
<g id="node39" class="node"><title>empty_node_root_11</title>
</g>
<!-- empty_node_1_1_11 -->
<g id="node42" class="node"><title>empty_node_1_1_11</title>
</g>
<!-- empty_node_root_11&#45;&gt;empty_node_1_1_11 -->
<g id="edge9" class="edge"><title>empty_node_root_11&#45;&gt;empty_node_1_1_11</title>
<path fill="none" stroke="black" d="M925.077,-331.744C953.819,-334.243 999.251,-333.084 1024,-306 1059.65,-266.983 1012.5,-111.441 1044,-69 1051.69,-58.641 1063.98,-52.2518 1076.01,-48.313"/>
<polygon fill="black" stroke="black" points="1077.25,-51.6002 1085.95,-45.5473 1075.38,-44.8564 1077.25,-51.6002"/>
</g>
<!-- empty_node_1_2_11 -->
<g id="node45" class="node"><title>empty_node_1_2_11</title>
</g>
<!-- empty_node_root_11&#45;&gt;empty_node_1_2_11 -->
<g id="edge10" class="edge"><title>empty_node_root_11&#45;&gt;empty_node_1_2_11</title>
<path fill="none" stroke="black" d="M925.083,-330.193C952.564,-331.089 995.704,-328.3 1024,-306 1041.51,-292.201 1027.98,-275.508 1044,-260 1052.82,-251.457 1064.68,-245.516 1076.02,-241.43"/>
<polygon fill="black" stroke="black" points="1077.32,-244.69 1085.77,-238.298 1075.17,-238.026 1077.32,-244.69"/>
</g>
<!-- empty_node_1_3_11 -->
<g id="node48" class="node"><title>empty_node_1_3_11</title>
</g>
<!-- empty_node_root_11&#45;&gt;empty_node_1_3_11 -->
<g id="edge11" class="edge"><title>empty_node_root_11&#45;&gt;empty_node_1_3_11</title>
<path fill="none" stroke="black" d="M925.14,-327.375C952.469,-328.04 995.297,-332.96 1024,-355 1039.45,-366.864 1029.83,-380.634 1044,-394 1053,-402.492 1064.8,-408.831 1076.04,-413.439"/>
<polygon fill="black" stroke="black" points="1075.1,-416.823 1085.69,-417.054 1077.55,-410.268 1075.1,-416.823"/>
</g>
<!-- keys_1_211 -->
<g id="node40" class="node"><title>keys_1_211</title>
<text text-anchor="middle" x="1113" y="-146.3" font-family="Times New Roman,serif" font-size="14.00">keys=[1,2]</text>
</g>
<!-- c_add_node_1_1_s_11 -->
<g id="node41" class="node"><title>c_add_node_1_1_s_11</title>
<text text-anchor="middle" x="1113" y="-92.3" font-family="Times New Roman,serif" font-size="14.00">sons=[]</text>
</g>
<!-- keys_4_511 -->
<g id="node43" class="node"><title>keys_4_511</title>
<text text-anchor="middle" x="1113" y="-337.3" font-family="Times New Roman,serif" font-size="14.00">keys=[4,5]</text>
</g>
<!-- c_add_node_1_2_s_11 -->
<g id="node44" class="node"><title>c_add_node_1_2_s_11</title>
<text text-anchor="middle" x="1113" y="-283.3" font-family="Times New Roman,serif" font-size="14.00">sons=[]</text>
</g>
<!-- keys=[7,8,9,10,11] -->
<g id="node46" class="node"><title>keys=[7,8,9,10,11]</title>
<text text-anchor="middle" x="1113" y="-528.3" font-family="Times New Roman,serif" font-size="14.00">keys=[7,8,9,10,11]</text>
</g>
<!-- c_add_node_1_3_s_11 -->
<g id="node47" class="node"><title>c_add_node_1_3_s_11</title>
<text text-anchor="middle" x="1113" y="-474.3" font-family="Times New Roman,serif" font-size="14.00">sons=[]</text>
</g>
</g>
</svg>
