<?xml version="1.0" encoding="UTF-8" standalone="no"?>
<!DOCTYPE svg PUBLIC "-//W3C//DTD SVG 1.1//EN"
 "http://www.w3.org/Graphics/SVG/1.1/DTD/svg11.dtd">
<!-- Generated by graphviz version 2.38.0 (20140413.2041)
 -->
<!-- Title: %3 Pages: 1 -->
<svg width="1436pt" height="1279pt"
 viewBox="0.00 0.00 1436.00 1279.00" xmlns="http://www.w3.org/2000/svg" xmlns:xlink="http://www.w3.org/1999/xlink">
<g id="graph0" class="graph" transform="scale(1 1) rotate(0) translate(4 1275)">
<title>%3</title>
<polygon fill="white" stroke="none" points="-4,4 -4,-1275 1432,-1275 1432,4 -4,4"/>
<g id="clust1" class="cluster"><title>cluster_tree_add_1</title>
<polygon fill="none" stroke="black" points="8,-850 8,-1041 106,-1041 106,-850 8,-850"/>
</g>
<g id="clust2" class="cluster"><title>cluster_add_1</title>
<polygon fill="none" stroke="black" points="16,-904 16,-1033 98,-1033 98,-904 16,-904"/>
<text text-anchor="middle" x="57" y="-1017.8" font-family="Times New Roman,serif" font-size="14.00">bnode</text>
</g>
<g id="clust3" class="cluster"><title>cluster_tree_add_2</title>
<polygon fill="none" stroke="black" points="114,-850 114,-1041 223,-1041 223,-850 114,-850"/>
</g>
<g id="clust4" class="cluster"><title>cluster_add_2</title>
<polygon fill="none" stroke="black" points="122,-904 122,-1033 215,-1033 215,-904 122,-904"/>
<text text-anchor="middle" x="168.5" y="-1017.8" font-family="Times New Roman,serif" font-size="14.00">bnode</text>
</g>
<g id="clust5" class="cluster"><title>cluster_tree_add_3</title>
<polygon fill="none" stroke="black" points="231,-850 231,-1041 350,-1041 350,-850 231,-850"/>
</g>
<g id="clust6" class="cluster"><title>cluster_add_3</title>
<polygon fill="none" stroke="black" points="239,-904 239,-1033 342,-1033 342,-904 239,-904"/>
<text text-anchor="middle" x="290.5" y="-1017.8" font-family="Times New Roman,serif" font-size="14.00">bnode</text>
</g>
<g id="clust7" class="cluster"><title>cluster_tree_add_4</title>
<polygon fill="none" stroke="black" points="358,-850 358,-1041 488,-1041 488,-850 358,-850"/>
</g>
<g id="clust8" class="cluster"><title>cluster_add_4</title>
<polygon fill="none" stroke="black" points="366,-904 366,-1033 480,-1033 480,-904 366,-904"/>
<text text-anchor="middle" x="423" y="-1017.8" font-family="Times New Roman,serif" font-size="14.00">bnode</text>
</g>
<g id="clust9" class="cluster"><title>cluster_tree_add_5</title>
<polygon fill="none" stroke="black" points="496,-850 496,-1041 636,-1041 636,-850 496,-850"/>
</g>
<g id="clust10" class="cluster"><title>cluster_add_5</title>
<polygon fill="none" stroke="black" points="504,-904 504,-1033 628,-1033 628,-904 504,-904"/>
<text text-anchor="middle" x="566" y="-1017.8" font-family="Times New Roman,serif" font-size="14.00">bnode</text>
</g>
<g id="clust11" class="cluster"><title>cluster_tree_root_6</title>
<polygon fill="none" stroke="black" points="644,-850 644,-1263 1019.5,-1263 1019.5,-850 644,-850"/>
<text text-anchor="middle" x="831.75" y="-1247.8" font-family="Times New Roman,serif" font-size="14.00">btree(t=3)</text>
</g>
<g id="clust12" class="cluster"><title>cluster_add_root_6</title>
<polygon fill="none" stroke="black" points="652,-976 652,-1159 844,-1159 844,-976 652,-976"/>
<text text-anchor="middle" x="748" y="-1143.8" font-family="Times New Roman,serif" font-size="14.00">root: bnode</text>
</g>
<g id="clust13" class="cluster"><title>cluster_add_node_1_1_6</title>
<polygon fill="none" stroke="black" points="913.5,-858 913.5,-1041 1006.5,-1041 1006.5,-858 913.5,-858"/>
<text text-anchor="middle" x="960" y="-1025.8" font-family="Times New Roman,serif" font-size="14.00">node_1_1</text>
</g>
<g id="clust14" class="cluster"><title>cluster_add_node_1_2_6</title>
<polygon fill="none" stroke="black" points="908.5,-1049 908.5,-1232 1011.5,-1232 1011.5,-1049 908.5,-1049"/>
<text text-anchor="middle" x="960" y="-1216.8" font-family="Times New Roman,serif" font-size="14.00">node_1_2</text>
</g>
<g id="clust15" class="cluster"><title>cluster_tree_root_7</title>
<polygon fill="none" stroke="black" points="856,-429 856,-842 1237,-842 1237,-429 856,-429"/>
<text text-anchor="middle" x="1046.5" y="-826.8" font-family="Times New Roman,serif" font-size="14.00">btree(t=3)</text>
</g>
<g id="clust16" class="cluster"><title>cluster_add_root_7</title>
<polygon fill="none" stroke="black" points="864,-591 864,-774 1056,-774 1056,-591 864,-591"/>
<text text-anchor="middle" x="960" y="-758.8" font-family="Times New Roman,serif" font-size="14.00">root: bnode</text>
</g>
<g id="clust17" class="cluster"><title>cluster_add_node_1_1_7</title>
<polygon fill="none" stroke="black" points="1125.5,-437 1125.5,-620 1218.5,-620 1218.5,-437 1125.5,-437"/>
<text text-anchor="middle" x="1172" y="-604.8" font-family="Times New Roman,serif" font-size="14.00">node_1_1</text>
</g>
<g id="clust18" class="cluster"><title>cluster_add_node_1_2_7</title>
<polygon fill="none" stroke="black" points="1115,-628 1115,-811 1229,-811 1229,-628 1115,-628"/>
<text text-anchor="middle" x="1172" y="-795.8" font-family="Times New Roman,serif" font-size="14.00">node_1_2</text>
</g>
<g id="clust19" class="cluster"><title>cluster_tree_root_8</title>
<polygon fill="none" stroke="black" points="1068,-8 1068,-421 1420,-421 1420,-8 1068,-8"/>
<text text-anchor="middle" x="1244" y="-405.8" font-family="Times New Roman,serif" font-size="14.00">btree(t=3)</text>
</g>
<g id="clust20" class="cluster"><title>cluster_add_root_8</title>
<polygon fill="none" stroke="black" points="1076,-207 1076,-390 1268,-390 1268,-207 1076,-207"/>
<text text-anchor="middle" x="1172" y="-374.8" font-family="Times New Roman,serif" font-size="14.00">root: bnode</text>
</g>
<g id="clust21" class="cluster"><title>cluster_add_node_1_1_8</title>
<polygon fill="none" stroke="black" points="1303.5,-16 1303.5,-199 1396.5,-199 1396.5,-16 1303.5,-16"/>
<text text-anchor="middle" x="1350" y="-183.8" font-family="Times New Roman,serif" font-size="14.00">node_1_1</text>
</g>
<g id="clust22" class="cluster"><title>cluster_add_node_1_2_8</title>
<polygon fill="none" stroke="black" points="1288,-207 1288,-390 1412,-390 1412,-207 1288,-207"/>
<text text-anchor="middle" x="1350" y="-374.8" font-family="Times New Roman,serif" font-size="14.00">node_1_2</text>
</g>
<!-- keys=[1] -->
<g id="node1" class="node"><title>keys=[1]</title>
<text text-anchor="middle" x="57" y="-980.3" font-family="Times New Roman,serif" font-size="14.00">keys=[1]</text>
</g>
<!-- c_add_node_s_1 -->
<g id="node2" class="node"><title>c_add_node_s_1</title>
<text text-anchor="middle" x="57" y="-926.3" font-family="Times New Roman,serif" font-size="14.00">sons=[]</text>
</g>
<!-- tag__2 -->
<g id="node3" class="node"><title>tag__2</title>
</g>
<!-- tag__3 -->
<g id="node6" class="node"><title>tag__3</title>
</g>
<!-- tag__2&#45;&gt;tag__3 -->
<g id="edge7" class="edge"><title>tag__2&#45;&gt;tag__3</title>
<path fill="none" stroke="black" d="M84.228,-876C98.3136,-876 115.894,-876 131.266,-876"/>
<polygon fill="black" stroke="black" points="131.486,-879.5 141.486,-876 131.486,-872.5 131.486,-879.5"/>
</g>
<!-- keys=[1,2] -->
<g id="node4" class="node"><title>keys=[1,2]</title>
<text text-anchor="middle" x="168.5" y="-980.3" font-family="Times New Roman,serif" font-size="14.00">keys=[1,2]</text>
</g>
<!-- c_add_node_s_2 -->
<g id="node5" class="node"><title>c_add_node_s_2</title>
<text text-anchor="middle" x="168.5" y="-926.3" font-family="Times New Roman,serif" font-size="14.00">sons=[]</text>
</g>
<!-- tag__4 -->
<g id="node9" class="node"><title>tag__4</title>
</g>
<!-- tag__3&#45;&gt;tag__4 -->
<g id="edge8" class="edge"><title>tag__3&#45;&gt;tag__4</title>
<path fill="none" stroke="black" d="M195.538,-876C212.327,-876 234.405,-876 252.941,-876"/>
<polygon fill="black" stroke="black" points="253.098,-879.5 263.098,-876 253.098,-872.5 253.098,-879.5"/>
</g>
<!-- keys=[1,2,3] -->
<g id="node7" class="node"><title>keys=[1,2,3]</title>
<text text-anchor="middle" x="290.5" y="-980.3" font-family="Times New Roman,serif" font-size="14.00">keys=[1,2,3]</text>
</g>
<!-- c_add_node_s_3 -->
<g id="node8" class="node"><title>c_add_node_s_3</title>
<text text-anchor="middle" x="290.5" y="-926.3" font-family="Times New Roman,serif" font-size="14.00">sons=[]</text>
</g>
<!-- tag__5 -->
<g id="node12" class="node"><title>tag__5</title>
</g>
<!-- tag__4&#45;&gt;tag__5 -->
<g id="edge9" class="edge"><title>tag__4&#45;&gt;tag__5</title>
<path fill="none" stroke="black" d="M317.595,-876C337.155,-876 364.164,-876 385.811,-876"/>
<polygon fill="black" stroke="black" points="385.95,-879.5 395.95,-876 385.95,-872.5 385.95,-879.5"/>
</g>
<!-- keys=[1,2,3,4] -->
<g id="node10" class="node"><title>keys=[1,2,3,4]</title>
<text text-anchor="middle" x="423" y="-980.3" font-family="Times New Roman,serif" font-size="14.00">keys=[1,2,3,4]</text>
</g>
<!-- c_add_node_s_4 -->
<g id="node11" class="node"><title>c_add_node_s_4</title>
<text text-anchor="middle" x="423" y="-926.3" font-family="Times New Roman,serif" font-size="14.00">sons=[]</text>
</g>
<!-- tag__6 -->
<g id="node15" class="node"><title>tag__6</title>
</g>
<!-- tag__5&#45;&gt;tag__6 -->
<g id="edge10" class="edge"><title>tag__5&#45;&gt;tag__6</title>
<path fill="none" stroke="black" d="M450.191,-876C472.351,-876 504.333,-876 528.917,-876"/>
<polygon fill="black" stroke="black" points="528.95,-879.5 538.95,-876 528.95,-872.5 528.95,-879.5"/>
</g>
<!-- keys=[1,2,3,4,5] -->
<g id="node13" class="node"><title>keys=[1,2,3,4,5]</title>
<text text-anchor="middle" x="566" y="-980.3" font-family="Times New Roman,serif" font-size="14.00">keys=[1,2,3,4,5]</text>
</g>
<!-- c_add_node_s_5 -->
<g id="node14" class="node"><title>c_add_node_s_5</title>
<text text-anchor="middle" x="566" y="-926.3" font-family="Times New Roman,serif" font-size="14.00">sons=[]</text>
</g>
<!-- tag__7 -->
<g id="node25" class="node"><title>tag__7</title>
</g>
<!-- tag__6&#45;&gt;tag__7 -->
<g id="edge11" class="edge"><title>tag__6&#45;&gt;tag__7</title>
<path fill="none" stroke="black" d="M593.174,-876C624.101,-876 675.746,-876 710.569,-876"/>
<polygon fill="black" stroke="black" points="710.795,-879.5 720.795,-876 710.795,-872.5 710.795,-879.5"/>
</g>
<!-- keys=[3]_6 -->
<g id="node16" class="node"><title>keys=[3]_6</title>
<text text-anchor="middle" x="748" y="-1106.3" font-family="Times New Roman,serif" font-size="14.00">keys=[3]</text>
</g>
<!-- c_add_node_root_s_6 -->
<g id="node17" class="node"><title>c_add_node_root_s_6</title>
<text text-anchor="middle" x="748" y="-1052.3" font-family="Times New Roman,serif" font-size="14.00">sons=[node_1_1,node_1_2]</text>
</g>
<!-- empty_node_root_6 -->
<g id="node18" class="node"><title>empty_node_root_6</title>
</g>
<!-- empty_node_1_1_6 -->
<g id="node21" class="node"><title>empty_node_1_1_6</title>
</g>
<!-- empty_node_root_6&#45;&gt;empty_node_1_1_6 -->
<g id="edge1" class="edge"><title>empty_node_root_6&#45;&gt;empty_node_1_1_6</title>
<path fill="none" stroke="black" d="M775.398,-1003.3C796.932,-1002.83 826.548,-998.447 844,-980 865.392,-957.389 834.935,-933.917 856,-911 872.74,-892.789 900.12,-886.238 922.444,-884.135"/>
<polygon fill="black" stroke="black" points="922.87,-887.614 932.608,-883.441 922.393,-880.63 922.87,-887.614"/>
</g>
<!-- empty_node_1_2_6 -->
<g id="node24" class="node"><title>empty_node_1_2_6</title>
</g>
<!-- empty_node_root_6&#45;&gt;empty_node_1_2_6 -->
<g id="edge2" class="edge"><title>empty_node_root_6&#45;&gt;empty_node_1_2_6</title>
<path fill="none" stroke="black" d="M775.119,-1004.82C795.371,-1008.03 823.369,-1014.82 844,-1029 851.326,-1034.03 848.691,-1039.94 856,-1045 875.784,-1058.69 901.827,-1066.2 922.776,-1070.29"/>
<polygon fill="black" stroke="black" points="922.446,-1073.78 932.903,-1072.08 923.664,-1066.89 922.446,-1073.78"/>
</g>
<!-- keys_1_26 -->
<g id="node19" class="node"><title>keys_1_26</title>
<text text-anchor="middle" x="960" y="-988.3" font-family="Times New Roman,serif" font-size="14.00">keys=[1,2]</text>
</g>
<!-- c_add_node_1_1_s_6 -->
<g id="node20" class="node"><title>c_add_node_1_1_s_6</title>
<text text-anchor="middle" x="960" y="-934.3" font-family="Times New Roman,serif" font-size="14.00">sons=[]</text>
</g>
<!-- keys=[4,5,6] -->
<g id="node22" class="node"><title>keys=[4,5,6]</title>
<text text-anchor="middle" x="960" y="-1179.3" font-family="Times New Roman,serif" font-size="14.00">keys=[4,5,6]</text>
</g>
<!-- c_add_node_1_2_s_6 -->
<g id="node23" class="node"><title>c_add_node_1_2_s_6</title>
<text text-anchor="middle" x="960" y="-1125.3" font-family="Times New Roman,serif" font-size="14.00">sons=[]</text>
</g>
<!-- tag__8 -->
<g id="node35" class="node"><title>tag__8</title>
</g>
<!-- tag__7&#45;&gt;tag__8 -->
<g id="edge12" class="edge"><title>tag__7&#45;&gt;tag__8</title>
<path fill="none" stroke="black" d="M751.375,-857.963C758.637,-809.07 784.569,-671.985 856,-587 873.862,-565.748 901.288,-550.293 923.349,-540.396"/>
<polygon fill="black" stroke="black" points="924.932,-543.525 932.742,-536.366 922.172,-537.092 924.932,-543.525"/>
</g>
<!-- keys=[3]_7 -->
<g id="node26" class="node"><title>keys=[3]_7</title>
<text text-anchor="middle" x="960" y="-721.3" font-family="Times New Roman,serif" font-size="14.00">keys=[3]</text>
</g>
<!-- c_add_node_root_s_7 -->
<g id="node27" class="node"><title>c_add_node_root_s_7</title>
<text text-anchor="middle" x="960" y="-667.3" font-family="Times New Roman,serif" font-size="14.00">sons=[node_1_1,node_1_2]</text>
</g>
<!-- empty_node_root_7 -->
<g id="node28" class="node"><title>empty_node_root_7</title>
</g>
<!-- empty_node_1_1_7 -->
<g id="node31" class="node"><title>empty_node_1_1_7</title>
</g>
<!-- empty_node_root_7&#45;&gt;empty_node_1_1_7 -->
<g id="edge3" class="edge"><title>empty_node_root_7&#45;&gt;empty_node_1_1_7</title>
<path fill="none" stroke="black" d="M987.246,-618.56C1008.99,-618.301 1038.98,-614.075 1056,-595 1087.27,-559.952 1037.24,-525.494 1068,-490 1084.31,-471.187 1111.96,-464.696 1134.51,-462.768"/>
<polygon fill="black" stroke="black" points="1135,-466.246 1144.77,-462.165 1134.59,-459.258 1135,-466.246"/>
</g>
<!-- empty_node_1_2_7 -->
<g id="node34" class="node"><title>empty_node_1_2_7</title>
</g>
<!-- empty_node_root_7&#45;&gt;empty_node_1_2_7 -->
<g id="edge4" class="edge"><title>empty_node_root_7&#45;&gt;empty_node_1_2_7</title>
<path fill="none" stroke="black" d="M987.172,-621.611C1024.37,-628.165 1092.68,-640.2 1134.74,-647.611"/>
<polygon fill="black" stroke="black" points="1134.37,-651.101 1144.83,-649.389 1135.59,-644.207 1134.37,-651.101"/>
</g>
<!-- keys_1_27 -->
<g id="node29" class="node"><title>keys_1_27</title>
<text text-anchor="middle" x="1172" y="-567.3" font-family="Times New Roman,serif" font-size="14.00">keys=[1,2]</text>
</g>
<!-- c_add_node_1_1_s_7 -->
<g id="node30" class="node"><title>c_add_node_1_1_s_7</title>
<text text-anchor="middle" x="1172" y="-513.3" font-family="Times New Roman,serif" font-size="14.00">sons=[]</text>
</g>
<!-- keys=[4,5,6,7] -->
<g id="node32" class="node"><title>keys=[4,5,6,7]</title>
<text text-anchor="middle" x="1172" y="-758.3" font-family="Times New Roman,serif" font-size="14.00">keys=[4,5,6,7]</text>
</g>
<!-- c_add_node_1_2_s_7 -->
<g id="node33" class="node"><title>c_add_node_1_2_s_7</title>
<text text-anchor="middle" x="1172" y="-704.3" font-family="Times New Roman,serif" font-size="14.00">sons=[]</text>
</g>
<!-- tag__9 -->
<g id="node45" class="node"><title>tag__9</title>
</g>
<!-- tag__8&#45;&gt;tag__9 -->
<g id="edge13" class="edge"><title>tag__8&#45;&gt;tag__9</title>
<path fill="none" stroke="black" d="M961.191,-508.695C962.811,-453.532 975.51,-287.515 1068,-203 1085.94,-186.608 1112.86,-180.75 1134.68,-178.916"/>
<polygon fill="black" stroke="black" points="1135.14,-182.395 1144.92,-178.31 1134.73,-175.407 1135.14,-182.395"/>
</g>
<!-- keys=[3]_8 -->
<g id="node36" class="node"><title>keys=[3]_8</title>
<text text-anchor="middle" x="1172" y="-337.3" font-family="Times New Roman,serif" font-size="14.00">keys=[3]</text>
</g>
<!-- c_add_node_root_s_8 -->
<g id="node37" class="node"><title>c_add_node_root_s_8</title>
<text text-anchor="middle" x="1172" y="-283.3" font-family="Times New Roman,serif" font-size="14.00">sons=[node_1_1,node_1_2]</text>
</g>
<!-- empty_node_root_8 -->
<g id="node38" class="node"><title>empty_node_root_8</title>
</g>
<!-- empty_node_1_1_8 -->
<g id="node41" class="node"><title>empty_node_1_1_8</title>
</g>
<!-- empty_node_root_8&#45;&gt;empty_node_1_1_8 -->
<g id="edge5" class="edge"><title>empty_node_root_8&#45;&gt;empty_node_1_1_8</title>
<path fill="none" stroke="black" d="M1199.12,-234.447C1220.78,-234.118 1250.73,-229.851 1268,-211 1311.05,-164.002 1249.58,-119.853 1288,-69 1294.28,-60.6835 1303.69,-54.8774 1313.24,-50.8445"/>
<polygon fill="black" stroke="black" points="1314.55,-54.0947 1322.74,-47.3754 1312.14,-47.5198 1314.55,-54.0947"/>
</g>
<!-- empty_node_1_2_8 -->
<g id="node44" class="node"><title>empty_node_1_2_8</title>
</g>
<!-- empty_node_root_8&#45;&gt;empty_node_1_2_8 -->
<g id="edge6" class="edge"><title>empty_node_root_8&#45;&gt;empty_node_1_2_8</title>
<path fill="none" stroke="black" d="M1199.35,-233C1229.37,-233 1278.64,-233 1312.39,-233"/>
<polygon fill="black" stroke="black" points="1312.76,-236.5 1322.76,-233 1312.76,-229.5 1312.76,-236.5"/>
</g>
<!-- keys_1_28 -->
<g id="node39" class="node"><title>keys_1_28</title>
<text text-anchor="middle" x="1350" y="-146.3" font-family="Times New Roman,serif" font-size="14.00">keys=[1,2]</text>
</g>
<!-- c_add_node_1_1_s_8 -->
<g id="node40" class="node"><title>c_add_node_1_1_s_8</title>
<text text-anchor="middle" x="1350" y="-92.3" font-family="Times New Roman,serif" font-size="14.00">sons=[]</text>
</g>
<!-- keys=[4,5,6,7,8] -->
<g id="node42" class="node"><title>keys=[4,5,6,7,8]</title>
<text text-anchor="middle" x="1350" y="-337.3" font-family="Times New Roman,serif" font-size="14.00">keys=[4,5,6,7,8]</text>
</g>
<!-- c_add_node_1_2_s_8 -->
<g id="node43" class="node"><title>c_add_node_1_2_s_8</title>
<text text-anchor="middle" x="1350" y="-283.3" font-family="Times New Roman,serif" font-size="14.00">sons=[]</text>
</g>
</g>
</svg>
