<?xml version="1.0" encoding="UTF-8" standalone="no"?>
<!DOCTYPE svg PUBLIC "-//W3C//DTD SVG 1.1//EN"
 "http://www.w3.org/Graphics/SVG/1.1/DTD/svg11.dtd">
<!-- Generated by graphviz version 2.38.0 (20140413.2041)
 -->
<!-- Title: %3 Pages: 1 -->
<svg width="664pt" height="300pt"
 viewBox="0.00 0.00 663.89 300.00" xmlns="http://www.w3.org/2000/svg" xmlns:xlink="http://www.w3.org/1999/xlink">
<g id="graph0" class="graph" transform="scale(1 1) rotate(0) translate(4 296)">
<title>%3</title>
<polygon fill="white" stroke="none" points="-4,4 -4,-296 659.887,-296 659.887,4 -4,4"/>
<g id="clust1" class="cluster"><title>cluster__init_file</title>
<polygon fill="none" stroke="black" points="3,-16 3,-91 84,-91 84,-16 3,-16"/>
<text text-anchor="middle" x="43.5" y="-75.8" font-family="Times New Roman,serif" font-size="14.00">__init__.py</text>
</g>
<g id="clust3" class="cluster"><title>cluster_scaffold_file</title>
<polygon fill="none" stroke="black" points="194,-16 194,-91 275,-91 275,-16 194,-16"/>
<text text-anchor="middle" x="234.5" y="-75.8" font-family="Times New Roman,serif" font-size="14.00">scaffold.py</text>
</g>
<g id="clust4" class="cluster"><title>cluster_helpers_file</title>
<polygon fill="none" stroke="black" points="295,-8 295,-284 647.887,-284 647.887,-8 295,-8"/>
<text text-anchor="middle" x="471.443" y="-268.8" font-family="Times New Roman,serif" font-size="14.00">helpers.py</text>
</g>
<g id="clust5" class="cluster"><title>cluster_flask_@property</title>
<polygon fill="none" stroke="black" points="477,-16 477,-253 639.887,-253 639.887,-16 477,-16"/>
<text text-anchor="middle" x="558.443" y="-237.8" font-family="Times New Roman,serif" font-size="14.00">@property</text>
</g>
<g id="clust2" class="cluster"><title>cluster_app_file</title>
<polygon fill="none" stroke="black" points="104,-16 104,-91 174,-91 174,-16 104,-16"/>
<text text-anchor="middle" x="139" y="-75.8" font-family="Times New Roman,serif" font-size="14.00">app.py</text>
</g>
<!-- Flask_flask_init_file -->
<g id="node1" class="node"><title>Flask_flask_init_file</title>
<text text-anchor="middle" x="43" y="-38.3" font-family="Times New Roman,serif" font-size="14.00">Flask</text>
</g>
<!-- Flask_flask_app_file -->
<g id="node2" class="node"><title>Flask_flask_app_file</title>
<text text-anchor="middle" x="139" y="-38.3" font-family="Times New Roman,serif" font-size="14.00">Flask</text>
</g>
<!-- Flask_flask_init_file&#45;&gt;Flask_flask_app_file -->
<g id="edge1" class="edge"><title>Flask_flask_init_file&#45;&gt;Flask_flask_app_file</title>
<path fill="none" stroke="black" d="M70.1842,-42C79.9625,-42 91.2472,-42 101.771,-42"/>
<polygon fill="black" stroke="black" points="101.956,-45.5001 111.956,-42 101.956,-38.5001 101.956,-45.5001"/>
</g>
<!-- scaffold_flask_scaffold_file -->
<g id="node3" class="node"><title>scaffold_flask_scaffold_file</title>
<text text-anchor="middle" x="234.5" y="-38.3" font-family="Times New Roman,serif" font-size="14.00">Scaffold</text>
</g>
<!-- Flask_flask_app_file&#45;&gt;scaffold_flask_scaffold_file -->
<g id="edge2" class="edge"><title>Flask_flask_app_file&#45;&gt;scaffold_flask_scaffold_file</title>
<path fill="none" stroke="black" d="M166.045,-42C174.046,-42 183.06,-42 191.833,-42"/>
<polygon fill="black" stroke="black" points="191.945,-45.5001 201.945,-42 191.945,-38.5001 191.945,-45.5001"/>
</g>
<!-- _PackageBoundObject_flask_helpers_file -->
<g id="node4" class="node"><title>_PackageBoundObject_flask_helpers_file</title>
<text text-anchor="middle" x="376" y="-38.3" font-family="Times New Roman,serif" font-size="14.00">_PackageBoundObject</text>
</g>
<!-- scaffold_flask_scaffold_file&#45;&gt;_PackageBoundObject_flask_helpers_file -->
<g id="edge4" class="edge"><title>scaffold_flask_scaffold_file&#45;&gt;_PackageBoundObject_flask_helpers_file</title>
<path fill="none" stroke="black" d="M267.155,-42C274.923,-42 283.6,-42 292.567,-42"/>
<polygon fill="black" stroke="black" points="292.781,-45.5001 302.781,-42 292.781,-38.5001 292.781,-45.5001"/>
</g>
<!-- help_prop_none -->
<g id="node8" class="node"><title>help_prop_none</title>
</g>
<!-- _PackageBoundObject_flask_helpers_file&#45;&gt;help_prop_none -->
<g id="edge3" class="edge"><title>_PackageBoundObject_flask_helpers_file&#45;&gt;help_prop_none</title>
<path fill="none" stroke="black" d="M449.094,-42C473.838,-42 500.479,-42 521.152,-42"/>
<polygon fill="black" stroke="black" points="521.377,-45.5001 531.377,-42 521.377,-38.5001 521.377,-45.5001"/>
</g>
<!-- static_folder -->
<g id="node5" class="node"><title>static_folder</title>
<ellipse fill="none" stroke="black" cx="558.443" cy="-204" rx="55.7903" ry="18"/>
<text text-anchor="middle" x="558.443" y="-200.3" font-family="Times New Roman,serif" font-size="14.00">static_folder</text>
</g>
<!-- static_url_path -->
<g id="node6" class="node"><title>static_url_path</title>
<ellipse fill="none" stroke="black" cx="558.443" cy="-150" rx="64.189" ry="18"/>
<text text-anchor="middle" x="558.443" y="-146.3" font-family="Times New Roman,serif" font-size="14.00">static_url_path</text>
</g>
<!-- has_static_folder -->
<g id="node7" class="node"><title>has_static_folder</title>
<ellipse fill="none" stroke="black" cx="558.443" cy="-96" rx="73.387" ry="18"/>
<text text-anchor="middle" x="558.443" y="-92.3" font-family="Times New Roman,serif" font-size="14.00">has_static_folder</text>
</g>
</g>
</svg>
