<?xml version="1.0" encoding="UTF-8" standalone="no"?>
<!DOCTYPE svg PUBLIC "-//W3C//DTD SVG 1.1//EN"
 "http://www.w3.org/Graphics/SVG/1.1/DTD/svg11.dtd">
<!-- Generated by graphviz version 2.38.0 (20140413.2041)
 -->
<!-- Title: %3 Pages: 1 -->
<svg width="710pt" height="508pt"
 viewBox="0.00 0.00 710.48 508.00" xmlns="http://www.w3.org/2000/svg" xmlns:xlink="http://www.w3.org/1999/xlink">
<g id="graph0" class="graph" transform="scale(1 1) rotate(0) translate(4 504)">
<title>%3</title>
<polygon fill="white" stroke="none" points="-4,4 -4,-504 706.478,-504 706.478,4 -4,4"/>
<g id="clust3" class="cluster"><title>cluster_scaffold_file</title>
<polygon fill="none" stroke="black" points="240.591,-224 240.591,-299 321.591,-299 321.591,-224 240.591,-224"/>
<text text-anchor="middle" x="281.091" y="-283.8" font-family="Times New Roman,serif" font-size="14.00">scaffold.py</text>
</g>
<g id="clust1" class="cluster"><title>cluster__init_file</title>
<polygon fill="none" stroke="black" points="29.2953,-8 29.2953,-299 110.295,-299 110.295,-8 29.2953,-8"/>
<text text-anchor="middle" x="69.7953" y="-283.8" font-family="Times New Roman,serif" font-size="14.00">__init__.py</text>
</g>
<g id="clust2" class="cluster"><title>cluster_app_file</title>
<polygon fill="none" stroke="black" points="150.591,-224 150.591,-299 220.591,-299 220.591,-224 150.591,-224"/>
<text text-anchor="middle" x="185.591" y="-283.8" font-family="Times New Roman,serif" font-size="14.00">app.py</text>
</g>
<g id="clust4" class="cluster"><title>cluster_helpers_file</title>
<polygon fill="none" stroke="black" points="341.591,-216 341.591,-492 694.478,-492 694.478,-216 341.591,-216"/>
<text text-anchor="middle" x="518.034" y="-476.8" font-family="Times New Roman,serif" font-size="14.00">helpers.py</text>
</g>
<g id="clust5" class="cluster"><title>cluster_flask_@property</title>
<polygon fill="none" stroke="black" points="523.591,-224 523.591,-461 686.478,-461 686.478,-224 523.591,-224"/>
<text text-anchor="middle" x="605.034" y="-445.8" font-family="Times New Roman,serif" font-size="14.00">@property</text>
</g>
<g id="clust6" class="cluster"><title>cluster_globals_file</title>
<polygon fill="none" stroke="black" points="20.2953,-314 20.2953,-389 118.295,-389 118.295,-314 20.2953,-314"/>
<text text-anchor="middle" x="69.2953" y="-373.8" font-family="Times New Roman,serif" font-size="14.00">globals.py</text>
</g>
<g id="clust7" class="cluster"><title>cluster_flask_werkzeug</title>
<polygon fill="none" stroke="black" points="8,-410 8,-485 130.591,-485 130.591,-410 8,-410"/>
<text text-anchor="middle" x="69.2953" y="-469.8" font-family="Times New Roman,serif" font-size="14.00">werkzeug</text>
</g>
<!-- Flask_flask_init_file -->
<g id="node1" class="node"><title>Flask_flask_init_file</title>
<text text-anchor="middle" x="69.2953" y="-246.3" font-family="Times New Roman,serif" font-size="14.00">Flask</text>
</g>
<!-- Flask_flask_app_file -->
<g id="node6" class="node"><title>Flask_flask_app_file</title>
<text text-anchor="middle" x="185.591" y="-246.3" font-family="Times New Roman,serif" font-size="14.00">Flask</text>
</g>
<!-- Flask_flask_init_file&#45;&gt;Flask_flask_app_file -->
<g id="edge1" class="edge"><title>Flask_flask_init_file&#45;&gt;Flask_flask_app_file</title>
<path fill="none" stroke="black" d="M96.5169,-250C111.908,-250 131.582,-250 148.43,-250"/>
<polygon fill="black" stroke="black" points="148.491,-253.5 158.491,-250 148.491,-246.5 148.491,-253.5"/>
</g>
<!-- g_flask_init_file -->
<g id="node2" class="node"><title>g_flask_init_file</title>
<text text-anchor="middle" x="69.2953" y="-192.3" font-family="Times New Roman,serif" font-size="14.00">g</text>
</g>
<!-- request_flask_init_file -->
<g id="node3" class="node"><title>request_flask_init_file</title>
<text text-anchor="middle" x="69.2953" y="-138.3" font-family="Times New Roman,serif" font-size="14.00">request</text>
</g>
<!-- session_flask_init_file -->
<g id="node4" class="node"><title>session_flask_init_file</title>
<text text-anchor="middle" x="69.2953" y="-84.3" font-family="Times New Roman,serif" font-size="14.00">session</text>
</g>
<!-- flash_flask_init_file -->
<g id="node5" class="node"><title>flash_flask_init_file</title>
<text text-anchor="middle" x="69.2953" y="-30.3" font-family="Times New Roman,serif" font-size="14.00">flash</text>
</g>
<!-- scaffold_flask_scaffold_file -->
<g id="node7" class="node"><title>scaffold_flask_scaffold_file</title>
<text text-anchor="middle" x="281.091" y="-246.3" font-family="Times New Roman,serif" font-size="14.00">Scaffold</text>
</g>
<!-- Flask_flask_app_file&#45;&gt;scaffold_flask_scaffold_file -->
<g id="edge2" class="edge"><title>Flask_flask_app_file&#45;&gt;scaffold_flask_scaffold_file</title>
<path fill="none" stroke="black" d="M212.636,-250C220.636,-250 229.65,-250 238.423,-250"/>
<polygon fill="black" stroke="black" points="238.536,-253.5 248.536,-250 238.535,-246.5 238.536,-253.5"/>
</g>
<!-- _PackageBoundObject_flask_helpers_file -->
<g id="node8" class="node"><title>_PackageBoundObject_flask_helpers_file</title>
<text text-anchor="middle" x="422.591" y="-246.3" font-family="Times New Roman,serif" font-size="14.00">_PackageBoundObject</text>
</g>
<!-- scaffold_flask_scaffold_file&#45;&gt;_PackageBoundObject_flask_helpers_file -->
<g id="edge4" class="edge"><title>scaffold_flask_scaffold_file&#45;&gt;_PackageBoundObject_flask_helpers_file</title>
<path fill="none" stroke="black" d="M313.745,-250C321.513,-250 330.191,-250 339.158,-250"/>
<polygon fill="black" stroke="black" points="339.371,-253.5 349.371,-250 339.371,-246.5 339.371,-253.5"/>
</g>
<!-- help_prop_none -->
<g id="node12" class="node"><title>help_prop_none</title>
</g>
<!-- _PackageBoundObject_flask_helpers_file&#45;&gt;help_prop_none -->
<g id="edge3" class="edge"><title>_PackageBoundObject_flask_helpers_file&#45;&gt;help_prop_none</title>
<path fill="none" stroke="black" d="M495.685,-250C520.428,-250 547.069,-250 567.743,-250"/>
<polygon fill="black" stroke="black" points="567.968,-253.5 577.968,-250 567.968,-246.5 567.968,-253.5"/>
</g>
<!-- static_folder -->
<g id="node9" class="node"><title>static_folder</title>
<ellipse fill="none" stroke="black" cx="605.034" cy="-412" rx="55.7903" ry="18"/>
<text text-anchor="middle" x="605.034" y="-408.3" font-family="Times New Roman,serif" font-size="14.00">static_folder</text>
</g>
<!-- static_url_path -->
<g id="node10" class="node"><title>static_url_path</title>
<ellipse fill="none" stroke="black" cx="605.034" cy="-358" rx="64.189" ry="18"/>
<text text-anchor="middle" x="605.034" y="-354.3" font-family="Times New Roman,serif" font-size="14.00">static_url_path</text>
</g>
<!-- has_static_folder -->
<g id="node11" class="node"><title>has_static_folder</title>
<ellipse fill="none" stroke="black" cx="605.034" cy="-304" rx="73.387" ry="18"/>
<text text-anchor="middle" x="605.034" y="-300.3" font-family="Times New Roman,serif" font-size="14.00">has_static_folder</text>
</g>
<!-- LocalProxy_flask_globals_file -->
<g id="node13" class="node"><title>LocalProxy_flask_globals_file</title>
<text text-anchor="middle" x="69.2953" y="-336.3" font-family="Times New Roman,serif" font-size="14.00">LocalProxy</text>
</g>
<!-- LocalProxy_flask_werkzeug_mode -->
<g id="node14" class="node"><title>LocalProxy_flask_werkzeug_mode</title>
<ellipse fill="none" stroke="black" cx="69.2953" cy="-436" rx="53.0913" ry="18"/>
<text text-anchor="middle" x="69.2953" y="-432.3" font-family="Times New Roman,serif" font-size="14.00">LocalProxy</text>
</g>
</g>
</svg>
