<?xml version="1.0" encoding="UTF-8" standalone="no"?>
<!DOCTYPE svg PUBLIC "-//W3C//DTD SVG 1.1//EN"
 "http://www.w3.org/Graphics/SVG/1.1/DTD/svg11.dtd">
<!-- Generated by graphviz version 2.38.0 (20140413.2041)
 -->
<!-- Title: %3 Pages: 1 -->
<svg width="1026pt" height="2273pt"
 viewBox="0.00 0.00 1026.00 2273.00" xmlns="http://www.w3.org/2000/svg" xmlns:xlink="http://www.w3.org/1999/xlink">
<g id="graph0" class="graph" transform="scale(1 1) rotate(0) translate(4 2269)">
<title>%3</title>
<polygon fill="white" stroke="none" points="-4,4 -4,-2269 1022,-2269 1022,4 -4,4"/>
<g id="clust1" class="cluster"><title>cluster_tree_root_8</title>
<polygon fill="none" stroke="black" points="8,-1844 8,-2257 394,-2257 394,-1844 8,-1844"/>
<text text-anchor="middle" x="201" y="-2241.8" font-family="Times New Roman,serif" font-size="14.00">btree(t=3)</text>
</g>
<g id="clust3" class="cluster"><title>cluster_add_node_1_1_8</title>
<polygon fill="none" stroke="black" points="277.5,-1852 277.5,-2035 370.5,-2035 370.5,-1852 277.5,-1852"/>
<text text-anchor="middle" x="324" y="-2019.8" font-family="Times New Roman,serif" font-size="14.00">node_1_1</text>
</g>
<g id="clust2" class="cluster"><title>cluster_add_root_8</title>
<polygon fill="none" stroke="black" points="16,-1970 16,-2153 208,-2153 208,-1970 16,-1970"/>
<text text-anchor="middle" x="112" y="-2137.8" font-family="Times New Roman,serif" font-size="14.00">root: bnode</text>
</g>
<g id="clust4" class="cluster"><title>cluster_add_node_1_2_8</title>
<polygon fill="none" stroke="black" points="262,-2043 262,-2226 386,-2226 386,-2043 262,-2043"/>
<text text-anchor="middle" x="324" y="-2210.8" font-family="Times New Roman,serif" font-size="14.00">node_1_2</text>
</g>
<g id="clust5" class="cluster"><title>cluster_tree_root_9</title>
<polygon fill="none" stroke="black" points="220,-1232 220,-1836 595.5,-1836 595.5,-1232 220,-1232"/>
<text text-anchor="middle" x="407.75" y="-1820.8" font-family="Times New Roman,serif" font-size="14.00">btree(t=3)</text>
</g>
<g id="clust6" class="cluster"><title>cluster_add_root_9</title>
<polygon fill="none" stroke="black" points="228,-1431 228,-1614 420,-1614 420,-1431 228,-1431"/>
<text text-anchor="middle" x="324" y="-1598.8" font-family="Times New Roman,serif" font-size="14.00">root: bnode</text>
</g>
<g id="clust7" class="cluster"><title>cluster_add_node_1_1_9</title>
<polygon fill="none" stroke="black" points="489.5,-1240 489.5,-1423 582.5,-1423 582.5,-1240 489.5,-1240"/>
<text text-anchor="middle" x="536" y="-1407.8" font-family="Times New Roman,serif" font-size="14.00">node_1_1</text>
</g>
<g id="clust8" class="cluster"><title>cluster_add_node_1_2_9</title>
<polygon fill="none" stroke="black" points="489.5,-1431 489.5,-1614 582.5,-1614 582.5,-1431 489.5,-1431"/>
<text text-anchor="middle" x="536" y="-1598.8" font-family="Times New Roman,serif" font-size="14.00">node_1_2</text>
</g>
<g id="clust9" class="cluster"><title>cluster_add_node_1_3_9</title>
<polygon fill="none" stroke="black" points="484.5,-1622 484.5,-1805 587.5,-1805 587.5,-1622 484.5,-1622"/>
<text text-anchor="middle" x="536" y="-1789.8" font-family="Times New Roman,serif" font-size="14.00">node_1_3</text>
</g>
<g id="clust10" class="cluster"><title>cluster_tree_root_10</title>
<polygon fill="none" stroke="black" points="432,-620 432,-1224 816,-1224 816,-620 432,-620"/>
<text text-anchor="middle" x="624" y="-1208.8" font-family="Times New Roman,serif" font-size="14.00">btree(t=3)</text>
</g>
<g id="clust11" class="cluster"><title>cluster_add_root_10</title>
<polygon fill="none" stroke="black" points="440,-819 440,-1002 632,-1002 632,-819 440,-819"/>
<text text-anchor="middle" x="536" y="-986.8" font-family="Times New Roman,serif" font-size="14.00">root: bnode</text>
</g>
<g id="clust12" class="cluster"><title>cluster_add_node_1_1_10</title>
<polygon fill="none" stroke="black" points="701.5,-628 701.5,-811 794.5,-811 794.5,-628 701.5,-628"/>
<text text-anchor="middle" x="748" y="-795.8" font-family="Times New Roman,serif" font-size="14.00">node_1_1</text>
</g>
<g id="clust13" class="cluster"><title>cluster_add_node_1_2_10</title>
<polygon fill="none" stroke="black" points="701.5,-819 701.5,-1002 794.5,-1002 794.5,-819 701.5,-819"/>
<text text-anchor="middle" x="748" y="-986.8" font-family="Times New Roman,serif" font-size="14.00">node_1_2</text>
</g>
<g id="clust14" class="cluster"><title>cluster_add_node_1_3_10</title>
<polygon fill="none" stroke="black" points="688,-1010 688,-1193 808,-1193 808,-1010 688,-1010"/>
<text text-anchor="middle" x="748" y="-1177.8" font-family="Times New Roman,serif" font-size="14.00">node_1_3</text>
</g>
<g id="clust15" class="cluster"><title>cluster_tree_root_11</title>
<polygon fill="none" stroke="black" points="644,-8 644,-612 1010,-612 1010,-8 644,-8"/>
<text text-anchor="middle" x="827" y="-596.8" font-family="Times New Roman,serif" font-size="14.00">btree(t=3)</text>
</g>
<g id="clust16" class="cluster"><title>cluster_add_root_11</title>
<polygon fill="none" stroke="black" points="652,-302 652,-485 844,-485 844,-302 652,-302"/>
<text text-anchor="middle" x="748" y="-469.8" font-family="Times New Roman,serif" font-size="14.00">root: bnode</text>
</g>
<g id="clust17" class="cluster"><title>cluster_add_node_1_1_11</title>
<polygon fill="none" stroke="black" points="886.5,-16 886.5,-199 979.5,-199 979.5,-16 886.5,-16"/>
<text text-anchor="middle" x="933" y="-183.8" font-family="Times New Roman,serif" font-size="14.00">node_1_1</text>
</g>
<g id="clust18" class="cluster"><title>cluster_add_node_1_2_11</title>
<polygon fill="none" stroke="black" points="886.5,-207 886.5,-390 979.5,-390 979.5,-207 886.5,-207"/>
<text text-anchor="middle" x="933" y="-374.8" font-family="Times New Roman,serif" font-size="14.00">node_1_2</text>
</g>
<g id="clust19" class="cluster"><title>cluster_add_node_1_3_11</title>
<polygon fill="none" stroke="black" points="864,-398 864,-581 1002,-581 1002,-398 864,-398"/>
<text text-anchor="middle" x="933" y="-565.8" font-family="Times New Roman,serif" font-size="14.00">node_1_3</text>
</g>
<!-- keys=[3]_8 -->
<g id="node1" class="node"><title>keys=[3]_8</title>
<text text-anchor="middle" x="112" y="-2100.3" font-family="Times New Roman,serif" font-size="14.00">keys=[3]</text>
</g>
<!-- c_add_node_root_s_8 -->
<g id="node2" class="node"><title>c_add_node_root_s_8</title>
<text text-anchor="middle" x="112" y="-2046.3" font-family="Times New Roman,serif" font-size="14.00">sons=[node_1_1,node_1_2]</text>
</g>
<!-- empty_node_root_8 -->
<g id="node3" class="node"><title>empty_node_root_8</title>
</g>
<!-- empty_node_1_1_8 -->
<g id="node6" class="node"><title>empty_node_1_1_8</title>
</g>
<!-- empty_node_root_8&#45;&gt;empty_node_1_1_8 -->
<g id="edge1" class="edge"><title>empty_node_root_8&#45;&gt;empty_node_1_1_8</title>
<path fill="none" stroke="black" d="M139.398,-1997.3C160.932,-1996.83 190.548,-1992.45 208,-1974 229.392,-1951.39 198.935,-1927.92 220,-1905 236.74,-1886.79 264.12,-1880.24 286.444,-1878.13"/>
<polygon fill="black" stroke="black" points="286.87,-1881.61 296.608,-1877.44 286.393,-1874.63 286.87,-1881.61"/>
</g>
<!-- empty_node_1_2_8 -->
<g id="node9" class="node"><title>empty_node_1_2_8</title>
</g>
<!-- empty_node_root_8&#45;&gt;empty_node_1_2_8 -->
<g id="edge2" class="edge"><title>empty_node_root_8&#45;&gt;empty_node_1_2_8</title>
<path fill="none" stroke="black" d="M139.119,-1998.82C159.371,-2002.03 187.369,-2008.82 208,-2023 215.326,-2028.03 212.691,-2033.94 220,-2039 239.784,-2052.69 265.827,-2060.2 286.776,-2064.29"/>
<polygon fill="black" stroke="black" points="286.446,-2067.78 296.903,-2066.08 287.664,-2060.89 286.446,-2067.78"/>
</g>
<!-- keys_1_28 -->
<g id="node4" class="node"><title>keys_1_28</title>
<text text-anchor="middle" x="324" y="-1982.3" font-family="Times New Roman,serif" font-size="14.00">keys=[1,2]</text>
</g>
<!-- c_add_node_1_1_s_8 -->
<g id="node5" class="node"><title>c_add_node_1_1_s_8</title>
<text text-anchor="middle" x="324" y="-1928.3" font-family="Times New Roman,serif" font-size="14.00">sons=[]</text>
</g>
<!-- keys=[4,5,6,7,8] -->
<g id="node7" class="node"><title>keys=[4,5,6,7,8]</title>
<text text-anchor="middle" x="324" y="-2173.3" font-family="Times New Roman,serif" font-size="14.00">keys=[4,5,6,7,8]</text>
</g>
<!-- c_add_node_1_2_s_8 -->
<g id="node8" class="node"><title>c_add_node_1_2_s_8</title>
<text text-anchor="middle" x="324" y="-2119.3" font-family="Times New Roman,serif" font-size="14.00">sons=[]</text>
</g>
<!-- tag__2 -->
<g id="node10" class="node"><title>tag__2</title>
</g>
<!-- tag__3 -->
<g id="node23" class="node"><title>tag__3</title>
</g>
<!-- tag__2&#45;&gt;tag__3 -->
<g id="edge12" class="edge"><title>tag__2&#45;&gt;tag__3</title>
<path fill="none" stroke="black" d="M113.706,-1851.74C116.883,-1788.49 133.784,-1574.56 220,-1427 237.134,-1397.68 266.008,-1371.9 288.833,-1354.47"/>
<polygon fill="black" stroke="black" points="291.008,-1357.21 296.935,-1348.43 286.825,-1351.6 291.008,-1357.21"/>
</g>
<!-- keys=[3]_9 -->
<g id="node11" class="node"><title>keys=[3]_9</title>
<text text-anchor="middle" x="324" y="-1561.3" font-family="Times New Roman,serif" font-size="14.00">keys=[3,6]</text>
</g>
<!-- c_add_node_root_s_9 -->
<g id="node12" class="node"><title>c_add_node_root_s_9</title>
<text text-anchor="middle" x="324" y="-1507.3" font-family="Times New Roman,serif" font-size="14.00">sons=[node_1_1,node_1_2]</text>
</g>
<!-- empty_node_root_9 -->
<g id="node13" class="node"><title>empty_node_root_9</title>
</g>
<!-- empty_node_1_1_9 -->
<g id="node16" class="node"><title>empty_node_1_1_9</title>
</g>
<!-- empty_node_root_9&#45;&gt;empty_node_1_1_9 -->
<g id="edge3" class="edge"><title>empty_node_root_9&#45;&gt;empty_node_1_1_9</title>
<path fill="none" stroke="black" d="M351.389,-1458.69C373.219,-1458.51 403.264,-1454.32 420,-1435 440.733,-1411.06 411.614,-1317.23 432,-1293 448.099,-1273.86 475.946,-1267.41 498.629,-1265.58"/>
<polygon fill="black" stroke="black" points="498.832,-1269.08 508.627,-1265.04 498.452,-1262.09 498.832,-1269.08"/>
</g>
<!-- empty_node_1_2_9 -->
<g id="node19" class="node"><title>empty_node_1_2_9</title>
</g>
<!-- empty_node_root_9&#45;&gt;empty_node_1_2_9 -->
<g id="edge4" class="edge"><title>empty_node_root_9&#45;&gt;empty_node_1_2_9</title>
<path fill="none" stroke="black" d="M351.172,-1457C388.371,-1457 456.677,-1457 498.736,-1457"/>
<polygon fill="black" stroke="black" points="498.829,-1460.5 508.829,-1457 498.829,-1453.5 498.829,-1460.5"/>
</g>
<!-- empty_node_1_3_9 -->
<g id="node22" class="node"><title>empty_node_1_3_9</title>
</g>
<!-- empty_node_root_9&#45;&gt;empty_node_1_3_9 -->
<g id="edge5" class="edge"><title>empty_node_root_9&#45;&gt;empty_node_1_3_9</title>
<path fill="none" stroke="black" d="M351.067,-1456.81C373.004,-1458.17 403.378,-1463.93 420,-1484 439.067,-1507.03 413.008,-1594.91 432,-1618 448.006,-1637.46 475.858,-1644.73 498.567,-1647.26"/>
<polygon fill="black" stroke="black" points="498.316,-1650.75 508.578,-1648.12 498.912,-1643.78 498.316,-1650.75"/>
</g>
<!-- keys_1_29 -->
<g id="node14" class="node"><title>keys_1_29</title>
<text text-anchor="middle" x="536" y="-1370.3" font-family="Times New Roman,serif" font-size="14.00">keys=[1,2]</text>
</g>
<!-- c_add_node_1_1_s_9 -->
<g id="node15" class="node"><title>c_add_node_1_1_s_9</title>
<text text-anchor="middle" x="536" y="-1316.3" font-family="Times New Roman,serif" font-size="14.00">sons=[]</text>
</g>
<!-- keys_4_59 -->
<g id="node17" class="node"><title>keys_4_59</title>
<text text-anchor="middle" x="536" y="-1561.3" font-family="Times New Roman,serif" font-size="14.00">keys=[4,5]</text>
</g>
<!-- c_add_node_1_2_s_9 -->
<g id="node18" class="node"><title>c_add_node_1_2_s_9</title>
<text text-anchor="middle" x="536" y="-1507.3" font-family="Times New Roman,serif" font-size="14.00">sons=[]</text>
</g>
<!-- keys=[7,8,9] -->
<g id="node20" class="node"><title>keys=[7,8,9]</title>
<text text-anchor="middle" x="536" y="-1752.3" font-family="Times New Roman,serif" font-size="14.00">keys=[7,8,9]</text>
</g>
<!-- c_add_node_1_3_s_9 -->
<g id="node21" class="node"><title>c_add_node_1_3_s_9</title>
<text text-anchor="middle" x="536" y="-1698.3" font-family="Times New Roman,serif" font-size="14.00">sons=[]</text>
</g>
<!-- tag__4 -->
<g id="node36" class="node"><title>tag__4</title>
</g>
<!-- tag__3&#45;&gt;tag__4 -->
<g id="edge13" class="edge"><title>tag__3&#45;&gt;tag__4</title>
<path fill="none" stroke="black" d="M324.902,-1312.72C325.294,-1243.1 333.749,-989.618 432,-815 448.654,-785.401 477.57,-759.653 500.532,-742.295"/>
<polygon fill="black" stroke="black" points="502.712,-745.036 508.689,-736.288 498.561,-739.4 502.712,-745.036"/>
</g>
<!-- keys=[3]_10 -->
<g id="node24" class="node"><title>keys=[3]_10</title>
<text text-anchor="middle" x="536" y="-949.3" font-family="Times New Roman,serif" font-size="14.00">keys=[3,6]</text>
</g>
<!-- c_add_node_root_s_10 -->
<g id="node25" class="node"><title>c_add_node_root_s_10</title>
<text text-anchor="middle" x="536" y="-895.3" font-family="Times New Roman,serif" font-size="14.00">sons=[node_1_1,node_1_2]</text>
</g>
<!-- empty_node_root_10 -->
<g id="node26" class="node"><title>empty_node_root_10</title>
</g>
<!-- empty_node_1_1_10 -->
<g id="node29" class="node"><title>empty_node_1_1_10</title>
</g>
<!-- empty_node_root_10&#45;&gt;empty_node_1_1_10 -->
<g id="edge6" class="edge"><title>empty_node_root_10&#45;&gt;empty_node_1_1_10</title>
<path fill="none" stroke="black" d="M563.389,-846.685C585.219,-846.505 615.264,-842.324 632,-823 652.733,-799.062 623.614,-705.234 644,-681 660.099,-661.862 687.946,-655.411 710.629,-653.583"/>
<polygon fill="black" stroke="black" points="710.832,-657.077 720.627,-653.039 710.452,-650.087 710.832,-657.077"/>
</g>
<!-- empty_node_1_2_10 -->
<g id="node32" class="node"><title>empty_node_1_2_10</title>
</g>
<!-- empty_node_root_10&#45;&gt;empty_node_1_2_10 -->
<g id="edge7" class="edge"><title>empty_node_root_10&#45;&gt;empty_node_1_2_10</title>
<path fill="none" stroke="black" d="M563.172,-845C600.371,-845 668.677,-845 710.736,-845"/>
<polygon fill="black" stroke="black" points="710.829,-848.5 720.829,-845 710.829,-841.5 710.829,-848.5"/>
</g>
<!-- empty_node_1_3_10 -->
<g id="node35" class="node"><title>empty_node_1_3_10</title>
</g>
<!-- empty_node_root_10&#45;&gt;empty_node_1_3_10 -->
<g id="edge8" class="edge"><title>empty_node_root_10&#45;&gt;empty_node_1_3_10</title>
<path fill="none" stroke="black" d="M563.067,-844.809C585.004,-846.171 615.378,-851.926 632,-872 651.067,-895.027 625.008,-982.911 644,-1006 660.006,-1025.46 687.858,-1032.73 710.567,-1035.26"/>
<polygon fill="black" stroke="black" points="710.316,-1038.75 720.578,-1036.12 710.912,-1031.78 710.316,-1038.75"/>
</g>
<!-- keys_1_210 -->
<g id="node27" class="node"><title>keys_1_210</title>
<text text-anchor="middle" x="748" y="-758.3" font-family="Times New Roman,serif" font-size="14.00">keys=[1,2]</text>
</g>
<!-- c_add_node_1_1_s_10 -->
<g id="node28" class="node"><title>c_add_node_1_1_s_10</title>
<text text-anchor="middle" x="748" y="-704.3" font-family="Times New Roman,serif" font-size="14.00">sons=[]</text>
</g>
<!-- keys_4_510 -->
<g id="node30" class="node"><title>keys_4_510</title>
<text text-anchor="middle" x="748" y="-949.3" font-family="Times New Roman,serif" font-size="14.00">keys=[4,5]</text>
</g>
<!-- c_add_node_1_2_s_10 -->
<g id="node31" class="node"><title>c_add_node_1_2_s_10</title>
<text text-anchor="middle" x="748" y="-895.3" font-family="Times New Roman,serif" font-size="14.00">sons=[]</text>
</g>
<!-- keys=[7,8,9,10] -->
<g id="node33" class="node"><title>keys=[7,8,9,10]</title>
<text text-anchor="middle" x="748" y="-1140.3" font-family="Times New Roman,serif" font-size="14.00">keys=[7,8,9,10]</text>
</g>
<!-- c_add_node_1_3_s_10 -->
<g id="node34" class="node"><title>c_add_node_1_3_s_10</title>
<text text-anchor="middle" x="748" y="-1086.3" font-family="Times New Roman,serif" font-size="14.00">sons=[]</text>
</g>
<!-- tag__5 -->
<g id="node49" class="node"><title>tag__5</title>
</g>
<!-- tag__4&#45;&gt;tag__5 -->
<g id="edge14" class="edge"><title>tag__4&#45;&gt;tag__5</title>
<path fill="none" stroke="black" d="M539.116,-700.815C547.985,-627.703 584.49,-356.334 644,-298 661.432,-280.913 688.537,-275.1 710.566,-273.461"/>
<polygon fill="black" stroke="black" points="710.777,-276.954 720.592,-272.967 710.433,-269.963 710.777,-276.954"/>
</g>
<!-- keys=[3]_11 -->
<g id="node37" class="node"><title>keys=[3]_11</title>
<text text-anchor="middle" x="748" y="-432.3" font-family="Times New Roman,serif" font-size="14.00">keys=[3,6]</text>
</g>
<!-- c_add_node_root_s_11 -->
<g id="node38" class="node"><title>c_add_node_root_s_11</title>
<text text-anchor="middle" x="748" y="-378.3" font-family="Times New Roman,serif" font-size="14.00">sons=[node_1_1,node_1_2]</text>
</g>
<!-- empty_node_root_11 -->
<g id="node39" class="node"><title>empty_node_root_11</title>
</g>
<!-- empty_node_1_1_11 -->
<g id="node42" class="node"><title>empty_node_1_1_11</title>
</g>
<!-- empty_node_root_11&#45;&gt;empty_node_1_1_11 -->
<g id="edge9" class="edge"><title>empty_node_root_11&#45;&gt;empty_node_1_1_11</title>
<path fill="none" stroke="black" d="M775.389,-329.686C797.22,-329.506 827.265,-325.325 844,-306 878.6,-266.046 832.499,-111.441 864,-69 871.689,-58.641 883.98,-52.2518 896.011,-48.313"/>
<polygon fill="black" stroke="black" points="897.254,-51.6002 905.949,-45.5473 895.377,-44.8564 897.254,-51.6002"/>
</g>
<!-- empty_node_1_2_11 -->
<g id="node45" class="node"><title>empty_node_1_2_11</title>
</g>
<!-- empty_node_root_11&#45;&gt;empty_node_1_2_11 -->
<g id="edge10" class="edge"><title>empty_node_root_11&#45;&gt;empty_node_1_2_11</title>
<path fill="none" stroke="black" d="M775.175,-328.115C795.999,-326.877 824.742,-322.028 844,-306 861.135,-291.739 847.985,-275.508 864,-260 872.822,-251.457 884.679,-245.516 896.021,-241.43"/>
<polygon fill="black" stroke="black" points="897.316,-244.69 905.765,-238.298 895.174,-238.026 897.316,-244.69"/>
</g>
<!-- empty_node_1_3_11 -->
<g id="node48" class="node"><title>empty_node_1_3_11</title>
</g>
<!-- empty_node_root_11&#45;&gt;empty_node_1_3_11 -->
<g id="edge11" class="edge"><title>empty_node_root_11&#45;&gt;empty_node_1_3_11</title>
<path fill="none" stroke="black" d="M775.402,-329.823C796.08,-332.486 824.512,-339.016 844,-355 859.062,-367.353 849.83,-380.634 864,-394 873.002,-402.492 884.803,-408.831 896.042,-413.439"/>
<polygon fill="black" stroke="black" points="895.098,-416.823 905.69,-417.054 897.554,-410.268 895.098,-416.823"/>
</g>
<!-- keys_1_211 -->
<g id="node40" class="node"><title>keys_1_211</title>
<text text-anchor="middle" x="933" y="-146.3" font-family="Times New Roman,serif" font-size="14.00">keys=[1,2]</text>
</g>
<!-- c_add_node_1_1_s_11 -->
<g id="node41" class="node"><title>c_add_node_1_1_s_11</title>
<text text-anchor="middle" x="933" y="-92.3" font-family="Times New Roman,serif" font-size="14.00">sons=[]</text>
</g>
<!-- keys_4_511 -->
<g id="node43" class="node"><title>keys_4_511</title>
<text text-anchor="middle" x="933" y="-337.3" font-family="Times New Roman,serif" font-size="14.00">keys=[4,5]</text>
</g>
<!-- c_add_node_1_2_s_11 -->
<g id="node44" class="node"><title>c_add_node_1_2_s_11</title>
<text text-anchor="middle" x="933" y="-283.3" font-family="Times New Roman,serif" font-size="14.00">sons=[]</text>
</g>
<!-- keys=[7,8,9,10,11] -->
<g id="node46" class="node"><title>keys=[7,8,9,10,11]</title>
<text text-anchor="middle" x="933" y="-528.3" font-family="Times New Roman,serif" font-size="14.00">keys=[7,8,9,10,11]</text>
</g>
<!-- c_add_node_1_3_s_11 -->
<g id="node47" class="node"><title>c_add_node_1_3_s_11</title>
<text text-anchor="middle" x="933" y="-474.3" font-family="Times New Roman,serif" font-size="14.00">sons=[]</text>
</g>
</g>
</svg>
