<?xml version="1.0" encoding="UTF-8" standalone="no"?>
<!DOCTYPE svg PUBLIC "-//W3C//DTD SVG 1.1//EN"
 "http://www.w3.org/Graphics/SVG/1.1/DTD/svg11.dtd">
<!-- Generated by graphviz version 2.38.0 (20140413.2041)
 -->
<!-- Title: %3 Pages: 1 -->
<svg width="1706pt" height="3801pt"
 viewBox="0.00 0.00 1706.00 3801.00" xmlns="http://www.w3.org/2000/svg" xmlns:xlink="http://www.w3.org/1999/xlink">
<g id="graph0" class="graph" transform="scale(1 1) rotate(0) translate(4 3797)">
<title>%3</title>
<polygon fill="white" stroke="none" points="-4,4 -4,-3797 1702,-3797 1702,4 -4,4"/>
<g id="clust7" class="cluster"><title>cluster_tree_root_15</title>
<polygon fill="none" stroke="black" points="340,-1996 340,-2982 995.5,-2982 995.5,-1996 340,-1996"/>
<text text-anchor="middle" x="667.75" y="-2966.8" font-family="Times New Roman,serif" font-size="14.00">btree(t=3)</text>
</g>
<g id="clust8" class="cluster"><title>cluster_add_root_15</title>
<polygon fill="none" stroke="black" points="348,-2386 348,-2569 720,-2569 720,-2386 348,-2386"/>
<text text-anchor="middle" x="534" y="-2553.8" font-family="Times New Roman,serif" font-size="14.00">root: bnode</text>
</g>
<g id="clust9" class="cluster"><title>cluster_add_node_1_1_15</title>
<polygon fill="none" stroke="black" points="879.5,-2004 879.5,-2187 972.5,-2187 972.5,-2004 879.5,-2004"/>
<text text-anchor="middle" x="926" y="-2171.8" font-family="Times New Roman,serif" font-size="14.00">node_1_1</text>
</g>
<g id="clust10" class="cluster"><title>cluster_add_node_1_2_15</title>
<polygon fill="none" stroke="black" points="879.5,-2195 879.5,-2378 972.5,-2378 972.5,-2195 879.5,-2195"/>
<text text-anchor="middle" x="926" y="-2362.8" font-family="Times New Roman,serif" font-size="14.00">node_1_2</text>
</g>
<g id="clust11" class="cluster"><title>cluster_add_node_1_3_15</title>
<polygon fill="none" stroke="black" points="879.5,-2386 879.5,-2569 972.5,-2569 972.5,-2386 879.5,-2386"/>
<text text-anchor="middle" x="926" y="-2553.8" font-family="Times New Roman,serif" font-size="14.00">node_1_3</text>
</g>
<g id="clust12" class="cluster"><title>cluster_add_node_1_4_15</title>
<polygon fill="none" stroke="black" points="873,-2577 873,-2760 979,-2760 979,-2577 873,-2577"/>
<text text-anchor="middle" x="926" y="-2744.8" font-family="Times New Roman,serif" font-size="14.00">node_1_4</text>
</g>
<g id="clust13" class="cluster"><title>cluster_add_node_1_5_15</title>
<polygon fill="none" stroke="black" points="864.5,-2768 864.5,-2951 987.5,-2951 987.5,-2768 864.5,-2768"/>
<text text-anchor="middle" x="926" y="-2935.8" font-family="Times New Roman,serif" font-size="14.00">node_1_5</text>
</g>
<g id="clust1" class="cluster"><title>cluster_tree_root_14</title>
<polygon fill="none" stroke="black" points="8,-2990 8,-3785 621,-3785 621,-2990 8,-2990"/>
<text text-anchor="middle" x="314.5" y="-3769.8" font-family="Times New Roman,serif" font-size="14.00">btree(t=3)</text>
</g>
<g id="clust3" class="cluster"><title>cluster_add_node_1_1_14</title>
<polygon fill="none" stroke="black" points="487.5,-2998 487.5,-3181 580.5,-3181 580.5,-2998 487.5,-2998"/>
<text text-anchor="middle" x="534" y="-3165.8" font-family="Times New Roman,serif" font-size="14.00">node_1_1</text>
</g>
<g id="clust2" class="cluster"><title>cluster_add_root_14</title>
<polygon fill="none" stroke="black" points="16,-3284 16,-3467 328,-3467 328,-3284 16,-3284"/>
<text text-anchor="middle" x="172" y="-3451.8" font-family="Times New Roman,serif" font-size="14.00">root: bnode</text>
</g>
<g id="clust4" class="cluster"><title>cluster_add_node_1_2_14</title>
<polygon fill="none" stroke="black" points="487.5,-3189 487.5,-3372 580.5,-3372 580.5,-3189 487.5,-3189"/>
<text text-anchor="middle" x="534" y="-3356.8" font-family="Times New Roman,serif" font-size="14.00">node_1_2</text>
</g>
<g id="clust5" class="cluster"><title>cluster_add_node_1_3_14</title>
<polygon fill="none" stroke="black" points="487.5,-3380 487.5,-3563 580.5,-3563 580.5,-3380 487.5,-3380"/>
<text text-anchor="middle" x="534" y="-3547.8" font-family="Times New Roman,serif" font-size="14.00">node_1_3</text>
</g>
<g id="clust6" class="cluster"><title>cluster_add_node_1_4_14</title>
<polygon fill="none" stroke="black" points="455,-3571 455,-3754 613,-3754 613,-3571 455,-3571"/>
<text text-anchor="middle" x="534" y="-3738.8" font-family="Times New Roman,serif" font-size="14.00">node_1_4</text>
</g>
<g id="clust14" class="cluster"><title>cluster_tree_root_16</title>
<polygon fill="none" stroke="black" points="732,-1002 732,-1988 1396.5,-1988 1396.5,-1002 732,-1002"/>
<text text-anchor="middle" x="1064.25" y="-1972.8" font-family="Times New Roman,serif" font-size="14.00">btree(t=3)</text>
</g>
<g id="clust15" class="cluster"><title>cluster_add_root_16</title>
<polygon fill="none" stroke="black" points="740,-1392 740,-1575 1112,-1575 1112,-1392 740,-1392"/>
<text text-anchor="middle" x="926" y="-1559.8" font-family="Times New Roman,serif" font-size="14.00">root: bnode</text>
</g>
<g id="clust17" class="cluster"><title>cluster_add_node_1_2_16</title>
<polygon fill="none" stroke="black" points="1271.5,-1201 1271.5,-1384 1364.5,-1384 1364.5,-1201 1271.5,-1201"/>
<text text-anchor="middle" x="1318" y="-1368.8" font-family="Times New Roman,serif" font-size="14.00">node_1_2</text>
</g>
<g id="clust18" class="cluster"><title>cluster_add_node_1_3_16</title>
<polygon fill="none" stroke="black" points="1271.5,-1392 1271.5,-1575 1364.5,-1575 1364.5,-1392 1271.5,-1392"/>
<text text-anchor="middle" x="1318" y="-1559.8" font-family="Times New Roman,serif" font-size="14.00">node_1_3</text>
</g>
<g id="clust19" class="cluster"><title>cluster_add_node_1_4_16</title>
<polygon fill="none" stroke="black" points="1265,-1583 1265,-1766 1371,-1766 1371,-1583 1265,-1583"/>
<text text-anchor="middle" x="1318" y="-1750.8" font-family="Times New Roman,serif" font-size="14.00">node_1_4</text>
</g>
<g id="clust20" class="cluster"><title>cluster_add_node_1_5_16</title>
<polygon fill="none" stroke="black" points="1247.5,-1774 1247.5,-1957 1388.5,-1957 1388.5,-1774 1247.5,-1774"/>
<text text-anchor="middle" x="1318" y="-1941.8" font-family="Times New Roman,serif" font-size="14.00">node_1_5</text>
</g>
<g id="clust16" class="cluster"><title>cluster_add_node_1_1_16</title>
<polygon fill="none" stroke="black" points="1271.5,-1010 1271.5,-1193 1364.5,-1193 1364.5,-1010 1271.5,-1010"/>
<text text-anchor="middle" x="1318" y="-1177.8" font-family="Times New Roman,serif" font-size="14.00">node_1_1</text>
</g>
<g id="clust21" class="cluster"><title>cluster_tree_root_17</title>
<polygon fill="none" stroke="black" points="1124,-8 1124,-994 1690,-994 1690,-8 1124,-8"/>
<text text-anchor="middle" x="1407" y="-978.8" font-family="Times New Roman,serif" font-size="14.00">btree(t=3)</text>
</g>
<g id="clust26" class="cluster"><title>cluster_add_node_1_4_17</title>
<polygon fill="none" stroke="black" points="1550,-589 1550,-772 1656,-772 1656,-589 1550,-589"/>
<text text-anchor="middle" x="1603" y="-756.8" font-family="Times New Roman,serif" font-size="14.00">node_1_4</text>
</g>
<g id="clust27" class="cluster"><title>cluster_add_node_1_5_17</title>
<polygon fill="none" stroke="black" points="1524,-780 1524,-963 1682,-963 1682,-780 1524,-780"/>
<text text-anchor="middle" x="1603" y="-947.8" font-family="Times New Roman,serif" font-size="14.00">node_1_5</text>
</g>
<g id="clust23" class="cluster"><title>cluster_add_node_1_1_17</title>
<polygon fill="none" stroke="black" points="1556.5,-16 1556.5,-199 1649.5,-199 1649.5,-16 1556.5,-16"/>
<text text-anchor="middle" x="1603" y="-183.8" font-family="Times New Roman,serif" font-size="14.00">node_1_1</text>
</g>
<g id="clust24" class="cluster"><title>cluster_add_node_1_2_17</title>
<polygon fill="none" stroke="black" points="1556.5,-207 1556.5,-390 1649.5,-390 1649.5,-207 1556.5,-207"/>
<text text-anchor="middle" x="1603" y="-374.8" font-family="Times New Roman,serif" font-size="14.00">node_1_2</text>
</g>
<g id="clust25" class="cluster"><title>cluster_add_node_1_3_17</title>
<polygon fill="none" stroke="black" points="1556.5,-398 1556.5,-581 1649.5,-581 1649.5,-398 1556.5,-398"/>
<text text-anchor="middle" x="1603" y="-565.8" font-family="Times New Roman,serif" font-size="14.00">node_1_3</text>
</g>
<g id="clust22" class="cluster"><title>cluster_add_root_17</title>
<polygon fill="none" stroke="black" points="1132,-493 1132,-676 1504,-676 1504,-493 1132,-493"/>
<text text-anchor="middle" x="1318" y="-660.8" font-family="Times New Roman,serif" font-size="14.00">root: bnode</text>
</g>
<!-- keys=[3]_14 -->
<g id="node1" class="node"><title>keys=[3]_14</title>
<text text-anchor="middle" x="172" y="-3414.3" font-family="Times New Roman,serif" font-size="14.00">keys=[3,6,9]</text>
</g>
<!-- c_add_node_root_s_14 -->
<g id="node2" class="node"><title>c_add_node_root_s_14</title>
<text text-anchor="middle" x="172" y="-3360.3" font-family="Times New Roman,serif" font-size="14.00">sons=[node_1_1,node_1_2,node_1_3,node_1_4]</text>
</g>
<!-- empty_node_root_14 -->
<g id="node3" class="node"><title>empty_node_root_14</title>
</g>
<!-- empty_node_1_1_14 -->
<g id="node6" class="node"><title>empty_node_1_1_14</title>
</g>
<!-- empty_node_root_14&#45;&gt;empty_node_1_1_14 -->
<g id="edge1" class="edge"><title>empty_node_root_14&#45;&gt;empty_node_1_1_14</title>
<path fill="none" stroke="black" d="M199.2,-3315.2C234.227,-3320.46 295.646,-3323.42 328,-3288 363.566,-3249.06 304.395,-3089.9 340,-3051 379.229,-3008.14 452.679,-3010.63 496.783,-3016.92"/>
<polygon fill="black" stroke="black" points="496.371,-3020.4 506.791,-3018.48 497.451,-3013.48 496.371,-3020.4"/>
</g>
<!-- empty_node_1_2_14 -->
<g id="node9" class="node"><title>empty_node_1_2_14</title>
</g>
<!-- empty_node_root_14&#45;&gt;empty_node_1_2_14 -->
<g id="edge2" class="edge"><title>empty_node_root_14&#45;&gt;empty_node_1_2_14</title>
<path fill="none" stroke="black" d="M199.072,-3314.29C233.105,-3318.31 292.503,-3319.66 328,-3288 343.768,-3273.94 324.218,-3256.05 340,-3242 382.959,-3203.76 453.962,-3204.4 496.825,-3209.15"/>
<polygon fill="black" stroke="black" points="496.468,-3212.63 506.823,-3210.38 497.329,-3205.68 496.468,-3212.63"/>
</g>
<!-- empty_node_1_3_14 -->
<g id="node12" class="node"><title>empty_node_1_3_14</title>
</g>
<!-- empty_node_root_14&#45;&gt;empty_node_1_3_14 -->
<g id="edge3" class="edge"><title>empty_node_root_14&#45;&gt;empty_node_1_3_14</title>
<path fill="none" stroke="black" d="M199.253,-3306.88C233.213,-3304.39 292.24,-3305.49 328,-3337 341.606,-3348.99 326.285,-3364.13 340,-3376 383.498,-3413.63 454.086,-3414.57 496.768,-3410.91"/>
<polygon fill="black" stroke="black" points="497.377,-3414.37 506.985,-3409.9 496.689,-3407.4 497.377,-3414.37"/>
</g>
<!-- empty_node_1_4_14 -->
<g id="node15" class="node"><title>empty_node_1_4_14</title>
</g>
<!-- empty_node_root_14&#45;&gt;empty_node_1_4_14 -->
<g id="edge4" class="edge"><title>empty_node_root_14&#45;&gt;empty_node_1_4_14</title>
<path fill="none" stroke="black" d="M199.01,-3305.79C234.111,-3301.76 295.931,-3300.82 328,-3337 361.948,-3375.3 305.703,-3529.01 340,-3567 379.023,-3610.22 452.543,-3608.96 496.716,-3603.44"/>
<polygon fill="black" stroke="black" points="497.315,-3606.89 506.741,-3602.05 496.355,-3599.96 497.315,-3606.89"/>
</g>
<!-- keys_1_214 -->
<g id="node4" class="node"><title>keys_1_214</title>
<text text-anchor="middle" x="534" y="-3128.3" font-family="Times New Roman,serif" font-size="14.00">keys=[1,2]</text>
</g>
<!-- c_add_node_1_1_s_14 -->
<g id="node5" class="node"><title>c_add_node_1_1_s_14</title>
<text text-anchor="middle" x="534" y="-3074.3" font-family="Times New Roman,serif" font-size="14.00">sons=[]</text>
</g>
<!-- keys_4_514 -->
<g id="node7" class="node"><title>keys_4_514</title>
<text text-anchor="middle" x="534" y="-3319.3" font-family="Times New Roman,serif" font-size="14.00">keys=[4,5]</text>
</g>
<!-- c_add_node_1_2_s_14 -->
<g id="node8" class="node"><title>c_add_node_1_2_s_14</title>
<text text-anchor="middle" x="534" y="-3265.3" font-family="Times New Roman,serif" font-size="14.00">sons=[]</text>
</g>
<!-- keys_7_814 -->
<g id="node10" class="node"><title>keys_7_814</title>
<text text-anchor="middle" x="534" y="-3510.3" font-family="Times New Roman,serif" font-size="14.00">keys=[7,8]</text>
</g>
<!-- c_add_node_1_3_s_14 -->
<g id="node11" class="node"><title>c_add_node_1_3_s_14</title>
<text text-anchor="middle" x="534" y="-3456.3" font-family="Times New Roman,serif" font-size="14.00">sons=[]</text>
</g>
<!-- keys=[10,11,12,13,14] -->
<g id="node13" class="node"><title>keys=[10,11,12,13,14]</title>
<text text-anchor="middle" x="534" y="-3701.3" font-family="Times New Roman,serif" font-size="14.00">keys=[10,11,12,13,14]</text>
</g>
<!-- c_add_node_1_4_s_14 -->
<g id="node14" class="node"><title>c_add_node_1_4_s_14</title>
<text text-anchor="middle" x="534" y="-3647.3" font-family="Times New Roman,serif" font-size="14.00">sons=[]</text>
</g>
<!-- tag__2 -->
<g id="node16" class="node"><title>tag__2</title>
</g>
<!-- tag__3 -->
<g id="node35" class="node"><title>tag__3</title>
</g>
<!-- tag__2&#45;&gt;tag__3 -->
<g id="edge20" class="edge"><title>tag__2&#45;&gt;tag__3</title>
<path fill="none" stroke="black" d="M174.313,-2997.81C180.68,-2919.07 213.409,-2601.68 340,-2382 381.149,-2310.59 455.786,-2247.38 499.199,-2214.33"/>
<polygon fill="black" stroke="black" points="501.557,-2216.94 507.446,-2208.13 497.35,-2211.34 501.557,-2216.94"/>
</g>
<!-- keys=[3]_15 -->
<g id="node17" class="node"><title>keys=[3]_15</title>
<text text-anchor="middle" x="534" y="-2516.3" font-family="Times New Roman,serif" font-size="14.00">keys=[3,6,9,12]</text>
</g>
<!-- c_add_node_root_s_15 -->
<g id="node18" class="node"><title>c_add_node_root_s_15</title>
<text text-anchor="middle" x="534" y="-2462.3" font-family="Times New Roman,serif" font-size="14.00">sons=[node_1_1,node_1_2,node_1_3,node_1_4,node_1_5]</text>
</g>
<!-- empty_node_root_15 -->
<g id="node19" class="node"><title>empty_node_root_15</title>
</g>
<!-- empty_node_1_1_15 -->
<g id="node22" class="node"><title>empty_node_1_1_15</title>
</g>
<!-- empty_node_root_15&#45;&gt;empty_node_1_1_15 -->
<g id="edge5" class="edge"><title>empty_node_root_15&#45;&gt;empty_node_1_1_15</title>
<path fill="none" stroke="black" d="M561.103,-2418.15C601.752,-2425.99 679.685,-2433.78 720,-2390 745.08,-2362.76 707.202,-2084.49 732,-2057 770.916,-2013.86 844.472,-2016.45 888.681,-2022.83"/>
<polygon fill="black" stroke="black" points="888.291,-2026.31 898.714,-2024.41 889.384,-2019.39 888.291,-2026.31"/>
</g>
<!-- empty_node_1_2_15 -->
<g id="node25" class="node"><title>empty_node_1_2_15</title>
</g>
<!-- empty_node_root_15&#45;&gt;empty_node_1_2_15 -->
<g id="edge6" class="edge"><title>empty_node_root_15&#45;&gt;empty_node_1_2_15</title>
<path fill="none" stroke="black" d="M561.184,-2417.97C601.585,-2425.48 678.753,-2432.68 720,-2390 742.008,-2367.23 710.228,-2271 732,-2248 771.946,-2205.81 845.151,-2208.07 889.016,-2214.14"/>
<polygon fill="black" stroke="black" points="888.556,-2217.61 898.968,-2215.65 889.606,-2210.68 888.556,-2217.61"/>
</g>
<!-- empty_node_1_3_15 -->
<g id="node28" class="node"><title>empty_node_1_3_15</title>
</g>
<!-- empty_node_root_15&#45;&gt;empty_node_1_3_15 -->
<g id="edge7" class="edge"><title>empty_node_root_15&#45;&gt;empty_node_1_3_15</title>
<path fill="none" stroke="black" d="M561.195,-2412C629.05,-2412 810.669,-2412 888.629,-2412"/>
<polygon fill="black" stroke="black" points="888.919,-2415.5 898.919,-2412 888.919,-2408.5 888.919,-2415.5"/>
</g>
<!-- empty_node_1_4_15 -->
<g id="node31" class="node"><title>empty_node_1_4_15</title>
</g>
<!-- empty_node_root_15&#45;&gt;empty_node_1_4_15 -->
<g id="edge8" class="edge"><title>empty_node_root_15&#45;&gt;empty_node_1_4_15</title>
<path fill="none" stroke="black" d="M561.261,-2406.86C601.765,-2400.62 679.071,-2395.73 720,-2439 740.544,-2460.72 711.557,-2551.18 732,-2573 771.82,-2615.49 845.067,-2614.47 888.975,-2609.2"/>
<polygon fill="black" stroke="black" points="889.488,-2612.66 898.937,-2607.87 888.561,-2605.72 889.488,-2612.66"/>
</g>
<!-- empty_node_1_5_15 -->
<g id="node34" class="node"><title>empty_node_1_5_15</title>
</g>
<!-- empty_node_root_15&#45;&gt;empty_node_1_5_15 -->
<g id="edge9" class="edge"><title>empty_node_root_15&#45;&gt;empty_node_1_5_15</title>
<path fill="none" stroke="black" d="M561.204,-2406.66C601.991,-2400.05 680.111,-2394.55 720,-2439 744.135,-2465.89 707.99,-2736.99 732,-2764 770.693,-2807.52 844.325,-2806.15 888.608,-2800.53"/>
<polygon fill="black" stroke="black" points="889.244,-2803.98 898.66,-2799.12 888.27,-2797.05 889.244,-2803.98"/>
</g>
<!-- keys_1_215 -->
<g id="node20" class="node"><title>keys_1_215</title>
<text text-anchor="middle" x="926" y="-2134.3" font-family="Times New Roman,serif" font-size="14.00">keys=[1,2]</text>
</g>
<!-- c_add_node_1_1_s_15 -->
<g id="node21" class="node"><title>c_add_node_1_1_s_15</title>
<text text-anchor="middle" x="926" y="-2080.3" font-family="Times New Roman,serif" font-size="14.00">sons=[]</text>
</g>
<!-- keys_4_515 -->
<g id="node23" class="node"><title>keys_4_515</title>
<text text-anchor="middle" x="926" y="-2325.3" font-family="Times New Roman,serif" font-size="14.00">keys=[4,5]</text>
</g>
<!-- c_add_node_1_2_s_15 -->
<g id="node24" class="node"><title>c_add_node_1_2_s_15</title>
<text text-anchor="middle" x="926" y="-2271.3" font-family="Times New Roman,serif" font-size="14.00">sons=[]</text>
</g>
<!-- keys_7_815 -->
<g id="node26" class="node"><title>keys_7_815</title>
<text text-anchor="middle" x="926" y="-2516.3" font-family="Times New Roman,serif" font-size="14.00">keys=[7,8]</text>
</g>
<!-- c_add_node_1_3_s_15 -->
<g id="node27" class="node"><title>c_add_node_1_3_s_15</title>
<text text-anchor="middle" x="926" y="-2462.3" font-family="Times New Roman,serif" font-size="14.00">sons=[]</text>
</g>
<!-- keys_10_1115 -->
<g id="node29" class="node"><title>keys_10_1115</title>
<text text-anchor="middle" x="926" y="-2707.3" font-family="Times New Roman,serif" font-size="14.00">keys=[10,11]</text>
</g>
<!-- c_add_node_1_4_s_15 -->
<g id="node30" class="node"><title>c_add_node_1_4_s_15</title>
<text text-anchor="middle" x="926" y="-2653.3" font-family="Times New Roman,serif" font-size="14.00">sons=[]</text>
</g>
<!-- keys=[13,14,15] -->
<g id="node32" class="node"><title>keys=[13,14,15]</title>
<text text-anchor="middle" x="926" y="-2898.3" font-family="Times New Roman,serif" font-size="14.00">keys=[13,14,15]</text>
</g>
<!-- c_add_node_1_5_s_15 -->
<g id="node33" class="node"><title>c_add_node_1_5_s_15</title>
<text text-anchor="middle" x="926" y="-2844.3" font-family="Times New Roman,serif" font-size="14.00">sons=[]</text>
</g>
<!-- tag__4 -->
<g id="node54" class="node"><title>tag__4</title>
</g>
<!-- tag__3&#45;&gt;tag__4 -->
<g id="edge21" class="edge"><title>tag__3&#45;&gt;tag__4</title>
<path fill="none" stroke="black" d="M535.88,-2171.77C540.96,-2080.97 572.213,-1670.71 732,-1388 772.552,-1316.25 847.406,-1253.16 891.017,-1220.23"/>
<polygon fill="black" stroke="black" points="893.379,-1222.83 899.303,-1214.05 889.194,-1217.22 893.379,-1222.83"/>
</g>
<!-- keys=[3]_16 -->
<g id="node36" class="node"><title>keys=[3]_16</title>
<text text-anchor="middle" x="926" y="-1522.3" font-family="Times New Roman,serif" font-size="14.00">keys=[3,6,9,12]</text>
</g>
<!-- c_add_node_root_s_16 -->
<g id="node37" class="node"><title>c_add_node_root_s_16</title>
<text text-anchor="middle" x="926" y="-1468.3" font-family="Times New Roman,serif" font-size="14.00">sons=[node_1_1,node_1_2,node_1_3,node_1_4,node_1_5]</text>
</g>
<!-- empty_node_root_16 -->
<g id="node38" class="node"><title>empty_node_root_16</title>
</g>
<!-- empty_node_1_1_16 -->
<g id="node41" class="node"><title>empty_node_1_1_16</title>
</g>
<!-- empty_node_root_16&#45;&gt;empty_node_1_1_16 -->
<g id="edge10" class="edge"><title>empty_node_root_16&#45;&gt;empty_node_1_1_16</title>
<path fill="none" stroke="black" d="M953.103,-1424.15C993.752,-1431.99 1071.69,-1439.78 1112,-1396 1137.08,-1368.76 1099.2,-1090.49 1124,-1063 1162.92,-1019.86 1236.47,-1022.45 1280.68,-1028.83"/>
<polygon fill="black" stroke="black" points="1280.29,-1032.31 1290.71,-1030.41 1281.38,-1025.39 1280.29,-1032.31"/>
</g>
<!-- empty_node_1_2_16 -->
<g id="node44" class="node"><title>empty_node_1_2_16</title>
</g>
<!-- empty_node_root_16&#45;&gt;empty_node_1_2_16 -->
<g id="edge11" class="edge"><title>empty_node_root_16&#45;&gt;empty_node_1_2_16</title>
<path fill="none" stroke="black" d="M953.184,-1423.97C993.585,-1431.48 1070.75,-1438.68 1112,-1396 1134.01,-1373.23 1102.23,-1277 1124,-1254 1163.95,-1211.81 1237.15,-1214.07 1281.02,-1220.14"/>
<polygon fill="black" stroke="black" points="1280.56,-1223.61 1290.97,-1221.65 1281.61,-1216.68 1280.56,-1223.61"/>
</g>
<!-- empty_node_1_3_16 -->
<g id="node47" class="node"><title>empty_node_1_3_16</title>
</g>
<!-- empty_node_root_16&#45;&gt;empty_node_1_3_16 -->
<g id="edge12" class="edge"><title>empty_node_root_16&#45;&gt;empty_node_1_3_16</title>
<path fill="none" stroke="black" d="M953.195,-1418C1021.05,-1418 1202.67,-1418 1280.63,-1418"/>
<polygon fill="black" stroke="black" points="1280.92,-1421.5 1290.92,-1418 1280.92,-1414.5 1280.92,-1421.5"/>
</g>
<!-- empty_node_1_4_16 -->
<g id="node50" class="node"><title>empty_node_1_4_16</title>
</g>
<!-- empty_node_root_16&#45;&gt;empty_node_1_4_16 -->
<g id="edge13" class="edge"><title>empty_node_root_16&#45;&gt;empty_node_1_4_16</title>
<path fill="none" stroke="black" d="M953.261,-1412.86C993.765,-1406.62 1071.07,-1401.73 1112,-1445 1132.54,-1466.72 1103.56,-1557.18 1124,-1579 1163.82,-1621.49 1237.07,-1620.47 1280.97,-1615.2"/>
<polygon fill="black" stroke="black" points="1281.49,-1618.66 1290.94,-1613.87 1280.56,-1611.72 1281.49,-1618.66"/>
</g>
<!-- empty_node_1_5_16 -->
<g id="node53" class="node"><title>empty_node_1_5_16</title>
</g>
<!-- empty_node_root_16&#45;&gt;empty_node_1_5_16 -->
<g id="edge14" class="edge"><title>empty_node_root_16&#45;&gt;empty_node_1_5_16</title>
<path fill="none" stroke="black" d="M953.204,-1412.66C993.991,-1406.05 1072.11,-1400.55 1112,-1445 1136.14,-1471.89 1099.99,-1742.99 1124,-1770 1162.69,-1813.52 1236.33,-1812.15 1280.61,-1806.53"/>
<polygon fill="black" stroke="black" points="1281.24,-1809.98 1290.66,-1805.12 1280.27,-1803.05 1281.24,-1809.98"/>
</g>
<!-- keys_1_216 -->
<g id="node39" class="node"><title>keys_1_216</title>
<text text-anchor="middle" x="1318" y="-1140.3" font-family="Times New Roman,serif" font-size="14.00">keys=[1,2]</text>
</g>
<!-- c_add_node_1_1_s_16 -->
<g id="node40" class="node"><title>c_add_node_1_1_s_16</title>
<text text-anchor="middle" x="1318" y="-1086.3" font-family="Times New Roman,serif" font-size="14.00">sons=[]</text>
</g>
<!-- keys_4_516 -->
<g id="node42" class="node"><title>keys_4_516</title>
<text text-anchor="middle" x="1318" y="-1331.3" font-family="Times New Roman,serif" font-size="14.00">keys=[4,5]</text>
</g>
<!-- c_add_node_1_2_s_16 -->
<g id="node43" class="node"><title>c_add_node_1_2_s_16</title>
<text text-anchor="middle" x="1318" y="-1277.3" font-family="Times New Roman,serif" font-size="14.00">sons=[]</text>
</g>
<!-- keys_7_816 -->
<g id="node45" class="node"><title>keys_7_816</title>
<text text-anchor="middle" x="1318" y="-1522.3" font-family="Times New Roman,serif" font-size="14.00">keys=[7,8]</text>
</g>
<!-- c_add_node_1_3_s_16 -->
<g id="node46" class="node"><title>c_add_node_1_3_s_16</title>
<text text-anchor="middle" x="1318" y="-1468.3" font-family="Times New Roman,serif" font-size="14.00">sons=[]</text>
</g>
<!-- keys_10_1116 -->
<g id="node48" class="node"><title>keys_10_1116</title>
<text text-anchor="middle" x="1318" y="-1713.3" font-family="Times New Roman,serif" font-size="14.00">keys=[10,11]</text>
</g>
<!-- c_add_node_1_4_s_16 -->
<g id="node49" class="node"><title>c_add_node_1_4_s_16</title>
<text text-anchor="middle" x="1318" y="-1659.3" font-family="Times New Roman,serif" font-size="14.00">sons=[]</text>
</g>
<!-- keys=[13,14,15,16] -->
<g id="node51" class="node"><title>keys=[13,14,15,16]</title>
<text text-anchor="middle" x="1318" y="-1904.3" font-family="Times New Roman,serif" font-size="14.00">keys=[13,14,15,16]</text>
</g>
<!-- c_add_node_1_5_s_16 -->
<g id="node52" class="node"><title>c_add_node_1_5_s_16</title>
<text text-anchor="middle" x="1318" y="-1850.3" font-family="Times New Roman,serif" font-size="14.00">sons=[]</text>
</g>
<!-- tag__5 -->
<g id="node73" class="node"><title>tag__5</title>
</g>
<!-- tag__4&#45;&gt;tag__5 -->
<g id="edge22" class="edge"><title>tag__4&#45;&gt;tag__5</title>
<path fill="none" stroke="black" d="M929.336,-1177.91C942.745,-1076.97 1013.25,-584.46 1124,-489 1167.47,-451.528 1238.31,-453.237 1281,-458.616"/>
<polygon fill="black" stroke="black" points="1280.57,-462.09 1290.96,-460.002 1281.53,-455.157 1280.57,-462.09"/>
</g>
<!-- keys=[3]_17 -->
<g id="node55" class="node"><title>keys=[3]_17</title>
<text text-anchor="middle" x="1318" y="-623.3" font-family="Times New Roman,serif" font-size="14.00">keys=[3,6,9,12]</text>
</g>
<!-- c_add_node_root_s_17 -->
<g id="node56" class="node"><title>c_add_node_root_s_17</title>
<text text-anchor="middle" x="1318" y="-569.3" font-family="Times New Roman,serif" font-size="14.00">sons=[node_1_1,node_1_2,node_1_3,node_1_4,node_1_5]</text>
</g>
<!-- empty_node_root_17 -->
<g id="node57" class="node"><title>empty_node_root_17</title>
</g>
<!-- empty_node_1_1_17 -->
<g id="node60" class="node"><title>empty_node_1_1_17</title>
</g>
<!-- empty_node_root_17&#45;&gt;empty_node_1_1_17 -->
<g id="edge15" class="edge"><title>empty_node_root_17&#45;&gt;empty_node_1_1_17</title>
<path fill="none" stroke="black" d="M1345.05,-525.096C1385.62,-532.869 1463.45,-540.563 1504,-497 1536.44,-462.152 1495.49,-107.125 1524,-69 1533.86,-55.8207 1550.57,-49.0324 1566,-45.5532"/>
<polygon fill="black" stroke="black" points="1566.68,-48.9863 1575.87,-43.7109 1565.4,-42.1051 1566.68,-48.9863"/>
</g>
<!-- empty_node_1_2_17 -->
<g id="node63" class="node"><title>empty_node_1_2_17</title>
</g>
<!-- empty_node_root_17&#45;&gt;empty_node_1_2_17 -->
<g id="edge16" class="edge"><title>empty_node_root_17&#45;&gt;empty_node_1_2_17</title>
<path fill="none" stroke="black" d="M1345.19,-524.975C1385.59,-532.477 1462.76,-539.679 1504,-497 1540.73,-458.994 1491.56,-301.726 1524,-260 1533.93,-247.223 1550.28,-240.465 1565.45,-236.902"/>
<polygon fill="black" stroke="black" points="1566.53,-240.258 1575.68,-234.91 1565.19,-233.387 1566.53,-240.258"/>
</g>
<!-- empty_node_1_3_17 -->
<g id="node66" class="node"><title>empty_node_1_3_17</title>
</g>
<!-- empty_node_root_17&#45;&gt;empty_node_1_3_17 -->
<g id="edge17" class="edge"><title>empty_node_root_17&#45;&gt;empty_node_1_3_17</title>
<path fill="none" stroke="black" d="M1345.24,-523.438C1384,-528.47 1457.03,-531.939 1504,-497 1521.89,-483.695 1507.64,-466.146 1524,-451 1535.42,-440.424 1551.2,-433.961 1565.57,-430.026"/>
<polygon fill="black" stroke="black" points="1566.81,-433.329 1575.71,-427.585 1565.17,-426.523 1566.81,-433.329"/>
</g>
<!-- empty_node_1_4_17 -->
<g id="node69" class="node"><title>empty_node_1_4_17</title>
</g>
<!-- empty_node_root_17&#45;&gt;empty_node_1_4_17 -->
<g id="edge18" class="edge"><title>empty_node_root_17&#45;&gt;empty_node_1_4_17</title>
<path fill="none" stroke="black" d="M1345.03,-515.793C1383.52,-512.475 1456.22,-511.82 1504,-546 1519.84,-557.333 1509.51,-571.98 1524,-585 1535.84,-595.637 1551.85,-602.666 1566.29,-607.227"/>
<polygon fill="black" stroke="black" points="1565.38,-610.608 1575.96,-610.004 1567.31,-603.88 1565.38,-610.608"/>
</g>
<!-- empty_node_1_5_17 -->
<g id="node72" class="node"><title>empty_node_1_5_17</title>
</g>
<!-- empty_node_root_17&#45;&gt;empty_node_1_5_17 -->
<g id="edge19" class="edge"><title>empty_node_root_17&#45;&gt;empty_node_1_5_17</title>
<path fill="none" stroke="black" d="M1345.27,-513.846C1385.8,-507.589 1463.13,-502.677 1504,-546 1539.21,-583.317 1493.15,-735.009 1524,-776 1534.02,-789.313 1550.75,-796.719 1566.15,-800.838"/>
<polygon fill="black" stroke="black" points="1565.46,-804.272 1575.99,-803.1 1567.03,-797.45 1565.46,-804.272"/>
</g>
<!-- keys_1_217 -->
<g id="node58" class="node"><title>keys_1_217</title>
<text text-anchor="middle" x="1603" y="-146.3" font-family="Times New Roman,serif" font-size="14.00">keys=[1,2]</text>
</g>
<!-- c_add_node_1_1_s_17 -->
<g id="node59" class="node"><title>c_add_node_1_1_s_17</title>
<text text-anchor="middle" x="1603" y="-92.3" font-family="Times New Roman,serif" font-size="14.00">sons=[]</text>
</g>
<!-- keys_4_517 -->
<g id="node61" class="node"><title>keys_4_517</title>
<text text-anchor="middle" x="1603" y="-337.3" font-family="Times New Roman,serif" font-size="14.00">keys=[4,5]</text>
</g>
<!-- c_add_node_1_2_s_17 -->
<g id="node62" class="node"><title>c_add_node_1_2_s_17</title>
<text text-anchor="middle" x="1603" y="-283.3" font-family="Times New Roman,serif" font-size="14.00">sons=[]</text>
</g>
<!-- keys_7_817 -->
<g id="node64" class="node"><title>keys_7_817</title>
<text text-anchor="middle" x="1603" y="-528.3" font-family="Times New Roman,serif" font-size="14.00">keys=[7,8]</text>
</g>
<!-- c_add_node_1_3_s_17 -->
<g id="node65" class="node"><title>c_add_node_1_3_s_17</title>
<text text-anchor="middle" x="1603" y="-474.3" font-family="Times New Roman,serif" font-size="14.00">sons=[]</text>
</g>
<!-- keys_10_1117 -->
<g id="node67" class="node"><title>keys_10_1117</title>
<text text-anchor="middle" x="1603" y="-719.3" font-family="Times New Roman,serif" font-size="14.00">keys=[10,11]</text>
</g>
<!-- c_add_node_1_4_s_17 -->
<g id="node68" class="node"><title>c_add_node_1_4_s_17</title>
<text text-anchor="middle" x="1603" y="-665.3" font-family="Times New Roman,serif" font-size="14.00">sons=[]</text>
</g>
<!-- keys=[13,14,15,16,17] -->
<g id="node70" class="node"><title>keys=[13,14,15,16,17]</title>
<text text-anchor="middle" x="1603" y="-910.3" font-family="Times New Roman,serif" font-size="14.00">keys=[13,14,15,16,17]</text>
</g>
<!-- c_add_node_1_5_s_17 -->
<g id="node71" class="node"><title>c_add_node_1_5_s_17</title>
<text text-anchor="middle" x="1603" y="-856.3" font-family="Times New Roman,serif" font-size="14.00">sons=[]</text>
</g>
</g>
</svg>
