<?xml version="1.0" encoding="UTF-8" standalone="no"?>
<!DOCTYPE svg PUBLIC "-//W3C//DTD SVG 1.1//EN"
 "http://www.w3.org/Graphics/SVG/1.1/DTD/svg11.dtd">
<!-- Generated by graphviz version 2.38.0 (20140413.2041)
 -->
<!-- Title: %3 Pages: 1 -->
<svg width="1436pt" height="1117pt"
 viewBox="0.00 0.00 1436.00 1117.00" xmlns="http://www.w3.org/2000/svg" xmlns:xlink="http://www.w3.org/1999/xlink">
<g id="graph0" class="graph" transform="scale(1 1) rotate(0) translate(4 1113)">
<title>%3</title>
<polygon fill="white" stroke="none" points="-4,4 -4,-1113 1432,-1113 1432,4 -4,4"/>
<g id="clust1" class="cluster"><title>cluster_tree_add_1</title>
<polygon fill="none" stroke="black" points="8,-742 8,-933 106,-933 106,-742 8,-742"/>
</g>
<g id="clust2" class="cluster"><title>cluster_add_1</title>
<polygon fill="none" stroke="black" points="16,-796 16,-925 98,-925 98,-796 16,-796"/>
<text text-anchor="middle" x="57" y="-909.8" font-family="Times New Roman,serif" font-size="14.00">bnode</text>
</g>
<g id="clust5" class="cluster"><title>cluster_tree_add_3</title>
<polygon fill="none" stroke="black" points="231,-742 231,-933 350,-933 350,-742 231,-742"/>
</g>
<g id="clust6" class="cluster"><title>cluster_add_3</title>
<polygon fill="none" stroke="black" points="239,-796 239,-925 342,-925 342,-796 239,-796"/>
<text text-anchor="middle" x="290.5" y="-909.8" font-family="Times New Roman,serif" font-size="14.00">bnode</text>
</g>
<g id="clust3" class="cluster"><title>cluster_tree_add_2</title>
<polygon fill="none" stroke="black" points="114,-742 114,-933 223,-933 223,-742 114,-742"/>
</g>
<g id="clust4" class="cluster"><title>cluster_add_2</title>
<polygon fill="none" stroke="black" points="122,-796 122,-925 215,-925 215,-796 122,-796"/>
<text text-anchor="middle" x="168.5" y="-909.8" font-family="Times New Roman,serif" font-size="14.00">bnode</text>
</g>
<g id="clust7" class="cluster"><title>cluster_tree_add_4</title>
<polygon fill="none" stroke="black" points="358,-742 358,-933 488,-933 488,-742 358,-742"/>
</g>
<g id="clust8" class="cluster"><title>cluster_add_4</title>
<polygon fill="none" stroke="black" points="366,-796 366,-925 480,-925 480,-796 366,-796"/>
<text text-anchor="middle" x="423" y="-909.8" font-family="Times New Roman,serif" font-size="14.00">bnode</text>
</g>
<g id="clust11" class="cluster"><title>cluster_tree_root_6</title>
<polygon fill="none" stroke="black" points="644,-742 644,-1101 1019.5,-1101 1019.5,-742 644,-742"/>
<text text-anchor="middle" x="831.75" y="-1085.8" font-family="Times New Roman,serif" font-size="14.00">btree(t=3)</text>
</g>
<g id="clust12" class="cluster"><title>cluster_add_root_6</title>
<polygon fill="none" stroke="black" points="652,-841 652,-1024 844,-1024 844,-841 652,-841"/>
<text text-anchor="middle" x="748" y="-1008.8" font-family="Times New Roman,serif" font-size="14.00">root: bnode</text>
</g>
<g id="clust13" class="cluster"><title>cluster_add_node_1_1_6</title>
<polygon fill="none" stroke="black" points="922,-750 922,-879 998,-879 998,-750 922,-750"/>
<text text-anchor="middle" x="960" y="-863.8" font-family="Times New Roman,serif" font-size="14.00">node_1_1</text>
</g>
<g id="clust14" class="cluster"><title>cluster_add_node_1_2_6</title>
<polygon fill="none" stroke="black" points="908.5,-887 908.5,-1070 1011.5,-1070 1011.5,-887 908.5,-887"/>
<text text-anchor="middle" x="960" y="-1054.8" font-family="Times New Roman,serif" font-size="14.00">node_1_1</text>
</g>
<g id="clust9" class="cluster"><title>cluster_tree_add_5</title>
<polygon fill="none" stroke="black" points="496,-742 496,-933 636,-933 636,-742 496,-742"/>
</g>
<g id="clust10" class="cluster"><title>cluster_add_5</title>
<polygon fill="none" stroke="black" points="504,-796 504,-925 628,-925 628,-796 504,-796"/>
<text text-anchor="middle" x="566" y="-909.8" font-family="Times New Roman,serif" font-size="14.00">bnode</text>
</g>
<g id="clust15" class="cluster"><title>cluster_tree_root_7</title>
<polygon fill="none" stroke="black" points="856,-375 856,-734 1237,-734 1237,-375 856,-375"/>
<text text-anchor="middle" x="1046.5" y="-718.8" font-family="Times New Roman,serif" font-size="14.00">btree(t=3)</text>
</g>
<g id="clust16" class="cluster"><title>cluster_add_root_7</title>
<polygon fill="none" stroke="black" points="864,-497 864,-626 1056,-626 1056,-497 864,-497"/>
<text text-anchor="middle" x="960" y="-610.8" font-family="Times New Roman,serif" font-size="14.00">root: bnode</text>
</g>
<g id="clust17" class="cluster"><title>cluster_add_node_1_1_7</title>
<polygon fill="none" stroke="black" points="1134,-383 1134,-512 1210,-512 1210,-383 1134,-383"/>
<text text-anchor="middle" x="1172" y="-496.8" font-family="Times New Roman,serif" font-size="14.00">node_1_1</text>
</g>
<g id="clust18" class="cluster"><title>cluster_add_node_1_2_7</title>
<polygon fill="none" stroke="black" points="1115,-520 1115,-703 1229,-703 1229,-520 1115,-520"/>
<text text-anchor="middle" x="1172" y="-687.8" font-family="Times New Roman,serif" font-size="14.00">node_1_1</text>
</g>
<g id="clust19" class="cluster"><title>cluster_tree_root_8</title>
<polygon fill="none" stroke="black" points="1068,-8 1068,-367 1420,-367 1420,-8 1068,-8"/>
<text text-anchor="middle" x="1244" y="-351.8" font-family="Times New Roman,serif" font-size="14.00">btree(t=3)</text>
</g>
<g id="clust20" class="cluster"><title>cluster_add_root_8</title>
<polygon fill="none" stroke="black" points="1076,-153 1076,-282 1268,-282 1268,-153 1076,-153"/>
<text text-anchor="middle" x="1172" y="-266.8" font-family="Times New Roman,serif" font-size="14.00">root: bnode</text>
</g>
<g id="clust21" class="cluster"><title>cluster_add_node_1_1_8</title>
<polygon fill="none" stroke="black" points="1312,-16 1312,-145 1388,-145 1388,-16 1312,-16"/>
<text text-anchor="middle" x="1350" y="-129.8" font-family="Times New Roman,serif" font-size="14.00">node_1_1</text>
</g>
<g id="clust22" class="cluster"><title>cluster_add_node_1_2_8</title>
<polygon fill="none" stroke="black" points="1288,-153 1288,-336 1412,-336 1412,-153 1288,-153"/>
<text text-anchor="middle" x="1350" y="-320.8" font-family="Times New Roman,serif" font-size="14.00">node_1_1</text>
</g>
<!-- keys=[1] -->
<g id="node1" class="node"><title>keys=[1]</title>
<text text-anchor="middle" x="57" y="-872.3" font-family="Times New Roman,serif" font-size="14.00">keys=[1]</text>
</g>
<!-- c_add_node_s_1 -->
<g id="node2" class="node"><title>c_add_node_s_1</title>
<text text-anchor="middle" x="57" y="-818.3" font-family="Times New Roman,serif" font-size="14.00">sons=[]</text>
</g>
<!-- tag__2 -->
<g id="node3" class="node"><title>tag__2</title>
</g>
<!-- tag__3 -->
<g id="node6" class="node"><title>tag__3</title>
</g>
<!-- tag__2&#45;&gt;tag__3 -->
<g id="edge7" class="edge"><title>tag__2&#45;&gt;tag__3</title>
<path fill="none" stroke="black" d="M84.228,-768C98.3136,-768 115.894,-768 131.266,-768"/>
<polygon fill="black" stroke="black" points="131.486,-771.5 141.486,-768 131.486,-764.5 131.486,-771.5"/>
</g>
<!-- keys=[1,2] -->
<g id="node4" class="node"><title>keys=[1,2]</title>
<text text-anchor="middle" x="168.5" y="-872.3" font-family="Times New Roman,serif" font-size="14.00">keys=[1,2]</text>
</g>
<!-- c_add_node_s_2 -->
<g id="node5" class="node"><title>c_add_node_s_2</title>
<text text-anchor="middle" x="168.5" y="-818.3" font-family="Times New Roman,serif" font-size="14.00">sons=[]</text>
</g>
<!-- tag__4 -->
<g id="node9" class="node"><title>tag__4</title>
</g>
<!-- tag__3&#45;&gt;tag__4 -->
<g id="edge8" class="edge"><title>tag__3&#45;&gt;tag__4</title>
<path fill="none" stroke="black" d="M195.538,-768C212.327,-768 234.405,-768 252.941,-768"/>
<polygon fill="black" stroke="black" points="253.098,-771.5 263.098,-768 253.098,-764.5 253.098,-771.5"/>
</g>
<!-- keys=[1,2,3] -->
<g id="node7" class="node"><title>keys=[1,2,3]</title>
<text text-anchor="middle" x="290.5" y="-872.3" font-family="Times New Roman,serif" font-size="14.00">keys=[1,2,3]</text>
</g>
<!-- c_add_node_s_3 -->
<g id="node8" class="node"><title>c_add_node_s_3</title>
<text text-anchor="middle" x="290.5" y="-818.3" font-family="Times New Roman,serif" font-size="14.00">sons=[]</text>
</g>
<!-- tag__5 -->
<g id="node12" class="node"><title>tag__5</title>
</g>
<!-- tag__4&#45;&gt;tag__5 -->
<g id="edge9" class="edge"><title>tag__4&#45;&gt;tag__5</title>
<path fill="none" stroke="black" d="M317.595,-768C337.155,-768 364.164,-768 385.811,-768"/>
<polygon fill="black" stroke="black" points="385.95,-771.5 395.95,-768 385.95,-764.5 385.95,-771.5"/>
</g>
<!-- keys=[1,2,3,4] -->
<g id="node10" class="node"><title>keys=[1,2,3,4]</title>
<text text-anchor="middle" x="423" y="-872.3" font-family="Times New Roman,serif" font-size="14.00">keys=[1,2,3,4]</text>
</g>
<!-- c_add_node_s_4 -->
<g id="node11" class="node"><title>c_add_node_s_4</title>
<text text-anchor="middle" x="423" y="-818.3" font-family="Times New Roman,serif" font-size="14.00">sons=[]</text>
</g>
<!-- tag__6 -->
<g id="node15" class="node"><title>tag__6</title>
</g>
<!-- tag__5&#45;&gt;tag__6 -->
<g id="edge10" class="edge"><title>tag__5&#45;&gt;tag__6</title>
<path fill="none" stroke="black" d="M450.191,-768C472.351,-768 504.333,-768 528.917,-768"/>
<polygon fill="black" stroke="black" points="528.95,-771.5 538.95,-768 528.95,-764.5 528.95,-771.5"/>
</g>
<!-- keys=[1,2,3,4,5] -->
<g id="node13" class="node"><title>keys=[1,2,3,4,5]</title>
<text text-anchor="middle" x="566" y="-872.3" font-family="Times New Roman,serif" font-size="14.00">keys=[1,2,3,4,5]</text>
</g>
<!-- c_add_node_s_5 -->
<g id="node14" class="node"><title>c_add_node_s_5</title>
<text text-anchor="middle" x="566" y="-818.3" font-family="Times New Roman,serif" font-size="14.00">sons=[]</text>
</g>
<!-- tag__7 -->
<g id="node24" class="node"><title>tag__7</title>
</g>
<!-- tag__6&#45;&gt;tag__7 -->
<g id="edge11" class="edge"><title>tag__6&#45;&gt;tag__7</title>
<path fill="none" stroke="black" d="M593.174,-768C624.101,-768 675.746,-768 710.569,-768"/>
<polygon fill="black" stroke="black" points="710.795,-771.5 720.795,-768 710.795,-764.5 710.795,-771.5"/>
</g>
<!-- keys=[3] -->
<g id="node16" class="node"><title>keys=[3]</title>
<text text-anchor="middle" x="748" y="-971.3" font-family="Times New Roman,serif" font-size="14.00">keys=[3]</text>
</g>
<!-- c_add_node_root_s_6 -->
<g id="node17" class="node"><title>c_add_node_root_s_6</title>
<text text-anchor="middle" x="748" y="-917.3" font-family="Times New Roman,serif" font-size="14.00">sons=[node_1_1,node_1_2]</text>
</g>
<!-- empty_node_root_6 -->
<g id="node18" class="node"><title>empty_node_root_6</title>
</g>
<!-- empty_node_1_1_6 -->
<g id="node20" class="node"><title>empty_node_1_1_6</title>
</g>
<!-- empty_node_root_6&#45;&gt;empty_node_1_1_6 -->
<g id="edge1" class="edge"><title>empty_node_root_6&#45;&gt;empty_node_1_1_6</title>
<path fill="none" stroke="black" d="M775.333,-867.791C796.534,-866.98 825.717,-862.379 844,-845 858.071,-831.625 842.123,-816.576 856,-803 873.568,-785.813 900.667,-779.196 922.66,-776.805"/>
<polygon fill="black" stroke="black" points="922.997,-780.289 932.667,-775.962 922.409,-773.314 922.997,-780.289"/>
</g>
<!-- empty_node_1_2_6 -->
<g id="node23" class="node"><title>empty_node_1_2_6</title>
</g>
<!-- empty_node_root_6&#45;&gt;empty_node_1_2_6 -->
<g id="edge2" class="edge"><title>empty_node_root_6&#45;&gt;empty_node_1_2_6</title>
<path fill="none" stroke="black" d="M775.172,-872.733C812.45,-880.899 880.967,-895.907 923.003,-905.115"/>
<polygon fill="black" stroke="black" points="922.311,-908.546 932.829,-907.267 923.809,-901.708 922.311,-908.546"/>
</g>
<!-- c_add_node_1_1_s_6 -->
<g id="node19" class="node"><title>c_add_node_1_1_s_6</title>
<text text-anchor="middle" x="960" y="-826.3" font-family="Times New Roman,serif" font-size="14.00">sons=[]</text>
</g>
<!-- keys=[4,5,6] -->
<g id="node21" class="node"><title>keys=[4,5,6]</title>
<text text-anchor="middle" x="960" y="-1017.3" font-family="Times New Roman,serif" font-size="14.00">keys=[4,5,6]</text>
</g>
<!-- c_add_node_1_2_s_6 -->
<g id="node22" class="node"><title>c_add_node_1_2_s_6</title>
<text text-anchor="middle" x="960" y="-963.3" font-family="Times New Roman,serif" font-size="14.00">sons=[]</text>
</g>
<!-- tag__8 -->
<g id="node32" class="node"><title>tag__8</title>
</g>
<!-- tag__7&#45;&gt;tag__8 -->
<g id="edge12" class="edge"><title>tag__7&#45;&gt;tag__8</title>
<path fill="none" stroke="black" d="M751.307,-749.757C758.287,-701.675 783.359,-569.906 856,-493 874.025,-473.917 901.274,-461.954 923.218,-454.875"/>
<polygon fill="black" stroke="black" points="924.314,-458.2 932.875,-451.958 922.29,-451.499 924.314,-458.2"/>
</g>
<!-- c_add_node_root_s_7 -->
<g id="node25" class="node"><title>c_add_node_root_s_7</title>
<text text-anchor="middle" x="960" y="-573.3" font-family="Times New Roman,serif" font-size="14.00">sons=[node_1_1,node_1_2]</text>
</g>
<!-- empty_node_root_7 -->
<g id="node26" class="node"><title>empty_node_root_7</title>
</g>
<!-- empty_node_1_1_7 -->
<g id="node28" class="node"><title>empty_node_1_1_7</title>
</g>
<!-- empty_node_root_7&#45;&gt;empty_node_1_1_7 -->
<g id="edge3" class="edge"><title>empty_node_root_7&#45;&gt;empty_node_1_1_7</title>
<path fill="none" stroke="black" d="M987.349,-524.249C1008.85,-523.754 1038.45,-519.356 1056,-501 1076.3,-479.765 1048.01,-457.525 1068,-436 1084.83,-417.876 1112.21,-411.322 1134.51,-409.194"/>
<polygon fill="black" stroke="black" points="1134.93,-412.674 1144.66,-408.488 1134.44,-405.69 1134.93,-412.674"/>
</g>
<!-- empty_node_1_2_7 -->
<g id="node31" class="node"><title>empty_node_1_2_7</title>
</g>
<!-- empty_node_root_7&#45;&gt;empty_node_1_2_7 -->
<g id="edge4" class="edge"><title>empty_node_root_7&#45;&gt;empty_node_1_2_7</title>
<path fill="none" stroke="black" d="M987.172,-525.866C1024.37,-529.941 1092.68,-537.422 1134.74,-542.028"/>
<polygon fill="black" stroke="black" points="1134.51,-545.524 1144.83,-543.134 1135.27,-538.566 1134.51,-545.524"/>
</g>
<!-- c_add_node_1_1_s_7 -->
<g id="node27" class="node"><title>c_add_node_1_1_s_7</title>
<text text-anchor="middle" x="1172" y="-459.3" font-family="Times New Roman,serif" font-size="14.00">sons=[]</text>
</g>
<!-- keys=[4,5,6,7] -->
<g id="node29" class="node"><title>keys=[4,5,6,7]</title>
<text text-anchor="middle" x="1172" y="-650.3" font-family="Times New Roman,serif" font-size="14.00">keys=[4,5,6,7]</text>
</g>
<!-- c_add_node_1_2_s_7 -->
<g id="node30" class="node"><title>c_add_node_1_2_s_7</title>
<text text-anchor="middle" x="1172" y="-596.3" font-family="Times New Roman,serif" font-size="14.00">sons=[]</text>
</g>
<!-- tag__9 -->
<g id="node40" class="node"><title>tag__9</title>
</g>
<!-- tag__8&#45;&gt;tag__9 -->
<g id="edge13" class="edge"><title>tag__8&#45;&gt;tag__9</title>
<path fill="none" stroke="black" d="M961.817,-427.716C965.174,-375.626 982.207,-225.31 1068,-149 1086.04,-132.955 1112.72,-127.061 1134.4,-125.123"/>
<polygon fill="black" stroke="black" points="1134.84,-128.602 1144.59,-124.462 1134.38,-121.617 1134.84,-128.602"/>
</g>
<!-- c_add_node_root_s_8 -->
<g id="node33" class="node"><title>c_add_node_root_s_8</title>
<text text-anchor="middle" x="1172" y="-229.3" font-family="Times New Roman,serif" font-size="14.00">sons=[node_1_1,node_1_2]</text>
</g>
<!-- empty_node_root_8 -->
<g id="node34" class="node"><title>empty_node_root_8</title>
</g>
<!-- empty_node_1_1_8 -->
<g id="node36" class="node"><title>empty_node_1_1_8</title>
</g>
<!-- empty_node_root_8&#45;&gt;empty_node_1_1_8 -->
<g id="edge5" class="edge"><title>empty_node_root_8&#45;&gt;empty_node_1_1_8</title>
<path fill="none" stroke="black" d="M1199.16,-180.063C1220.54,-179.454 1250.08,-174.993 1268,-157 1296.3,-128.581 1262.51,-99.9645 1288,-69 1294.57,-61.0202 1303.97,-55.3227 1313.44,-51.2861"/>
<polygon fill="black" stroke="black" points="1314.67,-54.5599 1322.81,-47.78 1312.22,-48.0031 1314.67,-54.5599"/>
</g>
<!-- empty_node_1_2_8 -->
<g id="node39" class="node"><title>empty_node_1_2_8</title>
</g>
<!-- empty_node_root_8&#45;&gt;empty_node_1_2_8 -->
<g id="edge6" class="edge"><title>empty_node_root_8&#45;&gt;empty_node_1_2_8</title>
<path fill="none" stroke="black" d="M1199.35,-179C1229.37,-179 1278.64,-179 1312.39,-179"/>
<polygon fill="black" stroke="black" points="1312.76,-182.5 1322.76,-179 1312.76,-175.5 1312.76,-182.5"/>
</g>
<!-- c_add_node_1_1_s_8 -->
<g id="node35" class="node"><title>c_add_node_1_1_s_8</title>
<text text-anchor="middle" x="1350" y="-92.3" font-family="Times New Roman,serif" font-size="14.00">sons=[]</text>
</g>
<!-- keys=[4,5,6,7,8] -->
<g id="node37" class="node"><title>keys=[4,5,6,7,8]</title>
<text text-anchor="middle" x="1350" y="-283.3" font-family="Times New Roman,serif" font-size="14.00">keys=[4,5,6,7,8]</text>
</g>
<!-- c_add_node_1_2_s_8 -->
<g id="node38" class="node"><title>c_add_node_1_2_s_8</title>
<text text-anchor="middle" x="1350" y="-229.3" font-family="Times New Roman,serif" font-size="14.00">sons=[]</text>
</g>
</g>
</svg>
