<?xml version="1.0" encoding="UTF-8" standalone="no"?>
<!DOCTYPE svg PUBLIC "-//W3C//DTD SVG 1.1//EN"
 "http://www.w3.org/Graphics/SVG/1.1/DTD/svg11.dtd">
<!-- Generated by graphviz version 2.38.0 (20140413.2041)
 -->
<!-- Title: %3 Pages: 1 -->
<svg width="1466pt" height="3037pt"
 viewBox="0.00 0.00 1466.00 3037.00" xmlns="http://www.w3.org/2000/svg" xmlns:xlink="http://www.w3.org/1999/xlink">
<g id="graph0" class="graph" transform="scale(1 1) rotate(0) translate(4 3033)">
<title>%3</title>
<polygon fill="white" stroke="none" points="-4,4 -4,-3033 1462,-3033 1462,4 -4,4"/>
<g id="clust1" class="cluster"><title>cluster_tree_root_11</title>
<polygon fill="none" stroke="black" points="8,-2417 8,-3021 521,-3021 521,-2417 8,-2417"/>
<text text-anchor="middle" x="264.5" y="-3005.8" font-family="Times New Roman,serif" font-size="14.00">btree(t=3)</text>
</g>
<g id="clust3" class="cluster"><title>cluster_add_node_1_1_11</title>
<polygon fill="none" stroke="black" points="397.5,-2425 397.5,-2608 490.5,-2608 490.5,-2425 397.5,-2425"/>
<text text-anchor="middle" x="444" y="-2592.8" font-family="Times New Roman,serif" font-size="14.00">node_1_1</text>
</g>
<g id="clust2" class="cluster"><title>cluster_add_root_11</title>
<polygon fill="none" stroke="black" points="16,-2616 16,-2799 268,-2799 268,-2616 16,-2616"/>
<text text-anchor="middle" x="142" y="-2783.8" font-family="Times New Roman,serif" font-size="14.00">root: bnode</text>
</g>
<g id="clust4" class="cluster"><title>cluster_add_node_1_2_11</title>
<polygon fill="none" stroke="black" points="397.5,-2616 397.5,-2799 490.5,-2799 490.5,-2616 397.5,-2616"/>
<text text-anchor="middle" x="444" y="-2783.8" font-family="Times New Roman,serif" font-size="14.00">node_1_2</text>
</g>
<g id="clust5" class="cluster"><title>cluster_add_node_1_3_11</title>
<polygon fill="none" stroke="black" points="375,-2807 375,-2990 513,-2990 513,-2807 375,-2807"/>
<text text-anchor="middle" x="444" y="-2974.8" font-family="Times New Roman,serif" font-size="14.00">node_1_3</text>
</g>
<g id="clust6" class="cluster"><title>cluster_tree_root_12</title>
<polygon fill="none" stroke="black" points="280,-1614 280,-2409 845.5,-2409 845.5,-1614 280,-1614"/>
<text text-anchor="middle" x="562.75" y="-2393.8" font-family="Times New Roman,serif" font-size="14.00">btree(t=3)</text>
</g>
<g id="clust7" class="cluster"><title>cluster_add_root_12</title>
<polygon fill="none" stroke="black" points="288,-1908 288,-2091 600,-2091 600,-1908 288,-1908"/>
<text text-anchor="middle" x="444" y="-2075.8" font-family="Times New Roman,serif" font-size="14.00">root: bnode</text>
</g>
<g id="clust8" class="cluster"><title>cluster_add_node_1_1_12</title>
<polygon fill="none" stroke="black" points="729.5,-1622 729.5,-1805 822.5,-1805 822.5,-1622 729.5,-1622"/>
<text text-anchor="middle" x="776" y="-1789.8" font-family="Times New Roman,serif" font-size="14.00">node_1_1</text>
</g>
<g id="clust9" class="cluster"><title>cluster_add_node_1_2_12</title>
<polygon fill="none" stroke="black" points="729.5,-1813 729.5,-1996 822.5,-1996 822.5,-1813 729.5,-1813"/>
<text text-anchor="middle" x="776" y="-1980.8" font-family="Times New Roman,serif" font-size="14.00">node_1_2</text>
</g>
<g id="clust10" class="cluster"><title>cluster_add_node_1_3_12</title>
<polygon fill="none" stroke="black" points="729.5,-2004 729.5,-2187 822.5,-2187 822.5,-2004 729.5,-2004"/>
<text text-anchor="middle" x="776" y="-2171.8" font-family="Times New Roman,serif" font-size="14.00">node_1_3</text>
</g>
<g id="clust11" class="cluster"><title>cluster_add_node_1_4_12</title>
<polygon fill="none" stroke="black" points="714.5,-2195 714.5,-2378 837.5,-2378 837.5,-2195 714.5,-2195"/>
<text text-anchor="middle" x="776" y="-2362.8" font-family="Times New Roman,serif" font-size="14.00">node_1_4</text>
</g>
<g id="clust12" class="cluster"><title>cluster_tree_root_13</title>
<polygon fill="none" stroke="black" points="612,-811 612,-1606 1186.5,-1606 1186.5,-811 612,-811"/>
<text text-anchor="middle" x="899.25" y="-1590.8" font-family="Times New Roman,serif" font-size="14.00">btree(t=3)</text>
</g>
<g id="clust13" class="cluster"><title>cluster_add_root_13</title>
<polygon fill="none" stroke="black" points="620,-1105 620,-1288 932,-1288 932,-1105 620,-1105"/>
<text text-anchor="middle" x="776" y="-1272.8" font-family="Times New Roman,serif" font-size="14.00">root: bnode</text>
</g>
<g id="clust14" class="cluster"><title>cluster_add_node_1_1_13</title>
<polygon fill="none" stroke="black" points="1061.5,-819 1061.5,-1002 1154.5,-1002 1154.5,-819 1061.5,-819"/>
<text text-anchor="middle" x="1108" y="-986.8" font-family="Times New Roman,serif" font-size="14.00">node_1_1</text>
</g>
<g id="clust15" class="cluster"><title>cluster_add_node_1_2_13</title>
<polygon fill="none" stroke="black" points="1061.5,-1010 1061.5,-1193 1154.5,-1193 1154.5,-1010 1061.5,-1010"/>
<text text-anchor="middle" x="1108" y="-1177.8" font-family="Times New Roman,serif" font-size="14.00">node_1_2</text>
</g>
<g id="clust16" class="cluster"><title>cluster_add_node_1_3_13</title>
<polygon fill="none" stroke="black" points="1061.5,-1201 1061.5,-1384 1154.5,-1384 1154.5,-1201 1061.5,-1201"/>
<text text-anchor="middle" x="1108" y="-1368.8" font-family="Times New Roman,serif" font-size="14.00">node_1_3</text>
</g>
<g id="clust17" class="cluster"><title>cluster_add_node_1_4_13</title>
<polygon fill="none" stroke="black" points="1037.5,-1392 1037.5,-1575 1178.5,-1575 1178.5,-1392 1037.5,-1392"/>
<text text-anchor="middle" x="1108" y="-1559.8" font-family="Times New Roman,serif" font-size="14.00">node_1_4</text>
</g>
<g id="clust18" class="cluster"><title>cluster_tree_root_14</title>
<polygon fill="none" stroke="black" points="944,-8 944,-803 1450,-803 1450,-8 944,-8"/>
<text text-anchor="middle" x="1197" y="-787.8" font-family="Times New Roman,serif" font-size="14.00">btree(t=3)</text>
</g>
<g id="clust20" class="cluster"><title>cluster_add_node_1_1_14</title>
<polygon fill="none" stroke="black" points="1316.5,-16 1316.5,-199 1409.5,-199 1409.5,-16 1316.5,-16"/>
<text text-anchor="middle" x="1363" y="-183.8" font-family="Times New Roman,serif" font-size="14.00">node_1_1</text>
</g>
<g id="clust21" class="cluster"><title>cluster_add_node_1_2_14</title>
<polygon fill="none" stroke="black" points="1316.5,-207 1316.5,-390 1409.5,-390 1409.5,-207 1316.5,-207"/>
<text text-anchor="middle" x="1363" y="-374.8" font-family="Times New Roman,serif" font-size="14.00">node_1_2</text>
</g>
<g id="clust23" class="cluster"><title>cluster_add_node_1_4_14</title>
<polygon fill="none" stroke="black" points="1284,-589 1284,-772 1442,-772 1442,-589 1284,-589"/>
<text text-anchor="middle" x="1363" y="-756.8" font-family="Times New Roman,serif" font-size="14.00">node_1_4</text>
</g>
<g id="clust22" class="cluster"><title>cluster_add_node_1_3_14</title>
<polygon fill="none" stroke="black" points="1316.5,-398 1316.5,-581 1409.5,-581 1409.5,-398 1316.5,-398"/>
<text text-anchor="middle" x="1363" y="-565.8" font-family="Times New Roman,serif" font-size="14.00">node_1_3</text>
</g>
<g id="clust19" class="cluster"><title>cluster_add_root_14</title>
<polygon fill="none" stroke="black" points="952,-398 952,-581 1264,-581 1264,-398 952,-398"/>
<text text-anchor="middle" x="1108" y="-565.8" font-family="Times New Roman,serif" font-size="14.00">root: bnode</text>
</g>
<!-- keys=[3]_11 -->
<g id="node1" class="node"><title>keys=[3]_11</title>
<text text-anchor="middle" x="142" y="-2746.3" font-family="Times New Roman,serif" font-size="14.00">keys=[3,6]</text>
</g>
<!-- c_add_node_root_s_11 -->
<g id="node2" class="node"><title>c_add_node_root_s_11</title>
<text text-anchor="middle" x="142" y="-2692.3" font-family="Times New Roman,serif" font-size="14.00">sons=[node_1_1,node_1_2,node_1_3]</text>
</g>
<!-- empty_node_root_11 -->
<g id="node3" class="node"><title>empty_node_root_11</title>
</g>
<!-- empty_node_1_1_11 -->
<g id="node6" class="node"><title>empty_node_1_1_11</title>
</g>
<!-- empty_node_root_11&#45;&gt;empty_node_1_1_11 -->
<g id="edge1" class="edge"><title>empty_node_root_11&#45;&gt;empty_node_1_1_11</title>
<path fill="none" stroke="black" d="M169.077,-2645.74C197.818,-2648.24 243.25,-2647.08 268,-2620 289.364,-2596.62 258.519,-2501.27 280,-2478 311.746,-2443.61 369.238,-2442.09 406.762,-2445.51"/>
<polygon fill="black" stroke="black" points="406.462,-2449 416.778,-2446.58 407.207,-2442.04 406.462,-2449"/>
</g>
<!-- empty_node_1_2_11 -->
<g id="node9" class="node"><title>empty_node_1_2_11</title>
</g>
<!-- empty_node_root_11&#45;&gt;empty_node_1_2_11 -->
<g id="edge2" class="edge"><title>empty_node_root_11&#45;&gt;empty_node_1_2_11</title>
<path fill="none" stroke="black" d="M169.098,-2642C222.621,-2642 344.937,-2642 406.369,-2642"/>
<polygon fill="black" stroke="black" points="406.749,-2645.5 416.748,-2642 406.748,-2638.5 406.749,-2645.5"/>
</g>
<!-- empty_node_1_3_11 -->
<g id="node12" class="node"><title>empty_node_1_3_11</title>
</g>
<!-- empty_node_root_11&#45;&gt;empty_node_1_3_11 -->
<g id="edge3" class="edge"><title>empty_node_root_11&#45;&gt;empty_node_1_3_11</title>
<path fill="none" stroke="black" d="M169.177,-2639.44C198.009,-2638.21 243.523,-2641.3 268,-2669 287.796,-2691.4 259.862,-2780.9 280,-2803 311.623,-2837.7 369.149,-2840.35 406.713,-2837.72"/>
<polygon fill="black" stroke="black" points="407.078,-2841.2 416.741,-2836.85 406.478,-2834.22 407.078,-2841.2"/>
</g>
<!-- keys_1_211 -->
<g id="node4" class="node"><title>keys_1_211</title>
<text text-anchor="middle" x="444" y="-2555.3" font-family="Times New Roman,serif" font-size="14.00">keys=[1,2]</text>
</g>
<!-- c_add_node_1_1_s_11 -->
<g id="node5" class="node"><title>c_add_node_1_1_s_11</title>
<text text-anchor="middle" x="444" y="-2501.3" font-family="Times New Roman,serif" font-size="14.00">sons=[]</text>
</g>
<!-- keys_4_511 -->
<g id="node7" class="node"><title>keys_4_511</title>
<text text-anchor="middle" x="444" y="-2746.3" font-family="Times New Roman,serif" font-size="14.00">keys=[4,5]</text>
</g>
<!-- c_add_node_1_2_s_11 -->
<g id="node8" class="node"><title>c_add_node_1_2_s_11</title>
<text text-anchor="middle" x="444" y="-2692.3" font-family="Times New Roman,serif" font-size="14.00">sons=[]</text>
</g>
<!-- keys=[7,8,9,10,11] -->
<g id="node10" class="node"><title>keys=[7,8,9,10,11]</title>
<text text-anchor="middle" x="444" y="-2937.3" font-family="Times New Roman,serif" font-size="14.00">keys=[7,8,9,10,11]</text>
</g>
<!-- c_add_node_1_3_s_11 -->
<g id="node11" class="node"><title>c_add_node_1_3_s_11</title>
<text text-anchor="middle" x="444" y="-2883.3" font-family="Times New Roman,serif" font-size="14.00">sons=[]</text>
</g>
<!-- tag__2 -->
<g id="node13" class="node"><title>tag__2</title>
</g>
<!-- tag__3 -->
<g id="node29" class="node"><title>tag__3</title>
</g>
<!-- tag__2&#45;&gt;tag__3 -->
<g id="edge16" class="edge"><title>tag__2&#45;&gt;tag__3</title>
<path fill="none" stroke="black" d="M142.802,-2424.6C142.924,-2351.11 152.225,-2074.29 280,-1904 312.298,-1860.96 370.029,-1833.68 407.403,-1819.63"/>
<polygon fill="black" stroke="black" points="408.7,-1822.88 416.903,-1816.18 406.309,-1816.3 408.7,-1822.88"/>
</g>
<!-- keys=[3]_12 -->
<g id="node14" class="node"><title>keys=[3]_12</title>
<text text-anchor="middle" x="444" y="-2038.3" font-family="Times New Roman,serif" font-size="14.00">keys=[3,6,9]</text>
</g>
<!-- c_add_node_root_s_12 -->
<g id="node15" class="node"><title>c_add_node_root_s_12</title>
<text text-anchor="middle" x="444" y="-1984.3" font-family="Times New Roman,serif" font-size="14.00">sons=[node_1_1,node_1_2,node_1_3,node_1_4]</text>
</g>
<!-- empty_node_root_12 -->
<g id="node16" class="node"><title>empty_node_root_12</title>
</g>
<!-- empty_node_1_1_12 -->
<g id="node19" class="node"><title>empty_node_1_1_12</title>
</g>
<!-- empty_node_root_12&#45;&gt;empty_node_1_1_12 -->
<g id="edge4" class="edge"><title>empty_node_root_12&#45;&gt;empty_node_1_1_12</title>
<path fill="none" stroke="black" d="M471.2,-1939.2C506.227,-1944.46 567.646,-1947.42 600,-1912 635.566,-1873.06 576.888,-1714.34 612,-1675 643.249,-1639.98 701.137,-1638.7 738.848,-1642.33"/>
<polygon fill="black" stroke="black" points="738.582,-1645.82 748.91,-1643.46 739.364,-1638.87 738.582,-1645.82"/>
</g>
<!-- empty_node_1_2_12 -->
<g id="node22" class="node"><title>empty_node_1_2_12</title>
</g>
<!-- empty_node_root_12&#45;&gt;empty_node_1_2_12 -->
<g id="edge5" class="edge"><title>empty_node_root_12&#45;&gt;empty_node_1_2_12</title>
<path fill="none" stroke="black" d="M471.072,-1938.29C505.105,-1942.31 564.503,-1943.66 600,-1912 615.768,-1897.94 596.396,-1880.24 612,-1866 646.128,-1834.85 701.852,-1832.21 738.477,-1834.54"/>
<polygon fill="black" stroke="black" points="738.48,-1838.05 748.725,-1835.35 739.033,-1831.07 738.48,-1838.05"/>
</g>
<!-- empty_node_1_3_12 -->
<g id="node25" class="node"><title>empty_node_1_3_12</title>
</g>
<!-- empty_node_root_12&#45;&gt;empty_node_1_3_12 -->
<g id="edge6" class="edge"><title>empty_node_root_12&#45;&gt;empty_node_1_3_12</title>
<path fill="none" stroke="black" d="M471.253,-1930.88C505.213,-1928.39 564.24,-1929.49 600,-1961 613.606,-1972.99 598.452,-1987.94 612,-2000 646.63,-2030.81 702.224,-2034.73 738.684,-2033.39"/>
<polygon fill="black" stroke="black" points="739.077,-2036.88 748.883,-2032.86 738.715,-2029.89 739.077,-2036.88"/>
</g>
<!-- empty_node_1_4_12 -->
<g id="node28" class="node"><title>empty_node_1_4_12</title>
</g>
<!-- empty_node_root_12&#45;&gt;empty_node_1_4_12 -->
<g id="edge7" class="edge"><title>empty_node_root_12&#45;&gt;empty_node_1_4_12</title>
<path fill="none" stroke="black" d="M471.01,-1929.79C506.111,-1925.76 567.931,-1924.82 600,-1961 633.948,-1999.3 578.235,-2152.54 612,-2191 643.059,-2226.38 701,-2228.79 738.774,-2225.92"/>
<polygon fill="black" stroke="black" points="739.216,-2229.4 748.854,-2225 738.575,-2222.43 739.216,-2229.4"/>
</g>
<!-- keys_1_212 -->
<g id="node17" class="node"><title>keys_1_212</title>
<text text-anchor="middle" x="776" y="-1752.3" font-family="Times New Roman,serif" font-size="14.00">keys=[1,2]</text>
</g>
<!-- c_add_node_1_1_s_12 -->
<g id="node18" class="node"><title>c_add_node_1_1_s_12</title>
<text text-anchor="middle" x="776" y="-1698.3" font-family="Times New Roman,serif" font-size="14.00">sons=[]</text>
</g>
<!-- keys_4_512 -->
<g id="node20" class="node"><title>keys_4_512</title>
<text text-anchor="middle" x="776" y="-1943.3" font-family="Times New Roman,serif" font-size="14.00">keys=[4,5]</text>
</g>
<!-- c_add_node_1_2_s_12 -->
<g id="node21" class="node"><title>c_add_node_1_2_s_12</title>
<text text-anchor="middle" x="776" y="-1889.3" font-family="Times New Roman,serif" font-size="14.00">sons=[]</text>
</g>
<!-- keys_7_812 -->
<g id="node23" class="node"><title>keys_7_812</title>
<text text-anchor="middle" x="776" y="-2134.3" font-family="Times New Roman,serif" font-size="14.00">keys=[7,8]</text>
</g>
<!-- c_add_node_1_3_s_12 -->
<g id="node24" class="node"><title>c_add_node_1_3_s_12</title>
<text text-anchor="middle" x="776" y="-2080.3" font-family="Times New Roman,serif" font-size="14.00">sons=[]</text>
</g>
<!-- keys=[10,11,12] -->
<g id="node26" class="node"><title>keys=[10,11,12]</title>
<text text-anchor="middle" x="776" y="-2325.3" font-family="Times New Roman,serif" font-size="14.00">keys=[10,11,12]</text>
</g>
<!-- c_add_node_1_4_s_12 -->
<g id="node27" class="node"><title>c_add_node_1_4_s_12</title>
<text text-anchor="middle" x="776" y="-2271.3" font-family="Times New Roman,serif" font-size="14.00">sons=[]</text>
</g>
<!-- tag__4 -->
<g id="node45" class="node"><title>tag__4</title>
</g>
<!-- tag__3&#45;&gt;tag__4 -->
<g id="edge17" class="edge"><title>tag__3&#45;&gt;tag__4</title>
<path fill="none" stroke="black" d="M447.322,-1789.94C460.294,-1691.25 526.312,-1217.24 612,-1101 643.932,-1057.68 701.766,-1030.49 739.261,-1016.52"/>
<polygon fill="black" stroke="black" points="740.568,-1019.77 748.793,-1013.09 738.199,-1013.19 740.568,-1019.77"/>
</g>
<!-- keys=[3]_13 -->
<g id="node30" class="node"><title>keys=[3]_13</title>
<text text-anchor="middle" x="776" y="-1235.3" font-family="Times New Roman,serif" font-size="14.00">keys=[3,6,9]</text>
</g>
<!-- c_add_node_root_s_13 -->
<g id="node31" class="node"><title>c_add_node_root_s_13</title>
<text text-anchor="middle" x="776" y="-1181.3" font-family="Times New Roman,serif" font-size="14.00">sons=[node_1_1,node_1_2,node_1_3,node_1_4]</text>
</g>
<!-- empty_node_root_13 -->
<g id="node32" class="node"><title>empty_node_root_13</title>
</g>
<!-- empty_node_1_1_13 -->
<g id="node35" class="node"><title>empty_node_1_1_13</title>
</g>
<!-- empty_node_root_13&#45;&gt;empty_node_1_1_13 -->
<g id="edge8" class="edge"><title>empty_node_root_13&#45;&gt;empty_node_1_1_13</title>
<path fill="none" stroke="black" d="M803.2,-1136.2C838.227,-1141.46 899.646,-1144.42 932,-1109 967.566,-1070.06 908.888,-911.345 944,-872 975.249,-836.984 1033.14,-835.698 1070.85,-839.331"/>
<polygon fill="black" stroke="black" points="1070.58,-842.823 1080.91,-840.461 1071.36,-835.866 1070.58,-842.823"/>
</g>
<!-- empty_node_1_2_13 -->
<g id="node38" class="node"><title>empty_node_1_2_13</title>
</g>
<!-- empty_node_root_13&#45;&gt;empty_node_1_2_13 -->
<g id="edge9" class="edge"><title>empty_node_root_13&#45;&gt;empty_node_1_2_13</title>
<path fill="none" stroke="black" d="M803.072,-1135.29C837.105,-1139.31 896.503,-1140.66 932,-1109 947.768,-1094.94 928.396,-1077.24 944,-1063 978.128,-1031.85 1033.85,-1029.21 1070.48,-1031.54"/>
<polygon fill="black" stroke="black" points="1070.48,-1035.05 1080.73,-1032.35 1071.03,-1028.07 1070.48,-1035.05"/>
</g>
<!-- empty_node_1_3_13 -->
<g id="node41" class="node"><title>empty_node_1_3_13</title>
</g>
<!-- empty_node_root_13&#45;&gt;empty_node_1_3_13 -->
<g id="edge10" class="edge"><title>empty_node_root_13&#45;&gt;empty_node_1_3_13</title>
<path fill="none" stroke="black" d="M803.253,-1127.88C837.213,-1125.39 896.24,-1126.49 932,-1158 945.606,-1169.99 930.452,-1184.94 944,-1197 978.63,-1227.81 1034.22,-1231.73 1070.68,-1230.39"/>
<polygon fill="black" stroke="black" points="1071.08,-1233.88 1080.88,-1229.86 1070.72,-1226.89 1071.08,-1233.88"/>
</g>
<!-- empty_node_1_4_13 -->
<g id="node44" class="node"><title>empty_node_1_4_13</title>
</g>
<!-- empty_node_root_13&#45;&gt;empty_node_1_4_13 -->
<g id="edge11" class="edge"><title>empty_node_root_13&#45;&gt;empty_node_1_4_13</title>
<path fill="none" stroke="black" d="M803.01,-1126.79C838.111,-1122.76 899.931,-1121.82 932,-1158 965.948,-1196.3 910.235,-1349.54 944,-1388 975.059,-1423.38 1033,-1425.79 1070.77,-1422.92"/>
<polygon fill="black" stroke="black" points="1071.22,-1426.4 1080.85,-1422 1070.58,-1419.43 1071.22,-1426.4"/>
</g>
<!-- keys_1_213 -->
<g id="node33" class="node"><title>keys_1_213</title>
<text text-anchor="middle" x="1108" y="-949.3" font-family="Times New Roman,serif" font-size="14.00">keys=[1,2]</text>
</g>
<!-- c_add_node_1_1_s_13 -->
<g id="node34" class="node"><title>c_add_node_1_1_s_13</title>
<text text-anchor="middle" x="1108" y="-895.3" font-family="Times New Roman,serif" font-size="14.00">sons=[]</text>
</g>
<!-- keys_4_513 -->
<g id="node36" class="node"><title>keys_4_513</title>
<text text-anchor="middle" x="1108" y="-1140.3" font-family="Times New Roman,serif" font-size="14.00">keys=[4,5]</text>
</g>
<!-- c_add_node_1_2_s_13 -->
<g id="node37" class="node"><title>c_add_node_1_2_s_13</title>
<text text-anchor="middle" x="1108" y="-1086.3" font-family="Times New Roman,serif" font-size="14.00">sons=[]</text>
</g>
<!-- keys_7_813 -->
<g id="node39" class="node"><title>keys_7_813</title>
<text text-anchor="middle" x="1108" y="-1331.3" font-family="Times New Roman,serif" font-size="14.00">keys=[7,8]</text>
</g>
<!-- c_add_node_1_3_s_13 -->
<g id="node40" class="node"><title>c_add_node_1_3_s_13</title>
<text text-anchor="middle" x="1108" y="-1277.3" font-family="Times New Roman,serif" font-size="14.00">sons=[]</text>
</g>
<!-- keys=[10,11,12,13] -->
<g id="node42" class="node"><title>keys=[10,11,12,13]</title>
<text text-anchor="middle" x="1108" y="-1522.3" font-family="Times New Roman,serif" font-size="14.00">keys=[10,11,12,13]</text>
</g>
<!-- c_add_node_1_4_s_13 -->
<g id="node43" class="node"><title>c_add_node_1_4_s_13</title>
<text text-anchor="middle" x="1108" y="-1468.3" font-family="Times New Roman,serif" font-size="14.00">sons=[]</text>
</g>
<!-- tag__5 -->
<g id="node61" class="node"><title>tag__5</title>
</g>
<!-- tag__4&#45;&gt;tag__5 -->
<g id="edge18" class="edge"><title>tag__4&#45;&gt;tag__5</title>
<path fill="none" stroke="black" d="M779.307,-986.748C791.399,-894.083 850.482,-476.867 944,-394 978.488,-363.44 1034.12,-361.838 1070.63,-364.85"/>
<polygon fill="black" stroke="black" points="1070.54,-368.359 1080.84,-365.853 1071.23,-361.392 1070.54,-368.359"/>
</g>
<!-- keys=[3]_14 -->
<g id="node46" class="node"><title>keys=[3]_14</title>
<text text-anchor="middle" x="1108" y="-528.3" font-family="Times New Roman,serif" font-size="14.00">keys=[3,6,9]</text>
</g>
<!-- c_add_node_root_s_14 -->
<g id="node47" class="node"><title>c_add_node_root_s_14</title>
<text text-anchor="middle" x="1108" y="-474.3" font-family="Times New Roman,serif" font-size="14.00">sons=[node_1_1,node_1_2,node_1_3,node_1_4]</text>
</g>
<!-- empty_node_root_14 -->
<g id="node48" class="node"><title>empty_node_root_14</title>
</g>
<!-- empty_node_1_1_14 -->
<g id="node51" class="node"><title>empty_node_1_1_14</title>
</g>
<!-- empty_node_root_14&#45;&gt;empty_node_1_1_14 -->
<g id="edge12" class="edge"><title>empty_node_root_14&#45;&gt;empty_node_1_1_14</title>
<path fill="none" stroke="black" d="M1135.15,-429.156C1170.12,-434.362 1231.48,-437.267 1264,-402 1314.25,-347.5 1239.21,-128.071 1284,-69 1293.94,-55.8865 1310.66,-49.1049 1326.08,-45.6132"/>
<polygon fill="black" stroke="black" points="1326.75,-49.0476 1335.93,-43.7603 1325.46,-42.1681 1326.75,-49.0476"/>
</g>
<!-- empty_node_1_2_14 -->
<g id="node54" class="node"><title>empty_node_1_2_14</title>
</g>
<!-- empty_node_root_14&#45;&gt;empty_node_1_2_14 -->
<g id="edge13" class="edge"><title>empty_node_root_14&#45;&gt;empty_node_1_2_14</title>
<path fill="none" stroke="black" d="M1135.05,-428.812C1169.61,-433.55 1230.19,-435.843 1264,-402 1309.04,-356.909 1243.49,-309.206 1284,-260 1294.29,-247.505 1310.68,-240.78 1325.78,-237.166"/>
<polygon fill="black" stroke="black" points="1326.83,-240.525 1335.95,-235.128 1325.45,-233.662 1326.83,-240.525"/>
</g>
<!-- empty_node_1_3_14 -->
<g id="node57" class="node"><title>empty_node_1_3_14</title>
</g>
<!-- empty_node_root_14&#45;&gt;empty_node_1_3_14 -->
<g id="edge14" class="edge"><title>empty_node_root_14&#45;&gt;empty_node_1_3_14</title>
<path fill="none" stroke="black" d="M1135.12,-424C1180.48,-424 1273.88,-424 1325.58,-424"/>
<polygon fill="black" stroke="black" points="1325.64,-427.5 1335.64,-424 1325.64,-420.5 1325.64,-427.5"/>
</g>
<!-- empty_node_1_4_14 -->
<g id="node60" class="node"><title>empty_node_1_4_14</title>
</g>
<!-- empty_node_root_14&#45;&gt;empty_node_1_4_14 -->
<g id="edge15" class="edge"><title>empty_node_root_14&#45;&gt;empty_node_1_4_14</title>
<path fill="none" stroke="black" d="M1135.11,-420.183C1169.75,-416.736 1230.42,-416.596 1264,-451 1306.06,-494.093 1246.33,-538.023 1284,-585 1294.35,-597.906 1310.95,-605.267 1326.19,-609.462"/>
<polygon fill="black" stroke="black" points="1325.38,-612.868 1335.92,-611.788 1327.01,-606.059 1325.38,-612.868"/>
</g>
<!-- keys_1_214 -->
<g id="node49" class="node"><title>keys_1_214</title>
<text text-anchor="middle" x="1363" y="-146.3" font-family="Times New Roman,serif" font-size="14.00">keys=[1,2]</text>
</g>
<!-- c_add_node_1_1_s_14 -->
<g id="node50" class="node"><title>c_add_node_1_1_s_14</title>
<text text-anchor="middle" x="1363" y="-92.3" font-family="Times New Roman,serif" font-size="14.00">sons=[]</text>
</g>
<!-- keys_4_514 -->
<g id="node52" class="node"><title>keys_4_514</title>
<text text-anchor="middle" x="1363" y="-337.3" font-family="Times New Roman,serif" font-size="14.00">keys=[4,5]</text>
</g>
<!-- c_add_node_1_2_s_14 -->
<g id="node53" class="node"><title>c_add_node_1_2_s_14</title>
<text text-anchor="middle" x="1363" y="-283.3" font-family="Times New Roman,serif" font-size="14.00">sons=[]</text>
</g>
<!-- keys_7_814 -->
<g id="node55" class="node"><title>keys_7_814</title>
<text text-anchor="middle" x="1363" y="-528.3" font-family="Times New Roman,serif" font-size="14.00">keys=[7,8]</text>
</g>
<!-- c_add_node_1_3_s_14 -->
<g id="node56" class="node"><title>c_add_node_1_3_s_14</title>
<text text-anchor="middle" x="1363" y="-474.3" font-family="Times New Roman,serif" font-size="14.00">sons=[]</text>
</g>
<!-- keys=[10,11,12,13,14] -->
<g id="node58" class="node"><title>keys=[10,11,12,13,14]</title>
<text text-anchor="middle" x="1363" y="-719.3" font-family="Times New Roman,serif" font-size="14.00">keys=[10,11,12,13,14]</text>
</g>
<!-- c_add_node_1_4_s_14 -->
<g id="node59" class="node"><title>c_add_node_1_4_s_14</title>
<text text-anchor="middle" x="1363" y="-665.3" font-family="Times New Roman,serif" font-size="14.00">sons=[]</text>
</g>
</g>
</svg>
