<?xml version="1.0" encoding="UTF-8" standalone="no"?>
<!DOCTYPE svg PUBLIC "-//W3C//DTD SVG 1.1//EN"
 "http://www.w3.org/Graphics/SVG/1.1/DTD/svg11.dtd">
<!-- Generated by graphviz version 2.38.0 (20140413.2041)
 -->
<!-- Title: %3 Pages: 1 -->
<svg width="1492pt" height="3571pt"
 viewBox="0.00 0.00 1492.00 3571.00" xmlns="http://www.w3.org/2000/svg" xmlns:xlink="http://www.w3.org/1999/xlink">
<g id="graph0" class="graph" transform="scale(1 1) rotate(0) translate(4 3567)">
<title>%3</title>
<polygon fill="white" stroke="none" points="-4,4 -4,-3567 1488,-3567 1488,4 -4,4"/>
<g id="clust1" class="cluster"><title>cluster_tree_root_18</title>
<polygon fill="none" stroke="black" points="8,-2378 8,-3555 633.5,-3555 633.5,-2378 8,-2378"/>
<text text-anchor="middle" x="320.75" y="-3539.8" font-family="Times New Roman,serif" font-size="14.00">btree(t=3)</text>
</g>
<g id="clust3" class="cluster"><title>cluster_add_node_1_1_18</title>
<polygon fill="none" stroke="black" points="517.5,-2386 517.5,-2569 610.5,-2569 610.5,-2386 517.5,-2386"/>
<text text-anchor="middle" x="564" y="-2553.8" font-family="Times New Roman,serif" font-size="14.00">node_1_1</text>
</g>
<g id="clust2" class="cluster"><title>cluster_add_root_18</title>
<polygon fill="none" stroke="black" points="16,-2863 16,-3046 448,-3046 448,-2863 16,-2863"/>
<text text-anchor="middle" x="232" y="-3030.8" font-family="Times New Roman,serif" font-size="14.00">root: bnode</text>
</g>
<g id="clust4" class="cluster"><title>cluster_add_node_1_2_18</title>
<polygon fill="none" stroke="black" points="517.5,-2577 517.5,-2760 610.5,-2760 610.5,-2577 517.5,-2577"/>
<text text-anchor="middle" x="564" y="-2744.8" font-family="Times New Roman,serif" font-size="14.00">node_1_2</text>
</g>
<g id="clust5" class="cluster"><title>cluster_add_node_1_3_18</title>
<polygon fill="none" stroke="black" points="517.5,-2768 517.5,-2951 610.5,-2951 610.5,-2768 517.5,-2768"/>
<text text-anchor="middle" x="564" y="-2935.8" font-family="Times New Roman,serif" font-size="14.00">node_1_3</text>
</g>
<g id="clust6" class="cluster"><title>cluster_add_node_1_4_18</title>
<polygon fill="none" stroke="black" points="511,-2959 511,-3142 617,-3142 617,-2959 511,-2959"/>
<text text-anchor="middle" x="564" y="-3126.8" font-family="Times New Roman,serif" font-size="14.00">node_1_4</text>
</g>
<g id="clust7" class="cluster"><title>cluster_add_node_1_5_18</title>
<polygon fill="none" stroke="black" points="511,-3150 511,-3333 617,-3333 617,-3150 511,-3150"/>
<text text-anchor="middle" x="564" y="-3317.8" font-family="Times New Roman,serif" font-size="14.00">node_1_5</text>
</g>
<g id="clust8" class="cluster"><title>cluster_add_node_1_6_18</title>
<polygon fill="none" stroke="black" points="502.5,-3341 502.5,-3524 625.5,-3524 625.5,-3341 502.5,-3341"/>
<text text-anchor="middle" x="564" y="-3508.8" font-family="Times New Roman,serif" font-size="14.00">node_1_6</text>
</g>
<g id="clust9" class="cluster"><title>cluster_tree_root_19</title>
<polygon fill="none" stroke="black" points="460,-1193 460,-2370 1221,-2370 1221,-1193 460,-1193"/>
<text text-anchor="middle" x="840.5" y="-2354.8" font-family="Times New Roman,serif" font-size="14.00">btree(t=3)</text>
</g>
<g id="clust10" class="cluster"><title>cluster_add_root_19</title>
<polygon fill="none" stroke="black" points="468,-1678 468,-1861 660,-1861 660,-1678 468,-1678"/>
<text text-anchor="middle" x="564" y="-1845.8" font-family="Times New Roman,serif" font-size="14.00">root: bnode</text>
</g>
<g id="clust11" class="cluster"><title>cluster_add_node_1_1_19</title>
<polygon fill="none" stroke="black" points="680,-1487 680,-1670 975,-1670 975,-1487 680,-1487"/>
<text text-anchor="middle" x="827.5" y="-1654.8" font-family="Times New Roman,serif" font-size="14.00">node_1_1</text>
</g>
<g id="clust12" class="cluster"><title>cluster_add_node_1_2_19</title>
<polygon fill="none" stroke="black" points="680,-1869 680,-2052 975,-2052 975,-1869 680,-1869"/>
<text text-anchor="middle" x="827.5" y="-2036.8" font-family="Times New Roman,serif" font-size="14.00">node_1_2</text>
</g>
<g id="clust13" class="cluster"><title>cluster_add_node_1_1_1_19</title>
<polygon fill="none" stroke="black" points="1096,-1201 1096,-1384 1189,-1384 1189,-1201 1096,-1201"/>
<text text-anchor="middle" x="1142.5" y="-1368.8" font-family="Times New Roman,serif" font-size="14.00">node_1_1_1</text>
</g>
<g id="clust18" class="cluster"><title>cluster_add_node_1_2_3_19</title>
<polygon fill="none" stroke="black" points="1072,-2156 1072,-2339 1213,-2339 1213,-2156 1072,-2156"/>
<text text-anchor="middle" x="1142.5" y="-2323.8" font-family="Times New Roman,serif" font-size="14.00">node_1_2_3</text>
</g>
<g id="clust16" class="cluster"><title>cluster_add_node_1_2_1_19</title>
<polygon fill="none" stroke="black" points="1089.5,-1774 1089.5,-1957 1195.5,-1957 1195.5,-1774 1089.5,-1774"/>
<text text-anchor="middle" x="1142.5" y="-1941.8" font-family="Times New Roman,serif" font-size="14.00">node_1_2_1</text>
</g>
<g id="clust14" class="cluster"><title>cluster_add_node_1_1_2_19</title>
<polygon fill="none" stroke="black" points="1096,-1392 1096,-1575 1189,-1575 1189,-1392 1096,-1392"/>
<text text-anchor="middle" x="1142.5" y="-1559.8" font-family="Times New Roman,serif" font-size="14.00">node_1_1_2</text>
</g>
<g id="clust15" class="cluster"><title>cluster_add_node_1_1_3_19</title>
<polygon fill="none" stroke="black" points="1096,-1583 1096,-1766 1189,-1766 1189,-1583 1096,-1583"/>
<text text-anchor="middle" x="1142.5" y="-1750.8" font-family="Times New Roman,serif" font-size="14.00">node_1_1_3</text>
</g>
<g id="clust17" class="cluster"><title>cluster_add_node_1_2_2_19</title>
<polygon fill="none" stroke="black" points="1089.5,-1965 1089.5,-2148 1195.5,-2148 1195.5,-1965 1089.5,-1965"/>
<text text-anchor="middle" x="1142.5" y="-2132.8" font-family="Times New Roman,serif" font-size="14.00">node_1_2_2</text>
</g>
<g id="clust19" class="cluster"><title>cluster_tree_root_20</title>
<polygon fill="none" stroke="black" points="723.5,-8 723.5,-1185 1476,-1185 1476,-8 723.5,-8"/>
<text text-anchor="middle" x="1099.75" y="-1169.8" font-family="Times New Roman,serif" font-size="14.00">btree(t=3)</text>
</g>
<g id="clust22" class="cluster"><title>cluster_add_node_1_2_20</title>
<polygon fill="none" stroke="black" points="995,-780 995,-963 1290,-963 1290,-780 995,-780"/>
<text text-anchor="middle" x="1142.5" y="-947.8" font-family="Times New Roman,serif" font-size="14.00">node_1_2</text>
</g>
<g id="clust24" class="cluster"><title>cluster_add_node_1_1_2_20</title>
<polygon fill="none" stroke="black" points="1342.5,-207 1342.5,-390 1435.5,-390 1435.5,-207 1342.5,-207"/>
<text text-anchor="middle" x="1389" y="-374.8" font-family="Times New Roman,serif" font-size="14.00">node_1_1_2</text>
</g>
<g id="clust21" class="cluster"><title>cluster_add_node_1_1_20</title>
<polygon fill="none" stroke="black" points="995,-303 995,-486 1290,-486 1290,-303 995,-303"/>
<text text-anchor="middle" x="1142.5" y="-470.8" font-family="Times New Roman,serif" font-size="14.00">node_1_1</text>
</g>
<g id="clust23" class="cluster"><title>cluster_add_node_1_1_1_20</title>
<polygon fill="none" stroke="black" points="1342.5,-16 1342.5,-199 1435.5,-199 1435.5,-16 1342.5,-16"/>
<text text-anchor="middle" x="1389" y="-183.8" font-family="Times New Roman,serif" font-size="14.00">node_1_1_1</text>
</g>
<g id="clust20" class="cluster"><title>cluster_add_root_20</title>
<polygon fill="none" stroke="black" points="731.5,-780 731.5,-963 923.5,-963 923.5,-780 731.5,-780"/>
<text text-anchor="middle" x="827.5" y="-947.8" font-family="Times New Roman,serif" font-size="14.00">root: bnode</text>
</g>
<g id="clust26" class="cluster"><title>cluster_add_node_1_2_1_20</title>
<polygon fill="none" stroke="black" points="1336,-589 1336,-772 1442,-772 1442,-589 1336,-589"/>
<text text-anchor="middle" x="1389" y="-756.8" font-family="Times New Roman,serif" font-size="14.00">node_1_2_1</text>
</g>
<g id="clust25" class="cluster"><title>cluster_add_node_1_1_3_20</title>
<polygon fill="none" stroke="black" points="1342.5,-398 1342.5,-581 1435.5,-581 1435.5,-398 1342.5,-398"/>
<text text-anchor="middle" x="1389" y="-565.8" font-family="Times New Roman,serif" font-size="14.00">node_1_1_3</text>
</g>
<g id="clust28" class="cluster"><title>cluster_add_node_1_2_3_20</title>
<polygon fill="none" stroke="black" points="1310,-971 1310,-1154 1468,-1154 1468,-971 1310,-971"/>
<text text-anchor="middle" x="1389" y="-1138.8" font-family="Times New Roman,serif" font-size="14.00">node_1_2_3</text>
</g>
<g id="clust27" class="cluster"><title>cluster_add_node_1_2_2_20</title>
<polygon fill="none" stroke="black" points="1336,-780 1336,-963 1442,-963 1442,-780 1336,-780"/>
<text text-anchor="middle" x="1389" y="-947.8" font-family="Times New Roman,serif" font-size="14.00">node_1_2_2</text>
</g>
<!-- keys=[3]_18 -->
<g id="node1" class="node"><title>keys=[3]_18</title>
<text text-anchor="middle" x="232" y="-2993.3" font-family="Times New Roman,serif" font-size="14.00">keys=[3,6,9,12,15]</text>
</g>
<!-- c_add_node_root_s_18 -->
<g id="node2" class="node"><title>c_add_node_root_s_18</title>
<text text-anchor="middle" x="232" y="-2939.3" font-family="Times New Roman,serif" font-size="14.00">sons=[node_1_1,node_1_2,node_1_3,node_1_4,node_1_5,node_1_6]</text>
</g>
<!-- empty_node_root_18 -->
<g id="node3" class="node"><title>empty_node_root_18</title>
</g>
<!-- empty_node_1_1_18 -->
<g id="node6" class="node"><title>empty_node_1_1_18</title>
</g>
<!-- empty_node_root_18&#45;&gt;empty_node_1_1_18 -->
<g id="edge1" class="edge"><title>empty_node_root_18&#45;&gt;empty_node_1_1_18</title>
<path fill="none" stroke="black" d="M259.191,-2895.86C305.054,-2906.12 399.615,-2919.1 448,-2867 480.374,-2832.14 430.411,-2476.25 460,-2439 475.654,-2419.29 503.79,-2412.91 526.704,-2411.25"/>
<polygon fill="black" stroke="black" points="526.971,-2414.74 536.801,-2410.79 526.652,-2407.75 526.971,-2414.74"/>
</g>
<!-- empty_node_1_2_18 -->
<g id="node9" class="node"><title>empty_node_1_2_18</title>
</g>
<!-- empty_node_root_18&#45;&gt;empty_node_1_2_18 -->
<g id="edge2" class="edge"><title>empty_node_root_18&#45;&gt;empty_node_1_2_18</title>
<path fill="none" stroke="black" d="M259.073,-2895.75C304.75,-2905.84 399.031,-2918.55 448,-2867 466.159,-2847.88 443.369,-2650.46 460,-2630 475.875,-2610.47 503.997,-2604.08 526.85,-2602.37"/>
<polygon fill="black" stroke="black" points="527.095,-2605.86 536.916,-2601.89 526.759,-2598.87 527.095,-2605.86"/>
</g>
<!-- empty_node_1_3_18 -->
<g id="node12" class="node"><title>empty_node_1_3_18</title>
</g>
<!-- empty_node_root_18&#45;&gt;empty_node_1_3_18 -->
<g id="edge3" class="edge"><title>empty_node_root_18&#45;&gt;empty_node_1_3_18</title>
<path fill="none" stroke="black" d="M259.115,-2894.89C303.6,-2903.26 394.45,-2912.92 448,-2867 464.04,-2853.25 445.069,-2835.95 460,-2821 477.368,-2803.61 504.475,-2797 526.522,-2794.66"/>
<polygon fill="black" stroke="black" points="526.873,-2798.15 536.557,-2793.85 526.307,-2791.17 526.873,-2798.15"/>
</g>
<!-- empty_node_1_4_18 -->
<g id="node15" class="node"><title>empty_node_1_4_18</title>
</g>
<!-- empty_node_root_18&#45;&gt;empty_node_1_4_18 -->
<g id="edge4" class="edge"><title>empty_node_root_18&#45;&gt;empty_node_1_4_18</title>
<path fill="none" stroke="black" d="M259.341,-2884.02C303.76,-2877.24 393.988,-2870.63 448,-2916 461.887,-2927.66 447.08,-2942.27 460,-2955 477.64,-2972.38 504.737,-2979.8 526.711,-2982.91"/>
<polygon fill="black" stroke="black" points="526.366,-2986.4 536.707,-2984.09 527.187,-2979.45 526.366,-2986.4"/>
</g>
<!-- empty_node_1_5_18 -->
<g id="node18" class="node"><title>empty_node_1_5_18</title>
</g>
<!-- empty_node_root_18&#45;&gt;empty_node_1_5_18 -->
<g id="edge5" class="edge"><title>empty_node_root_18&#45;&gt;empty_node_1_5_18</title>
<path fill="none" stroke="black" d="M259.16,-2882.95C304.973,-2874.08 399.459,-2863.79 448,-2916 465.425,-2934.74 444.114,-3125.94 460,-3146 475.742,-3165.88 503.873,-3173.1 526.762,-3175.5"/>
<polygon fill="black" stroke="black" points="526.603,-3179 536.847,-3176.3 527.152,-3172.02 526.603,-3179"/>
</g>
<!-- empty_node_1_6_18 -->
<g id="node21" class="node"><title>empty_node_1_6_18</title>
</g>
<!-- empty_node_root_18&#45;&gt;empty_node_1_6_18 -->
<g id="edge6" class="edge"><title>empty_node_root_18&#45;&gt;empty_node_1_6_18</title>
<path fill="none" stroke="black" d="M259.285,-2882.83C305.295,-2873.78 400.079,-2863.22 448,-2916 479.457,-2950.65 431.384,-3299.97 460,-3337 475.506,-3357.06 503.652,-3364.27 526.607,-3366.62"/>
<polygon fill="black" stroke="black" points="526.489,-3370.12 536.725,-3367.39 527.018,-3363.14 526.489,-3370.12"/>
</g>
<!-- keys_1_218 -->
<g id="node4" class="node"><title>keys_1_218</title>
<text text-anchor="middle" x="564" y="-2516.3" font-family="Times New Roman,serif" font-size="14.00">keys=[1,2]</text>
</g>
<!-- c_add_node_1_1_s_18 -->
<g id="node5" class="node"><title>c_add_node_1_1_s_18</title>
<text text-anchor="middle" x="564" y="-2462.3" font-family="Times New Roman,serif" font-size="14.00">sons=[]</text>
</g>
<!-- keys_4_518 -->
<g id="node7" class="node"><title>keys_4_518</title>
<text text-anchor="middle" x="564" y="-2707.3" font-family="Times New Roman,serif" font-size="14.00">keys=[4,5]</text>
</g>
<!-- c_add_node_1_2_s_18 -->
<g id="node8" class="node"><title>c_add_node_1_2_s_18</title>
<text text-anchor="middle" x="564" y="-2653.3" font-family="Times New Roman,serif" font-size="14.00">sons=[]</text>
</g>
<!-- keys_7_818 -->
<g id="node10" class="node"><title>keys_7_818</title>
<text text-anchor="middle" x="564" y="-2898.3" font-family="Times New Roman,serif" font-size="14.00">keys=[7,8]</text>
</g>
<!-- c_add_node_1_3_s_18 -->
<g id="node11" class="node"><title>c_add_node_1_3_s_18</title>
<text text-anchor="middle" x="564" y="-2844.3" font-family="Times New Roman,serif" font-size="14.00">sons=[]</text>
</g>
<!-- keys_10_1118 -->
<g id="node13" class="node"><title>keys_10_1118</title>
<text text-anchor="middle" x="564" y="-3089.3" font-family="Times New Roman,serif" font-size="14.00">keys=[10,11]</text>
</g>
<!-- c_add_node_1_4_s_18 -->
<g id="node14" class="node"><title>c_add_node_1_4_s_18</title>
<text text-anchor="middle" x="564" y="-3035.3" font-family="Times New Roman,serif" font-size="14.00">sons=[]</text>
</g>
<!-- keys_13_1418 -->
<g id="node16" class="node"><title>keys_13_1418</title>
<text text-anchor="middle" x="564" y="-3280.3" font-family="Times New Roman,serif" font-size="14.00">keys=[13,14]</text>
</g>
<!-- c_add_node_1_5_s_18 -->
<g id="node17" class="node"><title>c_add_node_1_5_s_18</title>
<text text-anchor="middle" x="564" y="-3226.3" font-family="Times New Roman,serif" font-size="14.00">sons=[]</text>
</g>
<!-- keys_16_1718 -->
<g id="node19" class="node"><title>keys_16_1718</title>
<text text-anchor="middle" x="564" y="-3471.3" font-family="Times New Roman,serif" font-size="14.00">keys=[16,17,18]</text>
</g>
<!-- c_add_node_1_6_s_18 -->
<g id="node20" class="node"><title>c_add_node_1_6_s_18</title>
<text text-anchor="middle" x="564" y="-3417.3" font-family="Times New Roman,serif" font-size="14.00">sons=[]</text>
</g>
<!-- tag__2 -->
<g id="node22" class="node"><title>tag__2</title>
</g>
<!-- tag__3 -->
<g id="node50" class="node"><title>tag__3</title>
</g>
<!-- tag__2&#45;&gt;tag__3 -->
<g id="edge23" class="edge"><title>tag__2&#45;&gt;tag__3</title>
<path fill="none" stroke="black" d="M237.845,-2385.98C260.209,-2303.4 356.772,-1953.15 460,-1674 488.919,-1595.8 529.669,-1506.14 550.165,-1462.19"/>
<polygon fill="black" stroke="black" points="553.385,-1463.57 554.453,-1453.02 547.045,-1460.6 553.385,-1463.57"/>
</g>
<!-- keys=[3]_19 -->
<g id="node23" class="node"><title>keys=[3]_19</title>
<text text-anchor="middle" x="564" y="-1808.3" font-family="Times New Roman,serif" font-size="14.00">keys=[9]</text>
</g>
<!-- c_add_node_root_s_19 -->
<g id="node24" class="node"><title>c_add_node_root_s_19</title>
<text text-anchor="middle" x="564" y="-1754.3" font-family="Times New Roman,serif" font-size="14.00">sons=[node_1_1,node_1_2]</text>
</g>
<!-- empty_node_root_19 -->
<g id="node25" class="node"><title>empty_node_root_19</title>
</g>
<!-- empty_node_1_1_19 -->
<g id="node28" class="node"><title>empty_node_1_1_19</title>
</g>
<!-- empty_node_root_19&#45;&gt;empty_node_1_1_19 -->
<g id="edge7" class="edge"><title>empty_node_root_19&#45;&gt;empty_node_1_1_19</title>
<path fill="none" stroke="black" d="M591.121,-1705.45C612.784,-1705.12 642.733,-1700.85 660,-1682 703.049,-1635 635.897,-1586.01 680,-1540 708.018,-1510.77 756.557,-1507.19 790.039,-1508.83"/>
<polygon fill="black" stroke="black" points="790.125,-1512.34 800.336,-1509.51 790.591,-1505.35 790.125,-1512.34"/>
</g>
<!-- empty_node_1_2_19 -->
<g id="node31" class="node"><title>empty_node_1_2_19</title>
</g>
<!-- empty_node_root_19&#45;&gt;empty_node_1_2_19 -->
<g id="edge8" class="edge"><title>empty_node_root_19&#45;&gt;empty_node_1_2_19</title>
<path fill="none" stroke="black" d="M591.389,-1707.85C611.272,-1711.58 638.664,-1718.57 660,-1731 722.484,-1767.39 778.661,-1832.59 807.031,-1868.86"/>
<polygon fill="black" stroke="black" points="804.427,-1871.21 813.307,-1876.99 809.969,-1866.93 804.427,-1871.21"/>
</g>
<!-- keys_3_619 -->
<g id="node26" class="node"><title>keys_3_619</title>
<text text-anchor="middle" x="827.5" y="-1617.3" font-family="Times New Roman,serif" font-size="14.00">keys=[3,6]</text>
</g>
<!-- c_add_node_1_1_s_19 -->
<g id="node27" class="node"><title>c_add_node_1_1_s_19</title>
<text text-anchor="middle" x="827.5" y="-1563.3" font-family="Times New Roman,serif" font-size="14.00">sons=[node_1_1_1,node_1_1_2,node_1_1_3]</text>
</g>
<!-- empty_node_1_1_1_19 -->
<g id="node34" class="node"><title>empty_node_1_1_1_19</title>
</g>
<!-- empty_node_1_1_19&#45;&gt;empty_node_1_1_1_19 -->
<g id="edge9" class="edge"><title>empty_node_1_1_19&#45;&gt;empty_node_1_1_1_19</title>
<path fill="none" stroke="black" d="M834.365,-1494.94C850.961,-1446.94 903.108,-1315.64 995,-1254 1027.8,-1232 1073.61,-1226.64 1105.23,-1225.89"/>
<polygon fill="black" stroke="black" points="1105.4,-1229.39 1115.37,-1225.8 1105.34,-1222.39 1105.4,-1229.39"/>
</g>
<!-- empty_node_1_1_2_19 -->
<g id="node37" class="node"><title>empty_node_1_1_2_19</title>
</g>
<!-- empty_node_1_1_19&#45;&gt;empty_node_1_1_2_19 -->
<g id="edge10" class="edge"><title>empty_node_1_1_19&#45;&gt;empty_node_1_1_2_19</title>
<path fill="none" stroke="black" d="M854.715,-1500.32C887.018,-1485.16 943.91,-1459.97 995,-1445 1031.97,-1434.17 1075.51,-1426.8 1105.46,-1422.53"/>
<polygon fill="black" stroke="black" points="1106.03,-1425.99 1115.45,-1421.15 1105.07,-1419.06 1106.03,-1425.99"/>
</g>
<!-- empty_node_1_1_3_19 -->
<g id="node40" class="node"><title>empty_node_1_1_3_19</title>
</g>
<!-- empty_node_1_1_19&#45;&gt;empty_node_1_1_3_19 -->
<g id="edge11" class="edge"><title>empty_node_1_1_19&#45;&gt;empty_node_1_1_3_19</title>
<path fill="none" stroke="black" d="M854.77,-1511.22C886.384,-1510.44 939.621,-1513.68 975,-1540 990.629,-1551.63 979.486,-1567.22 995,-1579 1026.77,-1603.12 1073.17,-1609.1 1105.2,-1610.02"/>
<polygon fill="black" stroke="black" points="1105.42,-1613.52 1115.47,-1610.15 1105.51,-1606.52 1105.42,-1613.52"/>
</g>
<!-- keys_12_1519 -->
<g id="node29" class="node"><title>keys_12_1519</title>
<text text-anchor="middle" x="827.5" y="-1999.3" font-family="Times New Roman,serif" font-size="14.00">keys=[12,15]</text>
</g>
<!-- c_add_node_1_2_s_19 -->
<g id="node30" class="node"><title>c_add_node_1_2_s_19</title>
<text text-anchor="middle" x="827.5" y="-1945.3" font-family="Times New Roman,serif" font-size="14.00">sons=[node_1_2_1,node_1_2_2,node_1_2_3]</text>
</g>
<!-- empty_node_1_2_1_19 -->
<g id="node43" class="node"><title>empty_node_1_2_1_19</title>
</g>
<!-- empty_node_1_2_19&#45;&gt;empty_node_1_2_1_19 -->
<g id="edge12" class="edge"><title>empty_node_1_2_19&#45;&gt;empty_node_1_2_1_19</title>
<path fill="none" stroke="black" d="M854.715,-1882.32C887.018,-1867.16 943.91,-1841.97 995,-1827 1031.97,-1816.17 1075.51,-1808.8 1105.46,-1804.53"/>
<polygon fill="black" stroke="black" points="1106.03,-1807.99 1115.45,-1803.15 1105.07,-1801.06 1106.03,-1807.99"/>
</g>
<!-- empty_node_1_2_2_19 -->
<g id="node46" class="node"><title>empty_node_1_2_2_19</title>
</g>
<!-- empty_node_1_2_19&#45;&gt;empty_node_1_2_2_19 -->
<g id="edge13" class="edge"><title>empty_node_1_2_19&#45;&gt;empty_node_1_2_2_19</title>
<path fill="none" stroke="black" d="M854.77,-1893.22C886.384,-1892.44 939.621,-1895.68 975,-1922 990.629,-1933.63 979.486,-1949.22 995,-1961 1026.77,-1985.12 1073.17,-1991.1 1105.2,-1992.02"/>
<polygon fill="black" stroke="black" points="1105.42,-1995.52 1115.47,-1992.15 1105.51,-1988.52 1105.42,-1995.52"/>
</g>
<!-- empty_node_1_2_3_19 -->
<g id="node49" class="node"><title>empty_node_1_2_3_19</title>
</g>
<!-- empty_node_1_2_19&#45;&gt;empty_node_1_2_3_19 -->
<g id="edge14" class="edge"><title>empty_node_1_2_19&#45;&gt;empty_node_1_2_3_19</title>
<path fill="none" stroke="black" d="M854.648,-1891.29C887.932,-1888.19 944.735,-1888.7 975,-1922 1009.5,-1959.97 960.872,-2113.69 995,-2152 1022.12,-2182.44 1071.08,-2186.82 1104.89,-2185.66"/>
<polygon fill="black" stroke="black" points="1105.48,-2189.14 1115.29,-2185.12 1105.12,-2182.15 1105.48,-2189.14"/>
</g>
<!-- keys_1_219 -->
<g id="node32" class="node"><title>keys_1_219</title>
<text text-anchor="middle" x="1142.5" y="-1331.3" font-family="Times New Roman,serif" font-size="14.00">keys=[1,2]</text>
</g>
<!-- c_add_node_1_1_1_s_19 -->
<g id="node33" class="node"><title>c_add_node_1_1_1_s_19</title>
<text text-anchor="middle" x="1142.5" y="-1277.3" font-family="Times New Roman,serif" font-size="14.00">sons=[]</text>
</g>
<!-- keys_4_519 -->
<g id="node35" class="node"><title>keys_4_519</title>
<text text-anchor="middle" x="1142.5" y="-1522.3" font-family="Times New Roman,serif" font-size="14.00">keys=[4,5]</text>
</g>
<!-- c_add_node_1_1_2_s_19 -->
<g id="node36" class="node"><title>c_add_node_1_1_2_s_19</title>
<text text-anchor="middle" x="1142.5" y="-1468.3" font-family="Times New Roman,serif" font-size="14.00">sons=[]</text>
</g>
<!-- keys_7_819 -->
<g id="node38" class="node"><title>keys_7_819</title>
<text text-anchor="middle" x="1142.5" y="-1713.3" font-family="Times New Roman,serif" font-size="14.00">keys=[7,8]</text>
</g>
<!-- c_add_node_1_1_3_s_19 -->
<g id="node39" class="node"><title>c_add_node_1_1_3_s_19</title>
<text text-anchor="middle" x="1142.5" y="-1659.3" font-family="Times New Roman,serif" font-size="14.00">sons=[]</text>
</g>
<!-- keys_10_1119 -->
<g id="node41" class="node"><title>keys_10_1119</title>
<text text-anchor="middle" x="1142.5" y="-1904.3" font-family="Times New Roman,serif" font-size="14.00">keys=[10,11]</text>
</g>
<!-- c_add_node_1_2_1_s_19 -->
<g id="node42" class="node"><title>c_add_node_1_2_1_s_19</title>
<text text-anchor="middle" x="1142.5" y="-1850.3" font-family="Times New Roman,serif" font-size="14.00">sons=[]</text>
</g>
<!-- keys_13_1419 -->
<g id="node44" class="node"><title>keys_13_1419</title>
<text text-anchor="middle" x="1142.5" y="-2095.3" font-family="Times New Roman,serif" font-size="14.00">keys=[13,14]</text>
</g>
<!-- c_add_node_1_2_2_s_19 -->
<g id="node45" class="node"><title>c_add_node_1_2_2_s_19</title>
<text text-anchor="middle" x="1142.5" y="-2041.3" font-family="Times New Roman,serif" font-size="14.00">sons=[]</text>
</g>
<!-- keys=[16,17,18,19] -->
<g id="node47" class="node"><title>keys=[16,17,18,19]</title>
<text text-anchor="middle" x="1142.5" y="-2286.3" font-family="Times New Roman,serif" font-size="14.00">keys=[16,17,18,19]</text>
</g>
<!-- c_add_node_1_2_3_s_19 -->
<g id="node48" class="node"><title>c_add_node_1_2_3_s_19</title>
<text text-anchor="middle" x="1142.5" y="-2232.3" font-family="Times New Roman,serif" font-size="14.00">sons=[]</text>
</g>
<!-- tag__4 -->
<g id="node78" class="node"><title>tag__4</title>
</g>
<!-- tag__3&#45;&gt;tag__4 -->
<g id="edge24" class="edge"><title>tag__3&#45;&gt;tag__4</title>
<path fill="none" stroke="black" d="M565.44,-1416.74C568.156,-1320.09 585.792,-869.234 680,-776 708.597,-747.699 756.792,-744.989 790.051,-747.183"/>
<polygon fill="black" stroke="black" points="790.023,-750.693 800.28,-748.042 790.608,-743.718 790.023,-750.693"/>
</g>
<!-- keys=[3]_20 -->
<g id="node51" class="node"><title>keys=[3]_20</title>
<text text-anchor="middle" x="827.5" y="-910.3" font-family="Times New Roman,serif" font-size="14.00">keys=[9]</text>
</g>
<!-- c_add_node_root_s_20 -->
<g id="node52" class="node"><title>c_add_node_root_s_20</title>
<text text-anchor="middle" x="827.5" y="-856.3" font-family="Times New Roman,serif" font-size="14.00">sons=[node_1_1,node_1_2]</text>
</g>
<!-- empty_node_root_20 -->
<g id="node53" class="node"><title>empty_node_root_20</title>
</g>
<!-- empty_node_1_1_20 -->
<g id="node56" class="node"><title>empty_node_1_1_20</title>
</g>
<!-- empty_node_root_20&#45;&gt;empty_node_1_1_20 -->
<g id="edge15" class="edge"><title>empty_node_root_20&#45;&gt;empty_node_1_1_20</title>
<path fill="none" stroke="black" d="M854.735,-810.9C888.112,-815.446 945.016,-817.221 975,-784 1006.9,-748.658 963.694,-391.866 995,-356 1021.89,-325.188 1071.47,-322.14 1105.43,-324.312"/>
<polygon fill="black" stroke="black" points="1105.18,-327.803 1115.43,-325.129 1105.75,-320.827 1105.18,-327.803"/>
</g>
<!-- empty_node_1_2_20 -->
<g id="node59" class="node"><title>empty_node_1_2_20</title>
</g>
<!-- empty_node_root_20&#45;&gt;empty_node_1_2_20 -->
<g id="edge16" class="edge"><title>empty_node_root_20&#45;&gt;empty_node_1_2_20</title>
<path fill="none" stroke="black" d="M854.648,-806C910.458,-806 1041.35,-806 1105.19,-806"/>
<polygon fill="black" stroke="black" points="1105.21,-809.5 1115.21,-806 1105.21,-802.5 1105.21,-809.5"/>
</g>
<!-- keys_3_620 -->
<g id="node54" class="node"><title>keys_3_620</title>
<text text-anchor="middle" x="1142.5" y="-433.3" font-family="Times New Roman,serif" font-size="14.00">keys=[3,6]</text>
</g>
<!-- c_add_node_1_1_s_20 -->
<g id="node55" class="node"><title>c_add_node_1_1_s_20</title>
<text text-anchor="middle" x="1142.5" y="-379.3" font-family="Times New Roman,serif" font-size="14.00">sons=[node_1_1_1,node_1_1_2,node_1_1_3]</text>
</g>
<!-- empty_node_1_1_1_20 -->
<g id="node62" class="node"><title>empty_node_1_1_1_20</title>
</g>
<!-- empty_node_1_1_20&#45;&gt;empty_node_1_1_1_20 -->
<g id="edge17" class="edge"><title>empty_node_1_1_20&#45;&gt;empty_node_1_1_1_20</title>
<path fill="none" stroke="black" d="M1150.15,-310.939C1168.31,-264.046 1223.26,-137.328 1310,-69 1322.05,-59.5096 1337.65,-53.2354 1351.74,-49.147"/>
<polygon fill="black" stroke="black" points="1352.87,-52.4684 1361.65,-46.5415 1351.09,-45.6983 1352.87,-52.4684"/>
</g>
<!-- empty_node_1_1_2_20 -->
<g id="node65" class="node"><title>empty_node_1_1_2_20</title>
</g>
<!-- empty_node_1_1_20&#45;&gt;empty_node_1_1_2_20 -->
<g id="edge18" class="edge"><title>empty_node_1_1_20&#45;&gt;empty_node_1_1_2_20</title>
<path fill="none" stroke="black" d="M1169.55,-317.639C1202.16,-303.548 1259.84,-279.057 1310,-260 1323.66,-254.809 1338.82,-249.468 1352.11,-244.921"/>
<polygon fill="black" stroke="black" points="1353.52,-248.142 1361.86,-241.614 1351.27,-241.513 1353.52,-248.142"/>
</g>
<!-- empty_node_1_1_3_20 -->
<g id="node68" class="node"><title>empty_node_1_1_3_20</title>
</g>
<!-- empty_node_1_1_20&#45;&gt;empty_node_1_1_3_20 -->
<g id="edge19" class="edge"><title>empty_node_1_1_20&#45;&gt;empty_node_1_1_3_20</title>
<path fill="none" stroke="black" d="M1169.72,-327.279C1201.29,-326.569 1254.48,-329.869 1290,-356 1305.37,-367.31 1295.74,-381.319 1310,-394 1321.81,-404.496 1337.68,-411.49 1352.02,-416.063"/>
<polygon fill="black" stroke="black" points="1351.06,-419.428 1361.64,-418.855 1353.01,-412.706 1351.06,-419.428"/>
</g>
<!-- keys_12_1520 -->
<g id="node57" class="node"><title>keys_12_1520</title>
<text text-anchor="middle" x="1142.5" y="-910.3" font-family="Times New Roman,serif" font-size="14.00">keys=[12,15]</text>
</g>
<!-- c_add_node_1_2_s_20 -->
<g id="node58" class="node"><title>c_add_node_1_2_s_20</title>
<text text-anchor="middle" x="1142.5" y="-856.3" font-family="Times New Roman,serif" font-size="14.00">sons=[node_1_2_1,node_1_2_2,node_1_2_3]</text>
</g>
<!-- empty_node_1_2_1_20 -->
<g id="node71" class="node"><title>empty_node_1_2_1_20</title>
</g>
<!-- empty_node_1_2_20&#45;&gt;empty_node_1_2_1_20 -->
<g id="edge20" class="edge"><title>empty_node_1_2_20&#45;&gt;empty_node_1_2_1_20</title>
<path fill="none" stroke="black" d="M1157.31,-787.818C1183.57,-754.42 1243.99,-682.979 1310,-642 1322.83,-634.033 1338.32,-628.049 1352.11,-623.766"/>
<polygon fill="black" stroke="black" points="1353.16,-627.105 1361.78,-620.944 1351.2,-620.385 1353.16,-627.105"/>
</g>
<!-- empty_node_1_2_2_20 -->
<g id="node74" class="node"><title>empty_node_1_2_2_20</title>
</g>
<!-- empty_node_1_2_20&#45;&gt;empty_node_1_2_2_20 -->
<g id="edge21" class="edge"><title>empty_node_1_2_20&#45;&gt;empty_node_1_2_2_20</title>
<path fill="none" stroke="black" d="M1169.67,-806C1213.49,-806 1301.8,-806 1351.63,-806"/>
<polygon fill="black" stroke="black" points="1351.65,-809.5 1361.65,-806 1351.65,-802.5 1351.65,-809.5"/>
</g>
<!-- empty_node_1_2_3_20 -->
<g id="node77" class="node"><title>empty_node_1_2_3_20</title>
</g>
<!-- empty_node_1_2_20&#45;&gt;empty_node_1_2_3_20 -->
<g id="edge22" class="edge"><title>empty_node_1_2_20&#45;&gt;empty_node_1_2_3_20</title>
<path fill="none" stroke="black" d="M1169.62,-802.552C1202.61,-799.802 1258.82,-800.735 1290,-833 1331.85,-876.298 1272.33,-920.023 1310,-967 1320.35,-979.906 1336.95,-987.267 1352.19,-991.462"/>
<polygon fill="black" stroke="black" points="1351.38,-994.868 1361.92,-993.788 1353.01,-988.059 1351.38,-994.868"/>
</g>
<!-- keys_1_220 -->
<g id="node60" class="node"><title>keys_1_220</title>
<text text-anchor="middle" x="1389" y="-146.3" font-family="Times New Roman,serif" font-size="14.00">keys=[1,2]</text>
</g>
<!-- c_add_node_1_1_1_s_20 -->
<g id="node61" class="node"><title>c_add_node_1_1_1_s_20</title>
<text text-anchor="middle" x="1389" y="-92.3" font-family="Times New Roman,serif" font-size="14.00">sons=[]</text>
</g>
<!-- keys_4_520 -->
<g id="node63" class="node"><title>keys_4_520</title>
<text text-anchor="middle" x="1389" y="-337.3" font-family="Times New Roman,serif" font-size="14.00">keys=[4,5]</text>
</g>
<!-- c_add_node_1_1_2_s_20 -->
<g id="node64" class="node"><title>c_add_node_1_1_2_s_20</title>
<text text-anchor="middle" x="1389" y="-283.3" font-family="Times New Roman,serif" font-size="14.00">sons=[]</text>
</g>
<!-- keys_7_820 -->
<g id="node66" class="node"><title>keys_7_820</title>
<text text-anchor="middle" x="1389" y="-528.3" font-family="Times New Roman,serif" font-size="14.00">keys=[7,8]</text>
</g>
<!-- c_add_node_1_1_3_s_20 -->
<g id="node67" class="node"><title>c_add_node_1_1_3_s_20</title>
<text text-anchor="middle" x="1389" y="-474.3" font-family="Times New Roman,serif" font-size="14.00">sons=[]</text>
</g>
<!-- keys_10_1120 -->
<g id="node69" class="node"><title>keys_10_1120</title>
<text text-anchor="middle" x="1389" y="-719.3" font-family="Times New Roman,serif" font-size="14.00">keys=[10,11]</text>
</g>
<!-- c_add_node_1_2_1_s_20 -->
<g id="node70" class="node"><title>c_add_node_1_2_1_s_20</title>
<text text-anchor="middle" x="1389" y="-665.3" font-family="Times New Roman,serif" font-size="14.00">sons=[]</text>
</g>
<!-- keys_13_1420 -->
<g id="node72" class="node"><title>keys_13_1420</title>
<text text-anchor="middle" x="1389" y="-910.3" font-family="Times New Roman,serif" font-size="14.00">keys=[13,14]</text>
</g>
<!-- c_add_node_1_2_2_s_20 -->
<g id="node73" class="node"><title>c_add_node_1_2_2_s_20</title>
<text text-anchor="middle" x="1389" y="-856.3" font-family="Times New Roman,serif" font-size="14.00">sons=[]</text>
</g>
<!-- keys=[16,17,18,19,20] -->
<g id="node75" class="node"><title>keys=[16,17,18,19,20]</title>
<text text-anchor="middle" x="1389" y="-1101.3" font-family="Times New Roman,serif" font-size="14.00">keys=[16,17,18,19,20]</text>
</g>
<!-- c_add_node_1_2_3_s_20 -->
<g id="node76" class="node"><title>c_add_node_1_2_3_s_20</title>
<text text-anchor="middle" x="1389" y="-1047.3" font-family="Times New Roman,serif" font-size="14.00">sons=[]</text>
</g>
</g>
</svg>
