<?xml version="1.0" encoding="UTF-8" standalone="no"?>
<!DOCTYPE svg PUBLIC "-//W3C//DTD SVG 1.1//EN"
 "http://www.w3.org/Graphics/SVG/1.1/DTD/svg11.dtd">
<!-- Generated by graphviz version 3.0.0 (20220226.1711)
 -->
<!-- Pages: 1 -->
<svg width="805pt" height="2580pt"
 viewBox="0.00 0.00 805.00 2580.00" xmlns="http://www.w3.org/2000/svg" xmlns:xlink="http://www.w3.org/1999/xlink">
<g id="graph0" class="graph" transform="scale(1 1) rotate(0) translate(4 2576)">
<polygon fill="white" stroke="transparent" points="-4,4 -4,-2576 801,-2576 801,4 -4,4"/>
<g id="clust1" class="cluster">
<title>cluster_Clus</title>
<polygon fill="none" stroke="black" points="8,-8 8,-623 625,-623 625,-8 8,-8"/>
<text text-anchor="middle" x="316.5" y="-607.8" font-family="Times New Roman,serif" font-size="14.00">Cluster</text>
</g>
<g id="clust2" class="cluster">
<title>cluster_cele</title>
<polygon fill="none" stroke="black" points="498,-188 498,-443 617,-443 617,-188 498,-188"/>
<text text-anchor="middle" x="557.5" y="-427.8" font-family="Times New Roman,serif" font-size="14.00">Celery</text>
</g>
<!-- Laca -->
<g id="node1" class="node">
<title>Laca</title>
<path fill="none" stroke="black" d="M85,-412C85,-412 28,-412 28,-412 22,-412 16,-406 16,-400 16,-400 16,-388 16,-388 16,-382 22,-376 28,-376 28,-376 85,-376 85,-376 91,-376 97,-382 97,-388 97,-388 97,-400 97,-400 97,-406 91,-412 85,-412"/>
<text text-anchor="middle" x="56.5" y="-390.3" font-family="Times New Roman,serif" font-size="14.00">Web server</text>
</g>
<!-- LaCb -->
<g id="node2" class="node">
<title>LaCb</title>
<path fill="none" stroke="black" d="M228,-412C228,-412 187,-412 187,-412 181,-412 175,-406 175,-400 175,-400 175,-388 175,-388 175,-382 181,-376 187,-376 187,-376 228,-376 228,-376 234,-376 240,-382 240,-388 240,-388 240,-400 240,-400 240,-406 234,-412 228,-412"/>
<text text-anchor="middle" x="207.5" y="-390.3" font-family="Times New Roman,serif" font-size="14.00">Workers</text>
</g>
<!-- Laca&#45;&gt;LaCb -->
<g id="edge1" class="edge">
<title>Laca&#45;&gt;LaCb</title>
<path fill="none" stroke="black" d="M97.04,-394C117.93,-394 143.57,-394 164.78,-394"/>
<polygon fill="black" stroke="black" points="164.8,-397.5 174.8,-394 164.8,-390.5 164.8,-397.5"/>
</g>
<!-- LbCa -->
<g id="node4" class="node">
<title>LbCa</title>
<path fill="none" stroke="black" d="M579.5,-592C579.5,-592 535.5,-592 535.5,-592 529.5,-592 523.5,-586 523.5,-580 523.5,-580 523.5,-568 523.5,-568 523.5,-562 529.5,-556 535.5,-556 535.5,-556 579.5,-556 579.5,-556 585.5,-556 591.5,-562 591.5,-568 591.5,-568 591.5,-580 591.5,-580 591.5,-586 585.5,-592 579.5,-592"/>
<text text-anchor="middle" x="557.5" y="-570.3" font-family="Times New Roman,serif" font-size="14.00">Database</text>
</g>
<!-- Laca&#45;&gt;LbCa -->
<g id="edge2" class="edge">
<title>Laca&#45;&gt;LbCa</title>
<path fill="none" stroke="black" d="M67.72,-412.34C80.29,-433.11 103.63,-466.35 133,-484 256.47,-558.2 432.42,-571.74 513.08,-573.86"/>
<polygon fill="black" stroke="black" points="513.28,-577.37 523.35,-574.08 513.43,-570.37 513.28,-577.37"/>
</g>
<!-- LbCb -->
<g id="node5" class="node">
<title>LbCb</title>
<path fill="none" stroke="black" d="M578,-52C578,-52 537,-52 537,-52 531,-52 525,-46 525,-40 525,-40 525,-28 525,-28 525,-22 531,-16 537,-16 537,-16 578,-16 578,-16 584,-16 590,-22 590,-28 590,-28 590,-40 590,-40 590,-46 584,-52 578,-52"/>
<text text-anchor="middle" x="557.5" y="-30.3" font-family="Times New Roman,serif" font-size="14.00">Dag files</text>
</g>
<!-- Laca&#45;&gt;LbCb -->
<g id="edge3" class="edge">
<title>Laca&#45;&gt;LbCb</title>
<path fill="none" stroke="black" d="M56.67,-375.69C55.51,-326.93 59.54,-192.95 133,-124 240.09,-23.48 430.42,-23.98 514.54,-29.84"/>
<polygon fill="black" stroke="black" points="514.49,-33.35 524.73,-30.62 515.02,-26.37 514.49,-33.35"/>
</g>
<!-- LaCb&#45;&gt;LbCa -->
<g id="edge4" class="edge">
<title>LaCb&#45;&gt;LbCa</title>
<path fill="none" stroke="black" d="M228.26,-412.14C249.3,-430.75 284.16,-459.64 318,-479 382.61,-515.96 464.41,-545.12 513.49,-560.94"/>
<polygon fill="black" stroke="black" points="512.56,-564.31 523.15,-564.01 514.68,-557.64 512.56,-564.31"/>
</g>
<!-- LaCb&#45;&gt;LbCb -->
<g id="edge5" class="edge">
<title>LaCb&#45;&gt;LbCb</title>
<path fill="none" stroke="black" d="M227.66,-375.79C244.44,-358.77 268.24,-331.86 282,-304 312.74,-241.75 274.78,-206.33 318,-152 368.25,-88.83 461.02,-56.92 514.85,-43.02"/>
<polygon fill="black" stroke="black" points="515.9,-46.37 524.75,-40.56 514.2,-39.58 515.9,-46.37"/>
</g>
<!-- LbCc -->
<g id="node6" class="node">
<title>LbCc</title>
<path fill="none" stroke="black" d="M597,-412C597,-412 518,-412 518,-412 512,-412 506,-406 506,-400 506,-400 506,-388 506,-388 506,-382 512,-376 518,-376 518,-376 597,-376 597,-376 603,-376 609,-382 609,-388 609,-388 609,-400 609,-400 609,-406 603,-412 597,-412"/>
<text text-anchor="middle" x="557.5" y="-390.3" font-family="Times New Roman,serif" font-size="14.00">Result backend</text>
</g>
<!-- LaCb&#45;&gt;LbCc -->
<g id="edge6" class="edge">
<title>LaCb&#45;&gt;LbCc</title>
<path fill="none" stroke="black" d="M240.31,-394C298.08,-394 421.14,-394 495.55,-394"/>
<polygon fill="black" stroke="black" points="495.72,-397.5 505.72,-394 495.72,-390.5 495.72,-397.5"/>
</g>
<!-- LbCd -->
<g id="node7" class="node">
<title>LbCd</title>
<path fill="none" stroke="black" d="M592,-232C592,-232 523,-232 523,-232 517,-232 511,-226 511,-220 511,-220 511,-208 511,-208 511,-202 517,-196 523,-196 523,-196 592,-196 592,-196 598,-196 604,-202 604,-208 604,-208 604,-220 604,-220 604,-226 598,-232 592,-232"/>
<text text-anchor="middle" x="557.5" y="-210.3" font-family="Times New Roman,serif" font-size="14.00">Queue broker</text>
</g>
<!-- LaCb&#45;&gt;LbCd -->
<g id="edge7" class="edge">
<title>LaCb&#45;&gt;LbCd</title>
<path fill="none" stroke="black" d="M226.85,-375.67C247.52,-355.84 282.85,-324.33 318,-304 376.9,-269.93 451.08,-244.32 500.94,-229.3"/>
<polygon fill="black" stroke="black" points="501.99,-232.64 510.57,-226.44 499.99,-225.93 501.99,-232.64"/>
</g>
<!-- LaCc -->
<g id="node3" class="node">
<title>LaCc</title>
<path fill="none" stroke="black" d="M235.5,-232C235.5,-232 179.5,-232 179.5,-232 173.5,-232 167.5,-226 167.5,-220 167.5,-220 167.5,-208 167.5,-208 167.5,-202 173.5,-196 179.5,-196 179.5,-196 235.5,-196 235.5,-196 241.5,-196 247.5,-202 247.5,-208 247.5,-208 247.5,-220 247.5,-220 247.5,-226 241.5,-232 235.5,-232"/>
<text text-anchor="middle" x="207.5" y="-210.3" font-family="Times New Roman,serif" font-size="14.00">Scqheduler</text>
</g>
<!-- LaCc&#45;&gt;LbCa -->
<g id="edge8" class="edge">
<title>LaCc&#45;&gt;LbCa</title>
<path fill="none" stroke="black" d="M227.85,-232.12C244.77,-249.07 268.66,-275.94 282,-304 316.1,-375.71 267.01,-418.13 318,-479 367.61,-538.22 459.37,-560.8 513.47,-569.2"/>
<polygon fill="black" stroke="black" points="513.04,-572.68 523.44,-570.66 514.05,-565.75 513.04,-572.68"/>
</g>
<!-- LaCc&#45;&gt;LbCb -->
<g id="edge9" class="edge">
<title>LaCc&#45;&gt;LbCb</title>
<path fill="none" stroke="black" d="M239.4,-195.9C261.19,-183.28 291.17,-166.22 318,-152 386.69,-115.6 468.13,-76.06 515.88,-53.25"/>
<polygon fill="black" stroke="black" points="517.45,-56.38 524.96,-48.91 514.43,-50.06 517.45,-56.38"/>
</g>
<!-- LaCc&#45;&gt;LbCc -->
<g id="edge10" class="edge">
<title>LaCc&#45;&gt;LbCc</title>
<path fill="none" stroke="black" d="M226.85,-232.33C247.52,-252.16 282.85,-283.67 318,-304 375.1,-337.03 446.57,-362.11 496.31,-377.3"/>
<polygon fill="black" stroke="black" points="495.38,-380.67 505.96,-380.2 497.39,-373.97 495.38,-380.67"/>
</g>
<!-- LaCc&#45;&gt;LbCd -->
<g id="edge11" class="edge">
<title>LaCc&#45;&gt;LbCd</title>
<path fill="none" stroke="black" d="M247.74,-214C309.58,-214 429.93,-214 500.73,-214"/>
<polygon fill="black" stroke="black" points="500.81,-217.5 510.81,-214 500.81,-210.5 500.81,-217.5"/>
</g>
<!-- Web server__0 -->
<g id="node8" class="node">
<title>Web server__0</title>
<path fill="none" stroke="black" d="M85,-772C85,-772 28,-772 28,-772 22,-772 16,-766 16,-760 16,-760 16,-748 16,-748 16,-742 22,-736 28,-736 28,-736 85,-736 85,-736 91,-736 97,-742 97,-748 97,-748 97,-760 97,-760 97,-766 91,-772 85,-772"/>
<text text-anchor="middle" x="56.5" y="-750.3" font-family="Times New Roman,serif" font-size="14.00">Web server</text>
</g>
<!-- Workers__0 -->
<g id="node9" class="node">
<title>Workers__0</title>
<path fill="none" stroke="black" d="M228,-772C228,-772 187,-772 187,-772 181,-772 175,-766 175,-760 175,-760 175,-748 175,-748 175,-742 181,-736 187,-736 187,-736 228,-736 228,-736 234,-736 240,-742 240,-748 240,-748 240,-760 240,-760 240,-766 234,-772 228,-772"/>
<text text-anchor="middle" x="207.5" y="-750.3" font-family="Times New Roman,serif" font-size="14.00">Workers</text>
</g>
<!-- Web server__0&#45;&gt;Workers__0 -->
<g id="edge12" class="edge">
<title>Web server__0&#45;&gt;Workers__0</title>
<path fill="none" stroke="black" d="M97.04,-754C117.93,-754 143.57,-754 164.78,-754"/>
<polygon fill="black" stroke="black" points="164.8,-757.5 174.8,-754 164.8,-750.5 164.8,-757.5"/>
</g>
<!-- Fetches task execution logs -->
<g id="node10" class="node">
<title>Fetches task execution logs</title>
<path fill="none" stroke="black" d="M630.5,-772C630.5,-772 484.5,-772 484.5,-772 478.5,-772 472.5,-766 472.5,-760 472.5,-760 472.5,-748 472.5,-748 472.5,-742 478.5,-736 484.5,-736 484.5,-736 630.5,-736 630.5,-736 636.5,-736 642.5,-742 642.5,-748 642.5,-748 642.5,-760 642.5,-760 642.5,-766 636.5,-772 630.5,-772"/>
<text text-anchor="middle" x="557.5" y="-750.3" font-family="Times New Roman,serif" font-size="14.00">Fetches task execution logs</text>
</g>
<!-- Workers__0&#45;&gt;Fetches task execution logs -->
<g id="edge13" class="edge">
<title>Workers__0&#45;&gt;Fetches task execution logs</title>
<path fill="none" stroke="black" d="M240.31,-754C290.06,-754 388.26,-754 462.09,-754"/>
<polygon fill="black" stroke="black" points="462.33,-757.5 472.33,-754 462.33,-750.5 462.33,-757.5"/>
</g>
<!-- Web server__1 -->
<g id="node11" class="node">
<title>Web server__1</title>
<path fill="none" stroke="black" d="M85,-952C85,-952 28,-952 28,-952 22,-952 16,-946 16,-940 16,-940 16,-928 16,-928 16,-922 22,-916 28,-916 28,-916 85,-916 85,-916 91,-916 97,-922 97,-928 97,-928 97,-940 97,-940 97,-946 91,-952 85,-952"/>
<text text-anchor="middle" x="56.5" y="-930.3" font-family="Times New Roman,serif" font-size="14.00">Web server</text>
</g>
<!-- DAG files__1 -->
<g id="node12" class="node">
<title>DAG files__1</title>
<path fill="none" stroke="black" d="M232,-952C232,-952 183,-952 183,-952 177,-952 171,-946 171,-940 171,-940 171,-928 171,-928 171,-922 177,-916 183,-916 183,-916 232,-916 232,-916 238,-916 244,-922 244,-928 244,-928 244,-940 244,-940 244,-946 238,-952 232,-952"/>
<text text-anchor="middle" x="207.5" y="-930.3" font-family="Times New Roman,serif" font-size="14.00">DAG files</text>
</g>
<!-- Web server__1&#45;&gt;DAG files__1 -->
<g id="edge14" class="edge">
<title>Web server__1&#45;&gt;DAG files__1</title>
<path fill="none" stroke="black" d="M97.04,-934C116.66,-934 140.46,-934 160.85,-934"/>
<polygon fill="black" stroke="black" points="160.86,-937.5 170.86,-934 160.86,-930.5 160.86,-937.5"/>
</g>
<!-- Reveal the DAG structure -->
<g id="node13" class="node">
<title>Reveal the DAG structure</title>
<path fill="none" stroke="black" d="M626,-952C626,-952 489,-952 489,-952 483,-952 477,-946 477,-940 477,-940 477,-928 477,-928 477,-922 483,-916 489,-916 489,-916 626,-916 626,-916 632,-916 638,-922 638,-928 638,-928 638,-940 638,-940 638,-946 632,-952 626,-952"/>
<text text-anchor="middle" x="557.5" y="-930.3" font-family="Times New Roman,serif" font-size="14.00">Reveal the DAG structure</text>
</g>
<!-- DAG files__1&#45;&gt;Reveal the DAG structure -->
<g id="edge15" class="edge">
<title>DAG files__1&#45;&gt;Reveal the DAG structure</title>
<path fill="none" stroke="black" d="M244.11,-934C296.06,-934 394.33,-934 466.83,-934"/>
<polygon fill="black" stroke="black" points="466.88,-937.5 476.88,-934 466.88,-930.5 466.88,-937.5"/>
</g>
<!-- Web server__2 -->
<g id="node14" class="node">
<title>Web server__2</title>
<path fill="none" stroke="black" d="M85,-1132C85,-1132 28,-1132 28,-1132 22,-1132 16,-1126 16,-1120 16,-1120 16,-1108 16,-1108 16,-1102 22,-1096 28,-1096 28,-1096 85,-1096 85,-1096 91,-1096 97,-1102 97,-1108 97,-1108 97,-1120 97,-1120 97,-1126 91,-1132 85,-1132"/>
<text text-anchor="middle" x="56.5" y="-1110.3" font-family="Times New Roman,serif" font-size="14.00">Web server</text>
</g>
<!-- Database__2 -->
<g id="node15" class="node">
<title>Database__2</title>
<path fill="none" stroke="black" d="M229.5,-1132C229.5,-1132 185.5,-1132 185.5,-1132 179.5,-1132 173.5,-1126 173.5,-1120 173.5,-1120 173.5,-1108 173.5,-1108 173.5,-1102 179.5,-1096 185.5,-1096 185.5,-1096 229.5,-1096 229.5,-1096 235.5,-1096 241.5,-1102 241.5,-1108 241.5,-1108 241.5,-1120 241.5,-1120 241.5,-1126 235.5,-1132 229.5,-1132"/>
<text text-anchor="middle" x="207.5" y="-1110.3" font-family="Times New Roman,serif" font-size="14.00">Database</text>
</g>
<!-- Web server__2&#45;&gt;Database__2 -->
<g id="edge16" class="edge">
<title>Web server__2&#45;&gt;Database__2</title>
<path fill="none" stroke="black" d="M97.04,-1114C117.39,-1114 142.25,-1114 163.13,-1114"/>
<polygon fill="black" stroke="black" points="163.34,-1117.5 173.34,-1114 163.34,-1110.5 163.34,-1117.5"/>
</g>
<!-- Fetch the status of the tasks -->
<g id="node16" class="node">
<title>Fetch the status of the tasks</title>
<path fill="none" stroke="black" d="M632,-1132C632,-1132 483,-1132 483,-1132 477,-1132 471,-1126 471,-1120 471,-1120 471,-1108 471,-1108 471,-1102 477,-1096 483,-1096 483,-1096 632,-1096 632,-1096 638,-1096 644,-1102 644,-1108 644,-1108 644,-1120 644,-1120 644,-1126 638,-1132 632,-1132"/>
<text text-anchor="middle" x="557.5" y="-1110.3" font-family="Times New Roman,serif" font-size="14.00">Fetch the status of the tasks</text>
</g>
<!-- Database__2&#45;&gt;Fetch the status of the tasks -->
<g id="edge17" class="edge">
<title>Database__2&#45;&gt;Fetch the status of the tasks</title>
<path fill="none" stroke="black" d="M241.55,-1114C291.38,-1114 387.67,-1114 460.73,-1114"/>
<polygon fill="black" stroke="black" points="460.87,-1117.5 470.87,-1114 460.87,-1110.5 460.87,-1117.5"/>
</g>
<!-- Workers__3 -->
<g id="node17" class="node">
<title>Workers__3</title>
<path fill="none" stroke="black" d="M77,-1492C77,-1492 36,-1492 36,-1492 30,-1492 24,-1486 24,-1480 24,-1480 24,-1468 24,-1468 24,-1462 30,-1456 36,-1456 36,-1456 77,-1456 77,-1456 83,-1456 89,-1462 89,-1468 89,-1468 89,-1480 89,-1480 89,-1486 83,-1492 77,-1492"/>
<text text-anchor="middle" x="56.5" y="-1470.3" font-family="Times New Roman,serif" font-size="14.00">Workers</text>
</g>
<!-- DAG files__3 -->
<g id="node18" class="node">
<title>DAG files__3</title>
<path fill="none" stroke="black" d="M232,-1492C232,-1492 183,-1492 183,-1492 177,-1492 171,-1486 171,-1480 171,-1480 171,-1468 171,-1468 171,-1462 177,-1456 183,-1456 183,-1456 232,-1456 232,-1456 238,-1456 244,-1462 244,-1468 244,-1468 244,-1480 244,-1480 244,-1486 238,-1492 232,-1492"/>
<text text-anchor="middle" x="207.5" y="-1470.3" font-family="Times New Roman,serif" font-size="14.00">DAG files</text>
</g>
<!-- Workers__3&#45;&gt;DAG files__3 -->
<g id="edge18" class="edge">
<title>Workers__3&#45;&gt;DAG files__3</title>
<path fill="none" stroke="black" d="M89.1,-1474C109.84,-1474 137.31,-1474 160.47,-1474"/>
<polygon fill="black" stroke="black" points="160.76,-1477.5 170.76,-1474 160.76,-1470.5 160.76,-1477.5"/>
</g>
<!-- Reveal the DAG structure and execute the tasks -->
<g id="node19" class="node">
<title>Reveal the DAG structure and execute the tasks</title>
<path fill="none" stroke="black" d="M687,-1402C687,-1402 428,-1402 428,-1402 422,-1402 416,-1396 416,-1390 416,-1390 416,-1378 416,-1378 416,-1372 422,-1366 428,-1366 428,-1366 687,-1366 687,-1366 693,-1366 699,-1372 699,-1378 699,-1378 699,-1390 699,-1390 699,-1396 693,-1402 687,-1402"/>
<text text-anchor="middle" x="557.5" y="-1380.3" font-family="Times New Roman,serif" font-size="14.00">Reveal the DAG structure and execute the tasks</text>
</g>
<!-- DAG files__3&#45;&gt;Reveal the DAG structure and execute the tasks -->
<g id="edge19" class="edge">
<title>DAG files__3&#45;&gt;Reveal the DAG structure and execute the tasks</title>
<path fill="none" stroke="black" d="M244.11,-1464.79C298.46,-1450.74 403.5,-1423.57 476.7,-1404.64"/>
<polygon fill="black" stroke="black" points="478.01,-1407.92 486.81,-1402.02 476.25,-1401.14 478.01,-1407.92"/>
</g>
<!-- Workers__4 -->
<g id="node20" class="node">
<title>Workers__4</title>
<path fill="none" stroke="black" d="M77,-1672C77,-1672 36,-1672 36,-1672 30,-1672 24,-1666 24,-1660 24,-1660 24,-1648 24,-1648 24,-1642 30,-1636 36,-1636 36,-1636 77,-1636 77,-1636 83,-1636 89,-1642 89,-1648 89,-1648 89,-1660 89,-1660 89,-1666 83,-1672 77,-1672"/>
<text text-anchor="middle" x="56.5" y="-1650.3" font-family="Times New Roman,serif" font-size="14.00">Workers</text>
</g>
<!-- Database__4 -->
<g id="node21" class="node">
<title>Database__4</title>
<path fill="none" stroke="black" d="M229.5,-1672C229.5,-1672 185.5,-1672 185.5,-1672 179.5,-1672 173.5,-1666 173.5,-1660 173.5,-1660 173.5,-1648 173.5,-1648 173.5,-1642 179.5,-1636 185.5,-1636 185.5,-1636 229.5,-1636 229.5,-1636 235.5,-1636 241.5,-1642 241.5,-1648 241.5,-1648 241.5,-1660 241.5,-1660 241.5,-1666 235.5,-1672 229.5,-1672"/>
<text text-anchor="middle" x="207.5" y="-1650.3" font-family="Times New Roman,serif" font-size="14.00">Database</text>
</g>
<!-- Workers__4&#45;&gt;Database__4 -->
<g id="edge20" class="edge">
<title>Workers__4&#45;&gt;Database__4</title>
<path fill="none" stroke="black" d="M89.1,-1654C110.68,-1654 139.54,-1654 163.25,-1654"/>
<polygon fill="black" stroke="black" points="163.4,-1657.5 173.4,-1654 163.4,-1650.5 163.4,-1657.5"/>
</g>
<!-- Gets and stores information about connection configuration, variables and XCOM. -->
<g id="node22" class="node">
<title>Gets and stores information about connection configuration, variables and XCOM.</title>
<path fill="none" stroke="black" d="M785,-1672C785,-1672 330,-1672 330,-1672 324,-1672 318,-1666 318,-1660 318,-1660 318,-1648 318,-1648 318,-1642 324,-1636 330,-1636 330,-1636 785,-1636 785,-1636 791,-1636 797,-1642 797,-1648 797,-1648 797,-1660 797,-1660 797,-1666 791,-1672 785,-1672"/>
<text text-anchor="middle" x="557.5" y="-1650.3" font-family="Times New Roman,serif" font-size="14.00">Gets and stores information about connection configuration, variables and XCOM.</text>
</g>
<!-- Database__4&#45;&gt;Gets and stores information about connection configuration, variables and XCOM. -->
<g id="edge21" class="edge">
<title>Database__4&#45;&gt;Gets and stores information about connection configuration, variables and XCOM.</title>
<path fill="none" stroke="black" d="M241.55,-1654C258.85,-1654 281.75,-1654 307.34,-1654"/>
<polygon fill="black" stroke="black" points="307.66,-1657.5 317.66,-1654 307.66,-1650.5 307.66,-1657.5"/>
</g>
<!-- Workers__5 -->
<g id="node23" class="node">
<title>Workers__5</title>
<path fill="none" stroke="black" d="M77,-1852C77,-1852 36,-1852 36,-1852 30,-1852 24,-1846 24,-1840 24,-1840 24,-1828 24,-1828 24,-1822 30,-1816 36,-1816 36,-1816 77,-1816 77,-1816 83,-1816 89,-1822 89,-1828 89,-1828 89,-1840 89,-1840 89,-1846 83,-1852 77,-1852"/>
<text text-anchor="middle" x="56.5" y="-1830.3" font-family="Times New Roman,serif" font-size="14.00">Workers</text>
</g>
<!-- Celery’s result backend__5 -->
<g id="node24" class="node">
<title>Celery’s result backend__5</title>
<path fill="none" stroke="black" d="M270,-1852C270,-1852 145,-1852 145,-1852 139,-1852 133,-1846 133,-1840 133,-1840 133,-1828 133,-1828 133,-1822 139,-1816 145,-1816 145,-1816 270,-1816 270,-1816 276,-1816 282,-1822 282,-1828 282,-1828 282,-1840 282,-1840 282,-1846 276,-1852 270,-1852"/>
<text text-anchor="middle" x="207.5" y="-1830.3" font-family="Times New Roman,serif" font-size="14.00">Celery’s result backend</text>
</g>
<!-- Workers__5&#45;&gt;Celery’s result backend__5 -->
<g id="edge22" class="edge">
<title>Workers__5&#45;&gt;Celery’s result backend__5</title>
<path fill="none" stroke="black" d="M89.1,-1834C99.18,-1834 110.84,-1834 122.83,-1834"/>
<polygon fill="black" stroke="black" points="122.95,-1837.5 132.95,-1834 122.95,-1830.5 122.95,-1837.5"/>
</g>
<!-- Saves the status of tasks -->
<g id="node25" class="node">
<title>Saves the status of tasks</title>
<path fill="none" stroke="black" d="M622.5,-1852C622.5,-1852 492.5,-1852 492.5,-1852 486.5,-1852 480.5,-1846 480.5,-1840 480.5,-1840 480.5,-1828 480.5,-1828 480.5,-1822 486.5,-1816 492.5,-1816 492.5,-1816 622.5,-1816 622.5,-1816 628.5,-1816 634.5,-1822 634.5,-1828 634.5,-1828 634.5,-1840 634.5,-1840 634.5,-1846 628.5,-1852 622.5,-1852"/>
<text text-anchor="middle" x="557.5" y="-1830.3" font-family="Times New Roman,serif" font-size="14.00">Saves the status of tasks</text>
</g>
<!-- Celery’s result backend__5&#45;&gt;Saves the status of tasks -->
<g id="edge23" class="edge">
<title>Celery’s result backend__5&#45;&gt;Saves the status of tasks</title>
<path fill="none" stroke="black" d="M282.3,-1834C337.26,-1834 412.45,-1834 470.19,-1834"/>
<polygon fill="black" stroke="black" points="470.4,-1837.5 480.4,-1834 470.4,-1830.5 470.4,-1837.5"/>
</g>
<!-- Workers__6 -->
<g id="node26" class="node">
<title>Workers__6</title>
<path fill="none" stroke="black" d="M77,-2032C77,-2032 36,-2032 36,-2032 30,-2032 24,-2026 24,-2020 24,-2020 24,-2008 24,-2008 24,-2002 30,-1996 36,-1996 36,-1996 77,-1996 77,-1996 83,-1996 89,-2002 89,-2008 89,-2008 89,-2020 89,-2020 89,-2026 83,-2032 77,-2032"/>
<text text-anchor="middle" x="56.5" y="-2010.3" font-family="Times New Roman,serif" font-size="14.00">Workers</text>
</g>
<!-- Celery’s broker__6 -->
<g id="node27" class="node">
<title>Celery’s broker__6</title>
<path fill="none" stroke="black" d="M247.5,-2032C247.5,-2032 167.5,-2032 167.5,-2032 161.5,-2032 155.5,-2026 155.5,-2020 155.5,-2020 155.5,-2008 155.5,-2008 155.5,-2002 161.5,-1996 167.5,-1996 167.5,-1996 247.5,-1996 247.5,-1996 253.5,-1996 259.5,-2002 259.5,-2008 259.5,-2008 259.5,-2020 259.5,-2020 259.5,-2026 253.5,-2032 247.5,-2032"/>
<text text-anchor="middle" x="207.5" y="-2010.3" font-family="Times New Roman,serif" font-size="14.00">Celery’s broker</text>
</g>
<!-- Workers__6&#45;&gt;Celery’s broker__6 -->
<g id="edge24" class="edge">
<title>Workers__6&#45;&gt;Celery’s broker__6</title>
<path fill="none" stroke="black" d="M89.1,-2014C105.39,-2014 125.84,-2014 145.08,-2014"/>
<polygon fill="black" stroke="black" points="145.31,-2017.5 155.31,-2014 145.31,-2010.5 145.31,-2017.5"/>
</g>
<!-- Stores commands for execution -->
<g id="node28" class="node">
<title>Stores commands for execution</title>
<path fill="none" stroke="black" d="M643,-2032C643,-2032 472,-2032 472,-2032 466,-2032 460,-2026 460,-2020 460,-2020 460,-2008 460,-2008 460,-2002 466,-1996 472,-1996 472,-1996 643,-1996 643,-1996 649,-1996 655,-2002 655,-2008 655,-2008 655,-2020 655,-2020 655,-2026 649,-2032 643,-2032"/>
<text text-anchor="middle" x="557.5" y="-2010.3" font-family="Times New Roman,serif" font-size="14.00">Stores commands for execution</text>
</g>
<!-- Celery’s broker__6&#45;&gt;Stores commands for execution -->
<g id="edge25" class="edge">
<title>Celery’s broker__6&#45;&gt;Stores commands for execution</title>
<path fill="none" stroke="black" d="M259.85,-2014C309.65,-2014 386.73,-2014 449.83,-2014"/>
<polygon fill="black" stroke="black" points="449.83,-2017.5 459.83,-2014 449.83,-2010.5 449.83,-2017.5"/>
</g>
<!-- Scheduler__7 -->
<g id="node29" class="node">
<title>Scheduler__7</title>
<path fill="none" stroke="black" d="M80.5,-1312C80.5,-1312 32.5,-1312 32.5,-1312 26.5,-1312 20.5,-1306 20.5,-1300 20.5,-1300 20.5,-1288 20.5,-1288 20.5,-1282 26.5,-1276 32.5,-1276 32.5,-1276 80.5,-1276 80.5,-1276 86.5,-1276 92.5,-1282 92.5,-1288 92.5,-1288 92.5,-1300 92.5,-1300 92.5,-1306 86.5,-1312 80.5,-1312"/>
<text text-anchor="middle" x="56.5" y="-1290.3" font-family="Times New Roman,serif" font-size="14.00">Scheduler</text>
</g>
<!-- DAG files__7 -->
<g id="node30" class="node">
<title>DAG files__7</title>
<path fill="none" stroke="black" d="M232,-1312C232,-1312 183,-1312 183,-1312 177,-1312 171,-1306 171,-1300 171,-1300 171,-1288 171,-1288 171,-1282 177,-1276 183,-1276 183,-1276 232,-1276 232,-1276 238,-1276 244,-1282 244,-1288 244,-1288 244,-1300 244,-1300 244,-1306 238,-1312 232,-1312"/>
<text text-anchor="middle" x="207.5" y="-1290.3" font-family="Times New Roman,serif" font-size="14.00">DAG files</text>
</g>
<!-- Scheduler__7&#45;&gt;DAG files__7 -->
<g id="edge26" class="edge">
<title>Scheduler__7&#45;&gt;DAG files__7</title>
<path fill="none" stroke="black" d="M92.81,-1294C113.17,-1294 138.98,-1294 160.86,-1294"/>
<polygon fill="black" stroke="black" points="160.93,-1297.5 170.93,-1294 160.93,-1290.5 160.93,-1297.5"/>
</g>
<!-- DAG files__7&#45;&gt;Reveal the DAG structure and execute the tasks -->
<g id="edge27" class="edge">
<title>DAG files__7&#45;&gt;Reveal the DAG structure and execute the tasks</title>
<path fill="none" stroke="black" d="M244.11,-1303.21C298.46,-1317.26 403.5,-1344.43 476.7,-1363.36"/>
<polygon fill="black" stroke="black" points="476.25,-1366.86 486.81,-1365.98 478.01,-1360.08 476.25,-1366.86"/>
</g>
<!-- Scheduler__8 -->
<g id="node31" class="node">
<title>Scheduler__8</title>
<path fill="none" stroke="black" d="M80.5,-2212C80.5,-2212 32.5,-2212 32.5,-2212 26.5,-2212 20.5,-2206 20.5,-2200 20.5,-2200 20.5,-2188 20.5,-2188 20.5,-2182 26.5,-2176 32.5,-2176 32.5,-2176 80.5,-2176 80.5,-2176 86.5,-2176 92.5,-2182 92.5,-2188 92.5,-2188 92.5,-2200 92.5,-2200 92.5,-2206 86.5,-2212 80.5,-2212"/>
<text text-anchor="middle" x="56.5" y="-2190.3" font-family="Times New Roman,serif" font-size="14.00">Scheduler</text>
</g>
<!-- Database__8 -->
<g id="node32" class="node">
<title>Database__8</title>
<path fill="none" stroke="black" d="M229.5,-2212C229.5,-2212 185.5,-2212 185.5,-2212 179.5,-2212 173.5,-2206 173.5,-2200 173.5,-2200 173.5,-2188 173.5,-2188 173.5,-2182 179.5,-2176 185.5,-2176 185.5,-2176 229.5,-2176 229.5,-2176 235.5,-2176 241.5,-2182 241.5,-2188 241.5,-2188 241.5,-2200 241.5,-2200 241.5,-2206 235.5,-2212 229.5,-2212"/>
<text text-anchor="middle" x="207.5" y="-2190.3" font-family="Times New Roman,serif" font-size="14.00">Database</text>
</g>
<!-- Scheduler__8&#45;&gt;Database__8 -->
<g id="edge28" class="edge">
<title>Scheduler__8&#45;&gt;Database__8</title>
<path fill="none" stroke="black" d="M92.81,-2194C113.91,-2194 140.87,-2194 163.24,-2194"/>
<polygon fill="black" stroke="black" points="163.48,-2197.5 173.48,-2194 163.48,-2190.5 163.48,-2197.5"/>
</g>
<!-- Store a DAG run and related tasks -->
<g id="node33" class="node">
<title>Store a DAG run and related tasks</title>
<path fill="none" stroke="black" d="M650,-2212C650,-2212 465,-2212 465,-2212 459,-2212 453,-2206 453,-2200 453,-2200 453,-2188 453,-2188 453,-2182 459,-2176 465,-2176 465,-2176 650,-2176 650,-2176 656,-2176 662,-2182 662,-2188 662,-2188 662,-2200 662,-2200 662,-2206 656,-2212 650,-2212"/>
<text text-anchor="middle" x="557.5" y="-2190.3" font-family="Times New Roman,serif" font-size="14.00">Store a DAG run and related tasks</text>
</g>
<!-- Database__8&#45;&gt;Store a DAG run and related tasks -->
<g id="edge29" class="edge">
<title>Database__8&#45;&gt;Store a DAG run and related tasks</title>
<path fill="none" stroke="black" d="M241.55,-2194C287.32,-2194 372.27,-2194 442.43,-2194"/>
<polygon fill="black" stroke="black" points="442.66,-2197.5 452.66,-2194 442.66,-2190.5 442.66,-2197.5"/>
</g>
<!-- Scheduler__9 -->
<g id="node34" class="node">
<title>Scheduler__9</title>
<path fill="none" stroke="black" d="M80.5,-2392C80.5,-2392 32.5,-2392 32.5,-2392 26.5,-2392 20.5,-2386 20.5,-2380 20.5,-2380 20.5,-2368 20.5,-2368 20.5,-2362 26.5,-2356 32.5,-2356 32.5,-2356 80.5,-2356 80.5,-2356 86.5,-2356 92.5,-2362 92.5,-2368 92.5,-2368 92.5,-2380 92.5,-2380 92.5,-2386 86.5,-2392 80.5,-2392"/>
<text text-anchor="middle" x="56.5" y="-2370.3" font-family="Times New Roman,serif" font-size="14.00">Scheduler</text>
</g>
<!-- Celery’s result backend__9 -->
<g id="node35" class="node">
<title>Celery’s result backend__9</title>
<path fill="none" stroke="black" d="M270,-2392C270,-2392 145,-2392 145,-2392 139,-2392 133,-2386 133,-2380 133,-2380 133,-2368 133,-2368 133,-2362 139,-2356 145,-2356 145,-2356 270,-2356 270,-2356 276,-2356 282,-2362 282,-2368 282,-2368 282,-2380 282,-2380 282,-2386 276,-2392 270,-2392"/>
<text text-anchor="middle" x="207.5" y="-2370.3" font-family="Times New Roman,serif" font-size="14.00">Celery’s result backend</text>
</g>
<!-- Scheduler__9&#45;&gt;Celery’s result backend__9 -->
<g id="edge30" class="edge">
<title>Scheduler__9&#45;&gt;Celery’s result backend__9</title>
<path fill="none" stroke="black" d="M92.81,-2374C101.94,-2374 112.17,-2374 122.65,-2374"/>
<polygon fill="black" stroke="black" points="122.74,-2377.5 132.74,-2374 122.74,-2370.5 122.74,-2377.5"/>
</g>
<!-- Gets information about the status of completed tasks -->
<g id="node36" class="node">
<title>Gets information about the status of completed tasks</title>
<path fill="none" stroke="black" d="M701.5,-2392C701.5,-2392 413.5,-2392 413.5,-2392 407.5,-2392 401.5,-2386 401.5,-2380 401.5,-2380 401.5,-2368 401.5,-2368 401.5,-2362 407.5,-2356 413.5,-2356 413.5,-2356 701.5,-2356 701.5,-2356 707.5,-2356 713.5,-2362 713.5,-2368 713.5,-2368 713.5,-2380 713.5,-2380 713.5,-2386 707.5,-2392 701.5,-2392"/>
<text text-anchor="middle" x="557.5" y="-2370.3" font-family="Times New Roman,serif" font-size="14.00">Gets information about the status of completed tasks</text>
</g>
<!-- Celery’s result backend__9&#45;&gt;Gets information about the status of completed tasks -->
<g id="edge31" class="edge">
<title>Celery’s result backend__9&#45;&gt;Gets information about the status of completed tasks</title>
<path fill="none" stroke="black" d="M282.3,-2374C314.17,-2374 352.84,-2374 390.97,-2374"/>
<polygon fill="black" stroke="black" points="391.17,-2377.5 401.17,-2374 391.17,-2370.5 391.17,-2377.5"/>
</g>
<!-- Scheduler__10 -->
<g id="node37" class="node">
<title>Scheduler__10</title>
<path fill="none" stroke="black" d="M80.5,-2572C80.5,-2572 32.5,-2572 32.5,-2572 26.5,-2572 20.5,-2566 20.5,-2560 20.5,-2560 20.5,-2548 20.5,-2548 20.5,-2542 26.5,-2536 32.5,-2536 32.5,-2536 80.5,-2536 80.5,-2536 86.5,-2536 92.5,-2542 92.5,-2548 92.5,-2548 92.5,-2560 92.5,-2560 92.5,-2566 86.5,-2572 80.5,-2572"/>
<text text-anchor="middle" x="56.5" y="-2550.3" font-family="Times New Roman,serif" font-size="14.00">Scheduler</text>
</g>
<!-- Celery’s broker__10 -->
<g id="node38" class="node">
<title>Celery’s broker__10</title>
<path fill="none" stroke="black" d="M247.5,-2572C247.5,-2572 167.5,-2572 167.5,-2572 161.5,-2572 155.5,-2566 155.5,-2560 155.5,-2560 155.5,-2548 155.5,-2548 155.5,-2542 161.5,-2536 167.5,-2536 167.5,-2536 247.5,-2536 247.5,-2536 253.5,-2536 259.5,-2542 259.5,-2548 259.5,-2548 259.5,-2560 259.5,-2560 259.5,-2566 253.5,-2572 247.5,-2572"/>
<text text-anchor="middle" x="207.5" y="-2550.3" font-family="Times New Roman,serif" font-size="14.00">Celery’s broker</text>
</g>
<!-- Scheduler__10&#45;&gt;Celery’s broker__10 -->
<g id="edge32" class="edge">
<title>Scheduler__10&#45;&gt;Celery’s broker__10</title>
<path fill="none" stroke="black" d="M92.81,-2554C108.42,-2554 127.24,-2554 145.04,-2554"/>
<polygon fill="black" stroke="black" points="145.36,-2557.5 155.36,-2554 145.36,-2550.5 145.36,-2557.5"/>
</g>
<!-- Put the commands to be executed -->
<g id="node39" class="node">
<title>Put the commands to be executed</title>
<path fill="none" stroke="black" d="M648.5,-2572C648.5,-2572 466.5,-2572 466.5,-2572 460.5,-2572 454.5,-2566 454.5,-2560 454.5,-2560 454.5,-2548 454.5,-2548 454.5,-2542 460.5,-2536 466.5,-2536 466.5,-2536 648.5,-2536 648.5,-2536 654.5,-2536 660.5,-2542 660.5,-2548 660.5,-2548 660.5,-2560 660.5,-2560 660.5,-2566 654.5,-2572 648.5,-2572"/>
<text text-anchor="middle" x="557.5" y="-2550.3" font-family="Times New Roman,serif" font-size="14.00">Put the commands to be executed</text>
</g>
<!-- Celery’s broker__10&#45;&gt;Put the commands to be executed -->
<g id="edge33" class="edge">
<title>Celery’s broker__10&#45;&gt;Put the commands to be executed</title>
<path fill="none" stroke="black" d="M259.85,-2554C308.12,-2554 382,-2554 443.96,-2554"/>
<polygon fill="black" stroke="black" points="444.19,-2557.5 454.19,-2554 444.19,-2550.5 444.19,-2557.5"/>
</g>
</g>
</svg>
