<?xml version="1.0" encoding="UTF-8" standalone="no"?>
<!DOCTYPE svg PUBLIC "-//W3C//DTD SVG 1.1//EN"
 "http://www.w3.org/Graphics/SVG/1.1/DTD/svg11.dtd">
<!-- Generated by graphviz version 3.0.0 (20220226.1711)
 -->
<!-- Pages: 1 -->
<svg width="376pt" height="639pt"
 viewBox="0.00 0.00 376.00 639.00" xmlns="http://www.w3.org/2000/svg" xmlns:xlink="http://www.w3.org/1999/xlink">
<g id="graph0" class="graph" transform="scale(1 1) rotate(0) translate(4 635)">
<polygon fill="white" stroke="transparent" points="-4,4 -4,-635 372,-635 372,4 -4,4"/>
<g id="clust1" class="cluster">
<title>cluster_Clus</title>
<polygon fill="none" stroke="black" points="8,-8 8,-623 360,-623 360,-8 8,-8"/>
<text text-anchor="middle" x="184" y="-607.8" font-family="Times New Roman,serif" font-size="14.00">Cluster</text>
</g>
<g id="clust2" class="cluster">
<title>cluster_cele</title>
<polygon fill="none" stroke="black" points="233,-188 233,-443 352,-443 352,-188 233,-188"/>
<text text-anchor="middle" x="292.5" y="-427.8" font-family="Times New Roman,serif" font-size="14.00">Celery</text>
</g>
<!-- Laca -->
<g id="node1" class="node">
<title>Laca</title>
<path fill="none" stroke="black" d="M85,-412C85,-412 28,-412 28,-412 22,-412 16,-406 16,-400 16,-400 16,-388 16,-388 16,-382 22,-376 28,-376 28,-376 85,-376 85,-376 91,-376 97,-382 97,-388 97,-388 97,-400 97,-400 97,-406 91,-412 85,-412"/>
<text text-anchor="middle" x="56.5" y="-390.3" font-family="Times New Roman,serif" font-size="14.00">Web server</text>
</g>
<!-- LaCb -->
<g id="node2" class="node">
<title>LaCb</title>
<path fill="none" stroke="black" d="M189.5,-412C189.5,-412 148.5,-412 148.5,-412 142.5,-412 136.5,-406 136.5,-400 136.5,-400 136.5,-388 136.5,-388 136.5,-382 142.5,-376 148.5,-376 148.5,-376 189.5,-376 189.5,-376 195.5,-376 201.5,-382 201.5,-388 201.5,-388 201.5,-400 201.5,-400 201.5,-406 195.5,-412 189.5,-412"/>
<text text-anchor="middle" x="169" y="-390.3" font-family="Times New Roman,serif" font-size="14.00">Workers</text>
</g>
<!-- Laca&#45;&gt;LaCb -->
<g id="edge1" class="edge">
<title>Laca&#45;&gt;LaCb</title>
<path fill="none" stroke="black" d="M97.08,-394C106.54,-394 116.67,-394 126.22,-394"/>
<polygon fill="black" stroke="black" points="126.31,-397.5 136.31,-394 126.31,-390.5 126.31,-397.5"/>
</g>
<!-- LbCa -->
<g id="node4" class="node">
<title>LbCa</title>
<path fill="none" stroke="black" d="M314.5,-592C314.5,-592 270.5,-592 270.5,-592 264.5,-592 258.5,-586 258.5,-580 258.5,-580 258.5,-568 258.5,-568 258.5,-562 264.5,-556 270.5,-556 270.5,-556 314.5,-556 314.5,-556 320.5,-556 326.5,-562 326.5,-568 326.5,-568 326.5,-580 326.5,-580 326.5,-586 320.5,-592 314.5,-592"/>
<text text-anchor="middle" x="292.5" y="-570.3" font-family="Times New Roman,serif" font-size="14.00">Database</text>
</g>
<!-- Laca&#45;&gt;LbCa -->
<g id="edge2" class="edge">
<title>Laca&#45;&gt;LbCa</title>
<path fill="none" stroke="black" d="M69.79,-412.22C83.54,-431.68 107.3,-462.59 133,-484 168.78,-513.81 215.8,-539.09 249.32,-555.19"/>
<polygon fill="black" stroke="black" points="247.85,-558.37 258.39,-559.49 250.85,-552.05 247.85,-558.37"/>
</g>
<!-- LbCb -->
<g id="node5" class="node">
<title>LbCb</title>
<path fill="none" stroke="black" d="M313,-52C313,-52 272,-52 272,-52 266,-52 260,-46 260,-40 260,-40 260,-28 260,-28 260,-22 266,-16 272,-16 272,-16 313,-16 313,-16 319,-16 325,-22 325,-28 325,-28 325,-40 325,-40 325,-46 319,-52 313,-52"/>
<text text-anchor="middle" x="292.5" y="-30.3" font-family="Times New Roman,serif" font-size="14.00">Dag files</text>
</g>
<!-- Laca&#45;&gt;LbCb -->
<g id="edge3" class="edge">
<title>Laca&#45;&gt;LbCb</title>
<path fill="none" stroke="black" d="M57.96,-375.82C60.04,-329.07 71.4,-202.8 133,-124 162.93,-85.72 213.98,-60.98 250.05,-47.31"/>
<polygon fill="black" stroke="black" points="251.61,-50.47 259.8,-43.75 249.2,-43.89 251.61,-50.47"/>
</g>
<!-- LaCb&#45;&gt;LbCa -->
<g id="edge4" class="edge">
<title>LaCb&#45;&gt;LbCa</title>
<path fill="none" stroke="black" d="M182.32,-412.25C203.93,-444.27 248.76,-510.68 273.73,-547.67"/>
<polygon fill="black" stroke="black" points="270.83,-549.64 279.33,-555.97 276.64,-545.72 270.83,-549.64"/>
</g>
<!-- LaCb&#45;&gt;LbCb -->
<g id="edge5" class="edge">
<title>LaCb&#45;&gt;LbCb</title>
<path fill="none" stroke="black" d="M178.28,-375.73C186.13,-357.79 197.77,-329.48 205,-304 223.75,-237.92 211.31,-217.18 233,-152 243.85,-119.39 262.12,-84.4 275.36,-61.06"/>
<polygon fill="black" stroke="black" points="278.56,-62.53 280.52,-52.12 272.49,-59.04 278.56,-62.53"/>
</g>
<!-- LbCc -->
<g id="node6" class="node">
<title>LbCc</title>
<path fill="none" stroke="black" d="M332,-412C332,-412 253,-412 253,-412 247,-412 241,-406 241,-400 241,-400 241,-388 241,-388 241,-382 247,-376 253,-376 253,-376 332,-376 332,-376 338,-376 344,-382 344,-388 344,-388 344,-400 344,-400 344,-406 338,-412 332,-412"/>
<text text-anchor="middle" x="292.5" y="-390.3" font-family="Times New Roman,serif" font-size="14.00">Result backend</text>
</g>
<!-- LaCb&#45;&gt;LbCc -->
<g id="edge6" class="edge">
<title>LaCb&#45;&gt;LbCc</title>
<path fill="none" stroke="black" d="M201.61,-394C210.57,-394 220.64,-394 230.72,-394"/>
<polygon fill="black" stroke="black" points="230.76,-397.5 240.76,-394 230.76,-390.5 230.76,-397.5"/>
</g>
<!-- LbCd -->
<g id="node7" class="node">
<title>LbCd</title>
<path fill="none" stroke="black" d="M327,-232C327,-232 258,-232 258,-232 252,-232 246,-226 246,-220 246,-220 246,-208 246,-208 246,-202 252,-196 258,-196 258,-196 327,-196 327,-196 333,-196 339,-202 339,-208 339,-208 339,-220 339,-220 339,-226 333,-232 327,-232"/>
<text text-anchor="middle" x="292.5" y="-210.3" font-family="Times New Roman,serif" font-size="14.00">Queue broker</text>
</g>
<!-- LaCb&#45;&gt;LbCd -->
<g id="edge7" class="edge">
<title>LaCb&#45;&gt;LbCd</title>
<path fill="none" stroke="black" d="M182.32,-375.75C203.93,-343.73 248.76,-277.32 273.73,-240.33"/>
<polygon fill="black" stroke="black" points="276.64,-242.28 279.33,-232.03 270.83,-238.36 276.64,-242.28"/>
</g>
<!-- LaCc -->
<g id="node3" class="node">
<title>LaCc</title>
<path fill="none" stroke="black" d="M193,-232C193,-232 145,-232 145,-232 139,-232 133,-226 133,-220 133,-220 133,-208 133,-208 133,-202 139,-196 145,-196 145,-196 193,-196 193,-196 199,-196 205,-202 205,-208 205,-208 205,-220 205,-220 205,-226 199,-232 193,-232"/>
<text text-anchor="middle" x="169" y="-210.3" font-family="Times New Roman,serif" font-size="14.00">Scheduler</text>
</g>
<!-- LaCc&#45;&gt;LbCa -->
<g id="edge8" class="edge">
<title>LaCc&#45;&gt;LbCa</title>
<path fill="none" stroke="black" d="M178.41,-232.23C186.36,-250.14 198.07,-278.43 205,-304 225.61,-380.02 205.6,-405.15 233,-479 242.21,-503.81 258.25,-529.2 271.21,-547.48"/>
<polygon fill="black" stroke="black" points="268.58,-549.81 277.28,-555.85 274.24,-545.7 268.58,-549.81"/>
</g>
<!-- LaCc&#45;&gt;LbCb -->
<g id="edge9" class="edge">
<title>LaCc&#45;&gt;LbCb</title>
<path fill="none" stroke="black" d="M182.32,-195.75C203.93,-163.73 248.76,-97.32 273.73,-60.33"/>
<polygon fill="black" stroke="black" points="276.64,-62.28 279.33,-52.03 270.83,-58.36 276.64,-62.28"/>
</g>
<!-- LaCc&#45;&gt;LbCc -->
<g id="edge10" class="edge">
<title>LaCc&#45;&gt;LbCc</title>
<path fill="none" stroke="black" d="M182.32,-232.25C203.93,-264.27 248.76,-330.68 273.73,-367.67"/>
<polygon fill="black" stroke="black" points="270.83,-369.64 279.33,-375.97 276.64,-365.72 270.83,-369.64"/>
</g>
<!-- LaCc&#45;&gt;LbCd -->
<g id="edge11" class="edge">
<title>LaCc&#45;&gt;LbCd</title>
<path fill="none" stroke="black" d="M205.14,-214C214.6,-214 225.08,-214 235.38,-214"/>
<polygon fill="black" stroke="black" points="235.57,-217.5 245.57,-214 235.57,-210.5 235.57,-217.5"/>
</g>
</g>
</svg>
