<?xml version="1.0" encoding="UTF-8" standalone="no"?>
<!DOCTYPE svg PUBLIC "-//W3C//DTD SVG 1.1//EN"
 "http://www.w3.org/Graphics/SVG/1.1/DTD/svg11.dtd">
<!-- Generated by graphviz version 3.0.0 (20220226.1711)
 -->
<!-- Pages: 1 -->
<svg width="868pt" height="1016pt"
 viewBox="0.00 0.00 868.00 1016.00" xmlns="http://www.w3.org/2000/svg" xmlns:xlink="http://www.w3.org/1999/xlink">
<g id="graph0" class="graph" transform="scale(1 1) rotate(0) translate(4 1012)">
<polygon fill="white" stroke="transparent" points="-4,4 -4,-1012 864,-1012 864,4 -4,4"/>
<!-- celery -->
<g id="node1" class="node">
<title>celery</title>
<path fill="none" stroke="black" d="M42,-522C42,-522 12,-522 12,-522 6,-522 0,-516 0,-510 0,-510 0,-498 0,-498 0,-492 6,-486 12,-486 12,-486 42,-486 42,-486 48,-486 54,-492 54,-498 54,-498 54,-510 54,-510 54,-516 48,-522 42,-522"/>
<text text-anchor="middle" x="27" y="-500.3" font-family="Times New Roman,serif" font-size="14.00">celery</text>
</g>
<!-- amqp -->
<g id="node2" class="node">
<title>amqp</title>
<path fill="none" stroke="black" d="M136,-1008C136,-1008 106,-1008 106,-1008 100,-1008 94,-1002 94,-996 94,-996 94,-984 94,-984 94,-978 100,-972 106,-972 106,-972 136,-972 136,-972 142,-972 148,-978 148,-984 148,-984 148,-996 148,-996 148,-1002 142,-1008 136,-1008"/>
<text text-anchor="middle" x="121" y="-986.3" font-family="Times New Roman,serif" font-size="14.00">amqp</text>
</g>
<!-- celery&#45;&gt;amqp -->
<g id="edge1" class="edge">
<title>celery&#45;&gt;amqp</title>
<path fill="none" stroke="black" d="M28.8,-522.22C32.33,-597.51 48.35,-884.17 90,-963 90.1,-963.19 90.21,-963.39 90.31,-963.58"/>
<polygon fill="black" stroke="black" points="87.48,-965.64 96.17,-971.7 93.16,-961.55 87.48,-965.64"/>
</g>
<!-- beat -->
<g id="node4" class="node">
<title>beat</title>
<path fill="none" stroke="black" d="M136,-954C136,-954 106,-954 106,-954 100,-954 94,-948 94,-942 94,-942 94,-930 94,-930 94,-924 100,-918 106,-918 106,-918 136,-918 136,-918 142,-918 148,-924 148,-930 148,-930 148,-942 148,-942 148,-948 142,-954 136,-954"/>
<text text-anchor="middle" x="121" y="-932.3" font-family="Times New Roman,serif" font-size="14.00">beat</text>
</g>
<!-- celery&#45;&gt;beat -->
<g id="edge3" class="edge">
<title>celery&#45;&gt;beat</title>
<path fill="none" stroke="black" d="M29.16,-522.16C33.85,-591.67 52.92,-840.3 90,-909 90.16,-909.3 90.33,-909.6 90.5,-909.9"/>
<polygon fill="black" stroke="black" points="87.74,-912.05 96.51,-918 93.36,-907.88 87.74,-912.05"/>
</g>
<!-- call -->
<g id="node6" class="node">
<title>call</title>
<path fill="none" stroke="black" d="M136,-900C136,-900 106,-900 106,-900 100,-900 94,-894 94,-888 94,-888 94,-876 94,-876 94,-870 100,-864 106,-864 106,-864 136,-864 136,-864 142,-864 148,-870 148,-876 148,-876 148,-888 148,-888 148,-894 142,-900 136,-900"/>
<text text-anchor="middle" x="121" y="-878.3" font-family="Times New Roman,serif" font-size="14.00">call</text>
</g>
<!-- celery&#45;&gt;call -->
<g id="edge5" class="edge">
<title>celery&#45;&gt;call</title>
<path fill="none" stroke="black" d="M29.65,-522.31C35.63,-585.88 57.51,-796.42 90,-855 90.17,-855.3 90.34,-855.6 90.51,-855.89"/>
<polygon fill="black" stroke="black" points="87.77,-858.07 96.58,-863.96 93.36,-853.86 87.77,-858.07"/>
</g>
<!-- control -->
<g id="node8" class="node">
<title>control</title>
<path fill="none" stroke="black" d="M137,-846C137,-846 105,-846 105,-846 99,-846 93,-840 93,-834 93,-834 93,-822 93,-822 93,-816 99,-810 105,-810 105,-810 137,-810 137,-810 143,-810 149,-816 149,-822 149,-822 149,-834 149,-834 149,-840 143,-846 137,-846"/>
<text text-anchor="middle" x="121" y="-824.3" font-family="Times New Roman,serif" font-size="14.00">control</text>
</g>
<!-- celery&#45;&gt;control -->
<g id="edge7" class="edge">
<title>celery&#45;&gt;control</title>
<path fill="none" stroke="black" d="M27.97,-522.09C28.65,-570.63 35.64,-706.48 90,-801 90.17,-801.3 90.34,-801.59 90.52,-801.88"/>
<polygon fill="black" stroke="black" points="87.81,-804.1 96.67,-809.91 93.37,-799.84 87.81,-804.1"/>
</g>
<!-- events -->
<g id="node10" class="node">
<title>events</title>
<path fill="none" stroke="black" d="M136,-792C136,-792 106,-792 106,-792 100,-792 94,-786 94,-780 94,-780 94,-768 94,-768 94,-762 100,-756 106,-756 106,-756 136,-756 136,-756 142,-756 148,-762 148,-768 148,-768 148,-780 148,-780 148,-786 142,-792 136,-792"/>
<text text-anchor="middle" x="121" y="-770.3" font-family="Times New Roman,serif" font-size="14.00">events</text>
</g>
<!-- celery&#45;&gt;events -->
<g id="edge9" class="edge">
<title>celery&#45;&gt;events</title>
<path fill="none" stroke="black" d="M29.06,-522.14C32.26,-564.49 44.6,-671.93 90,-747 90.18,-747.29 90.36,-747.58 90.54,-747.87"/>
<polygon fill="black" stroke="black" points="87.87,-750.13 96.8,-755.83 93.37,-745.81 87.87,-750.13"/>
</g>
<!-- flower -->
<g id="node12" class="node">
<title>flower</title>
<path fill="none" stroke="black" d="M136,-738C136,-738 106,-738 106,-738 100,-738 94,-732 94,-726 94,-726 94,-714 94,-714 94,-708 100,-702 106,-702 106,-702 136,-702 136,-702 142,-702 148,-708 148,-714 148,-714 148,-726 148,-726 148,-732 142,-738 136,-738"/>
<text text-anchor="middle" x="121" y="-716.3" font-family="Times New Roman,serif" font-size="14.00">flower</text>
</g>
<!-- celery&#45;&gt;flower -->
<g id="edge11" class="edge">
<title>celery&#45;&gt;flower</title>
<path fill="none" stroke="black" d="M30.71,-522.01C36.68,-557.27 53.43,-636.87 90,-693 90.19,-693.29 90.38,-693.57 90.57,-693.86"/>
<polygon fill="black" stroke="black" points="87.96,-696.19 97,-701.71 93.37,-691.75 87.96,-696.19"/>
</g>
<!-- graph -->
<g id="node14" class="node">
<title>graph</title>
<path fill="none" stroke="black" d="M136,-684C136,-684 106,-684 106,-684 100,-684 94,-678 94,-672 94,-672 94,-660 94,-660 94,-654 100,-648 106,-648 106,-648 136,-648 136,-648 142,-648 148,-654 148,-660 148,-660 148,-672 148,-672 148,-678 142,-684 136,-684"/>
<text text-anchor="middle" x="121" y="-662.3" font-family="Times New Roman,serif" font-size="14.00">graph</text>
</g>
<!-- celery&#45;&gt;graph -->
<g id="edge13" class="edge">
<title>celery&#45;&gt;graph</title>
<path fill="none" stroke="black" d="M33.72,-522.29C42.8,-549.48 62.34,-601.4 90,-639 90.28,-639.38 90.57,-639.76 90.86,-640.14"/>
<polygon fill="black" stroke="black" points="88.38,-642.62 97.63,-647.79 93.62,-637.98 88.38,-642.62"/>
</g>
<!-- inspect -->
<g id="node16" class="node">
<title>inspect</title>
<path fill="none" stroke="black" d="M137,-630C137,-630 105,-630 105,-630 99,-630 93,-624 93,-618 93,-618 93,-606 93,-606 93,-600 99,-594 105,-594 105,-594 137,-594 137,-594 143,-594 149,-600 149,-606 149,-606 149,-618 149,-618 149,-624 143,-630 137,-630"/>
<text text-anchor="middle" x="121" y="-608.3" font-family="Times New Roman,serif" font-size="14.00">inspect</text>
</g>
<!-- celery&#45;&gt;inspect -->
<g id="edge15" class="edge">
<title>celery&#45;&gt;inspect</title>
<path fill="none" stroke="black" d="M40.41,-522.13C52.33,-539.07 71.26,-564.7 90,-585 90.52,-585.56 91.04,-586.12 91.58,-586.68"/>
<polygon fill="black" stroke="black" points="89.3,-589.35 98.87,-593.89 94.22,-584.37 89.3,-589.35"/>
</g>
<!-- list -->
<g id="node18" class="node">
<title>list</title>
<path fill="none" stroke="black" d="M136,-576C136,-576 106,-576 106,-576 100,-576 94,-570 94,-564 94,-564 94,-552 94,-552 94,-546 100,-540 106,-540 106,-540 136,-540 136,-540 142,-540 148,-546 148,-552 148,-552 148,-564 148,-564 148,-570 142,-576 136,-576"/>
<text text-anchor="middle" x="121" y="-554.3" font-family="Times New Roman,serif" font-size="14.00">list</text>
</g>
<!-- celery&#45;&gt;list -->
<g id="edge17" class="edge">
<title>celery&#45;&gt;list</title>
<path fill="none" stroke="black" d="M54.12,-519.33C63.73,-524.97 74.78,-531.46 85.05,-537.49"/>
<polygon fill="black" stroke="black" points="83.42,-540.59 93.82,-542.63 86.96,-534.55 83.42,-540.59"/>
</g>
<!-- logtool -->
<g id="node20" class="node">
<title>logtool</title>
<path fill="none" stroke="black" d="M137,-522C137,-522 105,-522 105,-522 99,-522 93,-516 93,-510 93,-510 93,-498 93,-498 93,-492 99,-486 105,-486 105,-486 137,-486 137,-486 143,-486 149,-492 149,-498 149,-498 149,-510 149,-510 149,-516 143,-522 137,-522"/>
<text text-anchor="middle" x="121" y="-500.3" font-family="Times New Roman,serif" font-size="14.00">logtool</text>
</g>
<!-- celery&#45;&gt;logtool -->
<g id="edge19" class="edge">
<title>celery&#45;&gt;logtool</title>
<path fill="none" stroke="black" d="M54.12,-504C63.01,-504 73.14,-504 82.73,-504"/>
<polygon fill="black" stroke="black" points="82.86,-507.5 92.86,-504 82.86,-500.5 82.86,-507.5"/>
</g>
<!-- migrate -->
<g id="node22" class="node">
<title>migrate</title>
<path fill="none" stroke="black" d="M137.5,-468C137.5,-468 104.5,-468 104.5,-468 98.5,-468 92.5,-462 92.5,-456 92.5,-456 92.5,-444 92.5,-444 92.5,-438 98.5,-432 104.5,-432 104.5,-432 137.5,-432 137.5,-432 143.5,-432 149.5,-438 149.5,-444 149.5,-444 149.5,-456 149.5,-456 149.5,-462 143.5,-468 137.5,-468"/>
<text text-anchor="middle" x="121" y="-446.3" font-family="Times New Roman,serif" font-size="14.00">migrate</text>
</g>
<!-- celery&#45;&gt;migrate -->
<g id="edge21" class="edge">
<title>celery&#45;&gt;migrate</title>
<path fill="none" stroke="black" d="M54.12,-488.67C63.23,-483.32 73.63,-477.22 83.43,-471.47"/>
<polygon fill="black" stroke="black" points="85.36,-474.39 92.21,-466.31 81.81,-468.36 85.36,-474.39"/>
</g>
<!-- multi -->
<g id="node24" class="node">
<title>multi</title>
<path fill="none" stroke="black" d="M136,-414C136,-414 106,-414 106,-414 100,-414 94,-408 94,-402 94,-402 94,-390 94,-390 94,-384 100,-378 106,-378 106,-378 136,-378 136,-378 142,-378 148,-384 148,-390 148,-390 148,-402 148,-402 148,-408 142,-414 136,-414"/>
<text text-anchor="middle" x="121" y="-392.3" font-family="Times New Roman,serif" font-size="14.00">multi</text>
</g>
<!-- celery&#45;&gt;multi -->
<g id="edge23" class="edge">
<title>celery&#45;&gt;multi</title>
<path fill="none" stroke="black" d="M40.41,-485.87C52.33,-468.93 71.26,-443.3 90,-423 90.52,-422.44 91.04,-421.88 91.58,-421.32"/>
<polygon fill="black" stroke="black" points="94.22,-423.63 98.87,-414.11 89.3,-418.65 94.22,-423.63"/>
</g>
<!-- purge -->
<g id="node26" class="node">
<title>purge</title>
<path fill="none" stroke="black" d="M136,-360C136,-360 106,-360 106,-360 100,-360 94,-354 94,-348 94,-348 94,-336 94,-336 94,-330 100,-324 106,-324 106,-324 136,-324 136,-324 142,-324 148,-330 148,-336 148,-336 148,-348 148,-348 148,-354 142,-360 136,-360"/>
<text text-anchor="middle" x="121" y="-338.3" font-family="Times New Roman,serif" font-size="14.00">purge</text>
</g>
<!-- celery&#45;&gt;purge -->
<g id="edge25" class="edge">
<title>celery&#45;&gt;purge</title>
<path fill="none" stroke="black" d="M33.72,-485.71C42.8,-458.52 62.34,-406.6 90,-369 90.28,-368.62 90.57,-368.24 90.86,-367.86"/>
<polygon fill="black" stroke="black" points="93.62,-370.02 97.63,-360.21 88.38,-365.38 93.62,-370.02"/>
</g>
<!-- report -->
<g id="node28" class="node">
<title>report</title>
<path fill="none" stroke="black" d="M136,-306C136,-306 106,-306 106,-306 100,-306 94,-300 94,-294 94,-294 94,-282 94,-282 94,-276 100,-270 106,-270 106,-270 136,-270 136,-270 142,-270 148,-276 148,-282 148,-282 148,-294 148,-294 148,-300 142,-306 136,-306"/>
<text text-anchor="middle" x="121" y="-284.3" font-family="Times New Roman,serif" font-size="14.00">report</text>
</g>
<!-- celery&#45;&gt;report -->
<g id="edge27" class="edge">
<title>celery&#45;&gt;report</title>
<path fill="none" stroke="black" d="M30.71,-485.99C36.68,-450.73 53.43,-371.13 90,-315 90.19,-314.71 90.38,-314.43 90.57,-314.14"/>
<polygon fill="black" stroke="black" points="93.37,-316.25 97,-306.29 87.96,-311.81 93.37,-316.25"/>
</g>
<!-- result -->
<g id="node30" class="node">
<title>result</title>
<path fill="none" stroke="black" d="M136,-252C136,-252 106,-252 106,-252 100,-252 94,-246 94,-240 94,-240 94,-228 94,-228 94,-222 100,-216 106,-216 106,-216 136,-216 136,-216 142,-216 148,-222 148,-228 148,-228 148,-240 148,-240 148,-246 142,-252 136,-252"/>
<text text-anchor="middle" x="121" y="-230.3" font-family="Times New Roman,serif" font-size="14.00">result</text>
</g>
<!-- celery&#45;&gt;result -->
<g id="edge29" class="edge">
<title>celery&#45;&gt;result</title>
<path fill="none" stroke="black" d="M29.06,-485.86C32.26,-443.51 44.6,-336.07 90,-261 90.18,-260.71 90.36,-260.42 90.54,-260.13"/>
<polygon fill="black" stroke="black" points="93.37,-262.19 96.8,-252.17 87.87,-257.87 93.37,-262.19"/>
</g>
<!-- shell -->
<g id="node32" class="node">
<title>shell</title>
<path fill="none" stroke="black" d="M136,-198C136,-198 106,-198 106,-198 100,-198 94,-192 94,-186 94,-186 94,-174 94,-174 94,-168 100,-162 106,-162 106,-162 136,-162 136,-162 142,-162 148,-168 148,-174 148,-174 148,-186 148,-186 148,-192 142,-198 136,-198"/>
<text text-anchor="middle" x="121" y="-176.3" font-family="Times New Roman,serif" font-size="14.00">shell</text>
</g>
<!-- celery&#45;&gt;shell -->
<g id="edge31" class="edge">
<title>celery&#45;&gt;shell</title>
<path fill="none" stroke="black" d="M27.97,-485.91C28.65,-437.37 35.64,-301.52 90,-207 90.17,-206.7 90.34,-206.41 90.52,-206.12"/>
<polygon fill="black" stroke="black" points="93.37,-208.16 96.67,-198.09 87.81,-203.9 93.37,-208.16"/>
</g>
<!-- status -->
<g id="node34" class="node">
<title>status</title>
<path fill="none" stroke="black" d="M136,-144C136,-144 106,-144 106,-144 100,-144 94,-138 94,-132 94,-132 94,-120 94,-120 94,-114 100,-108 106,-108 106,-108 136,-108 136,-108 142,-108 148,-114 148,-120 148,-120 148,-132 148,-132 148,-138 142,-144 136,-144"/>
<text text-anchor="middle" x="121" y="-122.3" font-family="Times New Roman,serif" font-size="14.00">status</text>
</g>
<!-- celery&#45;&gt;status -->
<g id="edge33" class="edge">
<title>celery&#45;&gt;status</title>
<path fill="none" stroke="black" d="M29.65,-485.69C35.63,-422.12 57.51,-211.58 90,-153 90.17,-152.7 90.34,-152.4 90.51,-152.11"/>
<polygon fill="black" stroke="black" points="93.36,-154.14 96.58,-144.04 87.77,-149.93 93.36,-154.14"/>
</g>
<!-- upgrade -->
<g id="node36" class="node">
<title>upgrade</title>
<path fill="none" stroke="black" d="M140,-90C140,-90 102,-90 102,-90 96,-90 90,-84 90,-78 90,-78 90,-66 90,-66 90,-60 96,-54 102,-54 102,-54 140,-54 140,-54 146,-54 152,-60 152,-66 152,-66 152,-78 152,-78 152,-84 146,-90 140,-90"/>
<text text-anchor="middle" x="121" y="-68.3" font-family="Times New Roman,serif" font-size="14.00">upgrade</text>
</g>
<!-- celery&#45;&gt;upgrade -->
<g id="edge35" class="edge">
<title>celery&#45;&gt;upgrade</title>
<path fill="none" stroke="black" d="M29.16,-485.84C33.85,-416.33 52.92,-167.7 90,-99 90.16,-98.7 90.33,-98.4 90.5,-98.1"/>
<polygon fill="black" stroke="black" points="93.36,-100.12 96.51,-90 87.74,-95.95 93.36,-100.12"/>
</g>
<!-- worker -->
<g id="node38" class="node">
<title>worker</title>
<path fill="none" stroke="black" d="M137,-36C137,-36 105,-36 105,-36 99,-36 93,-30 93,-24 93,-24 93,-12 93,-12 93,-6 99,0 105,0 105,0 137,0 137,0 143,0 149,-6 149,-12 149,-12 149,-24 149,-24 149,-30 143,-36 137,-36"/>
<text text-anchor="middle" x="121" y="-14.3" font-family="Times New Roman,serif" font-size="14.00">worker</text>
</g>
<!-- celery&#45;&gt;worker -->
<g id="edge37" class="edge">
<title>celery&#45;&gt;worker</title>
<path fill="none" stroke="black" d="M28.8,-485.78C32.33,-410.49 48.35,-123.83 90,-45 90.1,-44.81 90.21,-44.61 90.31,-44.42"/>
<polygon fill="black" stroke="black" points="93.16,-46.45 96.17,-36.3 87.48,-42.36 93.16,-46.45"/>
</g>
<!-- amqp_next -->
<g id="node3" class="node">
<title>amqp_next</title>
<path fill="none" stroke="black" d="M457,-1008C457,-1008 304,-1008 304,-1008 298,-1008 292,-1002 292,-996 292,-996 292,-984 292,-984 292,-978 298,-972 304,-972 304,-972 457,-972 457,-972 463,-972 469,-978 469,-984 469,-984 469,-996 469,-996 469,-1002 463,-1008 457,-1008"/>
<text text-anchor="middle" x="380.5" y="-986.3" font-family="Times New Roman,serif" font-size="14.00">AMQP Administration Shell.</text>
</g>
<!-- amqp&#45;&gt;amqp_next -->
<g id="edge2" class="edge">
<title>amqp&#45;&gt;amqp_next</title>
<path fill="none" stroke="black" d="M148.11,-990C179.38,-990 233.59,-990 281.67,-990"/>
<polygon fill="black" stroke="black" points="281.83,-993.5 291.83,-990 281.83,-986.5 281.83,-993.5"/>
</g>
<!-- beat_next -->
<g id="node5" class="node">
<title>beat_next</title>
<path fill="none" stroke="black" d="M482,-954C482,-954 279,-954 279,-954 273,-954 267,-948 267,-942 267,-942 267,-930 267,-930 267,-924 273,-918 279,-918 279,-918 482,-918 482,-918 488,-918 494,-924 494,-930 494,-930 494,-942 494,-942 494,-948 488,-954 482,-954"/>
<text text-anchor="middle" x="380.5" y="-932.3" font-family="Times New Roman,serif" font-size="14.00">Start the beat periodic task scheduler.</text>
</g>
<!-- beat&#45;&gt;beat_next -->
<g id="edge4" class="edge">
<title>beat&#45;&gt;beat_next</title>
<path fill="none" stroke="black" d="M148.11,-936C174.03,-936 215.72,-936 256.62,-936"/>
<polygon fill="black" stroke="black" points="256.71,-939.5 266.71,-936 256.71,-932.5 256.71,-939.5"/>
</g>
<!-- call_next -->
<g id="node7" class="node">
<title>call_next</title>
<path fill="none" stroke="black" d="M433,-900C433,-900 328,-900 328,-900 322,-900 316,-894 316,-888 316,-888 316,-876 316,-876 316,-870 322,-864 328,-864 328,-864 433,-864 433,-864 439,-864 445,-870 445,-876 445,-876 445,-888 445,-888 445,-894 439,-900 433,-900"/>
<text text-anchor="middle" x="380.5" y="-878.3" font-family="Times New Roman,serif" font-size="14.00">Call a task by name.</text>
</g>
<!-- call&#45;&gt;call_next -->
<g id="edge6" class="edge">
<title>call&#45;&gt;call_next</title>
<path fill="none" stroke="black" d="M148.11,-882C184.74,-882 252.84,-882 305.72,-882"/>
<polygon fill="black" stroke="black" points="305.74,-885.5 315.74,-882 305.74,-878.5 305.74,-885.5"/>
</g>
<!-- control_next -->
<g id="node9" class="node">
<title>control_next</title>
<path fill="none" stroke="black" d="M446,-846C446,-846 315,-846 315,-846 309,-846 303,-840 303,-834 303,-834 303,-822 303,-822 303,-816 309,-810 315,-810 315,-810 446,-810 446,-810 452,-810 458,-816 458,-822 458,-822 458,-834 458,-834 458,-840 452,-846 446,-846"/>
<text text-anchor="middle" x="380.5" y="-824.3" font-family="Times New Roman,serif" font-size="14.00">Workers remote control.</text>
</g>
<!-- control&#45;&gt;control_next -->
<g id="edge8" class="edge">
<title>control&#45;&gt;control_next</title>
<path fill="none" stroke="black" d="M149.07,-828C182.96,-828 242.64,-828 292.77,-828"/>
<polygon fill="black" stroke="black" points="292.99,-831.5 302.99,-828 292.99,-824.5 292.99,-831.5"/>
</g>
<!-- events_next -->
<g id="node11" class="node">
<title>events_next</title>
<path fill="none" stroke="black" d="M436,-792C436,-792 325,-792 325,-792 319,-792 313,-786 313,-780 313,-780 313,-768 313,-768 313,-762 319,-756 325,-756 325,-756 436,-756 436,-756 442,-756 448,-762 448,-768 448,-768 448,-780 448,-780 448,-786 442,-792 436,-792"/>
<text text-anchor="middle" x="380.5" y="-770.3" font-family="Times New Roman,serif" font-size="14.00">Event&#45;stream utilities.</text>
</g>
<!-- events&#45;&gt;events_next -->
<g id="edge10" class="edge">
<title>events&#45;&gt;events_next</title>
<path fill="none" stroke="black" d="M148.11,-774C184.01,-774 250.12,-774 302.52,-774"/>
<polygon fill="black" stroke="black" points="302.8,-777.5 312.8,-774 302.8,-770.5 302.8,-777.5"/>
</g>
<!-- flower_next -->
<g id="node13" class="node">
<title>flower_next</title>
<path fill="none" stroke="black" d="M561,-738C561,-738 200,-738 200,-738 194,-738 188,-732 188,-726 188,-726 188,-714 188,-714 188,-708 194,-702 200,-702 200,-702 561,-702 561,-702 567,-702 573,-708 573,-714 573,-714 573,-726 573,-726 573,-732 567,-738 561,-738"/>
<text text-anchor="middle" x="380.5" y="-716.3" font-family="Times New Roman,serif" font-size="14.00">Web based tool for monitoring and administrating Celery clusters.</text>
</g>
<!-- flower&#45;&gt;flower_next -->
<g id="edge12" class="edge">
<title>flower&#45;&gt;flower_next</title>
<path fill="none" stroke="black" d="M148.11,-720C156.51,-720 166.58,-720 177.73,-720"/>
<polygon fill="black" stroke="black" points="177.8,-723.5 187.8,-720 177.8,-716.5 177.8,-723.5"/>
</g>
<!-- graph_next -->
<g id="node15" class="node">
<title>graph_next</title>
<path fill="none" stroke="black" d="M464,-684C464,-684 297,-684 297,-684 291,-684 285,-678 285,-672 285,-672 285,-660 285,-660 285,-654 291,-648 297,-648 297,-648 464,-648 464,-648 470,-648 476,-654 476,-660 476,-660 476,-672 476,-672 476,-678 470,-684 464,-684"/>
<text text-anchor="middle" x="380.5" y="-662.3" font-family="Times New Roman,serif" font-size="14.00">The ``celery graph`` command.</text>
</g>
<!-- graph&#45;&gt;graph_next -->
<g id="edge14" class="edge">
<title>graph&#45;&gt;graph_next</title>
<path fill="none" stroke="black" d="M148.11,-666C177.89,-666 228.46,-666 274.74,-666"/>
<polygon fill="black" stroke="black" points="274.85,-669.5 284.85,-666 274.85,-662.5 274.85,-669.5"/>
</g>
<!-- inspect_next -->
<g id="node17" class="node">
<title>inspect_next</title>
<path fill="none" stroke="black" d="M460,-630C460,-630 301,-630 301,-630 295,-630 289,-624 289,-618 289,-618 289,-606 289,-606 289,-600 295,-594 301,-594 301,-594 460,-594 460,-594 466,-594 472,-600 472,-606 472,-606 472,-618 472,-618 472,-624 466,-630 460,-630"/>
<text text-anchor="middle" x="380.5" y="-608.3" font-family="Times New Roman,serif" font-size="14.00">Inspect the worker at runtime.</text>
</g>
<!-- inspect&#45;&gt;inspect_next -->
<g id="edge16" class="edge">
<title>inspect&#45;&gt;inspect_next</title>
<path fill="none" stroke="black" d="M149.07,-612C179.81,-612 231.77,-612 278.58,-612"/>
<polygon fill="black" stroke="black" points="278.79,-615.5 288.79,-612 278.79,-608.5 278.79,-615.5"/>
</g>
<!-- celery &#45;A celery_tasks.main inspect report -->
<g id="node41" class="node">
<title>celery &#45;A celery_tasks.main inspect report</title>
<path fill="none" stroke="black" d="M848,-630C848,-630 621,-630 621,-630 615,-630 609,-624 609,-618 609,-618 609,-606 609,-606 609,-600 615,-594 621,-594 621,-594 848,-594 848,-594 854,-594 860,-600 860,-606 860,-606 860,-618 860,-618 860,-624 854,-630 848,-630"/>
<text text-anchor="middle" x="734.5" y="-608.3" font-family="Times New Roman,serif" font-size="14.00">celery &#45;A celery_tasks.main inspect report</text>
</g>
<!-- inspect_next&#45;&gt;celery &#45;A celery_tasks.main inspect report -->
<g id="edge40" class="edge">
<title>inspect_next&#45;&gt;celery &#45;A celery_tasks.main inspect report</title>
<path fill="none" stroke="black" d="M472.15,-612C510.62,-612 556.27,-612 598.57,-612"/>
<polygon fill="black" stroke="black" points="598.67,-615.5 608.67,-612 598.67,-608.5 598.67,-615.5"/>
</g>
<!-- list_next -->
<g id="node19" class="node">
<title>list_next</title>
<path fill="none" stroke="black" d="M437,-576C437,-576 324,-576 324,-576 318,-576 312,-570 312,-564 312,-564 312,-552 312,-552 312,-546 318,-540 324,-540 324,-540 437,-540 437,-540 443,-540 449,-546 449,-552 449,-552 449,-564 449,-564 449,-570 443,-576 437,-576"/>
<text text-anchor="middle" x="380.5" y="-554.3" font-family="Times New Roman,serif" font-size="14.00">Get info from broker.</text>
</g>
<!-- list&#45;&gt;list_next -->
<g id="edge18" class="edge">
<title>list&#45;&gt;list_next</title>
<path fill="none" stroke="black" d="M148.11,-558C183.83,-558 249.46,-558 301.73,-558"/>
<polygon fill="black" stroke="black" points="301.99,-561.5 311.99,-558 301.99,-554.5 301.99,-561.5"/>
</g>
<!-- logtool_next -->
<g id="node21" class="node">
<title>logtool_next</title>
<path fill="none" stroke="black" d="M468,-522C468,-522 293,-522 293,-522 287,-522 281,-516 281,-510 281,-510 281,-498 281,-498 281,-492 287,-486 293,-486 293,-486 468,-486 468,-486 474,-486 480,-492 480,-498 480,-498 480,-510 480,-510 480,-516 474,-522 468,-522"/>
<text text-anchor="middle" x="380.5" y="-500.3" font-family="Times New Roman,serif" font-size="14.00">The ``celery logtool`` command.</text>
</g>
<!-- logtool&#45;&gt;logtool_next -->
<g id="edge20" class="edge">
<title>logtool&#45;&gt;logtool_next</title>
<path fill="none" stroke="black" d="M149.07,-504C178.12,-504 226.14,-504 270.84,-504"/>
<polygon fill="black" stroke="black" points="270.91,-507.5 280.91,-504 270.91,-500.5 270.91,-507.5"/>
</g>
<!-- migrate_next -->
<g id="node23" class="node">
<title>migrate_next</title>
<path fill="none" stroke="black" d="M493.5,-468C493.5,-468 267.5,-468 267.5,-468 261.5,-468 255.5,-462 255.5,-456 255.5,-456 255.5,-444 255.5,-444 255.5,-438 261.5,-432 267.5,-432 267.5,-432 493.5,-432 493.5,-432 499.5,-432 505.5,-438 505.5,-444 505.5,-444 505.5,-456 505.5,-456 505.5,-462 499.5,-468 493.5,-468"/>
<text text-anchor="middle" x="380.5" y="-446.3" font-family="Times New Roman,serif" font-size="14.00">Migrate tasks from one broker to another.</text>
</g>
<!-- migrate&#45;&gt;migrate_next -->
<g id="edge22" class="edge">
<title>migrate&#45;&gt;migrate_next</title>
<path fill="none" stroke="black" d="M149.56,-450C173.1,-450 208.83,-450 245.16,-450"/>
<polygon fill="black" stroke="black" points="245.41,-453.5 255.41,-450 245.41,-446.5 245.41,-453.5"/>
</g>
<!-- multi_next -->
<g id="node25" class="node">
<title>multi_next</title>
<path fill="none" stroke="black" d="M464,-414C464,-414 297,-414 297,-414 291,-414 285,-408 285,-402 285,-402 285,-390 285,-390 285,-384 291,-378 297,-378 297,-378 464,-378 464,-378 470,-378 476,-384 476,-390 476,-390 476,-402 476,-402 476,-408 470,-414 464,-414"/>
<text text-anchor="middle" x="380.5" y="-392.3" font-family="Times New Roman,serif" font-size="14.00">Start multiple worker instances.</text>
</g>
<!-- multi&#45;&gt;multi_next -->
<g id="edge24" class="edge">
<title>multi&#45;&gt;multi_next</title>
<path fill="none" stroke="black" d="M148.11,-396C177.89,-396 228.46,-396 274.74,-396"/>
<polygon fill="black" stroke="black" points="274.85,-399.5 284.85,-396 274.85,-392.5 274.85,-399.5"/>
</g>
<!-- purge_next -->
<g id="node27" class="node">
<title>purge_next</title>
<path fill="none" stroke="black" d="M509,-360C509,-360 252,-360 252,-360 246,-360 240,-354 240,-348 240,-348 240,-336 240,-336 240,-330 246,-324 252,-324 252,-324 509,-324 509,-324 515,-324 521,-330 521,-336 521,-336 521,-348 521,-348 521,-354 515,-360 509,-360"/>
<text text-anchor="middle" x="380.5" y="-338.3" font-family="Times New Roman,serif" font-size="14.00">Erase all messages from all known task queues.</text>
</g>
<!-- purge&#45;&gt;purge_next -->
<g id="edge26" class="edge">
<title>purge&#45;&gt;purge_next</title>
<path fill="none" stroke="black" d="M148.11,-342C168.3,-342 198.04,-342 229.53,-342"/>
<polygon fill="black" stroke="black" points="229.81,-345.5 239.81,-342 229.81,-338.5 229.81,-345.5"/>
</g>
<!-- report_next -->
<g id="node29" class="node">
<title>report_next</title>
<path fill="none" stroke="black" d="M520.5,-306C520.5,-306 240.5,-306 240.5,-306 234.5,-306 228.5,-300 228.5,-294 228.5,-294 228.5,-282 228.5,-282 228.5,-276 234.5,-270 240.5,-270 240.5,-270 520.5,-270 520.5,-270 526.5,-270 532.5,-276 532.5,-282 532.5,-282 532.5,-294 532.5,-294 532.5,-300 526.5,-306 520.5,-306"/>
<text text-anchor="middle" x="380.5" y="-284.3" font-family="Times New Roman,serif" font-size="14.00">Shows information useful to include in bug&#45;reports.</text>
</g>
<!-- report&#45;&gt;report_next -->
<g id="edge28" class="edge">
<title>report&#45;&gt;report_next</title>
<path fill="none" stroke="black" d="M148.11,-288C165.87,-288 191.03,-288 218.27,-288"/>
<polygon fill="black" stroke="black" points="218.39,-291.5 228.39,-288 218.39,-284.5 218.39,-291.5"/>
</g>
<!-- result_next -->
<g id="node31" class="node">
<title>result_next</title>
<path fill="none" stroke="black" d="M488,-252C488,-252 273,-252 273,-252 267,-252 261,-246 261,-240 261,-240 261,-228 261,-228 261,-222 267,-216 273,-216 273,-216 488,-216 488,-216 494,-216 500,-222 500,-228 500,-228 500,-240 500,-240 500,-246 494,-252 488,-252"/>
<text text-anchor="middle" x="380.5" y="-230.3" font-family="Times New Roman,serif" font-size="14.00">Print the return value for a given task id.</text>
</g>
<!-- result&#45;&gt;result_next -->
<g id="edge30" class="edge">
<title>result&#45;&gt;result_next</title>
<path fill="none" stroke="black" d="M148.11,-234C172.76,-234 211.65,-234 250.56,-234"/>
<polygon fill="black" stroke="black" points="250.98,-237.5 260.98,-234 250.98,-230.5 250.98,-237.5"/>
</g>
<!-- shell_next -->
<g id="node33" class="node">
<title>shell_next</title>
<path fill="none" stroke="black" d="M546,-198C546,-198 215,-198 215,-198 209,-198 203,-192 203,-186 203,-186 203,-174 203,-174 203,-168 209,-162 215,-162 215,-162 546,-162 546,-162 552,-162 558,-168 558,-174 558,-174 558,-186 558,-186 558,-192 552,-198 546,-198"/>
<text text-anchor="middle" x="380.5" y="-176.3" font-family="Times New Roman,serif" font-size="14.00">Start shell session with convenient access to celery symbols.</text>
</g>
<!-- shell&#45;&gt;shell_next -->
<g id="edge32" class="edge">
<title>shell&#45;&gt;shell_next</title>
<path fill="none" stroke="black" d="M148.11,-180C160.13,-180 175.55,-180 192.7,-180"/>
<polygon fill="black" stroke="black" points="192.99,-183.5 202.99,-180 192.99,-176.5 192.99,-183.5"/>
</g>
<!-- status_next -->
<g id="node35" class="node">
<title>status_next</title>
<path fill="none" stroke="black" d="M477.5,-144C477.5,-144 283.5,-144 283.5,-144 277.5,-144 271.5,-138 271.5,-132 271.5,-132 271.5,-120 271.5,-120 271.5,-114 277.5,-108 283.5,-108 283.5,-108 477.5,-108 477.5,-108 483.5,-108 489.5,-114 489.5,-120 489.5,-120 489.5,-132 489.5,-132 489.5,-138 483.5,-144 477.5,-144"/>
<text text-anchor="middle" x="380.5" y="-122.3" font-family="Times New Roman,serif" font-size="14.00">Show list of workers that are online.</text>
</g>
<!-- status&#45;&gt;status_next -->
<g id="edge34" class="edge">
<title>status&#45;&gt;status_next</title>
<path fill="none" stroke="black" d="M148.11,-126C174.98,-126 218.77,-126 261.07,-126"/>
<polygon fill="black" stroke="black" points="261.21,-129.5 271.21,-126 261.21,-122.5 261.21,-129.5"/>
</g>
<!-- celery &#45;A celery_tasks.main status -->
<g id="node40" class="node">
<title>celery &#45;A celery_tasks.main status</title>
<path fill="none" stroke="black" d="M825.5,-144C825.5,-144 643.5,-144 643.5,-144 637.5,-144 631.5,-138 631.5,-132 631.5,-132 631.5,-120 631.5,-120 631.5,-114 637.5,-108 643.5,-108 643.5,-108 825.5,-108 825.5,-108 831.5,-108 837.5,-114 837.5,-120 837.5,-120 837.5,-132 837.5,-132 837.5,-138 831.5,-144 825.5,-144"/>
<text text-anchor="middle" x="734.5" y="-122.3" font-family="Times New Roman,serif" font-size="14.00">celery &#45;A celery_tasks.main status</text>
</g>
<!-- status_next&#45;&gt;celery &#45;A celery_tasks.main status -->
<g id="edge39" class="edge">
<title>status_next&#45;&gt;celery &#45;A celery_tasks.main status</title>
<path fill="none" stroke="black" d="M489.5,-126C531.32,-126 579.19,-126 621.38,-126"/>
<polygon fill="black" stroke="black" points="621.42,-129.5 631.42,-126 621.42,-122.5 621.42,-129.5"/>
</g>
<!-- upgrade_next -->
<g id="node37" class="node">
<title>upgrade_next</title>
<path fill="none" stroke="black" d="M476,-90C476,-90 285,-90 285,-90 279,-90 273,-84 273,-78 273,-78 273,-66 273,-66 273,-60 279,-54 285,-54 285,-54 476,-54 476,-54 482,-54 488,-60 488,-66 488,-66 488,-78 488,-78 488,-84 482,-90 476,-90"/>
<text text-anchor="middle" x="380.5" y="-68.3" font-family="Times New Roman,serif" font-size="14.00">Perform upgrade between versions.</text>
</g>
<!-- upgrade&#45;&gt;upgrade_next -->
<g id="edge36" class="edge">
<title>upgrade&#45;&gt;upgrade_next</title>
<path fill="none" stroke="black" d="M152.04,-72C179.5,-72 221.91,-72 262.72,-72"/>
<polygon fill="black" stroke="black" points="262.77,-75.5 272.77,-72 262.77,-68.5 262.77,-75.5"/>
</g>
<!-- worker_next -->
<g id="node39" class="node">
<title>worker_next</title>
<path fill="none" stroke="black" d="M437.5,-36C437.5,-36 323.5,-36 323.5,-36 317.5,-36 311.5,-30 311.5,-24 311.5,-24 311.5,-12 311.5,-12 311.5,-6 317.5,0 323.5,0 323.5,0 437.5,0 437.5,0 443.5,0 449.5,-6 449.5,-12 449.5,-12 449.5,-24 449.5,-24 449.5,-30 443.5,-36 437.5,-36"/>
<text text-anchor="middle" x="380.5" y="-14.3" font-family="Times New Roman,serif" font-size="14.00">Start worker instance.</text>
</g>
<!-- worker&#45;&gt;worker_next -->
<g id="edge38" class="edge">
<title>worker&#45;&gt;worker_next</title>
<path fill="none" stroke="black" d="M149.07,-18C184.9,-18 249.58,-18 301.32,-18"/>
<polygon fill="black" stroke="black" points="301.48,-21.5 311.48,-18 301.48,-14.5 301.48,-21.5"/>
</g>
</g>
</svg>
