<?xml version="1.0" encoding="UTF-8" standalone="no"?>
<!DOCTYPE svg PUBLIC "-//W3C//DTD SVG 1.1//EN"
 "http://www.w3.org/Graphics/SVG/1.1/DTD/svg11.dtd">
<!-- Generated by graphviz version 3.0.0 (20220226.1711)
 -->
<!-- Pages: 1 -->
<svg width="202pt" height="260pt"
 viewBox="0.00 0.00 202.00 260.00" xmlns="http://www.w3.org/2000/svg" xmlns:xlink="http://www.w3.org/1999/xlink">
<g id="graph0" class="graph" transform="scale(1 1) rotate(0) translate(4 256)">
<polygon fill="white" stroke="transparent" points="-4,4 -4,-256 198,-256 198,4 -4,4"/>
<!-- celery -->
<g id="node1" class="node">
<title>celery</title>
<path fill="none" stroke="black" d="M42,-144C42,-144 12,-144 12,-144 6,-144 0,-138 0,-132 0,-132 0,-120 0,-120 0,-114 6,-108 12,-108 12,-108 42,-108 42,-108 48,-108 54,-114 54,-120 54,-120 54,-132 54,-132 54,-138 48,-144 42,-144"/>
<text text-anchor="middle" x="27" y="-122.3" font-family="Times New Roman,serif" font-size="14.00">celery</text>
</g>
<!-- Producer -->
<g id="node2" class="node">
<title>Producer</title>
<path fill="none" stroke="black" d="M164,-252C164,-252 120,-252 120,-252 114,-252 108,-246 108,-240 108,-240 108,-228 108,-228 108,-222 114,-216 120,-216 120,-216 164,-216 164,-216 170,-216 176,-222 176,-228 176,-228 176,-240 176,-240 176,-246 170,-252 164,-252"/>
<text text-anchor="middle" x="142" y="-230.3" font-family="Times New Roman,serif" font-size="14.00">Producer</text>
</g>
<!-- celery&#45;&gt;Producer -->
<g id="edge1" class="edge">
<title>celery&#45;&gt;Producer</title>
<path fill="none" stroke="black" d="M38.7,-144.24C49.79,-161.97 68.5,-188.81 90,-207 92.84,-209.41 95.94,-211.68 99.15,-213.82"/>
<polygon fill="black" stroke="black" points="97.48,-216.9 107.83,-219.13 101.13,-210.92 97.48,-216.9"/>
</g>
<!-- Beat -->
<g id="node3" class="node">
<title>Beat</title>
<path fill="none" stroke="black" d="M157,-198C157,-198 127,-198 127,-198 121,-198 115,-192 115,-186 115,-186 115,-174 115,-174 115,-168 121,-162 127,-162 127,-162 157,-162 157,-162 163,-162 169,-168 169,-174 169,-174 169,-186 169,-186 169,-192 163,-198 157,-198"/>
<text text-anchor="middle" x="142" y="-176.3" font-family="Times New Roman,serif" font-size="14.00">Beat</text>
</g>
<!-- celery&#45;&gt;Beat -->
<g id="edge2" class="edge">
<title>celery&#45;&gt;Beat</title>
<path fill="none" stroke="black" d="M54.21,-138.52C69.47,-145.82 88.92,-155.11 105.53,-163.05"/>
<polygon fill="black" stroke="black" points="104.4,-166.39 114.93,-167.54 107.42,-160.07 104.4,-166.39"/>
</g>
<!-- Broker -->
<g id="node4" class="node">
<title>Broker</title>
<path fill="none" stroke="black" d="M157.5,-144C157.5,-144 126.5,-144 126.5,-144 120.5,-144 114.5,-138 114.5,-132 114.5,-132 114.5,-120 114.5,-120 114.5,-114 120.5,-108 126.5,-108 126.5,-108 157.5,-108 157.5,-108 163.5,-108 169.5,-114 169.5,-120 169.5,-120 169.5,-132 169.5,-132 169.5,-138 163.5,-144 157.5,-144"/>
<text text-anchor="middle" x="142" y="-122.3" font-family="Times New Roman,serif" font-size="14.00">Broker</text>
</g>
<!-- celery&#45;&gt;Broker -->
<g id="edge3" class="edge">
<title>celery&#45;&gt;Broker</title>
<path fill="none" stroke="black" d="M54.21,-126C68.97,-126 87.65,-126 103.89,-126"/>
<polygon fill="black" stroke="black" points="104.15,-129.5 114.15,-126 104.15,-122.5 104.15,-129.5"/>
</g>
<!-- Worker -->
<g id="node5" class="node">
<title>Worker</title>
<path fill="none" stroke="black" d="M159.5,-90C159.5,-90 124.5,-90 124.5,-90 118.5,-90 112.5,-84 112.5,-78 112.5,-78 112.5,-66 112.5,-66 112.5,-60 118.5,-54 124.5,-54 124.5,-54 159.5,-54 159.5,-54 165.5,-54 171.5,-60 171.5,-66 171.5,-66 171.5,-78 171.5,-78 171.5,-84 165.5,-90 159.5,-90"/>
<text text-anchor="middle" x="142" y="-68.3" font-family="Times New Roman,serif" font-size="14.00">Worker</text>
</g>
<!-- celery&#45;&gt;Worker -->
<g id="edge4" class="edge">
<title>celery&#45;&gt;Worker</title>
<path fill="none" stroke="black" d="M54.21,-113.48C68.71,-106.55 86.98,-97.81 103.02,-90.15"/>
<polygon fill="black" stroke="black" points="104.64,-93.25 112.16,-85.78 101.62,-86.94 104.64,-93.25"/>
</g>
<!-- Result Backend -->
<g id="node6" class="node">
<title>Result Backend</title>
<path fill="none" stroke="black" d="M182,-36C182,-36 102,-36 102,-36 96,-36 90,-30 90,-24 90,-24 90,-12 90,-12 90,-6 96,0 102,0 102,0 182,0 182,0 188,0 194,-6 194,-12 194,-12 194,-24 194,-24 194,-30 188,-36 182,-36"/>
<text text-anchor="middle" x="142" y="-14.3" font-family="Times New Roman,serif" font-size="14.00">Result Backend</text>
</g>
<!-- celery&#45;&gt;Result Backend -->
<g id="edge5" class="edge">
<title>celery&#45;&gt;Result Backend</title>
<path fill="none" stroke="black" d="M38.7,-107.76C49.79,-90.03 68.5,-63.19 90,-45 91.31,-43.89 92.68,-42.8 94.09,-41.75"/>
<polygon fill="black" stroke="black" points="96.2,-44.54 102.51,-36.03 92.27,-38.75 96.2,-44.54"/>
</g>
</g>
</svg>
