<?xml version="1.0" encoding="UTF-8" standalone="no"?>
<!DOCTYPE svg PUBLIC "-//W3C//DTD SVG 1.1//EN"
 "http://www.w3.org/Graphics/SVG/1.1/DTD/svg11.dtd">
<!-- Generated by graphviz version 3.0.0 (20220226.1711)
 -->
<!-- Pages: 1 -->
<svg width="341pt" height="260pt"
 viewBox="0.00 0.00 341.00 260.00" xmlns="http://www.w3.org/2000/svg" xmlns:xlink="http://www.w3.org/1999/xlink">
<g id="graph0" class="graph" transform="scale(1 1) rotate(0) translate(4 256)">
<polygon fill="white" stroke="transparent" points="-4,4 -4,-256 337,-256 337,4 -4,4"/>
<!-- LaCa -->
<g id="node1" class="node">
<title>LaCa</title>
<path fill="none" stroke="black" d="M142.5,-252C142.5,-252 98.5,-252 98.5,-252 92.5,-252 86.5,-246 86.5,-240 86.5,-240 86.5,-228 86.5,-228 86.5,-222 92.5,-216 98.5,-216 98.5,-216 142.5,-216 142.5,-216 148.5,-216 154.5,-222 154.5,-228 154.5,-228 154.5,-240 154.5,-240 154.5,-246 148.5,-252 142.5,-252"/>
<text text-anchor="middle" x="120.5" y="-230.3" font-family="Times New Roman,serif" font-size="14.00">Producer</text>
</g>
<!-- LbCa -->
<g id="node3" class="node">
<title>LbCa</title>
<path fill="none" stroke="black" d="M182,-180C182,-180 151,-180 151,-180 145,-180 139,-174 139,-168 139,-168 139,-156 139,-156 139,-150 145,-144 151,-144 151,-144 182,-144 182,-144 188,-144 194,-150 194,-156 194,-156 194,-168 194,-168 194,-174 188,-180 182,-180"/>
<text text-anchor="middle" x="166.5" y="-158.3" font-family="Times New Roman,serif" font-size="14.00">Broker</text>
</g>
<!-- LaCa&#45;&gt;LbCa -->
<g id="edge1" class="edge">
<title>LaCa&#45;&gt;LbCa</title>
<path fill="none" stroke="black" d="M131.87,-215.7C137.22,-207.56 143.7,-197.69 149.61,-188.7"/>
<polygon fill="black" stroke="black" points="152.69,-190.38 155.26,-180.1 146.84,-186.54 152.69,-190.38"/>
</g>
<!-- LaCb -->
<g id="node2" class="node">
<title>LaCb</title>
<path fill="none" stroke="black" d="M242,-252C242,-252 185,-252 185,-252 179,-252 173,-246 173,-240 173,-240 173,-228 173,-228 173,-222 179,-216 185,-216 185,-216 242,-216 242,-216 248,-216 254,-222 254,-228 254,-228 254,-240 254,-240 254,-246 248,-252 242,-252"/>
<text text-anchor="middle" x="213.5" y="-230.3" font-family="Times New Roman,serif" font-size="14.00">Celery Beat</text>
</g>
<!-- LaCb&#45;&gt;LbCa -->
<g id="edge2" class="edge">
<title>LaCb&#45;&gt;LbCa</title>
<path fill="none" stroke="black" d="M201.88,-215.7C196.36,-207.47 189.65,-197.48 183.57,-188.42"/>
<polygon fill="black" stroke="black" points="186.46,-186.46 177.98,-180.1 180.65,-190.36 186.46,-186.46"/>
</g>
<!-- LcCa -->
<g id="node4" class="node">
<title>LcCa</title>
<path fill="none" stroke="black" d="M87,-108C87,-108 12,-108 12,-108 6,-108 0,-102 0,-96 0,-96 0,-84 0,-84 0,-78 6,-72 12,-72 12,-72 87,-72 87,-72 93,-72 99,-78 99,-84 99,-84 99,-96 99,-96 99,-102 93,-108 87,-108"/>
<text text-anchor="middle" x="49.5" y="-86.3" font-family="Times New Roman,serif" font-size="14.00">Celery Worker</text>
</g>
<!-- LbCa&#45;&gt;LcCa -->
<g id="edge3" class="edge">
<title>LbCa&#45;&gt;LcCa</title>
<path fill="none" stroke="black" d="M138.77,-144.41C123.38,-135.2 104.01,-123.61 87.25,-113.59"/>
<polygon fill="black" stroke="black" points="88.63,-110.33 78.25,-108.2 85.03,-116.34 88.63,-110.33"/>
</g>
<!-- LcCb -->
<g id="node5" class="node">
<title>LcCb</title>
<path fill="none" stroke="black" d="M204,-108C204,-108 129,-108 129,-108 123,-108 117,-102 117,-96 117,-96 117,-84 117,-84 117,-78 123,-72 129,-72 129,-72 204,-72 204,-72 210,-72 216,-78 216,-84 216,-84 216,-96 216,-96 216,-102 210,-108 204,-108"/>
<text text-anchor="middle" x="166.5" y="-86.3" font-family="Times New Roman,serif" font-size="14.00">Celery Worker</text>
</g>
<!-- LbCa&#45;&gt;LcCb -->
<g id="edge4" class="edge">
<title>LbCa&#45;&gt;LcCb</title>
<path fill="none" stroke="black" d="M166.5,-143.7C166.5,-135.98 166.5,-126.71 166.5,-118.11"/>
<polygon fill="black" stroke="black" points="170,-118.1 166.5,-108.1 163,-118.1 170,-118.1"/>
</g>
<!-- LcCc -->
<g id="node6" class="node">
<title>LcCc</title>
<path fill="none" stroke="black" d="M321,-108C321,-108 246,-108 246,-108 240,-108 234,-102 234,-96 234,-96 234,-84 234,-84 234,-78 240,-72 246,-72 246,-72 321,-72 321,-72 327,-72 333,-78 333,-84 333,-84 333,-96 333,-96 333,-102 327,-108 321,-108"/>
<text text-anchor="middle" x="283.5" y="-86.3" font-family="Times New Roman,serif" font-size="14.00">Celery Worker</text>
</g>
<!-- LbCa&#45;&gt;LcCc -->
<g id="edge5" class="edge">
<title>LbCa&#45;&gt;LcCc</title>
<path fill="none" stroke="black" d="M194.23,-144.41C209.62,-135.2 228.99,-123.61 245.75,-113.59"/>
<polygon fill="black" stroke="black" points="247.97,-116.34 254.75,-108.2 244.37,-110.33 247.97,-116.34"/>
</g>
<!-- LdCa -->
<g id="node7" class="node">
<title>LdCa</title>
<path fill="none" stroke="black" d="M206.5,-36C206.5,-36 126.5,-36 126.5,-36 120.5,-36 114.5,-30 114.5,-24 114.5,-24 114.5,-12 114.5,-12 114.5,-6 120.5,0 126.5,0 126.5,0 206.5,0 206.5,0 212.5,0 218.5,-6 218.5,-12 218.5,-12 218.5,-24 218.5,-24 218.5,-30 212.5,-36 206.5,-36"/>
<text text-anchor="middle" x="166.5" y="-14.3" font-family="Times New Roman,serif" font-size="14.00">Result Backend</text>
</g>
<!-- LcCa&#45;&gt;LdCa -->
<g id="edge6" class="edge">
<title>LcCa&#45;&gt;LdCa</title>
<path fill="none" stroke="black" d="M78.12,-71.88C93.42,-62.72 112.44,-51.34 128.92,-41.48"/>
<polygon fill="black" stroke="black" points="130.98,-44.33 137.77,-36.19 127.39,-38.32 130.98,-44.33"/>
</g>
<!-- LcCb&#45;&gt;LdCa -->
<g id="edge7" class="edge">
<title>LcCb&#45;&gt;LdCa</title>
<path fill="none" stroke="black" d="M166.5,-71.7C166.5,-63.98 166.5,-54.71 166.5,-46.11"/>
<polygon fill="black" stroke="black" points="170,-46.1 166.5,-36.1 163,-46.1 170,-46.1"/>
</g>
<!-- LcCc&#45;&gt;LdCa -->
<g id="edge8" class="edge">
<title>LcCc&#45;&gt;LdCa</title>
<path fill="none" stroke="black" d="M254.88,-71.88C239.58,-62.72 220.56,-51.34 204.08,-41.48"/>
<polygon fill="black" stroke="black" points="205.61,-38.32 195.23,-36.19 202.02,-44.33 205.61,-38.32"/>
</g>
</g>
</svg>
