<?xml version="1.0" encoding="UTF-8" standalone="no"?>
<!DOCTYPE svg PUBLIC "-//W3C//DTD SVG 1.1//EN"
 "http://www.w3.org/Graphics/SVG/1.1/DTD/svg11.dtd">
<!-- Generated by graphviz version 2.38.0 (20140413.2041)
 -->
<!-- Title: %3 Pages: 1 -->
<svg width="1273pt" height="671pt"
 viewBox="0.00 0.00 1272.66 671.00" xmlns="http://www.w3.org/2000/svg" xmlns:xlink="http://www.w3.org/1999/xlink">
<g id="graph0" class="graph" transform="scale(1 1) rotate(0) translate(4 667)">
<title>%3</title>
<polygon fill="white" stroke="none" points="-4,4 -4,-667 1268.66,-667 1268.66,4 -4,4"/>
<!-- []{insert -->
<g id="node1" class="node"><title>[]{insert</title>
<path fill="#ff5e99" stroke="black" d="M1178.66,-663C1178.66,-663 1140.66,-663 1140.66,-663 1134.66,-663 1128.66,-657 1128.66,-651 1128.66,-651 1128.66,-639 1128.66,-639 1128.66,-633 1134.66,-627 1140.66,-627 1140.66,-627 1178.66,-627 1178.66,-627 1184.66,-627 1190.66,-633 1190.66,-639 1190.66,-639 1190.66,-651 1190.66,-651 1190.66,-657 1184.66,-663 1178.66,-663"/>
<text text-anchor="middle" x="1159.66" y="-641.3" font-family="Times New Roman,serif" font-size="14.00">[]{insert</text>
</g>
<!-- _Bnodes{contents -->
<g id="node6" class="node"><title>_Bnodes{contents</title>
<path fill="#00e599" stroke="black" d="M900.773,-576C900.773,-576 741.656,-576 741.656,-576 735.656,-576 724.888,-572.357 720.121,-568.713 720.121,-568.713 692.084,-547.287 692.084,-547.287 687.317,-543.643 688.549,-540 694.549,-540 694.549,-540 853.666,-540 853.666,-540 859.666,-540 870.433,-543.643 875.201,-547.287 875.201,-547.287 903.238,-568.713 903.238,-568.713 908.005,-572.357 906.773,-576 900.773,-576"/>
<text text-anchor="middle" x="797.661" y="-554.3" font-family="Times New Roman,serif" font-size="14.00">_Bnodes{contents</text>
</g>
<!-- []{insert&#45;&gt;_Bnodes{contents -->
<g id="edge16" class="edge"><title>[]{insert&#45;&gt;_Bnodes{contents</title>
<path fill="none" stroke="#ea4f16" d="M1128.55,-644.048C1076.47,-643.257 968.986,-637.881 883.661,-609 864.789,-602.612 845.463,-591.828 829.923,-581.907"/>
<polygon fill="#ea4f16" stroke="#ea4f16" points="831.523,-578.771 821.243,-576.206 827.679,-584.621 831.523,-578.771"/>
<text text-anchor="middle" x="973.661" y="-597.8" font-family="Times New Roman,serif" font-size="14.00">tmp5=_Bnodes{contents{pop()</text>
</g>
<!-- end -->
<g id="node11" class="node"><title>end</title>
<ellipse fill="none" stroke="black" cx="561.661" cy="-18" rx="27" ry="18"/>
<text text-anchor="middle" x="561.661" y="-14.3" font-family="Times New Roman,serif" font-size="14.00">end</text>
</g>
<!-- []{insert&#45;&gt;end -->
<g id="edge23" class="edge"><title>[]{insert&#45;&gt;end</title>
<path fill="none" stroke="#22f2f2" d="M1190.88,-633.747C1221.83,-621.383 1264.66,-597.347 1264.66,-559 1264.66,-559 1264.66,-559 1264.66,-90 1264.66,-22.4586 744.351,-18.5808 598.984,-18.8154"/>
<polygon fill="#22f2f2" stroke="#22f2f2" points="598.78,-15.3158 588.789,-18.8398 598.797,-22.3157 598.78,-15.3158"/>
</g>
<!-- []{append -->
<g id="node2" class="node"><title>[]{append</title>
<path fill="#ff5e99" stroke="black" d="M921.661,-109C921.661,-109 871.661,-109 871.661,-109 865.661,-109 859.661,-103 859.661,-97 859.661,-97 859.661,-85 859.661,-85 859.661,-79 865.661,-73 871.661,-73 871.661,-73 921.661,-73 921.661,-73 927.661,-73 933.661,-79 933.661,-85 933.661,-85 933.661,-97 933.661,-97 933.661,-103 927.661,-109 921.661,-109"/>
<text text-anchor="middle" x="896.661" y="-87.3" font-family="Times New Roman,serif" font-size="14.00">[]{append</text>
</g>
<!-- []{append&#45;&gt;_Bnodes{contents -->
<g id="edge5" class="edge"><title>[]{append&#45;&gt;_Bnodes{contents</title>
<path fill="none" stroke="#3322ff" d="M933.916,-95.4256C1027.05,-105.599 1258.23,-141.657 1196.66,-245 1162.26,-302.745 1108.04,-266.52 1063.66,-317 999.187,-390.329 1059.72,-459.547 984.661,-522 969.623,-534.513 928.46,-542.94 888.571,-548.383"/>
<polygon fill="#3322ff" stroke="#3322ff" points="887.936,-544.936 878.474,-549.703 888.843,-551.877 887.936,-544.936"/>
<text text-anchor="middle" x="1157.16" y="-320.8" font-family="Times New Roman,serif" font-size="14.00">tmp1=_Bnodes{contents{pop(0)</text>
</g>
<!-- []{append&#45;&gt;end -->
<g id="edge12" class="edge"><title>[]{append&#45;&gt;end</title>
<path fill="none" stroke="#33ff22" d="M859.53,-82.1305C794.498,-68.3475 660.85,-40.0221 597.059,-26.5023"/>
<polygon fill="#33ff22" stroke="#33ff22" points="597.587,-23.0365 587.079,-24.3871 596.136,-29.8844 597.587,-23.0365"/>
</g>
<!-- dest{contents -->
<g id="node3" class="node"><title>dest{contents</title>
<path fill="#00e599" stroke="black" d="M873.314,-386C873.314,-386 754.696,-386 754.696,-386 748.696,-386 738.414,-381.798 734.131,-377.595 734.131,-377.595 714.574,-358.405 714.574,-358.405 710.291,-354.202 712.008,-350 718.008,-350 718.008,-350 836.626,-350 836.626,-350 842.626,-350 852.908,-354.202 857.191,-358.405 857.191,-358.405 876.748,-377.595 876.748,-377.595 881.031,-381.798 879.314,-386 873.314,-386"/>
<text text-anchor="middle" x="795.661" y="-364.3" font-family="Times New Roman,serif" font-size="14.00">dest{contents</text>
</g>
<!-- dest{contents&#45;&gt;[]{insert -->
<g id="edge15" class="edge"><title>dest{contents&#45;&gt;[]{insert</title>
<path fill="none" stroke="#f2f222" d="M833.403,-386.014C878.385,-407.211 954.734,-446.155 1012.66,-491 1063.2,-530.122 1112.75,-586.49 1139.44,-618.759"/>
<polygon fill="#f2f222" stroke="#f2f222" points="1136.99,-621.287 1146.04,-626.803 1142.41,-616.85 1136.99,-621.287"/>
<text text-anchor="middle" x="1072.16" y="-502.8" font-family="Times New Roman,serif" font-size="14.00">(0,tmp4)</text>
</g>
<!-- dest{contents&#45;&gt;[]{append -->
<g id="edge4" class="edge"><title>dest{contents&#45;&gt;[]{append</title>
<path fill="none" stroke="black" d="M859.842,-360.679C897.527,-355.494 939.996,-346.572 951.661,-332 1002.86,-268.044 946.576,-165.34 915.045,-117.748"/>
<polygon fill="black" stroke="black" points="917.799,-115.573 909.292,-109.258 912.004,-119.5 917.799,-115.573"/>
<text text-anchor="middle" x="1081.16" y="-217.8" font-family="Times New Roman,serif" font-size="14.00"> &#160;&#160;&#160;&#160;&#160;&#160;&#160;&#160;&#160;&#160;&#160;&#160;&#160;&#160;&#160;dest{contents{append(tmp0)</text>
</g>
<!-- parent{contents -->
<g id="node4" class="node"><title>parent{contents</title>
<path fill="#00e599" stroke="black" d="M605.778,-473C605.778,-473 470.514,-473 470.514,-473 464.514,-473 454.007,-469.04 449.5,-465.079 449.5,-465.079 426.558,-444.921 426.558,-444.921 422.051,-440.96 423.544,-437 429.544,-437 429.544,-437 564.808,-437 564.808,-437 570.808,-437 581.315,-440.96 585.822,-444.921 585.822,-444.921 608.764,-465.079 608.764,-465.079 613.271,-469.04 611.778,-473 605.778,-473"/>
<text text-anchor="middle" x="517.661" y="-451.3" font-family="Times New Roman,serif" font-size="14.00">parent{contents</text>
</g>
<!-- parent{contents&#45;&gt;dest{contents -->
<g id="edge3" class="edge"><title>parent{contents&#45;&gt;dest{contents</title>
<path fill="none" stroke="black" d="M568.046,-436.901C613.735,-422.448 681.216,-401.805 730.885,-387.081"/>
<polygon fill="black" stroke="black" points="731.972,-390.409 740.57,-384.218 729.988,-383.696 731.972,-390.409"/>
</g>
<!-- parent{contents&#45;&gt;dest{contents -->
<g id="edge14" class="edge"><title>parent{contents&#45;&gt;dest{contents</title>
<path fill="none" stroke="#f2f222" d="M577.403,-437.409C624.105,-423.607 688.649,-403.91 735.464,-389.192"/>
<polygon fill="#f2f222" stroke="#f2f222" points="736.687,-392.477 745.172,-386.131 734.582,-385.801 736.687,-392.477"/>
</g>
<!-- _Bnodes{children? -->
<g id="node9" class="node"><title>_Bnodes{children?</title>
<path fill="#ffce9f" stroke="black" d="M468.808,-384.128C468.808,-384.128 378.563,-369.872 378.563,-369.872 372.636,-368.936 372.636,-367.064 378.563,-366.128 378.563,-366.128 468.808,-351.872 468.808,-351.872 474.734,-350.936 486.587,-350.936 492.514,-351.872 492.514,-351.872 582.759,-366.128 582.759,-366.128 588.685,-367.064 588.685,-368.936 582.759,-369.872 582.759,-369.872 492.514,-384.128 492.514,-384.128 486.587,-385.064 474.734,-385.064 468.808,-384.128"/>
<text text-anchor="middle" x="480.661" y="-364.3" font-family="Times New Roman,serif" font-size="14.00">_Bnodes{children?</text>
</g>
<!-- parent{contents&#45;&gt;_Bnodes{children? -->
<g id="edge7" class="edge"><title>parent{contents&#45;&gt;_Bnodes{children?</title>
<path fill="none" stroke="#3322ff" d="M504.625,-436.799C498.19,-424.97 490.998,-409.03 485.92,-395.578"/>
<polygon fill="#3322ff" stroke="#3322ff" points="489.127,-394.149 482.497,-385.885 482.527,-396.48 489.127,-394.149"/>
</g>
<!-- parent{contents&#45;&gt;_Bnodes{children? -->
<g id="edge18" class="edge"><title>parent{contents&#45;&gt;_Bnodes{children?</title>
<path fill="none" stroke="#ea4f16" d="M515.722,-436.799C511.628,-424.265 504.367,-407.116 497.355,-393.201"/>
<polygon fill="#ea4f16" stroke="#ea4f16" points="500.353,-391.383 492.583,-384.181 494.166,-394.657 500.353,-391.383"/>
</g>
<!-- dest{children -->
<g id="node5" class="node"><title>dest{children</title>
<path fill="#00e599" stroke="black" d="M904.596,-196C904.596,-196 790.302,-196 790.302,-196 784.302,-196 774.084,-191.732 769.867,-187.465 769.867,-187.465 751.16,-168.535 751.16,-168.535 746.943,-164.268 748.725,-160 754.725,-160 754.725,-160 869.02,-160 869.02,-160 875.02,-160 885.238,-164.268 889.455,-168.535 889.455,-168.535 908.162,-187.465 908.162,-187.465 912.379,-191.732 910.596,-196 904.596,-196"/>
<text text-anchor="middle" x="829.661" y="-174.3" font-family="Times New Roman,serif" font-size="14.00">dest{children</text>
</g>
<!-- dest{children&#45;&gt;[]{insert -->
<g id="edge22" class="edge"><title>dest{children&#45;&gt;[]{insert</title>
<path fill="none" stroke="#22f2f2" d="M902.724,-181.604C1001.02,-185.793 1165.98,-195.498 1186.66,-214 1209.01,-233.991 1200.66,-250.014 1200.66,-280 1200.66,-559 1200.66,-559 1200.66,-559 1200.66,-580.565 1189.82,-602.425 1179.29,-618.576"/>
<polygon fill="#22f2f2" stroke="#22f2f2" points="1176.33,-616.702 1173.54,-626.923 1182.1,-620.672 1176.33,-616.702"/>
<text text-anchor="middle" x="1225.16" y="-407.8" font-family="Times New Roman,serif" font-size="14.00">(0,tmp6)</text>
</g>
<!-- dest{children&#45;&gt;[]{append -->
<g id="edge11" class="edge"><title>dest{children&#45;&gt;[]{append</title>
<path fill="none" stroke="#33ff22" d="M843.219,-159.799C852.846,-147.587 865.926,-130.992 876.736,-117.278"/>
<polygon fill="#33ff22" stroke="#33ff22" points="879.681,-119.196 883.123,-109.175 874.183,-114.862 879.681,-119.196"/>
<text text-anchor="middle" x="885.661" y="-130.8" font-family="Times New Roman,serif" font-size="14.00">(tmp3)</text>
</g>
<!-- _Bnodes{contents&#45;&gt;parent{contents -->
<g id="edge6" class="edge"><title>_Bnodes{contents&#45;&gt;parent{contents</title>
<path fill="none" stroke="#3322ff" d="M774.986,-539.767C768.462,-534.377 761.529,-528.208 755.661,-522 743.877,-509.532 747.314,-499.922 732.661,-491 713.1,-479.09 663.926,-470.615 617.537,-464.991"/>
<polygon fill="#3322ff" stroke="#3322ff" points="617.723,-461.489 607.383,-463.799 616.907,-468.442 617.723,-461.489"/>
<text text-anchor="middle" x="870.161" y="-494.8" font-family="Times New Roman,serif" font-size="14.00"> &#160;&#160;&#160;&#160;&#160;&#160;parent{contents[dest_index] = tmp1</text>
</g>
<!-- _Bnodes{contents&#45;&gt;parent{contents -->
<g id="edge17" class="edge"><title>_Bnodes{contents&#45;&gt;parent{contents</title>
<path fill="none" stroke="#ea4f16" d="M705.142,-557.507C634.821,-555.736 546.133,-548.133 521.661,-522 512.188,-511.884 510.76,-496.631 511.896,-483.336"/>
<polygon fill="#ea4f16" stroke="#ea4f16" points="515.391,-483.606 513.252,-473.229 508.454,-482.675 515.391,-483.606"/>
<text text-anchor="middle" x="625.161" y="-502.8" font-family="Times New Roman,serif" font-size="14.00">parent{contents[parent_index]=tmp5</text>
</g>
<!-- _Bnodes{children -->
<g id="node7" class="node"><title>_Bnodes{children</title>
<path fill="#00e599" stroke="black" d="M876.055,-299C876.055,-299 721.261,-299 721.261,-299 715.261,-299 704.537,-295.302 699.812,-291.604 699.812,-291.604 672.717,-270.396 672.717,-270.396 667.992,-266.698 669.267,-263 675.267,-263 675.267,-263 830.06,-263 830.06,-263 836.06,-263 846.785,-266.698 851.51,-270.396 851.51,-270.396 878.605,-291.604 878.605,-291.604 883.33,-295.302 882.055,-299 876.055,-299"/>
<text text-anchor="middle" x="775.661" y="-277.3" font-family="Times New Roman,serif" font-size="14.00">_Bnodes{children</text>
</g>
<!-- _Bnodes{children&#45;&gt;dest{children -->
<g id="edge10" class="edge"><title>_Bnodes{children&#45;&gt;dest{children</title>
<path fill="none" stroke="#33ff22" d="M779.604,-262.867C786.322,-247.051 798.744,-223.332 809.682,-205.15"/>
<polygon fill="#33ff22" stroke="#33ff22" points="812.927,-206.559 815.229,-196.217 806.98,-202.866 812.927,-206.559"/>
</g>
<!-- _Bnodes{children&#45;&gt;dest{children -->
<g id="edge21" class="edge"><title>_Bnodes{children&#45;&gt;dest{children</title>
<path fill="none" stroke="#22f2f2" d="M790.038,-262.867C800.139,-247.196 812.937,-223.766 821.442,-205.651"/>
<polygon fill="#22f2f2" stroke="#22f2f2" points="824.775,-206.773 825.682,-196.217 818.39,-203.904 824.775,-206.773"/>
</g>
<!-- parent_index &gt; dest_index -->
<g id="node8" class="node"><title>parent_index &gt; dest_index</title>
<path fill="#ffce9f" stroke="black" d="M139.744,-574.587C139.744,-574.587 11.7554,-559.413 11.7554,-559.413 5.79715,-558.706 5.79715,-557.294 11.7554,-556.587 11.7554,-556.587 139.744,-541.413 139.744,-541.413 145.703,-540.706 157.619,-540.706 163.577,-541.413 163.577,-541.413 291.566,-556.587 291.566,-556.587 297.525,-557.294 297.525,-558.706 291.566,-559.413 291.566,-559.413 163.577,-574.587 163.577,-574.587 157.619,-575.294 145.703,-575.294 139.744,-574.587"/>
<text text-anchor="middle" x="151.661" y="-554.3" font-family="Times New Roman,serif" font-size="14.00">parent_index &gt; dest_index</text>
</g>
<!-- parent_index &gt; dest_index&#45;&gt;parent{contents -->
<g id="edge2" class="edge"><title>parent_index &gt; dest_index&#45;&gt;parent{contents</title>
<path fill="none" stroke="black" d="M71.7565,-549.336C55.7572,-543.989 40.779,-535.46 30.6609,-522 22.382,-510.987 21.2743,-501.086 30.6609,-491 57.1322,-462.558 295.492,-456.903 428.651,-455.985"/>
<polygon fill="black" stroke="black" points="428.86,-459.483 438.838,-455.922 428.817,-452.484 428.86,-459.483"/>
<text text-anchor="middle" x="141.161" y="-502.8" font-family="Times New Roman,serif" font-size="14.00">Yes,tmp0=parent{contents[dest_index]</text>
</g>
<!-- parent_index &gt; dest_index&#45;&gt;parent{contents -->
<g id="edge13" class="edge"><title>parent_index &gt; dest_index&#45;&gt;parent{contents</title>
<path fill="none" stroke="#f2f222" d="M199.467,-545.593C216.798,-540.123 235.957,-532.434 251.661,-522 267.125,-511.726 263.289,-499.756 279.661,-491 305.978,-476.925 377.089,-467.657 434.777,-462.216"/>
<polygon fill="#f2f222" stroke="#f2f222" points="435.371,-465.676 445.01,-461.277 434.732,-458.705 435.371,-465.676"/>
<text text-anchor="middle" x="393.661" y="-502.8" font-family="Times New Roman,serif" font-size="14.00">No,tmp4=parent{contents[parent_index]</text>
</g>
<!-- _Bnodes{children?&#45;&gt;_Bnodes{children -->
<g id="edge9" class="edge"><title>_Bnodes{children?&#45;&gt;_Bnodes{children</title>
<path fill="none" stroke="#33ff22" d="M473.51,-351.125C469.797,-340.221 467.541,-326.123 475.661,-317 489.362,-301.608 599.35,-291.922 682.211,-286.738"/>
<polygon fill="#33ff22" stroke="#33ff22" points="682.661,-290.217 692.429,-286.113 682.234,-283.23 682.661,-290.217"/>
<text text-anchor="middle" x="590.661" y="-320.8" font-family="Times New Roman,serif" font-size="14.00">Yes {tmp3 = _Bnodes{children{pop(0)}</text>
</g>
<!-- _Bnodes{children?&#45;&gt;_Bnodes{children -->
<g id="edge20" class="edge"><title>_Bnodes{children?&#45;&gt;_Bnodes{children</title>
<path fill="none" stroke="#22f2f2" d="M564.626,-363.216C608.028,-358.982 661.095,-350.178 705.661,-332 710.106,-330.187 727.747,-317.58 744.205,-305.481"/>
<polygon fill="#22f2f2" stroke="#22f2f2" points="746.663,-308.016 752.628,-299.26 742.504,-302.386 746.663,-308.016"/>
<text text-anchor="middle" x="837.161" y="-320.8" font-family="Times New Roman,serif" font-size="14.00">Yes {tmp6 = _Bnodes{children{pop()}</text>
</g>
<!-- _Bnodes{children?&#45;&gt;end -->
<g id="edge8" class="edge"><title>_Bnodes{children?&#45;&gt;end</title>
<path fill="none" stroke="#3322ff" d="M450.723,-354.617C423.536,-341.145 387.661,-316.779 387.661,-282 387.661,-282 387.661,-282 387.661,-90 387.661,-31.3948 473.326,-20.0762 524.44,-18.539"/>
<polygon fill="#3322ff" stroke="#3322ff" points="524.542,-22.0378 534.473,-18.3482 524.409,-15.039 524.542,-22.0378"/>
<text text-anchor="middle" x="396.661" y="-174.3" font-family="Times New Roman,serif" font-size="14.00">No</text>
</g>
<!-- _Bnodes{children?&#45;&gt;end -->
<g id="edge19" class="edge"><title>_Bnodes{children?&#45;&gt;end</title>
<path fill="none" stroke="#ea4f16" d="M468.748,-351.674C457.279,-335.354 441.661,-308.303 441.661,-282 441.661,-282 441.661,-282 441.661,-90 441.661,-50.673 489.99,-32.6667 525.307,-24.7586"/>
<polygon fill="#ea4f16" stroke="#ea4f16" points="526.235,-28.1412 535.326,-22.7012 524.827,-21.2843 526.235,-28.1412"/>
<text text-anchor="middle" x="450.661" y="-174.3" font-family="Times New Roman,serif" font-size="14.00">No</text>
</g>
<!-- start -->
<g id="node10" class="node"><title>start</title>
<ellipse fill="none" stroke="black" cx="151.661" cy="-645" rx="27" ry="18"/>
<text text-anchor="middle" x="151.661" y="-641.3" font-family="Times New Roman,serif" font-size="14.00">start</text>
</g>
<!-- start&#45;&gt;parent_index &gt; dest_index -->
<g id="edge1" class="edge"><title>start&#45;&gt;parent_index &gt; dest_index</title>
<path fill="none" stroke="black" d="M151.661,-626.799C151.661,-615.163 151.661,-599.548 151.661,-586.237"/>
<polygon fill="black" stroke="black" points="155.161,-586.175 151.661,-576.175 148.161,-586.175 155.161,-586.175"/>
<text text-anchor="middle" x="257.161" y="-597.8" font-family="Times New Roman,serif" font-size="14.00">(parent,parent_index,dest,dest_index)</text>
</g>
</g>
</svg>
