<?xml version="1.0" encoding="UTF-8" standalone="no"?>
<!DOCTYPE svg PUBLIC "-//W3C//DTD SVG 1.1//EN"
 "http://www.w3.org/Graphics/SVG/1.1/DTD/svg11.dtd">
<!-- Generated by graphviz version 2.38.0 (20140413.2041)
 -->
<!-- Title: %3 Pages: 1 -->
<svg width="1211pt" height="634pt"
 viewBox="0.00 0.00 1211.00 634.00" xmlns="http://www.w3.org/2000/svg" xmlns:xlink="http://www.w3.org/1999/xlink">
<g id="graph0" class="graph" transform="scale(1 1) rotate(0) translate(4 630)">
<title>%3</title>
<polygon fill="white" stroke="none" points="-4,4 -4,-630 1207,-630 1207,4 -4,4"/>
<g id="clust1" class="cluster"><title>cluster_array</title>
<polygon fill="none" stroke="black" points="21.5,-109 21.5,-374 665.5,-374 665.5,-109 21.5,-109"/>
<text text-anchor="middle" x="343.5" y="-358.8" font-family="Times New Roman,serif" font-size="14.00">[]</text>
</g>
<!-- _Bnodes -->
<g id="node1" class="node"><title>_Bnodes</title>
<path fill="#ffe599" stroke="black" d="M1191,-36C1191,-36 12,-36 12,-36 6,-36 0,-30 0,-24 0,-24 0,-12 0,-12 0,-6 6,-0 12,-0 12,-0 1191,-0 1191,-0 1197,-0 1203,-6 1203,-12 1203,-12 1203,-24 1203,-24 1203,-30 1197,-36 1191,-36"/>
<text text-anchor="middle" x="601.5" y="-14.3" font-family="Times New Roman,serif" font-size="14.00">_Bnodes</text>
</g>
<!-- _Bnodes{contents{[__index] -->
<g id="node7" class="node"><title>_Bnodes{contents{[__index]</title>
<path fill="#ff5e99" stroke="black" d="M578.5,-343C578.5,-343 432.5,-343 432.5,-343 426.5,-343 420.5,-337 420.5,-331 420.5,-331 420.5,-319 420.5,-319 420.5,-313 426.5,-307 432.5,-307 432.5,-307 578.5,-307 578.5,-307 584.5,-307 590.5,-313 590.5,-319 590.5,-319 590.5,-331 590.5,-331 590.5,-337 584.5,-343 578.5,-343"/>
<text text-anchor="middle" x="505.5" y="-321.3" font-family="Times New Roman,serif" font-size="14.00">_Bnodes{contents{[:index]</text>
</g>
<!-- _Bnodes&#45;&gt;_Bnodes{contents{[__index] -->
<g id="edge7" class="edge"><title>_Bnodes&#45;&gt;_Bnodes{contents{[__index]</title>
<path fill="none" stroke="black" d="M705.213,-36.0355C722.07,-40.8491 735.872,-46.7922 741.5,-54 805.776,-136.324 809.721,-209.915 741.5,-289 723.156,-310.266 658.024,-318.823 600.821,-322.168"/>
<polygon fill="black" stroke="black" points="600.413,-318.685 590.615,-322.716 600.788,-325.675 600.413,-318.685"/>
<text text-anchor="middle" x="925.5" y="-182.8" font-family="Times New Roman,serif" font-size="14.00">_Bnodes{contents=_Bnodes{contents{[:center]</text>
</g>
<!-- _Bnodes{split -->
<g id="node2" class="node"><title>_Bnodes{split</title>
<path fill="#ffe599" stroke="black" d="M287,-553C287,-553 214,-553 214,-553 208,-553 202,-547 202,-541 202,-541 202,-529 202,-529 202,-523 208,-517 214,-517 214,-517 287,-517 287,-517 293,-517 299,-523 299,-529 299,-529 299,-541 299,-541 299,-547 293,-553 287,-553"/>
<text text-anchor="middle" x="250.5" y="-531.3" font-family="Times New Roman,serif" font-size="14.00">_Bnodes{split</text>
</g>
<!-- len -->
<g id="node3" class="node"><title>len</title>
<path fill="#ffe599" stroke="black" d="M265.5,-451C265.5,-451 235.5,-451 235.5,-451 229.5,-451 223.5,-445 223.5,-439 223.5,-439 223.5,-427 223.5,-427 223.5,-421 229.5,-415 235.5,-415 235.5,-415 265.5,-415 265.5,-415 271.5,-415 277.5,-421 277.5,-427 277.5,-427 277.5,-439 277.5,-439 277.5,-445 271.5,-451 265.5,-451"/>
<text text-anchor="middle" x="250.5" y="-429.3" font-family="Times New Roman,serif" font-size="14.00">len</text>
</g>
<!-- _Bnodes{split&#45;&gt;len -->
<g id="edge2" class="edge"><title>_Bnodes{split&#45;&gt;len</title>
<path fill="none" stroke="black" d="M250.5,-516.581C250.5,-501.382 250.5,-479.067 250.5,-461.464"/>
<polygon fill="black" stroke="black" points="254,-461.219 250.5,-451.219 247,-461.219 254,-461.219"/>
<text text-anchor="middle" x="354" y="-487.8" font-family="Times New Roman,serif" font-size="14.00">(_Bnodes{contents)</text>
<text text-anchor="middle" x="354" y="-472.8" font-family="Times New Roman,serif" font-size="14.00">{center = len(_Bnodes{contents)//2}</text>
</g>
<!-- _Bnodes{contents{[center] -->
<g id="node4" class="node"><title>_Bnodes{contents{[center]</title>
<path fill="#ff5e99" stroke="black" d="M323.5,-343C323.5,-343 177.5,-343 177.5,-343 171.5,-343 165.5,-337 165.5,-331 165.5,-331 165.5,-319 165.5,-319 165.5,-313 171.5,-307 177.5,-307 177.5,-307 323.5,-307 323.5,-307 329.5,-307 335.5,-313 335.5,-319 335.5,-319 335.5,-331 335.5,-331 335.5,-337 329.5,-343 323.5,-343"/>
<text text-anchor="middle" x="250.5" y="-321.3" font-family="Times New Roman,serif" font-size="14.00">_Bnodes{contents{[center]</text>
</g>
<!-- len&#45;&gt;_Bnodes{contents{[center] -->
<g id="edge3" class="edge"><title>len&#45;&gt;_Bnodes{contents{[center]</title>
<path fill="none" stroke="black" d="M250.5,-414.969C250.5,-398.378 250.5,-372.883 250.5,-353.431"/>
<polygon fill="black" stroke="black" points="254,-353.341 250.5,-343.341 247,-353.341 254,-353.341"/>
<text text-anchor="middle" x="355.5" y="-385.8" font-family="Times New Roman,serif" font-size="14.00">madian = _Bnodes{contents{[center]</text>
</g>
<!-- _Bnodes{contents{[index__] -->
<g id="node5" class="node"><title>_Bnodes{contents{[index__]</title>
<path fill="#ff5e99" stroke="black" d="M459.5,-256C459.5,-256 41.5,-256 41.5,-256 35.5,-256 29.5,-250 29.5,-244 29.5,-244 29.5,-232 29.5,-232 29.5,-226 35.5,-220 41.5,-220 41.5,-220 459.5,-220 459.5,-220 465.5,-220 471.5,-226 471.5,-232 471.5,-232 471.5,-244 471.5,-244 471.5,-250 465.5,-256 459.5,-256"/>
<text text-anchor="middle" x="250.5" y="-234.3" font-family="Times New Roman,serif" font-size="14.00">_Bnodes{contents{[index:]</text>
</g>
<!-- _Bnodes{contents{[center]&#45;&gt;_Bnodes{contents{[index__] -->
<g id="edge4" class="edge"><title>_Bnodes{contents{[center]&#45;&gt;_Bnodes{contents{[index__]</title>
<path fill="none" stroke="black" d="M250.5,-306.799C250.5,-295.163 250.5,-279.548 250.5,-266.237"/>
<polygon fill="black" stroke="black" points="254,-266.175 250.5,-256.175 247,-266.175 254,-266.175"/>
<text text-anchor="middle" x="299" y="-277.8" font-family="Times New Roman,serif" font-size="14.00">(index=center+1)</text>
</g>
<!-- _Bnodes{children{[index__] -->
<g id="node6" class="node"><title>_Bnodes{children{[index__]</title>
<path fill="#ff5e99" stroke="black" d="M597,-153C597,-153 182,-153 182,-153 176,-153 170,-147 170,-141 170,-141 170,-129 170,-129 170,-123 176,-117 182,-117 182,-117 597,-117 597,-117 603,-117 609,-123 609,-129 609,-129 609,-141 609,-141 609,-147 603,-153 597,-153"/>
<text text-anchor="middle" x="389.5" y="-131.3" font-family="Times New Roman,serif" font-size="14.00">_Bnodes{children{[index:]</text>
</g>
<!-- _Bnodes{contents{[index__]&#45;&gt;_Bnodes{children{[index__] -->
<g id="edge5" class="edge"><title>_Bnodes{contents{[index__]&#45;&gt;_Bnodes{children{[index__]</title>
<path fill="none" stroke="black" d="M274.079,-219.867C297.044,-203.18 332.115,-177.697 357.572,-159.2"/>
<polygon fill="black" stroke="black" points="359.772,-161.927 365.805,-153.217 355.658,-156.264 359.772,-161.927"/>
<text text-anchor="middle" x="390" y="-182.8" font-family="Times New Roman,serif" font-size="14.00">(index=center+1)</text>
</g>
<!-- _Bnodes{children{[index__]&#45;&gt;_Bnodes -->
<g id="edge6" class="edge"><title>_Bnodes{children{[index__]&#45;&gt;_Bnodes</title>
<path fill="none" stroke="black" d="M410.911,-116.956C433.632,-99.4601 471.075,-72.2794 506.5,-54 516.527,-48.8259 527.499,-44.0459 538.312,-39.7877"/>
<polygon fill="black" stroke="black" points="539.653,-43.0221 547.745,-36.1831 537.154,-36.4832 539.653,-43.0221"/>
<text text-anchor="start" x="506.5" y="-87.8" font-family="Times New Roman,serif" font-size="14.00">sibling = (_Bnodes{tree,</text>
<text text-anchor="start" x="506.5" y="-72.8" font-family="Times New Roman,serif" font-size="14.00"> contents=_Bnodes{contents{[center+1:],</text>
<text text-anchor="middle" x="624" y="-57.8" font-family="Times New Roman,serif" font-size="14.00"> children=_Bnodes{children{[center+1])</text>
</g>
<!-- _Bnodes{children{[__index] -->
<g id="node8" class="node"><title>_Bnodes{children{[__index]</title>
<path fill="#ff5e99" stroke="black" d="M645,-256C645,-256 502,-256 502,-256 496,-256 490,-250 490,-244 490,-244 490,-232 490,-232 490,-226 496,-220 502,-220 502,-220 645,-220 645,-220 651,-220 657,-226 657,-232 657,-232 657,-244 657,-244 657,-250 651,-256 645,-256"/>
<text text-anchor="middle" x="573.5" y="-234.3" font-family="Times New Roman,serif" font-size="14.00">_Bnodes{children{[:index]</text>
</g>
<!-- _Bnodes{contents{[__index]&#45;&gt;_Bnodes{children{[__index] -->
<g id="edge8" class="edge"><title>_Bnodes{contents{[__index]&#45;&gt;_Bnodes{children{[__index]</title>
<path fill="none" stroke="black" d="M482.734,-306.674C472.776,-296.956 464.9,-284.676 472.5,-274 475.796,-269.37 479.748,-265.347 484.154,-261.851"/>
<polygon fill="black" stroke="black" points="486.257,-264.653 492.528,-256.113 482.3,-258.879 486.257,-264.653"/>
<text text-anchor="middle" x="607" y="-277.8" font-family="Times New Roman,serif" font-size="14.00">_Bnodes{chldren=_Bnodes{children[:center+1]</text>
</g>
<!-- end -->
<g id="node10" class="node"><title>end</title>
<ellipse fill="none" stroke="black" cx="700.5" cy="-135" rx="27" ry="18"/>
<text text-anchor="middle" x="700.5" y="-131.3" font-family="Times New Roman,serif" font-size="14.00">end</text>
</g>
<!-- _Bnodes{children{[__index]&#45;&gt;end -->
<g id="edge9" class="edge"><title>_Bnodes{children{[__index]&#45;&gt;end</title>
<path fill="none" stroke="black" d="M590.191,-219.76C604.087,-205.84 624.728,-186.148 644.5,-171 653.032,-164.463 662.825,-158.02 671.812,-152.479"/>
<polygon fill="black" stroke="black" points="673.696,-155.43 680.453,-147.268 670.082,-149.435 673.696,-155.43"/>
<text text-anchor="middle" x="689" y="-174.8" font-family="Times New Roman,serif" font-size="14.00">(sibling,median)</text>
</g>
<!-- start -->
<g id="node9" class="node"><title>start</title>
<ellipse fill="none" stroke="black" cx="250.5" cy="-608" rx="27" ry="18"/>
<text text-anchor="middle" x="250.5" y="-604.3" font-family="Times New Roman,serif" font-size="14.00">start</text>
</g>
<!-- start&#45;&gt;_Bnodes{split -->
<g id="edge1" class="edge"><title>start&#45;&gt;_Bnodes{split</title>
<path fill="none" stroke="black" d="M250.5,-589.813C250.5,-581.789 250.5,-572.047 250.5,-563.069"/>
<polygon fill="black" stroke="black" points="254,-563.029 250.5,-553.029 247,-563.029 254,-563.029"/>
</g>
</g>
</svg>
