<?xml version="1.0" encoding="UTF-8" standalone="no"?>
<!DOCTYPE svg PUBLIC "-//W3C//DTD SVG 1.1//EN"
 "http://www.w3.org/Graphics/SVG/1.1/DTD/svg11.dtd">
<!-- Generated by graphviz version 2.38.0 (20140413.2041)
 -->
<!-- Title: %3 Pages: 1 -->
<svg width="2011pt" height="647pt"
 viewBox="0.00 0.00 2011.01 647.00" xmlns="http://www.w3.org/2000/svg" xmlns:xlink="http://www.w3.org/1999/xlink">
<g id="graph0" class="graph" transform="scale(1 1) rotate(0) translate(4 643)">
<title>%3</title>
<polygon fill="white" stroke="none" points="-4,4 -4,-643 2007.01,-643 2007.01,4 -4,4"/>
<!-- _Bnodes{tree -->
<g id="node1" class="node"><title>_Bnodes{tree</title>
<path fill="#00e599" stroke="black" d="M1079.16,-465C1079.16,-465 960.539,-465 960.539,-465 954.539,-465 944.256,-460.798 939.974,-456.595 939.974,-456.595 920.416,-437.405 920.416,-437.405 916.134,-433.202 917.851,-429 923.851,-429 923.851,-429 1042.47,-429 1042.47,-429 1048.47,-429 1058.75,-433.202 1063.03,-437.405 1063.03,-437.405 1082.59,-456.595 1082.59,-456.595 1086.87,-460.798 1085.16,-465 1079.16,-465"/>
<text text-anchor="middle" x="1001.5" y="-443.3" font-family="Times New Roman,serif" font-size="14.00">_Bnodes{tree</text>
</g>
<!-- _Bnodes{contents -->
<g id="node2" class="node"><title>_Bnodes{contents</title>
<path fill="#00e599" stroke="black" d="M1104.62,-392C1104.62,-392 945.498,-392 945.498,-392 939.498,-392 928.731,-388.357 923.964,-384.713 923.964,-384.713 895.926,-363.287 895.926,-363.287 891.159,-359.643 892.392,-356 898.392,-356 898.392,-356 1057.51,-356 1057.51,-356 1063.51,-356 1074.28,-359.643 1079.04,-363.287 1079.04,-363.287 1107.08,-384.713 1107.08,-384.713 1111.85,-388.357 1110.62,-392 1104.62,-392"/>
<text text-anchor="middle" x="1001.5" y="-370.3" font-family="Times New Roman,serif" font-size="14.00">_Bnodes{contents</text>
</g>
<!-- _Bnodes{tree&#45;&gt;_Bnodes{contents -->
<g id="edge3" class="edge"><title>_Bnodes{tree&#45;&gt;_Bnodes{contents</title>
<path fill="none" stroke="black" d="M1001.5,-428.813C1001.5,-420.789 1001.5,-411.047 1001.5,-402.069"/>
<polygon fill="black" stroke="black" points="1005,-402.029 1001.5,-392.029 998.004,-402.029 1005,-402.029"/>
</g>
<!-- _Bnodes{contents&#45;&gt;_Bnodes{contents -->
<g id="edge4" class="edge"><title>_Bnodes{contents&#45;&gt;_Bnodes{contents</title>
<path fill="none" stroke="#ffaa88" d="M1101.79,-380.438C1121.11,-379.679 1134.81,-377.533 1134.81,-374 1134.81,-370.047 1117.67,-367.83 1094.67,-367.35"/>
<polygon fill="#ffaa88" stroke="#ffaa88" points="1094.53,-363.848 1084.49,-367.25 1094.46,-370.848 1094.53,-363.848"/>
<text text-anchor="middle" x="1239.81" y="-370.3" font-family="Times New Roman,serif" font-size="14.00">{_Bnodes{contenst = contents or []}</text>
</g>
<!-- _Bnodes{children -->
<g id="node3" class="node"><title>_Bnodes{children</title>
<path fill="#00e599" stroke="black" d="M1991.01,-305C1991.01,-305 421.837,-305 421.837,-305 415.837,-305 403.896,-304.159 397.955,-303.319 397.955,-303.319 11.8781,-248.681 11.8781,-248.681 5.93725,-247.841 5.99645,-247 11.9964,-247 11.9964,-247 1581.17,-247 1581.17,-247 1587.17,-247 1599.11,-247.841 1605.05,-248.681 1605.05,-248.681 1991.13,-303.319 1991.13,-303.319 1997.07,-304.159 1997.01,-305 1991.01,-305"/>
<text text-anchor="middle" x="1001.5" y="-272.3" font-family="Times New Roman,serif" font-size="14.00">_Bnodes{children</text>
</g>
<!-- _Bnodes{contents&#45;&gt;_Bnodes{children -->
<g id="edge5" class="edge"><title>_Bnodes{contents&#45;&gt;_Bnodes{children</title>
<path fill="none" stroke="#ffaa88" d="M1001.5,-355.837C1001.5,-344.663 1001.5,-329.623 1001.5,-315.675"/>
<polygon fill="#ffaa88" stroke="#ffaa88" points="1005,-315.304 1001.5,-305.304 998.004,-315.304 1005,-315.304"/>
<text text-anchor="middle" x="1107" y="-326.8" font-family="Times New Roman,serif" font-size="14.00">{ _Bnodes{children = children or [] }</text>
</g>
<!-- _Bnodes{children? -->
<g id="node5" class="node"><title>_Bnodes{children?</title>
<path fill="#ffce9f" stroke="black" d="M989.651,-208.128C989.651,-208.128 899.406,-193.872 899.406,-193.872 893.479,-192.936 893.479,-191.064 899.406,-190.128 899.406,-190.128 989.651,-175.872 989.651,-175.872 995.577,-174.936 1007.43,-174.936 1013.36,-175.872 1013.36,-175.872 1103.6,-190.128 1103.6,-190.128 1109.53,-191.064 1109.53,-192.936 1103.6,-193.872 1103.6,-193.872 1013.36,-208.128 1013.36,-208.128 1007.43,-209.064 995.577,-209.064 989.651,-208.128"/>
<text text-anchor="middle" x="1001.5" y="-188.3" font-family="Times New Roman,serif" font-size="14.00">_Bnodes{children?</text>
</g>
<!-- _Bnodes{children&#45;&gt;_Bnodes{children? -->
<g id="edge6" class="edge"><title>_Bnodes{children&#45;&gt;_Bnodes{children?</title>
<path fill="none" stroke="#ffaa88" d="M1001.5,-246.78C1001.5,-238.181 1001.5,-228.748 1001.5,-220.216"/>
<polygon fill="#ffaa88" stroke="#ffaa88" points="1005,-220.022 1001.5,-210.022 998.004,-220.022 1005,-220.022"/>
</g>
<!-- _Bnodes{__init__ -->
<g id="node4" class="node"><title>_Bnodes{__init__</title>
<path fill="#ffe599" stroke="black" d="M1049.5,-552C1049.5,-552 953.504,-552 953.504,-552 947.504,-552 941.504,-546 941.504,-540 941.504,-540 941.504,-528 941.504,-528 941.504,-522 947.504,-516 953.504,-516 953.504,-516 1049.5,-516 1049.5,-516 1055.5,-516 1061.5,-522 1061.5,-528 1061.5,-528 1061.5,-540 1061.5,-540 1061.5,-546 1055.5,-552 1049.5,-552"/>
<text text-anchor="middle" x="1001.5" y="-530.3" font-family="Times New Roman,serif" font-size="14.00">_Bnodes{__init__</text>
</g>
<!-- _Bnodes{__init__&#45;&gt;_Bnodes{tree -->
<g id="edge2" class="edge"><title>_Bnodes{__init__&#45;&gt;_Bnodes{tree</title>
<path fill="none" stroke="black" d="M1001.5,-515.799C1001.5,-504.163 1001.5,-488.548 1001.5,-475.237"/>
<polygon fill="black" stroke="black" points="1005,-475.175 1001.5,-465.175 998.004,-475.175 1005,-475.175"/>
<text text-anchor="middle" x="1058.5" y="-486.8" font-family="Times New Roman,serif" font-size="14.00">_Bnodes{tree = tree</text>
</g>
<!-- len(_Bnodes{contents) + 1 == len(_Bnodes{children) -->
<g id="node6" class="node"><title>len(_Bnodes{contents) + 1 == len(_Bnodes{children)</title>
<path fill="#ffce9f" stroke="black" d="M743.526,-122.262C743.526,-122.262 475.397,-105.738 475.397,-105.738 469.408,-105.369 469.408,-104.631 475.397,-104.262 475.397,-104.262 743.526,-87.7381 743.526,-87.7381 749.515,-87.3691 761.492,-87.3691 767.481,-87.7381 767.481,-87.7381 1035.61,-104.262 1035.61,-104.262 1041.6,-104.631 1041.6,-105.369 1035.61,-105.738 1035.61,-105.738 767.481,-122.262 767.481,-122.262 761.492,-122.631 749.515,-122.631 743.526,-122.262"/>
<text text-anchor="middle" x="755.504" y="-101.3" font-family="Times New Roman,serif" font-size="14.00">len(_Bnodes{contents) + 1 == len(_Bnodes{children)</text>
</g>
<!-- _Bnodes{children?&#45;&gt;len(_Bnodes{contents) + 1 == len(_Bnodes{children) -->
<g id="edge8" class="edge"><title>_Bnodes{children?&#45;&gt;len(_Bnodes{contents) + 1 == len(_Bnodes{children)</title>
<path fill="none" stroke="#ffaa88" d="M967.557,-179.27C926.001,-164.912 855.216,-140.454 806.957,-123.779"/>
<polygon fill="#ffaa88" stroke="#ffaa88" points="807.915,-120.407 797.321,-120.449 805.629,-127.023 807.915,-120.407"/>
<text text-anchor="middle" x="931.504" y="-144.8" font-family="Times New Roman,serif" font-size="14.00">Yes, {assert}</text>
</g>
<!-- end -->
<g id="node8" class="node"><title>end</title>
<ellipse fill="none" stroke="black" cx="1060.5" cy="-18" rx="27" ry="18"/>
<text text-anchor="middle" x="1060.5" y="-14.3" font-family="Times New Roman,serif" font-size="14.00">end</text>
</g>
<!-- _Bnodes{children?&#45;&gt;end -->
<g id="edge7" class="edge"><title>_Bnodes{children?&#45;&gt;end</title>
<path fill="none" stroke="#ffaa88" d="M1018.13,-176.392C1031.22,-163.74 1048.55,-144.179 1056.5,-123 1065.8,-98.2555 1065.78,-67.8314 1064.05,-46.2984"/>
<polygon fill="#ffaa88" stroke="#ffaa88" points="1067.52,-45.8289 1063.07,-36.2161 1060.55,-46.5087 1067.52,-45.8289"/>
<text text-anchor="middle" x="1075" y="-101.3" font-family="Times New Roman,serif" font-size="14.00">NO</text>
</g>
<!-- len(_Bnodes{contents) + 1 == len(_Bnodes{children)&#45;&gt;end -->
<g id="edge9" class="edge"><title>len(_Bnodes{contents) + 1 == len(_Bnodes{children)&#45;&gt;end</title>
<path fill="none" stroke="#ffaa88" d="M877.48,-94.4683C930.591,-88.8398 986.026,-80.5213 1009.5,-69 1022.15,-62.7931 1033.62,-52.246 1042.46,-42.4342"/>
<polygon fill="#ffaa88" stroke="#ffaa88" points="1045.13,-44.6975 1048.96,-34.82 1039.81,-40.1519 1045.13,-44.6975"/>
<text text-anchor="middle" x="1041.5" y="-57.8" font-family="Times New Roman,serif" font-size="14.00">Yes</text>
</g>
<!-- Error -->
<g id="node9" class="node"><title>Error</title>
<ellipse fill="none" stroke="black" cx="755.504" cy="-18" rx="29.795" ry="18"/>
<text text-anchor="middle" x="755.504" y="-14.3" font-family="Times New Roman,serif" font-size="14.00">Error</text>
</g>
<!-- len(_Bnodes{contents) + 1 == len(_Bnodes{children)&#45;&gt;Error -->
<g id="edge10" class="edge"><title>len(_Bnodes{contents) + 1 == len(_Bnodes{children)&#45;&gt;Error</title>
<path fill="none" stroke="#ff0000" d="M755.504,-86.799C755.504,-75.1626 755.504,-59.5479 755.504,-46.2368"/>
<polygon fill="#ff0000" stroke="#ff0000" points="759.004,-46.1754 755.504,-36.1754 752.004,-46.1755 759.004,-46.1754"/>
<text text-anchor="middle" x="880.504" y="-57.8" font-family="Times New Roman,serif" font-size="14.00">No (&#39;one more child than data item required&#39;)</text>
</g>
<!-- start -->
<g id="node7" class="node"><title>start</title>
<ellipse fill="none" stroke="black" cx="1001.5" cy="-621" rx="27" ry="18"/>
<text text-anchor="middle" x="1001.5" y="-617.3" font-family="Times New Roman,serif" font-size="14.00">start</text>
</g>
<!-- start&#45;&gt;_Bnodes{__init__ -->
<g id="edge1" class="edge"><title>start&#45;&gt;_Bnodes{__init__</title>
<path fill="none" stroke="black" d="M1001.5,-602.799C1001.5,-591.163 1001.5,-575.548 1001.5,-562.237"/>
<polygon fill="black" stroke="black" points="1005,-562.175 1001.5,-552.175 998.004,-562.175 1005,-562.175"/>
<text text-anchor="middle" x="1104" y="-573.8" font-family="Times New Roman,serif" font-size="14.00">(tree,contents=None,children=None)</text>
</g>
</g>
</svg>
