<?xml version="1.0" encoding="UTF-8" standalone="no"?>
<!DOCTYPE svg PUBLIC "-//W3C//DTD SVG 1.1//EN"
 "http://www.w3.org/Graphics/SVG/1.1/DTD/svg11.dtd">
<!-- Generated by graphviz version 2.38.0 (20140413.2041)
 -->
<!-- Title: %3 Pages: 1 -->
<svg width="2592pt" height="1359pt"
 viewBox="0.00 0.00 2591.50 1359.00" xmlns="http://www.w3.org/2000/svg" xmlns:xlink="http://www.w3.org/1999/xlink">
<g id="graph0" class="graph" transform="scale(1 1) rotate(0) translate(4 1355)">
<title>%3</title>
<polygon fill="white" stroke="none" points="-4,4 -4,-1355 2587.5,-1355 2587.5,4 -4,4"/>
<!-- []{insert -->
<g id="node1" class="node"><title>[]{insert</title>
<path fill="#ff5e99" stroke="black" d="M1521.5,-1351C1521.5,-1351 1483.5,-1351 1483.5,-1351 1477.5,-1351 1471.5,-1345 1471.5,-1339 1471.5,-1339 1471.5,-1327 1471.5,-1327 1471.5,-1321 1477.5,-1315 1483.5,-1315 1483.5,-1315 1521.5,-1315 1521.5,-1315 1527.5,-1315 1533.5,-1321 1533.5,-1327 1533.5,-1327 1533.5,-1339 1533.5,-1339 1533.5,-1345 1527.5,-1351 1521.5,-1351"/>
<text text-anchor="middle" x="1502.5" y="-1329.3" font-family="Times New Roman,serif" font-size="14.00">[]{insert</text>
</g>
<!-- _Bnodes{children -->
<g id="node4" class="node"><title>_Bnodes{children</title>
<path fill="#00e599" stroke="black" d="M1058.89,-1233C1058.89,-1233 904.1,-1233 904.1,-1233 898.1,-1233 887.376,-1229.3 882.651,-1225.6 882.651,-1225.6 855.556,-1204.4 855.556,-1204.4 850.831,-1200.7 852.106,-1197 858.106,-1197 858.106,-1197 1012.9,-1197 1012.9,-1197 1018.9,-1197 1029.62,-1200.7 1034.35,-1204.4 1034.35,-1204.4 1061.44,-1225.6 1061.44,-1225.6 1066.17,-1229.3 1064.89,-1233 1058.89,-1233"/>
<text text-anchor="middle" x="958.5" y="-1211.3" font-family="Times New Roman,serif" font-size="14.00">_Bnodes{children</text>
</g>
<!-- []{insert&#45;&gt;_Bnodes{children -->
<g id="edge23" class="edge"><title>[]{insert&#45;&gt;_Bnodes{children</title>
<path fill="none" stroke="#aaffaa" d="M1471.19,-1331C1372.44,-1327.68 1071.78,-1316.09 1032.5,-1297 1007.65,-1284.92 987.21,-1260.53 974.154,-1241.66"/>
<polygon fill="#aaffaa" stroke="#aaffaa" points="976.967,-1239.57 968.518,-1233.17 971.137,-1243.44 976.967,-1239.57"/>
</g>
<!-- len(_Bnodes{contents) &gt; _Bnodes{tree{order -->
<g id="node9" class="node"><title>len(_Bnodes{contents) &gt; _Bnodes{tree{order</title>
<path fill="#ffce9f" stroke="black" d="M1796.53,-1232.15C1796.53,-1232.15 1567.93,-1215.85 1567.93,-1215.85 1561.95,-1215.43 1561.95,-1214.57 1567.93,-1214.15 1567.93,-1214.15 1796.53,-1197.85 1796.53,-1197.85 1802.52,-1197.43 1814.48,-1197.43 1820.47,-1197.85 1820.47,-1197.85 2049.07,-1214.15 2049.07,-1214.15 2055.05,-1214.57 2055.05,-1215.43 2049.07,-1215.85 2049.07,-1215.85 1820.47,-1232.15 1820.47,-1232.15 1814.48,-1232.57 1802.52,-1232.57 1796.53,-1232.15"/>
<text text-anchor="middle" x="1808.5" y="-1211.3" font-family="Times New Roman,serif" font-size="14.00">len(_Bnodes{contents) &gt; _Bnodes{tree{order</text>
</g>
<!-- []{insert&#45;&gt;len(_Bnodes{contents) &gt; _Bnodes{tree{order -->
<g id="edge4" class="edge"><title>[]{insert&#45;&gt;len(_Bnodes{contents) &gt; _Bnodes{tree{order</title>
<path fill="none" stroke="#fff00f" d="M1533.52,-1320.24C1587.29,-1299.86 1698.07,-1257.86 1761.38,-1233.86"/>
<polygon fill="#fff00f" stroke="#fff00f" points="1762.63,-1237.13 1770.74,-1230.31 1760.15,-1230.58 1762.63,-1237.13"/>
</g>
<!-- len(parent{contents) &gt; parent{tree{order -->
<g id="node16" class="node"><title>len(parent{contents) &gt; parent{tree{order</title>
<path fill="#ffce9f" stroke="black" d="M1301.54,-1232.04C1301.54,-1232.04 1101.41,-1215.96 1101.41,-1215.96 1095.43,-1215.48 1095.43,-1214.52 1101.41,-1214.04 1101.41,-1214.04 1301.54,-1197.96 1301.54,-1197.96 1307.52,-1197.48 1319.48,-1197.48 1325.46,-1197.96 1325.46,-1197.96 1525.59,-1214.04 1525.59,-1214.04 1531.57,-1214.52 1531.57,-1215.48 1525.59,-1215.96 1525.59,-1215.96 1325.46,-1232.04 1325.46,-1232.04 1319.48,-1232.52 1307.52,-1232.52 1301.54,-1232.04"/>
<text text-anchor="middle" x="1313.5" y="-1211.3" font-family="Times New Roman,serif" font-size="14.00">len(parent{contents) &gt; parent{tree{order</text>
</g>
<!-- []{insert&#45;&gt;len(parent{contents) &gt; parent{tree{order -->
<g id="edge25" class="edge"><title>[]{insert&#45;&gt;len(parent{contents) &gt; parent{tree{order</title>
<path fill="none" stroke="#ffaaaa" d="M1474.61,-1314.88C1440.63,-1294.03 1383.26,-1258.82 1346.94,-1236.52"/>
<polygon fill="#ffaaaa" stroke="#ffaaaa" points="1348.54,-1233.4 1338.19,-1231.15 1344.88,-1239.37 1348.54,-1233.4"/>
</g>
<!-- _Bnodes{tree{BRANCH -->
<g id="node2" class="node"><title>_Bnodes{tree{BRANCH</title>
<path fill="#00e599" stroke="black" d="M1991.11,-131C1991.11,-131 1306.25,-131 1306.25,-131 1300.25,-131 1288.53,-129.181 1282.81,-127.363 1282.81,-127.363 1123.33,-76.6372 1123.33,-76.6372 1117.61,-74.8186 1117.89,-73 1123.89,-73 1123.89,-73 1808.75,-73 1808.75,-73 1814.75,-73 1826.47,-74.8186 1832.19,-76.6372 1832.19,-76.6372 1991.67,-127.363 1991.67,-127.363 1997.39,-129.181 1997.11,-131 1991.11,-131"/>
<text text-anchor="middle" x="1557.5" y="-98.3" font-family="Times New Roman,serif" font-size="14.00">_Bnodes{tree{BRANCH</text>
</g>
<!-- _Bnodes{contents -->
<g id="node3" class="node"><title>_Bnodes{contents</title>
<path fill="#00e599" stroke="black" d="M2192.61,-36C2192.61,-36 2033.49,-36 2033.49,-36 2027.49,-36 2016.73,-32.3567 2011.96,-28.7135 2011.96,-28.7135 1983.92,-7.28652 1983.92,-7.28652 1979.16,-3.64326 1980.39,-2.08506e-014 1986.39,-2.0385e-014 1986.39,-2.0385e-014 2145.51,-8.03669e-015 2145.51,-8.03669e-015 2151.51,-7.57106e-015 2162.27,-3.64326 2167.04,-7.28652 2167.04,-7.28652 2195.08,-28.7135 2195.08,-28.7135 2199.84,-32.3567 2198.61,-36 2192.61,-36"/>
<text text-anchor="middle" x="2089.5" y="-14.3" font-family="Times New Roman,serif" font-size="14.00">_Bnodes{contents</text>
</g>
<!-- _Bnodes{tree{BRANCH&#45;&gt;_Bnodes{contents -->
<g id="edge20" class="edge"><title>_Bnodes{tree{BRANCH&#45;&gt;_Bnodes{contents</title>
<path fill="none" stroke="#aaffaa" d="M1739.47,-72.9523C1829.09,-59.1382 1932.9,-43.1379 2004.06,-32.17"/>
<polygon fill="#aaffaa" stroke="#aaffaa" points="2004.96,-35.5717 2014.31,-30.5891 2003.9,-28.6534 2004.96,-35.5717"/>
</g>
<!-- _Bnodes{contents&#45;&gt;[]{insert -->
<g id="edge3" class="edge"><title>_Bnodes{contents&#45;&gt;[]{insert</title>
<path fill="none" stroke="#fff00f" d="M2089.5,-36.2771C2089.5,-52.8718 2089.5,-78.6493 2089.5,-101 2089.5,-1216 2089.5,-1216 2089.5,-1216 2089.5,-1327.38 1677.61,-1333.56 1543.88,-1332.63"/>
<polygon fill="#fff00f" stroke="#fff00f" points="1543.68,-1329.13 1533.65,-1332.54 1543.61,-1336.13 1543.68,-1329.13"/>
<text text-anchor="middle" x="2123" y="-772.3" font-family="Times New Roman,serif" font-size="14.00">(index,item)</text>
</g>
<!-- _Bnodes{contents&#45;&gt;[]{insert -->
<g id="edge22" class="edge"><title>_Bnodes{contents&#45;&gt;[]{insert</title>
<path fill="none" stroke="#00ffaa" d="M2128.19,-36.023C2152.58,-49.6575 2179.5,-71.4071 2179.5,-101 2179.5,-1216 2179.5,-1216 2179.5,-1216 2179.5,-1288.27 2107.68,-1276.1 2038.5,-1297 1946.17,-1324.89 1653.07,-1330.56 1543.96,-1331.71"/>
<polygon fill="#00ffaa" stroke="#00ffaa" points="1543.65,-1328.21 1533.68,-1331.81 1543.72,-1335.21 1543.65,-1328.21"/>
<text text-anchor="middle" x="2305.5" y="-819.8" font-family="Times New Roman,serif" font-size="14.00">(index=parent_index,push) </text>
<text text-anchor="middle" x="2305.5" y="-804.8" font-family="Times New Roman,serif" font-size="14.00"> {parent{contents{insert(parent_index, push)</text>
</g>
<!-- _Bnodes{children&#45;&gt;[]{insert -->
<g id="edge24" class="edge"><title>_Bnodes{children&#45;&gt;[]{insert</title>
<path fill="none" stroke="#ffaaaa" d="M992.752,-1233.11C1002.34,-1238.4 1012.57,-1244.55 1021.5,-1251 1045.98,-1268.68 1043.84,-1284.9 1071.5,-1297 1140.62,-1327.24 1366.91,-1331.57 1460.94,-1332.04"/>
<polygon fill="#ffaaaa" stroke="#ffaaaa" points="1461.2,-1335.54 1471.21,-1332.07 1461.22,-1328.54 1461.2,-1335.54"/>
<text text-anchor="middle" x="1221.5" y="-1285.8" font-family="Times New Roman,serif" font-size="14.00">(parent_index+1,sibling)</text>
<text text-anchor="middle" x="1221.5" y="-1254.8" font-family="Times New Roman,serif" font-size="14.00"> &#160;&#160;&#160;&#160;&#160;&#160;&#160;parent{children{insert(parent_index + 1, sibling)</text>
</g>
<!-- _Bnodes{split -->
<g id="node5" class="node"><title>_Bnodes{split</title>
<path fill="#ffe599" stroke="black" d="M501,-401C501,-401 12,-401 12,-401 6,-401 0,-395 0,-389 0,-389 0,-326 0,-326 0,-320 6,-314 12,-314 12,-314 501,-314 501,-314 507,-314 513,-320 513,-326 513,-326 513,-389 513,-389 513,-395 507,-401 501,-401"/>
<text text-anchor="middle" x="256.5" y="-353.8" font-family="Times New Roman,serif" font-size="14.00">_Bnodes{split</text>
</g>
<!-- parent? -->
<g id="node12" class="node"><title>parent?</title>
<path fill="#ffce9f" stroke="black" d="M1546.15,-259.094C1546.15,-259.094 1516.56,-248.906 1516.56,-248.906 1510.89,-246.953 1510.89,-243.047 1516.56,-241.094 1516.56,-241.094 1546.15,-230.906 1546.15,-230.906 1551.83,-228.953 1563.17,-228.953 1568.85,-230.906 1568.85,-230.906 1598.44,-241.094 1598.44,-241.094 1604.11,-243.047 1604.11,-246.953 1598.44,-248.906 1598.44,-248.906 1568.85,-259.094 1568.85,-259.094 1563.17,-261.047 1551.83,-261.047 1546.15,-259.094"/>
<text text-anchor="middle" x="1557.5" y="-241.3" font-family="Times New Roman,serif" font-size="14.00">parent?</text>
</g>
<!-- _Bnodes{split&#45;&gt;parent? -->
<g id="edge18" class="edge"><title>_Bnodes{split&#45;&gt;parent?</title>
<path fill="none" stroke="#00ff00" d="M513.034,-315.091C516.207,-314.717 519.363,-314.353 522.5,-314 895.313,-272.062 1346.8,-253.347 1502,-247.832"/>
<polygon fill="#00ff00" stroke="#00ff00" points="1502.35,-251.322 1512.22,-247.473 1502.11,-244.327 1502.35,-251.322"/>
<text text-anchor="middle" x="944.5" y="-284.8" font-family="Times New Roman,serif" font-size="14.00">sibling,push=_Bnodes.split()</text>
</g>
<!-- _Bnodes{insert -->
<g id="node6" class="node"><title>_Bnodes{insert</title>
<path fill="#ffe599" stroke="black" d="M2571.5,-120C2571.5,-120 2219.5,-120 2219.5,-120 2213.5,-120 2207.5,-114 2207.5,-108 2207.5,-108 2207.5,-96 2207.5,-96 2207.5,-90 2213.5,-84 2219.5,-84 2219.5,-84 2571.5,-84 2571.5,-84 2577.5,-84 2583.5,-90 2583.5,-96 2583.5,-96 2583.5,-108 2583.5,-108 2583.5,-114 2577.5,-120 2571.5,-120"/>
<text text-anchor="middle" x="2395.5" y="-98.3" font-family="Times New Roman,serif" font-size="14.00">_Bnodes{insert</text>
</g>
<!-- _Bnodes{insert&#45;&gt;_Bnodes{contents -->
<g id="edge2" class="edge"><title>_Bnodes{insert&#45;&gt;_Bnodes{contents</title>
<path fill="none" stroke="#fff00f" d="M2331.72,-83.9099C2282.52,-70.7254 2214.4,-52.4704 2162.93,-38.6769"/>
<polygon fill="#fff00f" stroke="#fff00f" points="2163.76,-35.2758 2153.19,-36.0681 2161.95,-42.0373 2163.76,-35.2758"/>
</g>
<!-- _Bnodes{shrink -->
<g id="node7" class="node"><title>_Bnodes{shrink</title>
<path fill="#ffe599" stroke="black" d="M1466,-1146C1466,-1146 1383,-1146 1383,-1146 1377,-1146 1371,-1140 1371,-1134 1371,-1134 1371,-1122 1371,-1122 1371,-1116 1377,-1110 1383,-1110 1383,-1110 1466,-1110 1466,-1110 1472,-1110 1478,-1116 1478,-1122 1478,-1122 1478,-1134 1478,-1134 1478,-1140 1472,-1146 1466,-1146"/>
<text text-anchor="middle" x="1424.5" y="-1124.3" font-family="Times New Roman,serif" font-size="14.00">_Bnodes{shrink</text>
</g>
<!-- ancestors? -->
<g id="node10" class="node"><title>ancestors?</title>
<path fill="#ffce9f" stroke="black" d="M818.881,-1056C818.881,-1056 772.407,-1044 772.407,-1044 766.597,-1042.5 766.597,-1039.5 772.407,-1038 772.407,-1038 818.881,-1026 818.881,-1026 824.691,-1024.5 836.309,-1024.5 842.119,-1026 842.119,-1026 888.593,-1038 888.593,-1038 894.403,-1039.5 894.403,-1042.5 888.593,-1044 888.593,-1044 842.119,-1056 842.119,-1056 836.309,-1057.5 824.691,-1057.5 818.881,-1056"/>
<text text-anchor="middle" x="830.5" y="-1037.3" font-family="Times New Roman,serif" font-size="14.00">ancestors?</text>
</g>
<!-- _Bnodes{shrink&#45;&gt;ancestors? -->
<g id="edge7" class="edge"><title>_Bnodes{shrink&#45;&gt;ancestors?</title>
<path fill="none" stroke="#00ff00" d="M1370.92,-1115.87C1360.2,-1113.8 1349.01,-1111.74 1338.5,-1110 1174.98,-1082.92 980.478,-1059.25 886.646,-1048.36"/>
<polygon fill="#00ff00" stroke="#00ff00" points="886.86,-1044.86 876.525,-1047.19 886.056,-1051.82 886.86,-1044.86"/>
<text text-anchor="middle" x="1254" y="-1080.8" font-family="Times New Roman,serif" font-size="14.00">parent = None</text>
</g>
<!-- end -->
<g id="node18" class="node"><title>end</title>
<ellipse fill="none" stroke="black" cx="1442.5" cy="-1041" rx="27" ry="18"/>
<text text-anchor="middle" x="1442.5" y="-1037.3" font-family="Times New Roman,serif" font-size="14.00">end</text>
</g>
<!-- _Bnodes{shrink&#45;&gt;end -->
<g id="edge27" class="edge"><title>_Bnodes{shrink&#45;&gt;end</title>
<path fill="none" stroke="#ffaaaa" d="M1428.14,-1109.8C1430.62,-1098.09 1433.96,-1082.34 1436.79,-1068.97"/>
<polygon fill="#ffaaaa" stroke="#ffaaaa" points="1440.28,-1069.39 1438.92,-1058.89 1433.43,-1067.94 1440.28,-1069.39"/>
</g>
<!-- _Bnodes{lateral -->
<g id="node8" class="node"><title>_Bnodes{lateral</title>
<path fill="#ffe599" stroke="black" d="M2049.5,-375.5C2049.5,-375.5 543.5,-375.5 543.5,-375.5 537.5,-375.5 531.5,-369.5 531.5,-363.5 531.5,-363.5 531.5,-351.5 531.5,-351.5 531.5,-345.5 537.5,-339.5 543.5,-339.5 543.5,-339.5 2049.5,-339.5 2049.5,-339.5 2055.5,-339.5 2061.5,-345.5 2061.5,-351.5 2061.5,-351.5 2061.5,-363.5 2061.5,-363.5 2061.5,-369.5 2055.5,-375.5 2049.5,-375.5"/>
<text text-anchor="middle" x="1296.5" y="-353.8" font-family="Times New Roman,serif" font-size="14.00">_Bnodes{lateral</text>
</g>
<!-- len(_Bnodes{contents) &gt; _Bnodes{tree{order&#45;&gt;_Bnodes{shrink -->
<g id="edge6" class="edge"><title>len(_Bnodes{contents) &gt; _Bnodes{tree{order&#45;&gt;_Bnodes{shrink</title>
<path fill="none" stroke="#00ff00" d="M1750.18,-1201.09C1679.54,-1185.45 1560.99,-1159.21 1488.07,-1143.07"/>
<polygon fill="#00ff00" stroke="#00ff00" points="1488.61,-1139.61 1478.09,-1140.86 1487.1,-1146.44 1488.61,-1139.61"/>
<text text-anchor="middle" x="1682.5" y="-1167.8" font-family="Times New Roman,serif" font-size="14.00">Yes (ancestors)</text>
</g>
<!-- len(_Bnodes{contents) &gt; _Bnodes{tree{order&#45;&gt;end -->
<g id="edge5" class="edge"><title>len(_Bnodes{contents) &gt; _Bnodes{tree{order&#45;&gt;end</title>
<path fill="none" stroke="#fff00f" d="M1786.58,-1198.52C1771.27,-1188.08 1750.13,-1174.36 1730.5,-1164 1641.2,-1116.9 1529.7,-1073.86 1475.35,-1053.83"/>
<polygon fill="#fff00f" stroke="#fff00f" points="1476.48,-1050.52 1465.88,-1050.36 1474.07,-1057.09 1476.48,-1050.52"/>
<text text-anchor="middle" x="1701.5" y="-1124.3" font-family="Times New Roman,serif" font-size="14.00">No</text>
</g>
<!-- ancestors?&#45;&gt;_Bnodes{split -->
<g id="edge9" class="edge"><title>ancestors?&#45;&gt;_Bnodes{split</title>
<path fill="none" stroke="#00ff00" d="M775,-1037.27C634.439,-1029.62 275.5,-1005.17 275.5,-955 275.5,-955 275.5,-955 275.5,-517 275.5,-481.518 270.748,-441.884 265.997,-411.125"/>
<polygon fill="#00ff00" stroke="#00ff00" points="269.422,-410.377 264.393,-401.052 262.509,-411.478 269.422,-410.377"/>
<text text-anchor="middle" x="284.5" y="-772.3" font-family="Times New Roman,serif" font-size="14.00">No</text>
</g>
<!-- parent_index? -->
<g id="node11" class="node"><title>parent_index?</title>
<path fill="#ffce9f" stroke="black" d="M818.748,-969.572C818.748,-969.572 755.112,-956.428 755.112,-956.428 749.236,-955.214 749.236,-952.786 755.112,-951.572 755.112,-951.572 818.748,-938.428 818.748,-938.428 824.624,-937.214 836.376,-937.214 842.252,-938.428 842.252,-938.428 905.888,-951.572 905.888,-951.572 911.764,-952.786 911.764,-955.214 905.888,-956.428 905.888,-956.428 842.252,-969.572 842.252,-969.572 836.376,-970.786 824.624,-970.786 818.748,-969.572"/>
<text text-anchor="middle" x="830.5" y="-950.3" font-family="Times New Roman,serif" font-size="14.00">parent_index?</text>
</g>
<!-- ancestors?&#45;&gt;parent_index? -->
<g id="edge8" class="edge"><title>ancestors?&#45;&gt;parent_index?</title>
<path fill="none" stroke="#00ff00" d="M830.5,-1022.8C830.5,-1011.16 830.5,-995.548 830.5,-982.237"/>
<polygon fill="#00ff00" stroke="#00ff00" points="834,-982.175 830.5,-972.175 827,-982.175 834,-982.175"/>
<text text-anchor="middle" x="957" y="-993.8" font-family="Times New Roman,serif" font-size="14.00">Yes (parent, parent_index = ancestors.pop())</text>
</g>
<!-- len(left_sib{contents) &lt; _Bnodes{tree{order -->
<g id="node13" class="node"><title>len(left_sib{contents) &lt; _Bnodes{tree{order</title>
<path fill="#ffce9f" stroke="black" d="M1118.53,-884.119C1118.53,-884.119 897.976,-867.881 897.976,-867.881 891.992,-867.441 891.992,-866.559 897.976,-866.119 897.976,-866.119 1118.53,-849.881 1118.53,-849.881 1124.52,-849.441 1136.48,-849.441 1142.47,-849.881 1142.47,-849.881 1363.02,-866.119 1363.02,-866.119 1369.01,-866.559 1369.01,-867.441 1363.02,-867.881 1363.02,-867.881 1142.47,-884.119 1142.47,-884.119 1136.48,-884.559 1124.52,-884.559 1118.53,-884.119"/>
<text text-anchor="middle" x="1130.5" y="-863.3" font-family="Times New Roman,serif" font-size="14.00">len(left_sib{contents) &lt; _Bnodes{tree{order</text>
</g>
<!-- parent_index?&#45;&gt;len(left_sib{contents) &lt; _Bnodes{tree{order -->
<g id="edge12" class="edge"><title>parent_index?&#45;&gt;len(left_sib{contents) &lt; _Bnodes{tree{order</title>
<path fill="none" stroke="#00ff00" d="M865.207,-943.166C916.051,-928.761 1011.4,-901.746 1072.86,-884.33"/>
<polygon fill="#00ff00" stroke="#00ff00" points="1074.13,-887.608 1082.8,-881.515 1072.23,-880.873 1074.13,-887.608"/>
<text text-anchor="middle" x="1137" y="-906.8" font-family="Times New Roman,serif" font-size="14.00">Yes (left_sib = parent{children[parent_index &#45; 1])</text>
</g>
<!-- parent_index + 1 &lt; len(parent{children) -->
<g id="node15" class="node"><title>parent_index + 1 &lt; len(parent{children)</title>
<path fill="#ffce9f" stroke="black" d="M708.541,-702.011C708.541,-702.011 514.779,-685.989 514.779,-685.989 508.799,-685.494 508.799,-684.506 514.779,-684.011 514.779,-684.011 708.541,-667.989 708.541,-667.989 714.52,-667.494 726.48,-667.494 732.459,-667.989 732.459,-667.989 926.221,-684.011 926.221,-684.011 932.201,-684.506 932.201,-685.494 926.221,-685.989 926.221,-685.989 732.459,-702.011 732.459,-702.011 726.48,-702.506 714.52,-702.506 708.541,-702.011"/>
<text text-anchor="middle" x="720.5" y="-681.3" font-family="Times New Roman,serif" font-size="14.00">parent_index + 1 &lt; len(parent{children)</text>
</g>
<!-- parent_index?&#45;&gt;parent_index + 1 &lt; len(parent{children) -->
<g id="edge10" class="edge"><title>parent_index?&#45;&gt;parent_index + 1 &lt; len(parent{children)</title>
<path fill="none" stroke="#00ff00" d="M800.877,-941.899C777.033,-931.24 745.027,-912.646 729.5,-885 698.72,-830.193 707.11,-752.897 714.565,-712.674"/>
<polygon fill="#00ff00" stroke="#00ff00" points="718.007,-713.311 716.513,-702.822 711.14,-711.953 718.007,-713.311"/>
<text text-anchor="middle" x="803.5" y="-863.3" font-family="Times New Roman,serif" font-size="14.00">NO (parent, parent_index)</text>
</g>
<!-- parent?&#45;&gt;_Bnodes{tree{BRANCH -->
<g id="edge19" class="edge"><title>parent?&#45;&gt;_Bnodes{tree{BRANCH</title>
<path fill="none" stroke="#00ff00" d="M1557.5,-226.992C1557.5,-205.884 1557.5,-169.256 1557.5,-141.266"/>
<polygon fill="#00ff00" stroke="#00ff00" points="1561,-141.012 1557.5,-131.012 1554,-141.012 1561,-141.012"/>
<text text-anchor="middle" x="1718.5" y="-197.8" font-family="Times New Roman,serif" font-size="14.00">NO (tree=_Bnodes{tree,children=[_Bnodes])</text>
<text text-anchor="middle" x="1718.5" y="-182.8" font-family="Times New Roman,serif" font-size="14.00"> &#160;&#160;&#160;&#160;&#160;&#160;&#160;&#160;&#160;&#160;&#160;parent, parent_index = _Bnodes{tree{BRANCH(</text>
<text text-anchor="middle" x="1718.5" y="-167.8" font-family="Times New Roman,serif" font-size="14.00"> &#160;&#160;&#160;&#160;&#160;&#160;&#160;&#160;&#160;&#160;&#160;&#160;&#160;&#160;&#160;&#160;&#160;&#160;&#160;_Bnodes{tree, children=[self]), 0</text>
<text text-anchor="middle" x="1718.5" y="-152.8" font-family="Times New Roman,serif" font-size="14.00">_Bnodes{tree{_root = parent</text>
</g>
<!-- parent?&#45;&gt;_Bnodes{contents -->
<g id="edge21" class="edge"><title>parent?&#45;&gt;_Bnodes{contents</title>
<path fill="none" stroke="#aaffaa" d="M1600.51,-241.703C1676.69,-237.251 1832.13,-226.333 1883.5,-209 1946.98,-187.582 1963.76,-176.971 2012.5,-131 2016.25,-127.467 2050.69,-76.6624 2072.23,-44.7058"/>
<polygon fill="#aaffaa" stroke="#aaffaa" points="2075.24,-46.4971 2077.92,-36.2471 2069.43,-42.588 2075.24,-46.4971"/>
<text text-anchor="middle" x="2063.5" y="-98.3" font-family="Times New Roman,serif" font-size="14.00">Yes</text>
</g>
<!-- len(left_sib{contents) &lt; _Bnodes{tree{order&#45;&gt;_Bnodes{lateral -->
<g id="edge13" class="edge"><title>len(left_sib{contents) &lt; _Bnodes{tree{order&#45;&gt;_Bnodes{lateral</title>
<path fill="none" stroke="#00ff00" d="M1204.77,-854.46C1231.08,-848.794 1256.22,-841.002 1264.5,-831 1374.89,-697.651 1325.34,-464.038 1304.27,-385.285"/>
<polygon fill="#00ff00" stroke="#00ff00" points="1307.65,-384.354 1301.62,-375.637 1300.9,-386.207 1307.65,-384.354"/>
<text text-anchor="middle" x="1523.5" y="-597.8" font-family="Times New Roman,serif" font-size="14.00">Yes (parent,parent_index,dest=left_sib,dest_index=parent_index&#45;1)</text>
</g>
<!-- len(left_sib{contents) &lt; _Bnodes{tree{order&#45;&gt;parent_index + 1 &lt; len(parent{children) -->
<g id="edge11" class="edge"><title>len(left_sib{contents) &lt; _Bnodes{tree{order&#45;&gt;parent_index + 1 &lt; len(parent{children)</title>
<path fill="none" stroke="#00ff00" d="M1078.74,-852.735C1057.88,-846.854 1033.78,-839.366 1012.5,-831 916.646,-793.311 809.522,-735.937 755.583,-705.907"/>
<polygon fill="#00ff00" stroke="#00ff00" points="757.205,-702.804 746.769,-700.979 753.789,-708.914 757.205,-702.804"/>
<text text-anchor="middle" x="1138.5" y="-772.3" font-family="Times New Roman,serif" font-size="14.00">NO (parent, parent_index = ancestors.pop())</text>
</g>
<!-- len(right_sib{contents) &lt; _Bnodes{tree{order -->
<g id="node14" class="node"><title>len(right_sib{contents) &lt; _Bnodes{tree{order</title>
<path fill="#ffce9f" stroke="black" d="M708.531,-535.144C708.531,-535.144 480.771,-518.856 480.771,-518.856 474.786,-518.428 474.786,-517.572 480.771,-517.144 480.771,-517.144 708.531,-500.856 708.531,-500.856 714.515,-500.428 726.485,-500.428 732.469,-500.856 732.469,-500.856 960.229,-517.144 960.229,-517.144 966.214,-517.572 966.214,-518.428 960.229,-518.856 960.229,-518.856 732.469,-535.144 732.469,-535.144 726.485,-535.572 714.515,-535.572 708.531,-535.144"/>
<text text-anchor="middle" x="720.5" y="-514.3" font-family="Times New Roman,serif" font-size="14.00">len(right_sib{contents) &lt; _Bnodes{tree{order</text>
</g>
<!-- len(right_sib{contents) &lt; _Bnodes{tree{order&#45;&gt;_Bnodes{split -->
<g id="edge17" class="edge"><title>len(right_sib{contents) &lt; _Bnodes{tree{order&#45;&gt;_Bnodes{split</title>
<path fill="none" stroke="#00ff00" d="M679.323,-502.934C615.251,-481.048 488.878,-437.879 390.903,-404.411"/>
<polygon fill="#00ff00" stroke="#00ff00" points="391.807,-401.022 381.213,-401.101 389.545,-407.646 391.807,-401.022"/>
<text text-anchor="middle" x="617.5" y="-446.8" font-family="Times New Roman,serif" font-size="14.00">No</text>
</g>
<!-- len(right_sib{contents) &lt; _Bnodes{tree{order&#45;&gt;_Bnodes{lateral -->
<g id="edge15" class="edge"><title>len(right_sib{contents) &lt; _Bnodes{tree{order&#45;&gt;_Bnodes{lateral</title>
<path fill="none" stroke="#00ff00" d="M740.193,-501.111C768.943,-478.827 824.941,-438.806 879.5,-419 933.696,-399.326 994.047,-386.032 1051.63,-377.054"/>
<polygon fill="#00ff00" stroke="#00ff00" points="1052.23,-380.502 1061.59,-375.539 1051.18,-373.582 1052.23,-380.502"/>
<text text-anchor="start" x="879.5" y="-470.8" font-family="Times New Roman,serif" font-size="14.00">Yes (parent,parent_index,dest=left_sib,dest_index=parent_index+1) </text>
</g>
<!-- parent_index + 1 &lt; len(parent{children)&#45;&gt;_Bnodes{split -->
<g id="edge16" class="edge"><title>parent_index + 1 &lt; len(parent{children)&#45;&gt;_Bnodes{split</title>
<path fill="none" stroke="#00ff00" d="M686.547,-669.689C632.202,-645.992 523.467,-595.29 441.5,-536 389.262,-498.215 336.913,-446.365 301.302,-408.462"/>
<polygon fill="#00ff00" stroke="#00ff00" points="303.789,-405.998 294.407,-401.075 298.672,-410.774 303.789,-405.998"/>
<text text-anchor="middle" x="450.5" y="-514.3" font-family="Times New Roman,serif" font-size="14.00">No</text>
</g>
<!-- parent_index + 1 &lt; len(parent{children)&#45;&gt;len(right_sib{contents) &lt; _Bnodes{tree{order -->
<g id="edge14" class="edge"><title>parent_index + 1 &lt; len(parent{children)&#45;&gt;len(right_sib{contents) &lt; _Bnodes{tree{order</title>
<path fill="none" stroke="#00ff00" d="M720.5,-666.964C720.5,-638.433 720.5,-580.752 720.5,-546.442"/>
<polygon fill="#00ff00" stroke="#00ff00" points="724,-546.191 720.5,-536.191 717,-546.191 724,-546.191"/>
<text text-anchor="middle" x="866.5" y="-637.8" font-family="Times New Roman,serif" font-size="14.00">Yes (right_sib = parent{children[parent_index + 1]) </text>
</g>
<!-- len(parent{contents) &gt; parent{tree{order&#45;&gt;_Bnodes{shrink -->
<g id="edge26" class="edge"><title>len(parent{contents) &gt; parent{tree{order&#45;&gt;_Bnodes{shrink</title>
<path fill="none" stroke="#ffaaaa" d="M1333.6,-1198.61C1350.47,-1185.69 1374.83,-1167.03 1394.09,-1152.29"/>
<polygon fill="#ffaaaa" stroke="#ffaaaa" points="1396.45,-1154.89 1402.26,-1146.03 1392.19,-1149.33 1396.45,-1154.89"/>
<text text-anchor="middle" x="1420.5" y="-1167.8" font-family="Times New Roman,serif" font-size="14.00">Yes (ancestors)</text>
</g>
<!-- len(parent{contents) &gt; parent{tree{order&#45;&gt;end -->
<g id="edge28" class="edge"><title>len(parent{contents) &gt; parent{tree{order&#45;&gt;end</title>
<path fill="none" stroke="#ffaaaa" d="M1309.81,-1197.03C1304.71,-1168.71 1299.09,-1111.52 1327.5,-1077 1346.15,-1054.34 1379.01,-1046.01 1404.84,-1043.11"/>
<polygon fill="#ffaaaa" stroke="#ffaaaa" points="1405.42,-1046.57 1415.06,-1042.2 1404.79,-1039.6 1405.42,-1046.57"/>
<text text-anchor="middle" x="1322" y="-1124.3" font-family="Times New Roman,serif" font-size="14.00">NO</text>
</g>
<!-- start -->
<g id="node17" class="node"><title>start</title>
<ellipse fill="none" stroke="black" cx="2395.5" cy="-245" rx="27" ry="18"/>
<text text-anchor="middle" x="2395.5" y="-241.3" font-family="Times New Roman,serif" font-size="14.00">start</text>
</g>
<!-- start&#45;&gt;_Bnodes{insert -->
<g id="edge1" class="edge"><title>start&#45;&gt;_Bnodes{insert</title>
<path fill="none" stroke="black" d="M2395.5,-226.992C2395.5,-202.961 2395.5,-158.815 2395.5,-130.2"/>
<polygon fill="black" stroke="black" points="2399,-130.068 2395.5,-120.068 2392,-130.068 2399,-130.068"/>
<text text-anchor="middle" x="2457.5" y="-175.3" font-family="Times New Roman,serif" font-size="14.00">(index,item,ancestors)</text>
</g>
</g>
</svg>
