<?xml version="1.0" encoding="UTF-8" standalone="no"?>
<!DOCTYPE svg PUBLIC "-//W3C//DTD SVG 1.1//EN"
 "http://www.w3.org/Graphics/SVG/1.1/DTD/svg11.dtd">
<!-- Generated by graphviz version 2.38.0 (20140413.2041)
 -->
<!-- Title: %3 Pages: 1 -->
<svg width="717pt" height="503pt"
 viewBox="0.00 0.00 717.14 503.00" xmlns="http://www.w3.org/2000/svg" xmlns:xlink="http://www.w3.org/1999/xlink">
<g id="graph0" class="graph" transform="scale(1 1) rotate(0) translate(4 499)">
<title>%3</title>
<polygon fill="white" stroke="none" points="-4,4 -4,-499 713.139,-499 713.139,4 -4,4"/>
<!-- Btree{_present -->
<g id="node1" class="node"><title>Btree{_present</title>
<path fill="#ffe599" stroke="black" d="M393.07,-408C393.07,-408 316.07,-408 316.07,-408 310.07,-408 304.07,-402 304.07,-396 304.07,-396 304.07,-384 304.07,-384 304.07,-378 310.07,-372 316.07,-372 316.07,-372 393.07,-372 393.07,-372 399.07,-372 405.07,-378 405.07,-384 405.07,-384 405.07,-396 405.07,-396 405.07,-402 399.07,-408 393.07,-408"/>
<text text-anchor="middle" x="354.57" y="-386.3" font-family="Times New Roman,serif" font-size="14.00">Btree{_present</text>
</g>
<!-- ancestors -->
<g id="node2" class="node"><title>ancestors</title>
<path fill="#00e599" stroke="black" d="M697.209,-305C697.209,-305 157.057,-305 157.057,-305 151.057,-305 139.486,-302.773 133.914,-300.547 133.914,-300.547 11.0735,-251.453 11.0735,-251.453 5.50194,-249.227 5.93041,-247 11.9304,-247 11.9304,-247 552.082,-247 552.082,-247 558.082,-247 569.653,-249.227 575.225,-251.453 575.225,-251.453 698.066,-300.547 698.066,-300.547 703.637,-302.773 703.209,-305 697.209,-305"/>
<text text-anchor="middle" x="354.57" y="-272.3" font-family="Times New Roman,serif" font-size="14.00">ancestors</text>
</g>
<!-- Btree{_present&#45;&gt;ancestors -->
<g id="edge2" class="edge"><title>Btree{_present&#45;&gt;ancestors</title>
<path fill="none" stroke="black" d="M354.57,-371.99C354.57,-356.947 354.57,-334.452 354.57,-315.129"/>
<polygon fill="black" stroke="black" points="358.07,-315.079 354.57,-305.079 351.07,-315.079 358.07,-315.079"/>
<text text-anchor="middle" x="474.57" y="-326.8" font-family="Times New Roman,serif" font-size="14.00"> &#160;&#160;&#160;&#160;&#160;&#160;&#160;&#160;&#160;&#160;&#160;&#160;&#160;last,index=ancestors[&#45;1] &#160;&#160;&#160;&#160;&#160;&#160;&#160;&#160;&#160;&#160;&#160;&#160;&#160;</text>
</g>
<!-- index &lt; len(last{contents) -->
<g id="node3" class="node"><title>index &lt; len(last{contents)</title>
<path fill="#ffce9f" stroke="black" d="M342.658,-208.543C342.658,-208.543 219.35,-193.457 219.35,-193.457 213.395,-192.729 213.395,-191.271 219.35,-190.543 219.35,-190.543 342.658,-175.457 342.658,-175.457 348.614,-174.729 360.525,-174.729 366.481,-175.457 366.481,-175.457 489.789,-190.543 489.789,-190.543 495.744,-191.271 495.744,-192.729 489.789,-193.457 489.789,-193.457 366.481,-208.543 366.481,-208.543 360.525,-209.271 348.614,-209.271 342.658,-208.543"/>
<text text-anchor="middle" x="354.57" y="-188.3" font-family="Times New Roman,serif" font-size="14.00">index &lt; len(last{contents)</text>
</g>
<!-- ancestors&#45;&gt;index &lt; len(last{contents) -->
<g id="edge3" class="edge"><title>ancestors&#45;&gt;index &lt; len(last{contents)</title>
<path fill="none" stroke="black" d="M354.57,-246.78C354.57,-238.181 354.57,-228.748 354.57,-220.216"/>
<polygon fill="black" stroke="black" points="358.07,-220.022 354.57,-210.022 351.07,-220.022 358.07,-220.022"/>
</g>
<!-- last{contents[index]==item -->
<g id="node4" class="node"><title>last{contents[index]==item</title>
<path fill="#ffce9f" stroke="black" d="M200.65,-121.61C200.65,-121.61 70.1519,-106.39 70.1519,-106.39 64.1923,-105.695 64.1923,-104.305 70.1519,-103.61 70.1519,-103.61 200.65,-88.3901 200.65,-88.3901 206.61,-87.6951 218.529,-87.6951 224.489,-88.3901 224.489,-88.3901 354.987,-103.61 354.987,-103.61 360.947,-104.305 360.947,-105.695 354.987,-106.39 354.987,-106.39 224.489,-121.61 224.489,-121.61 218.529,-122.305 206.61,-122.305 200.65,-121.61"/>
<text text-anchor="middle" x="212.57" y="-101.3" font-family="Times New Roman,serif" font-size="14.00">last{contents[index]==item</text>
</g>
<!-- index &lt; len(last{contents)&#45;&gt;last{contents[index]==item -->
<g id="edge5" class="edge"><title>index &lt; len(last{contents)&#45;&gt;last{contents[index]==item</title>
<path fill="none" stroke="black" d="M330.802,-176.773C307.354,-162.737 271.328,-141.172 245.205,-125.535"/>
<polygon fill="black" stroke="black" points="246.793,-122.407 236.415,-120.274 243.197,-128.413 246.793,-122.407"/>
<text text-anchor="middle" x="303.57" y="-144.8" font-family="Times New Roman,serif" font-size="14.00">Yes</text>
</g>
<!-- end -->
<g id="node6" class="node"><title>end</title>
<ellipse fill="none" stroke="black" cx="296.57" cy="-18" rx="27" ry="18"/>
<text text-anchor="middle" x="296.57" y="-14.3" font-family="Times New Roman,serif" font-size="14.00">end</text>
</g>
<!-- index &lt; len(last{contents)&#45;&gt;end -->
<g id="edge4" class="edge"><title>index &lt; len(last{contents)&#45;&gt;end</title>
<path fill="none" stroke="black" d="M363.139,-174.756C372.926,-153.956 386.283,-117.012 375.57,-87 367.257,-63.7122 345.311,-45.9116 326.655,-34.3751"/>
<polygon fill="black" stroke="black" points="328.234,-31.244 317.834,-29.2183 324.701,-37.287 328.234,-31.244"/>
<text text-anchor="middle" x="408.57" y="-101.3" font-family="Times New Roman,serif" font-size="14.00">No (False)</text>
</g>
<!-- last{contents[index]==item&#45;&gt;end -->
<g id="edge6" class="edge"><title>last{contents[index]==item&#45;&gt;end</title>
<path fill="none" stroke="black" d="M208.586,-87.3173C207.072,-76.8772 207.04,-63.6293 213.57,-54 224.135,-38.4194 243.115,-29.7527 260.262,-24.9427"/>
<polygon fill="black" stroke="black" points="261.192,-28.3184 270.068,-22.5333 259.521,-21.5206 261.192,-28.3184"/>
<text text-anchor="middle" x="244.07" y="-57.8" font-family="Times New Roman,serif" font-size="14.00">Yes (True)</text>
</g>
<!-- last{contents[index]==item&#45;&gt;end -->
<g id="edge7" class="edge"><title>last{contents[index]==item&#45;&gt;end</title>
<path fill="none" stroke="black" d="M244.979,-90.7228C255.449,-85.2143 266.44,-77.9804 274.57,-69 280.633,-62.302 285.23,-53.665 288.613,-45.4596"/>
<polygon fill="black" stroke="black" points="291.989,-46.4179 292.153,-35.8244 285.419,-44.0035 291.989,-46.4179"/>
<text text-anchor="middle" x="314.57" y="-57.8" font-family="Times New Roman,serif" font-size="14.00">No (False)</text>
</g>
<!-- start -->
<g id="node5" class="node"><title>start</title>
<ellipse fill="none" stroke="black" cx="354.57" cy="-477" rx="27" ry="18"/>
<text text-anchor="middle" x="354.57" y="-473.3" font-family="Times New Roman,serif" font-size="14.00">start</text>
</g>
<!-- start&#45;&gt;Btree{_present -->
<g id="edge1" class="edge"><title>start&#45;&gt;Btree{_present</title>
<path fill="none" stroke="black" d="M354.57,-458.799C354.57,-447.163 354.57,-431.548 354.57,-418.237"/>
<polygon fill="black" stroke="black" points="358.07,-418.175 354.57,-408.175 351.07,-418.175 358.07,-418.175"/>
<text text-anchor="middle" x="399.57" y="-429.8" font-family="Times New Roman,serif" font-size="14.00">(item,ancestors)</text>
</g>
</g>
</svg>
