<?xml version="1.0" encoding="UTF-8" standalone="no"?>
<!DOCTYPE svg PUBLIC "-//W3C//DTD SVG 1.1//EN"
 "http://www.w3.org/Graphics/SVG/1.1/DTD/svg11.dtd">
<!-- Generated by graphviz version 2.38.0 (20140413.2041)
 -->
<!-- Title: %3 Pages: 1 -->
<svg width="2218pt" height="720pt"
 viewBox="0.00 0.00 2217.85 720.00" xmlns="http://www.w3.org/2000/svg" xmlns:xlink="http://www.w3.org/1999/xlink">
<g id="graph0" class="graph" transform="scale(1 1) rotate(0) translate(4 716)">
<title>%3</title>
<polygon fill="white" stroke="none" points="-4,4 -4,-716 2213.85,-716 2213.85,4 -4,4"/>
<!-- []{append -->
<g id="node1" class="node"><title>[]{append</title>
<path fill="#ff5e99" stroke="black" d="M1271.8,-712C1271.8,-712 1221.8,-712 1221.8,-712 1215.8,-712 1209.8,-706 1209.8,-700 1209.8,-700 1209.8,-688 1209.8,-688 1209.8,-682 1215.8,-676 1221.8,-676 1221.8,-676 1271.8,-676 1271.8,-676 1277.8,-676 1283.8,-682 1283.8,-688 1283.8,-688 1283.8,-700 1283.8,-700 1283.8,-706 1277.8,-712 1271.8,-712"/>
<text text-anchor="middle" x="1246.8" y="-690.3" font-family="Times New Roman,serif" font-size="14.00">[]{append</text>
</g>
<!-- index &lt; len(current{contents) -->
<g id="node4" class="node"><title>index &lt; len(current{contents)</title>
<path fill="#ffce9f" stroke="black" d="M676.871,-637.702C676.871,-637.702 535.333,-622.298 535.333,-622.298 529.368,-621.649 529.368,-620.351 535.333,-619.702 535.333,-619.702 676.871,-604.298 676.871,-604.298 682.835,-603.649 694.765,-603.649 700.73,-604.298 700.73,-604.298 842.267,-619.702 842.267,-619.702 848.232,-620.351 848.232,-621.649 842.267,-622.298 842.267,-622.298 700.73,-637.702 700.73,-637.702 694.765,-638.351 682.835,-638.351 676.871,-637.702"/>
<text text-anchor="middle" x="688.8" y="-617.3" font-family="Times New Roman,serif" font-size="14.00">index &lt; len(current{contents)</text>
</g>
<!-- []{append&#45;&gt;index &lt; len(current{contents) -->
<g id="edge7" class="edge"><title>[]{append&#45;&gt;index &lt; len(current{contents)</title>
<path fill="none" stroke="#0000ff" d="M1209.76,-688.287C1120.97,-676.99 894.298,-648.148 771.257,-632.492"/>
<polygon fill="#0000ff" stroke="#0000ff" points="771.493,-628.994 761.131,-631.203 770.609,-635.938 771.493,-628.994"/>
</g>
<!-- end -->
<g id="node10" class="node"><title>end</title>
<ellipse fill="none" stroke="black" cx="1176.8" cy="-393" rx="27" ry="18"/>
<text text-anchor="middle" x="1176.8" y="-389.3" font-family="Times New Roman,serif" font-size="14.00">end</text>
</g>
<!-- []{append&#45;&gt;end -->
<g id="edge14" class="edge"><title>[]{append&#45;&gt;end</title>
<path fill="none" stroke="#0000ff" d="M1231.39,-675.838C1214.47,-655.74 1188.31,-620.639 1177.8,-585 1161.19,-528.697 1167.07,-458.929 1172.28,-421.242"/>
<polygon fill="#0000ff" stroke="#0000ff" points="1175.79,-421.466 1173.79,-411.063 1168.86,-420.445 1175.79,-421.466"/>
<text text-anchor="middle" x="1201.3" y="-557.8" font-family="Times New Roman,serif" font-size="14.00">ancestry</text>
</g>
<!-- []{append&#45;&gt;end -->
<g id="edge17" class="edge"><title>[]{append&#45;&gt;end</title>
<path fill="none" stroke="#00ff00" d="M1244.83,-675.739C1241.64,-649.319 1234.69,-597.354 1224.8,-554 1213.91,-506.242 1196.49,-451.853 1185.91,-420.373"/>
<polygon fill="#00ff00" stroke="#00ff00" points="1189.12,-418.963 1182.6,-410.618 1182.49,-421.213 1189.12,-418.963"/>
<text text-anchor="middle" x="1255.3" y="-565.8" font-family="Times New Roman,serif" font-size="14.00">ancestry</text>
</g>
<!-- Btree{_root -->
<g id="node2" class="node"><title>Btree{_root</title>
<path fill="#00e599" stroke="black" d="M2197.89,-261C2197.89,-261 1636.34,-261 1636.34,-261 1630.34,-261 1620.41,-256.464 1616.48,-251.927 1616.48,-251.927 1481.56,-96.0726 1481.56,-96.0726 1477.63,-91.5363 1479.71,-87 1485.71,-87 1485.71,-87 2047.26,-87 2047.26,-87 2053.26,-87 2063.19,-91.5363 2067.12,-96.0726 2067.12,-96.0726 2202.04,-251.927 2202.04,-251.927 2205.97,-256.464 2203.89,-261 2197.89,-261"/>
<text text-anchor="middle" x="1841.8" y="-170.3" font-family="Times New Roman,serif" font-size="14.00">Btree{_root</text>
</g>
<!-- ancestry -->
<g id="node8" class="node"><title>ancestry</title>
<path fill="#00e599" stroke="black" d="M1337.87,-36C1337.87,-36 1266.31,-36 1266.31,-36 1260.31,-36 1250.93,-31.045 1247.55,-26.09 1247.55,-26.09 1236.5,-9.91002 1236.5,-9.91002 1233.11,-4.95501 1235.73,-2.0424e-014 1241.73,-1.95317e-014 1241.73,-1.95317e-014 1313.29,-8.88999e-015 1313.29,-8.88999e-015 1319.29,-7.99771e-015 1328.67,-4.95501 1332.06,-9.91002 1332.06,-9.91002 1343.1,-26.09 1343.1,-26.09 1346.49,-31.045 1343.87,-36 1337.87,-36"/>
<text text-anchor="middle" x="1289.8" y="-14.3" font-family="Times New Roman,serif" font-size="14.00">ancestry</text>
</g>
<!-- Btree{_root&#45;&gt;ancestry -->
<g id="edge3" class="edge"><title>Btree{_root&#45;&gt;ancestry</title>
<path fill="none" stroke="black" d="M1577.42,-86.9268C1538.17,-75.2289 1498.05,-63.8705 1459.8,-54 1425.57,-45.1687 1387.02,-37.082 1355.29,-30.9117"/>
<polygon fill="black" stroke="black" points="1355.72,-27.431 1345.24,-28.9772 1354.4,-34.3047 1355.72,-27.431"/>
<text text-anchor="middle" x="1547.8" y="-57.8" font-family="Times New Roman,serif" font-size="14.00">ancestry = []</text>
</g>
<!-- getattr(current,&#39;children&#39;,None) -->
<g id="node3" class="node"><title>getattr(current,&#39;children&#39;,None)</title>
<path fill="#ffce9f" stroke="black" d="M676.865,-409.749C676.865,-409.749 528.97,-394.251 528.97,-394.251 523.003,-393.625 523.003,-392.375 528.97,-391.749 528.97,-391.749 676.865,-376.251 676.865,-376.251 682.833,-375.625 694.767,-375.625 700.735,-376.251 700.735,-376.251 848.63,-391.749 848.63,-391.749 854.598,-392.375 854.598,-393.625 848.63,-394.251 848.63,-394.251 700.735,-409.749 700.735,-409.749 694.767,-410.375 682.833,-410.375 676.865,-409.749"/>
<text text-anchor="middle" x="688.8" y="-389.3" font-family="Times New Roman,serif" font-size="14.00">getattr(current,&#39;children&#39;,None)</text>
</g>
<!-- bisect{bisect_left -->
<g id="node7" class="node"><title>bisect{bisect_left</title>
<path fill="#ffe599" stroke="black" d="M1081.8,-192C1081.8,-192 991.8,-192 991.8,-192 985.8,-192 979.8,-186 979.8,-180 979.8,-180 979.8,-168 979.8,-168 979.8,-162 985.8,-156 991.8,-156 991.8,-156 1081.8,-156 1081.8,-156 1087.8,-156 1093.8,-162 1093.8,-168 1093.8,-168 1093.8,-180 1093.8,-180 1093.8,-186 1087.8,-192 1081.8,-192"/>
<text text-anchor="middle" x="1036.8" y="-170.3" font-family="Times New Roman,serif" font-size="14.00">bisect{bisect_left</text>
</g>
<!-- getattr(current,&#39;children&#39;,None)&#45;&gt;bisect{bisect_left -->
<g id="edge5" class="edge"><title>getattr(current,&#39;children&#39;,None)&#45;&gt;bisect{bisect_left</title>
<path fill="none" stroke="#00ff00" d="M674.538,-376.424C670.22,-370.731 666.033,-363.969 663.8,-357 653.221,-323.987 642.836,-306.609 663.8,-279 700.66,-230.456 872.449,-198.502 969.523,-183.992"/>
<polygon fill="#00ff00" stroke="#00ff00" points="970.156,-187.437 979.54,-182.517 969.136,-180.511 970.156,-187.437"/>
<text text-anchor="middle" x="806.3" y="-321.8" font-family="Times New Roman,serif" font-size="14.00">NO,(current.contents,item)</text>
<text text-anchor="middle" x="806.3" y="-306.8" font-family="Times New Roman,serif" font-size="14.00"> &#160;&#160;&#160;index = bisect.bisect_left(current{contents,item)</text>
</g>
<!-- getattr(current,&#39;children&#39;,None)&#45;&gt;bisect{bisect_left -->
<g id="edge6" class="edge"><title>getattr(current,&#39;children&#39;,None)&#45;&gt;bisect{bisect_left</title>
<path fill="none" stroke="#0000ff" d="M812.706,-387.979C869.144,-383.666 927.97,-374.865 948.8,-357 976.234,-333.47 956.975,-311.962 971.8,-279 984.506,-250.752 1003.76,-221.025 1018.02,-200.622"/>
<polygon fill="#0000ff" stroke="#0000ff" points="1021.05,-202.393 1023.98,-192.211 1015.34,-198.344 1021.05,-202.393"/>
<text text-anchor="middle" x="1114.3" y="-297.8" font-family="Times New Roman,serif" font-size="14.00">Yes,(current.contents,item)</text>
<text text-anchor="middle" x="1114.3" y="-282.8" font-family="Times New Roman,serif" font-size="14.00"> &#160;&#160;&#160;index = bisect.bisect_left(current{contents,item)</text>
</g>
<!-- index &lt; len(current{contents)&#45;&gt;getattr(current,&#39;children&#39;,None) -->
<g id="edge8" class="edge"><title>index &lt; len(current{contents)&#45;&gt;getattr(current,&#39;children&#39;,None)</title>
<path fill="none" stroke="#0000ff" d="M583.162,-614.44C402.484,-603.842 49.8945,-577.989 12.8001,-536 -4.26671,-516.681 -4.26671,-497.319 12.8001,-478 49.0562,-436.96 386.708,-411.335 570.654,-400.302"/>
<polygon fill="#0000ff" stroke="#0000ff" points="570.874,-403.795 580.648,-399.707 570.458,-396.807 570.874,-403.795"/>
<text text-anchor="middle" x="116.3" y="-487.3" font-family="Times New Roman,serif" font-size="14.00">NO (current=current.children[index])</text>
</g>
<!-- current{contents[index]==item -->
<g id="node5" class="node"><title>current{contents[index]==item</title>
<path fill="#ffce9f" stroke="black" d="M676.824,-535.245C676.824,-535.245 240.776,-507.755 240.776,-507.755 234.788,-507.378 234.788,-506.622 240.776,-506.245 240.776,-506.245 676.824,-478.755 676.824,-478.755 682.812,-478.378 694.788,-478.378 700.776,-478.755 700.776,-478.755 1136.82,-506.245 1136.82,-506.245 1142.81,-506.622 1142.81,-507.378 1136.82,-507.755 1136.82,-507.755 700.776,-535.245 700.776,-535.245 694.788,-535.622 682.812,-535.622 676.824,-535.245"/>
<text text-anchor="middle" x="688.8" y="-503.3" font-family="Times New Roman,serif" font-size="14.00">current{contents[index]==item</text>
</g>
<!-- index &lt; len(current{contents)&#45;&gt;current{contents[index]==item -->
<g id="edge9" class="edge"><title>index &lt; len(current{contents)&#45;&gt;current{contents[index]==item</title>
<path fill="none" stroke="#0000ff" d="M688.8,-602.99C688.8,-587.947 688.8,-565.452 688.8,-546.129"/>
<polygon fill="#0000ff" stroke="#0000ff" points="692.3,-546.079 688.8,-536.079 685.3,-546.079 692.3,-546.079"/>
<text text-anchor="middle" x="699.8" y="-565.8" font-family="Times New Roman,serif" font-size="14.00">Yes</text>
</g>
<!-- current{contents[index]==item&#45;&gt;getattr(current,&#39;children&#39;,None) -->
<g id="edge10" class="edge"><title>current{contents[index]==item&#45;&gt;getattr(current,&#39;children&#39;,None)</title>
<path fill="none" stroke="#0000ff" d="M688.8,-477.738C688.8,-460.514 688.8,-438.608 688.8,-421.521"/>
<polygon fill="#0000ff" stroke="#0000ff" points="692.3,-421.087 688.8,-411.087 685.3,-421.087 692.3,-421.087"/>
<text text-anchor="middle" x="792.3" y="-440.8" font-family="Times New Roman,serif" font-size="14.00">NO (current=current.children[index])</text>
</g>
<!-- current{contents[index]==item&#45;&gt;end -->
<g id="edge11" class="edge"><title>current{contents[index]==item&#45;&gt;end</title>
<path fill="none" stroke="#0000ff" d="M790.042,-484.342C824.861,-476.784 864.069,-468.151 899.8,-460 987.009,-440.106 1089.32,-415.364 1141.81,-402.564"/>
<polygon fill="#0000ff" stroke="#0000ff" points="1142.75,-405.94 1151.63,-400.169 1141.09,-399.139 1142.75,-405.94"/>
<text text-anchor="middle" x="1070.8" y="-440.8" font-family="Times New Roman,serif" font-size="14.00">Yes (ancestry)</text>
</g>
<!-- Btree{_path_to -->
<g id="node6" class="node"><title>Btree{_path_to</title>
<path fill="#ffe599" stroke="black" d="M1881.3,-411C1881.3,-411 1802.3,-411 1802.3,-411 1796.3,-411 1790.3,-405 1790.3,-399 1790.3,-399 1790.3,-387 1790.3,-387 1790.3,-381 1796.3,-375 1802.3,-375 1802.3,-375 1881.3,-375 1881.3,-375 1887.3,-375 1893.3,-381 1893.3,-387 1893.3,-387 1893.3,-399 1893.3,-399 1893.3,-405 1887.3,-411 1881.3,-411"/>
<text text-anchor="middle" x="1841.8" y="-389.3" font-family="Times New Roman,serif" font-size="14.00">Btree{_path_to</text>
</g>
<!-- Btree{_path_to&#45;&gt;Btree{_root -->
<g id="edge2" class="edge"><title>Btree{_path_to&#45;&gt;Btree{_root</title>
<path fill="none" stroke="black" d="M1841.8,-374.972C1841.8,-352.408 1841.8,-310.842 1841.8,-271.428"/>
<polygon fill="black" stroke="black" points="1845.3,-271.198 1841.8,-261.198 1838.3,-271.198 1845.3,-271.198"/>
<text text-anchor="middle" x="1902.8" y="-314.3" font-family="Times New Roman,serif" font-size="14.00">current = Btree{_root</text>
</g>
<!-- bisect{bisect_left&#45;&gt;ancestry -->
<g id="edge12" class="edge"><title>bisect{bisect_left&#45;&gt;ancestry</title>
<path fill="none" stroke="#0000ff" d="M1060.41,-155.931C1103.46,-127.948 1194.68,-72.3285 1248.28,-41.2777"/>
<polygon fill="#0000ff" stroke="#0000ff" points="1250.27,-44.1699 1257.19,-36.1455 1246.78,-38.1043 1250.27,-44.1699"/>
</g>
<!-- bisect{bisect_left&#45;&gt;ancestry -->
<g id="edge15" class="edge"><title>bisect{bisect_left&#45;&gt;ancestry</title>
<path fill="none" stroke="#00ff00" d="M1069.27,-155.931C1117.96,-128.063 1208.95,-72.7877 1257.52,-41.6639"/>
<polygon fill="#00ff00" stroke="#00ff00" points="1259.57,-44.5071 1266.07,-36.1455 1255.77,-38.6245 1259.57,-44.5071"/>
</g>
<!-- ancestry&#45;&gt;[]{append -->
<g id="edge13" class="edge"><title>ancestry&#45;&gt;[]{append</title>
<path fill="none" stroke="#0000ff" d="M1293.29,-36.0069C1298.77,-64.3026 1308.8,-122.894 1308.8,-173 1308.8,-622 1308.8,-622 1308.8,-622 1308.8,-640.916 1296.16,-657.226 1282.29,-669.426"/>
<polygon fill="#0000ff" stroke="#0000ff" points="1280.06,-666.73 1274.54,-675.771 1284.49,-672.149 1280.06,-666.73"/>
<text text-anchor="middle" x="1365.8" y="-432.8" font-family="Times New Roman,serif" font-size="14.00">item=(current,index)</text>
</g>
<!-- ancestry&#45;&gt;[]{append -->
<g id="edge16" class="edge"><title>ancestry&#45;&gt;[]{append</title>
<path fill="none" stroke="#00ff00" d="M1327.96,-36.1004C1374.15,-59.7066 1445.8,-106.971 1445.8,-173 1445.8,-622 1445.8,-622 1445.8,-622 1445.8,-654.009 1353.32,-675.372 1294.44,-685.729"/>
<polygon fill="#00ff00" stroke="#00ff00" points="1293.5,-682.34 1284.23,-687.475 1294.68,-689.24 1293.5,-682.34"/>
<text text-anchor="middle" x="1502.8" y="-440.8" font-family="Times New Roman,serif" font-size="14.00">item=(current,index)</text>
</g>
<!-- ancestry&#45;&gt;getattr(current,&#39;children&#39;,None) -->
<g id="edge4" class="edge"><title>ancestry&#45;&gt;getattr(current,&#39;children&#39;,None)</title>
<path fill="none" stroke="black" d="M1290.89,-36.1816C1294.46,-98.649 1303.05,-312.377 1256.8,-357 1241.48,-371.782 989.222,-382.527 826.083,-387.969"/>
<polygon fill="black" stroke="black" points="825.835,-384.475 815.956,-388.304 826.066,-391.471 825.835,-384.475"/>
</g>
<!-- start -->
<g id="node9" class="node"><title>start</title>
<ellipse fill="none" stroke="black" cx="1841.8" cy="-507" rx="27" ry="18"/>
<text text-anchor="middle" x="1841.8" y="-503.3" font-family="Times New Roman,serif" font-size="14.00">start</text>
</g>
<!-- start&#45;&gt;Btree{_path_to -->
<g id="edge1" class="edge"><title>start&#45;&gt;Btree{_path_to</title>
<path fill="none" stroke="black" d="M1841.8,-488.99C1841.8,-471.063 1841.8,-442.555 1841.8,-421.442"/>
<polygon fill="black" stroke="black" points="1845.3,-421.17 1841.8,-411.17 1838.3,-421.171 1845.3,-421.17"/>
<text text-anchor="middle" x="1858.3" y="-440.8" font-family="Times New Roman,serif" font-size="14.00">(item)</text>
</g>
</g>
</svg>
