<?xml version="1.0" encoding="UTF-8" standalone="no"?>
<!DOCTYPE svg PUBLIC "-//W3C//DTD SVG 1.1//EN"
 "http://www.w3.org/Graphics/SVG/1.1/DTD/svg11.dtd">
<!-- Generated by graphviz version 2.38.0 (20140413.2041)
 -->
<!-- Title: %3 Pages: 1 -->
<svg width="2039pt" height="487pt"
 viewBox="0.00 0.00 2038.96 487.00" xmlns="http://www.w3.org/2000/svg" xmlns:xlink="http://www.w3.org/1999/xlink">
<g id="graph0" class="graph" transform="scale(1 1) rotate(0) translate(4 483)">
<title>%3</title>
<polygon fill="white" stroke="none" points="-4,4 -4,-483 2034.96,-483 2034.96,4 -4,4"/>
<!-- []{insert -->
<g id="node1" class="node"><title>[]{insert</title>
<path fill="#ff5e99" stroke="black" d="M259.306,-479C259.306,-479 221.306,-479 221.306,-479 215.306,-479 209.306,-473 209.306,-467 209.306,-467 209.306,-455 209.306,-455 209.306,-449 215.306,-443 221.306,-443 221.306,-443 259.306,-443 259.306,-443 265.306,-443 271.306,-449 271.306,-455 271.306,-455 271.306,-467 271.306,-467 271.306,-473 265.306,-479 259.306,-479"/>
<text text-anchor="middle" x="240.306" y="-457.3" font-family="Times New Roman,serif" font-size="14.00">[]{insert</text>
</g>
<!-- _Bnodes{contents -->
<g id="node4" class="node"><title>_Bnodes{contents</title>
<path fill="#00e599" stroke="black" d="M218.417,-381C218.417,-381 59.3004,-381 59.3004,-381 53.3004,-381 42.5332,-377.357 37.7659,-373.713 37.7659,-373.713 9.72853,-352.287 9.72853,-352.287 4.96128,-348.643 6.19403,-345 12.194,-345 12.194,-345 171.311,-345 171.311,-345 177.311,-345 188.078,-348.643 192.845,-352.287 192.845,-352.287 220.883,-373.713 220.883,-373.713 225.65,-377.357 224.417,-381 218.417,-381"/>
<text text-anchor="middle" x="115.306" y="-359.3" font-family="Times New Roman,serif" font-size="14.00">_Bnodes{contents</text>
</g>
<!-- []{insert&#45;&gt;_Bnodes{contents -->
<g id="edge4" class="edge"><title>[]{insert&#45;&gt;_Bnodes{contents</title>
<path fill="none" stroke="black" d="M208.909,-458.135C184.165,-454.976 150.565,-446.663 130.306,-425 121.865,-415.974 117.957,-402.988 116.224,-391.315"/>
<polygon fill="black" stroke="black" points="119.68,-390.705 115.176,-381.115 112.717,-391.421 119.68,-390.705"/>
<text text-anchor="middle" x="229.306" y="-413.8" font-family="Times New Roman,serif" font-size="14.00">upItem = _Bnodes{contents{pop()</text>
</g>
<!-- []{[parent_index] -->
<g id="node2" class="node"><title>[]{[parent_index]</title>
<path fill="#ff5e99" stroke="black" d="M386.806,-283C386.806,-283 297.806,-283 297.806,-283 291.806,-283 285.806,-277 285.806,-271 285.806,-271 285.806,-259 285.806,-259 285.806,-253 291.806,-247 297.806,-247 297.806,-247 386.806,-247 386.806,-247 392.806,-247 398.806,-253 398.806,-259 398.806,-259 398.806,-271 398.806,-271 398.806,-277 392.806,-283 386.806,-283"/>
<text text-anchor="middle" x="342.306" y="-261.3" font-family="Times New Roman,serif" font-size="14.00">[]{[parent_index]</text>
</g>
<!-- []{[parent_index]&#45;&gt;[]{insert -->
<g id="edge3" class="edge"><title>[]{[parent_index]&#45;&gt;[]{insert</title>
<path fill="none" stroke="black" d="M342.99,-283.122C344.102,-319.495 344.731,-402.94 328.306,-425 317.142,-439.993 298.539,-448.572 281.305,-453.477"/>
<polygon fill="black" stroke="black" points="280.234,-450.137 271.383,-455.961 281.934,-456.927 280.234,-450.137"/>
<text text-anchor="middle" x="454.806" y="-366.8" font-family="Times New Roman,serif" font-size="14.00">(0,downItem),</text>
<text text-anchor="middle" x="454.806" y="-351.8" font-family="Times New Roman,serif" font-size="14.00">{right_sib.contents.insert(0,downItem)}</text>
</g>
<!-- _Bnodes{children? -->
<g id="node6" class="node"><title>_Bnodes{children?</title>
<path fill="#ffce9f" stroke="black" d="M330.453,-208.128C330.453,-208.128 240.208,-193.872 240.208,-193.872 234.281,-192.936 234.281,-191.064 240.208,-190.128 240.208,-190.128 330.453,-175.872 330.453,-175.872 336.379,-174.936 348.232,-174.936 354.159,-175.872 354.159,-175.872 444.404,-190.128 444.404,-190.128 450.33,-191.064 450.33,-192.936 444.404,-193.872 444.404,-193.872 354.159,-208.128 354.159,-208.128 348.232,-209.064 336.379,-209.064 330.453,-208.128"/>
<text text-anchor="middle" x="342.306" y="-188.3" font-family="Times New Roman,serif" font-size="14.00">_Bnodes{children?</text>
</g>
<!-- []{[parent_index]&#45;&gt;_Bnodes{children? -->
<g id="edge6" class="edge"><title>[]{[parent_index]&#45;&gt;_Bnodes{children?</title>
<path fill="none" stroke="#ea4f16" d="M342.306,-246.813C342.306,-238.789 342.306,-229.047 342.306,-220.069"/>
<polygon fill="#ea4f16" stroke="#ea4f16" points="345.806,-220.029 342.306,-210.029 338.806,-220.029 345.806,-220.029"/>
</g>
<!-- _Bnodes{lateral_right -->
<g id="node3" class="node"><title>_Bnodes{lateral_right</title>
<path fill="#00e599" stroke="black" d="M2019.11,-392C2019.11,-392 891.697,-392 891.697,-392 885.697,-392 873.809,-390.847 867.921,-389.694 867.921,-389.694 595.275,-336.306 595.275,-336.306 589.386,-335.153 589.498,-334 595.498,-334 595.498,-334 1722.91,-334 1722.91,-334 1728.91,-334 1740.8,-335.153 1746.69,-336.306 1746.69,-336.306 2019.34,-389.694 2019.34,-389.694 2025.22,-390.847 2025.11,-392 2019.11,-392"/>
<text text-anchor="middle" x="1307.31" y="-359.3" font-family="Times New Roman,serif" font-size="14.00">_Bnodes{lateral_right</text>
</g>
<!-- _Bnodes{lateral_right&#45;&gt;[]{[parent_index] -->
<g id="edge2" class="edge"><title>_Bnodes{lateral_right&#45;&gt;[]{[parent_index]</title>
<path fill="none" stroke="black" d="M1025.59,-333.975C812.129,-312.739 534.847,-285.154 409.296,-272.664"/>
<polygon fill="black" stroke="black" points="409.37,-269.154 399.072,-271.647 408.677,-276.12 409.37,-269.154"/>
<text text-anchor="middle" x="947.806" y="-304.8" font-family="Times New Roman,serif" font-size="14.00">{downItem=parent.contents[parent_index]}</text>
</g>
<!-- _Bnodes{contents&#45;&gt;[]{[parent_index] -->
<g id="edge5" class="edge"><title>_Bnodes{contents&#45;&gt;[]{[parent_index]</title>
<path fill="none" stroke="#ea4f16" d="M108.303,-344.949C104.002,-331.437 101.065,-312.91 111.306,-301 132.149,-276.76 214.906,-269.102 275.428,-266.795"/>
<polygon fill="#ea4f16" stroke="#ea4f16" points="275.817,-270.284 285.692,-266.446 275.579,-263.288 275.817,-270.284"/>
<text text-anchor="middle" x="219.806" y="-304.8" font-family="Times New Roman,serif" font-size="14.00">parent{contents[parent_index]=upItem</text>
</g>
<!-- _Bnodes{children -->
<g id="node5" class="node"><title>_Bnodes{children</title>
<path fill="#00e599" stroke="black" d="M214.699,-123C214.699,-123 59.9061,-123 59.9061,-123 53.9061,-123 43.1813,-119.302 38.4565,-115.604 38.4565,-115.604 11.3616,-94.3963 11.3616,-94.3963 6.63677,-90.6981 7.91197,-87 13.912,-87 13.912,-87 168.705,-87 168.705,-87 174.705,-87 185.43,-90.6981 190.155,-94.3963 190.155,-94.3963 217.25,-115.604 217.25,-115.604 221.975,-119.302 220.699,-123 214.699,-123"/>
<text text-anchor="middle" x="114.306" y="-101.3" font-family="Times New Roman,serif" font-size="14.00">_Bnodes{children</text>
</g>
<!-- end -->
<g id="node8" class="node"><title>end</title>
<ellipse fill="none" stroke="black" cx="228.306" cy="-18" rx="27" ry="18"/>
<text text-anchor="middle" x="228.306" y="-14.3" font-family="Times New Roman,serif" font-size="14.00">end</text>
</g>
<!-- _Bnodes{children&#45;&gt;end -->
<g id="edge9" class="edge"><title>_Bnodes{children&#45;&gt;end</title>
<path fill="none" stroke="#ea4f16" d="M89.0889,-86.886C77.8122,-77.1262 68.7728,-64.7368 77.3056,-54 91.3216,-36.3638 151.591,-26.8256 191.619,-22.3366"/>
<polygon fill="#ea4f16" stroke="#ea4f16" points="191.995,-25.8164 201.568,-21.277 191.253,-18.8558 191.995,-25.8164"/>
<text text-anchor="middle" x="221.806" y="-57.8" font-family="Times New Roman,serif" font-size="14.00">left_sib{children{insert(0,_Bnodes{children{pop())</text>
</g>
<!-- _Bnodes{children?&#45;&gt;_Bnodes{children -->
<g id="edge8" class="edge"><title>_Bnodes{children?&#45;&gt;_Bnodes{children</title>
<path fill="none" stroke="#ea4f16" d="M310.122,-179.002C273.642,-165.402 213.536,-142.994 169.522,-126.585"/>
<polygon fill="#ea4f16" stroke="#ea4f16" points="170.702,-123.29 160.11,-123.076 168.257,-129.849 170.702,-123.29"/>
<text text-anchor="middle" x="253.306" y="-144.8" font-family="Times New Roman,serif" font-size="14.00">Yes</text>
</g>
<!-- _Bnodes{children?&#45;&gt;end -->
<g id="edge7" class="edge"><title>_Bnodes{children?&#45;&gt;end</title>
<path fill="none" stroke="black" d="M352.136,-175.162C367.893,-147.527 394.33,-90.0197 366.306,-54 353.976,-38.1535 301.717,-28.324 265.175,-23.2566"/>
<polygon fill="black" stroke="black" points="265.238,-19.7346 254.866,-21.8939 264.321,-26.6743 265.238,-19.7346"/>
<text text-anchor="middle" x="389.806" y="-101.3" font-family="Times New Roman,serif" font-size="14.00">NO</text>
</g>
<!-- start -->
<g id="node7" class="node"><title>start</title>
<ellipse fill="none" stroke="black" cx="1307.31" cy="-461" rx="27" ry="18"/>
<text text-anchor="middle" x="1307.31" y="-457.3" font-family="Times New Roman,serif" font-size="14.00">start</text>
</g>
<!-- start&#45;&gt;_Bnodes{lateral_right -->
<g id="edge1" class="edge"><title>start&#45;&gt;_Bnodes{lateral_right</title>
<path fill="none" stroke="black" d="M1307.31,-442.837C1307.31,-431.663 1307.31,-416.623 1307.31,-402.675"/>
<polygon fill="black" stroke="black" points="1310.81,-402.304 1307.31,-392.304 1303.81,-402.304 1310.81,-402.304"/>
<text text-anchor="middle" x="1393.31" y="-413.8" font-family="Times New Roman,serif" font-size="14.00">(parent,parent_index,right_sib)</text>
</g>
</g>
</svg>
