<?xml version="1.0" encoding="UTF-8" standalone="no"?>
<!DOCTYPE svg PUBLIC "-//W3C//DTD SVG 1.1//EN"
 "http://www.w3.org/Graphics/SVG/1.1/DTD/svg11.dtd">
<!-- Generated by graphviz version 2.38.0 (20140413.2041)
 -->
<!-- Title: %3 Pages: 1 -->
<svg width="2646pt" height="1261pt"
 viewBox="0.00 0.00 2645.50 1261.00" xmlns="http://www.w3.org/2000/svg" xmlns:xlink="http://www.w3.org/1999/xlink">
<g id="graph0" class="graph" transform="scale(1 1) rotate(0) translate(4 1257)">
<title>%3</title>
<polygon fill="white" stroke="none" points="-4,4 -4,-1257 2641.5,-1257 2641.5,4 -4,4"/>
<!-- []{insert -->
<g id="node1" class="node"><title>[]{insert</title>
<path fill="#ff5e99" stroke="black" d="M1521.5,-1253C1521.5,-1253 1483.5,-1253 1483.5,-1253 1477.5,-1253 1471.5,-1247 1471.5,-1241 1471.5,-1241 1471.5,-1229 1471.5,-1229 1471.5,-1223 1477.5,-1217 1483.5,-1217 1483.5,-1217 1521.5,-1217 1521.5,-1217 1527.5,-1217 1533.5,-1223 1533.5,-1229 1533.5,-1229 1533.5,-1241 1533.5,-1241 1533.5,-1247 1527.5,-1253 1521.5,-1253"/>
<text text-anchor="middle" x="1502.5" y="-1231.3" font-family="Times New Roman,serif" font-size="14.00">[]{insert</text>
</g>
<!-- _Bnodes{children -->
<g id="node4" class="node"><title>_Bnodes{children</title>
<path fill="#00e599" stroke="black" d="M1058.89,-1166C1058.89,-1166 904.1,-1166 904.1,-1166 898.1,-1166 887.376,-1162.3 882.651,-1158.6 882.651,-1158.6 855.556,-1137.4 855.556,-1137.4 850.831,-1133.7 852.106,-1130 858.106,-1130 858.106,-1130 1012.9,-1130 1012.9,-1130 1018.9,-1130 1029.62,-1133.7 1034.35,-1137.4 1034.35,-1137.4 1061.44,-1158.6 1061.44,-1158.6 1066.17,-1162.3 1064.89,-1166 1058.89,-1166"/>
<text text-anchor="middle" x="958.5" y="-1144.3" font-family="Times New Roman,serif" font-size="14.00">_Bnodes{children</text>
</g>
<!-- []{insert&#45;&gt;_Bnodes{children -->
<g id="edge23" class="edge"><title>[]{insert&#45;&gt;_Bnodes{children</title>
<path fill="none" stroke="#aaffaa" d="M1471.49,-1233.51C1405.26,-1231.96 1245.41,-1225.55 1114.5,-1199 1079.94,-1191.99 1042.27,-1180.04 1012.6,-1169.59"/>
<polygon fill="#aaffaa" stroke="#aaffaa" points="1013.46,-1166.17 1002.86,-1166.1 1011.1,-1172.77 1013.46,-1166.17"/>
</g>
<!-- len(_Bnodes{contents) &gt; _Bnodes{tree{order -->
<g id="node9" class="node"><title>len(_Bnodes{contents) &gt; _Bnodes{tree{order</title>
<path fill="#ffce9f" stroke="black" d="M1796.53,-1165.15C1796.53,-1165.15 1567.93,-1148.85 1567.93,-1148.85 1561.95,-1148.43 1561.95,-1147.57 1567.93,-1147.15 1567.93,-1147.15 1796.53,-1130.85 1796.53,-1130.85 1802.52,-1130.43 1814.48,-1130.43 1820.47,-1130.85 1820.47,-1130.85 2049.07,-1147.15 2049.07,-1147.15 2055.05,-1147.57 2055.05,-1148.43 2049.07,-1148.85 2049.07,-1148.85 1820.47,-1165.15 1820.47,-1165.15 1814.48,-1165.57 1802.52,-1165.57 1796.53,-1165.15"/>
<text text-anchor="middle" x="1808.5" y="-1144.3" font-family="Times New Roman,serif" font-size="14.00">len(_Bnodes{contents) &gt; _Bnodes{tree{order</text>
</g>
<!-- []{insert&#45;&gt;len(_Bnodes{contents) &gt; _Bnodes{tree{order -->
<g id="edge4" class="edge"><title>[]{insert&#45;&gt;len(_Bnodes{contents) &gt; _Bnodes{tree{order</title>
<path fill="none" stroke="#fff00f" d="M1533.52,-1225.38C1584.08,-1211.34 1685.04,-1183.29 1749.55,-1165.37"/>
<polygon fill="#fff00f" stroke="#fff00f" points="1750.88,-1168.64 1759.58,-1162.59 1749.01,-1161.89 1750.88,-1168.64"/>
</g>
<!-- len(parent{contents) &gt; parent{tree{order -->
<g id="node16" class="node"><title>len(parent{contents) &gt; parent{tree{order</title>
<path fill="#ffce9f" stroke="black" d="M1301.54,-1165.04C1301.54,-1165.04 1101.41,-1148.96 1101.41,-1148.96 1095.43,-1148.48 1095.43,-1147.52 1101.41,-1147.04 1101.41,-1147.04 1301.54,-1130.96 1301.54,-1130.96 1307.52,-1130.48 1319.48,-1130.48 1325.46,-1130.96 1325.46,-1130.96 1525.59,-1147.04 1525.59,-1147.04 1531.57,-1147.52 1531.57,-1148.48 1525.59,-1148.96 1525.59,-1148.96 1325.46,-1165.04 1325.46,-1165.04 1319.48,-1165.52 1307.52,-1165.52 1301.54,-1165.04"/>
<text text-anchor="middle" x="1313.5" y="-1144.3" font-family="Times New Roman,serif" font-size="14.00">len(parent{contents) &gt; parent{tree{order</text>
</g>
<!-- []{insert&#45;&gt;len(parent{contents) &gt; parent{tree{order -->
<g id="edge25" class="edge"><title>[]{insert&#45;&gt;len(parent{contents) &gt; parent{tree{order</title>
<path fill="none" stroke="#ffaaaa" d="M1471.29,-1219.96C1439.57,-1205.7 1390.24,-1183.51 1355.19,-1167.75"/>
<polygon fill="#ffaaaa" stroke="#ffaaaa" points="1356.26,-1164.39 1345.71,-1163.48 1353.39,-1170.78 1356.26,-1164.39"/>
</g>
<!-- _Bnodes{tree{BRANCH -->
<g id="node2" class="node"><title>_Bnodes{tree{BRANCH</title>
<path fill="#00e599" stroke="black" d="M1716.13,-109C1716.13,-109 1500.51,-109 1500.51,-109 1494.51,-109 1483.33,-105.974 1478.15,-102.948 1478.15,-102.948 1437.23,-79.0518 1437.23,-79.0518 1432.05,-76.0259 1432.87,-73 1438.87,-73 1438.87,-73 1654.49,-73 1654.49,-73 1660.49,-73 1671.67,-76.0259 1676.85,-79.0518 1676.85,-79.0518 1717.77,-102.948 1717.77,-102.948 1722.95,-105.974 1722.13,-109 1716.13,-109"/>
<text text-anchor="middle" x="1577.5" y="-87.3" font-family="Times New Roman,serif" font-size="14.00">_Bnodes{tree{BRANCH</text>
</g>
<!-- _Bnodes{contents -->
<g id="node3" class="node"><title>_Bnodes{contents</title>
<path fill="#00e599" stroke="black" d="M2192.61,-36C2192.61,-36 2033.49,-36 2033.49,-36 2027.49,-36 2016.73,-32.3567 2011.96,-28.7135 2011.96,-28.7135 1983.92,-7.28652 1983.92,-7.28652 1979.16,-3.64326 1980.39,-2.08506e-014 1986.39,-2.0385e-014 1986.39,-2.0385e-014 2145.51,-8.03669e-015 2145.51,-8.03669e-015 2151.51,-7.57106e-015 2162.27,-3.64326 2167.04,-7.28652 2167.04,-7.28652 2195.08,-28.7135 2195.08,-28.7135 2199.84,-32.3567 2198.61,-36 2192.61,-36"/>
<text text-anchor="middle" x="2089.5" y="-14.3" font-family="Times New Roman,serif" font-size="14.00">_Bnodes{contents</text>
</g>
<!-- _Bnodes{tree{BRANCH&#45;&gt;_Bnodes{contents -->
<g id="edge20" class="edge"><title>_Bnodes{tree{BRANCH&#45;&gt;_Bnodes{contents</title>
<path fill="none" stroke="#aaffaa" d="M1667.94,-73.762C1706.02,-67.191 1750.85,-59.8031 1791.5,-54 1861.33,-44.0316 1940.67,-34.8159 1999.92,-28.3458"/>
<polygon fill="#aaffaa" stroke="#aaffaa" points="2000.43,-31.8109 2009.99,-27.2508 1999.67,-24.8518 2000.43,-31.8109"/>
</g>
<!-- _Bnodes{contents&#45;&gt;[]{insert -->
<g id="edge3" class="edge"><title>_Bnodes{contents&#45;&gt;[]{insert</title>
<path fill="none" stroke="#fff00f" d="M2089.5,-36.2164C2089.5,-50.5949 2089.5,-71.6337 2089.5,-90 2089.5,-1149 2089.5,-1149 2089.5,-1149 2089.5,-1204.2 1677.61,-1226.57 1543.88,-1232.37"/>
<polygon fill="#fff00f" stroke="#fff00f" points="1543.49,-1228.89 1533.65,-1232.81 1543.78,-1235.88 1543.49,-1228.89"/>
<text text-anchor="middle" x="2123" y="-705.3" font-family="Times New Roman,serif" font-size="14.00">(index,item)</text>
</g>
<!-- _Bnodes{contents&#45;&gt;[]{insert -->
<g id="edge22" class="edge"><title>_Bnodes{contents&#45;&gt;[]{insert</title>
<path fill="none" stroke="#00ffaa" d="M2135.82,-36.0685C2157.87,-47.472 2179.5,-65.0233 2179.5,-90 2179.5,-1149 2179.5,-1149 2179.5,-1149 2179.5,-1213.36 1691.66,-1229.7 1544.21,-1233.17"/>
<polygon fill="#00ffaa" stroke="#00ffaa" points="1543.71,-1229.68 1533.8,-1233.41 1543.87,-1236.68 1543.71,-1229.68"/>
<text text-anchor="middle" x="2408.5" y="-752.8" font-family="Times New Roman,serif" font-size="14.00">(index=parent_index,push) </text>
<text text-anchor="middle" x="2408.5" y="-737.8" font-family="Times New Roman,serif" font-size="14.00"> {parent=_Bnodes{tree{BRANCH,parent_index=0,_Bnodes{tree{_root=parent} </text>
</g>
<!-- _Bnodes{children&#45;&gt;[]{insert -->
<g id="edge24" class="edge"><title>_Bnodes{children&#45;&gt;[]{insert</title>
<path fill="none" stroke="#ffaaaa" d="M1056.38,-1166.05C1114.48,-1176.02 1189.63,-1188.63 1256.5,-1199 1328.38,-1210.14 1412.3,-1221.79 1461.21,-1228.45"/>
<polygon fill="#ffaaaa" stroke="#ffaaaa" points="1461.02,-1231.95 1471.4,-1229.83 1461.96,-1225.01 1461.02,-1231.95"/>
<text text-anchor="middle" x="1324.5" y="-1187.8" font-family="Times New Roman,serif" font-size="14.00">(parent_index+1,sibling)</text>
</g>
<!-- _Bnodes{split -->
<g id="node5" class="node"><title>_Bnodes{split</title>
<path fill="#ffe599" stroke="black" d="M501,-334C501,-334 12,-334 12,-334 6,-334 0,-328 0,-322 0,-322 0,-259 0,-259 0,-253 6,-247 12,-247 12,-247 501,-247 501,-247 507,-247 513,-253 513,-259 513,-259 513,-322 513,-322 513,-328 507,-334 501,-334"/>
<text text-anchor="middle" x="256.5" y="-286.8" font-family="Times New Roman,serif" font-size="14.00">_Bnodes{split</text>
</g>
<!-- parent? -->
<g id="node12" class="node"><title>parent?</title>
<path fill="#ffce9f" stroke="black" d="M1524.15,-192.094C1524.15,-192.094 1494.56,-181.906 1494.56,-181.906 1488.89,-179.953 1488.89,-176.047 1494.56,-174.094 1494.56,-174.094 1524.15,-163.906 1524.15,-163.906 1529.83,-161.953 1541.17,-161.953 1546.85,-163.906 1546.85,-163.906 1576.44,-174.094 1576.44,-174.094 1582.11,-176.047 1582.11,-179.953 1576.44,-181.906 1576.44,-181.906 1546.85,-192.094 1546.85,-192.094 1541.17,-194.047 1529.83,-194.047 1524.15,-192.094"/>
<text text-anchor="middle" x="1535.5" y="-174.3" font-family="Times New Roman,serif" font-size="14.00">parent?</text>
</g>
<!-- _Bnodes{split&#45;&gt;parent? -->
<g id="edge18" class="edge"><title>_Bnodes{split&#45;&gt;parent?</title>
<path fill="none" stroke="#00ff00" d="M513.035,-248.097C516.207,-247.721 519.363,-247.355 522.5,-247 886.752,-205.763 1327.73,-186.649 1480.37,-180.928"/>
<polygon fill="#00ff00" stroke="#00ff00" points="1480.57,-184.423 1490.44,-180.555 1480.31,-177.428 1480.57,-184.423"/>
<text text-anchor="middle" x="937.5" y="-217.8" font-family="Times New Roman,serif" font-size="14.00">sibling,push=_Bnodes.split()</text>
</g>
<!-- _Bnodes{insert -->
<g id="node6" class="node"><title>_Bnodes{insert</title>
<path fill="#ffe599" stroke="black" d="M2299.5,-109C2299.5,-109 2219.5,-109 2219.5,-109 2213.5,-109 2207.5,-103 2207.5,-97 2207.5,-97 2207.5,-85 2207.5,-85 2207.5,-79 2213.5,-73 2219.5,-73 2219.5,-73 2299.5,-73 2299.5,-73 2305.5,-73 2311.5,-79 2311.5,-85 2311.5,-85 2311.5,-97 2311.5,-97 2311.5,-103 2305.5,-109 2299.5,-109"/>
<text text-anchor="middle" x="2259.5" y="-87.3" font-family="Times New Roman,serif" font-size="14.00">_Bnodes{insert</text>
</g>
<!-- _Bnodes{insert&#45;&gt;_Bnodes{contents -->
<g id="edge2" class="edge"><title>_Bnodes{insert&#45;&gt;_Bnodes{contents</title>
<path fill="none" stroke="#fff00f" d="M2230.81,-72.9285C2219.42,-66.5301 2206.06,-59.4878 2193.5,-54 2181.47,-48.7417 2168.37,-43.7776 2155.66,-39.3305"/>
<polygon fill="#fff00f" stroke="#fff00f" points="2156.64,-35.9645 2146.04,-36.0342 2154.37,-42.5866 2156.64,-35.9645"/>
</g>
<!-- _Bnodes{shrink -->
<g id="node7" class="node"><title>_Bnodes{shrink</title>
<path fill="#ffe599" stroke="black" d="M1466,-1079C1466,-1079 1383,-1079 1383,-1079 1377,-1079 1371,-1073 1371,-1067 1371,-1067 1371,-1055 1371,-1055 1371,-1049 1377,-1043 1383,-1043 1383,-1043 1466,-1043 1466,-1043 1472,-1043 1478,-1049 1478,-1055 1478,-1055 1478,-1067 1478,-1067 1478,-1073 1472,-1079 1466,-1079"/>
<text text-anchor="middle" x="1424.5" y="-1057.3" font-family="Times New Roman,serif" font-size="14.00">_Bnodes{shrink</text>
</g>
<!-- ancestors? -->
<g id="node10" class="node"><title>ancestors?</title>
<path fill="#ffce9f" stroke="black" d="M811.881,-989C811.881,-989 765.407,-977 765.407,-977 759.597,-975.5 759.597,-972.5 765.407,-971 765.407,-971 811.881,-959 811.881,-959 817.691,-957.5 829.309,-957.5 835.119,-959 835.119,-959 881.593,-971 881.593,-971 887.403,-972.5 887.403,-975.5 881.593,-977 881.593,-977 835.119,-989 835.119,-989 829.309,-990.5 817.691,-990.5 811.881,-989"/>
<text text-anchor="middle" x="823.5" y="-970.3" font-family="Times New Roman,serif" font-size="14.00">ancestors?</text>
</g>
<!-- _Bnodes{shrink&#45;&gt;ancestors? -->
<g id="edge7" class="edge"><title>_Bnodes{shrink&#45;&gt;ancestors?</title>
<path fill="none" stroke="#00ff00" d="M1370.92,-1048.86C1360.21,-1046.79 1349.01,-1044.73 1338.5,-1043 1172.36,-1015.64 974.642,-992.02 879.766,-981.237"/>
<polygon fill="#00ff00" stroke="#00ff00" points="880.141,-977.757 869.811,-980.11 879.353,-984.713 880.141,-977.757"/>
<text text-anchor="middle" x="1253" y="-1013.8" font-family="Times New Roman,serif" font-size="14.00">parent = None</text>
</g>
<!-- end -->
<g id="node18" class="node"><title>end</title>
<ellipse fill="none" stroke="black" cx="1442.5" cy="-974" rx="27" ry="18"/>
<text text-anchor="middle" x="1442.5" y="-970.3" font-family="Times New Roman,serif" font-size="14.00">end</text>
</g>
<!-- _Bnodes{shrink&#45;&gt;end -->
<g id="edge27" class="edge"><title>_Bnodes{shrink&#45;&gt;end</title>
<path fill="none" stroke="#ffaaaa" d="M1428.14,-1042.8C1430.62,-1031.09 1433.96,-1015.34 1436.79,-1001.97"/>
<polygon fill="#ffaaaa" stroke="#ffaaaa" points="1440.28,-1002.39 1438.92,-991.885 1433.43,-1000.94 1440.28,-1002.39"/>
</g>
<!-- _Bnodes{lateral -->
<g id="node8" class="node"><title>_Bnodes{lateral</title>
<path fill="#ffe599" stroke="black" d="M2049.5,-308.5C2049.5,-308.5 543.5,-308.5 543.5,-308.5 537.5,-308.5 531.5,-302.5 531.5,-296.5 531.5,-296.5 531.5,-284.5 531.5,-284.5 531.5,-278.5 537.5,-272.5 543.5,-272.5 543.5,-272.5 2049.5,-272.5 2049.5,-272.5 2055.5,-272.5 2061.5,-278.5 2061.5,-284.5 2061.5,-284.5 2061.5,-296.5 2061.5,-296.5 2061.5,-302.5 2055.5,-308.5 2049.5,-308.5"/>
<text text-anchor="middle" x="1296.5" y="-286.8" font-family="Times New Roman,serif" font-size="14.00">_Bnodes{lateral</text>
</g>
<!-- len(_Bnodes{contents) &gt; _Bnodes{tree{order&#45;&gt;_Bnodes{shrink -->
<g id="edge6" class="edge"><title>len(_Bnodes{contents) &gt; _Bnodes{tree{order&#45;&gt;_Bnodes{shrink</title>
<path fill="none" stroke="#00ff00" d="M1750.18,-1134.09C1679.54,-1118.45 1560.99,-1092.21 1488.07,-1076.07"/>
<polygon fill="#00ff00" stroke="#00ff00" points="1488.61,-1072.61 1478.09,-1073.86 1487.1,-1079.44 1488.61,-1072.61"/>
<text text-anchor="middle" x="1682.5" y="-1100.8" font-family="Times New Roman,serif" font-size="14.00">Yes (ancestors)</text>
</g>
<!-- len(_Bnodes{contents) &gt; _Bnodes{tree{order&#45;&gt;end -->
<g id="edge5" class="edge"><title>len(_Bnodes{contents) &gt; _Bnodes{tree{order&#45;&gt;end</title>
<path fill="none" stroke="#fff00f" d="M1786.58,-1131.52C1771.27,-1121.08 1750.13,-1107.36 1730.5,-1097 1641.2,-1049.9 1529.7,-1006.86 1475.35,-986.831"/>
<polygon fill="#fff00f" stroke="#fff00f" points="1476.48,-983.517 1465.88,-983.363 1474.07,-990.09 1476.48,-983.517"/>
<text text-anchor="middle" x="1701.5" y="-1057.3" font-family="Times New Roman,serif" font-size="14.00">No</text>
</g>
<!-- ancestors?&#45;&gt;_Bnodes{split -->
<g id="edge9" class="edge"><title>ancestors?&#45;&gt;_Bnodes{split</title>
<path fill="none" stroke="#00ff00" d="M768.447,-970.185C629.481,-962.347 275.5,-937.522 275.5,-888 275.5,-888 275.5,-888 275.5,-450 275.5,-414.518 270.748,-374.884 265.997,-344.125"/>
<polygon fill="#00ff00" stroke="#00ff00" points="269.422,-343.377 264.393,-334.052 262.509,-344.478 269.422,-343.377"/>
<text text-anchor="middle" x="284.5" y="-705.3" font-family="Times New Roman,serif" font-size="14.00">No</text>
</g>
<!-- parent_index? -->
<g id="node11" class="node"><title>parent_index?</title>
<path fill="#ffce9f" stroke="black" d="M811.748,-902.572C811.748,-902.572 748.112,-889.428 748.112,-889.428 742.236,-888.214 742.236,-885.786 748.112,-884.572 748.112,-884.572 811.748,-871.428 811.748,-871.428 817.624,-870.214 829.376,-870.214 835.252,-871.428 835.252,-871.428 898.888,-884.572 898.888,-884.572 904.764,-885.786 904.764,-888.214 898.888,-889.428 898.888,-889.428 835.252,-902.572 835.252,-902.572 829.376,-903.786 817.624,-903.786 811.748,-902.572"/>
<text text-anchor="middle" x="823.5" y="-883.3" font-family="Times New Roman,serif" font-size="14.00">parent_index?</text>
</g>
<!-- ancestors?&#45;&gt;parent_index? -->
<g id="edge8" class="edge"><title>ancestors?&#45;&gt;parent_index?</title>
<path fill="none" stroke="#00ff00" d="M823.5,-955.799C823.5,-944.163 823.5,-928.548 823.5,-915.237"/>
<polygon fill="#00ff00" stroke="#00ff00" points="827,-915.175 823.5,-905.175 820,-915.175 827,-915.175"/>
<text text-anchor="middle" x="950" y="-926.8" font-family="Times New Roman,serif" font-size="14.00">Yes (parent, parent_index = ancestors.pop())</text>
</g>
<!-- len(left_sib{contents) &lt; _Bnodes{tree{order -->
<g id="node13" class="node"><title>len(left_sib{contents) &lt; _Bnodes{tree{order</title>
<path fill="#ffce9f" stroke="black" d="M1118.53,-817.119C1118.53,-817.119 897.976,-800.881 897.976,-800.881 891.992,-800.441 891.992,-799.559 897.976,-799.119 897.976,-799.119 1118.53,-782.881 1118.53,-782.881 1124.52,-782.441 1136.48,-782.441 1142.47,-782.881 1142.47,-782.881 1363.02,-799.119 1363.02,-799.119 1369.01,-799.559 1369.01,-800.441 1363.02,-800.881 1363.02,-800.881 1142.47,-817.119 1142.47,-817.119 1136.48,-817.559 1124.52,-817.559 1118.53,-817.119"/>
<text text-anchor="middle" x="1130.5" y="-796.3" font-family="Times New Roman,serif" font-size="14.00">len(left_sib{contents) &lt; _Bnodes{tree{order</text>
</g>
<!-- parent_index?&#45;&gt;len(left_sib{contents) &lt; _Bnodes{tree{order -->
<g id="edge12" class="edge"><title>parent_index?&#45;&gt;len(left_sib{contents) &lt; _Bnodes{tree{order</title>
<path fill="none" stroke="#00ff00" d="M858.717,-876.249C910.818,-861.824 1009.05,-834.627 1072.05,-817.183"/>
<polygon fill="#00ff00" stroke="#00ff00" points="1073.14,-820.512 1081.85,-814.471 1071.28,-813.766 1073.14,-820.512"/>
<text text-anchor="middle" x="1134" y="-839.8" font-family="Times New Roman,serif" font-size="14.00">Yes (left_sib = parent{children[parent_index &#45; 1])</text>
</g>
<!-- parent_index + 1 &lt; len(parent{children) -->
<g id="node15" class="node"><title>parent_index + 1 &lt; len(parent{children)</title>
<path fill="#ffce9f" stroke="black" d="M708.541,-635.011C708.541,-635.011 514.779,-618.989 514.779,-618.989 508.799,-618.494 508.799,-617.506 514.779,-617.011 514.779,-617.011 708.541,-600.989 708.541,-600.989 714.52,-600.494 726.48,-600.494 732.459,-600.989 732.459,-600.989 926.221,-617.011 926.221,-617.011 932.201,-617.506 932.201,-618.494 926.221,-618.989 926.221,-618.989 732.459,-635.011 732.459,-635.011 726.48,-635.506 714.52,-635.506 708.541,-635.011"/>
<text text-anchor="middle" x="720.5" y="-614.3" font-family="Times New Roman,serif" font-size="14.00">parent_index + 1 &lt; len(parent{children)</text>
</g>
<!-- parent_index?&#45;&gt;parent_index + 1 &lt; len(parent{children) -->
<g id="edge10" class="edge"><title>parent_index?&#45;&gt;parent_index + 1 &lt; len(parent{children)</title>
<path fill="none" stroke="#00ff00" d="M796.321,-874.574C774.053,-863.614 743.944,-844.766 729.5,-818 699.711,-762.8 707.614,-685.929 714.754,-645.802"/>
<polygon fill="#00ff00" stroke="#00ff00" points="718.238,-646.214 716.669,-635.736 711.361,-644.906 718.238,-646.214"/>
<text text-anchor="middle" x="803.5" y="-796.3" font-family="Times New Roman,serif" font-size="14.00">NO (parent, parent_index)</text>
</g>
<!-- parent?&#45;&gt;_Bnodes{tree{BRANCH -->
<g id="edge19" class="edge"><title>parent?&#45;&gt;_Bnodes{tree{BRANCH</title>
<path fill="none" stroke="#00ff00" d="M1532.57,-160.921C1531.48,-150.722 1531.52,-137.516 1536.5,-127 1538.25,-123.299 1540.6,-119.841 1543.3,-116.651"/>
<polygon fill="#00ff00" stroke="#00ff00" points="1546.03,-118.866 1550.55,-109.286 1541.04,-113.953 1546.03,-118.866"/>
<text text-anchor="middle" x="1664" y="-130.8" font-family="Times New Roman,serif" font-size="14.00">NO (tree=_Bnodes{tree,children=[_Bnodes])</text>
</g>
<!-- parent?&#45;&gt;_Bnodes{contents -->
<g id="edge21" class="edge"><title>parent?&#45;&gt;_Bnodes{contents</title>
<path fill="none" stroke="#aaffaa" d="M1582.44,-176.091C1647.27,-173.931 1759.8,-166.634 1791.5,-142 1817.63,-121.693 1794,-94.1009 1819.5,-73 1846.52,-50.6414 1931.25,-36.174 1998.67,-27.8965"/>
<polygon fill="#aaffaa" stroke="#aaffaa" points="1999.39,-31.335 2008.91,-26.6705 1998.56,-24.3847 1999.39,-31.335"/>
<text text-anchor="middle" x="1947.5" y="-87.3" font-family="Times New Roman,serif" font-size="14.00">Yes (tree=_Bnodes{tree,children=[_Bnodes])</text>
</g>
<!-- len(left_sib{contents) &lt; _Bnodes{tree{order&#45;&gt;_Bnodes{lateral -->
<g id="edge13" class="edge"><title>len(left_sib{contents) &lt; _Bnodes{tree{order&#45;&gt;_Bnodes{lateral</title>
<path fill="none" stroke="#00ff00" d="M1204.77,-787.46C1231.08,-781.794 1256.22,-774.002 1264.5,-764 1374.89,-630.651 1325.34,-397.038 1304.27,-318.285"/>
<polygon fill="#00ff00" stroke="#00ff00" points="1307.65,-317.354 1301.62,-308.637 1300.9,-319.207 1307.65,-317.354"/>
<text text-anchor="middle" x="1523.5" y="-530.8" font-family="Times New Roman,serif" font-size="14.00">Yes (parent,parent_index,dest=left_sib,dest_index=parent_index&#45;1)</text>
</g>
<!-- len(left_sib{contents) &lt; _Bnodes{tree{order&#45;&gt;parent_index + 1 &lt; len(parent{children) -->
<g id="edge11" class="edge"><title>len(left_sib{contents) &lt; _Bnodes{tree{order&#45;&gt;parent_index + 1 &lt; len(parent{children)</title>
<path fill="none" stroke="#00ff00" d="M1078.74,-785.735C1057.88,-779.854 1033.78,-772.366 1012.5,-764 916.646,-726.311 809.522,-668.937 755.583,-638.907"/>
<polygon fill="#00ff00" stroke="#00ff00" points="757.205,-635.804 746.769,-633.979 753.789,-641.914 757.205,-635.804"/>
<text text-anchor="middle" x="1138.5" y="-705.3" font-family="Times New Roman,serif" font-size="14.00">NO (parent, parent_index = ancestors.pop())</text>
</g>
<!-- len(right_sib{contents) &lt; _Bnodes{tree{order -->
<g id="node14" class="node"><title>len(right_sib{contents) &lt; _Bnodes{tree{order</title>
<path fill="#ffce9f" stroke="black" d="M708.531,-468.144C708.531,-468.144 480.771,-451.856 480.771,-451.856 474.786,-451.428 474.786,-450.572 480.771,-450.144 480.771,-450.144 708.531,-433.856 708.531,-433.856 714.515,-433.428 726.485,-433.428 732.469,-433.856 732.469,-433.856 960.229,-450.144 960.229,-450.144 966.214,-450.572 966.214,-451.428 960.229,-451.856 960.229,-451.856 732.469,-468.144 732.469,-468.144 726.485,-468.572 714.515,-468.572 708.531,-468.144"/>
<text text-anchor="middle" x="720.5" y="-447.3" font-family="Times New Roman,serif" font-size="14.00">len(right_sib{contents) &lt; _Bnodes{tree{order</text>
</g>
<!-- len(right_sib{contents) &lt; _Bnodes{tree{order&#45;&gt;_Bnodes{split -->
<g id="edge17" class="edge"><title>len(right_sib{contents) &lt; _Bnodes{tree{order&#45;&gt;_Bnodes{split</title>
<path fill="none" stroke="#00ff00" d="M679.323,-435.934C615.251,-414.048 488.878,-370.879 390.903,-337.411"/>
<polygon fill="#00ff00" stroke="#00ff00" points="391.807,-334.022 381.213,-334.101 389.545,-340.646 391.807,-334.022"/>
<text text-anchor="middle" x="617.5" y="-379.8" font-family="Times New Roman,serif" font-size="14.00">No</text>
</g>
<!-- len(right_sib{contents) &lt; _Bnodes{tree{order&#45;&gt;_Bnodes{lateral -->
<g id="edge15" class="edge"><title>len(right_sib{contents) &lt; _Bnodes{tree{order&#45;&gt;_Bnodes{lateral</title>
<path fill="none" stroke="#00ff00" d="M740.193,-434.111C768.943,-411.827 824.941,-371.806 879.5,-352 933.696,-332.326 994.047,-319.032 1051.63,-310.054"/>
<polygon fill="#00ff00" stroke="#00ff00" points="1052.23,-313.502 1061.59,-308.539 1051.18,-306.582 1052.23,-313.502"/>
<text text-anchor="start" x="879.5" y="-403.8" font-family="Times New Roman,serif" font-size="14.00">Yes (parent,parent_index,dest=left_sib,dest_index=parent_index+1) </text>
</g>
<!-- parent_index + 1 &lt; len(parent{children)&#45;&gt;_Bnodes{split -->
<g id="edge16" class="edge"><title>parent_index + 1 &lt; len(parent{children)&#45;&gt;_Bnodes{split</title>
<path fill="none" stroke="#00ff00" d="M686.547,-602.689C632.202,-578.992 523.467,-528.29 441.5,-469 389.262,-431.215 336.913,-379.365 301.302,-341.462"/>
<polygon fill="#00ff00" stroke="#00ff00" points="303.789,-338.998 294.407,-334.075 298.672,-343.774 303.789,-338.998"/>
<text text-anchor="middle" x="450.5" y="-447.3" font-family="Times New Roman,serif" font-size="14.00">No</text>
</g>
<!-- parent_index + 1 &lt; len(parent{children)&#45;&gt;len(right_sib{contents) &lt; _Bnodes{tree{order -->
<g id="edge14" class="edge"><title>parent_index + 1 &lt; len(parent{children)&#45;&gt;len(right_sib{contents) &lt; _Bnodes{tree{order</title>
<path fill="none" stroke="#00ff00" d="M720.5,-599.964C720.5,-571.433 720.5,-513.752 720.5,-479.442"/>
<polygon fill="#00ff00" stroke="#00ff00" points="724,-479.191 720.5,-469.191 717,-479.191 724,-479.191"/>
<text text-anchor="middle" x="866.5" y="-570.8" font-family="Times New Roman,serif" font-size="14.00">Yes (right_sib = parent{children[parent_index + 1]) </text>
</g>
<!-- len(parent{contents) &gt; parent{tree{order&#45;&gt;_Bnodes{shrink -->
<g id="edge26" class="edge"><title>len(parent{contents) &gt; parent{tree{order&#45;&gt;_Bnodes{shrink</title>
<path fill="none" stroke="#ffaaaa" d="M1333.6,-1131.61C1350.47,-1118.69 1374.83,-1100.03 1394.09,-1085.29"/>
<polygon fill="#ffaaaa" stroke="#ffaaaa" points="1396.45,-1087.89 1402.26,-1079.03 1392.19,-1082.33 1396.45,-1087.89"/>
<text text-anchor="middle" x="1420.5" y="-1100.8" font-family="Times New Roman,serif" font-size="14.00">Yes (ancestors)</text>
</g>
<!-- len(parent{contents) &gt; parent{tree{order&#45;&gt;end -->
<g id="edge28" class="edge"><title>len(parent{contents) &gt; parent{tree{order&#45;&gt;end</title>
<path fill="none" stroke="#ffaaaa" d="M1309.81,-1130.03C1304.71,-1101.71 1299.09,-1044.52 1327.5,-1010 1346.15,-987.34 1379.01,-979.013 1404.84,-976.111"/>
<polygon fill="#ffaaaa" stroke="#ffaaaa" points="1405.42,-979.574 1415.06,-975.197 1404.79,-972.602 1405.42,-979.574"/>
<text text-anchor="middle" x="1322" y="-1057.3" font-family="Times New Roman,serif" font-size="14.00">NO</text>
</g>
<!-- start -->
<g id="node17" class="node"><title>start</title>
<ellipse fill="none" stroke="black" cx="2259.5" cy="-178" rx="27" ry="18"/>
<text text-anchor="middle" x="2259.5" y="-174.3" font-family="Times New Roman,serif" font-size="14.00">start</text>
</g>
<!-- start&#45;&gt;_Bnodes{insert -->
<g id="edge1" class="edge"><title>start&#45;&gt;_Bnodes{insert</title>
<path fill="none" stroke="black" d="M2259.5,-159.799C2259.5,-148.163 2259.5,-132.548 2259.5,-119.237"/>
<polygon fill="black" stroke="black" points="2263,-119.175 2259.5,-109.175 2256,-119.175 2263,-119.175"/>
<text text-anchor="middle" x="2321.5" y="-130.8" font-family="Times New Roman,serif" font-size="14.00">(index,item,ancestors)</text>
</g>
</g>
</svg>
