<?xml version="1.0" encoding="UTF-8" standalone="no"?>
<!DOCTYPE svg PUBLIC "-//W3C//DTD SVG 1.1//EN"
 "http://www.w3.org/Graphics/SVG/1.1/DTD/svg11.dtd">
<!-- Generated by graphviz version 2.38.0 (20140413.2041)
 -->
<!-- Title: %3 Pages: 1 -->
<svg width="1795pt" height="1016pt"
 viewBox="0.00 0.00 1795.45 1016.00" xmlns="http://www.w3.org/2000/svg" xmlns:xlink="http://www.w3.org/1999/xlink">
<g id="graph0" class="graph" transform="scale(1 1) rotate(0) translate(4 1012)">
<title>%3</title>
<polygon fill="white" stroke="none" points="-4,4 -4,-1012 1791.45,-1012 1791.45,4 -4,4"/>
<!-- []{insert -->
<g id="node1" class="node"><title>[]{insert</title>
<path fill="#ff5e99" stroke="black" d="M675.447,-1008C675.447,-1008 637.447,-1008 637.447,-1008 631.447,-1008 625.447,-1002 625.447,-996 625.447,-996 625.447,-984 625.447,-984 625.447,-978 631.447,-972 637.447,-972 637.447,-972 675.447,-972 675.447,-972 681.447,-972 687.447,-978 687.447,-984 687.447,-984 687.447,-996 687.447,-996 687.447,-1002 681.447,-1008 675.447,-1008"/>
<text text-anchor="middle" x="656.447" y="-986.3" font-family="Times New Roman,serif" font-size="14.00">[]{insert</text>
</g>
<!-- _Bnodes{children -->
<g id="node4" class="node"><title>_Bnodes{children</title>
<path fill="#00e599" stroke="black" d="M212.84,-921C212.84,-921 58.0473,-921 58.0473,-921 52.0473,-921 41.3225,-917.302 36.5977,-913.604 36.5977,-913.604 9.50276,-892.396 9.50276,-892.396 4.77795,-888.698 6.05315,-885 12.0532,-885 12.0532,-885 166.846,-885 166.846,-885 172.846,-885 183.571,-888.698 188.296,-892.396 188.296,-892.396 215.391,-913.604 215.391,-913.604 220.116,-917.302 218.84,-921 212.84,-921"/>
<text text-anchor="middle" x="112.447" y="-899.3" font-family="Times New Roman,serif" font-size="14.00">_Bnodes{children</text>
</g>
<!-- []{insert&#45;&gt;_Bnodes{children -->
<g id="edge23" class="edge"><title>[]{insert&#45;&gt;_Bnodes{children</title>
<path fill="none" stroke="#aaffaa" d="M625.432,-988.511C559.212,-986.964 399.361,-980.546 268.447,-954 233.888,-946.992 196.213,-935.044 166.546,-924.585"/>
<polygon fill="#aaffaa" stroke="#aaffaa" points="167.402,-921.175 156.808,-921.105 165.046,-927.766 167.402,-921.175"/>
</g>
<!-- len(_Bnodes{contents) &gt; _Bnodes{tree{order -->
<g id="node9" class="node"><title>len(_Bnodes{contents) &gt; _Bnodes{tree{order</title>
<path fill="#ffce9f" stroke="black" d="M950.477,-920.147C950.477,-920.147 721.88,-903.853 721.88,-903.853 715.895,-903.427 715.895,-902.573 721.88,-902.147 721.88,-902.147 950.477,-885.853 950.477,-885.853 956.462,-885.427 968.432,-885.427 974.416,-885.853 974.416,-885.853 1203.01,-902.147 1203.01,-902.147 1209,-902.573 1209,-903.427 1203.01,-903.853 1203.01,-903.853 974.416,-920.147 974.416,-920.147 968.432,-920.573 956.462,-920.573 950.477,-920.147"/>
<text text-anchor="middle" x="962.447" y="-899.3" font-family="Times New Roman,serif" font-size="14.00">len(_Bnodes{contents) &gt; _Bnodes{tree{order</text>
</g>
<!-- []{insert&#45;&gt;len(_Bnodes{contents) &gt; _Bnodes{tree{order -->
<g id="edge4" class="edge"><title>[]{insert&#45;&gt;len(_Bnodes{contents) &gt; _Bnodes{tree{order</title>
<path fill="none" stroke="#fff00f" d="M687.472,-980.382C738.023,-966.34 838.985,-938.295 903.498,-920.375"/>
<polygon fill="#fff00f" stroke="#fff00f" points="904.827,-923.638 913.526,-917.589 902.954,-916.893 904.827,-923.638"/>
</g>
<!-- len(parent{contents) &gt; parent{tree{order -->
<g id="node16" class="node"><title>len(parent{contents) &gt; parent{tree{order</title>
<path fill="#ffce9f" stroke="black" d="M455.485,-920.039C455.485,-920.039 255.359,-903.961 255.359,-903.961 249.379,-903.48 249.379,-902.52 255.359,-902.039 255.359,-902.039 455.485,-885.961 455.485,-885.961 461.466,-885.48 473.428,-885.48 479.408,-885.961 479.408,-885.961 679.534,-902.039 679.534,-902.039 685.515,-902.52 685.515,-903.48 679.534,-903.961 679.534,-903.961 479.408,-920.039 479.408,-920.039 473.428,-920.52 461.466,-920.52 455.485,-920.039"/>
<text text-anchor="middle" x="467.447" y="-899.3" font-family="Times New Roman,serif" font-size="14.00">len(parent{contents) &gt; parent{tree{order</text>
</g>
<!-- []{insert&#45;&gt;len(parent{contents) &gt; parent{tree{order -->
<g id="edge25" class="edge"><title>[]{insert&#45;&gt;len(parent{contents) &gt; parent{tree{order</title>
<path fill="none" stroke="#ffaaaa" d="M625.237,-974.964C593.516,-960.698 544.185,-938.512 509.133,-922.748"/>
<polygon fill="#ffaaaa" stroke="#ffaaaa" points="510.208,-919.393 499.652,-918.484 507.337,-925.778 510.208,-919.393"/>
</g>
<!-- _Bnodes{tree{BRANCH -->
<g id="node2" class="node"><title>_Bnodes{tree{BRANCH</title>
<path fill="#00e599" stroke="black" d="M870.076,-123C870.076,-123 654.459,-123 654.459,-123 648.459,-123 637.278,-119.974 632.097,-116.948 632.097,-116.948 591.18,-93.0518 591.18,-93.0518 585.999,-90.0259 586.818,-87 592.818,-87 592.818,-87 808.435,-87 808.435,-87 814.435,-87 825.616,-90.0259 830.797,-93.0518 830.797,-93.0518 871.713,-116.948 871.713,-116.948 876.895,-119.974 876.076,-123 870.076,-123"/>
<text text-anchor="middle" x="731.447" y="-101.3" font-family="Times New Roman,serif" font-size="14.00">_Bnodes{tree{BRANCH</text>
</g>
<!-- _Bnodes{contents -->
<g id="node3" class="node"><title>_Bnodes{contents</title>
<path fill="#00e599" stroke="black" d="M1391.56,-36C1391.56,-36 1232.44,-36 1232.44,-36 1226.44,-36 1215.67,-32.3567 1210.91,-28.7135 1210.91,-28.7135 1182.87,-7.28652 1182.87,-7.28652 1178.1,-3.64326 1179.34,-2.08506e-014 1185.34,-2.0385e-014 1185.34,-2.0385e-014 1344.45,-8.03669e-015 1344.45,-8.03669e-015 1350.45,-7.57106e-015 1361.22,-3.64326 1365.99,-7.28652 1365.99,-7.28652 1394.02,-28.7135 1394.02,-28.7135 1398.79,-32.3567 1397.56,-36 1391.56,-36"/>
<text text-anchor="middle" x="1288.45" y="-14.3" font-family="Times New Roman,serif" font-size="14.00">_Bnodes{contents</text>
</g>
<!-- _Bnodes{tree{BRANCH&#45;&gt;_Bnodes{contents -->
<g id="edge20" class="edge"><title>_Bnodes{tree{BRANCH&#45;&gt;_Bnodes{contents</title>
<path fill="none" stroke="#aaffaa" d="M794.693,-86.9793C837.07,-76.1307 894.268,-62.5539 945.447,-54 1029.43,-39.9628 1125.99,-30.7187 1195.22,-25.2752"/>
<polygon fill="#aaffaa" stroke="#aaffaa" points="1195.53,-28.7617 1205.23,-24.4995 1194.99,-21.7826 1195.53,-28.7617"/>
</g>
<!-- _Bnodes{contents&#45;&gt;[]{insert -->
<g id="edge3" class="edge"><title>_Bnodes{contents&#45;&gt;[]{insert</title>
<path fill="none" stroke="#fff00f" d="M1272.96,-36.1667C1259.94,-52.418 1243.45,-78.1191 1243.45,-104 1243.45,-904 1243.45,-904 1243.45,-904 1243.45,-959.204 831.558,-981.566 697.831,-987.372"/>
<polygon fill="#fff00f" stroke="#fff00f" points="697.434,-983.885 687.592,-987.807 697.732,-990.879 697.434,-983.885"/>
<text text-anchor="middle" x="1276.95" y="-500.3" font-family="Times New Roman,serif" font-size="14.00">(index,item)</text>
</g>
<!-- _Bnodes{contents&#45;&gt;[]{insert -->
<g id="edge22" class="edge"><title>_Bnodes{contents&#45;&gt;[]{insert</title>
<path fill="none" stroke="#00ffaa" d="M1303.93,-36.1667C1316.95,-52.418 1333.45,-78.1191 1333.45,-104 1333.45,-904 1333.45,-904 1333.45,-904 1333.45,-968.356 845.609,-984.701 698.159,-988.172"/>
<polygon fill="#00ffaa" stroke="#00ffaa" points="697.66,-984.683 687.742,-988.409 697.819,-991.681 697.66,-984.683"/>
<text text-anchor="middle" x="1560.45" y="-507.8" font-family="Times New Roman,serif" font-size="14.00">(index=parent_index,push) </text>
<text text-anchor="middle" x="1560.45" y="-492.8" font-family="Times New Roman,serif" font-size="14.00"> {parent=_Bnodes{tree{BRANCH,parent_index=0,_Bnodes{tree{_root=parent}</text>
</g>
<!-- _Bnodes{children&#45;&gt;[]{insert -->
<g id="edge24" class="edge"><title>_Bnodes{children&#45;&gt;[]{insert</title>
<path fill="none" stroke="#ffaaaa" d="M210.326,-921.054C268.427,-931.019 343.573,-943.634 410.447,-954 482.331,-965.143 566.251,-976.792 615.161,-983.446"/>
<polygon fill="#ffaaaa" stroke="#ffaaaa" points="614.963,-986.951 625.343,-984.828 615.905,-980.015 614.963,-986.951"/>
<text text-anchor="middle" x="478.447" y="-942.8" font-family="Times New Roman,serif" font-size="14.00">(parent_index+1,sibling)</text>
</g>
<!-- _Bnodes{split -->
<g id="node5" class="node"><title>_Bnodes{split</title>
<path fill="#ffe599" stroke="black" d="M985.947,-297C985.947,-297 912.947,-297 912.947,-297 906.947,-297 900.947,-291 900.947,-285 900.947,-285 900.947,-273 900.947,-273 900.947,-267 906.947,-261 912.947,-261 912.947,-261 985.947,-261 985.947,-261 991.947,-261 997.947,-267 997.947,-273 997.947,-273 997.947,-285 997.947,-285 997.947,-291 991.947,-297 985.947,-297"/>
<text text-anchor="middle" x="949.447" y="-275.3" font-family="Times New Roman,serif" font-size="14.00">_Bnodes{split</text>
</g>
<!-- parent? -->
<g id="node12" class="node"><title>parent?</title>
<path fill="#ffce9f" stroke="black" d="M938.1,-206.094C938.1,-206.094 908.509,-195.906 908.509,-195.906 902.836,-193.953 902.836,-190.047 908.509,-188.094 908.509,-188.094 938.1,-177.906 938.1,-177.906 943.774,-175.953 955.12,-175.953 960.793,-177.906 960.793,-177.906 990.385,-188.094 990.385,-188.094 996.058,-190.047 996.058,-193.953 990.385,-195.906 990.385,-195.906 960.793,-206.094 960.793,-206.094 955.12,-208.047 943.774,-208.047 938.1,-206.094"/>
<text text-anchor="middle" x="949.447" y="-188.3" font-family="Times New Roman,serif" font-size="14.00">parent?</text>
</g>
<!-- _Bnodes{split&#45;&gt;parent? -->
<g id="edge18" class="edge"><title>_Bnodes{split&#45;&gt;parent?</title>
<path fill="none" stroke="#00ff00" d="M949.447,-260.799C949.447,-249.163 949.447,-233.548 949.447,-220.237"/>
<polygon fill="#00ff00" stroke="#00ff00" points="952.947,-220.175 949.447,-210.175 945.947,-220.175 952.947,-220.175"/>
<text text-anchor="middle" x="1030.45" y="-231.8" font-family="Times New Roman,serif" font-size="14.00">sibling,push=_Bnodes.split()</text>
</g>
<!-- _Bnodes{insert -->
<g id="node6" class="node"><title>_Bnodes{insert</title>
<path fill="#ffe599" stroke="black" d="M1453.45,-123C1453.45,-123 1373.45,-123 1373.45,-123 1367.45,-123 1361.45,-117 1361.45,-111 1361.45,-111 1361.45,-99 1361.45,-99 1361.45,-93 1367.45,-87 1373.45,-87 1373.45,-87 1453.45,-87 1453.45,-87 1459.45,-87 1465.45,-93 1465.45,-99 1465.45,-99 1465.45,-111 1465.45,-111 1465.45,-117 1459.45,-123 1453.45,-123"/>
<text text-anchor="middle" x="1413.45" y="-101.3" font-family="Times New Roman,serif" font-size="14.00">_Bnodes{insert</text>
</g>
<!-- _Bnodes{insert&#45;&gt;_Bnodes{contents -->
<g id="edge2" class="edge"><title>_Bnodes{insert&#45;&gt;_Bnodes{contents</title>
<path fill="none" stroke="#fff00f" d="M1392.2,-86.9317C1379.47,-76.9613 1362.84,-64.346 1347.45,-54 1341.2,-49.7972 1334.43,-45.5347 1327.79,-41.4985"/>
<polygon fill="#fff00f" stroke="#fff00f" points="1329.25,-38.2918 1318.87,-36.1617 1325.65,-44.299 1329.25,-38.2918"/>
</g>
<!-- _Bnodes{insert&#45;&gt;_Bnodes{contents -->
<g id="edge7" class="edge"><title>_Bnodes{insert&#45;&gt;_Bnodes{contents</title>
<path fill="none" stroke="#00ff00" d="M1402.25,-86.9011C1394.61,-76.295 1383.67,-63.0184 1371.45,-54 1364.57,-48.9286 1356.85,-44.428 1348.96,-40.4853"/>
<polygon fill="#00ff00" stroke="#00ff00" points="1350.2,-37.1993 1339.66,-36.1126 1347.22,-43.5343 1350.2,-37.1993"/>
<text text-anchor="middle" x="1419.95" y="-57.8" font-family="Times New Roman,serif" font-size="14.00">(index,item)</text>
</g>
<!-- _Bnodes{shrink -->
<g id="node7" class="node"><title>_Bnodes{shrink</title>
<path fill="#ffe599" stroke="black" d="M634.947,-834C634.947,-834 551.947,-834 551.947,-834 545.947,-834 539.947,-828 539.947,-822 539.947,-822 539.947,-810 539.947,-810 539.947,-804 545.947,-798 551.947,-798 551.947,-798 634.947,-798 634.947,-798 640.947,-798 646.947,-804 646.947,-810 646.947,-810 646.947,-822 646.947,-822 646.947,-828 640.947,-834 634.947,-834"/>
<text text-anchor="middle" x="593.447" y="-812.3" font-family="Times New Roman,serif" font-size="14.00">_Bnodes{shrink</text>
</g>
<!-- ancestors? -->
<g id="node10" class="node"><title>ancestors?</title>
<path fill="#ffce9f" stroke="black" d="M565.828,-744C565.828,-744 519.354,-732 519.354,-732 513.544,-730.5 513.544,-727.5 519.354,-726 519.354,-726 565.828,-714 565.828,-714 571.637,-712.5 583.256,-712.5 589.066,-714 589.066,-714 635.54,-726 635.54,-726 641.35,-727.5 641.35,-730.5 635.54,-732 635.54,-732 589.066,-744 589.066,-744 583.256,-745.5 571.637,-745.5 565.828,-744"/>
<text text-anchor="middle" x="577.447" y="-725.3" font-family="Times New Roman,serif" font-size="14.00">ancestors?</text>
</g>
<!-- _Bnodes{shrink&#45;&gt;ancestors? -->
<g id="edge8" class="edge"><title>_Bnodes{shrink&#45;&gt;ancestors?</title>
<path fill="none" stroke="#00ff00" d="M584.603,-797.989C582.128,-792.407 579.757,-786.075 578.447,-780 576.854,-772.616 576.229,-764.476 576.097,-756.947"/>
<polygon fill="#00ff00" stroke="#00ff00" points="579.597,-756.884 576.189,-746.852 572.597,-756.82 579.597,-756.884"/>
<text text-anchor="middle" x="618.947" y="-768.8" font-family="Times New Roman,serif" font-size="14.00">parent = None</text>
</g>
<!-- end -->
<g id="node18" class="node"><title>end</title>
<ellipse fill="none" stroke="black" cx="698.447" cy="-729" rx="27" ry="18"/>
<text text-anchor="middle" x="698.447" y="-725.3" font-family="Times New Roman,serif" font-size="14.00">end</text>
</g>
<!-- _Bnodes{shrink&#45;&gt;end -->
<g id="edge27" class="edge"><title>_Bnodes{shrink&#45;&gt;end</title>
<path fill="none" stroke="#ffaaaa" d="M632.177,-797.945C641.599,-792.882 651.299,-786.835 659.447,-780 668.176,-772.677 676.222,-763.103 682.71,-754.294"/>
<polygon fill="#ffaaaa" stroke="#ffaaaa" points="685.757,-756.046 688.646,-745.853 680.031,-752.02 685.757,-756.046"/>
</g>
<!-- _Bnodes{lateral -->
<g id="node8" class="node"><title>_Bnodes{lateral</title>
<path fill="#ffe599" stroke="black" d="M519.447,-297C519.447,-297 437.447,-297 437.447,-297 431.447,-297 425.447,-291 425.447,-285 425.447,-285 425.447,-273 425.447,-273 425.447,-267 431.447,-261 437.447,-261 437.447,-261 519.447,-261 519.447,-261 525.447,-261 531.447,-267 531.447,-273 531.447,-273 531.447,-285 531.447,-285 531.447,-291 525.447,-297 519.447,-297"/>
<text text-anchor="middle" x="478.447" y="-275.3" font-family="Times New Roman,serif" font-size="14.00">_Bnodes{lateral</text>
</g>
<!-- len(_Bnodes{contents) &gt; _Bnodes{tree{order&#45;&gt;_Bnodes{shrink -->
<g id="edge6" class="edge"><title>len(_Bnodes{contents) &gt; _Bnodes{tree{order&#45;&gt;_Bnodes{shrink</title>
<path fill="none" stroke="#00ff00" d="M906.002,-888.998C838.941,-873.55 727.343,-847.843 657.22,-831.69"/>
<polygon fill="#00ff00" stroke="#00ff00" points="657.715,-828.213 647.185,-829.379 656.144,-835.034 657.715,-828.213"/>
<text text-anchor="middle" x="843.447" y="-855.8" font-family="Times New Roman,serif" font-size="14.00">Yes (ancestors)</text>
</g>
<!-- len(_Bnodes{contents) &gt; _Bnodes{tree{order&#45;&gt;end -->
<g id="edge5" class="edge"><title>len(_Bnodes{contents) &gt; _Bnodes{tree{order&#45;&gt;end</title>
<path fill="none" stroke="#fff00f" d="M940.889,-886.399C926.914,-876.39 908.249,-863.217 891.447,-852 833.7,-813.45 764.624,-770.539 726.756,-747.282"/>
<polygon fill="#fff00f" stroke="#fff00f" points="728.181,-744.051 717.826,-741.807 724.522,-750.018 728.181,-744.051"/>
<text text-anchor="middle" x="871.447" y="-812.3" font-family="Times New Roman,serif" font-size="14.00">No</text>
</g>
<!-- parent_index? -->
<g id="node11" class="node"><title>parent_index?</title>
<path fill="#ffce9f" stroke="black" d="M565.695,-657.572C565.695,-657.572 502.058,-644.428 502.058,-644.428 496.183,-643.214 496.183,-640.786 502.058,-639.572 502.058,-639.572 565.695,-626.428 565.695,-626.428 571.571,-625.214 583.323,-625.214 589.199,-626.428 589.199,-626.428 652.835,-639.572 652.835,-639.572 658.711,-640.786 658.711,-643.214 652.835,-644.428 652.835,-644.428 589.199,-657.572 589.199,-657.572 583.323,-658.786 571.571,-658.786 565.695,-657.572"/>
<text text-anchor="middle" x="577.447" y="-638.3" font-family="Times New Roman,serif" font-size="14.00">parent_index?</text>
</g>
<!-- ancestors?&#45;&gt;parent_index? -->
<g id="edge9" class="edge"><title>ancestors?&#45;&gt;parent_index?</title>
<path fill="none" stroke="#00ff00" d="M577.447,-710.799C577.447,-699.163 577.447,-683.548 577.447,-670.237"/>
<polygon fill="#00ff00" stroke="#00ff00" points="580.947,-670.175 577.447,-660.175 573.947,-670.175 580.947,-670.175"/>
<text text-anchor="middle" x="703.947" y="-681.8" font-family="Times New Roman,serif" font-size="14.00">Yes (parent, parent_index = ancestors.pop())</text>
</g>
<!-- len(left_sib{contents) &lt; _Bnodes{tree{order -->
<g id="node13" class="node"><title>len(left_sib{contents) &lt; _Bnodes{tree{order</title>
<path fill="#ffce9f" stroke="black" d="M539.479,-572.119C539.479,-572.119 318.923,-555.881 318.923,-555.881 312.939,-555.441 312.939,-554.559 318.923,-554.119 318.923,-554.119 539.479,-537.881 539.479,-537.881 545.463,-537.441 557.431,-537.441 563.414,-537.881 563.414,-537.881 783.971,-554.119 783.971,-554.119 789.955,-554.559 789.955,-555.441 783.971,-555.881 783.971,-555.881 563.414,-572.119 563.414,-572.119 557.431,-572.559 545.463,-572.559 539.479,-572.119"/>
<text text-anchor="middle" x="551.447" y="-551.3" font-family="Times New Roman,serif" font-size="14.00">len(left_sib{contents) &lt; _Bnodes{tree{order</text>
</g>
<!-- parent_index?&#45;&gt;len(left_sib{contents) &lt; _Bnodes{tree{order -->
<g id="edge12" class="edge"><title>parent_index?&#45;&gt;len(left_sib{contents) &lt; _Bnodes{tree{order</title>
<path fill="none" stroke="#00ff00" d="M564.057,-626.432C559.475,-620.53 554.891,-613.371 552.447,-606 550.07,-598.83 549.193,-590.759 549.071,-583.227"/>
<polygon fill="#00ff00" stroke="#00ff00" points="552.573,-583.173 549.324,-573.088 545.576,-582.998 552.573,-583.173"/>
<text text-anchor="middle" x="690.947" y="-594.8" font-family="Times New Roman,serif" font-size="14.00">Yes (left_sib = parent{children[parent_index &#45; 1])</text>
</g>
<!-- parent_index + 1 &lt; len(parent{children) -->
<g id="node15" class="node"><title>parent_index + 1 &lt; len(parent{children)</title>
<path fill="#ffce9f" stroke="black" d="M831.488,-470.011C831.488,-470.011 637.725,-453.989 637.725,-453.989 631.746,-453.494 631.746,-452.506 637.725,-452.011 637.725,-452.011 831.488,-435.989 831.488,-435.989 837.467,-435.494 849.426,-435.494 855.406,-435.989 855.406,-435.989 1049.17,-452.011 1049.17,-452.011 1055.15,-452.506 1055.15,-453.494 1049.17,-453.989 1049.17,-453.989 855.406,-470.011 855.406,-470.011 849.426,-470.506 837.467,-470.506 831.488,-470.011"/>
<text text-anchor="middle" x="843.447" y="-449.3" font-family="Times New Roman,serif" font-size="14.00">parent_index + 1 &lt; len(parent{children)</text>
</g>
<!-- parent_index?&#45;&gt;parent_index + 1 &lt; len(parent{children) -->
<g id="edge10" class="edge"><title>parent_index?&#45;&gt;parent_index + 1 &lt; len(parent{children)</title>
<path fill="none" stroke="#00ff00" d="M656.946,-640.385C721.771,-638.065 806.264,-630.278 829.447,-606 861.154,-572.795 856.357,-514.917 849.943,-480.97"/>
<polygon fill="#00ff00" stroke="#00ff00" points="853.303,-479.933 847.848,-470.85 846.448,-481.352 853.303,-479.933"/>
<text text-anchor="middle" x="979.447" y="-551.3" font-family="Times New Roman,serif" font-size="14.00">NO (parent, parent_index = ancestors.pop())</text>
</g>
<!-- parent?&#45;&gt;_Bnodes{tree{BRANCH -->
<g id="edge19" class="edge"><title>parent?&#45;&gt;_Bnodes{tree{BRANCH</title>
<path fill="none" stroke="#00ff00" d="M897.938,-191.695C830.248,-191.378 716.834,-186.193 690.447,-156 683.117,-147.613 687.628,-138.217 695.902,-129.853"/>
<polygon fill="#00ff00" stroke="#00ff00" points="698.364,-132.349 703.56,-123.116 693.74,-127.093 698.364,-132.349"/>
<text text-anchor="middle" x="817.947" y="-144.8" font-family="Times New Roman,serif" font-size="14.00">NO (tree=_Bnodes{tree,children=[_Bnodes])</text>
</g>
<!-- parent?&#45;&gt;_Bnodes{contents -->
<g id="edge21" class="edge"><title>parent?&#45;&gt;_Bnodes{contents</title>
<path fill="none" stroke="#aaffaa" d="M948.232,-174.368C947.531,-151.391 949.959,-110.157 973.447,-87 1004.73,-56.1593 1116.16,-37.5681 1197.64,-27.8029"/>
<polygon fill="#aaffaa" stroke="#aaffaa" points="1198.4,-31.2382 1207.92,-26.5981 1197.58,-24.2858 1198.4,-31.2382"/>
<text text-anchor="middle" x="1101.45" y="-101.3" font-family="Times New Roman,serif" font-size="14.00">Yes (tree=_Bnodes{tree,children=[_Bnodes])</text>
</g>
<!-- len(left_sib{contents) &lt; _Bnodes{tree{order&#45;&gt;_Bnodes{lateral -->
<g id="edge13" class="edge"><title>len(left_sib{contents) &lt; _Bnodes{tree{order&#45;&gt;_Bnodes{lateral</title>
<path fill="none" stroke="#00ff00" d="M536.241,-537.922C514.657,-513.87 476.125,-466.076 461.447,-417 450.315,-379.78 460.095,-334.768 468.769,-306.754"/>
<polygon fill="#00ff00" stroke="#00ff00" points="472.096,-307.841 471.873,-297.248 465.442,-305.667 472.096,-307.841"/>
<text text-anchor="middle" x="650.447" y="-405.8" font-family="Times New Roman,serif" font-size="14.00">Yes (parent,parent_index,dest=left_sib,dest_index=parent_index&#45;1)</text>
</g>
<!-- len(left_sib{contents) &lt; _Bnodes{tree{order&#45;&gt;parent_index + 1 &lt; len(parent{children) -->
<g id="edge11" class="edge"><title>len(left_sib{contents) &lt; _Bnodes{tree{order&#45;&gt;parent_index + 1 &lt; len(parent{children)</title>
<path fill="none" stroke="#00ff00" d="M553.448,-537.028C556.177,-521.949 562.571,-500.559 577.447,-489 596.757,-473.996 644.975,-465.412 695.14,-460.506"/>
<polygon fill="#00ff00" stroke="#00ff00" points="695.557,-463.982 705.19,-459.573 694.91,-457.012 695.557,-463.982"/>
<text text-anchor="middle" x="703.447" y="-500.3" font-family="Times New Roman,serif" font-size="14.00">NO (parent, parent_index = ancestors.pop())</text>
</g>
<!-- len(right_sib{contents) &lt; _Bnodes{tree{order -->
<g id="node14" class="node"><title>len(right_sib{contents) &lt; _Bnodes{tree{order</title>
<path fill="#ffce9f" stroke="black" d="M831.477,-383.144C831.477,-383.144 603.718,-366.856 603.718,-366.856 597.733,-366.428 597.733,-365.572 603.718,-365.144 603.718,-365.144 831.477,-348.856 831.477,-348.856 837.462,-348.428 849.432,-348.428 855.416,-348.856 855.416,-348.856 1083.18,-365.144 1083.18,-365.144 1089.16,-365.572 1089.16,-366.428 1083.18,-366.856 1083.18,-366.856 855.416,-383.144 855.416,-383.144 849.432,-383.572 837.462,-383.572 831.477,-383.144"/>
<text text-anchor="middle" x="843.447" y="-362.3" font-family="Times New Roman,serif" font-size="14.00">len(right_sib{contents) &lt; _Bnodes{tree{order</text>
</g>
<!-- len(right_sib{contents) &lt; _Bnodes{tree{order&#45;&gt;_Bnodes{split -->
<g id="edge17" class="edge"><title>len(right_sib{contents) &lt; _Bnodes{tree{order&#45;&gt;_Bnodes{split</title>
<path fill="none" stroke="#00ff00" d="M871.034,-349.914C880.683,-344.163 891.367,-337.239 900.447,-330 909.906,-322.459 919.416,-313.223 927.508,-304.751"/>
<polygon fill="#00ff00" stroke="#00ff00" points="930.238,-306.956 934.499,-297.256 925.119,-302.181 930.238,-306.956"/>
<text text-anchor="middle" x="924.447" y="-318.8" font-family="Times New Roman,serif" font-size="14.00">No</text>
</g>
<!-- len(right_sib{contents) &lt; _Bnodes{tree{order&#45;&gt;_Bnodes{lateral -->
<g id="edge15" class="edge"><title>len(right_sib{contents) &lt; _Bnodes{tree{order&#45;&gt;_Bnodes{lateral</title>
<path fill="none" stroke="#00ff00" d="M677.755,-359.793C610.794,-355.151 542.694,-346.413 514.447,-330 504.875,-324.438 497.158,-315.201 491.361,-306.169"/>
<polygon fill="#00ff00" stroke="#00ff00" points="494.274,-304.217 486.207,-297.349 488.231,-307.749 494.274,-304.217"/>
<text text-anchor="middle" x="705.447" y="-318.8" font-family="Times New Roman,serif" font-size="14.00">Yes (parent,parent_index,dest=left_sib,dest_index=parent_index+1)</text>
</g>
<!-- parent_index + 1 &lt; len(parent{children)&#45;&gt;_Bnodes{split -->
<g id="edge16" class="edge"><title>parent_index + 1 &lt; len(parent{children)&#45;&gt;_Bnodes{split</title>
<path fill="none" stroke="#00ff00" d="M963.687,-444.922C1038.17,-439.273 1121.82,-430.115 1133.45,-417 1179.5,-365.056 1077.54,-320.336 1007.78,-297.082"/>
<polygon fill="#00ff00" stroke="#00ff00" points="1008.76,-293.721 998.164,-293.945 1006.58,-300.375 1008.76,-293.721"/>
<text text-anchor="middle" x="1152.45" y="-362.3" font-family="Times New Roman,serif" font-size="14.00">No</text>
</g>
<!-- parent_index + 1 &lt; len(parent{children)&#45;&gt;len(right_sib{contents) &lt; _Bnodes{tree{order -->
<g id="edge14" class="edge"><title>parent_index + 1 &lt; len(parent{children)&#45;&gt;len(right_sib{contents) &lt; _Bnodes{tree{order</title>
<path fill="none" stroke="#00ff00" d="M843.447,-434.799C843.447,-423.163 843.447,-407.548 843.447,-394.237"/>
<polygon fill="#00ff00" stroke="#00ff00" points="846.947,-394.175 843.447,-384.175 839.947,-394.175 846.947,-394.175"/>
<text text-anchor="middle" x="987.947" y="-405.8" font-family="Times New Roman,serif" font-size="14.00">Yes (right_sib = parent{children[parent_index + 1])</text>
</g>
<!-- len(parent{contents) &gt; parent{tree{order&#45;&gt;_Bnodes{shrink -->
<g id="edge26" class="edge"><title>len(parent{contents) &gt; parent{tree{order&#45;&gt;_Bnodes{shrink</title>
<path fill="none" stroke="#ffaaaa" d="M489.973,-886.804C509.345,-873.735 537.571,-854.694 559.651,-839.799"/>
<polygon fill="#ffaaaa" stroke="#ffaaaa" points="561.751,-842.604 568.084,-834.11 557.836,-836.801 561.751,-842.604"/>
<text text-anchor="middle" x="582.447" y="-855.8" font-family="Times New Roman,serif" font-size="14.00">Yes (ancestors)</text>
</g>
<!-- len(parent{contents) &gt; parent{tree{order&#45;&gt;end -->
<g id="edge28" class="edge"><title>len(parent{contents) &gt; parent{tree{order&#45;&gt;end</title>
<path fill="none" stroke="#ffaaaa" d="M563.928,-892.683C586.929,-887.462 610.552,-879.404 630.447,-867 668.911,-843.019 686.314,-790.104 693.64,-757.506"/>
<polygon fill="#ffaaaa" stroke="#ffaaaa" points="697.153,-757.802 695.755,-747.3 690.299,-756.382 697.153,-757.802"/>
<text text-anchor="middle" x="690.947" y="-812.3" font-family="Times New Roman,serif" font-size="14.00">NO</text>
</g>
<!-- start -->
<g id="node17" class="node"><title>start</title>
<ellipse fill="none" stroke="black" cx="1413.45" cy="-192" rx="27" ry="18"/>
<text text-anchor="middle" x="1413.45" y="-188.3" font-family="Times New Roman,serif" font-size="14.00">start</text>
</g>
<!-- start&#45;&gt;_Bnodes{insert -->
<g id="edge1" class="edge"><title>start&#45;&gt;_Bnodes{insert</title>
<path fill="none" stroke="black" d="M1413.45,-173.799C1413.45,-162.163 1413.45,-146.548 1413.45,-133.237"/>
<polygon fill="black" stroke="black" points="1416.95,-133.175 1413.45,-123.175 1409.95,-133.175 1416.95,-133.175"/>
<text text-anchor="middle" x="1475.45" y="-144.8" font-family="Times New Roman,serif" font-size="14.00">(index,item,ancestors)</text>
</g>
</g>
</svg>
