<?xml version="1.0" encoding="UTF-8" standalone="no"?>
<!DOCTYPE svg PUBLIC "-//W3C//DTD SVG 1.1//EN"
 "http://www.w3.org/Graphics/SVG/1.1/DTD/svg11.dtd">
<!-- Generated by graphviz version 2.38.0 (20140413.2041)
 -->
<!-- Title: %3 Pages: 1 -->
<svg width="1628pt" height="795pt"
 viewBox="0.00 0.00 1628.00 795.00" xmlns="http://www.w3.org/2000/svg" xmlns:xlink="http://www.w3.org/1999/xlink">
<g id="graph0" class="graph" transform="scale(1 1) rotate(0) translate(4 791)">
<title>%3</title>
<polygon fill="white" stroke="none" points="-4,4 -4,-791 1624,-791 1624,4 -4,4"/>
<g id="clust1" class="cluster"><title>cluster_array</title>
<polygon fill="none" stroke="black" points="8,-8 8,-608 1368,-608 1368,-8 8,-8"/>
<text text-anchor="middle" x="688" y="-592.8" font-family="Times New Roman,serif" font-size="14.00">[]</text>
</g>
<!-- _Bnodes{lateral_right -->
<g id="node1" class="node"><title>_Bnodes{lateral_right</title>
<path fill="#ffe599" stroke="black" d="M234,-700C234,-700 120,-700 120,-700 114,-700 108,-694 108,-688 108,-688 108,-676 108,-676 108,-670 114,-664 120,-664 120,-664 234,-664 234,-664 240,-664 246,-670 246,-676 246,-676 246,-688 246,-688 246,-694 240,-700 234,-700"/>
<text text-anchor="middle" x="177" y="-678.3" font-family="Times New Roman,serif" font-size="14.00">_Bnodes{lateral_right</text>
</g>
<!-- parent{contents{[parent_index] -->
<g id="node3" class="node"><title>parent{contents{[parent_index]</title>
<path fill="#ff5e99" stroke="black" d="M325.5,-577C325.5,-577 28.5,-577 28.5,-577 22.5,-577 16.5,-571 16.5,-565 16.5,-565 16.5,-516 16.5,-516 16.5,-510 22.5,-504 28.5,-504 28.5,-504 325.5,-504 325.5,-504 331.5,-504 337.5,-510 337.5,-516 337.5,-516 337.5,-565 337.5,-565 337.5,-571 331.5,-577 325.5,-577"/>
<text text-anchor="middle" x="177" y="-536.8" font-family="Times New Roman,serif" font-size="14.00">parent{contents{[parent_index]</text>
</g>
<!-- _Bnodes{lateral_right&#45;&gt;parent{contents{[parent_index] -->
<g id="edge2" class="edge"><title>_Bnodes{lateral_right&#45;&gt;parent{contents{[parent_index]</title>
<path fill="none" stroke="black" d="M177,-663.895C177,-644.947 177,-613.608 177,-587.386"/>
<polygon fill="black" stroke="black" points="180.5,-587.255 177,-577.255 173.5,-587.255 180.5,-587.255"/>
<text text-anchor="middle" x="311.5" y="-634.8" font-family="Times New Roman,serif" font-size="14.00">(parent_index),</text>
<text text-anchor="middle" x="311.5" y="-619.8" font-family="Times New Roman,serif" font-size="14.00">{ downItem=parent{contents{[parent_index]} }</text>
</g>
<!-- _Bnodes{children? -->
<g id="node2" class="node"><title>_Bnodes{children?</title>
<path fill="#ffce9f" stroke="black" d="M1490.7,-411.48C1490.7,-411.48 1383.3,-271.52 1383.3,-271.52 1379.65,-266.76 1379.65,-257.24 1383.3,-252.48 1383.3,-252.48 1490.7,-112.52 1490.7,-112.52 1494.35,-107.76 1501.65,-107.76 1505.3,-112.52 1505.3,-112.52 1612.7,-252.48 1612.7,-252.48 1616.35,-257.24 1616.35,-266.76 1612.7,-271.52 1612.7,-271.52 1505.3,-411.48 1505.3,-411.48 1501.65,-416.24 1494.35,-416.24 1490.7,-411.48"/>
<text text-anchor="middle" x="1498" y="-258.3" font-family="Times New Roman,serif" font-size="14.00">_Bnodes{children?</text>
</g>
<!-- _Bnodes{children{pop() -->
<g id="node7" class="node"><title>_Bnodes{children{pop()</title>
<path fill="#ff5e99" stroke="black" d="M1348,-558.5C1348,-558.5 368,-558.5 368,-558.5 362,-558.5 356,-552.5 356,-546.5 356,-546.5 356,-534.5 356,-534.5 356,-528.5 362,-522.5 368,-522.5 368,-522.5 1348,-522.5 1348,-522.5 1354,-522.5 1360,-528.5 1360,-534.5 1360,-534.5 1360,-546.5 1360,-546.5 1360,-552.5 1354,-558.5 1348,-558.5"/>
<text text-anchor="middle" x="858" y="-536.8" font-family="Times New Roman,serif" font-size="14.00">_Bnodes{children{pop()</text>
</g>
<!-- _Bnodes{children?&#45;&gt;_Bnodes{children{pop() -->
<g id="edge7" class="edge"><title>_Bnodes{children?&#45;&gt;_Bnodes{children{pop()</title>
<path fill="none" stroke="black" d="M1461.4,-373.431C1441.82,-415.453 1413.23,-459.541 1373,-486 1348.96,-501.809 1304.74,-513.057 1251.94,-521.036"/>
<polygon fill="black" stroke="black" points="1251.37,-517.582 1241.98,-522.488 1252.38,-524.508 1251.37,-517.582"/>
<text text-anchor="middle" x="1429" y="-442.8" font-family="Times New Roman,serif" font-size="14.00">Yes</text>
</g>
<!-- end -->
<g id="node9" class="node"><title>end</title>
<ellipse fill="none" stroke="black" cx="1427" cy="-34" rx="27" ry="18"/>
<text text-anchor="middle" x="1427" y="-30.3" font-family="Times New Roman,serif" font-size="14.00">end</text>
</g>
<!-- _Bnodes{children?&#45;&gt;end -->
<g id="edge10" class="edge"><title>_Bnodes{children?&#45;&gt;end</title>
<path fill="none" stroke="black" d="M1462.71,-148.662C1452.48,-116.103 1442.23,-83.4704 1435.35,-61.5776"/>
<polygon fill="black" stroke="black" points="1438.6,-60.2315 1432.26,-51.7403 1431.92,-62.3296 1438.6,-60.2315"/>
<text text-anchor="middle" x="1452.5" y="-73.8" font-family="Times New Roman,serif" font-size="14.00">NO</text>
</g>
<!-- parent{contents{[parent_index]&#45;&gt;_Bnodes{children? -->
<g id="edge6" class="edge"><title>parent{contents{[parent_index]&#45;&gt;_Bnodes{children?</title>
<path fill="none" stroke="black" d="M337.943,-505.098C340.983,-504.706 344.004,-504.339 347,-504 447.819,-492.58 1162.29,-513.336 1260,-486 1331.84,-465.904 1392.76,-407.437 1434.99,-355.413"/>
<polygon fill="black" stroke="black" points="1437.83,-357.456 1441.34,-347.458 1432.36,-353.087 1437.83,-357.456"/>
</g>
<!-- right_sib{contents{insert -->
<g id="node4" class="node"><title>right_sib{contents{insert</title>
<path fill="#ff5e99" stroke="black" d="M182,-280C182,-280 50,-280 50,-280 44,-280 38,-274 38,-268 38,-268 38,-256 38,-256 38,-250 44,-244 50,-244 50,-244 182,-244 182,-244 188,-244 194,-250 194,-256 194,-256 194,-268 194,-268 194,-274 188,-280 182,-280"/>
<text text-anchor="middle" x="116" y="-258.3" font-family="Times New Roman,serif" font-size="14.00">right_sib{contents{insert</text>
</g>
<!-- parent{contents{[parent_index]&#45;&gt;right_sib{contents{insert -->
<g id="edge3" class="edge"><title>parent{contents{[parent_index]&#45;&gt;right_sib{contents{insert</title>
<path fill="none" stroke="black" d="M169.15,-503.919C156.773,-447.816 132.996,-340.039 121.933,-289.891"/>
<polygon fill="black" stroke="black" points="125.346,-289.115 119.773,-280.104 118.51,-290.623 125.346,-289.115"/>
<text text-anchor="middle" x="202" y="-458.8" font-family="Times New Roman,serif" font-size="14.00">(0,downItem)</text>
</g>
<!-- _Bnodes{contents{pop() -->
<g id="node6" class="node"><title>_Bnodes{contents{pop()</title>
<path fill="#ff5e99" stroke="black" d="M186.5,-52C186.5,-52 51.5,-52 51.5,-52 45.5,-52 39.5,-46 39.5,-40 39.5,-40 39.5,-28 39.5,-28 39.5,-22 45.5,-16 51.5,-16 51.5,-16 186.5,-16 186.5,-16 192.5,-16 198.5,-22 198.5,-28 198.5,-28 198.5,-40 198.5,-40 198.5,-46 192.5,-52 186.5,-52"/>
<text text-anchor="middle" x="119" y="-30.3" font-family="Times New Roman,serif" font-size="14.00">_Bnodes{contents{pop()</text>
</g>
<!-- right_sib{contents{insert&#45;&gt;_Bnodes{contents{pop() -->
<g id="edge4" class="edge"><title>right_sib{contents{insert&#45;&gt;_Bnodes{contents{pop()</title>
<path fill="none" stroke="black" d="M113.092,-243.581C107.993,-212.058 97.6355,-143.394 94,-85 93.5858,-78.3462 91.9655,-76.3486 94,-70 95.0027,-66.8711 96.3992,-63.7839 98.0246,-60.8164"/>
<polygon fill="black" stroke="black" points="100.997,-62.6647 103.422,-52.3511 95.0948,-58.9012 100.997,-62.6647"/>
<text text-anchor="middle" x="199" y="-73.8" font-family="Times New Roman,serif" font-size="14.00">(0,upItem=_Bnodes{contents{pop())</text>
</g>
<!-- right_sib{children{insert -->
<g id="node5" class="node"><title>right_sib{children{insert</title>
<path fill="#ff5e99" stroke="black" d="M1168.5,-280C1168.5,-280 1039.5,-280 1039.5,-280 1033.5,-280 1027.5,-274 1027.5,-268 1027.5,-268 1027.5,-256 1027.5,-256 1027.5,-250 1033.5,-244 1039.5,-244 1039.5,-244 1168.5,-244 1168.5,-244 1174.5,-244 1180.5,-250 1180.5,-256 1180.5,-256 1180.5,-268 1180.5,-268 1180.5,-274 1174.5,-280 1168.5,-280"/>
<text text-anchor="middle" x="1104" y="-258.3" font-family="Times New Roman,serif" font-size="14.00">right_sib{children{insert</text>
</g>
<!-- right_sib{children{insert&#45;&gt;end -->
<g id="edge9" class="edge"><title>right_sib{children{insert&#45;&gt;end</title>
<path fill="none" stroke="black" d="M1128.54,-243.828C1188.04,-202.199 1339.55,-96.1854 1400.76,-53.3604"/>
<polygon fill="black" stroke="black" points="1402.93,-56.1164 1409.11,-47.5157 1398.91,-50.3809 1402.93,-56.1164"/>
</g>
<!-- _Bnodes{contents{pop()&#45;&gt;parent{contents{[parent_index] -->
<g id="edge5" class="edge"><title>_Bnodes{contents{pop()&#45;&gt;parent{contents{[parent_index]</title>
<path fill="none" stroke="black" d="M198.729,-40.1193C242.4,-44.7683 290.366,-53.5447 304,-70 423.181,-213.843 337.263,-324.145 244,-486 241.968,-489.527 239.606,-492.91 237.007,-496.141"/>
<polygon fill="black" stroke="black" points="234.168,-494.065 230.113,-503.852 239.387,-498.73 234.168,-494.065"/>
<text text-anchor="middle" x="475" y="-258.3" font-family="Times New Roman,serif" font-size="14.00">parent{contents{[parent_index]=upItem</text>
</g>
<!-- _Bnodes{children{pop()&#45;&gt;right_sib{children{insert -->
<g id="edge8" class="edge"><title>_Bnodes{children{pop()&#45;&gt;right_sib{children{insert</title>
<path fill="none" stroke="black" d="M873.388,-522.204C915.496,-474.876 1032.73,-343.103 1081.88,-287.865"/>
<polygon fill="black" stroke="black" points="1084.59,-290.087 1088.62,-280.29 1079.36,-285.434 1084.59,-290.087"/>
<text text-anchor="middle" x="1100.5" y="-458.8" font-family="Times New Roman,serif" font-size="14.00"> right_sib{children{insert( 0,_Bnodes{children{pop() ) </text>
</g>
<!-- start -->
<g id="node8" class="node"><title>start</title>
<ellipse fill="none" stroke="black" cx="177" cy="-769" rx="27" ry="18"/>
<text text-anchor="middle" x="177" y="-765.3" font-family="Times New Roman,serif" font-size="14.00">start</text>
</g>
<!-- start&#45;&gt;_Bnodes{lateral_right -->
<g id="edge1" class="edge"><title>start&#45;&gt;_Bnodes{lateral_right</title>
<path fill="none" stroke="black" d="M177,-750.799C177,-739.163 177,-723.548 177,-710.237"/>
<polygon fill="black" stroke="black" points="180.5,-710.175 177,-700.175 173.5,-710.175 180.5,-710.175"/>
<text text-anchor="middle" x="263" y="-721.8" font-family="Times New Roman,serif" font-size="14.00">(parent,parent_index,right_sib)</text>
</g>
</g>
</svg>
