<?xml version="1.0" encoding="UTF-8" standalone="no"?>
<!DOCTYPE svg PUBLIC "-//W3C//DTD SVG 1.1//EN"
 "http://www.w3.org/Graphics/SVG/1.1/DTD/svg11.dtd">
<!-- Generated by graphviz version 2.38.0 (20140413.2041)
 -->
<!-- Title: %3 Pages: 1 -->
<svg width="1835pt" height="1162pt"
 viewBox="0.00 0.00 1834.82 1162.00" xmlns="http://www.w3.org/2000/svg" xmlns:xlink="http://www.w3.org/1999/xlink">
<g id="graph0" class="graph" transform="scale(1 1) rotate(0) translate(4 1158)">
<title>%3</title>
<polygon fill="white" stroke="none" points="-4,4 -4,-1158 1830.82,-1158 1830.82,4 -4,4"/>
<!-- []{insert -->
<g id="node1" class="node"><title>[]{insert</title>
<path fill="#ff5e99" stroke="black" d="M1223.82,-1154C1223.82,-1154 1185.82,-1154 1185.82,-1154 1179.82,-1154 1173.82,-1148 1173.82,-1142 1173.82,-1142 1173.82,-1130 1173.82,-1130 1173.82,-1124 1179.82,-1118 1185.82,-1118 1185.82,-1118 1223.82,-1118 1223.82,-1118 1229.82,-1118 1235.82,-1124 1235.82,-1130 1235.82,-1130 1235.82,-1142 1235.82,-1142 1235.82,-1148 1229.82,-1154 1223.82,-1154"/>
<text text-anchor="middle" x="1204.82" y="-1132.3" font-family="Times New Roman,serif" font-size="14.00">[]{insert</text>
</g>
<!-- len(parent{contents) &gt; parent{tree{order -->
<g id="node16" class="node"><title>len(parent{contents) &gt; parent{tree{order</title>
<path fill="#ffce9f" stroke="black" d="M890.856,-1066.04C890.856,-1066.04 690.73,-1049.96 690.73,-1049.96 684.749,-1049.48 684.749,-1048.52 690.73,-1048.04 690.73,-1048.04 890.856,-1031.96 890.856,-1031.96 896.837,-1031.48 908.798,-1031.48 914.779,-1031.96 914.779,-1031.96 1114.91,-1048.04 1114.91,-1048.04 1120.89,-1048.52 1120.89,-1049.48 1114.91,-1049.96 1114.91,-1049.96 914.779,-1066.04 914.779,-1066.04 908.798,-1066.52 896.837,-1066.52 890.856,-1066.04"/>
<text text-anchor="middle" x="902.818" y="-1045.3" font-family="Times New Roman,serif" font-size="14.00">len(parent{contents) &gt; parent{tree{order</text>
</g>
<!-- []{insert&#45;&gt;len(parent{contents) &gt; parent{tree{order -->
<g id="edge21" class="edge"><title>[]{insert&#45;&gt;len(parent{contents) &gt; parent{tree{order</title>
<path fill="none" stroke="#ffaaaa" d="M1173.64,-1126.22C1123.21,-1112.03 1023.03,-1083.83 959.663,-1066"/>
<polygon fill="#ffaaaa" stroke="#ffaaaa" points="960.397,-1062.57 949.823,-1063.23 958.5,-1069.31 960.397,-1062.57"/>
</g>
<!-- _Bnodes{children -->
<g id="node17" class="node"><title>_Bnodes{children</title>
<ellipse fill="none" stroke="black" cx="1221.82" cy="-1049" rx="76.8869" ry="18"/>
<text text-anchor="middle" x="1221.82" y="-1045.3" font-family="Times New Roman,serif" font-size="14.00">_Bnodes{children</text>
</g>
<!-- []{insert&#45;&gt;_Bnodes{children -->
<g id="edge19" class="edge"><title>[]{insert&#45;&gt;_Bnodes{children</title>
<path fill="none" stroke="#aaffaa" d="M1201.71,-1117.62C1200.57,-1107.89 1200.12,-1095.61 1202.82,-1085 1203.58,-1082.01 1204.65,-1079.01 1205.9,-1076.08"/>
<polygon fill="#aaffaa" stroke="#aaffaa" points="1209.04,-1077.61 1210.34,-1067.1 1202.77,-1074.51 1209.04,-1077.61"/>
</g>
<!-- _Bnodes{tree{BRANCH -->
<g id="node2" class="node"><title>_Bnodes{tree{BRANCH</title>
<path fill="#00e599" stroke="black" d="M1250.45,-109C1250.45,-109 1034.83,-109 1034.83,-109 1028.83,-109 1017.65,-105.974 1012.47,-102.948 1012.47,-102.948 971.551,-79.0518 971.551,-79.0518 966.37,-76.0259 967.189,-73 973.189,-73 973.189,-73 1188.81,-73 1188.81,-73 1194.81,-73 1205.99,-76.0259 1211.17,-79.0518 1211.17,-79.0518 1252.08,-102.948 1252.08,-102.948 1257.27,-105.974 1256.45,-109 1250.45,-109"/>
<text text-anchor="middle" x="1111.82" y="-87.3" font-family="Times New Roman,serif" font-size="14.00">_Bnodes{tree{BRANCH</text>
</g>
<!-- _Bnodes{contents -->
<g id="node4" class="node"><title>_Bnodes{contents</title>
<path fill="#00e599" stroke="black" d="M1342.93,-36C1342.93,-36 1183.81,-36 1183.81,-36 1177.81,-36 1167.05,-32.3567 1162.28,-28.7135 1162.28,-28.7135 1134.24,-7.28652 1134.24,-7.28652 1129.47,-3.64326 1130.71,-2.08506e-014 1136.71,-2.0385e-014 1136.71,-2.0385e-014 1295.82,-8.03669e-015 1295.82,-8.03669e-015 1301.82,-7.57106e-015 1312.59,-3.64326 1317.36,-7.28652 1317.36,-7.28652 1345.39,-28.7135 1345.39,-28.7135 1350.16,-32.3567 1348.93,-36 1342.93,-36"/>
<text text-anchor="middle" x="1239.82" y="-14.3" font-family="Times New Roman,serif" font-size="14.00">_Bnodes{contents</text>
</g>
<!-- _Bnodes{tree{BRANCH&#45;&gt;_Bnodes{contents -->
<g id="edge16" class="edge"><title>_Bnodes{tree{BRANCH&#45;&gt;_Bnodes{contents</title>
<path fill="none" stroke="#aaffaa" d="M1142.48,-72.9937C1159.77,-63.4042 1181.56,-51.3167 1200.14,-41.0109"/>
<polygon fill="#aaffaa" stroke="#aaffaa" points="1201.92,-44.0249 1208.97,-36.1136 1198.52,-37.9036 1201.92,-44.0249"/>
</g>
<!-- _Bnodes{tree -->
<g id="node3" class="node"><title>_Bnodes{tree</title>
<path fill="#00e599" stroke="black" d="M1421.47,-1154C1421.47,-1154 1302.85,-1154 1302.85,-1154 1296.85,-1154 1286.57,-1149.8 1282.29,-1145.6 1282.29,-1145.6 1262.73,-1126.4 1262.73,-1126.4 1258.45,-1122.2 1260.17,-1118 1266.17,-1118 1266.17,-1118 1384.78,-1118 1384.78,-1118 1390.78,-1118 1401.06,-1122.2 1405.35,-1126.4 1405.35,-1126.4 1424.91,-1145.6 1424.91,-1145.6 1429.19,-1149.8 1427.47,-1154 1421.47,-1154"/>
<text text-anchor="middle" x="1343.82" y="-1132.3" font-family="Times New Roman,serif" font-size="14.00">_Bnodes{tree</text>
</g>
<!-- _Bnodes{contents&#45;&gt;[]{insert -->
<g id="edge18" class="edge"><title>_Bnodes{contents&#45;&gt;[]{insert</title>
<path fill="none" stroke="#00ffaa" d="M1325.93,-36.0307C1351.5,-46.4442 1372.82,-63.1712 1372.82,-90 1372.82,-1050 1372.82,-1050 1372.82,-1050 1372.82,-1073.62 1372.98,-1084.9 1354.82,-1100 1319.03,-1129.76 1295.4,-1107.32 1245.9,-1118.34"/>
<polygon fill="#00ffaa" stroke="#00ffaa" points="1244.8,-1115.01 1236,-1120.91 1246.56,-1121.78 1244.8,-1115.01"/>
<text text-anchor="middle" x="1599.82" y="-580.8" font-family="Times New Roman,serif" font-size="14.00">(index=parent_index,push) </text>
<text text-anchor="middle" x="1599.82" y="-565.8" font-family="Times New Roman,serif" font-size="14.00"> {parent=_Bnodes{tree{BRANCH,parent_index=0,_Bnodes{tree{_root=parent}</text>
</g>
<!-- _Bnodes{split -->
<g id="node5" class="node"><title>_Bnodes{split</title>
<path fill="#ffe599" stroke="black" d="M286.318,-283C286.318,-283 213.318,-283 213.318,-283 207.318,-283 201.318,-277 201.318,-271 201.318,-271 201.318,-259 201.318,-259 201.318,-253 207.318,-247 213.318,-247 213.318,-247 286.318,-247 286.318,-247 292.318,-247 298.318,-253 298.318,-259 298.318,-259 298.318,-271 298.318,-271 298.318,-277 292.318,-283 286.318,-283"/>
<text text-anchor="middle" x="249.818" y="-261.3" font-family="Times New Roman,serif" font-size="14.00">_Bnodes{split</text>
</g>
<!-- parent? -->
<g id="node12" class="node"><title>parent?</title>
<path fill="#ffce9f" stroke="black" d="M675.471,-192.094C675.471,-192.094 645.88,-181.906 645.88,-181.906 640.207,-179.953 640.207,-176.047 645.88,-174.094 645.88,-174.094 675.471,-163.906 675.471,-163.906 681.145,-161.953 692.491,-161.953 698.164,-163.906 698.164,-163.906 727.755,-174.094 727.755,-174.094 733.429,-176.047 733.429,-179.953 727.755,-181.906 727.755,-181.906 698.164,-192.094 698.164,-192.094 692.491,-194.047 681.145,-194.047 675.471,-192.094"/>
<text text-anchor="middle" x="686.818" y="-174.3" font-family="Times New Roman,serif" font-size="14.00">parent?</text>
</g>
<!-- _Bnodes{split&#45;&gt;parent? -->
<g id="edge14" class="edge"><title>_Bnodes{split&#45;&gt;parent?</title>
<path fill="none" stroke="#00ff00" d="M298.675,-254.497C385.285,-237.651 564.234,-202.844 645.297,-187.076"/>
<polygon fill="#00ff00" stroke="#00ff00" points="645.998,-190.505 655.146,-185.16 644.661,-183.634 645.998,-190.505"/>
<text text-anchor="middle" x="575.818" y="-217.8" font-family="Times New Roman,serif" font-size="14.00">sibling,push=_Bnodes.split()</text>
</g>
<!-- _Bnodes{insert -->
<g id="node6" class="node"><title>_Bnodes{insert</title>
<path fill="#ffe599" stroke="black" d="M942.818,-980C942.818,-980 862.818,-980 862.818,-980 856.818,-980 850.818,-974 850.818,-968 850.818,-968 850.818,-956 850.818,-956 850.818,-950 856.818,-944 862.818,-944 862.818,-944 942.818,-944 942.818,-944 948.818,-944 954.818,-950 954.818,-956 954.818,-956 954.818,-968 954.818,-968 954.818,-974 948.818,-980 942.818,-980"/>
<text text-anchor="middle" x="902.818" y="-958.3" font-family="Times New Roman,serif" font-size="14.00">_Bnodes{insert</text>
</g>
<!-- _Bnodes{insert&#45;&gt;_Bnodes{contents -->
<g id="edge3" class="edge"><title>_Bnodes{insert&#45;&gt;_Bnodes{contents</title>
<path fill="none" stroke="#00ff00" d="M955.145,-956.799C1061.05,-947.59 1290.82,-923.726 1290.82,-890 1290.82,-890 1290.82,-890 1290.82,-90 1290.82,-72.2787 1280.21,-55.9524 1268.67,-43.4352"/>
<polygon fill="#00ff00" stroke="#00ff00" points="1270.97,-40.791 1261.45,-36.1554 1266,-45.7203 1270.97,-40.791"/>
<text text-anchor="middle" x="1324.32" y="-478.8" font-family="Times New Roman,serif" font-size="14.00">(index,item)</text>
</g>
<!-- len(_Bnodes{contents) &gt; _Bnodes{tree{order -->
<g id="node9" class="node"><title>len(_Bnodes{contents) &gt; _Bnodes{tree{order</title>
<path fill="#ffce9f" stroke="black" d="M888.848,-906.147C888.848,-906.147 660.251,-889.853 660.251,-889.853 654.266,-889.427 654.266,-888.573 660.251,-888.147 660.251,-888.147 888.848,-871.853 888.848,-871.853 894.833,-871.427 906.803,-871.427 912.787,-871.853 912.787,-871.853 1141.38,-888.147 1141.38,-888.147 1147.37,-888.573 1147.37,-889.427 1141.38,-889.853 1141.38,-889.853 912.787,-906.147 912.787,-906.147 906.803,-906.573 894.833,-906.573 888.848,-906.147"/>
<text text-anchor="middle" x="900.818" y="-885.3" font-family="Times New Roman,serif" font-size="14.00">len(_Bnodes{contents) &gt; _Bnodes{tree{order</text>
</g>
<!-- _Bnodes{insert&#45;&gt;len(_Bnodes{contents) &gt; _Bnodes{tree{order -->
<g id="edge1" class="edge"><title>_Bnodes{insert&#45;&gt;len(_Bnodes{contents) &gt; _Bnodes{tree{order</title>
<path fill="none" stroke="#00ff00" d="M902.334,-943.813C902.108,-935.789 901.833,-926.047 901.58,-917.069"/>
<polygon fill="#00ff00" stroke="#00ff00" points="905.078,-916.926 901.297,-907.029 898.08,-917.123 905.078,-916.926"/>
</g>
<!-- _Bnodes{shrink -->
<g id="node7" class="node"><title>_Bnodes{shrink</title>
<path fill="#ffe599" stroke="black" d="M941.318,-820C941.318,-820 858.318,-820 858.318,-820 852.318,-820 846.318,-814 846.318,-808 846.318,-808 846.318,-796 846.318,-796 846.318,-790 852.318,-784 858.318,-784 858.318,-784 941.318,-784 941.318,-784 947.318,-784 953.318,-790 953.318,-796 953.318,-796 953.318,-808 953.318,-808 953.318,-814 947.318,-820 941.318,-820"/>
<text text-anchor="middle" x="899.818" y="-798.3" font-family="Times New Roman,serif" font-size="14.00">_Bnodes{shrink</text>
</g>
<!-- ancestors? -->
<g id="node10" class="node"><title>ancestors?</title>
<path fill="#ffce9f" stroke="black" d="M888.199,-730C888.199,-730 841.724,-718 841.724,-718 835.915,-716.5 835.915,-713.5 841.724,-712 841.724,-712 888.199,-700 888.199,-700 894.008,-698.5 905.627,-698.5 911.437,-700 911.437,-700 957.911,-712 957.911,-712 963.72,-713.5 963.72,-716.5 957.911,-718 957.911,-718 911.437,-730 911.437,-730 905.627,-731.5 894.008,-731.5 888.199,-730"/>
<text text-anchor="middle" x="899.818" y="-711.3" font-family="Times New Roman,serif" font-size="14.00">ancestors?</text>
</g>
<!-- _Bnodes{shrink&#45;&gt;ancestors? -->
<g id="edge4" class="edge"><title>_Bnodes{shrink&#45;&gt;ancestors?</title>
<path fill="none" stroke="#00ff00" d="M899.818,-783.799C899.818,-772.163 899.818,-756.548 899.818,-743.237"/>
<polygon fill="#00ff00" stroke="#00ff00" points="903.318,-743.175 899.818,-733.175 896.318,-743.175 903.318,-743.175"/>
<text text-anchor="middle" x="940.318" y="-754.8" font-family="Times New Roman,serif" font-size="14.00">parent = None</text>
</g>
<!-- _Bnodes{lateral -->
<g id="node8" class="node"><title>_Bnodes{lateral</title>
<path fill="#ffe599" stroke="black" d="M739.818,-283C739.818,-283 657.818,-283 657.818,-283 651.818,-283 645.818,-277 645.818,-271 645.818,-271 645.818,-259 645.818,-259 645.818,-253 651.818,-247 657.818,-247 657.818,-247 739.818,-247 739.818,-247 745.818,-247 751.818,-253 751.818,-259 751.818,-259 751.818,-271 751.818,-271 751.818,-277 745.818,-283 739.818,-283"/>
<text text-anchor="middle" x="698.818" y="-261.3" font-family="Times New Roman,serif" font-size="14.00">_Bnodes{lateral</text>
</g>
<!-- len(_Bnodes{contents) &gt; _Bnodes{tree{order&#45;&gt;_Bnodes{shrink -->
<g id="edge2" class="edge"><title>len(_Bnodes{contents) &gt; _Bnodes{tree{order&#45;&gt;_Bnodes{shrink</title>
<path fill="none" stroke="#00ff00" d="M900.615,-870.799C900.478,-859.163 900.295,-843.548 900.138,-830.237"/>
<polygon fill="#00ff00" stroke="#00ff00" points="903.637,-830.134 900.02,-820.175 896.638,-830.216 903.637,-830.134"/>
<text text-anchor="middle" x="944.818" y="-841.8" font-family="Times New Roman,serif" font-size="14.00">Yes (ancestors)</text>
</g>
<!-- parent_index? -->
<g id="node11" class="node"><title>parent_index?</title>
<path fill="#ffce9f" stroke="black" d="M888.066,-643.572C888.066,-643.572 824.429,-630.428 824.429,-630.428 818.553,-629.214 818.553,-626.786 824.429,-625.572 824.429,-625.572 888.066,-612.428 888.066,-612.428 893.942,-611.214 905.694,-611.214 911.57,-612.428 911.57,-612.428 975.206,-625.572 975.206,-625.572 981.082,-626.786 981.082,-629.214 975.206,-630.428 975.206,-630.428 911.57,-643.572 911.57,-643.572 905.694,-644.786 893.942,-644.786 888.066,-643.572"/>
<text text-anchor="middle" x="899.818" y="-624.3" font-family="Times New Roman,serif" font-size="14.00">parent_index?</text>
</g>
<!-- ancestors?&#45;&gt;parent_index? -->
<g id="edge5" class="edge"><title>ancestors?&#45;&gt;parent_index?</title>
<path fill="none" stroke="#00ff00" d="M899.818,-696.799C899.818,-685.163 899.818,-669.548 899.818,-656.237"/>
<polygon fill="#00ff00" stroke="#00ff00" points="903.318,-656.175 899.818,-646.175 896.318,-656.175 903.318,-656.175"/>
<text text-anchor="middle" x="1026.32" y="-667.8" font-family="Times New Roman,serif" font-size="14.00">Yes (parent, parent_index = ancestors.pop())</text>
</g>
<!-- len(left_sib{contents) &lt; _Bnodes{tree{order -->
<g id="node13" class="node"><title>len(left_sib{contents) &lt; _Bnodes{tree{order</title>
<path fill="#ffce9f" stroke="black" d="M887.85,-543.119C887.85,-543.119 667.294,-526.881 667.294,-526.881 661.31,-526.441 661.31,-525.559 667.294,-525.119 667.294,-525.119 887.85,-508.881 887.85,-508.881 893.834,-508.441 905.802,-508.441 911.785,-508.881 911.785,-508.881 1132.34,-525.119 1132.34,-525.119 1138.33,-525.559 1138.33,-526.441 1132.34,-526.881 1132.34,-526.881 911.785,-543.119 911.785,-543.119 905.802,-543.559 893.834,-543.559 887.85,-543.119"/>
<text text-anchor="middle" x="899.818" y="-522.3" font-family="Times New Roman,serif" font-size="14.00">len(left_sib{contents) &lt; _Bnodes{tree{order</text>
</g>
<!-- parent_index?&#45;&gt;len(left_sib{contents) &lt; _Bnodes{tree{order -->
<g id="edge8" class="edge"><title>parent_index?&#45;&gt;len(left_sib{contents) &lt; _Bnodes{tree{order</title>
<path fill="none" stroke="#00ff00" d="M899.818,-609.581C899.818,-594.382 899.818,-572.067 899.818,-554.464"/>
<polygon fill="#00ff00" stroke="#00ff00" points="903.318,-554.219 899.818,-544.219 896.318,-554.219 903.318,-554.219"/>
<text text-anchor="middle" x="1038.32" y="-573.3" font-family="Times New Roman,serif" font-size="14.00">Yes (left_sib = parent{children[parent_index &#45; 1])</text>
</g>
<!-- parent_index + 1 &lt; len(parent{children) -->
<g id="node15" class="node"><title>parent_index + 1 &lt; len(parent{children)</title>
<path fill="#ffce9f" stroke="black" d="M430.859,-456.011C430.859,-456.011 237.096,-439.989 237.096,-439.989 231.117,-439.494 231.117,-438.506 237.096,-438.011 237.096,-438.011 430.859,-421.989 430.859,-421.989 436.838,-421.494 448.797,-421.494 454.777,-421.989 454.777,-421.989 648.539,-438.011 648.539,-438.011 654.519,-438.506 654.519,-439.494 648.539,-439.989 648.539,-439.989 454.777,-456.011 454.777,-456.011 448.797,-456.506 436.838,-456.506 430.859,-456.011"/>
<text text-anchor="middle" x="442.818" y="-435.3" font-family="Times New Roman,serif" font-size="14.00">parent_index + 1 &lt; len(parent{children)</text>
</g>
<!-- parent_index?&#45;&gt;parent_index + 1 &lt; len(parent{children) -->
<g id="edge6" class="edge"><title>parent_index?&#45;&gt;parent_index + 1 &lt; len(parent{children)</title>
<path fill="none" stroke="#00ff00" d="M822.276,-625.991C694.572,-622.505 448.73,-607.497 394.818,-544 374.439,-519.999 397.629,-485.904 418.29,-463.382"/>
<polygon fill="#00ff00" stroke="#00ff00" points="421.033,-465.579 425.417,-455.934 415.975,-460.739 421.033,-465.579"/>
<text text-anchor="middle" x="520.818" y="-522.3" font-family="Times New Roman,serif" font-size="14.00">NO (parent, parent_index = ancestors.pop())</text>
</g>
<!-- parent?&#45;&gt;_Bnodes{tree{BRANCH -->
<g id="edge15" class="edge"><title>parent?&#45;&gt;_Bnodes{tree{BRANCH</title>
<path fill="none" stroke="#00ff00" d="M718.069,-170.75C780.185,-158.327 921.387,-130.086 1016.69,-111.025"/>
<polygon fill="#00ff00" stroke="#00ff00" points="1017.51,-114.43 1026.63,-109.037 1016.14,-107.566 1017.51,-114.43"/>
<text text-anchor="middle" x="1052.32" y="-130.8" font-family="Times New Roman,serif" font-size="14.00">NO (tree=_Bnodes{tree,children=[_Bnodes])</text>
</g>
<!-- parent?&#45;&gt;_Bnodes{contents -->
<g id="edge17" class="edge"><title>parent?&#45;&gt;_Bnodes{contents</title>
<path fill="none" stroke="#aaffaa" d="M682.666,-161.082C677.759,-138.198 672.897,-96.2119 695.818,-73 726.538,-41.8901 994.879,-27.5881 1142.85,-22.0157"/>
<polygon fill="#aaffaa" stroke="#aaffaa" points="1142.99,-25.5129 1152.86,-21.6453 1142.73,-18.5177 1142.99,-25.5129"/>
<text text-anchor="middle" x="823.818" y="-87.3" font-family="Times New Roman,serif" font-size="14.00">Yes (tree=_Bnodes{tree,children=[_Bnodes])</text>
</g>
<!-- len(left_sib{contents) &lt; _Bnodes{tree{order&#45;&gt;_Bnodes{lateral -->
<g id="edge9" class="edge"><title>len(left_sib{contents) &lt; _Bnodes{tree{order&#45;&gt;_Bnodes{lateral</title>
<path fill="none" stroke="#00ff00" d="M899.774,-507.739C899.486,-457.898 897.463,-316.322 883.818,-301 867.818,-283.033 809.053,-274.157 761.992,-269.856"/>
<polygon fill="#00ff00" stroke="#00ff00" points="762.107,-266.353 751.843,-268.982 761.506,-273.328 762.107,-266.353"/>
<text text-anchor="middle" x="1086.82" y="-391.8" font-family="Times New Roman,serif" font-size="14.00">Yes (parent,parent_index,dest=left_sib,dest_index=parent_index&#45;1)</text>
</g>
<!-- len(left_sib{contents) &lt; _Bnodes{tree{order&#45;&gt;parent_index + 1 &lt; len(parent{children) -->
<g id="edge7" class="edge"><title>len(left_sib{contents) &lt; _Bnodes{tree{order&#45;&gt;parent_index + 1 &lt; len(parent{children)</title>
<path fill="none" stroke="#00ff00" d="M801.313,-515.209C750.446,-509.378 687.527,-500.959 631.818,-490 585.808,-480.949 534.414,-467.105 496.847,-456.277"/>
<polygon fill="#00ff00" stroke="#00ff00" points="497.7,-452.881 487.121,-453.452 495.748,-459.603 497.7,-452.881"/>
<text text-anchor="middle" x="757.818" y="-478.8" font-family="Times New Roman,serif" font-size="14.00">NO (parent, parent_index = ancestors.pop())</text>
</g>
<!-- len(right_sib{contents) &lt; _Bnodes{tree{order -->
<g id="node14" class="node"><title>len(right_sib{contents) &lt; _Bnodes{tree{order</title>
<path fill="#ffce9f" stroke="black" d="M488.848,-369.144C488.848,-369.144 261.089,-352.856 261.089,-352.856 255.104,-352.428 255.104,-351.572 261.089,-351.144 261.089,-351.144 488.848,-334.856 488.848,-334.856 494.833,-334.428 506.802,-334.428 512.787,-334.856 512.787,-334.856 740.547,-351.144 740.547,-351.144 746.531,-351.572 746.531,-352.428 740.547,-352.856 740.547,-352.856 512.787,-369.144 512.787,-369.144 506.802,-369.572 494.833,-369.572 488.848,-369.144"/>
<text text-anchor="middle" x="500.818" y="-348.3" font-family="Times New Roman,serif" font-size="14.00">len(right_sib{contents) &lt; _Bnodes{tree{order</text>
</g>
<!-- len(right_sib{contents) &lt; _Bnodes{tree{order&#45;&gt;_Bnodes{split -->
<g id="edge13" class="edge"><title>len(right_sib{contents) &lt; _Bnodes{tree{order&#45;&gt;_Bnodes{split</title>
<path fill="none" stroke="#00ff00" d="M365.585,-343.648C321.597,-338.632 279.929,-330.194 263.818,-316 257.278,-310.239 253.681,-301.697 251.737,-293.297"/>
<polygon fill="#00ff00" stroke="#00ff00" points="255.172,-292.618 250.099,-283.317 248.265,-293.752 255.172,-292.618"/>
<text text-anchor="middle" x="377.818" y="-304.8" font-family="Times New Roman,serif" font-size="14.00">No (center = len(_Bnodes.contents) // 2)</text>
</g>
<!-- len(right_sib{contents) &lt; _Bnodes{tree{order&#45;&gt;_Bnodes{lateral -->
<g id="edge11" class="edge"><title>len(right_sib{contents) &lt; _Bnodes{tree{order&#45;&gt;_Bnodes{lateral</title>
<path fill="none" stroke="#00ff00" d="M496.212,-334.256C494.341,-323.524 494.144,-309.974 501.818,-301 518.873,-281.056 584.418,-272.462 635.275,-268.768"/>
<polygon fill="#00ff00" stroke="#00ff00" points="635.815,-272.239 645.556,-268.072 635.343,-265.255 635.815,-272.239"/>
<text text-anchor="middle" x="692.818" y="-304.8" font-family="Times New Roman,serif" font-size="14.00">Yes (parent,parent_index,dest=left_sib,dest_index=parent_index+1)</text>
</g>
<!-- parent_index + 1 &lt; len(parent{children)&#45;&gt;_Bnodes{split -->
<g id="edge12" class="edge"><title>parent_index + 1 &lt; len(parent{children)&#45;&gt;_Bnodes{split</title>
<path fill="none" stroke="#00ff00" d="M285.309,-434C177.138,-427.539 46.9751,-411.139 11.8177,-370 -42.0755,-306.937 104.394,-280.804 191.089,-271.09"/>
<polygon fill="#00ff00" stroke="#00ff00" points="191.523,-274.563 201.09,-270.012 190.773,-267.604 191.523,-274.563"/>
<text text-anchor="middle" x="125.818" y="-348.3" font-family="Times New Roman,serif" font-size="14.00">No (center = len(_Bnodes.contents) // 2)</text>
</g>
<!-- parent_index + 1 &lt; len(parent{children)&#45;&gt;len(right_sib{contents) &lt; _Bnodes{tree{order -->
<g id="edge10" class="edge"><title>parent_index + 1 &lt; len(parent{children)&#45;&gt;len(right_sib{contents) &lt; _Bnodes{tree{order</title>
<path fill="none" stroke="#00ff00" d="M454.001,-421.611C462.506,-409.147 474.349,-391.79 483.996,-377.652"/>
<polygon fill="#00ff00" stroke="#00ff00" points="486.924,-379.572 489.669,-369.339 481.142,-375.626 486.924,-379.572"/>
<text text-anchor="middle" x="620.318" y="-391.8" font-family="Times New Roman,serif" font-size="14.00">Yes (right_sib = parent{children[parent_index + 1])</text>
</g>
<!-- len(parent{contents) &gt; parent{tree{order&#45;&gt;_Bnodes{insert -->
<g id="edge22" class="edge"><title>len(parent{contents) &gt; parent{tree{order&#45;&gt;_Bnodes{insert</title>
<path fill="none" stroke="#ffaaaa" d="M902.818,-1030.8C902.818,-1019.16 902.818,-1003.55 902.818,-990.237"/>
<polygon fill="#ffaaaa" stroke="#ffaaaa" points="906.318,-990.175 902.818,-980.175 899.318,-990.175 906.318,-990.175"/>
<text text-anchor="middle" x="946.818" y="-1001.8" font-family="Times New Roman,serif" font-size="14.00">Yes (ancestors)</text>
</g>
<!-- _Bnodes{children&#45;&gt;[]{insert -->
<g id="edge20" class="edge"><title>_Bnodes{children&#45;&gt;[]{insert</title>
<path fill="none" stroke="#ffaaaa" d="M1218.38,-1067.18C1216.06,-1078.81 1212.93,-1094.42 1210.27,-1107.73"/>
<polygon fill="#ffaaaa" stroke="#ffaaaa" points="1206.79,-1107.31 1208.26,-1117.8 1213.65,-1108.68 1206.79,-1107.31"/>
<text text-anchor="middle" x="1282.82" y="-1088.8" font-family="Times New Roman,serif" font-size="14.00">(parent_index+1,sibling)</text>
</g>
</g>
</svg>
