<?xml version="1.0" encoding="UTF-8" standalone="no"?>
<!DOCTYPE svg PUBLIC "-//W3C//DTD SVG 1.1//EN"
 "http://www.w3.org/Graphics/SVG/1.1/DTD/svg11.dtd">
<!-- Generated by graphviz version 2.38.0 (20140413.2041)
 -->
<!-- Title: %3 Pages: 1 -->
<svg width="2321pt" height="669pt"
 viewBox="0.00 0.00 2320.50 669.00" xmlns="http://www.w3.org/2000/svg" xmlns:xlink="http://www.w3.org/1999/xlink">
<g id="graph0" class="graph" transform="scale(1 1) rotate(0) translate(4 665)">
<title>%3</title>
<polygon fill="white" stroke="none" points="-4,4 -4,-665 2316.5,-665 2316.5,4 -4,4"/>
<!-- _Bnodes{tree -->
<g id="node1" class="node"><title>_Bnodes{tree</title>
<path fill="#00e599" stroke="black" d="M1388.65,-487C1388.65,-487 1270.04,-487 1270.04,-487 1264.04,-487 1253.75,-482.798 1249.47,-478.595 1249.47,-478.595 1229.91,-459.405 1229.91,-459.405 1225.63,-455.202 1227.35,-451 1233.35,-451 1233.35,-451 1351.96,-451 1351.96,-451 1357.96,-451 1368.25,-455.202 1372.53,-459.405 1372.53,-459.405 1392.09,-478.595 1392.09,-478.595 1396.37,-482.798 1394.65,-487 1388.65,-487"/>
<text text-anchor="middle" x="1311" y="-465.3" font-family="Times New Roman,serif" font-size="14.00">_Bnodes{tree</text>
</g>
<!-- _Bnodes{contents -->
<g id="node2" class="node"><title>_Bnodes{contents</title>
<path fill="#00e599" stroke="black" d="M1414.11,-414C1414.11,-414 1254.99,-414 1254.99,-414 1248.99,-414 1238.23,-410.357 1233.46,-406.713 1233.46,-406.713 1205.42,-385.287 1205.42,-385.287 1200.66,-381.643 1201.89,-378 1207.89,-378 1207.89,-378 1367.01,-378 1367.01,-378 1373.01,-378 1383.77,-381.643 1388.54,-385.287 1388.54,-385.287 1416.58,-406.713 1416.58,-406.713 1421.34,-410.357 1420.11,-414 1414.11,-414"/>
<text text-anchor="middle" x="1311" y="-392.3" font-family="Times New Roman,serif" font-size="14.00">_Bnodes{contents</text>
</g>
<!-- _Bnodes{tree&#45;&gt;_Bnodes{contents -->
<g id="edge3" class="edge"><title>_Bnodes{tree&#45;&gt;_Bnodes{contents</title>
<path fill="none" stroke="black" d="M1311,-450.813C1311,-442.789 1311,-433.047 1311,-424.069"/>
<polygon fill="black" stroke="black" points="1314.5,-424.029 1311,-414.029 1307.5,-424.029 1314.5,-424.029"/>
</g>
<!-- _Bnodes{contents&#45;&gt;_Bnodes{contents -->
<g id="edge4" class="edge"><title>_Bnodes{contents&#45;&gt;_Bnodes{contents</title>
<path fill="none" stroke="#ffaa88" d="M1411.28,-402.438C1430.61,-401.679 1444.31,-399.533 1444.31,-396 1444.31,-392.047 1427.16,-389.83 1404.17,-389.35"/>
<polygon fill="#ffaa88" stroke="#ffaa88" points="1404.02,-385.848 1393.99,-389.25 1403.96,-392.848 1404.02,-385.848"/>
<text text-anchor="middle" x="1549.31" y="-392.3" font-family="Times New Roman,serif" font-size="14.00">{_Bnodes{contenst = contents or []}</text>
</g>
<!-- _Bnodes{children -->
<g id="node3" class="node"><title>_Bnodes{children</title>
<path fill="#00e599" stroke="black" d="M2300.51,-327C2300.51,-327 731.333,-327 731.333,-327 725.333,-327 713.393,-326.159 707.452,-325.319 707.452,-325.319 321.375,-270.681 321.375,-270.681 315.434,-269.841 315.493,-269 321.493,-269 321.493,-269 1890.67,-269 1890.67,-269 1896.67,-269 1908.61,-269.841 1914.55,-270.681 1914.55,-270.681 2300.63,-325.319 2300.63,-325.319 2306.57,-326.159 2306.51,-327 2300.51,-327"/>
<text text-anchor="middle" x="1311" y="-294.3" font-family="Times New Roman,serif" font-size="14.00">_Bnodes{children</text>
</g>
<!-- _Bnodes{contents&#45;&gt;_Bnodes{children -->
<g id="edge5" class="edge"><title>_Bnodes{contents&#45;&gt;_Bnodes{children</title>
<path fill="none" stroke="#ffaa88" d="M1311,-377.837C1311,-366.663 1311,-351.623 1311,-337.675"/>
<polygon fill="#ffaa88" stroke="#ffaa88" points="1314.5,-337.304 1311,-327.304 1307.5,-337.304 1314.5,-337.304"/>
<text text-anchor="middle" x="1416.5" y="-348.8" font-family="Times New Roman,serif" font-size="14.00">{ _Bnodes{children = children or [] }</text>
</g>
<!-- _Bnodes{children? -->
<g id="node5" class="node"><title>_Bnodes{children?</title>
<path fill="#ffce9f" stroke="black" d="M1299.15,-230.128C1299.15,-230.128 1208.9,-215.872 1208.9,-215.872 1202.98,-214.936 1202.98,-213.064 1208.9,-212.128 1208.9,-212.128 1299.15,-197.872 1299.15,-197.872 1305.07,-196.936 1316.93,-196.936 1322.85,-197.872 1322.85,-197.872 1413.1,-212.128 1413.1,-212.128 1419.02,-213.064 1419.02,-214.936 1413.1,-215.872 1413.1,-215.872 1322.85,-230.128 1322.85,-230.128 1316.93,-231.064 1305.07,-231.064 1299.15,-230.128"/>
<text text-anchor="middle" x="1311" y="-210.3" font-family="Times New Roman,serif" font-size="14.00">_Bnodes{children?</text>
</g>
<!-- _Bnodes{children&#45;&gt;_Bnodes{children? -->
<g id="edge6" class="edge"><title>_Bnodes{children&#45;&gt;_Bnodes{children?</title>
<path fill="none" stroke="#ffaa88" d="M1311,-268.78C1311,-260.181 1311,-250.748 1311,-242.216"/>
<polygon fill="#ffaa88" stroke="#ffaa88" points="1314.5,-242.022 1311,-232.022 1307.5,-242.022 1314.5,-242.022"/>
</g>
<!-- _Bnodes{__init__ -->
<g id="node4" class="node"><title>_Bnodes{__init__</title>
<path fill="#ffe599" stroke="black" d="M1359,-574C1359,-574 1263,-574 1263,-574 1257,-574 1251,-568 1251,-562 1251,-562 1251,-550 1251,-550 1251,-544 1257,-538 1263,-538 1263,-538 1359,-538 1359,-538 1365,-538 1371,-544 1371,-550 1371,-550 1371,-562 1371,-562 1371,-568 1365,-574 1359,-574"/>
<text text-anchor="middle" x="1311" y="-552.3" font-family="Times New Roman,serif" font-size="14.00">_Bnodes{__init__</text>
</g>
<!-- _Bnodes{__init__&#45;&gt;_Bnodes{tree -->
<g id="edge2" class="edge"><title>_Bnodes{__init__&#45;&gt;_Bnodes{tree</title>
<path fill="none" stroke="black" d="M1311,-537.799C1311,-526.163 1311,-510.548 1311,-497.237"/>
<polygon fill="black" stroke="black" points="1314.5,-497.175 1311,-487.175 1307.5,-497.175 1314.5,-497.175"/>
<text text-anchor="middle" x="1368" y="-508.8" font-family="Times New Roman,serif" font-size="14.00">_Bnodes{tree = tree</text>
</g>
<!-- len(_Bnodes{contents) + 1 == len(_Bnodes{children) -->
<g id="node6" class="node"><title>len(_Bnodes{contents) + 1 == len(_Bnodes{children)</title>
<path fill="#ffce9f" stroke="black" d="M722.009,-144.526C722.009,-144.526 11.9906,-116.474 11.9906,-116.474 5.99532,-116.237 5.99532,-115.763 11.9906,-115.526 11.9906,-115.526 722.009,-87.4737 722.009,-87.4737 728.005,-87.2369 739.995,-87.2369 745.991,-87.4737 745.991,-87.4737 1456.01,-115.526 1456.01,-115.526 1462,-115.763 1462,-116.237 1456.01,-116.474 1456.01,-116.474 745.991,-144.526 745.991,-144.526 739.995,-144.763 728.005,-144.763 722.009,-144.526"/>
<text text-anchor="middle" x="734" y="-112.3" font-family="Times New Roman,serif" font-size="14.00">len(_Bnodes{contents) + 1 == len(_Bnodes{children)</text>
</g>
<!-- _Bnodes{children?&#45;&gt;len(_Bnodes{contents) + 1 == len(_Bnodes{children) -->
<g id="edge8" class="edge"><title>_Bnodes{children?&#45;&gt;len(_Bnodes{contents) + 1 == len(_Bnodes{children)</title>
<path fill="none" stroke="#ffaa88" d="M1258.52,-204.269C1173.73,-190.161 1003.62,-161.858 880.049,-141.299"/>
<polygon fill="#ffaa88" stroke="#ffaa88" points="880.554,-137.835 870.115,-139.647 879.405,-144.74 880.554,-137.835"/>
<text text-anchor="middle" x="1130" y="-166.8" font-family="Times New Roman,serif" font-size="14.00">Yes, {assert}</text>
</g>
<!-- end -->
<g id="node8" class="node"><title>end</title>
<ellipse fill="none" stroke="black" cx="1370" cy="-18" rx="27" ry="18"/>
<text text-anchor="middle" x="1370" y="-14.3" font-family="Times New Roman,serif" font-size="14.00">end</text>
</g>
<!-- _Bnodes{children?&#45;&gt;end -->
<g id="edge7" class="edge"><title>_Bnodes{children?&#45;&gt;end</title>
<path fill="none" stroke="#ffaa88" d="M1370.67,-205.367C1408.03,-197.164 1453.4,-180.171 1477,-145 1491.36,-123.595 1489.41,-109.593 1477,-87 1461.56,-58.8997 1429.05,-40.7618 1403.89,-30.3469"/>
<polygon fill="#ffaa88" stroke="#ffaa88" points="1404.91,-26.9858 1394.32,-26.6023 1402.36,-33.5048 1404.91,-26.9858"/>
<text text-anchor="middle" x="1498.5" y="-112.3" font-family="Times New Roman,serif" font-size="14.00">NO</text>
</g>
<!-- len(_Bnodes{contents) + 1 == len(_Bnodes{children)&#45;&gt;end -->
<g id="edge9" class="edge"><title>len(_Bnodes{contents) + 1 == len(_Bnodes{children)&#45;&gt;end</title>
<path fill="none" stroke="#ffaa88" d="M881.11,-92.7948C1029.39,-70.4127 1248.19,-37.3862 1333.8,-24.4648"/>
<polygon fill="#ffaa88" stroke="#ffaa88" points="1334.43,-27.9086 1343.8,-22.9552 1333.39,-20.987 1334.43,-27.9086"/>
<text text-anchor="middle" x="1139" y="-57.8" font-family="Times New Roman,serif" font-size="14.00">Yes</text>
</g>
<!-- Error -->
<g id="node9" class="node"><title>Error</title>
<ellipse fill="none" stroke="black" cx="734" cy="-18" rx="29.795" ry="18"/>
<text text-anchor="middle" x="734" y="-14.3" font-family="Times New Roman,serif" font-size="14.00">Error</text>
</g>
<!-- len(_Bnodes{contents) + 1 == len(_Bnodes{children)&#45;&gt;Error -->
<g id="edge10" class="edge"><title>len(_Bnodes{contents) + 1 == len(_Bnodes{children)&#45;&gt;Error</title>
<path fill="none" stroke="#ff0000" d="M734,-86.9748C734,-74.0902 734,-58.8685 734,-46.0991"/>
<polygon fill="#ff0000" stroke="#ff0000" points="737.5,-46.0548 734,-36.0548 730.5,-46.0549 737.5,-46.0548"/>
<text text-anchor="middle" x="859" y="-57.8" font-family="Times New Roman,serif" font-size="14.00">No (&#39;one more child than data item required&#39;)</text>
</g>
<!-- start -->
<g id="node7" class="node"><title>start</title>
<ellipse fill="none" stroke="black" cx="1311" cy="-643" rx="27" ry="18"/>
<text text-anchor="middle" x="1311" y="-639.3" font-family="Times New Roman,serif" font-size="14.00">start</text>
</g>
<!-- start&#45;&gt;_Bnodes{__init__ -->
<g id="edge1" class="edge"><title>start&#45;&gt;_Bnodes{__init__</title>
<path fill="none" stroke="black" d="M1311,-624.799C1311,-613.163 1311,-597.548 1311,-584.237"/>
<polygon fill="black" stroke="black" points="1314.5,-584.175 1311,-574.175 1307.5,-584.175 1314.5,-584.175"/>
<text text-anchor="middle" x="1413.5" y="-595.8" font-family="Times New Roman,serif" font-size="14.00">(tree,contents=None,children=None)</text>
</g>
</g>
</svg>
