<?xml version="1.0" encoding="UTF-8" standalone="no"?>
<!DOCTYPE svg PUBLIC "-//W3C//DTD SVG 1.1//EN"
 "http://www.w3.org/Graphics/SVG/1.1/DTD/svg11.dtd">
<!-- Generated by graphviz version 2.38.0 (20140413.2041)
 -->
<!-- Title: %3 Pages: 1 -->
<svg width="1044pt" height="512pt"
 viewBox="0.00 0.00 1043.70 512.00" xmlns="http://www.w3.org/2000/svg" xmlns:xlink="http://www.w3.org/1999/xlink">
<g id="graph0" class="graph" transform="scale(1 1) rotate(0) translate(4 508)">
<title>%3</title>
<polygon fill="white" stroke="none" points="-4,4 -4,-508 1039.7,-508 1039.7,4 -4,4"/>
<!-- []{append -->
<g id="node1" class="node"><title>[]{append</title>
<path fill="#ff5e99" stroke="black" d="M614.698,-504C614.698,-504 564.698,-504 564.698,-504 558.698,-504 552.698,-498 552.698,-492 552.698,-492 552.698,-480 552.698,-480 552.698,-474 558.698,-468 564.698,-468 564.698,-468 614.698,-468 614.698,-468 620.698,-468 626.698,-474 626.698,-480 626.698,-480 626.698,-492 626.698,-492 626.698,-498 620.698,-504 614.698,-504"/>
<text text-anchor="middle" x="589.698" y="-482.3" font-family="Times New Roman,serif" font-size="14.00">[]{append</text>
</g>
<!-- index &lt; len(current{contents) -->
<g id="node4" class="node"><title>index &lt; len(current{contents)</title>
<path fill="#ffce9f" stroke="black" d="M306.769,-429.702C306.769,-429.702 165.231,-414.298 165.231,-414.298 159.266,-413.649 159.266,-412.351 165.231,-411.702 165.231,-411.702 306.769,-396.298 306.769,-396.298 312.734,-395.649 324.663,-395.649 330.628,-396.298 330.628,-396.298 472.165,-411.702 472.165,-411.702 478.13,-412.351 478.13,-413.649 472.165,-414.298 472.165,-414.298 330.628,-429.702 330.628,-429.702 324.663,-430.351 312.734,-430.351 306.769,-429.702"/>
<text text-anchor="middle" x="318.698" y="-409.3" font-family="Times New Roman,serif" font-size="14.00">index &lt; len(current{contents)</text>
</g>
<!-- []{append&#45;&gt;index &lt; len(current{contents) -->
<g id="edge7" class="edge"><title>[]{append&#45;&gt;index &lt; len(current{contents)</title>
<path fill="none" stroke="#0000ff" d="M552.585,-475.277C506.691,-463.253 428.126,-442.669 374.842,-428.709"/>
<polygon fill="#0000ff" stroke="#0000ff" points="375.431,-425.245 364.87,-426.097 373.657,-432.017 375.431,-425.245"/>
</g>
<!-- end -->
<g id="node10" class="node"><title>end</title>
<ellipse fill="none" stroke="black" cx="524.698" cy="-207" rx="27" ry="18"/>
<text text-anchor="middle" x="524.698" y="-203.3" font-family="Times New Roman,serif" font-size="14.00">end</text>
</g>
<!-- []{append&#45;&gt;end -->
<g id="edge14" class="edge"><title>[]{append&#45;&gt;end</title>
<path fill="none" stroke="#0000ff" d="M574.256,-467.848C557.307,-447.759 531.119,-412.666 520.698,-377 506.587,-328.703 513.171,-269.298 519.059,-235.324"/>
<polygon fill="#0000ff" stroke="#0000ff" points="522.548,-235.703 520.919,-225.234 515.664,-234.434 522.548,-235.703"/>
<text text-anchor="middle" x="544.198" y="-349.8" font-family="Times New Roman,serif" font-size="14.00">ancestry</text>
</g>
<!-- []{append&#45;&gt;end -->
<g id="edge17" class="edge"><title>[]{append&#45;&gt;end</title>
<path fill="none" stroke="#00ff00" d="M587.782,-467.726C584.666,-441.288 577.815,-389.301 567.698,-346 558.485,-306.564 543.799,-262.007 534.202,-234.458"/>
<polygon fill="#00ff00" stroke="#00ff00" points="537.417,-233.049 530.795,-224.778 530.814,-235.373 537.417,-233.049"/>
<text text-anchor="middle" x="598.198" y="-357.8" font-family="Times New Roman,serif" font-size="14.00">ancestry</text>
</g>
<!-- Btree{_root -->
<g id="node2" class="node"><title>Btree{_root</title>
<path fill="#00e599" stroke="black" d="M966.886,-123C966.886,-123 864.916,-123 864.916,-123 858.916,-123 848.902,-118.541 844.888,-114.081 844.888,-114.081 828.539,-95.9188 828.539,-95.9188 824.524,-91.4594 826.51,-87 832.51,-87 832.51,-87 934.481,-87 934.481,-87 940.481,-87 950.495,-91.4594 954.509,-95.9188 954.509,-95.9188 970.858,-114.081 970.858,-114.081 974.872,-118.541 972.886,-123 966.886,-123"/>
<text text-anchor="middle" x="899.698" y="-101.3" font-family="Times New Roman,serif" font-size="14.00">Btree{_root</text>
</g>
<!-- ancestry -->
<g id="node8" class="node"><title>ancestry</title>
<path fill="#00e599" stroke="black" d="M680.769,-36C680.769,-36 609.21,-36 609.21,-36 603.21,-36 593.827,-31.045 590.443,-26.09 590.443,-26.09 579.395,-9.91002 579.395,-9.91002 576.011,-4.95501 578.628,-2.0424e-014 584.628,-1.95317e-014 584.628,-1.95317e-014 656.186,-8.88999e-015 656.186,-8.88999e-015 662.186,-7.99771e-015 671.57,-4.95501 674.953,-9.91002 674.953,-9.91002 686.002,-26.09 686.002,-26.09 689.385,-31.045 686.769,-36 680.769,-36"/>
<text text-anchor="middle" x="632.698" y="-14.3" font-family="Times New Roman,serif" font-size="14.00">ancestry</text>
</g>
<!-- Btree{_root&#45;&gt;ancestry -->
<g id="edge3" class="edge"><title>Btree{_root&#45;&gt;ancestry</title>
<path fill="none" stroke="black" d="M871.755,-86.9968C852.852,-76.1555 826.994,-62.5805 802.698,-54 768.471,-41.9121 728.813,-33.4504 696.415,-27.8789"/>
<polygon fill="black" stroke="black" points="696.606,-24.3626 686.167,-26.1705 695.455,-31.2673 696.606,-24.3626"/>
<text text-anchor="middle" x="871.698" y="-57.8" font-family="Times New Roman,serif" font-size="14.00">ancestry = []</text>
</g>
<!-- getattr(current,&#39;children&#39;,None) -->
<g id="node3" class="node"><title>getattr(current,&#39;children&#39;,None)</title>
<path fill="#ffce9f" stroke="black" d="M295.764,-223.749C295.764,-223.749 147.868,-208.251 147.868,-208.251 141.901,-207.625 141.901,-206.375 147.868,-205.749 147.868,-205.749 295.764,-190.251 295.764,-190.251 301.731,-189.625 313.666,-189.625 319.633,-190.251 319.633,-190.251 467.529,-205.749 467.529,-205.749 473.496,-206.375 473.496,-207.625 467.529,-208.251 467.529,-208.251 319.633,-223.749 319.633,-223.749 313.666,-224.375 301.731,-224.375 295.764,-223.749"/>
<text text-anchor="middle" x="307.698" y="-203.3" font-family="Times New Roman,serif" font-size="14.00">getattr(current,&#39;children&#39;,None)</text>
</g>
<!-- bisect{bisect_left -->
<g id="node7" class="node"><title>bisect{bisect_left</title>
<path fill="#ffe599" stroke="black" d="M424.698,-123C424.698,-123 334.698,-123 334.698,-123 328.698,-123 322.698,-117 322.698,-111 322.698,-111 322.698,-99 322.698,-99 322.698,-93 328.698,-87 334.698,-87 334.698,-87 424.698,-87 424.698,-87 430.698,-87 436.698,-93 436.698,-99 436.698,-99 436.698,-111 436.698,-111 436.698,-117 430.698,-123 424.698,-123"/>
<text text-anchor="middle" x="379.698" y="-101.3" font-family="Times New Roman,serif" font-size="14.00">bisect{bisect_left</text>
</g>
<!-- getattr(current,&#39;children&#39;,None)&#45;&gt;bisect{bisect_left -->
<g id="edge5" class="edge"><title>getattr(current,&#39;children&#39;,None)&#45;&gt;bisect{bisect_left</title>
<path fill="none" stroke="#00ff00" d="M199.096,-200.33C118.223,-194.964 19.6431,-185.537 6.6983,-171 -2.16861,-161.042 -2.27859,-150.859 6.6983,-141 26.8345,-118.886 210.588,-110.481 312.449,-107.502"/>
<polygon fill="#00ff00" stroke="#00ff00" points="312.747,-110.995 322.644,-107.214 312.549,-103.998 312.747,-110.995"/>
<text text-anchor="middle" x="149.198" y="-159.8" font-family="Times New Roman,serif" font-size="14.00">NO,(current.contents,item)</text>
<text text-anchor="middle" x="149.198" y="-144.8" font-family="Times New Roman,serif" font-size="14.00"> &#160;&#160;&#160;index = bisect.bisect_left(current{contents,item)</text>
</g>
<!-- getattr(current,&#39;children&#39;,None)&#45;&gt;bisect{bisect_left -->
<g id="edge6" class="edge"><title>getattr(current,&#39;children&#39;,None)&#45;&gt;bisect{bisect_left</title>
<path fill="none" stroke="#0000ff" d="M305.418,-189.063C304.427,-175.015 305.197,-155.127 314.698,-141 317.662,-136.593 321.37,-132.696 325.502,-129.259"/>
<polygon fill="#0000ff" stroke="#0000ff" points="327.831,-131.894 333.89,-123.203 323.733,-126.219 327.831,-131.894"/>
<text text-anchor="middle" x="457.198" y="-159.8" font-family="Times New Roman,serif" font-size="14.00">Yes,(current.contents,item)</text>
<text text-anchor="middle" x="457.198" y="-144.8" font-family="Times New Roman,serif" font-size="14.00"> &#160;&#160;&#160;index = bisect.bisect_left(current{contents,item)</text>
</g>
<!-- index &lt; len(current{contents)&#45;&gt;getattr(current,&#39;children&#39;,None) -->
<g id="edge8" class="edge"><title>index &lt; len(current{contents)&#45;&gt;getattr(current,&#39;children&#39;,None)</title>
<path fill="none" stroke="#0000ff" d="M247.462,-402.749C201.447,-392.674 144.895,-371.68 115.698,-328 79.1585,-273.336 172.344,-238.874 241.327,-221.553"/>
<polygon fill="#0000ff" stroke="#0000ff" points="242.423,-224.888 251.31,-219.121 240.766,-218.087 242.423,-224.888"/>
<text text-anchor="middle" x="126.198" y="-306.3" font-family="Times New Roman,serif" font-size="14.00">NO</text>
</g>
<!-- current{contents[index]==item -->
<g id="node5" class="node"><title>current{contents[index]==item</title>
<path fill="#ffce9f" stroke="black" d="M306.763,-326.755C306.763,-326.755 158.03,-311.245 158.03,-311.245 152.063,-310.622 152.063,-309.378 158.03,-308.755 158.03,-308.755 306.763,-293.245 306.763,-293.245 312.731,-292.622 324.666,-292.622 330.634,-293.245 330.634,-293.245 479.366,-308.755 479.366,-308.755 485.334,-309.378 485.334,-310.622 479.366,-311.245 479.366,-311.245 330.634,-326.755 330.634,-326.755 324.666,-327.378 312.731,-327.378 306.763,-326.755"/>
<text text-anchor="middle" x="318.698" y="-306.3" font-family="Times New Roman,serif" font-size="14.00">current{contents[index]==item</text>
</g>
<!-- index &lt; len(current{contents)&#45;&gt;current{contents[index]==item -->
<g id="edge9" class="edge"><title>index &lt; len(current{contents)&#45;&gt;current{contents[index]==item</title>
<path fill="none" stroke="#0000ff" d="M318.698,-394.867C318.698,-379.414 318.698,-356.416 318.698,-338.409"/>
<polygon fill="#0000ff" stroke="#0000ff" points="322.198,-338.217 318.698,-328.217 315.198,-338.217 322.198,-338.217"/>
<text text-anchor="middle" x="329.698" y="-357.8" font-family="Times New Roman,serif" font-size="14.00">Yes</text>
</g>
<!-- current{contents[index]==item&#45;&gt;getattr(current,&#39;children&#39;,None) -->
<g id="edge10" class="edge"><title>current{contents[index]==item&#45;&gt;getattr(current,&#39;children&#39;,None)</title>
<path fill="none" stroke="#0000ff" d="M316.832,-291.867C315.131,-276.247 312.59,-252.919 310.62,-234.828"/>
<polygon fill="#0000ff" stroke="#0000ff" points="314.099,-234.442 309.537,-224.88 307.14,-235.2 314.099,-234.442"/>
<text text-anchor="middle" x="326.198" y="-254.8" font-family="Times New Roman,serif" font-size="14.00">NO</text>
</g>
<!-- current{contents[index]==item&#45;&gt;end -->
<g id="edge11" class="edge"><title>current{contents[index]==item&#45;&gt;end</title>
<path fill="none" stroke="#0000ff" d="M338.625,-293.986C359.045,-279.214 392.182,-256.911 423.698,-243 451.122,-230.896 460.598,-235.438 488.698,-225 490.545,-224.314 492.426,-223.57 494.312,-222.79"/>
<polygon fill="#0000ff" stroke="#0000ff" points="495.896,-225.917 503.636,-218.682 493.074,-219.511 495.896,-225.917"/>
<text text-anchor="middle" x="464.698" y="-254.8" font-family="Times New Roman,serif" font-size="14.00">Yes (ancestry)</text>
</g>
<!-- Btree{_path_to -->
<g id="node6" class="node"><title>Btree{_path_to</title>
<path fill="#ffe599" stroke="black" d="M961.198,-225C961.198,-225 882.198,-225 882.198,-225 876.198,-225 870.198,-219 870.198,-213 870.198,-213 870.198,-201 870.198,-201 870.198,-195 876.198,-189 882.198,-189 882.198,-189 961.198,-189 961.198,-189 967.198,-189 973.198,-195 973.198,-201 973.198,-201 973.198,-213 973.198,-213 973.198,-219 967.198,-225 961.198,-225"/>
<text text-anchor="middle" x="921.698" y="-203.3" font-family="Times New Roman,serif" font-size="14.00">Btree{_path_to</text>
</g>
<!-- Btree{_path_to&#45;&gt;Btree{_root -->
<g id="edge2" class="edge"><title>Btree{_path_to&#45;&gt;Btree{_root</title>
<path fill="none" stroke="black" d="M917.866,-188.581C914.522,-173.382 909.613,-151.067 905.74,-133.464"/>
<polygon fill="black" stroke="black" points="909.053,-132.233 903.486,-123.219 902.217,-133.738 909.053,-132.233"/>
<text text-anchor="middle" x="974.698" y="-152.3" font-family="Times New Roman,serif" font-size="14.00">current = Btree{_root</text>
</g>
<!-- bisect{bisect_left&#45;&gt;ancestry -->
<g id="edge12" class="edge"><title>bisect{bisect_left&#45;&gt;ancestry</title>
<path fill="none" stroke="#0000ff" d="M425.055,-86.9012C469.729,-71.3192 537.619,-48.5417 583.555,-33.7436"/>
<polygon fill="#0000ff" stroke="#0000ff" points="584.841,-37.0071 593.295,-30.6211 582.704,-30.3413 584.841,-37.0071"/>
</g>
<!-- bisect{bisect_left&#45;&gt;ancestry -->
<g id="edge15" class="edge"><title>bisect{bisect_left&#45;&gt;ancestry</title>
<path fill="none" stroke="#00ff00" d="M436.13,-86.9012C481.098,-72.329 543.225,-51.4638 585.568,-36.7171"/>
<polygon fill="#00ff00" stroke="#00ff00" points="586.801,-39.9936 595.085,-33.3883 584.49,-33.3861 586.801,-39.9936"/>
</g>
<!-- ancestry&#45;&gt;[]{append -->
<g id="edge13" class="edge"><title>ancestry&#45;&gt;[]{append</title>
<path fill="none" stroke="#0000ff" d="M638.815,-36.007C644.369,-52.9908 651.698,-79.9574 651.698,-104 651.698,-414 651.698,-414 651.698,-414 651.698,-432.916 639.057,-449.226 625.191,-461.426"/>
<polygon fill="#0000ff" stroke="#0000ff" points="622.958,-458.73 617.434,-467.771 627.39,-464.149 622.958,-458.73"/>
<text text-anchor="middle" x="708.698" y="-246.8" font-family="Times New Roman,serif" font-size="14.00">item=(current,index)</text>
</g>
<!-- ancestry&#45;&gt;[]{append -->
<g id="edge16" class="edge"><title>ancestry&#45;&gt;[]{append</title>
<path fill="none" stroke="#00ff00" d="M685.948,-25.8398C731.14,-34.9818 788.698,-56.0395 788.698,-104 788.698,-414 788.698,-414 788.698,-414 788.698,-446.009 696.213,-467.372 637.342,-477.729"/>
<polygon fill="#00ff00" stroke="#00ff00" points="636.396,-474.34 627.129,-479.475 637.576,-481.24 636.396,-474.34"/>
<text text-anchor="middle" x="845.698" y="-254.8" font-family="Times New Roman,serif" font-size="14.00">item=(current,index)</text>
</g>
<!-- ancestry&#45;&gt;getattr(current,&#39;children&#39;,None) -->
<g id="edge4" class="edge"><title>ancestry&#45;&gt;getattr(current,&#39;children&#39;,None)</title>
<path fill="none" stroke="black" d="M634.733,-36.2083C637.437,-68.0555 638.05,-136.111 599.698,-171 592.379,-177.658 486.833,-189.088 404.718,-197.069"/>
<polygon fill="black" stroke="black" points="404.191,-193.603 394.574,-198.049 404.864,-200.571 404.191,-193.603"/>
</g>
<!-- start -->
<g id="node9" class="node"><title>start</title>
<ellipse fill="none" stroke="black" cx="925.698" cy="-310" rx="27" ry="18"/>
<text text-anchor="middle" x="925.698" y="-306.3" font-family="Times New Roman,serif" font-size="14.00">start</text>
</g>
<!-- start&#45;&gt;Btree{_path_to -->
<g id="edge1" class="edge"><title>start&#45;&gt;Btree{_path_to</title>
<path fill="none" stroke="black" d="M925.02,-291.867C924.408,-276.414 923.497,-253.416 922.784,-235.409"/>
<polygon fill="black" stroke="black" points="926.273,-235.071 922.38,-225.217 919.279,-235.348 926.273,-235.071"/>
<text text-anchor="middle" x="940.198" y="-254.8" font-family="Times New Roman,serif" font-size="14.00">(item)</text>
</g>
</g>
</svg>
