<?xml version="1.0" encoding="UTF-8" standalone="no"?>
<!DOCTYPE svg PUBLIC "-//W3C//DTD SVG 1.1//EN"
 "http://www.w3.org/Graphics/SVG/1.1/DTD/svg11.dtd">
<!-- Generated by graphviz version 2.38.0 (20140413.2041)
 -->
<!-- Title: %3 Pages: 1 -->
<svg width="845pt" height="456pt"
 viewBox="0.00 0.00 845.31 456.00" xmlns="http://www.w3.org/2000/svg" xmlns:xlink="http://www.w3.org/1999/xlink">
<g id="graph0" class="graph" transform="scale(1 1) rotate(0) translate(4 452)">
<title>%3</title>
<polygon fill="white" stroke="none" points="-4,4 -4,-452 841.306,-452 841.306,4 -4,4"/>
<!-- _Bnodes{contents -->
<g id="node1" class="node"><title>_Bnodes{contents</title>
<path fill="#00e599" stroke="black" d="M218.417,-196C218.417,-196 59.3004,-196 59.3004,-196 53.3004,-196 42.5332,-192.357 37.7659,-188.713 37.7659,-188.713 9.72853,-167.287 9.72853,-167.287 4.96128,-163.643 6.19403,-160 12.194,-160 12.194,-160 171.311,-160 171.311,-160 177.311,-160 188.078,-163.643 192.845,-167.287 192.845,-167.287 220.883,-188.713 220.883,-188.713 225.65,-192.357 224.417,-196 218.417,-196"/>
<text text-anchor="middle" x="115.306" y="-174.3" font-family="Times New Roman,serif" font-size="14.00">_Bnodes{contents</text>
</g>
<!-- _Bnodes{contents&#45;&gt;_Bnodes{contents -->
<g id="edge3" class="edge"><title>_Bnodes{contents&#45;&gt;_Bnodes{contents</title>
<path fill="none" stroke="#ab12fe" d="M216.734,-185.457C235.454,-184.526 248.611,-182.04 248.611,-178 248.611,-173.278 230.635,-170.679 206.809,-170.205"/>
<polygon fill="#ab12fe" stroke="#ab12fe" points="206.686,-166.704 196.66,-170.129 206.634,-173.703 206.686,-166.704"/>
<text text-anchor="middle" x="380.111" y="-174.3" font-family="Times New Roman,serif" font-size="14.00">_Bnodes{contents=_Bnodes{contents[:center]</text>
</g>
<!-- _Bnodes{children -->
<g id="node2" class="node"><title>_Bnodes{children</title>
<path fill="#00e599" stroke="black" d="M215.699,-109C215.699,-109 60.9061,-109 60.9061,-109 54.9061,-109 44.1813,-105.302 39.4565,-101.604 39.4565,-101.604 12.3616,-80.3963 12.3616,-80.3963 7.63677,-76.6981 8.91197,-73 14.912,-73 14.912,-73 169.705,-73 169.705,-73 175.705,-73 186.43,-76.6981 191.155,-80.3963 191.155,-80.3963 218.25,-101.604 218.25,-101.604 222.975,-105.302 221.699,-109 215.699,-109"/>
<text text-anchor="middle" x="115.306" y="-87.3" font-family="Times New Roman,serif" font-size="14.00">_Bnodes{children</text>
</g>
<!-- _Bnodes{contents&#45;&gt;_Bnodes{children -->
<g id="edge4" class="edge"><title>_Bnodes{contents&#45;&gt;_Bnodes{children</title>
<path fill="none" stroke="#ab12fe" d="M115.306,-159.799C115.306,-148.163 115.306,-132.548 115.306,-119.237"/>
<polygon fill="#ab12fe" stroke="#ab12fe" points="118.806,-119.175 115.306,-109.175 111.806,-119.175 118.806,-119.175"/>
<text text-anchor="middle" x="251.306" y="-130.8" font-family="Times New Roman,serif" font-size="14.00">_Bnodes{children=_Bnodes{children[:center+1]</text>
</g>
<!-- end -->
<g id="node5" class="node"><title>end</title>
<ellipse fill="none" stroke="black" cx="115.306" cy="-18" rx="27" ry="18"/>
<text text-anchor="middle" x="115.306" y="-14.3" font-family="Times New Roman,serif" font-size="14.00">end</text>
</g>
<!-- _Bnodes{children&#45;&gt;end -->
<g id="edge5" class="edge"><title>_Bnodes{children&#45;&gt;end</title>
<path fill="none" stroke="#ab12fe" d="M115.306,-72.8129C115.306,-64.7895 115.306,-55.0475 115.306,-46.0691"/>
<polygon fill="#ab12fe" stroke="#ab12fe" points="118.806,-46.0288 115.306,-36.0288 111.806,-46.0289 118.806,-46.0288"/>
</g>
<!-- _Bnodes{split -->
<g id="node3" class="node"><title>_Bnodes{split</title>
<path fill="#ffe599" stroke="black" d="M151.806,-375C151.806,-375 78.8056,-375 78.8056,-375 72.8056,-375 66.8056,-369 66.8056,-363 66.8056,-363 66.8056,-351 66.8056,-351 66.8056,-345 72.8056,-339 78.8056,-339 78.8056,-339 151.806,-339 151.806,-339 157.806,-339 163.806,-345 163.806,-351 163.806,-351 163.806,-363 163.806,-363 163.806,-369 157.806,-375 151.806,-375"/>
<text text-anchor="middle" x="115.306" y="-353.3" font-family="Times New Roman,serif" font-size="14.00">_Bnodes{split</text>
</g>
<!-- _Bnodes{split&#45;&gt;_Bnodes{contents -->
<g id="edge2" class="edge"><title>_Bnodes{split&#45;&gt;_Bnodes{contents</title>
<path fill="none" stroke="black" d="M115.306,-338.706C115.306,-307.829 115.306,-243.004 115.306,-206.142"/>
<polygon fill="black" stroke="black" points="118.806,-206.103 115.306,-196.103 111.806,-206.103 118.806,-206.103"/>
<text text-anchor="middle" x="476.306" y="-309.8" font-family="Times New Roman,serif" font-size="14.00">{</text>
<text text-anchor="middle" x="476.306" y="-294.8" font-family="Times New Roman,serif" font-size="14.00"> center = len(_Bnodes{contents //2),</text>
<text text-anchor="middle" x="476.306" y="-263.8" font-family="Times New Roman,serif" font-size="14.00"> median=_Bnodes.contents[median], </text>
<text text-anchor="middle" x="476.306" y="-232.8" font-family="Times New Roman,serif" font-size="14.00"> sibling= _Bnodes(_Bnodes{tree,_Bnodes{contents[center+1:],_Bnodes{children[center+1:] ) &#160;&#160;&#160;&#160;&#160;&#160;&#160;&#160;&#160;&#160;&#160;&#160;&#160;&#160;&#160;&#160;&#160;&#160;&#160;&#160;&#160;&#160;&#160;&#160;&#160;&#160;&#160;&#160;&#160;&#160;&#160;&#160;&#160;&#160;&#160;&#160;&#160;&#160;&#160;&#160;&#160;&#160;&#160;&#160;&#160;&#160;&#160;&#160;&#160;&#160;&#160;</text>
<text text-anchor="middle" x="476.306" y="-217.8" font-family="Times New Roman,serif" font-size="14.00">}</text>
</g>
<!-- start -->
<g id="node4" class="node"><title>start</title>
<ellipse fill="none" stroke="black" cx="115.306" cy="-430" rx="27" ry="18"/>
<text text-anchor="middle" x="115.306" y="-426.3" font-family="Times New Roman,serif" font-size="14.00">start</text>
</g>
<!-- start&#45;&gt;_Bnodes{split -->
<g id="edge1" class="edge"><title>start&#45;&gt;_Bnodes{split</title>
<path fill="none" stroke="black" d="M115.306,-411.813C115.306,-403.789 115.306,-394.047 115.306,-385.069"/>
<polygon fill="black" stroke="black" points="118.806,-385.029 115.306,-375.029 111.806,-385.029 118.806,-385.029"/>
</g>
</g>
</svg>
