<?xml version="1.0" encoding="UTF-8" standalone="no"?>
<!DOCTYPE svg PUBLIC "-//W3C//DTD SVG 1.1//EN"
 "http://www.w3.org/Graphics/SVG/1.1/DTD/svg11.dtd">
<!-- Generated by graphviz version 2.38.0 (20140413.2041)
 -->
<!-- Title: %3 Pages: 1 -->
<svg width="1690pt" height="752pt"
 viewBox="0.00 0.00 1689.50 752.00" xmlns="http://www.w3.org/2000/svg" xmlns:xlink="http://www.w3.org/1999/xlink">
<g id="graph0" class="graph" transform="scale(1 1) rotate(0) translate(4 748)">
<title>%3</title>
<polygon fill="white" stroke="none" points="-4,4 -4,-748 1685.5,-748 1685.5,4 -4,4"/>
<!-- []{append -->
<g id="node1" class="node"><title>[]{append</title>
<path fill="#ff5e99" stroke="black" d="M766,-468C766,-468 12,-468 12,-468 6,-468 0,-462 0,-456 0,-456 0,-437 0,-437 0,-431 6,-425 12,-425 12,-425 766,-425 766,-425 772,-425 778,-431 778,-437 778,-437 778,-456 778,-456 778,-462 772,-468 766,-468"/>
<text text-anchor="middle" x="389" y="-442.8" font-family="Times New Roman,serif" font-size="14.00">[]{append</text>
</g>
<!-- getattr(node,&#39;children&#39;,None) -->
<g id="node5" class="node"><title>getattr(node,&#39;children&#39;,None)</title>
<path fill="#ffce9f" stroke="black" d="M727.074,-386.671C727.074,-386.671 589.383,-371.329 589.383,-371.329 583.419,-370.664 583.419,-369.336 589.383,-368.671 589.383,-368.671 727.074,-353.329 727.074,-353.329 733.037,-352.664 744.963,-352.664 750.926,-353.329 750.926,-353.329 888.617,-368.671 888.617,-368.671 894.581,-369.336 894.581,-370.664 888.617,-371.329 888.617,-371.329 750.926,-386.671 750.926,-386.671 744.963,-387.336 733.037,-387.336 727.074,-386.671"/>
<text text-anchor="middle" x="739" y="-366.3" font-family="Times New Roman,serif" font-size="14.00">getattr(node,&#39;children&#39;,None)</text>
</g>
<!-- []{append&#45;&gt;getattr(node,&#39;children&#39;,None) -->
<g id="edge8" class="edge"><title>[]{append&#45;&gt;getattr(node,&#39;children&#39;,None)</title>
<path fill="none" stroke="black" d="M485.566,-424.945C546.394,-411.998 623.163,-395.657 676.183,-384.371"/>
<polygon fill="black" stroke="black" points="677.075,-387.76 686.128,-382.254 675.618,-380.913 677.075,-387.76"/>
</g>
<!-- []{pop -->
<g id="node2" class="node"><title>[]{pop</title>
<path fill="#ff5e99" stroke="black" d="M1669.5,-285C1669.5,-285 934.5,-285 934.5,-285 928.5,-285 922.5,-279 922.5,-273 922.5,-273 922.5,-254 922.5,-254 922.5,-248 928.5,-242 934.5,-242 934.5,-242 1669.5,-242 1669.5,-242 1675.5,-242 1681.5,-248 1681.5,-254 1681.5,-254 1681.5,-273 1681.5,-273 1681.5,-279 1675.5,-285 1669.5,-285"/>
<text text-anchor="middle" x="1302" y="-259.8" font-family="Times New Roman,serif" font-size="14.00">[]{pop</text>
</g>
<!-- _Bnodes{insert -->
<g id="node7" class="node"><title>_Bnodes{insert</title>
<path fill="#ffe599" stroke="black" d="M1342,-134.5C1342,-134.5 1262,-134.5 1262,-134.5 1256,-134.5 1250,-128.5 1250,-122.5 1250,-122.5 1250,-110.5 1250,-110.5 1250,-104.5 1256,-98.5 1262,-98.5 1262,-98.5 1342,-98.5 1342,-98.5 1348,-98.5 1354,-104.5 1354,-110.5 1354,-110.5 1354,-122.5 1354,-122.5 1354,-128.5 1348,-134.5 1342,-134.5"/>
<text text-anchor="middle" x="1302" y="-112.8" font-family="Times New Roman,serif" font-size="14.00">_Bnodes{insert</text>
</g>
<!-- []{pop&#45;&gt;_Bnodes{insert -->
<g id="edge10" class="edge"><title>[]{pop&#45;&gt;_Bnodes{insert</title>
<path fill="none" stroke="black" d="M1302,-241.725C1302,-216.285 1302,-173.114 1302,-144.956"/>
<polygon fill="black" stroke="black" points="1305.5,-144.613 1302,-134.613 1298.5,-144.613 1305.5,-144.613"/>
<text text-anchor="middle" x="1401.5" y="-196.8" font-family="Times New Roman,serif" font-size="14.00"> &#160;&#160;(index,item,ancestors)</text>
<text text-anchor="middle" x="1401.5" y="-181.8" font-family="Times New Roman,serif" font-size="14.00">{node.insert(index,item,ancestors)}</text>
</g>
<!-- []{[&#45;1] -->
<g id="node3" class="node"><title>[]{[&#45;1]</title>
<path fill="#ff5e99" stroke="black" d="M838,-464.5C838,-464.5 808,-464.5 808,-464.5 802,-464.5 796,-458.5 796,-452.5 796,-452.5 796,-440.5 796,-440.5 796,-434.5 802,-428.5 808,-428.5 808,-428.5 838,-428.5 838,-428.5 844,-428.5 850,-434.5 850,-440.5 850,-440.5 850,-452.5 850,-452.5 850,-458.5 844,-464.5 838,-464.5"/>
<text text-anchor="middle" x="823" y="-442.8" font-family="Times New Roman,serif" font-size="14.00">[]{[&#45;1]</text>
</g>
<!-- []{[&#45;1]&#45;&gt;getattr(node,&#39;children&#39;,None) -->
<g id="edge4" class="edge"><title>[]{[&#45;1]&#45;&gt;getattr(node,&#39;children&#39;,None)</title>
<path fill="none" stroke="black" d="M803.518,-428.221C791.637,-417.684 776.345,-404.121 763.63,-392.844"/>
<polygon fill="black" stroke="black" points="765.904,-390.183 756.1,-386.166 761.259,-395.42 765.904,-390.183"/>
</g>
<!-- []{[index] -->
<g id="node4" class="node"><title>[]{[index]</title>
<path fill="#ff5e99" stroke="black" d="M892.5,-285C892.5,-285 429.5,-285 429.5,-285 423.5,-285 417.5,-279 417.5,-273 417.5,-273 417.5,-254 417.5,-254 417.5,-248 423.5,-242 429.5,-242 429.5,-242 892.5,-242 892.5,-242 898.5,-242 904.5,-248 904.5,-254 904.5,-254 904.5,-273 904.5,-273 904.5,-279 898.5,-285 892.5,-285"/>
<text text-anchor="middle" x="661" y="-259.8" font-family="Times New Roman,serif" font-size="14.00">[]{[index]</text>
</g>
<!-- bisect{bisect_left -->
<g id="node9" class="node"><title>bisect{bisect_left</title>
<path fill="#ffe599" stroke="black" d="M575,-160C575,-160 357,-160 357,-160 351,-160 345,-154 345,-148 345,-148 345,-85 345,-85 345,-79 351,-73 357,-73 357,-73 575,-73 575,-73 581,-73 587,-79 587,-85 587,-85 587,-148 587,-148 587,-154 581,-160 575,-160"/>
<text text-anchor="middle" x="466" y="-112.8" font-family="Times New Roman,serif" font-size="14.00">bisect{bisect_left</text>
</g>
<!-- []{[index]&#45;&gt;bisect{bisect_left -->
<g id="edge6" class="edge"><title>[]{[index]&#45;&gt;bisect{bisect_left</title>
<path fill="none" stroke="black" d="M633.061,-241.725C606.64,-222.079 565.999,-191.858 531.418,-166.144"/>
<polygon fill="black" stroke="black" points="533.341,-163.212 523.228,-160.054 529.164,-168.83 533.341,-163.212"/>
<text text-anchor="middle" x="744.5" y="-204.8" font-family="Times New Roman,serif" font-size="14.00">(node{contents,item),</text>
<text text-anchor="middle" x="744.5" y="-189.8" font-family="Times New Roman,serif" font-size="14.00">{index= bisect{bisect_left(node{contents,item)}</text>
</g>
<!-- getattr(node,&#39;children&#39;,None)&#45;&gt;[]{pop -->
<g id="edge9" class="edge"><title>getattr(node,&#39;children&#39;,None)&#45;&gt;[]{pop</title>
<path fill="none" stroke="black" d="M796.343,-358.356C886.322,-341.655 1062.65,-308.927 1181.42,-286.881"/>
<polygon fill="black" stroke="black" points="1182.1,-290.314 1191.3,-285.048 1180.83,-283.432 1182.1,-290.314"/>
<text text-anchor="middle" x="1189" y="-314.8" font-family="Times New Roman,serif" font-size="14.00">NO,{node,index = ancestors.pop()}</text>
</g>
<!-- getattr(node,&#39;children&#39;,None)&#45;&gt;[]{[index] -->
<g id="edge5" class="edge"><title>getattr(node,&#39;children&#39;,None)&#45;&gt;[]{[index]</title>
<path fill="none" stroke="black" d="M727.153,-353.129C715.348,-337.312 696.953,-312.667 682.554,-293.377"/>
<polygon fill="black" stroke="black" points="685.245,-291.13 676.458,-285.21 679.635,-295.318 685.245,-291.13"/>
<text text-anchor="middle" x="814.5" y="-314.8" font-family="Times New Roman,serif" font-size="14.00">Yes { node = node.children[index] }</text>
</g>
<!-- Btree{insert -->
<g id="node6" class="node"><title>Btree{insert</title>
<path fill="#ffe599" stroke="black" d="M852.5,-657C852.5,-657 793.5,-657 793.5,-657 787.5,-657 781.5,-651 781.5,-645 781.5,-645 781.5,-633 781.5,-633 781.5,-627 787.5,-621 793.5,-621 793.5,-621 852.5,-621 852.5,-621 858.5,-621 864.5,-627 864.5,-633 864.5,-633 864.5,-645 864.5,-645 864.5,-651 858.5,-657 852.5,-657"/>
<text text-anchor="middle" x="823" y="-635.3" font-family="Times New Roman,serif" font-size="14.00">Btree{insert</text>
</g>
<!-- Btree{_path_to -->
<g id="node8" class="node"><title>Btree{_path_to</title>
<path fill="#ffe599" stroke="black" d="M862.5,-555C862.5,-555 783.5,-555 783.5,-555 777.5,-555 771.5,-549 771.5,-543 771.5,-543 771.5,-531 771.5,-531 771.5,-525 777.5,-519 783.5,-519 783.5,-519 862.5,-519 862.5,-519 868.5,-519 874.5,-525 874.5,-531 874.5,-531 874.5,-543 874.5,-543 874.5,-549 868.5,-555 862.5,-555"/>
<text text-anchor="middle" x="823" y="-533.3" font-family="Times New Roman,serif" font-size="14.00">Btree{_path_to</text>
</g>
<!-- Btree{insert&#45;&gt;Btree{_path_to -->
<g id="edge2" class="edge"><title>Btree{insert&#45;&gt;Btree{_path_to</title>
<path fill="none" stroke="black" d="M823,-620.581C823,-605.382 823,-583.067 823,-565.464"/>
<polygon fill="black" stroke="black" points="826.5,-565.219 823,-555.219 819.5,-565.219 826.5,-565.219"/>
<text text-anchor="middle" x="929.5" y="-591.8" font-family="Times New Roman,serif" font-size="14.00">(item)</text>
<text text-anchor="middle" x="929.5" y="-576.8" font-family="Times New Roman,serif" font-size="14.00">{ ancestors = Btree{_path_to(item) &#160;}</text>
</g>
<!-- end -->
<g id="node11" class="node"><title>end</title>
<ellipse fill="none" stroke="black" cx="1302" cy="-18" rx="27" ry="18"/>
<text text-anchor="middle" x="1302" y="-14.3" font-family="Times New Roman,serif" font-size="14.00">end</text>
</g>
<!-- _Bnodes{insert&#45;&gt;end -->
<g id="edge11" class="edge"><title>_Bnodes{insert&#45;&gt;end</title>
<path fill="none" stroke="black" d="M1302,-98.2477C1302,-83.8391 1302,-63.0348 1302,-46.3576"/>
<polygon fill="black" stroke="black" points="1305.5,-46.1029 1302,-36.1029 1298.5,-46.1029 1305.5,-46.1029"/>
</g>
<!-- Btree{_path_to&#45;&gt;[]{[&#45;1] -->
<g id="edge3" class="edge"><title>Btree{_path_to&#45;&gt;[]{[&#45;1]</title>
<path fill="none" stroke="black" d="M823,-518.936C823,-506.448 823,-489.244 823,-474.848"/>
<polygon fill="black" stroke="black" points="826.5,-474.511 823,-464.511 819.5,-474.511 826.5,-474.511"/>
<text text-anchor="middle" x="909" y="-489.8" font-family="Times New Roman,serif" font-size="14.00">{ node,index = ancestors[&#45;1] }</text>
</g>
<!-- bisect{bisect_left&#45;&gt;[]{append -->
<g id="edge7" class="edge"><title>bisect{bisect_left&#45;&gt;[]{append</title>
<path fill="none" stroke="black" d="M441.659,-160.188C429.469,-183.602 415.7,-213.576 408,-242 391.819,-301.735 388.867,-374.535 388.629,-414.869"/>
<polygon fill="black" stroke="black" points="385.129,-414.87 388.623,-424.872 392.129,-414.874 385.129,-414.87"/>
<text text-anchor="middle" x="534.5" y="-306.8" font-family="Times New Roman,serif" font-size="14.00">( (node,index,) ),ancestors.append((node,index,))</text>
</g>
<!-- start -->
<g id="node10" class="node"><title>start</title>
<ellipse fill="none" stroke="black" cx="823" cy="-726" rx="27" ry="18"/>
<text text-anchor="middle" x="823" y="-722.3" font-family="Times New Roman,serif" font-size="14.00">start</text>
</g>
<!-- start&#45;&gt;Btree{insert -->
<g id="edge1" class="edge"><title>start&#45;&gt;Btree{insert</title>
<path fill="none" stroke="black" d="M823,-707.799C823,-696.163 823,-680.548 823,-667.237"/>
<polygon fill="black" stroke="black" points="826.5,-667.175 823,-657.175 819.5,-667.175 826.5,-667.175"/>
<text text-anchor="middle" x="839.5" y="-678.8" font-family="Times New Roman,serif" font-size="14.00">(item)</text>
</g>
</g>
</svg>
