<?xml version="1.0" encoding="UTF-8" standalone="no"?>
<!DOCTYPE svg PUBLIC "-//W3C//DTD SVG 1.1//EN"
 "http://www.w3.org/Graphics/SVG/1.1/DTD/svg11.dtd">
<!-- Generated by graphviz version 2.38.0 (20140413.2041)
 -->
<!-- Title: %3 Pages: 1 -->
<svg width="1631pt" height="795pt"
 viewBox="0.00 0.00 1631.00 795.00" xmlns="http://www.w3.org/2000/svg" xmlns:xlink="http://www.w3.org/1999/xlink">
<g id="graph0" class="graph" transform="scale(1 1) rotate(0) translate(4 791)">
<title>%3</title>
<polygon fill="white" stroke="none" points="-4,4 -4,-791 1627,-791 1627,4 -4,4"/>
<g id="clust1" class="cluster"><title>cluster_array</title>
<polygon fill="none" stroke="black" points="8,-8 8,-608 1371,-608 1371,-8 8,-8"/>
<text text-anchor="middle" x="689.5" y="-592.8" font-family="Times New Roman,serif" font-size="14.00">[]</text>
</g>
<!-- _Bnodes{lateral_left -->
<g id="node1" class="node"><title>_Bnodes{lateral_left</title>
<path fill="#ffe599" stroke="black" d="M228.5,-700C228.5,-700 121.5,-700 121.5,-700 115.5,-700 109.5,-694 109.5,-688 109.5,-688 109.5,-676 109.5,-676 109.5,-670 115.5,-664 121.5,-664 121.5,-664 228.5,-664 228.5,-664 234.5,-664 240.5,-670 240.5,-676 240.5,-676 240.5,-688 240.5,-688 240.5,-694 234.5,-700 228.5,-700"/>
<text text-anchor="middle" x="175" y="-678.3" font-family="Times New Roman,serif" font-size="14.00">_Bnodes{lateral_left</text>
</g>
<!-- parent{contents{[move_index] -->
<g id="node3" class="node"><title>parent{contents{[move_index]</title>
<path fill="#ff5e99" stroke="black" d="M321.5,-577C321.5,-577 28.5,-577 28.5,-577 22.5,-577 16.5,-571 16.5,-565 16.5,-565 16.5,-516 16.5,-516 16.5,-510 22.5,-504 28.5,-504 28.5,-504 321.5,-504 321.5,-504 327.5,-504 333.5,-510 333.5,-516 333.5,-516 333.5,-565 333.5,-565 333.5,-571 327.5,-577 321.5,-577"/>
<text text-anchor="middle" x="175" y="-536.8" font-family="Times New Roman,serif" font-size="14.00">parent{contents{[move_index]</text>
</g>
<!-- _Bnodes{lateral_left&#45;&gt;parent{contents{[move_index] -->
<g id="edge2" class="edge"><title>_Bnodes{lateral_left&#45;&gt;parent{contents{[move_index]</title>
<path fill="none" stroke="black" d="M175,-663.895C175,-644.947 175,-613.608 175,-587.386"/>
<polygon fill="black" stroke="black" points="178.5,-587.255 175,-577.255 171.5,-587.255 178.5,-587.255"/>
<text text-anchor="middle" x="307.5" y="-634.8" font-family="Times New Roman,serif" font-size="14.00">(move_index=parent_index&#45;1),</text>
<text text-anchor="middle" x="307.5" y="-619.8" font-family="Times New Roman,serif" font-size="14.00">{ downItem=parent{contents{[move_index]} }</text>
</g>
<!-- _Bnodes{children? -->
<g id="node2" class="node"><title>_Bnodes{children?</title>
<path fill="#ffce9f" stroke="black" d="M1493.7,-411.48C1493.7,-411.48 1386.3,-271.52 1386.3,-271.52 1382.65,-266.76 1382.65,-257.24 1386.3,-252.48 1386.3,-252.48 1493.7,-112.52 1493.7,-112.52 1497.35,-107.76 1504.65,-107.76 1508.3,-112.52 1508.3,-112.52 1615.7,-252.48 1615.7,-252.48 1619.35,-257.24 1619.35,-266.76 1615.7,-271.52 1615.7,-271.52 1508.3,-411.48 1508.3,-411.48 1504.65,-416.24 1497.35,-416.24 1493.7,-411.48"/>
<text text-anchor="middle" x="1501" y="-258.3" font-family="Times New Roman,serif" font-size="14.00">_Bnodes{children?</text>
</g>
<!-- _Bnodes{children{pop(0) -->
<g id="node7" class="node"><title>_Bnodes{children{pop(0)</title>
<path fill="#ff5e99" stroke="black" d="M1350.5,-558.5C1350.5,-558.5 363.5,-558.5 363.5,-558.5 357.5,-558.5 351.5,-552.5 351.5,-546.5 351.5,-546.5 351.5,-534.5 351.5,-534.5 351.5,-528.5 357.5,-522.5 363.5,-522.5 363.5,-522.5 1350.5,-522.5 1350.5,-522.5 1356.5,-522.5 1362.5,-528.5 1362.5,-534.5 1362.5,-534.5 1362.5,-546.5 1362.5,-546.5 1362.5,-552.5 1356.5,-558.5 1350.5,-558.5"/>
<text text-anchor="middle" x="857" y="-536.8" font-family="Times New Roman,serif" font-size="14.00">_Bnodes{children{pop(0)</text>
</g>
<!-- _Bnodes{children?&#45;&gt;_Bnodes{children{pop(0) -->
<g id="edge7" class="edge"><title>_Bnodes{children?&#45;&gt;_Bnodes{children{pop(0)</title>
<path fill="none" stroke="black" d="M1464.05,-373.171C1444.28,-415.284 1415.46,-459.51 1375,-486 1350.88,-501.793 1306.62,-513.038 1253.76,-521.02"/>
<polygon fill="black" stroke="black" points="1253.19,-517.567 1243.8,-522.473 1254.2,-524.494 1253.19,-517.567"/>
<text text-anchor="middle" x="1431" y="-442.8" font-family="Times New Roman,serif" font-size="14.00">Yes</text>
</g>
<!-- end -->
<g id="node9" class="node"><title>end</title>
<ellipse fill="none" stroke="black" cx="1430" cy="-34" rx="27" ry="18"/>
<text text-anchor="middle" x="1430" y="-30.3" font-family="Times New Roman,serif" font-size="14.00">end</text>
</g>
<!-- _Bnodes{children?&#45;&gt;end -->
<g id="edge10" class="edge"><title>_Bnodes{children?&#45;&gt;end</title>
<path fill="none" stroke="black" d="M1465.71,-148.662C1455.48,-116.103 1445.23,-83.4704 1438.35,-61.5776"/>
<polygon fill="black" stroke="black" points="1441.6,-60.2315 1435.26,-51.7403 1434.92,-62.3296 1441.6,-60.2315"/>
<text text-anchor="middle" x="1455.5" y="-73.8" font-family="Times New Roman,serif" font-size="14.00">NO</text>
</g>
<!-- parent{contents{[move_index]&#45;&gt;_Bnodes{children? -->
<g id="edge6" class="edge"><title>parent{contents{[move_index]&#45;&gt;_Bnodes{children?</title>
<path fill="none" stroke="#ea4f16" d="M333.546,-505.038C336.383,-504.669 339.203,-504.322 342,-504 443.351,-492.341 1161.6,-512.92 1260,-486 1316.63,-470.508 1330.32,-459.092 1375,-421 1397.45,-401.859 1418.74,-378.246 1437.22,-355.164"/>
<polygon fill="#ea4f16" stroke="#ea4f16" points="1440.19,-357.049 1443.64,-347.03 1434.7,-352.714 1440.19,-357.049"/>
</g>
<!-- left_sib{contents{append -->
<g id="node4" class="node"><title>left_sib{contents{append</title>
<path fill="#ff5e99" stroke="black" d="M185,-280C185,-280 49,-280 49,-280 43,-280 37,-274 37,-268 37,-268 37,-256 37,-256 37,-250 43,-244 49,-244 49,-244 185,-244 185,-244 191,-244 197,-250 197,-256 197,-256 197,-268 197,-268 197,-274 191,-280 185,-280"/>
<text text-anchor="middle" x="117" y="-258.3" font-family="Times New Roman,serif" font-size="14.00">left_sib{contents{append</text>
</g>
<!-- parent{contents{[move_index]&#45;&gt;left_sib{contents{append -->
<g id="edge3" class="edge"><title>parent{contents{[move_index]&#45;&gt;left_sib{contents{append</title>
<path fill="none" stroke="black" d="M167.536,-503.919C155.793,-447.934 133.255,-340.489 122.707,-290.206"/>
<polygon fill="black" stroke="black" points="126.066,-289.172 120.588,-280.104 119.215,-290.609 126.066,-289.172"/>
<text text-anchor="middle" x="196" y="-458.8" font-family="Times New Roman,serif" font-size="14.00">(downItem)</text>
</g>
<!-- _Bnodes{contents{pop(0) -->
<g id="node6" class="node"><title>_Bnodes{contents{pop(0)</title>
<path fill="#ff5e99" stroke="black" d="M191,-52C191,-52 49,-52 49,-52 43,-52 37,-46 37,-40 37,-40 37,-28 37,-28 37,-22 43,-16 49,-16 49,-16 191,-16 191,-16 197,-16 203,-22 203,-28 203,-28 203,-40 203,-40 203,-46 197,-52 191,-52"/>
<text text-anchor="middle" x="120" y="-30.3" font-family="Times New Roman,serif" font-size="14.00">_Bnodes{contents{pop(0)</text>
</g>
<!-- left_sib{contents{append&#45;&gt;_Bnodes{contents{pop(0) -->
<g id="edge4" class="edge"><title>left_sib{contents{append&#45;&gt;_Bnodes{contents{pop(0)</title>
<path fill="none" stroke="black" d="M114.356,-243.569C109.72,-212.028 100.304,-143.336 97,-85 96.623,-78.344 95.0892,-76.387 97,-70 97.9085,-66.9633 99.1745,-63.9459 100.65,-61.0293"/>
<polygon fill="black" stroke="black" points="103.82,-62.5453 105.895,-52.1558 97.7936,-58.9833 103.82,-62.5453"/>
<text text-anchor="middle" x="195.5" y="-73.8" font-family="Times New Roman,serif" font-size="14.00">upItem=_Bnodes{contents{pop(0)</text>
</g>
<!-- left_sib{children{append -->
<g id="node5" class="node"><title>left_sib{children{append</title>
<path fill="#ff5e99" stroke="black" d="M1171.5,-280C1171.5,-280 1038.5,-280 1038.5,-280 1032.5,-280 1026.5,-274 1026.5,-268 1026.5,-268 1026.5,-256 1026.5,-256 1026.5,-250 1032.5,-244 1038.5,-244 1038.5,-244 1171.5,-244 1171.5,-244 1177.5,-244 1183.5,-250 1183.5,-256 1183.5,-256 1183.5,-268 1183.5,-268 1183.5,-274 1177.5,-280 1171.5,-280"/>
<text text-anchor="middle" x="1105" y="-258.3" font-family="Times New Roman,serif" font-size="14.00">left_sib{children{append</text>
</g>
<!-- left_sib{children{append&#45;&gt;end -->
<g id="edge9" class="edge"><title>left_sib{children{append&#45;&gt;end</title>
<path fill="none" stroke="black" d="M1129.69,-243.828C1189.56,-202.199 1342.01,-96.1854 1403.6,-53.3604"/>
<polygon fill="black" stroke="black" points="1405.79,-56.0984 1412,-47.5157 1401.79,-50.3514 1405.79,-56.0984"/>
</g>
<!-- _Bnodes{contents{pop(0)&#45;&gt;parent{contents{[move_index] -->
<g id="edge5" class="edge"><title>_Bnodes{contents{pop(0)&#45;&gt;parent{contents{[move_index]</title>
<path fill="none" stroke="#ea4f16" d="M203.324,-41.7762C242.016,-46.827 282.091,-55.4575 294,-70 412.391,-214.577 320.672,-320.977 233,-486 231.224,-489.342 229.157,-492.586 226.881,-495.713"/>
<polygon fill="#ea4f16" stroke="#ea4f16" points="223.984,-493.73 220.426,-503.71 229.431,-498.127 223.984,-493.73"/>
<text text-anchor="middle" x="461" y="-258.3" font-family="Times New Roman,serif" font-size="14.00">parent{contents{[move_index]=upItem</text>
</g>
<!-- _Bnodes{children{pop(0)&#45;&gt;left_sib{children{append -->
<g id="edge8" class="edge"><title>_Bnodes{children{pop(0)&#45;&gt;left_sib{children{append</title>
<path fill="none" stroke="black" d="M872.514,-522.204C914.963,-474.876 1033.15,-343.103 1082.7,-287.865"/>
<polygon fill="black" stroke="black" points="1085.42,-290.071 1089.49,-280.29 1080.21,-285.397 1085.42,-290.071"/>
<text text-anchor="middle" x="1100.5" y="-458.8" font-family="Times New Roman,serif" font-size="14.00"> left_sib{children{append( _Bnodes{children{pop(0) ) </text>
</g>
<!-- start -->
<g id="node8" class="node"><title>start</title>
<ellipse fill="none" stroke="black" cx="175" cy="-769" rx="27" ry="18"/>
<text text-anchor="middle" x="175" y="-765.3" font-family="Times New Roman,serif" font-size="14.00">start</text>
</g>
<!-- start&#45;&gt;_Bnodes{lateral_left -->
<g id="edge1" class="edge"><title>start&#45;&gt;_Bnodes{lateral_left</title>
<path fill="none" stroke="black" d="M175,-750.799C175,-739.163 175,-723.548 175,-710.237"/>
<polygon fill="black" stroke="black" points="178.5,-710.175 175,-700.175 171.5,-710.175 178.5,-710.175"/>
<text text-anchor="middle" x="257.5" y="-721.8" font-family="Times New Roman,serif" font-size="14.00">(parent,parent_index,left_sib)</text>
</g>
</g>
</svg>
