<?xml version="1.0" encoding="UTF-8" standalone="no"?>
<!DOCTYPE svg PUBLIC "-//W3C//DTD SVG 1.1//EN"
 "http://www.w3.org/Graphics/SVG/1.1/DTD/svg11.dtd">
<!-- Generated by graphviz version 2.38.0 (20140413.2041)
 -->
<!-- Title: %3 Pages: 1 -->
<svg width="1742pt" height="1002pt"
 viewBox="0.00 0.00 1742.45 1002.00" xmlns="http://www.w3.org/2000/svg" xmlns:xlink="http://www.w3.org/1999/xlink">
<g id="graph0" class="graph" transform="scale(1 1) rotate(0) translate(4 998)">
<title>%3</title>
<polygon fill="white" stroke="none" points="-4,4 -4,-998 1738.45,-998 1738.45,4 -4,4"/>
<!-- []{insert -->
<g id="node1" class="node"><title>[]{insert</title>
<path fill="#ff5e99" stroke="black" d="M409.447,-994C409.447,-994 371.447,-994 371.447,-994 365.447,-994 359.447,-988 359.447,-982 359.447,-982 359.447,-970 359.447,-970 359.447,-964 365.447,-958 371.447,-958 371.447,-958 409.447,-958 409.447,-958 415.447,-958 421.447,-964 421.447,-970 421.447,-970 421.447,-982 421.447,-982 421.447,-988 415.447,-994 409.447,-994"/>
<text text-anchor="middle" x="390.447" y="-972.3" font-family="Times New Roman,serif" font-size="14.00">[]{insert</text>
</g>
<!-- _Bnodes{children -->
<g id="node4" class="node"><title>_Bnodes{children</title>
<path fill="#00e599" stroke="black" d="M212.84,-907C212.84,-907 58.0473,-907 58.0473,-907 52.0473,-907 41.3225,-903.302 36.5977,-899.604 36.5977,-899.604 9.50276,-878.396 9.50276,-878.396 4.77795,-874.698 6.05315,-871 12.0532,-871 12.0532,-871 166.846,-871 166.846,-871 172.846,-871 183.571,-874.698 188.296,-878.396 188.296,-878.396 215.391,-899.604 215.391,-899.604 220.116,-903.302 218.84,-907 212.84,-907"/>
<text text-anchor="middle" x="112.447" y="-885.3" font-family="Times New Roman,serif" font-size="14.00">_Bnodes{children</text>
</g>
<!-- []{insert&#45;&gt;_Bnodes{children -->
<g id="edge23" class="edge"><title>[]{insert&#45;&gt;_Bnodes{children</title>
<path fill="none" stroke="#aaffaa" d="M359.224,-973.389C289.653,-969.479 126.718,-958.432 110.447,-940 105.03,-933.864 103.871,-925.471 104.57,-917.315"/>
<polygon fill="#aaffaa" stroke="#aaffaa" points="108.047,-917.742 106.268,-907.297 101.146,-916.572 108.047,-917.742"/>
</g>
<!-- len(_Bnodes{contents) &gt; _Bnodes{tree{order -->
<g id="node9" class="node"><title>len(_Bnodes{contents) &gt; _Bnodes{tree{order</title>
<path fill="#ffce9f" stroke="black" d="M684.477,-906.147C684.477,-906.147 455.88,-889.853 455.88,-889.853 449.895,-889.427 449.895,-888.573 455.88,-888.147 455.88,-888.147 684.477,-871.853 684.477,-871.853 690.462,-871.427 702.432,-871.427 708.416,-871.853 708.416,-871.853 937.014,-888.147 937.014,-888.147 942.999,-888.573 942.999,-889.427 937.014,-889.853 937.014,-889.853 708.416,-906.147 708.416,-906.147 702.432,-906.573 690.462,-906.573 684.477,-906.147"/>
<text text-anchor="middle" x="696.447" y="-885.3" font-family="Times New Roman,serif" font-size="14.00">len(_Bnodes{contents) &gt; _Bnodes{tree{order</text>
</g>
<!-- []{insert&#45;&gt;len(_Bnodes{contents) &gt; _Bnodes{tree{order -->
<g id="edge4" class="edge"><title>[]{insert&#45;&gt;len(_Bnodes{contents) &gt; _Bnodes{tree{order</title>
<path fill="none" stroke="#fff00f" d="M421.472,-966.382C472.023,-952.34 572.985,-924.295 637.498,-906.375"/>
<polygon fill="#fff00f" stroke="#fff00f" points="638.827,-909.638 647.526,-903.589 636.954,-902.893 638.827,-909.638"/>
</g>
<!-- len(parent{contents) &gt; parent{tree{order -->
<g id="node16" class="node"><title>len(parent{contents) &gt; parent{tree{order</title>
<path fill="#ffce9f" stroke="black" d="M1352.49,-906.039C1352.49,-906.039 1152.36,-889.961 1152.36,-889.961 1146.38,-889.48 1146.38,-888.52 1152.36,-888.039 1152.36,-888.039 1352.49,-871.961 1352.49,-871.961 1358.47,-871.48 1370.43,-871.48 1376.41,-871.961 1376.41,-871.961 1576.53,-888.039 1576.53,-888.039 1582.52,-888.52 1582.52,-889.48 1576.53,-889.961 1576.53,-889.961 1376.41,-906.039 1376.41,-906.039 1370.43,-906.52 1358.47,-906.52 1352.49,-906.039"/>
<text text-anchor="middle" x="1364.45" y="-885.3" font-family="Times New Roman,serif" font-size="14.00">len(parent{contents) &gt; parent{tree{order</text>
</g>
<!-- []{insert&#45;&gt;len(parent{contents) &gt; parent{tree{order -->
<g id="edge25" class="edge"><title>[]{insert&#45;&gt;len(parent{contents) &gt; parent{tree{order</title>
<path fill="none" stroke="#ffaaaa" d="M421.452,-975.289C523.038,-975.861 854.908,-974.754 1126.45,-940 1187.64,-932.168 1256.51,-916.99 1304.36,-905.401"/>
<polygon fill="#ffaaaa" stroke="#ffaaaa" points="1305.35,-908.76 1314.24,-902.987 1303.69,-901.96 1305.35,-908.76"/>
</g>
<!-- _Bnodes{tree{BRANCH -->
<g id="node2" class="node"><title>_Bnodes{tree{BRANCH</title>
<path fill="#00e599" stroke="black" d="M739.076,-109C739.076,-109 523.459,-109 523.459,-109 517.459,-109 506.278,-105.974 501.097,-102.948 501.097,-102.948 460.18,-79.0518 460.18,-79.0518 454.999,-76.0259 455.818,-73 461.818,-73 461.818,-73 677.435,-73 677.435,-73 683.435,-73 694.616,-76.0259 699.797,-79.0518 699.797,-79.0518 740.713,-102.948 740.713,-102.948 745.895,-105.974 745.076,-109 739.076,-109"/>
<text text-anchor="middle" x="600.447" y="-87.3" font-family="Times New Roman,serif" font-size="14.00">_Bnodes{tree{BRANCH</text>
</g>
<!-- _Bnodes{contents -->
<g id="node3" class="node"><title>_Bnodes{contents</title>
<path fill="#00e599" stroke="black" d="M1073.56,-36C1073.56,-36 914.442,-36 914.442,-36 908.442,-36 897.674,-32.3567 892.907,-28.7135 892.907,-28.7135 864.87,-7.28652 864.87,-7.28652 860.102,-3.64326 861.335,-2.08506e-014 867.335,-2.0385e-014 867.335,-2.0385e-014 1026.45,-8.03669e-015 1026.45,-8.03669e-015 1032.45,-7.57106e-015 1043.22,-3.64326 1047.99,-7.28652 1047.99,-7.28652 1076.02,-28.7135 1076.02,-28.7135 1080.79,-32.3567 1079.56,-36 1073.56,-36"/>
<text text-anchor="middle" x="970.447" y="-14.3" font-family="Times New Roman,serif" font-size="14.00">_Bnodes{contents</text>
</g>
<!-- _Bnodes{tree{BRANCH&#45;&gt;_Bnodes{contents -->
<g id="edge20" class="edge"><title>_Bnodes{tree{BRANCH&#45;&gt;_Bnodes{contents</title>
<path fill="none" stroke="#aaffaa" d="M689.071,-72.9937C749.499,-61.3981 828.96,-46.1502 888.024,-34.8163"/>
<polygon fill="#aaffaa" stroke="#aaffaa" points="888.901,-38.212 898.062,-32.8901 887.581,-31.3374 888.901,-38.212"/>
</g>
<!-- _Bnodes{contents&#45;&gt;[]{insert -->
<g id="edge3" class="edge"><title>_Bnodes{contents&#45;&gt;[]{insert</title>
<path fill="none" stroke="#fff00f" d="M880.241,-19.1026C693.209,-20.5166 280.447,-30.39 280.447,-90 280.447,-890 280.447,-890 280.447,-890 280.447,-926.307 318.433,-949.296 349.76,-962.081"/>
<polygon fill="#fff00f" stroke="#fff00f" points="348.63,-965.396 359.219,-965.725 351.146,-958.864 348.63,-965.396"/>
<text text-anchor="middle" x="313.947" y="-486.3" font-family="Times New Roman,serif" font-size="14.00">(index,item)</text>
</g>
<!-- _Bnodes{contents&#45;&gt;[]{insert -->
<g id="edge22" class="edge"><title>_Bnodes{contents&#45;&gt;[]{insert</title>
<path fill="none" stroke="#00ffaa" d="M1066.34,-36.0436C1091.85,-46.4241 1112.45,-63.1264 1112.45,-90 1112.45,-890 1112.45,-890 1112.45,-890 1112.45,-959.023 585.274,-972.15 431.858,-974.509"/>
<polygon fill="#00ffaa" stroke="#00ffaa" points="431.418,-971.015 421.47,-974.661 431.52,-978.014 431.418,-971.015"/>
<text text-anchor="middle" x="1339.45" y="-493.8" font-family="Times New Roman,serif" font-size="14.00">(index=parent_index,push) </text>
<text text-anchor="middle" x="1339.45" y="-478.8" font-family="Times New Roman,serif" font-size="14.00"> {parent=_Bnodes{tree{BRANCH,parent_index=0,_Bnodes{tree{_root=parent}</text>
</g>
<!-- _Bnodes{children&#45;&gt;[]{insert -->
<g id="edge24" class="edge"><title>_Bnodes{children&#45;&gt;[]{insert</title>
<path fill="none" stroke="#ffaaaa" d="M114.17,-907.462C116.217,-918.496 120.687,-932.115 130.447,-940 163.168,-966.435 284.034,-972.944 348.808,-974.519"/>
<polygon fill="#ffaaaa" stroke="#ffaaaa" points="349.006,-978.024 359.079,-974.739 349.156,-971.026 349.006,-978.024"/>
<text text-anchor="middle" x="198.447" y="-928.8" font-family="Times New Roman,serif" font-size="14.00">(parent_index+1,sibling)</text>
</g>
<!-- _Bnodes{split -->
<g id="node5" class="node"><title>_Bnodes{split</title>
<path fill="#ffe599" stroke="black" d="M857.947,-283C857.947,-283 784.947,-283 784.947,-283 778.947,-283 772.947,-277 772.947,-271 772.947,-271 772.947,-259 772.947,-259 772.947,-253 778.947,-247 784.947,-247 784.947,-247 857.947,-247 857.947,-247 863.947,-247 869.947,-253 869.947,-259 869.947,-259 869.947,-271 869.947,-271 869.947,-277 863.947,-283 857.947,-283"/>
<text text-anchor="middle" x="821.447" y="-261.3" font-family="Times New Roman,serif" font-size="14.00">_Bnodes{split</text>
</g>
<!-- parent? -->
<g id="node12" class="node"><title>parent?</title>
<path fill="#ffce9f" stroke="black" d="M810.1,-192.094C810.1,-192.094 780.509,-181.906 780.509,-181.906 774.836,-179.953 774.836,-176.047 780.509,-174.094 780.509,-174.094 810.1,-163.906 810.1,-163.906 815.774,-161.953 827.12,-161.953 832.793,-163.906 832.793,-163.906 862.385,-174.094 862.385,-174.094 868.058,-176.047 868.058,-179.953 862.385,-181.906 862.385,-181.906 832.793,-192.094 832.793,-192.094 827.12,-194.047 815.774,-194.047 810.1,-192.094"/>
<text text-anchor="middle" x="821.447" y="-174.3" font-family="Times New Roman,serif" font-size="14.00">parent?</text>
</g>
<!-- _Bnodes{split&#45;&gt;parent? -->
<g id="edge18" class="edge"><title>_Bnodes{split&#45;&gt;parent?</title>
<path fill="none" stroke="#00ff00" d="M821.447,-246.799C821.447,-235.163 821.447,-219.548 821.447,-206.237"/>
<polygon fill="#00ff00" stroke="#00ff00" points="824.947,-206.175 821.447,-196.175 817.947,-206.175 824.947,-206.175"/>
<text text-anchor="middle" x="902.447" y="-217.8" font-family="Times New Roman,serif" font-size="14.00">sibling,push=_Bnodes.split()</text>
</g>
<!-- _Bnodes{insert -->
<g id="node6" class="node"><title>_Bnodes{insert</title>
<path fill="#ffe599" stroke="black" d="M1621.45,-820C1621.45,-820 1541.45,-820 1541.45,-820 1535.45,-820 1529.45,-814 1529.45,-808 1529.45,-808 1529.45,-796 1529.45,-796 1529.45,-790 1535.45,-784 1541.45,-784 1541.45,-784 1621.45,-784 1621.45,-784 1627.45,-784 1633.45,-790 1633.45,-796 1633.45,-796 1633.45,-808 1633.45,-808 1633.45,-814 1627.45,-820 1621.45,-820"/>
<text text-anchor="middle" x="1581.45" y="-798.3" font-family="Times New Roman,serif" font-size="14.00">_Bnodes{insert</text>
</g>
<!-- _Bnodes{insert&#45;&gt;_Bnodes{contents -->
<g id="edge2" class="edge"><title>_Bnodes{insert&#45;&gt;_Bnodes{contents</title>
<path fill="none" stroke="#fff00f" d="M1581.45,-783.744C1581.45,-766.57 1581.45,-739.464 1581.45,-716 1581.45,-716 1581.45,-716 1581.45,-90 1581.45,-39.6764 1250.19,-24.9675 1075.5,-20.7095"/>
<polygon fill="#fff00f" stroke="#fff00f" points="1075.33,-17.2046 1065.25,-20.4673 1075.16,-24.2026 1075.33,-17.2046"/>
</g>
<!-- _Bnodes{insert&#45;&gt;_Bnodes{contents -->
<g id="edge7" class="edge"><title>_Bnodes{insert&#45;&gt;_Bnodes{contents</title>
<path fill="none" stroke="#00ff00" d="M1594.31,-783.766C1605.34,-767.264 1619.45,-741.217 1619.45,-716 1619.45,-716 1619.45,-716 1619.45,-90 1619.45,-35.8734 1258.12,-22.9914 1074.68,-19.9391"/>
<polygon fill="#00ff00" stroke="#00ff00" points="1074.52,-16.4363 1064.47,-19.7763 1074.41,-23.4354 1074.52,-16.4363"/>
<text text-anchor="middle" x="1652.95" y="-391.8" font-family="Times New Roman,serif" font-size="14.00">(index,item)</text>
</g>
<!-- end -->
<g id="node18" class="node"><title>end</title>
<ellipse fill="none" stroke="black" cx="1364.45" cy="-715" rx="27" ry="18"/>
<text text-anchor="middle" x="1364.45" y="-711.3" font-family="Times New Roman,serif" font-size="14.00">end</text>
</g>
<!-- _Bnodes{insert&#45;&gt;end -->
<g id="edge27" class="edge"><title>_Bnodes{insert&#45;&gt;end</title>
<path fill="none" stroke="#ffaaaa" d="M1537.79,-783.901C1495.99,-767.524 1433.88,-743.199 1396.47,-728.543"/>
<polygon fill="#ffaaaa" stroke="#ffaaaa" points="1397.65,-725.247 1387.06,-724.858 1395.1,-731.765 1397.65,-725.247"/>
</g>
<!-- _Bnodes{shrink -->
<g id="node7" class="node"><title>_Bnodes{shrink</title>
<path fill="#ffe599" stroke="black" d="M737.947,-820C737.947,-820 654.947,-820 654.947,-820 648.947,-820 642.947,-814 642.947,-808 642.947,-808 642.947,-796 642.947,-796 642.947,-790 648.947,-784 654.947,-784 654.947,-784 737.947,-784 737.947,-784 743.947,-784 749.947,-790 749.947,-796 749.947,-796 749.947,-808 749.947,-808 749.947,-814 743.947,-820 737.947,-820"/>
<text text-anchor="middle" x="696.447" y="-798.3" font-family="Times New Roman,serif" font-size="14.00">_Bnodes{shrink</text>
</g>
<!-- ancestors? -->
<g id="node10" class="node"><title>ancestors?</title>
<path fill="#ffce9f" stroke="black" d="M684.828,-730C684.828,-730 638.354,-718 638.354,-718 632.544,-716.5 632.544,-713.5 638.354,-712 638.354,-712 684.828,-700 684.828,-700 690.637,-698.5 702.256,-698.5 708.066,-700 708.066,-700 754.54,-712 754.54,-712 760.35,-713.5 760.35,-716.5 754.54,-718 754.54,-718 708.066,-730 708.066,-730 702.256,-731.5 690.637,-731.5 684.828,-730"/>
<text text-anchor="middle" x="696.447" y="-711.3" font-family="Times New Roman,serif" font-size="14.00">ancestors?</text>
</g>
<!-- _Bnodes{shrink&#45;&gt;ancestors? -->
<g id="edge8" class="edge"><title>_Bnodes{shrink&#45;&gt;ancestors?</title>
<path fill="none" stroke="#00ff00" d="M696.447,-783.799C696.447,-772.163 696.447,-756.548 696.447,-743.237"/>
<polygon fill="#00ff00" stroke="#00ff00" points="699.947,-743.175 696.447,-733.175 692.947,-743.175 699.947,-743.175"/>
<text text-anchor="middle" x="736.947" y="-754.8" font-family="Times New Roman,serif" font-size="14.00">parent = None</text>
</g>
<!-- _Bnodes{lateral -->
<g id="node8" class="node"><title>_Bnodes{lateral</title>
<path fill="#ffe599" stroke="black" d="M426.447,-283C426.447,-283 344.447,-283 344.447,-283 338.447,-283 332.447,-277 332.447,-271 332.447,-271 332.447,-259 332.447,-259 332.447,-253 338.447,-247 344.447,-247 344.447,-247 426.447,-247 426.447,-247 432.447,-247 438.447,-253 438.447,-259 438.447,-259 438.447,-271 438.447,-271 438.447,-277 432.447,-283 426.447,-283"/>
<text text-anchor="middle" x="385.447" y="-261.3" font-family="Times New Roman,serif" font-size="14.00">_Bnodes{lateral</text>
</g>
<!-- len(_Bnodes{contents) &gt; _Bnodes{tree{order&#45;&gt;_Bnodes{shrink -->
<g id="edge6" class="edge"><title>len(_Bnodes{contents) &gt; _Bnodes{tree{order&#45;&gt;_Bnodes{shrink</title>
<path fill="none" stroke="#00ff00" d="M696.447,-870.799C696.447,-859.163 696.447,-843.548 696.447,-830.237"/>
<polygon fill="#00ff00" stroke="#00ff00" points="699.947,-830.175 696.447,-820.175 692.947,-830.175 699.947,-830.175"/>
<text text-anchor="middle" x="740.447" y="-841.8" font-family="Times New Roman,serif" font-size="14.00">Yes (ancestors)</text>
</g>
<!-- len(_Bnodes{contents) &gt; _Bnodes{tree{order&#45;&gt;end -->
<g id="edge5" class="edge"><title>len(_Bnodes{contents) &gt; _Bnodes{tree{order&#45;&gt;end</title>
<path fill="none" stroke="#fff00f" d="M748.308,-874.647C879.12,-840.964 1219.89,-753.222 1329.76,-724.932"/>
<polygon fill="#fff00f" stroke="#fff00f" points="1330.84,-728.266 1339.66,-722.383 1329.1,-721.488 1330.84,-728.266"/>
<text text-anchor="middle" x="1105.45" y="-798.3" font-family="Times New Roman,serif" font-size="14.00">No</text>
</g>
<!-- parent_index? -->
<g id="node11" class="node"><title>parent_index?</title>
<path fill="#ffce9f" stroke="black" d="M684.695,-643.572C684.695,-643.572 621.058,-630.428 621.058,-630.428 615.183,-629.214 615.183,-626.786 621.058,-625.572 621.058,-625.572 684.695,-612.428 684.695,-612.428 690.571,-611.214 702.323,-611.214 708.199,-612.428 708.199,-612.428 771.835,-625.572 771.835,-625.572 777.711,-626.786 777.711,-629.214 771.835,-630.428 771.835,-630.428 708.199,-643.572 708.199,-643.572 702.323,-644.786 690.571,-644.786 684.695,-643.572"/>
<text text-anchor="middle" x="696.447" y="-624.3" font-family="Times New Roman,serif" font-size="14.00">parent_index?</text>
</g>
<!-- ancestors?&#45;&gt;parent_index? -->
<g id="edge9" class="edge"><title>ancestors?&#45;&gt;parent_index?</title>
<path fill="none" stroke="#00ff00" d="M696.447,-696.799C696.447,-685.163 696.447,-669.548 696.447,-656.237"/>
<polygon fill="#00ff00" stroke="#00ff00" points="699.947,-656.175 696.447,-646.175 692.947,-656.175 699.947,-656.175"/>
<text text-anchor="middle" x="822.947" y="-667.8" font-family="Times New Roman,serif" font-size="14.00">Yes (parent, parent_index = ancestors.pop())</text>
</g>
<!-- len(left_sib{contents) &lt; _Bnodes{tree{order -->
<g id="node13" class="node"><title>len(left_sib{contents) &lt; _Bnodes{tree{order</title>
<path fill="#ffce9f" stroke="black" d="M540.479,-558.119C540.479,-558.119 319.923,-541.881 319.923,-541.881 313.939,-541.441 313.939,-540.559 319.923,-540.119 319.923,-540.119 540.479,-523.881 540.479,-523.881 546.463,-523.441 558.431,-523.441 564.414,-523.881 564.414,-523.881 784.971,-540.119 784.971,-540.119 790.955,-540.559 790.955,-541.441 784.971,-541.881 784.971,-541.881 564.414,-558.119 564.414,-558.119 558.431,-558.559 546.463,-558.559 540.479,-558.119"/>
<text text-anchor="middle" x="552.447" y="-537.3" font-family="Times New Roman,serif" font-size="14.00">len(left_sib{contents) &lt; _Bnodes{tree{order</text>
</g>
<!-- parent_index?&#45;&gt;len(left_sib{contents) &lt; _Bnodes{tree{order -->
<g id="edge12" class="edge"><title>parent_index?&#45;&gt;len(left_sib{contents) &lt; _Bnodes{tree{order</title>
<path fill="none" stroke="#00ff00" d="M640.116,-621.621C601.012,-616.586 553.806,-607.461 541.447,-592 536.022,-585.214 536.344,-576.32 538.814,-567.918"/>
<polygon fill="#00ff00" stroke="#00ff00" points="542.139,-569.025 542.487,-558.435 535.611,-566.497 542.139,-569.025"/>
<text text-anchor="middle" x="679.947" y="-580.8" font-family="Times New Roman,serif" font-size="14.00">Yes (left_sib = parent{children[parent_index &#45; 1])</text>
</g>
<!-- parent_index + 1 &lt; len(parent{children) -->
<g id="node15" class="node"><title>parent_index + 1 &lt; len(parent{children)</title>
<path fill="#ffce9f" stroke="black" d="M785.488,-456.011C785.488,-456.011 591.725,-439.989 591.725,-439.989 585.746,-439.494 585.746,-438.506 591.725,-438.011 591.725,-438.011 785.488,-421.989 785.488,-421.989 791.467,-421.494 803.426,-421.494 809.406,-421.989 809.406,-421.989 1003.17,-438.011 1003.17,-438.011 1009.15,-438.506 1009.15,-439.494 1003.17,-439.989 1003.17,-439.989 809.406,-456.011 809.406,-456.011 803.426,-456.506 791.467,-456.506 785.488,-456.011"/>
<text text-anchor="middle" x="797.447" y="-435.3" font-family="Times New Roman,serif" font-size="14.00">parent_index + 1 &lt; len(parent{children)</text>
</g>
<!-- parent_index?&#45;&gt;parent_index + 1 &lt; len(parent{children) -->
<g id="edge10" class="edge"><title>parent_index?&#45;&gt;parent_index + 1 &lt; len(parent{children)</title>
<path fill="none" stroke="#00ff00" d="M762.052,-623.524C783.455,-618.881 805.121,-609.687 818.447,-592 849.739,-550.469 832.327,-525.113 818.447,-475 817.511,-471.62 816.151,-468.238 814.567,-464.982"/>
<polygon fill="#00ff00" stroke="#00ff00" points="817.614,-463.258 809.674,-456.243 811.506,-466.678 817.614,-463.258"/>
<text text-anchor="middle" x="961.447" y="-537.3" font-family="Times New Roman,serif" font-size="14.00">NO (parent, parent_index = ancestors.pop())</text>
</g>
<!-- parent?&#45;&gt;_Bnodes{tree{BRANCH -->
<g id="edge19" class="edge"><title>parent?&#45;&gt;_Bnodes{tree{BRANCH</title>
<path fill="none" stroke="#00ff00" d="M769.637,-177.789C701.203,-177.593 586.196,-172.56 559.447,-142 552.111,-133.619 556.62,-124.224 564.895,-115.86"/>
<polygon fill="#00ff00" stroke="#00ff00" points="567.358,-118.354 572.554,-109.121 562.734,-113.099 567.358,-118.354"/>
<text text-anchor="middle" x="686.947" y="-130.8" font-family="Times New Roman,serif" font-size="14.00">NO (tree=_Bnodes{tree,children=[_Bnodes])</text>
</g>
<!-- parent?&#45;&gt;_Bnodes{contents -->
<g id="edge21" class="edge"><title>parent?&#45;&gt;_Bnodes{contents</title>
<path fill="none" stroke="#aaffaa" d="M820.305,-160.232C819.695,-137.842 821.926,-98.0976 842.447,-73 855.05,-57.5859 872.835,-46.4977 891.15,-38.5482"/>
<polygon fill="#aaffaa" stroke="#aaffaa" points="892.499,-41.7781 900.456,-34.7821 889.873,-35.2894 892.499,-41.7781"/>
<text text-anchor="middle" x="970.447" y="-87.3" font-family="Times New Roman,serif" font-size="14.00">Yes (tree=_Bnodes{tree,children=[_Bnodes])</text>
</g>
<!-- len(left_sib{contents) &lt; _Bnodes{tree{order&#45;&gt;_Bnodes{lateral -->
<g id="edge13" class="edge"><title>len(left_sib{contents) &lt; _Bnodes{tree{order&#45;&gt;_Bnodes{lateral</title>
<path fill="none" stroke="#00ff00" d="M519.318,-525.361C477.546,-504.846 407.661,-463.184 378.447,-403 361.404,-367.89 369.049,-321.591 376.759,-292.815"/>
<polygon fill="#00ff00" stroke="#00ff00" points="380.164,-293.637 379.556,-283.06 373.435,-291.708 380.164,-293.637"/>
<text text-anchor="middle" x="567.447" y="-391.8" font-family="Times New Roman,serif" font-size="14.00">Yes (parent,parent_index,dest=left_sib,dest_index=parent_index&#45;1)</text>
</g>
<!-- len(left_sib{contents) &lt; _Bnodes{tree{order&#45;&gt;parent_index + 1 &lt; len(parent{children) -->
<g id="edge11" class="edge"><title>len(left_sib{contents) &lt; _Bnodes{tree{order&#45;&gt;parent_index + 1 &lt; len(parent{children)</title>
<path fill="none" stroke="#00ff00" d="M551.175,-523.065C551.059,-508.225 553.494,-487.176 566.447,-475 581.187,-461.143 619.514,-452.771 660.808,-447.713"/>
<polygon fill="#00ff00" stroke="#00ff00" points="661.254,-451.185 670.786,-446.56 660.45,-444.231 661.254,-451.185"/>
<text text-anchor="middle" x="692.447" y="-486.3" font-family="Times New Roman,serif" font-size="14.00">NO (parent, parent_index = ancestors.pop())</text>
</g>
<!-- len(right_sib{contents) &lt; _Bnodes{tree{order -->
<g id="node14" class="node"><title>len(right_sib{contents) &lt; _Bnodes{tree{order</title>
<path fill="#ffce9f" stroke="black" d="M751.477,-369.144C751.477,-369.144 523.718,-352.856 523.718,-352.856 517.733,-352.428 517.733,-351.572 523.718,-351.144 523.718,-351.144 751.477,-334.856 751.477,-334.856 757.462,-334.428 769.432,-334.428 775.416,-334.856 775.416,-334.856 1003.18,-351.144 1003.18,-351.144 1009.16,-351.572 1009.16,-352.428 1003.18,-352.856 1003.18,-352.856 775.416,-369.144 775.416,-369.144 769.432,-369.572 757.462,-369.572 751.477,-369.144"/>
<text text-anchor="middle" x="763.447" y="-348.3" font-family="Times New Roman,serif" font-size="14.00">len(right_sib{contents) &lt; _Bnodes{tree{order</text>
</g>
<!-- len(right_sib{contents) &lt; _Bnodes{tree{order&#45;&gt;_Bnodes{split -->
<g id="edge17" class="edge"><title>len(right_sib{contents) &lt; _Bnodes{tree{order&#45;&gt;_Bnodes{split</title>
<path fill="none" stroke="#00ff00" d="M779.686,-335.017C785.051,-329.292 790.824,-322.613 795.447,-316 800.548,-308.703 805.308,-300.275 809.324,-292.444"/>
<polygon fill="#00ff00" stroke="#00ff00" points="812.548,-293.819 813.828,-283.302 806.269,-290.725 812.548,-293.819"/>
<text text-anchor="middle" x="812.447" y="-304.8" font-family="Times New Roman,serif" font-size="14.00">No</text>
</g>
<!-- len(right_sib{contents) &lt; _Bnodes{tree{order&#45;&gt;_Bnodes{lateral -->
<g id="edge15" class="edge"><title>len(right_sib{contents) &lt; _Bnodes{tree{order&#45;&gt;_Bnodes{lateral</title>
<path fill="none" stroke="#00ff00" d="M625.569,-343.81C533.983,-337.936 427.374,-328.554 409.447,-316 401.539,-310.462 396.144,-301.592 392.506,-292.85"/>
<polygon fill="#00ff00" stroke="#00ff00" points="395.735,-291.483 389.106,-283.218 389.134,-293.813 395.735,-291.483"/>
<text text-anchor="middle" x="600.447" y="-304.8" font-family="Times New Roman,serif" font-size="14.00">Yes (parent,parent_index,dest=left_sib,dest_index=parent_index+1)</text>
</g>
<!-- parent_index + 1 &lt; len(parent{children)&#45;&gt;_Bnodes{split -->
<g id="edge16" class="edge"><title>parent_index + 1 &lt; len(parent{children)&#45;&gt;_Bnodes{split</title>
<path fill="none" stroke="#00ff00" d="M950.695,-433.64C996.623,-428.892 1038.74,-419.857 1053.45,-403 1109.95,-338.246 965.857,-295.874 879.992,-277.11"/>
<polygon fill="#00ff00" stroke="#00ff00" points="880.593,-273.659 870.082,-274.992 879.13,-280.505 880.593,-273.659"/>
<text text-anchor="middle" x="1074.45" y="-348.3" font-family="Times New Roman,serif" font-size="14.00">No</text>
</g>
<!-- parent_index + 1 &lt; len(parent{children)&#45;&gt;len(right_sib{contents) &lt; _Bnodes{tree{order -->
<g id="edge14" class="edge"><title>parent_index + 1 &lt; len(parent{children)&#45;&gt;len(right_sib{contents) &lt; _Bnodes{tree{order</title>
<path fill="none" stroke="#00ff00" d="M778.095,-422.421C772.655,-416.916 767.417,-410.267 764.447,-403 761.511,-395.817 760.503,-387.555 760.435,-379.843"/>
<polygon fill="#00ff00" stroke="#00ff00" points="763.933,-379.952 760.832,-369.821 756.939,-379.675 763.933,-379.952"/>
<text text-anchor="middle" x="908.947" y="-391.8" font-family="Times New Roman,serif" font-size="14.00">Yes (right_sib = parent{children[parent_index + 1])</text>
</g>
<!-- len(parent{contents) &gt; parent{tree{order&#45;&gt;_Bnodes{insert -->
<g id="edge26" class="edge"><title>len(parent{contents) &gt; parent{tree{order&#45;&gt;_Bnodes{insert</title>
<path fill="none" stroke="#ffaaaa" d="M1400.77,-873.773C1435.66,-860.107 1488.77,-839.304 1528.39,-823.784"/>
<polygon fill="#ffaaaa" stroke="#ffaaaa" points="1529.86,-826.965 1537.9,-820.059 1527.31,-820.448 1529.86,-826.965"/>
<text text-anchor="middle" x="1529.45" y="-841.8" font-family="Times New Roman,serif" font-size="14.00">Yes (ancestors)</text>
</g>
<!-- len(parent{contents) &gt; parent{tree{order&#45;&gt;end -->
<g id="edge28" class="edge"><title>len(parent{contents) &gt; parent{tree{order&#45;&gt;end</title>
<path fill="none" stroke="#ffaaaa" d="M1364.45,-870.879C1364.45,-841.001 1364.45,-779.113 1364.45,-743.274"/>
<polygon fill="#ffaaaa" stroke="#ffaaaa" points="1367.95,-743.052 1364.45,-733.052 1360.95,-743.052 1367.95,-743.052"/>
<text text-anchor="middle" x="1374.95" y="-798.3" font-family="Times New Roman,serif" font-size="14.00">NO</text>
</g>
<!-- start -->
<g id="node17" class="node"><title>start</title>
<ellipse fill="none" stroke="black" cx="1633.45" cy="-889" rx="27" ry="18"/>
<text text-anchor="middle" x="1633.45" y="-885.3" font-family="Times New Roman,serif" font-size="14.00">start</text>
</g>
<!-- start&#45;&gt;_Bnodes{insert -->
<g id="edge1" class="edge"><title>start&#45;&gt;_Bnodes{insert</title>
<path fill="none" stroke="black" d="M1623.67,-872.012C1616.23,-859.862 1605.85,-842.898 1597.25,-828.83"/>
<polygon fill="black" stroke="black" points="1600.1,-826.787 1591.9,-820.083 1594.13,-830.44 1600.1,-826.787"/>
<text text-anchor="middle" x="1672.45" y="-841.8" font-family="Times New Roman,serif" font-size="14.00">(index,item,ancestors)</text>
</g>
</g>
</svg>
