<?xml version="1.0" encoding="UTF-8" standalone="no"?>
<!DOCTYPE svg PUBLIC "-//W3C//DTD SVG 1.1//EN"
 "http://www.w3.org/Graphics/SVG/1.1/DTD/svg11.dtd">
<!-- Generated by graphviz version 2.38.0 (20140413.2041)
 -->
<!-- Title: %3 Pages: 1 -->
<svg width="1058pt" height="698pt"
 viewBox="0.00 0.00 1057.64 698.00" xmlns="http://www.w3.org/2000/svg" xmlns:xlink="http://www.w3.org/1999/xlink">
<g id="graph0" class="graph" transform="scale(1 1) rotate(0) translate(4 694)">
<title>%3</title>
<polygon fill="white" stroke="none" points="-4,4 -4,-694 1053.64,-694 1053.64,4 -4,4"/>
<!-- []{append -->
<g id="node1" class="node"><title>[]{append</title>
<path fill="#ff5e99" stroke="black" d="M624.637,-690C624.637,-690 574.637,-690 574.637,-690 568.637,-690 562.637,-684 562.637,-678 562.637,-678 562.637,-666 562.637,-666 562.637,-660 568.637,-654 574.637,-654 574.637,-654 624.637,-654 624.637,-654 630.637,-654 636.637,-660 636.637,-666 636.637,-666 636.637,-678 636.637,-678 636.637,-684 630.637,-690 624.637,-690"/>
<text text-anchor="middle" x="599.637" y="-668.3" font-family="Times New Roman,serif" font-size="14.00">[]{append</text>
</g>
<!-- index &lt; len(current{contents) -->
<g id="node4" class="node"><title>index &lt; len(current{contents)</title>
<path fill="#ffce9f" stroke="black" d="M316.708,-615.702C316.708,-615.702 175.17,-600.298 175.17,-600.298 169.206,-599.649 169.206,-598.351 175.17,-597.702 175.17,-597.702 316.708,-582.298 316.708,-582.298 322.673,-581.649 334.602,-581.649 340.567,-582.298 340.567,-582.298 482.105,-597.702 482.105,-597.702 488.069,-598.351 488.069,-599.649 482.105,-600.298 482.105,-600.298 340.567,-615.702 340.567,-615.702 334.602,-616.351 322.673,-616.351 316.708,-615.702"/>
<text text-anchor="middle" x="328.637" y="-595.3" font-family="Times New Roman,serif" font-size="14.00">index &lt; len(current{contents)</text>
</g>
<!-- []{append&#45;&gt;index &lt; len(current{contents) -->
<g id="edge7" class="edge"><title>[]{append&#45;&gt;index &lt; len(current{contents)</title>
<path fill="none" stroke="#0000ff" d="M562.524,-661.277C516.63,-649.253 438.065,-628.669 384.781,-614.709"/>
<polygon fill="#0000ff" stroke="#0000ff" points="385.37,-611.245 374.809,-612.097 383.596,-618.017 385.37,-611.245"/>
</g>
<!-- end -->
<g id="node10" class="node"><title>end</title>
<ellipse fill="none" stroke="black" cx="534.637" cy="-393" rx="27" ry="18"/>
<text text-anchor="middle" x="534.637" y="-389.3" font-family="Times New Roman,serif" font-size="14.00">end</text>
</g>
<!-- []{append&#45;&gt;end -->
<g id="edge14" class="edge"><title>[]{append&#45;&gt;end</title>
<path fill="none" stroke="#0000ff" d="M584.196,-653.848C567.246,-633.759 541.058,-598.666 530.637,-563 516.526,-514.703 523.11,-455.298 528.998,-421.324"/>
<polygon fill="#0000ff" stroke="#0000ff" points="532.487,-421.703 530.859,-411.234 525.603,-420.434 532.487,-421.703"/>
<text text-anchor="middle" x="554.137" y="-535.8" font-family="Times New Roman,serif" font-size="14.00">ancestry</text>
</g>
<!-- []{append&#45;&gt;end -->
<g id="edge17" class="edge"><title>[]{append&#45;&gt;end</title>
<path fill="none" stroke="#00ff00" d="M597.721,-653.726C594.606,-627.288 587.754,-575.301 577.637,-532 568.424,-492.564 553.738,-448.007 544.141,-420.458"/>
<polygon fill="#00ff00" stroke="#00ff00" points="547.356,-419.049 540.735,-410.778 540.753,-421.373 547.356,-419.049"/>
<text text-anchor="middle" x="608.137" y="-543.8" font-family="Times New Roman,serif" font-size="14.00">ancestry</text>
</g>
<!-- Btree{_root -->
<g id="node2" class="node"><title>Btree{_root</title>
<path fill="#00e599" stroke="black" d="M985.591,-261C985.591,-261 876.039,-261 876.039,-261 870.039,-261 862.877,-255.114 861.715,-249.227 861.715,-249.227 832.008,-98.7727 832.008,-98.7727 830.846,-92.8864 835.683,-87 841.683,-87 841.683,-87 951.236,-87 951.236,-87 957.236,-87 964.398,-92.8864 965.56,-98.7727 965.56,-98.7727 995.267,-249.227 995.267,-249.227 996.429,-255.114 991.591,-261 985.591,-261"/>
<text text-anchor="middle" x="913.637" y="-170.3" font-family="Times New Roman,serif" font-size="14.00">Btree{_root</text>
</g>
<!-- ancestry -->
<g id="node8" class="node"><title>ancestry</title>
<path fill="#00e599" stroke="black" d="M690.708,-36C690.708,-36 619.149,-36 619.149,-36 613.149,-36 603.766,-31.045 600.382,-26.09 600.382,-26.09 589.334,-9.91002 589.334,-9.91002 585.951,-4.95501 588.567,-2.0424e-014 594.567,-1.95317e-014 594.567,-1.95317e-014 666.126,-8.88999e-015 666.126,-8.88999e-015 672.126,-7.99771e-015 681.509,-4.95501 684.893,-9.91002 684.893,-9.91002 695.941,-26.09 695.941,-26.09 699.324,-31.045 696.708,-36 690.708,-36"/>
<text text-anchor="middle" x="642.637" y="-14.3" font-family="Times New Roman,serif" font-size="14.00">ancestry</text>
</g>
<!-- Btree{_root&#45;&gt;ancestry -->
<g id="edge3" class="edge"><title>Btree{_root&#45;&gt;ancestry</title>
<path fill="none" stroke="black" d="M853.018,-86.9156C840.898,-74.3315 827.323,-62.7044 812.637,-54 779.514,-34.3677 737.103,-25.614 702.928,-21.7702"/>
<polygon fill="black" stroke="black" points="702.907,-18.2504 692.606,-20.7284 702.204,-25.215 702.907,-18.2504"/>
<text text-anchor="middle" x="868.637" y="-57.8" font-family="Times New Roman,serif" font-size="14.00">ancestry = []</text>
</g>
<!-- getattr(current,&#39;children&#39;,None) -->
<g id="node3" class="node"><title>getattr(current,&#39;children&#39;,None)</title>
<path fill="#ffce9f" stroke="black" d="M305.703,-409.749C305.703,-409.749 157.807,-394.251 157.807,-394.251 151.84,-393.625 151.84,-392.375 157.807,-391.749 157.807,-391.749 305.703,-376.251 305.703,-376.251 311.67,-375.625 323.605,-375.625 329.572,-376.251 329.572,-376.251 477.468,-391.749 477.468,-391.749 483.435,-392.375 483.435,-393.625 477.468,-394.251 477.468,-394.251 329.572,-409.749 329.572,-409.749 323.605,-410.375 311.67,-410.375 305.703,-409.749"/>
<text text-anchor="middle" x="317.637" y="-389.3" font-family="Times New Roman,serif" font-size="14.00">getattr(current,&#39;children&#39;,None)</text>
</g>
<!-- bisect{bisect_left -->
<g id="node7" class="node"><title>bisect{bisect_left</title>
<path fill="#ffe599" stroke="black" d="M434.637,-192C434.637,-192 344.637,-192 344.637,-192 338.637,-192 332.637,-186 332.637,-180 332.637,-180 332.637,-168 332.637,-168 332.637,-162 338.637,-156 344.637,-156 344.637,-156 434.637,-156 434.637,-156 440.637,-156 446.637,-162 446.637,-168 446.637,-168 446.637,-180 446.637,-180 446.637,-186 440.637,-192 434.637,-192"/>
<text text-anchor="middle" x="389.637" y="-170.3" font-family="Times New Roman,serif" font-size="14.00">bisect{bisect_left</text>
</g>
<!-- getattr(current,&#39;children&#39;,None)&#45;&gt;bisect{bisect_left -->
<g id="edge5" class="edge"><title>getattr(current,&#39;children&#39;,None)&#45;&gt;bisect{bisect_left</title>
<path fill="none" stroke="#00ff00" d="M209.036,-386.33C128.162,-380.964 29.5823,-371.537 16.6375,-357 -6.4165,-331.11 -4.32689,-306.609 16.6375,-279 53.4978,-230.456 225.286,-198.502 322.361,-183.992"/>
<polygon fill="#00ff00" stroke="#00ff00" points="322.993,-187.437 332.377,-182.517 321.974,-180.511 322.993,-187.437"/>
<text text-anchor="middle" x="159.137" y="-321.8" font-family="Times New Roman,serif" font-size="14.00">NO,(current.contents,item)</text>
<text text-anchor="middle" x="159.137" y="-306.8" font-family="Times New Roman,serif" font-size="14.00"> &#160;&#160;&#160;index = bisect.bisect_left(current{contents,item)</text>
</g>
<!-- getattr(current,&#39;children&#39;,None)&#45;&gt;bisect{bisect_left -->
<g id="edge6" class="edge"><title>getattr(current,&#39;children&#39;,None)&#45;&gt;bisect{bisect_left</title>
<path fill="none" stroke="#0000ff" d="M316.143,-375.058C314.721,-352.533 314.137,-311.755 324.637,-279 334.079,-249.55 353.731,-220.039 368.969,-200.016"/>
<polygon fill="#0000ff" stroke="#0000ff" points="371.796,-202.082 375.186,-192.044 366.276,-197.777 371.796,-202.082"/>
<text text-anchor="middle" x="467.137" y="-297.8" font-family="Times New Roman,serif" font-size="14.00">Yes,(current.contents,item)</text>
<text text-anchor="middle" x="467.137" y="-282.8" font-family="Times New Roman,serif" font-size="14.00"> &#160;&#160;&#160;index = bisect.bisect_left(current{contents,item)</text>
</g>
<!-- index &lt; len(current{contents)&#45;&gt;getattr(current,&#39;children&#39;,None) -->
<g id="edge8" class="edge"><title>index &lt; len(current{contents)&#45;&gt;getattr(current,&#39;children&#39;,None)</title>
<path fill="none" stroke="#0000ff" d="M257.401,-588.749C211.387,-578.674 154.835,-557.68 125.637,-514 89.0977,-459.336 182.283,-424.874 251.266,-407.553"/>
<polygon fill="#0000ff" stroke="#0000ff" points="252.362,-410.888 261.25,-405.121 250.705,-404.087 252.362,-410.888"/>
<text text-anchor="middle" x="136.137" y="-492.3" font-family="Times New Roman,serif" font-size="14.00">NO</text>
</g>
<!-- current{contents[index]==item -->
<g id="node5" class="node"><title>current{contents[index]==item</title>
<path fill="#ffce9f" stroke="black" d="M316.702,-512.755C316.702,-512.755 167.969,-497.245 167.969,-497.245 162.002,-496.622 162.002,-495.378 167.969,-494.755 167.969,-494.755 316.702,-479.245 316.702,-479.245 322.67,-478.622 334.605,-478.622 340.573,-479.245 340.573,-479.245 489.306,-494.755 489.306,-494.755 495.273,-495.378 495.273,-496.622 489.306,-497.245 489.306,-497.245 340.573,-512.755 340.573,-512.755 334.605,-513.378 322.67,-513.378 316.702,-512.755"/>
<text text-anchor="middle" x="328.637" y="-492.3" font-family="Times New Roman,serif" font-size="14.00">current{contents[index]==item</text>
</g>
<!-- index &lt; len(current{contents)&#45;&gt;current{contents[index]==item -->
<g id="edge9" class="edge"><title>index &lt; len(current{contents)&#45;&gt;current{contents[index]==item</title>
<path fill="none" stroke="#0000ff" d="M328.637,-580.867C328.637,-565.414 328.637,-542.416 328.637,-524.409"/>
<polygon fill="#0000ff" stroke="#0000ff" points="332.138,-524.217 328.637,-514.217 325.138,-524.217 332.138,-524.217"/>
<text text-anchor="middle" x="339.637" y="-543.8" font-family="Times New Roman,serif" font-size="14.00">Yes</text>
</g>
<!-- current{contents[index]==item&#45;&gt;getattr(current,&#39;children&#39;,None) -->
<g id="edge10" class="edge"><title>current{contents[index]==item&#45;&gt;getattr(current,&#39;children&#39;,None)</title>
<path fill="none" stroke="#0000ff" d="M326.771,-477.867C325.07,-462.247 322.53,-438.919 320.559,-420.828"/>
<polygon fill="#0000ff" stroke="#0000ff" points="324.038,-420.442 319.476,-410.88 317.079,-421.2 324.038,-420.442"/>
<text text-anchor="middle" x="336.137" y="-440.8" font-family="Times New Roman,serif" font-size="14.00">NO</text>
</g>
<!-- current{contents[index]==item&#45;&gt;end -->
<g id="edge11" class="edge"><title>current{contents[index]==item&#45;&gt;end</title>
<path fill="none" stroke="#0000ff" d="M348.564,-479.986C368.984,-465.214 402.121,-442.911 433.637,-429 461.061,-416.896 470.537,-421.438 498.637,-411 500.484,-410.314 502.366,-409.57 504.252,-408.79"/>
<polygon fill="#0000ff" stroke="#0000ff" points="505.835,-411.917 513.576,-404.682 503.013,-405.511 505.835,-411.917"/>
<text text-anchor="middle" x="474.637" y="-440.8" font-family="Times New Roman,serif" font-size="14.00">Yes (ancestry)</text>
</g>
<!-- Btree{_path_to -->
<g id="node6" class="node"><title>Btree{_path_to</title>
<path fill="#ffe599" stroke="black" d="M971.137,-411C971.137,-411 892.137,-411 892.137,-411 886.137,-411 880.137,-405 880.137,-399 880.137,-399 880.137,-387 880.137,-387 880.137,-381 886.137,-375 892.137,-375 892.137,-375 971.137,-375 971.137,-375 977.137,-375 983.137,-381 983.137,-387 983.137,-387 983.137,-399 983.137,-399 983.137,-405 977.137,-411 971.137,-411"/>
<text text-anchor="middle" x="931.637" y="-389.3" font-family="Times New Roman,serif" font-size="14.00">Btree{_path_to</text>
</g>
<!-- Btree{_path_to&#45;&gt;Btree{_root -->
<g id="edge2" class="edge"><title>Btree{_path_to&#45;&gt;Btree{_root</title>
<path fill="none" stroke="black" d="M930.225,-374.972C928.349,-352.36 924.891,-310.665 921.615,-271.177"/>
<polygon fill="black" stroke="black" points="925.102,-270.874 920.788,-261.198 918.126,-271.453 925.102,-270.874"/>
<text text-anchor="middle" x="988.637" y="-314.3" font-family="Times New Roman,serif" font-size="14.00">current = Btree{_root</text>
</g>
<!-- bisect{bisect_left&#45;&gt;ancestry -->
<g id="edge12" class="edge"><title>bisect{bisect_left&#45;&gt;ancestry</title>
<path fill="none" stroke="#0000ff" d="M413.247,-155.931C456.301,-127.948 547.513,-72.3285 601.12,-41.2777"/>
<polygon fill="#0000ff" stroke="#0000ff" points="603.111,-44.1699 610.029,-36.1455 599.617,-38.1043 603.111,-44.1699"/>
</g>
<!-- bisect{bisect_left&#45;&gt;ancestry -->
<g id="edge15" class="edge"><title>bisect{bisect_left&#45;&gt;ancestry</title>
<path fill="none" stroke="#00ff00" d="M422.112,-155.931C470.801,-128.063 561.784,-72.7877 610.354,-41.6639"/>
<polygon fill="#00ff00" stroke="#00ff00" points="612.404,-44.5071 618.91,-36.1455 608.61,-38.6245 612.404,-44.5071"/>
</g>
<!-- ancestry&#45;&gt;[]{append -->
<g id="edge13" class="edge"><title>ancestry&#45;&gt;[]{append</title>
<path fill="none" stroke="#0000ff" d="M646.122,-36.0069C651.608,-64.3026 661.637,-122.894 661.637,-173 661.637,-600 661.637,-600 661.637,-600 661.637,-618.916 648.997,-635.226 635.13,-647.426"/>
<polygon fill="#0000ff" stroke="#0000ff" points="632.897,-644.73 627.373,-653.771 637.33,-650.149 632.897,-644.73"/>
<text text-anchor="middle" x="718.637" y="-432.8" font-family="Times New Roman,serif" font-size="14.00">item=(current,index)</text>
</g>
<!-- ancestry&#45;&gt;[]{append -->
<g id="edge16" class="edge"><title>ancestry&#45;&gt;[]{append</title>
<path fill="none" stroke="#00ff00" d="M680.799,-36.1004C726.983,-59.7066 798.637,-106.971 798.637,-173 798.637,-600 798.637,-600 798.637,-600 798.637,-632.009 706.153,-653.372 647.281,-663.729"/>
<polygon fill="#00ff00" stroke="#00ff00" points="646.335,-660.34 637.068,-665.475 647.515,-667.24 646.335,-660.34"/>
<text text-anchor="middle" x="855.637" y="-440.8" font-family="Times New Roman,serif" font-size="14.00">item=(current,index)</text>
</g>
<!-- ancestry&#45;&gt;getattr(current,&#39;children&#39;,None) -->
<g id="edge4" class="edge"><title>ancestry&#45;&gt;getattr(current,&#39;children&#39;,None)</title>
<path fill="none" stroke="black" d="M643.643,-36.0946C646.91,-98.2581 654.578,-311.061 609.637,-357 602.74,-364.051 497.741,-375.345 415.608,-383.189"/>
<polygon fill="black" stroke="black" points="415.084,-379.723 405.459,-384.152 415.745,-386.692 415.084,-379.723"/>
</g>
<!-- start -->
<g id="node9" class="node"><title>start</title>
<ellipse fill="none" stroke="black" cx="935.637" cy="-496" rx="27" ry="18"/>
<text text-anchor="middle" x="935.637" y="-492.3" font-family="Times New Roman,serif" font-size="14.00">start</text>
</g>
<!-- start&#45;&gt;Btree{_path_to -->
<g id="edge1" class="edge"><title>start&#45;&gt;Btree{_path_to</title>
<path fill="none" stroke="black" d="M934.959,-477.867C934.347,-462.414 933.436,-439.416 932.723,-421.409"/>
<polygon fill="black" stroke="black" points="936.212,-421.071 932.319,-411.217 929.218,-421.348 936.212,-421.071"/>
<text text-anchor="middle" x="950.137" y="-440.8" font-family="Times New Roman,serif" font-size="14.00">(item)</text>
</g>
</g>
</svg>
