<?xml version="1.0" encoding="UTF-8" standalone="no"?>
<!DOCTYPE svg PUBLIC "-//W3C//DTD SVG 1.1//EN"
 "http://www.w3.org/Graphics/SVG/1.1/DTD/svg11.dtd">
<!-- Generated by graphviz version 2.38.0 (20140413.2041)
 -->
<!-- Title: %3 Pages: 1 -->
<svg width="1795pt" height="1096pt"
 viewBox="0.00 0.00 1795.45 1096.00" xmlns="http://www.w3.org/2000/svg" xmlns:xlink="http://www.w3.org/1999/xlink">
<g id="graph0" class="graph" transform="scale(1 1) rotate(0) translate(4 1092)">
<title>%3</title>
<polygon fill="white" stroke="none" points="-4,4 -4,-1092 1791.45,-1092 1791.45,4 -4,4"/>
<!-- []{insert -->
<g id="node1" class="node"><title>[]{insert</title>
<path fill="#ff5e99" stroke="black" d="M675.447,-1088C675.447,-1088 637.447,-1088 637.447,-1088 631.447,-1088 625.447,-1082 625.447,-1076 625.447,-1076 625.447,-1064 625.447,-1064 625.447,-1058 631.447,-1052 637.447,-1052 637.447,-1052 675.447,-1052 675.447,-1052 681.447,-1052 687.447,-1058 687.447,-1064 687.447,-1064 687.447,-1076 687.447,-1076 687.447,-1082 681.447,-1088 675.447,-1088"/>
<text text-anchor="middle" x="656.447" y="-1066.3" font-family="Times New Roman,serif" font-size="14.00">[]{insert</text>
</g>
<!-- _Bnodes{children -->
<g id="node4" class="node"><title>_Bnodes{children</title>
<path fill="#00e599" stroke="black" d="M212.84,-1001C212.84,-1001 58.0473,-1001 58.0473,-1001 52.0473,-1001 41.3225,-997.302 36.5977,-993.604 36.5977,-993.604 9.50276,-972.396 9.50276,-972.396 4.77795,-968.698 6.05315,-965 12.0532,-965 12.0532,-965 166.846,-965 166.846,-965 172.846,-965 183.571,-968.698 188.296,-972.396 188.296,-972.396 215.391,-993.604 215.391,-993.604 220.116,-997.302 218.84,-1001 212.84,-1001"/>
<text text-anchor="middle" x="112.447" y="-979.3" font-family="Times New Roman,serif" font-size="14.00">_Bnodes{children</text>
</g>
<!-- []{insert&#45;&gt;_Bnodes{children -->
<g id="edge24" class="edge"><title>[]{insert&#45;&gt;_Bnodes{children</title>
<path fill="none" stroke="#aaffaa" d="M625.432,-1068.51C559.212,-1066.96 399.361,-1060.55 268.447,-1034 233.888,-1026.99 196.213,-1015.04 166.546,-1004.59"/>
<polygon fill="#aaffaa" stroke="#aaffaa" points="167.402,-1001.17 156.808,-1001.1 165.046,-1007.77 167.402,-1001.17"/>
</g>
<!-- len(_Bnodes{contents) &gt; _Bnodes{tree{order -->
<g id="node9" class="node"><title>len(_Bnodes{contents) &gt; _Bnodes{tree{order</title>
<path fill="#ffce9f" stroke="black" d="M950.477,-1000.15C950.477,-1000.15 721.88,-983.853 721.88,-983.853 715.895,-983.427 715.895,-982.573 721.88,-982.147 721.88,-982.147 950.477,-965.853 950.477,-965.853 956.462,-965.427 968.432,-965.427 974.416,-965.853 974.416,-965.853 1203.01,-982.147 1203.01,-982.147 1209,-982.573 1209,-983.427 1203.01,-983.853 1203.01,-983.853 974.416,-1000.15 974.416,-1000.15 968.432,-1000.57 956.462,-1000.57 950.477,-1000.15"/>
<text text-anchor="middle" x="962.447" y="-979.3" font-family="Times New Roman,serif" font-size="14.00">len(_Bnodes{contents) &gt; _Bnodes{tree{order</text>
</g>
<!-- []{insert&#45;&gt;len(_Bnodes{contents) &gt; _Bnodes{tree{order -->
<g id="edge4" class="edge"><title>[]{insert&#45;&gt;len(_Bnodes{contents) &gt; _Bnodes{tree{order</title>
<path fill="none" stroke="#fff00f" d="M687.472,-1060.38C738.023,-1046.34 838.985,-1018.29 903.498,-1000.37"/>
<polygon fill="#fff00f" stroke="#fff00f" points="904.827,-1003.64 913.526,-997.589 902.954,-996.893 904.827,-1003.64"/>
</g>
<!-- len(parent{contents) &gt; parent{tree{order -->
<g id="node16" class="node"><title>len(parent{contents) &gt; parent{tree{order</title>
<path fill="#ffce9f" stroke="black" d="M455.485,-1000.04C455.485,-1000.04 255.359,-983.961 255.359,-983.961 249.379,-983.48 249.379,-982.52 255.359,-982.039 255.359,-982.039 455.485,-965.961 455.485,-965.961 461.466,-965.48 473.428,-965.48 479.408,-965.961 479.408,-965.961 679.534,-982.039 679.534,-982.039 685.515,-982.52 685.515,-983.48 679.534,-983.961 679.534,-983.961 479.408,-1000.04 479.408,-1000.04 473.428,-1000.52 461.466,-1000.52 455.485,-1000.04"/>
<text text-anchor="middle" x="467.447" y="-979.3" font-family="Times New Roman,serif" font-size="14.00">len(parent{contents) &gt; parent{tree{order</text>
</g>
<!-- []{insert&#45;&gt;len(parent{contents) &gt; parent{tree{order -->
<g id="edge26" class="edge"><title>[]{insert&#45;&gt;len(parent{contents) &gt; parent{tree{order</title>
<path fill="none" stroke="#ffaaaa" d="M625.237,-1054.96C593.516,-1040.7 544.185,-1018.51 509.133,-1002.75"/>
<polygon fill="#ffaaaa" stroke="#ffaaaa" points="510.208,-999.393 499.652,-998.484 507.337,-1005.78 510.208,-999.393"/>
</g>
<!-- _Bnodes{tree{BRANCH -->
<g id="node2" class="node"><title>_Bnodes{tree{BRANCH</title>
<path fill="#00e599" stroke="black" d="M886.076,-123C886.076,-123 670.459,-123 670.459,-123 664.459,-123 653.278,-119.974 648.097,-116.948 648.097,-116.948 607.18,-93.0518 607.18,-93.0518 601.999,-90.0259 602.818,-87 608.818,-87 608.818,-87 824.435,-87 824.435,-87 830.435,-87 841.616,-90.0259 846.797,-93.0518 846.797,-93.0518 887.713,-116.948 887.713,-116.948 892.895,-119.974 892.076,-123 886.076,-123"/>
<text text-anchor="middle" x="747.447" y="-101.3" font-family="Times New Roman,serif" font-size="14.00">_Bnodes{tree{BRANCH</text>
</g>
<!-- _Bnodes{contents -->
<g id="node3" class="node"><title>_Bnodes{contents</title>
<path fill="#00e599" stroke="black" d="M1399.56,-36C1399.56,-36 1240.44,-36 1240.44,-36 1234.44,-36 1223.67,-32.3567 1218.91,-28.7135 1218.91,-28.7135 1190.87,-7.28652 1190.87,-7.28652 1186.1,-3.64326 1187.34,-2.08506e-014 1193.34,-2.0385e-014 1193.34,-2.0385e-014 1352.45,-8.03669e-015 1352.45,-8.03669e-015 1358.45,-7.57106e-015 1369.22,-3.64326 1373.99,-7.28652 1373.99,-7.28652 1402.02,-28.7135 1402.02,-28.7135 1406.79,-32.3567 1405.56,-36 1399.56,-36"/>
<text text-anchor="middle" x="1296.45" y="-14.3" font-family="Times New Roman,serif" font-size="14.00">_Bnodes{contents</text>
</g>
<!-- _Bnodes{tree{BRANCH&#45;&gt;_Bnodes{contents -->
<g id="edge21" class="edge"><title>_Bnodes{tree{BRANCH&#45;&gt;_Bnodes{contents</title>
<path fill="none" stroke="#aaffaa" d="M811.168,-86.9004C853.501,-76.0888 910.467,-62.584 961.447,-54 1042.62,-40.3317 1135.82,-31.1121 1203.27,-25.5818"/>
<polygon fill="#aaffaa" stroke="#aaffaa" points="1203.77,-29.0534 1213.45,-24.7592 1203.2,-22.0761 1203.77,-29.0534"/>
</g>
<!-- _Bnodes{contents&#45;&gt;[]{insert -->
<g id="edge3" class="edge"><title>_Bnodes{contents&#45;&gt;[]{insert</title>
<path fill="none" stroke="#fff00f" d="M1283.92,-36.2839C1273.19,-52.8212 1259.45,-78.8927 1259.45,-104 1259.45,-367 1259.45,-367 1259.45,-367 1259.45,-457.025 1248.47,-479.065 1244.45,-569 1243.15,-597.863 1243.45,-605.108 1243.45,-634 1243.45,-984 1243.45,-984 1243.45,-984 1243.45,-1039.2 831.558,-1061.57 697.831,-1067.37"/>
<polygon fill="#fff00f" stroke="#fff00f" points="697.434,-1063.89 687.592,-1067.81 697.732,-1070.88 697.434,-1063.89"/>
<text text-anchor="middle" x="1277.95" y="-580.3" font-family="Times New Roman,serif" font-size="14.00">(index,item)</text>
</g>
<!-- _Bnodes{contents&#45;&gt;[]{insert -->
<g id="edge23" class="edge"><title>_Bnodes{contents&#45;&gt;[]{insert</title>
<path fill="none" stroke="#00ffaa" d="M1308.97,-36.2839C1319.71,-52.8212 1333.45,-78.8927 1333.45,-104 1333.45,-984 1333.45,-984 1333.45,-984 1333.45,-1048.36 845.609,-1064.7 698.159,-1068.17"/>
<polygon fill="#00ffaa" stroke="#00ffaa" points="697.66,-1064.68 687.742,-1068.41 697.819,-1071.68 697.66,-1064.68"/>
<text text-anchor="middle" x="1560.45" y="-587.8" font-family="Times New Roman,serif" font-size="14.00">(index=parent_index,push) </text>
<text text-anchor="middle" x="1560.45" y="-572.8" font-family="Times New Roman,serif" font-size="14.00"> {parent=_Bnodes{tree{BRANCH,parent_index=0,_Bnodes{tree{_root=parent}</text>
</g>
<!-- _Bnodes{children&#45;&gt;[]{insert -->
<g id="edge25" class="edge"><title>_Bnodes{children&#45;&gt;[]{insert</title>
<path fill="none" stroke="#ffaaaa" d="M210.326,-1001.05C268.427,-1011.02 343.573,-1023.63 410.447,-1034 482.331,-1045.14 566.251,-1056.79 615.161,-1063.45"/>
<polygon fill="#ffaaaa" stroke="#ffaaaa" points="614.963,-1066.95 625.343,-1064.83 615.905,-1060.01 614.963,-1066.95"/>
<text text-anchor="middle" x="478.447" y="-1022.8" font-family="Times New Roman,serif" font-size="14.00">(parent_index+1,sibling)</text>
</g>
<!-- _Bnodes{split -->
<g id="node5" class="node"><title>_Bnodes{split</title>
<path fill="#ffe599" stroke="black" d="M375.947,-297C375.947,-297 302.947,-297 302.947,-297 296.947,-297 290.947,-291 290.947,-285 290.947,-285 290.947,-273 290.947,-273 290.947,-267 296.947,-261 302.947,-261 302.947,-261 375.947,-261 375.947,-261 381.947,-261 387.947,-267 387.947,-273 387.947,-273 387.947,-285 387.947,-285 387.947,-291 381.947,-297 375.947,-297"/>
<text text-anchor="middle" x="339.447" y="-275.3" font-family="Times New Roman,serif" font-size="14.00">_Bnodes{split</text>
</g>
<!-- parent? -->
<g id="node12" class="node"><title>parent?</title>
<path fill="#ffce9f" stroke="black" d="M694.1,-206.094C694.1,-206.094 664.509,-195.906 664.509,-195.906 658.836,-193.953 658.836,-190.047 664.509,-188.094 664.509,-188.094 694.1,-177.906 694.1,-177.906 699.774,-175.953 711.12,-175.953 716.793,-177.906 716.793,-177.906 746.385,-188.094 746.385,-188.094 752.058,-190.047 752.058,-193.953 746.385,-195.906 746.385,-195.906 716.793,-206.094 716.793,-206.094 711.12,-208.047 699.774,-208.047 694.1,-206.094"/>
<text text-anchor="middle" x="705.447" y="-188.3" font-family="Times New Roman,serif" font-size="14.00">parent?</text>
</g>
<!-- _Bnodes{split&#45;&gt;parent? -->
<g id="edge19" class="edge"><title>_Bnodes{split&#45;&gt;parent?</title>
<path fill="none" stroke="#00ff00" d="M388.049,-266.713C461.292,-249.703 598.549,-217.826 665.994,-202.163"/>
<polygon fill="#00ff00" stroke="#00ff00" points="666.861,-205.554 675.81,-199.883 665.278,-198.736 666.861,-205.554"/>
<text text-anchor="middle" x="624.447" y="-231.8" font-family="Times New Roman,serif" font-size="14.00">sibling,push=_Bnodes.split()</text>
</g>
<!-- _Bnodes{insert -->
<g id="node6" class="node"><title>_Bnodes{insert</title>
<path fill="#ffe599" stroke="black" d="M1453.45,-123C1453.45,-123 1373.45,-123 1373.45,-123 1367.45,-123 1361.45,-117 1361.45,-111 1361.45,-111 1361.45,-99 1361.45,-99 1361.45,-93 1367.45,-87 1373.45,-87 1373.45,-87 1453.45,-87 1453.45,-87 1459.45,-87 1465.45,-93 1465.45,-99 1465.45,-99 1465.45,-111 1465.45,-111 1465.45,-117 1459.45,-123 1453.45,-123"/>
<text text-anchor="middle" x="1413.45" y="-101.3" font-family="Times New Roman,serif" font-size="14.00">_Bnodes{insert</text>
</g>
<!-- _Bnodes{insert&#45;&gt;_Bnodes{contents -->
<g id="edge2" class="edge"><title>_Bnodes{insert&#45;&gt;_Bnodes{contents</title>
<path fill="none" stroke="#fff00f" d="M1391.34,-86.8429C1378.61,-77.0691 1362.25,-64.6802 1347.45,-54 1341.89,-49.9902 1335.93,-45.8041 1330.12,-41.779"/>
<polygon fill="#fff00f" stroke="#fff00f" points="1331.99,-38.821 1321.77,-36.0361 1328.03,-44.5878 1331.99,-38.821"/>
</g>
<!-- _Bnodes{insert&#45;&gt;_Bnodes{contents -->
<g id="edge7" class="edge"><title>_Bnodes{insert&#45;&gt;_Bnodes{contents</title>
<path fill="none" stroke="#00ff00" d="M1401.79,-86.5825C1394.12,-76.1172 1383.32,-63.1084 1371.45,-54 1365.11,-49.1419 1358,-44.7443 1350.74,-40.8359"/>
<polygon fill="#00ff00" stroke="#00ff00" points="1352.01,-37.5577 1341.51,-36.1492 1348.84,-43.7987 1352.01,-37.5577"/>
<text text-anchor="middle" x="1419.95" y="-57.8" font-family="Times New Roman,serif" font-size="14.00">(index,item)</text>
</g>
<!-- _Bnodes{shrink -->
<g id="node7" class="node"><title>_Bnodes{shrink</title>
<path fill="#ffe599" stroke="black" d="M619.947,-914C619.947,-914 536.947,-914 536.947,-914 530.947,-914 524.947,-908 524.947,-902 524.947,-902 524.947,-890 524.947,-890 524.947,-884 530.947,-878 536.947,-878 536.947,-878 619.947,-878 619.947,-878 625.947,-878 631.947,-884 631.947,-890 631.947,-890 631.947,-902 631.947,-902 631.947,-908 625.947,-914 619.947,-914"/>
<text text-anchor="middle" x="578.447" y="-892.3" font-family="Times New Roman,serif" font-size="14.00">_Bnodes{shrink</text>
</g>
<!-- ancestors? -->
<g id="node10" class="node"><title>ancestors?</title>
<path fill="#ffce9f" stroke="black" d="M449.828,-824C449.828,-824 403.354,-812 403.354,-812 397.544,-810.5 397.544,-807.5 403.354,-806 403.354,-806 449.828,-794 449.828,-794 455.637,-792.5 467.256,-792.5 473.066,-794 473.066,-794 519.54,-806 519.54,-806 525.35,-807.5 525.35,-810.5 519.54,-812 519.54,-812 473.066,-824 473.066,-824 467.256,-825.5 455.637,-825.5 449.828,-824"/>
<text text-anchor="middle" x="461.447" y="-805.3" font-family="Times New Roman,serif" font-size="14.00">ancestors?</text>
</g>
<!-- _Bnodes{shrink&#45;&gt;ancestors? -->
<g id="edge8" class="edge"><title>_Bnodes{shrink&#45;&gt;ancestors?</title>
<path fill="none" stroke="#00ff00" d="M530.562,-877.939C520.079,-873.029 509.44,-867.053 500.447,-860 491.125,-852.689 482.749,-842.69 476.171,-833.554"/>
<polygon fill="#00ff00" stroke="#00ff00" points="478.976,-831.455 470.442,-825.176 473.197,-835.406 478.976,-831.455"/>
<text text-anchor="middle" x="540.947" y="-848.8" font-family="Times New Roman,serif" font-size="14.00">parent = None</text>
</g>
<!-- end -->
<g id="node18" class="node"><title>end</title>
<ellipse fill="none" stroke="black" cx="596.447" cy="-809" rx="27" ry="18"/>
<text text-anchor="middle" x="596.447" y="-805.3" font-family="Times New Roman,serif" font-size="14.00">end</text>
</g>
<!-- _Bnodes{shrink&#45;&gt;end -->
<g id="edge28" class="edge"><title>_Bnodes{shrink&#45;&gt;end</title>
<path fill="none" stroke="#ffaaaa" d="M582.089,-877.799C584.57,-866.086 587.904,-850.342 590.735,-836.974"/>
<polygon fill="#ffaaaa" stroke="#ffaaaa" points="594.223,-837.394 592.871,-826.885 587.375,-835.943 594.223,-837.394"/>
</g>
<!-- _Bnodes{lateral -->
<g id="node8" class="node"><title>_Bnodes{lateral</title>
<path fill="#ffe599" stroke="black" d="M709.447,-297C709.447,-297 627.447,-297 627.447,-297 621.447,-297 615.447,-291 615.447,-285 615.447,-285 615.447,-273 615.447,-273 615.447,-267 621.447,-261 627.447,-261 627.447,-261 709.447,-261 709.447,-261 715.447,-261 721.447,-267 721.447,-273 721.447,-273 721.447,-285 721.447,-285 721.447,-291 715.447,-297 709.447,-297"/>
<text text-anchor="middle" x="668.447" y="-275.3" font-family="Times New Roman,serif" font-size="14.00">_Bnodes{lateral</text>
</g>
<!-- len(_Bnodes{contents) &gt; _Bnodes{tree{order&#45;&gt;_Bnodes{shrink -->
<g id="edge6" class="edge"><title>len(_Bnodes{contents) &gt; _Bnodes{tree{order&#45;&gt;_Bnodes{shrink</title>
<path fill="none" stroke="#00ff00" d="M904.125,-969.09C833.49,-953.455 714.933,-927.212 642.017,-911.072"/>
<polygon fill="#00ff00" stroke="#00ff00" points="642.561,-907.607 632.041,-908.863 641.048,-914.442 642.561,-907.607"/>
<text text-anchor="middle" x="836.447" y="-935.8" font-family="Times New Roman,serif" font-size="14.00">Yes (ancestors)</text>
</g>
<!-- len(_Bnodes{contents) &gt; _Bnodes{tree{order&#45;&gt;end -->
<g id="edge5" class="edge"><title>len(_Bnodes{contents) &gt; _Bnodes{tree{order&#45;&gt;end</title>
<path fill="none" stroke="#fff00f" d="M940.522,-966.524C925.212,-956.076 904.08,-942.356 884.447,-932 795.147,-884.898 683.645,-841.862 629.296,-821.831"/>
<polygon fill="#fff00f" stroke="#fff00f" points="630.424,-818.517 619.831,-818.363 628.016,-825.09 630.424,-818.517"/>
<text text-anchor="middle" x="855.447" y="-892.3" font-family="Times New Roman,serif" font-size="14.00">No</text>
</g>
<!-- ancestors?&#45;&gt;_Bnodes{split -->
<g id="edge10" class="edge"><title>ancestors?&#45;&gt;_Bnodes{split</title>
<path fill="none" stroke="#00ff00" d="M396.749,-807.645C335.368,-803.479 252.447,-786.163 252.447,-723 252.447,-723 252.447,-723 252.447,-365 252.447,-338.156 273.9,-317.012 295.501,-302.526"/>
<polygon fill="#00ff00" stroke="#00ff00" points="297.48,-305.416 304.061,-297.112 293.738,-299.5 297.48,-305.416"/>
<text text-anchor="middle" x="261.447" y="-580.3" font-family="Times New Roman,serif" font-size="14.00">No</text>
</g>
<!-- parent_index? -->
<g id="node11" class="node"><title>parent_index?</title>
<path fill="#ffce9f" stroke="black" d="M449.695,-737.572C449.695,-737.572 386.058,-724.428 386.058,-724.428 380.183,-723.214 380.183,-720.786 386.058,-719.572 386.058,-719.572 449.695,-706.428 449.695,-706.428 455.571,-705.214 467.323,-705.214 473.199,-706.428 473.199,-706.428 536.835,-719.572 536.835,-719.572 542.711,-720.786 542.711,-723.214 536.835,-724.428 536.835,-724.428 473.199,-737.572 473.199,-737.572 467.323,-738.786 455.571,-738.786 449.695,-737.572"/>
<text text-anchor="middle" x="461.447" y="-718.3" font-family="Times New Roman,serif" font-size="14.00">parent_index?</text>
</g>
<!-- ancestors?&#45;&gt;parent_index? -->
<g id="edge9" class="edge"><title>ancestors?&#45;&gt;parent_index?</title>
<path fill="none" stroke="#00ff00" d="M461.447,-790.799C461.447,-779.163 461.447,-763.548 461.447,-750.237"/>
<polygon fill="#00ff00" stroke="#00ff00" points="464.947,-750.175 461.447,-740.175 457.947,-750.175 464.947,-750.175"/>
<text text-anchor="middle" x="587.947" y="-761.8" font-family="Times New Roman,serif" font-size="14.00">Yes (parent, parent_index = ancestors.pop())</text>
</g>
<!-- len(left_sib{contents) &lt; _Bnodes{tree{order -->
<g id="node13" class="node"><title>len(left_sib{contents) &lt; _Bnodes{tree{order</title>
<path fill="#ffce9f" stroke="black" d="M854.479,-652.119C854.479,-652.119 633.923,-635.881 633.923,-635.881 627.939,-635.441 627.939,-634.559 633.923,-634.119 633.923,-634.119 854.479,-617.881 854.479,-617.881 860.463,-617.441 872.431,-617.441 878.414,-617.881 878.414,-617.881 1098.97,-634.119 1098.97,-634.119 1104.95,-634.559 1104.95,-635.441 1098.97,-635.881 1098.97,-635.881 878.414,-652.119 878.414,-652.119 872.431,-652.559 860.463,-652.559 854.479,-652.119"/>
<text text-anchor="middle" x="866.447" y="-631.3" font-family="Times New Roman,serif" font-size="14.00">len(left_sib{contents) &lt; _Bnodes{tree{order</text>
</g>
<!-- parent_index?&#45;&gt;len(left_sib{contents) &lt; _Bnodes{tree{order -->
<g id="edge13" class="edge"><title>parent_index?&#45;&gt;len(left_sib{contents) &lt; _Bnodes{tree{order</title>
<path fill="none" stroke="#00ff00" d="M502.509,-712.382C571.567,-697.888 711.707,-668.476 796.513,-650.678"/>
<polygon fill="#00ff00" stroke="#00ff00" points="797.25,-654.099 806.318,-648.62 795.812,-647.248 797.25,-654.099"/>
<text text-anchor="middle" x="825.947" y="-674.8" font-family="Times New Roman,serif" font-size="14.00">Yes (left_sib = parent{children[parent_index &#45; 1])</text>
</g>
<!-- parent_index + 1 &lt; len(parent{children) -->
<g id="node15" class="node"><title>parent_index + 1 &lt; len(parent{children)</title>
<path fill="#ffce9f" stroke="black" d="M511.488,-550.011C511.488,-550.011 317.725,-533.989 317.725,-533.989 311.746,-533.494 311.746,-532.506 317.725,-532.011 317.725,-532.011 511.488,-515.989 511.488,-515.989 517.467,-515.494 529.426,-515.494 535.406,-515.989 535.406,-515.989 729.168,-532.011 729.168,-532.011 735.148,-532.506 735.148,-533.494 729.168,-533.989 729.168,-533.989 535.406,-550.011 535.406,-550.011 529.426,-550.506 517.467,-550.506 511.488,-550.011"/>
<text text-anchor="middle" x="523.447" y="-529.3" font-family="Times New Roman,serif" font-size="14.00">parent_index + 1 &lt; len(parent{children)</text>
</g>
<!-- parent_index?&#45;&gt;parent_index + 1 &lt; len(parent{children) -->
<g id="edge11" class="edge"><title>parent_index?&#45;&gt;parent_index + 1 &lt; len(parent{children)</title>
<path fill="none" stroke="#00ff00" d="M459.259,-704.272C457.145,-683.28 455.547,-646.46 465.447,-617 472.933,-594.721 488.419,-573.075 501.507,-557.477"/>
<polygon fill="#00ff00" stroke="#00ff00" points="504.171,-559.748 508.078,-549.9 498.882,-555.162 504.171,-559.748"/>
<text text-anchor="middle" x="539.447" y="-631.3" font-family="Times New Roman,serif" font-size="14.00">NO (parent, parent_index)</text>
</g>
<!-- parent?&#45;&gt;_Bnodes{tree{BRANCH -->
<g id="edge20" class="edge"><title>parent?&#45;&gt;_Bnodes{tree{BRANCH</title>
<path fill="none" stroke="#00ff00" d="M702.52,-174.921C701.429,-164.722 701.469,-151.516 706.447,-141 708.199,-137.299 710.549,-133.841 713.242,-130.651"/>
<polygon fill="#00ff00" stroke="#00ff00" points="715.973,-132.866 720.498,-123.286 710.987,-127.953 715.973,-132.866"/>
<text text-anchor="middle" x="833.947" y="-144.8" font-family="Times New Roman,serif" font-size="14.00">NO (tree=_Bnodes{tree,children=[_Bnodes])</text>
</g>
<!-- parent?&#45;&gt;_Bnodes{contents -->
<g id="edge22" class="edge"><title>parent?&#45;&gt;_Bnodes{contents</title>
<path fill="none" stroke="#aaffaa" d="M752.391,-190.091C817.216,-187.931 929.745,-180.634 961.447,-156 987.58,-135.693 964.169,-108.362 989.447,-87 1022.03,-59.4601 1129.29,-40.1992 1207.87,-29.3749"/>
<polygon fill="#aaffaa" stroke="#aaffaa" points="1208.35,-32.8422 1217.79,-28.0323 1207.41,-25.9054 1208.35,-32.8422"/>
<text text-anchor="middle" x="1117.45" y="-101.3" font-family="Times New Roman,serif" font-size="14.00">Yes (tree=_Bnodes{tree,children=[_Bnodes])</text>
</g>
<!-- len(left_sib{contents) &lt; _Bnodes{tree{order&#45;&gt;_Bnodes{lateral -->
<g id="edge14" class="edge"><title>len(left_sib{contents) &lt; _Bnodes{tree{order&#45;&gt;_Bnodes{lateral</title>
<path fill="none" stroke="#00ff00" d="M866.276,-616.654C865.563,-551.77 862.377,-326.475 852.447,-315 836.836,-296.96 778.671,-288.102 731.862,-283.826"/>
<polygon fill="#00ff00" stroke="#00ff00" points="732.026,-280.327 721.763,-282.957 731.426,-287.302 732.026,-280.327"/>
<text text-anchor="middle" x="1052.45" y="-445.8" font-family="Times New Roman,serif" font-size="14.00">Yes (parent,parent_index,dest=left_sib,dest_index=parent_index&#45;1)</text>
</g>
<!-- len(left_sib{contents) &lt; _Bnodes{tree{order&#45;&gt;parent_index + 1 &lt; len(parent{children) -->
<g id="edge12" class="edge"><title>len(left_sib{contents) &lt; _Bnodes{tree{order&#45;&gt;parent_index + 1 &lt; len(parent{children)</title>
<path fill="none" stroke="#00ff00" d="M752.148,-625.365C692.92,-619.624 627.449,-610.928 600.447,-599 578.78,-589.429 558.492,-571.799 544.186,-557.313"/>
<polygon fill="#00ff00" stroke="#00ff00" points="546.715,-554.893 537.275,-550.083 541.655,-559.73 546.715,-554.893"/>
<text text-anchor="middle" x="726.447" y="-580.3" font-family="Times New Roman,serif" font-size="14.00">NO (parent, parent_index = ancestors.pop())</text>
</g>
<!-- len(right_sib{contents) &lt; _Bnodes{tree{order -->
<g id="node14" class="node"><title>len(right_sib{contents) &lt; _Bnodes{tree{order</title>
<path fill="#ffce9f" stroke="black" d="M574.477,-383.144C574.477,-383.144 346.718,-366.856 346.718,-366.856 340.733,-366.428 340.733,-365.572 346.718,-365.144 346.718,-365.144 574.477,-348.856 574.477,-348.856 580.462,-348.428 592.432,-348.428 598.416,-348.856 598.416,-348.856 826.176,-365.144 826.176,-365.144 832.16,-365.572 832.16,-366.428 826.176,-366.856 826.176,-366.856 598.416,-383.144 598.416,-383.144 592.432,-383.572 580.462,-383.572 574.477,-383.144"/>
<text text-anchor="middle" x="586.447" y="-362.3" font-family="Times New Roman,serif" font-size="14.00">len(right_sib{contents) &lt; _Bnodes{tree{order</text>
</g>
<!-- len(right_sib{contents) &lt; _Bnodes{tree{order&#45;&gt;_Bnodes{split -->
<g id="edge18" class="edge"><title>len(right_sib{contents) &lt; _Bnodes{tree{order&#45;&gt;_Bnodes{split</title>
<path fill="none" stroke="#00ff00" d="M522.964,-352.446C497.852,-346.711 468.951,-339.139 443.447,-330 421.729,-322.217 398.506,-311.319 379.526,-301.683"/>
<polygon fill="#00ff00" stroke="#00ff00" points="381.068,-298.54 370.575,-297.073 377.863,-304.763 381.068,-298.54"/>
<text text-anchor="middle" x="452.447" y="-318.8" font-family="Times New Roman,serif" font-size="14.00">No</text>
</g>
<!-- len(right_sib{contents) &lt; _Bnodes{tree{order&#45;&gt;_Bnodes{lateral -->
<g id="edge16" class="edge"><title>len(right_sib{contents) &lt; _Bnodes{tree{order&#45;&gt;_Bnodes{lateral</title>
<path fill="none" stroke="#00ff00" d="M504.892,-353.79C476.003,-346.375 454.24,-334.323 470.447,-315 487.482,-294.69 553.992,-286.16 605.279,-282.58"/>
<polygon fill="#00ff00" stroke="#00ff00" points="605.562,-286.07 615.314,-281.929 605.108,-279.084 605.562,-286.07"/>
<text text-anchor="middle" x="661.447" y="-318.8" font-family="Times New Roman,serif" font-size="14.00">Yes (parent,parent_index,dest=left_sib,dest_index=parent_index+1)</text>
</g>
<!-- parent_index + 1 &lt; len(parent{children)&#45;&gt;_Bnodes{split -->
<g id="edge17" class="edge"><title>parent_index + 1 &lt; len(parent{children)&#45;&gt;_Bnodes{split</title>
<path fill="none" stroke="#00ff00" d="M483.839,-518.237C432.355,-497.943 344.643,-454.577 307.447,-384 294.268,-358.995 307.426,-327.692 320.637,-305.995"/>
<polygon fill="#00ff00" stroke="#00ff00" points="323.746,-307.632 326.225,-297.331 317.863,-303.838 323.746,-307.632"/>
<text text-anchor="middle" x="316.447" y="-362.3" font-family="Times New Roman,serif" font-size="14.00">No</text>
</g>
<!-- parent_index + 1 &lt; len(parent{children)&#45;&gt;len(right_sib{contents) &lt; _Bnodes{tree{order -->
<g id="edge15" class="edge"><title>parent_index + 1 &lt; len(parent{children)&#45;&gt;len(right_sib{contents) &lt; _Bnodes{tree{order</title>
<path fill="none" stroke="#00ff00" d="M524.302,-514.975C526.227,-489.114 532.447,-439.03 552.447,-402 554.635,-397.949 557.426,-394.041 560.465,-390.398"/>
<polygon fill="#00ff00" stroke="#00ff00" points="563.178,-392.618 567.379,-382.891 558.03,-387.876 563.178,-392.618"/>
<text text-anchor="middle" x="698.447" y="-485.8" font-family="Times New Roman,serif" font-size="14.00">Yes (right_sib = parent{children[parent_index + 1]) </text>
</g>
<!-- len(parent{contents) &gt; parent{tree{order&#45;&gt;_Bnodes{shrink -->
<g id="edge27" class="edge"><title>len(parent{contents) &gt; parent{tree{order&#45;&gt;_Bnodes{shrink</title>
<path fill="none" stroke="#ffaaaa" d="M487.548,-966.607C504.419,-953.688 528.779,-935.034 548.036,-920.288"/>
<polygon fill="#ffaaaa" stroke="#ffaaaa" points="550.397,-922.888 556.208,-914.029 546.141,-917.33 550.397,-922.888"/>
<text text-anchor="middle" x="574.447" y="-935.8" font-family="Times New Roman,serif" font-size="14.00">Yes (ancestors)</text>
</g>
<!-- len(parent{contents) &gt; parent{tree{order&#45;&gt;end -->
<g id="edge29" class="edge"><title>len(parent{contents) &gt; parent{tree{order&#45;&gt;end</title>
<path fill="none" stroke="#ffaaaa" d="M463.914,-965.022C459.072,-936.688 453.932,-879.48 482.447,-845 482.783,-844.593 528.979,-830.494 562.453,-820.317"/>
<polygon fill="#ffaaaa" stroke="#ffaaaa" points="563.818,-823.56 572.368,-817.304 561.783,-816.863 563.818,-823.56"/>
<text text-anchor="middle" x="475.947" y="-892.3" font-family="Times New Roman,serif" font-size="14.00">NO</text>
</g>
<!-- start -->
<g id="node17" class="node"><title>start</title>
<ellipse fill="none" stroke="black" cx="1413.45" cy="-192" rx="27" ry="18"/>
<text text-anchor="middle" x="1413.45" y="-188.3" font-family="Times New Roman,serif" font-size="14.00">start</text>
</g>
<!-- start&#45;&gt;_Bnodes{insert -->
<g id="edge1" class="edge"><title>start&#45;&gt;_Bnodes{insert</title>
<path fill="none" stroke="black" d="M1413.45,-173.799C1413.45,-162.163 1413.45,-146.548 1413.45,-133.237"/>
<polygon fill="black" stroke="black" points="1416.95,-133.175 1413.45,-123.175 1409.95,-133.175 1416.95,-133.175"/>
<text text-anchor="middle" x="1475.45" y="-144.8" font-family="Times New Roman,serif" font-size="14.00">(index,item,ancestors)</text>
</g>
</g>
</svg>
