<?xml version="1.0" encoding="UTF-8" standalone="no"?>
<!DOCTYPE svg PUBLIC "-//W3C//DTD SVG 1.1//EN"
 "http://www.w3.org/Graphics/SVG/1.1/DTD/svg11.dtd">
<!-- Generated by graphviz version 2.38.0 (20140413.2041)
 -->
<!-- Title: %3 Pages: 1 -->
<svg width="2021pt" height="502pt"
 viewBox="0.00 0.00 2020.84 502.00" xmlns="http://www.w3.org/2000/svg" xmlns:xlink="http://www.w3.org/1999/xlink">
<g id="graph0" class="graph" transform="scale(1 1) rotate(0) translate(4 498)">
<title>%3</title>
<polygon fill="white" stroke="none" points="-4,4 -4,-498 2016.84,-498 2016.84,4 -4,4"/>
<!-- []{append -->
<g id="node1" class="node"><title>[]{append</title>
<path fill="#ff5e99" stroke="black" d="M261.447,-494C261.447,-494 211.447,-494 211.447,-494 205.447,-494 199.447,-488 199.447,-482 199.447,-482 199.447,-470 199.447,-470 199.447,-464 205.447,-458 211.447,-458 211.447,-458 261.447,-458 261.447,-458 267.447,-458 273.447,-464 273.447,-470 273.447,-470 273.447,-482 273.447,-482 273.447,-488 267.447,-494 261.447,-494"/>
<text text-anchor="middle" x="236.447" y="-472.3" font-family="Times New Roman,serif" font-size="14.00">[]{append</text>
</g>
<!-- _Bnodes{contents -->
<g id="node4" class="node"><title>_Bnodes{contents</title>
<path fill="#00e599" stroke="black" d="M221.558,-396C221.558,-396 62.4416,-396 62.4416,-396 56.4416,-396 45.6744,-392.357 40.9071,-388.713 40.9071,-388.713 12.8697,-367.287 12.8697,-367.287 8.10246,-363.643 9.33521,-360 15.3352,-360 15.3352,-360 174.452,-360 174.452,-360 180.452,-360 191.219,-363.643 195.987,-367.287 195.987,-367.287 224.024,-388.713 224.024,-388.713 228.791,-392.357 227.558,-396 221.558,-396"/>
<text text-anchor="middle" x="118.447" y="-374.3" font-family="Times New Roman,serif" font-size="14.00">_Bnodes{contents</text>
</g>
<!-- []{append&#45;&gt;_Bnodes{contents -->
<g id="edge4" class="edge"><title>[]{append&#45;&gt;_Bnodes{contents</title>
<path fill="none" stroke="black" d="M199.189,-473.068C174.769,-469.727 144.191,-461.213 126.447,-440 118.734,-430.779 116.257,-417.876 115.902,-406.31"/>
<polygon fill="black" stroke="black" points="119.403,-406.27 116.084,-396.209 112.405,-406.144 119.403,-406.27"/>
<text text-anchor="middle" x="228.947" y="-428.8" font-family="Times New Roman,serif" font-size="14.00">upItem = _Bnodes{contents{pop(0)</text>
</g>
<!-- []{[move_index] -->
<g id="node2" class="node"><title>[]{[move_index]</title>
<path fill="#ff5e99" stroke="black" d="M388.447,-283C388.447,-283 302.447,-283 302.447,-283 296.447,-283 290.447,-277 290.447,-271 290.447,-271 290.447,-259 290.447,-259 290.447,-253 296.447,-247 302.447,-247 302.447,-247 388.447,-247 388.447,-247 394.447,-247 400.447,-253 400.447,-259 400.447,-259 400.447,-271 400.447,-271 400.447,-277 394.447,-283 388.447,-283"/>
<text text-anchor="middle" x="345.447" y="-261.3" font-family="Times New Roman,serif" font-size="14.00">[]{[move_index]</text>
</g>
<!-- []{[move_index]&#45;&gt;[]{append -->
<g id="edge3" class="edge"><title>[]{[move_index]&#45;&gt;[]{append</title>
<path fill="none" stroke="black" d="M346.335,-283.283C347.988,-322.308 349.856,-415.736 331.447,-440 319.973,-455.123 301.272,-463.715 283.484,-468.595"/>
<polygon fill="black" stroke="black" points="282.649,-465.196 273.748,-470.943 284.29,-472.001 282.649,-465.196"/>
<text text-anchor="middle" x="455.947" y="-381.8" font-family="Times New Roman,serif" font-size="14.00">(downItem),</text>
<text text-anchor="middle" x="455.947" y="-366.8" font-family="Times New Roman,serif" font-size="14.00">{left_sib.contents.append(downItem)}</text>
</g>
<!-- _Bnodes{children? -->
<g id="node6" class="node"><title>_Bnodes{children?</title>
<path fill="#ffce9f" stroke="black" d="M333.594,-208.128C333.594,-208.128 243.349,-193.872 243.349,-193.872 237.422,-192.936 237.422,-191.064 243.349,-190.128 243.349,-190.128 333.594,-175.872 333.594,-175.872 339.52,-174.936 351.373,-174.936 357.3,-175.872 357.3,-175.872 447.545,-190.128 447.545,-190.128 453.471,-191.064 453.471,-192.936 447.545,-193.872 447.545,-193.872 357.3,-208.128 357.3,-208.128 351.373,-209.064 339.52,-209.064 333.594,-208.128"/>
<text text-anchor="middle" x="345.447" y="-188.3" font-family="Times New Roman,serif" font-size="14.00">_Bnodes{children?</text>
</g>
<!-- []{[move_index]&#45;&gt;_Bnodes{children? -->
<g id="edge6" class="edge"><title>[]{[move_index]&#45;&gt;_Bnodes{children?</title>
<path fill="none" stroke="#ea4f16" d="M345.447,-246.813C345.447,-238.789 345.447,-229.047 345.447,-220.069"/>
<polygon fill="#ea4f16" stroke="#ea4f16" points="348.947,-220.029 345.447,-210.029 341.947,-220.029 348.947,-220.029"/>
</g>
<!-- _Bnodes{lateral_left -->
<g id="node3" class="node"><title>_Bnodes{lateral_left</title>
<path fill="#00e599" stroke="black" d="M2000.74,-407C2000.74,-407 885.278,-407 885.278,-407 879.278,-407 867.392,-405.835 861.506,-404.671 861.506,-404.671 591.926,-351.329 591.926,-351.329 586.04,-350.165 586.154,-349 592.154,-349 592.154,-349 1707.62,-349 1707.62,-349 1713.62,-349 1725.5,-350.165 1731.39,-351.329 1731.39,-351.329 2000.97,-404.671 2000.97,-404.671 2006.85,-405.835 2006.74,-407 2000.74,-407"/>
<text text-anchor="middle" x="1296.45" y="-374.3" font-family="Times New Roman,serif" font-size="14.00">_Bnodes{lateral_left</text>
</g>
<!-- _Bnodes{lateral_left&#45;&gt;[]{[move_index] -->
<g id="edge2" class="edge"><title>_Bnodes{lateral_left&#45;&gt;[]{[move_index]</title>
<path fill="none" stroke="black" d="M1056.47,-348.99C841.907,-323.946 541.747,-288.912 410.827,-273.631"/>
<polygon fill="black" stroke="black" points="410.906,-270.117 400.567,-272.434 410.094,-277.069 410.906,-270.117"/>
<text text-anchor="middle" x="1000.95" y="-319.8" font-family="Times New Roman,serif" font-size="14.00">move_index=parent_index&#45;1 </text>
<text text-anchor="middle" x="1000.95" y="-304.8" font-family="Times New Roman,serif" font-size="14.00"> {downItem=parent.contents[move_index]}</text>
</g>
<!-- _Bnodes{contents&#45;&gt;[]{[move_index] -->
<g id="edge5" class="edge"><title>_Bnodes{contents&#45;&gt;[]{[move_index]</title>
<path fill="none" stroke="#ea4f16" d="M112.33,-359.712C107.525,-342.704 103.697,-317.022 117.447,-301 138.095,-276.94 220.425,-269.254 280.235,-266.89"/>
<polygon fill="#ea4f16" stroke="#ea4f16" points="280.503,-270.383 290.373,-266.531 280.255,-263.387 280.503,-270.383"/>
<text text-anchor="middle" x="224.447" y="-312.3" font-family="Times New Roman,serif" font-size="14.00">parent{contents[move_index]=upItem</text>
</g>
<!-- _Bnodes{children -->
<g id="node5" class="node"><title>_Bnodes{children</title>
<path fill="#00e599" stroke="black" d="M212.84,-123C212.84,-123 58.0473,-123 58.0473,-123 52.0473,-123 41.3225,-119.302 36.5977,-115.604 36.5977,-115.604 9.50276,-94.3963 9.50276,-94.3963 4.77795,-90.6981 6.05315,-87 12.0532,-87 12.0532,-87 166.846,-87 166.846,-87 172.846,-87 183.571,-90.6981 188.296,-94.3963 188.296,-94.3963 215.391,-115.604 215.391,-115.604 220.116,-119.302 218.84,-123 212.84,-123"/>
<text text-anchor="middle" x="112.447" y="-101.3" font-family="Times New Roman,serif" font-size="14.00">_Bnodes{children</text>
</g>
<!-- end -->
<g id="node8" class="node"><title>end</title>
<ellipse fill="none" stroke="black" cx="228.447" cy="-18" rx="27" ry="18"/>
<text text-anchor="middle" x="228.447" y="-14.3" font-family="Times New Roman,serif" font-size="14.00">end</text>
</g>
<!-- _Bnodes{children&#45;&gt;end -->
<g id="edge9" class="edge"><title>_Bnodes{children&#45;&gt;end</title>
<path fill="none" stroke="#ea4f16" d="M86.6438,-86.9508C75.0931,-77.2119 65.8085,-64.8219 74.4468,-54 88.8443,-35.9632 150.902,-26.5131 191.711,-22.1562"/>
<polygon fill="#ea4f16" stroke="#ea4f16" points="192.242,-25.6204 201.839,-21.1319 191.538,-18.6559 192.242,-25.6204"/>
<text text-anchor="middle" x="222.447" y="-57.8" font-family="Times New Roman,serif" font-size="14.00">left_sib{children{append(_Bnodes{children{pop(0))</text>
</g>
<!-- _Bnodes{children?&#45;&gt;_Bnodes{children -->
<g id="edge8" class="edge"><title>_Bnodes{children?&#45;&gt;_Bnodes{children</title>
<path fill="none" stroke="#ea4f16" d="M312.558,-179.002C275.277,-165.402 213.853,-142.994 168.874,-126.585"/>
<polygon fill="#ea4f16" stroke="#ea4f16" points="169.849,-123.215 159.255,-123.076 167.45,-129.791 169.849,-123.215"/>
<text text-anchor="middle" x="254.447" y="-144.8" font-family="Times New Roman,serif" font-size="14.00">Yes</text>
</g>
<!-- _Bnodes{children?&#45;&gt;end -->
<g id="edge7" class="edge"><title>_Bnodes{children?&#45;&gt;end</title>
<path fill="none" stroke="black" d="M355.479,-175.151C371.571,-147.502 398.628,-89.9707 370.447,-54 357.601,-37.6032 302.892,-27.8473 265.257,-22.9551"/>
<polygon fill="black" stroke="black" points="265.499,-19.4584 255.144,-21.7028 264.638,-26.4053 265.499,-19.4584"/>
<text text-anchor="middle" x="393.947" y="-101.3" font-family="Times New Roman,serif" font-size="14.00">NO</text>
</g>
<!-- start -->
<g id="node7" class="node"><title>start</title>
<ellipse fill="none" stroke="black" cx="1296.45" cy="-476" rx="27" ry="18"/>
<text text-anchor="middle" x="1296.45" y="-472.3" font-family="Times New Roman,serif" font-size="14.00">start</text>
</g>
<!-- start&#45;&gt;_Bnodes{lateral_left -->
<g id="edge1" class="edge"><title>start&#45;&gt;_Bnodes{lateral_left</title>
<path fill="none" stroke="black" d="M1296.45,-457.837C1296.45,-446.663 1296.45,-431.623 1296.45,-417.675"/>
<polygon fill="black" stroke="black" points="1299.95,-417.304 1296.45,-407.304 1292.95,-417.304 1299.95,-417.304"/>
<text text-anchor="middle" x="1378.95" y="-428.8" font-family="Times New Roman,serif" font-size="14.00">(parent,parent_index,left_sib)</text>
</g>
</g>
</svg>
