<?xml version="1.0" encoding="UTF-8" standalone="no"?>
<!DOCTYPE svg PUBLIC "-//W3C//DTD SVG 1.1//EN"
 "http://www.w3.org/Graphics/SVG/1.1/DTD/svg11.dtd">
<!-- Generated by graphviz version 2.38.0 (20140413.2041)
 -->
<!-- Title: %3 Pages: 1 -->
<svg width="719pt" height="552pt"
 viewBox="0.00 0.00 718.89 552.00" xmlns="http://www.w3.org/2000/svg" xmlns:xlink="http://www.w3.org/1999/xlink">
<g id="graph0" class="graph" transform="scale(1 1) rotate(0) translate(4 548)">
<title>%3</title>
<polygon fill="white" stroke="none" points="-4,4 -4,-548 714.893,-548 714.893,4 -4,4"/>
<!-- Btree{order -->
<g id="node1" class="node"><title>Btree{order</title>
<path fill="#00e599" stroke="black" d="M422.634,-370C422.634,-370 320.664,-370 320.664,-370 314.664,-370 304.65,-365.541 300.636,-361.081 300.636,-361.081 284.287,-342.919 284.287,-342.919 280.272,-338.459 282.258,-334 288.258,-334 288.258,-334 390.229,-334 390.229,-334 396.229,-334 406.243,-338.459 410.257,-342.919 410.257,-342.919 426.606,-361.081 426.606,-361.081 430.62,-365.541 428.634,-370 422.634,-370"/>
<text text-anchor="middle" x="355.446" y="-348.3" font-family="Times New Roman,serif" font-size="14.00">Btree{order</text>
</g>
<!-- Btree{_root -->
<g id="node2" class="node"><title>Btree{_root</title>
<path fill="#00e599" stroke="black" d="M422.634,-283C422.634,-283 320.664,-283 320.664,-283 314.664,-283 304.65,-278.541 300.636,-274.081 300.636,-274.081 284.287,-255.919 284.287,-255.919 280.272,-251.459 282.258,-247 288.258,-247 288.258,-247 390.229,-247 390.229,-247 396.229,-247 406.243,-251.459 410.257,-255.919 410.257,-255.919 426.606,-274.081 426.606,-274.081 430.62,-278.541 428.634,-283 422.634,-283"/>
<text text-anchor="middle" x="355.446" y="-261.3" font-family="Times New Roman,serif" font-size="14.00">Btree{_root</text>
</g>
<!-- Btree{order&#45;&gt;Btree{_root -->
<g id="edge3" class="edge"><title>Btree{order&#45;&gt;Btree{_root</title>
<path fill="none" stroke="black" d="M355.446,-333.799C355.446,-322.163 355.446,-306.548 355.446,-293.237"/>
<polygon fill="black" stroke="black" points="358.946,-293.175 355.446,-283.175 351.946,-293.175 358.946,-293.175"/>
<text text-anchor="middle" x="483.446" y="-304.8" font-family="Times New Roman,serif" font-size="14.00">Btree{_root=Btree{_bottom=_Bnodes(Btree)</text>
</g>
<!-- Btree{_bottom -->
<g id="node3" class="node"><title>Btree{_bottom</title>
<path fill="#00e599" stroke="black" d="M698.839,-196C698.839,-196 157.489,-196 157.489,-196 151.489,-196 139.665,-194.558 133.84,-193.117 133.84,-193.117 11.7021,-162.883 11.7021,-162.883 5.87789,-161.442 6.05367,-160 12.0537,-160 12.0537,-160 553.404,-160 553.404,-160 559.404,-160 571.228,-161.442 577.052,-162.883 577.052,-162.883 699.191,-193.117 699.191,-193.117 705.015,-194.558 704.839,-196 698.839,-196"/>
<text text-anchor="middle" x="355.446" y="-174.3" font-family="Times New Roman,serif" font-size="14.00">Btree{_bottom</text>
</g>
<!-- Btree{_root&#45;&gt;Btree{_bottom -->
<g id="edge4" class="edge"><title>Btree{_root&#45;&gt;Btree{_bottom</title>
<path fill="none" stroke="black" d="M355.446,-246.799C355.446,-235.163 355.446,-219.548 355.446,-206.237"/>
<polygon fill="black" stroke="black" points="358.946,-206.175 355.446,-196.175 351.946,-206.175 358.946,-206.175"/>
<text text-anchor="middle" x="483.446" y="-217.8" font-family="Times New Roman,serif" font-size="14.00">Btree{_root=Btree{_bottom=_Bnodes(Btree)</text>
</g>
<!-- _Bnodes -->
<g id="node4" class="node"><title>_Bnodes</title>
<path fill="#ffe599" stroke="black" d="M376.946,-109C376.946,-109 333.946,-109 333.946,-109 327.946,-109 321.946,-103 321.946,-97 321.946,-97 321.946,-85 321.946,-85 321.946,-79 327.946,-73 333.946,-73 333.946,-73 376.946,-73 376.946,-73 382.946,-73 388.946,-79 388.946,-85 388.946,-85 388.946,-97 388.946,-97 388.946,-103 382.946,-109 376.946,-109"/>
<text text-anchor="middle" x="355.446" y="-87.3" font-family="Times New Roman,serif" font-size="14.00">_Bnodes</text>
</g>
<!-- Btree{_bottom&#45;&gt;_Bnodes -->
<g id="edge5" class="edge"><title>Btree{_bottom&#45;&gt;_Bnodes</title>
<path fill="none" stroke="black" d="M355.446,-159.799C355.446,-148.163 355.446,-132.548 355.446,-119.237"/>
<polygon fill="black" stroke="black" points="358.946,-119.175 355.446,-109.175 351.946,-119.175 358.946,-119.175"/>
<text text-anchor="middle" x="483.446" y="-130.8" font-family="Times New Roman,serif" font-size="14.00">Btree{_root=Btree{_bottom=_Bnodes(Btree)</text>
</g>
<!-- end -->
<g id="node7" class="node"><title>end</title>
<ellipse fill="none" stroke="black" cx="355.446" cy="-18" rx="27" ry="18"/>
<text text-anchor="middle" x="355.446" y="-14.3" font-family="Times New Roman,serif" font-size="14.00">end</text>
</g>
<!-- _Bnodes&#45;&gt;end -->
<g id="edge6" class="edge"><title>_Bnodes&#45;&gt;end</title>
<path fill="none" stroke="black" d="M355.446,-72.8129C355.446,-64.7895 355.446,-55.0475 355.446,-46.0691"/>
<polygon fill="black" stroke="black" points="358.946,-46.0288 355.446,-36.0288 351.946,-46.0289 358.946,-46.0288"/>
</g>
<!-- Btree{__init__ -->
<g id="node5" class="node"><title>Btree{__init__</title>
<path fill="#ffe599" stroke="black" d="M392.946,-457C392.946,-457 317.946,-457 317.946,-457 311.946,-457 305.946,-451 305.946,-445 305.946,-445 305.946,-433 305.946,-433 305.946,-427 311.946,-421 317.946,-421 317.946,-421 392.946,-421 392.946,-421 398.946,-421 404.946,-427 404.946,-433 404.946,-433 404.946,-445 404.946,-445 404.946,-451 398.946,-457 392.946,-457"/>
<text text-anchor="middle" x="355.446" y="-435.3" font-family="Times New Roman,serif" font-size="14.00">Btree{__init__</text>
</g>
<!-- Btree{__init__&#45;&gt;Btree{order -->
<g id="edge2" class="edge"><title>Btree{__init__&#45;&gt;Btree{order</title>
<path fill="none" stroke="black" d="M355.446,-420.799C355.446,-409.163 355.446,-393.548 355.446,-380.237"/>
<polygon fill="black" stroke="black" points="358.946,-380.175 355.446,-370.175 351.946,-380.175 358.946,-380.175"/>
<text text-anchor="middle" x="407.946" y="-391.8" font-family="Times New Roman,serif" font-size="14.00">Btree{order=order</text>
</g>
<!-- start -->
<g id="node6" class="node"><title>start</title>
<ellipse fill="none" stroke="black" cx="355.446" cy="-526" rx="27" ry="18"/>
<text text-anchor="middle" x="355.446" y="-522.3" font-family="Times New Roman,serif" font-size="14.00">start</text>
</g>
<!-- start&#45;&gt;Btree{__init__ -->
<g id="edge1" class="edge"><title>start&#45;&gt;Btree{__init__</title>
<path fill="none" stroke="black" d="M355.446,-507.799C355.446,-496.163 355.446,-480.548 355.446,-467.237"/>
<polygon fill="black" stroke="black" points="358.946,-467.175 355.446,-457.175 351.946,-467.175 358.946,-467.175"/>
<text text-anchor="middle" x="375.446" y="-478.8" font-family="Times New Roman,serif" font-size="14.00">(order)</text>
</g>
</g>
</svg>
