<?xml version="1.0" encoding="UTF-8" standalone="no"?>
<!DOCTYPE svg PUBLIC "-//W3C//DTD SVG 1.1//EN"
 "http://www.w3.org/Graphics/SVG/1.1/DTD/svg11.dtd">
<!-- Generated by graphviz version 2.38.0 (20140413.2041)
 -->
<!-- Title: %3 Pages: 1 -->
<svg width="1953pt" height="1359pt"
 viewBox="0.00 0.00 1953.45 1359.00" xmlns="http://www.w3.org/2000/svg" xmlns:xlink="http://www.w3.org/1999/xlink">
<g id="graph0" class="graph" transform="scale(1 1) rotate(0) translate(4 1355)">
<title>%3</title>
<polygon fill="white" stroke="none" points="-4,4 -4,-1355 1949.45,-1355 1949.45,4 -4,4"/>
<!-- []{insert -->
<g id="node1" class="node"><title>[]{insert</title>
<path fill="#ff5e99" stroke="black" d="M845.447,-1351C845.447,-1351 807.447,-1351 807.447,-1351 801.447,-1351 795.447,-1345 795.447,-1339 795.447,-1339 795.447,-1327 795.447,-1327 795.447,-1321 801.447,-1315 807.447,-1315 807.447,-1315 845.447,-1315 845.447,-1315 851.447,-1315 857.447,-1321 857.447,-1327 857.447,-1327 857.447,-1339 857.447,-1339 857.447,-1345 851.447,-1351 845.447,-1351"/>
<text text-anchor="middle" x="826.447" y="-1329.3" font-family="Times New Roman,serif" font-size="14.00">[]{insert</text>
</g>
<!-- _Bnodes{children -->
<g id="node4" class="node"><title>_Bnodes{children</title>
<path fill="#00e599" stroke="black" d="M212.84,-1233C212.84,-1233 58.0473,-1233 58.0473,-1233 52.0473,-1233 41.3225,-1229.3 36.5977,-1225.6 36.5977,-1225.6 9.50276,-1204.4 9.50276,-1204.4 4.77795,-1200.7 6.05315,-1197 12.0532,-1197 12.0532,-1197 166.846,-1197 166.846,-1197 172.846,-1197 183.571,-1200.7 188.296,-1204.4 188.296,-1204.4 215.391,-1225.6 215.391,-1225.6 220.116,-1229.3 218.84,-1233 212.84,-1233"/>
<text text-anchor="middle" x="112.447" y="-1211.3" font-family="Times New Roman,serif" font-size="14.00">_Bnodes{children</text>
</g>
<!-- []{insert&#45;&gt;_Bnodes{children -->
<g id="edge23" class="edge"><title>[]{insert&#45;&gt;_Bnodes{children</title>
<path fill="none" stroke="#aaffaa" d="M795.125,-1332.48C687.127,-1333.77 331.084,-1334.97 224.447,-1297 190.771,-1285.01 158.362,-1259.54 137.149,-1240.35"/>
<polygon fill="#aaffaa" stroke="#aaffaa" points="139.302,-1237.57 129.588,-1233.34 134.543,-1242.7 139.302,-1237.57"/>
</g>
<!-- len(_Bnodes{contents) &gt; _Bnodes{tree{order -->
<g id="node10" class="node"><title>len(_Bnodes{contents) &gt; _Bnodes{tree{order</title>
<path fill="#ffce9f" stroke="black" d="M483.477,-1232.15C483.477,-1232.15 254.88,-1215.85 254.88,-1215.85 248.895,-1215.43 248.895,-1214.57 254.88,-1214.15 254.88,-1214.15 483.477,-1197.85 483.477,-1197.85 489.462,-1197.43 501.432,-1197.43 507.416,-1197.85 507.416,-1197.85 736.014,-1214.15 736.014,-1214.15 741.999,-1214.57 741.999,-1215.43 736.014,-1215.85 736.014,-1215.85 507.416,-1232.15 507.416,-1232.15 501.432,-1232.57 489.462,-1232.57 483.477,-1232.15"/>
<text text-anchor="middle" x="495.447" y="-1211.3" font-family="Times New Roman,serif" font-size="14.00">len(_Bnodes{contents) &gt; _Bnodes{tree{order</text>
</g>
<!-- []{insert&#45;&gt;len(_Bnodes{contents) &gt; _Bnodes{tree{order -->
<g id="edge4" class="edge"><title>[]{insert&#45;&gt;len(_Bnodes{contents) &gt; _Bnodes{tree{order</title>
<path fill="none" stroke="#fff00f" d="M795.307,-1321.09C737.939,-1300.98 615.101,-1257.93 545.766,-1233.63"/>
<polygon fill="#fff00f" stroke="#fff00f" points="546.533,-1230.19 535.938,-1230.19 544.218,-1236.8 546.533,-1230.19"/>
</g>
<!-- len(parent{contents) &gt; parent{tree{order -->
<g id="node17" class="node"><title>len(parent{contents) &gt; parent{tree{order</title>
<path fill="#ffce9f" stroke="black" d="M978.485,-1232.04C978.485,-1232.04 778.359,-1215.96 778.359,-1215.96 772.379,-1215.48 772.379,-1214.52 778.359,-1214.04 778.359,-1214.04 978.485,-1197.96 978.485,-1197.96 984.466,-1197.48 996.428,-1197.48 1002.41,-1197.96 1002.41,-1197.96 1202.53,-1214.04 1202.53,-1214.04 1208.52,-1214.52 1208.52,-1215.48 1202.53,-1215.96 1202.53,-1215.96 1002.41,-1232.04 1002.41,-1232.04 996.428,-1232.52 984.466,-1232.52 978.485,-1232.04"/>
<text text-anchor="middle" x="990.447" y="-1211.3" font-family="Times New Roman,serif" font-size="14.00">len(parent{contents) &gt; parent{tree{order</text>
</g>
<!-- []{insert&#45;&gt;len(parent{contents) &gt; parent{tree{order -->
<g id="edge25" class="edge"><title>[]{insert&#45;&gt;len(parent{contents) &gt; parent{tree{order</title>
<path fill="none" stroke="#ffaaaa" d="M850.646,-1314.88C879.802,-1294.26 928.796,-1259.61 960.36,-1237.28"/>
<polygon fill="#ffaaaa" stroke="#ffaaaa" points="962.626,-1239.96 968.769,-1231.33 958.584,-1234.25 962.626,-1239.96"/>
</g>
<!-- _Bnodes{tree{BRANCH -->
<g id="node2" class="node"><title>_Bnodes{tree{BRANCH</title>
<path fill="#00e599" stroke="black" d="M1221.05,-131C1221.05,-131 536.192,-131 536.192,-131 530.192,-131 518.475,-129.181 512.757,-127.363 512.757,-127.363 353.275,-76.6372 353.275,-76.6372 347.557,-74.8186 347.839,-73 353.839,-73 353.839,-73 1038.7,-73 1038.7,-73 1044.7,-73 1056.42,-74.8186 1062.14,-76.6372 1062.14,-76.6372 1221.62,-127.363 1221.62,-127.363 1227.34,-129.181 1227.05,-131 1221.05,-131"/>
<text text-anchor="middle" x="787.447" y="-98.3" font-family="Times New Roman,serif" font-size="14.00">_Bnodes{tree{BRANCH</text>
</g>
<!-- _Bnodes{contents -->
<g id="node3" class="node"><title>_Bnodes{contents</title>
<path fill="#00e599" stroke="black" d="M1364.56,-36C1364.56,-36 1205.44,-36 1205.44,-36 1199.44,-36 1188.67,-32.3567 1183.91,-28.7135 1183.91,-28.7135 1155.87,-7.28652 1155.87,-7.28652 1151.1,-3.64326 1152.34,-2.08506e-014 1158.34,-2.0385e-014 1158.34,-2.0385e-014 1317.45,-8.03669e-015 1317.45,-8.03669e-015 1323.45,-7.57106e-015 1334.22,-3.64326 1338.99,-7.28652 1338.99,-7.28652 1367.02,-28.7135 1367.02,-28.7135 1371.79,-32.3567 1370.56,-36 1364.56,-36"/>
<text text-anchor="middle" x="1261.45" y="-14.3" font-family="Times New Roman,serif" font-size="14.00">_Bnodes{contents</text>
</g>
<!-- _Bnodes{tree{BRANCH&#45;&gt;_Bnodes{contents -->
<g id="edge20" class="edge"><title>_Bnodes{tree{BRANCH&#45;&gt;_Bnodes{contents</title>
<path fill="none" stroke="#aaffaa" d="M949.576,-72.9523C1026.3,-59.6791 1114.69,-44.3875 1177.74,-33.481"/>
<polygon fill="#aaffaa" stroke="#aaffaa" points="1178.38,-36.9227 1187.63,-31.7692 1177.18,-30.0251 1178.38,-36.9227"/>
</g>
<!-- _Bnodes{contents&#45;&gt;[]{insert -->
<g id="edge3" class="edge"><title>_Bnodes{contents&#45;&gt;[]{insert</title>
<path fill="none" stroke="#fff00f" d="M1261.45,-36.2771C1261.45,-52.8718 1261.45,-78.6493 1261.45,-101 1261.45,-1216 1261.45,-1216 1261.45,-1216 1261.45,-1296.94 976.749,-1322.84 867.993,-1329.78"/>
<polygon fill="#fff00f" stroke="#fff00f" points="867.497,-1326.3 857.731,-1330.41 867.927,-1333.29 867.497,-1326.3"/>
<text text-anchor="middle" x="1294.95" y="-772.3" font-family="Times New Roman,serif" font-size="14.00">(index,item)</text>
</g>
<!-- _Bnodes{contents&#45;&gt;[]{insert -->
<g id="edge22" class="edge"><title>_Bnodes{contents&#45;&gt;[]{insert</title>
<path fill="none" stroke="#00ffaa" d="M1353.33,-18.2272C1480.17,-19.6843 1693.45,-32.3425 1693.45,-101 1693.45,-1216 1693.45,-1216 1693.45,-1216 1693.45,-1300.37 1040.14,-1325.67 867.745,-1330.88"/>
<polygon fill="#00ffaa" stroke="#00ffaa" points="867.452,-1327.39 857.559,-1331.18 867.659,-1334.38 867.452,-1327.39"/>
<text text-anchor="middle" x="1819.45" y="-819.8" font-family="Times New Roman,serif" font-size="14.00">(index=parent_index,push) </text>
<text text-anchor="middle" x="1819.45" y="-804.8" font-family="Times New Roman,serif" font-size="14.00"> {parent{contents{insert(parent_index, push)</text>
</g>
<!-- _Bnodes{children&#45;&gt;[]{insert -->
<g id="edge24" class="edge"><title>_Bnodes{children&#45;&gt;[]{insert</title>
<path fill="none" stroke="#ffaaaa" d="M158.491,-1233.17C172.675,-1238.66 188.282,-1244.9 202.447,-1251 246.265,-1269.88 253.271,-1284.98 299.447,-1297 391.016,-1320.83 677.442,-1328.98 785.042,-1331.25"/>
<polygon fill="#ffaaaa" stroke="#ffaaaa" points="785.113,-1334.75 795.182,-1331.46 785.256,-1327.75 785.113,-1334.75"/>
<text text-anchor="middle" x="449.447" y="-1285.8" font-family="Times New Roman,serif" font-size="14.00">(parent_index+1,sibling)</text>
<text text-anchor="middle" x="449.447" y="-1254.8" font-family="Times New Roman,serif" font-size="14.00"> &#160;&#160;&#160;&#160;&#160;&#160;&#160;parent{children{insert(parent_index + 1, sibling)</text>
</g>
<!-- _Bnodes{split -->
<g id="node5" class="node"><title>_Bnodes{split</title>
<path fill="#ffe599" stroke="black" d="M1219.95,-401C1219.95,-401 730.947,-401 730.947,-401 724.947,-401 718.947,-395 718.947,-389 718.947,-389 718.947,-326 718.947,-326 718.947,-320 724.947,-314 730.947,-314 730.947,-314 1219.95,-314 1219.95,-314 1225.95,-314 1231.95,-320 1231.95,-326 1231.95,-326 1231.95,-389 1231.95,-389 1231.95,-395 1225.95,-401 1219.95,-401"/>
<text text-anchor="middle" x="975.447" y="-353.8" font-family="Times New Roman,serif" font-size="14.00">_Bnodes{split</text>
</g>
<!-- parent? -->
<g id="node13" class="node"><title>parent?</title>
<path fill="#ffce9f" stroke="black" d="M776.1,-259.094C776.1,-259.094 746.509,-248.906 746.509,-248.906 740.836,-246.953 740.836,-243.047 746.509,-241.094 746.509,-241.094 776.1,-230.906 776.1,-230.906 781.774,-228.953 793.12,-228.953 798.793,-230.906 798.793,-230.906 828.385,-241.094 828.385,-241.094 834.058,-243.047 834.058,-246.953 828.385,-248.906 828.385,-248.906 798.793,-259.094 798.793,-259.094 793.12,-261.047 781.774,-261.047 776.1,-259.094"/>
<text text-anchor="middle" x="787.447" y="-241.3" font-family="Times New Roman,serif" font-size="14.00">parent?</text>
</g>
<!-- _Bnodes{split&#45;&gt;parent? -->
<g id="edge18" class="edge"><title>_Bnodes{split&#45;&gt;parent?</title>
<path fill="none" stroke="#00ff00" d="M903.03,-313.936C872.12,-295.768 837.918,-275.665 814.796,-262.075"/>
<polygon fill="#00ff00" stroke="#00ff00" points="816.303,-258.901 805.908,-256.851 812.756,-264.936 816.303,-258.901"/>
<text text-anchor="middle" x="951.447" y="-284.8" font-family="Times New Roman,serif" font-size="14.00">sibling,push=_Bnodes.split()</text>
</g>
<!-- _Bnodes{insert -->
<g id="node6" class="node"><title>_Bnodes{insert</title>
<path fill="#ffe599" stroke="black" d="M1653.45,-120C1653.45,-120 1301.45,-120 1301.45,-120 1295.45,-120 1289.45,-114 1289.45,-108 1289.45,-108 1289.45,-96 1289.45,-96 1289.45,-90 1295.45,-84 1301.45,-84 1301.45,-84 1653.45,-84 1653.45,-84 1659.45,-84 1665.45,-90 1665.45,-96 1665.45,-96 1665.45,-108 1665.45,-108 1665.45,-114 1659.45,-120 1653.45,-120"/>
<text text-anchor="middle" x="1477.45" y="-98.3" font-family="Times New Roman,serif" font-size="14.00">_Bnodes{insert</text>
</g>
<!-- _Bnodes{insert&#45;&gt;_Bnodes{contents -->
<g id="edge2" class="edge"><title>_Bnodes{insert&#45;&gt;_Bnodes{contents</title>
<path fill="none" stroke="#fff00f" d="M1432.43,-83.9099C1398.49,-71.027 1351.81,-53.3027 1315.79,-39.6301"/>
<polygon fill="#fff00f" stroke="#fff00f" points="1317,-36.3451 1306.41,-36.0681 1314.51,-42.8894 1317,-36.3451"/>
</g>
<!-- _Bnodes{shrink -->
<g id="node7" class="node"><title>_Bnodes{shrink</title>
<path fill="#ffe599" stroke="black" d="M723.947,-1146C723.947,-1146 640.947,-1146 640.947,-1146 634.947,-1146 628.947,-1140 628.947,-1134 628.947,-1134 628.947,-1122 628.947,-1122 628.947,-1116 634.947,-1110 640.947,-1110 640.947,-1110 723.947,-1110 723.947,-1110 729.947,-1110 735.947,-1116 735.947,-1122 735.947,-1122 735.947,-1134 735.947,-1134 735.947,-1140 729.947,-1146 723.947,-1146"/>
<text text-anchor="middle" x="682.447" y="-1124.3" font-family="Times New Roman,serif" font-size="14.00">_Bnodes{shrink</text>
</g>
<!-- ancestors? -->
<g id="node11" class="node"><title>ancestors?</title>
<path fill="#ffce9f" stroke="black" d="M840.828,-1056C840.828,-1056 794.354,-1044 794.354,-1044 788.544,-1042.5 788.544,-1039.5 794.354,-1038 794.354,-1038 840.828,-1026 840.828,-1026 846.637,-1024.5 858.256,-1024.5 864.066,-1026 864.066,-1026 910.54,-1038 910.54,-1038 916.35,-1039.5 916.35,-1042.5 910.54,-1044 910.54,-1044 864.066,-1056 864.066,-1056 858.256,-1057.5 846.637,-1057.5 840.828,-1056"/>
<text text-anchor="middle" x="852.447" y="-1037.3" font-family="Times New Roman,serif" font-size="14.00">ancestors?</text>
</g>
<!-- _Bnodes{shrink&#45;&gt;ancestors? -->
<g id="edge7" class="edge"><title>_Bnodes{shrink&#45;&gt;ancestors?</title>
<path fill="none" stroke="#00ff00" d="M716.849,-1109.8C747.315,-1094.57 791.416,-1072.52 820.967,-1057.74"/>
<polygon fill="#00ff00" stroke="#00ff00" points="822.636,-1060.82 830.015,-1053.22 819.505,-1054.56 822.636,-1060.82"/>
<text text-anchor="middle" x="818.947" y="-1080.8" font-family="Times New Roman,serif" font-size="14.00">parent = None</text>
</g>
<!-- end -->
<g id="node19" class="node"><title>end</title>
<ellipse fill="none" stroke="black" cx="492.447" cy="-245" rx="27" ry="18"/>
<text text-anchor="middle" x="492.447" y="-241.3" font-family="Times New Roman,serif" font-size="14.00">end</text>
</g>
<!-- _Bnodes{shrink&#45;&gt;end -->
<g id="edge27" class="edge"><title>_Bnodes{shrink&#45;&gt;end</title>
<path fill="none" stroke="#ffaaaa" d="M628.762,-1125.14C572.577,-1119.97 492.447,-1102.08 492.447,-1042 492.447,-1042 492.447,-1042 492.447,-356.5 492.447,-328.144 492.447,-295.694 492.447,-273.332"/>
<polygon fill="#ffaaaa" stroke="#ffaaaa" points="495.947,-273.226 492.447,-263.226 488.947,-273.226 495.947,-273.226"/>
</g>
<!-- _Bnodes{lateral_left -->
<g id="node8" class="node"><title>_Bnodes{lateral_left</title>
<path fill="#ffe599" stroke="black" d="M626.947,-619.5C626.947,-619.5 519.947,-619.5 519.947,-619.5 513.947,-619.5 507.947,-613.5 507.947,-607.5 507.947,-607.5 507.947,-595.5 507.947,-595.5 507.947,-589.5 513.947,-583.5 519.947,-583.5 519.947,-583.5 626.947,-583.5 626.947,-583.5 632.947,-583.5 638.947,-589.5 638.947,-595.5 638.947,-595.5 638.947,-607.5 638.947,-607.5 638.947,-613.5 632.947,-619.5 626.947,-619.5"/>
<text text-anchor="middle" x="573.447" y="-597.8" font-family="Times New Roman,serif" font-size="14.00">_Bnodes{lateral_left</text>
</g>
<!-- _Bnodes{lateral_left&#45;&gt;end -->
<g id="edge29" class="edge"><title>_Bnodes{lateral_left&#45;&gt;end</title>
<path fill="none" stroke="black" d="M566.018,-583.27C560.74,-570.441 553.835,-552.389 549.447,-536 519.718,-424.978 537.522,-391.653 506.447,-281 505.607,-278.009 504.597,-274.924 503.509,-271.882"/>
<polygon fill="black" stroke="black" points="506.748,-270.552 499.881,-262.483 500.217,-273.073 506.748,-270.552"/>
</g>
<!-- _Bnodes{lateral_right -->
<g id="node9" class="node"><title>_Bnodes{lateral_right</title>
<path fill="#ffe599" stroke="black" d="M686.447,-375.5C686.447,-375.5 572.447,-375.5 572.447,-375.5 566.447,-375.5 560.447,-369.5 560.447,-363.5 560.447,-363.5 560.447,-351.5 560.447,-351.5 560.447,-345.5 566.447,-339.5 572.447,-339.5 572.447,-339.5 686.447,-339.5 686.447,-339.5 692.447,-339.5 698.447,-345.5 698.447,-351.5 698.447,-351.5 698.447,-363.5 698.447,-363.5 698.447,-369.5 692.447,-375.5 686.447,-375.5"/>
<text text-anchor="middle" x="629.447" y="-353.8" font-family="Times New Roman,serif" font-size="14.00">_Bnodes{lateral_right</text>
</g>
<!-- _Bnodes{lateral_right&#45;&gt;end -->
<g id="edge30" class="edge"><title>_Bnodes{lateral_right&#45;&gt;end</title>
<path fill="none" stroke="black" d="M611.486,-339.269C594.687,-323.466 568.628,-299.742 544.447,-281 536.741,-275.027 528.059,-268.948 520.029,-263.569"/>
<polygon fill="black" stroke="black" points="521.924,-260.626 511.648,-258.044 518.071,-266.47 521.924,-260.626"/>
</g>
<!-- len(_Bnodes{contents) &gt; _Bnodes{tree{order&#45;&gt;_Bnodes{shrink -->
<g id="edge6" class="edge"><title>len(_Bnodes{contents) &gt; _Bnodes{tree{order&#45;&gt;_Bnodes{shrink</title>
<path fill="none" stroke="#00ff00" d="M528.02,-1199.19C557.767,-1185.67 602.087,-1165.53 635.627,-1150.28"/>
<polygon fill="#00ff00" stroke="#00ff00" points="637.125,-1153.45 644.78,-1146.12 634.228,-1147.07 637.125,-1153.45"/>
<text text-anchor="middle" x="644.447" y="-1167.8" font-family="Times New Roman,serif" font-size="14.00">Yes (ancestors)</text>
</g>
<!-- len(_Bnodes{contents) &gt; _Bnodes{tree{order&#45;&gt;end -->
<g id="edge5" class="edge"><title>len(_Bnodes{contents) &gt; _Bnodes{tree{order&#45;&gt;end</title>
<path fill="none" stroke="#fff00f" d="M454.464,-1199.89C424.636,-1186.71 389.447,-1163.79 389.447,-1129 389.447,-1129 389.447,-1129 389.447,-356.5 389.447,-318.526 402.864,-308.117 429.447,-281 438.186,-272.085 449.683,-264.803 460.46,-259.235"/>
<polygon fill="#fff00f" stroke="#fff00f" points="462.181,-262.291 469.658,-254.785 459.132,-255.989 462.181,-262.291"/>
<text text-anchor="middle" x="398.447" y="-863.3" font-family="Times New Roman,serif" font-size="14.00">No</text>
</g>
<!-- ancestors?&#45;&gt;_Bnodes{split -->
<g id="edge9" class="edge"><title>ancestors?&#45;&gt;_Bnodes{split</title>
<path fill="none" stroke="#00ff00" d="M912.391,-1038.42C1016.67,-1034.03 1220.45,-1017.46 1220.45,-955 1220.45,-955 1220.45,-955 1220.45,-517 1220.45,-465.481 1181.78,-429.882 1135.18,-405.683"/>
<polygon fill="#00ff00" stroke="#00ff00" points="1136.58,-402.475 1126.07,-401.146 1133.46,-408.74 1136.58,-402.475"/>
<text text-anchor="middle" x="1229.45" y="-772.3" font-family="Times New Roman,serif" font-size="14.00">No</text>
</g>
<!-- parent_index? -->
<g id="node12" class="node"><title>parent_index?</title>
<path fill="#ffce9f" stroke="black" d="M840.695,-969.572C840.695,-969.572 777.058,-956.428 777.058,-956.428 771.183,-955.214 771.183,-952.786 777.058,-951.572 777.058,-951.572 840.695,-938.428 840.695,-938.428 846.571,-937.214 858.323,-937.214 864.199,-938.428 864.199,-938.428 927.835,-951.572 927.835,-951.572 933.711,-952.786 933.711,-955.214 927.835,-956.428 927.835,-956.428 864.199,-969.572 864.199,-969.572 858.323,-970.786 846.571,-970.786 840.695,-969.572"/>
<text text-anchor="middle" x="852.447" y="-950.3" font-family="Times New Roman,serif" font-size="14.00">parent_index?</text>
</g>
<!-- ancestors?&#45;&gt;parent_index? -->
<g id="edge8" class="edge"><title>ancestors?&#45;&gt;parent_index?</title>
<path fill="none" stroke="#00ff00" d="M852.447,-1022.8C852.447,-1011.16 852.447,-995.548 852.447,-982.237"/>
<polygon fill="#00ff00" stroke="#00ff00" points="855.947,-982.175 852.447,-972.175 848.947,-982.175 855.947,-982.175"/>
<text text-anchor="middle" x="978.947" y="-993.8" font-family="Times New Roman,serif" font-size="14.00">Yes (parent, parent_index = ancestors.pop())</text>
</g>
<!-- len(left_sib{contents) &lt; _Bnodes{tree{order -->
<g id="node14" class="node"><title>len(left_sib{contents) &lt; _Bnodes{tree{order</title>
<path fill="#ffce9f" stroke="black" d="M752.479,-884.119C752.479,-884.119 531.923,-867.881 531.923,-867.881 525.939,-867.441 525.939,-866.559 531.923,-866.119 531.923,-866.119 752.479,-849.881 752.479,-849.881 758.463,-849.441 770.431,-849.441 776.414,-849.881 776.414,-849.881 996.971,-866.119 996.971,-866.119 1002.95,-866.559 1002.95,-867.441 996.971,-867.881 996.971,-867.881 776.414,-884.119 776.414,-884.119 770.431,-884.559 758.463,-884.559 752.479,-884.119"/>
<text text-anchor="middle" x="764.447" y="-863.3" font-family="Times New Roman,serif" font-size="14.00">len(left_sib{contents) &lt; _Bnodes{tree{order</text>
</g>
<!-- parent_index?&#45;&gt;len(left_sib{contents) &lt; _Bnodes{tree{order -->
<g id="edge12" class="edge"><title>parent_index?&#45;&gt;len(left_sib{contents) &lt; _Bnodes{tree{order</title>
<path fill="none" stroke="#00ff00" d="M799.987,-946.796C782.255,-941.907 764.235,-933.257 753.447,-918 748.558,-911.086 748.831,-902.394 751.101,-894.205"/>
<polygon fill="#00ff00" stroke="#00ff00" points="754.461,-895.211 754.648,-884.618 747.896,-892.782 754.461,-895.211"/>
<text text-anchor="middle" x="891.947" y="-906.8" font-family="Times New Roman,serif" font-size="14.00">Yes (left_sib = parent{children[parent_index &#45; 1])</text>
</g>
<!-- parent_index + 1 &lt; len(parent{children) -->
<g id="node16" class="node"><title>parent_index + 1 &lt; len(parent{children)</title>
<path fill="#ffce9f" stroke="black" d="M880.488,-702.011C880.488,-702.011 686.725,-685.989 686.725,-685.989 680.746,-685.494 680.746,-684.506 686.725,-684.011 686.725,-684.011 880.488,-667.989 880.488,-667.989 886.467,-667.494 898.426,-667.494 904.406,-667.989 904.406,-667.989 1098.17,-684.011 1098.17,-684.011 1104.15,-684.506 1104.15,-685.494 1098.17,-685.989 1098.17,-685.989 904.406,-702.011 904.406,-702.011 898.426,-702.506 886.467,-702.506 880.488,-702.011"/>
<text text-anchor="middle" x="892.447" y="-681.3" font-family="Times New Roman,serif" font-size="14.00">parent_index + 1 &lt; len(parent{children)</text>
</g>
<!-- parent_index?&#45;&gt;parent_index + 1 &lt; len(parent{children) -->
<g id="edge10" class="edge"><title>parent_index?&#45;&gt;parent_index + 1 &lt; len(parent{children)</title>
<path fill="none" stroke="#00ff00" d="M915.64,-948.912C960.763,-944.521 1015.94,-935.635 1030.45,-918 1058.26,-884.19 1057.33,-755.552 1030.45,-721 1023.14,-711.613 1001.83,-704.337 978.067,-698.912"/>
<polygon fill="#00ff00" stroke="#00ff00" points="978.65,-695.457 968.137,-696.774 977.177,-702.301 978.65,-695.457"/>
<text text-anchor="middle" x="1123.45" y="-863.3" font-family="Times New Roman,serif" font-size="14.00">NO (parent, parent_index)</text>
</g>
<!-- parent?&#45;&gt;_Bnodes{tree{BRANCH -->
<g id="edge19" class="edge"><title>parent?&#45;&gt;_Bnodes{tree{BRANCH</title>
<path fill="none" stroke="#00ff00" d="M787.447,-226.992C787.447,-205.884 787.447,-169.256 787.447,-141.266"/>
<polygon fill="#00ff00" stroke="#00ff00" points="790.947,-141.012 787.447,-131.012 783.947,-141.012 790.947,-141.012"/>
<text text-anchor="middle" x="948.447" y="-197.8" font-family="Times New Roman,serif" font-size="14.00">NO (tree=_Bnodes{tree,children=[_Bnodes])</text>
<text text-anchor="middle" x="948.447" y="-182.8" font-family="Times New Roman,serif" font-size="14.00"> &#160;&#160;&#160;&#160;&#160;&#160;&#160;&#160;&#160;&#160;&#160;parent, parent_index = _Bnodes{tree{BRANCH(</text>
<text text-anchor="middle" x="948.447" y="-167.8" font-family="Times New Roman,serif" font-size="14.00"> &#160;&#160;&#160;&#160;&#160;&#160;&#160;&#160;&#160;&#160;&#160;&#160;&#160;&#160;&#160;&#160;&#160;&#160;&#160;_Bnodes{tree, children=[self]), 0</text>
<text text-anchor="middle" x="948.447" y="-152.8" font-family="Times New Roman,serif" font-size="14.00">_Bnodes{tree{_root = parent</text>
</g>
<!-- parent?&#45;&gt;_Bnodes{contents -->
<g id="edge21" class="edge"><title>parent?&#45;&gt;_Bnodes{contents</title>
<path fill="none" stroke="#aaffaa" d="M741.706,-242.714C599.386,-237.266 181.456,-209.523 310.447,-73 339.403,-42.353 925.921,-26.2623 1163.15,-20.9874"/>
<polygon fill="#aaffaa" stroke="#aaffaa" points="1163.57,-24.479 1173.49,-20.7593 1163.42,-17.4807 1163.57,-24.479"/>
<text text-anchor="middle" x="321.447" y="-98.3" font-family="Times New Roman,serif" font-size="14.00">Yes</text>
</g>
<!-- len(left_sib{contents) &lt; _Bnodes{tree{order&#45;&gt;_Bnodes{lateral_left -->
<g id="edge13" class="edge"><title>len(left_sib{contents) &lt; _Bnodes{tree{order&#45;&gt;_Bnodes{lateral_left</title>
<path fill="none" stroke="#00ff00" d="M642.783,-857.902C606.737,-852.809 573.82,-844.513 562.447,-831 513.961,-773.391 543.324,-675.787 561.821,-629.023"/>
<polygon fill="#00ff00" stroke="#00ff00" points="565.135,-630.167 565.682,-619.587 558.656,-627.516 565.135,-630.167"/>
<text text-anchor="middle" x="657.447" y="-772.3" font-family="Times New Roman,serif" font-size="14.00">Yes (parent,parent_index,left_sib)</text>
</g>
<!-- len(left_sib{contents) &lt; _Bnodes{tree{order&#45;&gt;parent_index + 1 &lt; len(parent{children) -->
<g id="edge11" class="edge"><title>len(left_sib{contents) &lt; _Bnodes{tree{order&#45;&gt;parent_index + 1 &lt; len(parent{children)</title>
<path fill="none" stroke="#00ff00" d="M760.611,-849.012C754.995,-819.416 748.221,-758.029 778.447,-721 785.636,-712.193 794.987,-705.553 805.24,-700.557"/>
<polygon fill="#00ff00" stroke="#00ff00" points="806.661,-703.756 814.452,-696.576 803.884,-697.33 806.661,-703.756"/>
<text text-anchor="middle" x="904.447" y="-772.3" font-family="Times New Roman,serif" font-size="14.00">NO (parent, parent_index = ancestors.pop())</text>
</g>
<!-- len(right_sib{contents) &lt; _Bnodes{tree{order -->
<g id="node15" class="node"><title>len(right_sib{contents) &lt; _Bnodes{tree{order</title>
<path fill="#ffce9f" stroke="black" d="M798.477,-535.144C798.477,-535.144 570.718,-518.856 570.718,-518.856 564.733,-518.428 564.733,-517.572 570.718,-517.144 570.718,-517.144 798.477,-500.856 798.477,-500.856 804.462,-500.428 816.432,-500.428 822.416,-500.856 822.416,-500.856 1050.18,-517.144 1050.18,-517.144 1056.16,-517.572 1056.16,-518.428 1050.18,-518.856 1050.18,-518.856 822.416,-535.144 822.416,-535.144 816.432,-535.572 804.462,-535.572 798.477,-535.144"/>
<text text-anchor="middle" x="810.447" y="-514.3" font-family="Times New Roman,serif" font-size="14.00">len(right_sib{contents) &lt; _Bnodes{tree{order</text>
</g>
<!-- len(right_sib{contents) &lt; _Bnodes{tree{order&#45;&gt;_Bnodes{split -->
<g id="edge17" class="edge"><title>len(right_sib{contents) &lt; _Bnodes{tree{order&#45;&gt;_Bnodes{split</title>
<path fill="none" stroke="#00ff00" d="M852.494,-503.006C864.873,-497.649 877.911,-490.686 888.447,-482 912.418,-462.238 932.832,-434.323 947.849,-410.031"/>
<polygon fill="#00ff00" stroke="#00ff00" points="950.967,-411.638 953.134,-401.267 944.973,-408.023 950.967,-411.638"/>
<text text-anchor="middle" x="951.447" y="-446.8" font-family="Times New Roman,serif" font-size="14.00">No</text>
</g>
<!-- len(right_sib{contents) &lt; _Bnodes{tree{order&#45;&gt;_Bnodes{lateral_right -->
<g id="edge15" class="edge"><title>len(right_sib{contents) &lt; _Bnodes{tree{order&#45;&gt;_Bnodes{lateral_right</title>
<path fill="none" stroke="#00ff00" d="M721.772,-506.239C691.142,-500.736 661.873,-492.855 651.447,-482 627.075,-456.624 624.703,-414.092 626.269,-386.163"/>
<polygon fill="#00ff00" stroke="#00ff00" points="629.782,-386.126 627.059,-375.888 622.803,-385.59 629.782,-386.126"/>
<text text-anchor="start" x="651.447" y="-470.8" font-family="Times New Roman,serif" font-size="14.00">Yes (parent,parent_index,dest=right_sib) </text>
</g>
<!-- parent_index + 1 &lt; len(parent{children)&#45;&gt;_Bnodes{split -->
<g id="edge16" class="edge"><title>parent_index + 1 &lt; len(parent{children)&#45;&gt;_Bnodes{split</title>
<path fill="none" stroke="#00ff00" d="M1008.92,-676.612C1046.96,-671.592 1082.53,-663.16 1094.45,-649 1154.77,-577.321 1080.43,-470.923 1025.07,-408.75"/>
<polygon fill="#00ff00" stroke="#00ff00" points="1027.39,-406.093 1018.08,-401.022 1022.19,-410.787 1027.39,-406.093"/>
<text text-anchor="middle" x="1115.45" y="-514.3" font-family="Times New Roman,serif" font-size="14.00">No</text>
</g>
<!-- parent_index + 1 &lt; len(parent{children)&#45;&gt;len(right_sib{contents) &lt; _Bnodes{tree{order -->
<g id="edge14" class="edge"><title>parent_index + 1 &lt; len(parent{children)&#45;&gt;len(right_sib{contents) &lt; _Bnodes{tree{order</title>
<path fill="none" stroke="#00ff00" d="M831.741,-671.815C820.21,-666.679 809.546,-659.378 802.447,-649 781.525,-618.416 790.667,-573.717 799.956,-545.507"/>
<polygon fill="#00ff00" stroke="#00ff00" points="803.313,-546.511 803.33,-535.916 796.71,-544.188 803.313,-546.511"/>
<text text-anchor="middle" x="948.447" y="-637.8" font-family="Times New Roman,serif" font-size="14.00">Yes (right_sib = parent{children[parent_index + 1]) </text>
</g>
<!-- len(parent{contents) &gt; parent{tree{order&#45;&gt;_Bnodes{shrink -->
<g id="edge26" class="edge"><title>len(parent{contents) &gt; parent{tree{order&#45;&gt;_Bnodes{shrink</title>
<path fill="none" stroke="#ffaaaa" d="M942.66,-1200.81C889.79,-1186.22 804.357,-1162.64 745.907,-1146.51"/>
<polygon fill="#ffaaaa" stroke="#ffaaaa" points="746.616,-1143.08 736.045,-1143.79 744.753,-1149.83 746.616,-1143.08"/>
<text text-anchor="middle" x="899.447" y="-1167.8" font-family="Times New Roman,serif" font-size="14.00">Yes (ancestors)</text>
</g>
<!-- len(parent{contents) &gt; parent{tree{order&#45;&gt;end -->
<g id="edge28" class="edge"><title>len(parent{contents) &gt; parent{tree{order&#45;&gt;end</title>
<path fill="none" stroke="#ffaaaa" d="M882.297,-1205.66C764.065,-1196.42 589.297,-1182.39 574.447,-1179 513.689,-1165.14 443.447,-1191.32 443.447,-1129 443.447,-1129 443.447,-1129 443.447,-356.5 443.447,-324.549 460.778,-291.519 474.826,-269.994"/>
<polygon fill="#ffaaaa" stroke="#ffaaaa" points="477.864,-271.749 480.585,-261.51 472.073,-267.818 477.864,-271.749"/>
<text text-anchor="middle" x="453.947" y="-863.3" font-family="Times New Roman,serif" font-size="14.00">NO</text>
</g>
<!-- start -->
<g id="node18" class="node"><title>start</title>
<ellipse fill="none" stroke="black" cx="1477.45" cy="-245" rx="27" ry="18"/>
<text text-anchor="middle" x="1477.45" y="-241.3" font-family="Times New Roman,serif" font-size="14.00">start</text>
</g>
<!-- start&#45;&gt;_Bnodes{insert -->
<g id="edge1" class="edge"><title>start&#45;&gt;_Bnodes{insert</title>
<path fill="none" stroke="black" d="M1477.45,-226.992C1477.45,-202.961 1477.45,-158.815 1477.45,-130.2"/>
<polygon fill="black" stroke="black" points="1480.95,-130.068 1477.45,-120.068 1473.95,-130.068 1480.95,-130.068"/>
<text text-anchor="middle" x="1539.45" y="-175.3" font-family="Times New Roman,serif" font-size="14.00">(index,item,ancestors)</text>
</g>
</g>
</svg>
