<?xml version="1.0" encoding="UTF-8" standalone="no"?>
<!DOCTYPE svg PUBLIC "-//W3C//DTD SVG 1.1//EN"
 "http://www.w3.org/Graphics/SVG/1.1/DTD/svg11.dtd">
<!-- Generated by graphviz version 2.38.0 (20140413.2041)
 -->
<!-- Title: %3 Pages: 1 -->
<svg width="1032pt" height="527pt"
 viewBox="0.00 0.00 1032.03 527.00" xmlns="http://www.w3.org/2000/svg" xmlns:xlink="http://www.w3.org/1999/xlink">
<g id="graph0" class="graph" transform="scale(1 1) rotate(0) translate(4 523)">
<title>%3</title>
<polygon fill="white" stroke="none" points="-4,4 -4,-523 1028.03,-523 1028.03,4 -4,4"/>
<!-- []{append -->
<g id="node1" class="node"><title>[]{append</title>
<path fill="#ff5e99" stroke="black" d="M603.034,-519C603.034,-519 553.034,-519 553.034,-519 547.034,-519 541.034,-513 541.034,-507 541.034,-507 541.034,-495 541.034,-495 541.034,-489 547.034,-483 553.034,-483 553.034,-483 603.034,-483 603.034,-483 609.034,-483 615.034,-489 615.034,-495 615.034,-495 615.034,-507 615.034,-507 615.034,-513 609.034,-519 603.034,-519"/>
<text text-anchor="middle" x="578.034" y="-497.3" font-family="Times New Roman,serif" font-size="14.00">[]{append</text>
</g>
<!-- index &lt; len(current{contents) -->
<g id="node4" class="node"><title>index &lt; len(current{contents)</title>
<path fill="#ffce9f" stroke="black" d="M295.104,-444.702C295.104,-444.702 153.567,-429.298 153.567,-429.298 147.602,-428.649 147.602,-427.351 153.567,-426.702 153.567,-426.702 295.104,-411.298 295.104,-411.298 301.069,-410.649 312.999,-410.649 318.963,-411.298 318.963,-411.298 460.501,-426.702 460.501,-426.702 466.466,-427.351 466.466,-428.649 460.501,-429.298 460.501,-429.298 318.963,-444.702 318.963,-444.702 312.999,-445.351 301.069,-445.351 295.104,-444.702"/>
<text text-anchor="middle" x="307.034" y="-424.3" font-family="Times New Roman,serif" font-size="14.00">index &lt; len(current{contents)</text>
</g>
<!-- []{append&#45;&gt;index &lt; len(current{contents) -->
<g id="edge7" class="edge"><title>[]{append&#45;&gt;index &lt; len(current{contents)</title>
<path fill="none" stroke="#0000ff" d="M540.921,-490.277C495.027,-478.253 416.461,-457.669 363.177,-443.709"/>
<polygon fill="#0000ff" stroke="#0000ff" points="363.766,-440.245 353.206,-441.097 361.992,-447.017 363.766,-440.245"/>
</g>
<!-- end -->
<g id="node10" class="node"><title>end</title>
<ellipse fill="none" stroke="black" cx="516.034" cy="-222" rx="27" ry="18"/>
<text text-anchor="middle" x="516.034" y="-218.3" font-family="Times New Roman,serif" font-size="14.00">end</text>
</g>
<!-- []{append&#45;&gt;end -->
<g id="edge14" class="edge"><title>[]{append&#45;&gt;end</title>
<path fill="none" stroke="#0000ff" d="M562.592,-482.848C545.643,-462.759 519.455,-427.666 509.034,-392 494.914,-343.675 502.846,-284.279 509.626,-250.315"/>
<polygon fill="#0000ff" stroke="#0000ff" points="513.115,-250.735 511.758,-240.228 506.266,-249.288 513.115,-250.735"/>
<text text-anchor="middle" x="532.534" y="-364.8" font-family="Times New Roman,serif" font-size="14.00">ancestry</text>
</g>
<!-- []{append&#45;&gt;end -->
<g id="edge17" class="edge"><title>[]{append&#45;&gt;end</title>
<path fill="none" stroke="#00ff00" d="M576.009,-482.75C572.752,-456.345 565.718,-404.399 556.034,-361 547.267,-321.71 533.657,-277.115 524.794,-249.518"/>
<polygon fill="#00ff00" stroke="#00ff00" points="528.064,-248.252 521.65,-239.819 521.405,-250.411 528.064,-248.252"/>
<text text-anchor="middle" x="586.534" y="-372.8" font-family="Times New Roman,serif" font-size="14.00">ancestry</text>
</g>
<!-- Btree{_root -->
<g id="node2" class="node"><title>Btree{_root</title>
<path fill="#00e599" stroke="black" d="M955.222,-123C955.222,-123 853.251,-123 853.251,-123 847.251,-123 837.237,-118.541 833.223,-114.081 833.223,-114.081 816.874,-95.9188 816.874,-95.9188 812.86,-91.4594 814.846,-87 820.846,-87 820.846,-87 922.816,-87 922.816,-87 928.816,-87 938.83,-91.4594 942.845,-95.9188 942.845,-95.9188 959.194,-114.081 959.194,-114.081 963.208,-118.541 961.222,-123 955.222,-123"/>
<text text-anchor="middle" x="888.034" y="-101.3" font-family="Times New Roman,serif" font-size="14.00">Btree{_root</text>
</g>
<!-- ancestry -->
<g id="node8" class="node"><title>ancestry</title>
<path fill="#00e599" stroke="black" d="M669.104,-36C669.104,-36 597.546,-36 597.546,-36 591.546,-36 582.162,-31.045 578.779,-26.09 578.779,-26.09 567.73,-9.91002 567.73,-9.91002 564.347,-4.95501 566.964,-2.0424e-014 572.964,-1.95317e-014 572.964,-1.95317e-014 644.522,-8.88999e-015 644.522,-8.88999e-015 650.522,-7.99771e-015 659.906,-4.95501 663.289,-9.91002 663.289,-9.91002 674.337,-26.09 674.337,-26.09 677.721,-31.045 675.104,-36 669.104,-36"/>
<text text-anchor="middle" x="621.034" y="-14.3" font-family="Times New Roman,serif" font-size="14.00">ancestry</text>
</g>
<!-- Btree{_root&#45;&gt;ancestry -->
<g id="edge3" class="edge"><title>Btree{_root&#45;&gt;ancestry</title>
<path fill="none" stroke="black" d="M860.09,-86.9968C841.187,-76.1555 815.33,-62.5805 791.034,-54 756.807,-41.9121 717.149,-33.4504 684.75,-27.8789"/>
<polygon fill="black" stroke="black" points="684.942,-24.3626 674.502,-26.1705 683.791,-31.2673 684.942,-24.3626"/>
<text text-anchor="middle" x="860.034" y="-57.8" font-family="Times New Roman,serif" font-size="14.00">ancestry = []</text>
</g>
<!-- getattr(current,&#39;children&#39;,None) -->
<g id="node3" class="node"><title>getattr(current,&#39;children&#39;,None)</title>
<path fill="#ffce9f" stroke="black" d="M287.099,-238.749C287.099,-238.749 139.204,-223.251 139.204,-223.251 133.236,-222.625 133.236,-221.375 139.204,-220.749 139.204,-220.749 287.099,-205.251 287.099,-205.251 293.067,-204.625 305.001,-204.625 310.969,-205.251 310.969,-205.251 458.864,-220.749 458.864,-220.749 464.831,-221.375 464.831,-222.625 458.864,-223.251 458.864,-223.251 310.969,-238.749 310.969,-238.749 305.001,-239.375 293.067,-239.375 287.099,-238.749"/>
<text text-anchor="middle" x="299.034" y="-218.3" font-family="Times New Roman,serif" font-size="14.00">getattr(current,&#39;children&#39;,None)</text>
</g>
<!-- bisect{bisect_left -->
<g id="node7" class="node"><title>bisect{bisect_left</title>
<path fill="#ffe599" stroke="black" d="M425.034,-123C425.034,-123 335.034,-123 335.034,-123 329.034,-123 323.034,-117 323.034,-111 323.034,-111 323.034,-99 323.034,-99 323.034,-93 329.034,-87 335.034,-87 335.034,-87 425.034,-87 425.034,-87 431.034,-87 437.034,-93 437.034,-99 437.034,-99 437.034,-111 437.034,-111 437.034,-117 431.034,-123 425.034,-123"/>
<text text-anchor="middle" x="380.034" y="-101.3" font-family="Times New Roman,serif" font-size="14.00">bisect{bisect_left</text>
</g>
<!-- getattr(current,&#39;children&#39;,None)&#45;&gt;bisect{bisect_left -->
<g id="edge5" class="edge"><title>getattr(current,&#39;children&#39;,None)&#45;&gt;bisect{bisect_left</title>
<path fill="none" stroke="#00ff00" d="M193.96,-214.984C116.452,-209.442 22.3945,-199.948 10.0339,-186 -3.23089,-171.032 -3.42587,-155.793 10.0339,-141 29.9488,-119.112 211.323,-110.621 312.526,-107.566"/>
<polygon fill="#00ff00" stroke="#00ff00" points="312.766,-111.061 322.659,-107.27 312.561,-104.064 312.766,-111.061"/>
<text text-anchor="middle" x="152.534" y="-167.3" font-family="Times New Roman,serif" font-size="14.00">NO,(current.contents,item)</text>
<text text-anchor="middle" x="152.534" y="-152.3" font-family="Times New Roman,serif" font-size="14.00"> &#160;&#160;&#160;index = bisect.bisect_left(current{contents,item)</text>
</g>
<!-- getattr(current,&#39;children&#39;,None)&#45;&gt;bisect{bisect_left -->
<g id="edge6" class="edge"><title>getattr(current,&#39;children&#39;,None)&#45;&gt;bisect{bisect_left</title>
<path fill="none" stroke="#0000ff" d="M299.233,-203.713C300.263,-186.272 304.216,-159.365 318.034,-141 321.424,-136.494 325.576,-132.482 330.109,-128.931"/>
<polygon fill="#0000ff" stroke="#0000ff" points="332.385,-131.612 338.6,-123.032 328.39,-125.864 332.385,-131.612"/>
<text text-anchor="middle" x="453.034" y="-174.8" font-family="Times New Roman,serif" font-size="14.00">Yes,(current.contents,item)</text>
<text text-anchor="middle" x="453.034" y="-159.8" font-family="Times New Roman,serif" font-size="14.00"> &#160;&#160;&#160;</text>
<text text-anchor="middle" x="453.034" y="-144.8" font-family="Times New Roman,serif" font-size="14.00">index = bisect.bisect_left(current{contents,item)</text>
</g>
<!-- index &lt; len(current{contents)&#45;&gt;getattr(current,&#39;children&#39;,None) -->
<g id="edge8" class="edge"><title>index &lt; len(current{contents)&#45;&gt;getattr(current,&#39;children&#39;,None)</title>
<path fill="none" stroke="#0000ff" d="M235.798,-417.749C189.783,-407.674 133.231,-386.68 104.034,-343 67.1353,-287.799 161.406,-253.545 231.383,-236.404"/>
<polygon fill="#0000ff" stroke="#0000ff" points="232.592,-239.715 241.513,-233.999 230.975,-232.904 232.592,-239.715"/>
<text text-anchor="middle" x="114.534" y="-321.3" font-family="Times New Roman,serif" font-size="14.00">NO</text>
</g>
<!-- current{contents[index]==item -->
<g id="node5" class="node"><title>current{contents[index]==item</title>
<path fill="#ffce9f" stroke="black" d="M295.099,-341.755C295.099,-341.755 146.366,-326.245 146.366,-326.245 140.398,-325.622 140.398,-324.378 146.366,-323.755 146.366,-323.755 295.099,-308.245 295.099,-308.245 301.066,-307.622 313.002,-307.622 318.969,-308.245 318.969,-308.245 467.702,-323.755 467.702,-323.755 473.67,-324.378 473.67,-325.622 467.702,-326.245 467.702,-326.245 318.969,-341.755 318.969,-341.755 313.002,-342.378 301.066,-342.378 295.099,-341.755"/>
<text text-anchor="middle" x="307.034" y="-321.3" font-family="Times New Roman,serif" font-size="14.00">current{contents[index]==item</text>
</g>
<!-- index &lt; len(current{contents)&#45;&gt;current{contents[index]==item -->
<g id="edge9" class="edge"><title>index &lt; len(current{contents)&#45;&gt;current{contents[index]==item</title>
<path fill="none" stroke="#0000ff" d="M307.034,-409.867C307.034,-394.414 307.034,-371.416 307.034,-353.409"/>
<polygon fill="#0000ff" stroke="#0000ff" points="310.534,-353.217 307.034,-343.217 303.534,-353.217 310.534,-353.217"/>
<text text-anchor="middle" x="318.034" y="-372.8" font-family="Times New Roman,serif" font-size="14.00">Yes</text>
</g>
<!-- current{contents[index]==item&#45;&gt;getattr(current,&#39;children&#39;,None) -->
<g id="edge10" class="edge"><title>current{contents[index]==item&#45;&gt;getattr(current,&#39;children&#39;,None)</title>
<path fill="none" stroke="#0000ff" d="M305.677,-306.867C304.445,-291.32 302.609,-268.137 301.179,-250.082"/>
<polygon fill="#0000ff" stroke="#0000ff" points="304.65,-249.573 300.371,-239.88 297.672,-250.125 304.65,-249.573"/>
<text text-anchor="middle" x="315.534" y="-269.8" font-family="Times New Roman,serif" font-size="14.00">NO</text>
</g>
<!-- current{contents[index]==item&#45;&gt;end -->
<g id="edge11" class="edge"><title>current{contents[index]==item&#45;&gt;end</title>
<path fill="none" stroke="#0000ff" d="M326.927,-308.91C347.322,-294.08 380.439,-271.731 412.034,-258 440.706,-245.539 450.666,-250.719 480.034,-240 481.884,-239.325 483.769,-238.589 485.657,-237.815"/>
<polygon fill="#0000ff" stroke="#0000ff" points="487.235,-240.945 494.987,-233.723 484.423,-234.534 487.235,-240.945"/>
<text text-anchor="middle" x="453.034" y="-269.8" font-family="Times New Roman,serif" font-size="14.00">Yes (ancestry)</text>
</g>
<!-- Btree{_path_to -->
<g id="node6" class="node"><title>Btree{_path_to</title>
<path fill="#ffe599" stroke="black" d="M949.534,-240C949.534,-240 870.534,-240 870.534,-240 864.534,-240 858.534,-234 858.534,-228 858.534,-228 858.534,-216 858.534,-216 858.534,-210 864.534,-204 870.534,-204 870.534,-204 949.534,-204 949.534,-204 955.534,-204 961.534,-210 961.534,-216 961.534,-216 961.534,-228 961.534,-228 961.534,-234 955.534,-240 949.534,-240"/>
<text text-anchor="middle" x="910.034" y="-218.3" font-family="Times New Roman,serif" font-size="14.00">Btree{_path_to</text>
</g>
<!-- Btree{_path_to&#45;&gt;Btree{_root -->
<g id="edge2" class="edge"><title>Btree{_path_to&#45;&gt;Btree{_root</title>
<path fill="none" stroke="black" d="M906.693,-203.534C903.118,-184.851 897.403,-154.973 893.238,-133.204"/>
<polygon fill="black" stroke="black" points="896.651,-132.418 891.335,-123.254 889.776,-133.733 896.651,-132.418"/>
<text text-anchor="middle" x="963.034" y="-159.8" font-family="Times New Roman,serif" font-size="14.00">current = Btree{_root</text>
</g>
<!-- bisect{bisect_left&#45;&gt;ancestry -->
<g id="edge12" class="edge"><title>bisect{bisect_left&#45;&gt;ancestry</title>
<path fill="none" stroke="#0000ff" d="M422.976,-86.9012C464.994,-71.4871 528.734,-49.0317 572.548,-34.2247"/>
<polygon fill="#0000ff" stroke="#0000ff" points="573.766,-37.5077 582.129,-31.0027 571.535,-30.8728 573.766,-37.5077"/>
</g>
<!-- bisect{bisect_left&#45;&gt;ancestry -->
<g id="edge15" class="edge"><title>bisect{bisect_left&#45;&gt;ancestry</title>
<path fill="none" stroke="#00ff00" d="M434.051,-86.9012C476.254,-72.5695 534.194,-52.1508 574.396,-37.4522"/>
<polygon fill="#00ff00" stroke="#00ff00" points="575.779,-40.6728 583.959,-33.9397 573.366,-34.102 575.779,-40.6728"/>
</g>
<!-- ancestry&#45;&gt;[]{append -->
<g id="edge13" class="edge"><title>ancestry&#45;&gt;[]{append</title>
<path fill="none" stroke="#0000ff" d="M627.15,-36.007C632.704,-52.9908 640.034,-79.9574 640.034,-104 640.034,-429 640.034,-429 640.034,-429 640.034,-447.916 627.393,-464.226 613.527,-476.426"/>
<polygon fill="#0000ff" stroke="#0000ff" points="611.294,-473.73 605.77,-482.771 615.726,-479.149 611.294,-473.73"/>
<text text-anchor="middle" x="697.034" y="-261.8" font-family="Times New Roman,serif" font-size="14.00">item=(current,index)</text>
</g>
<!-- ancestry&#45;&gt;[]{append -->
<g id="edge16" class="edge"><title>ancestry&#45;&gt;[]{append</title>
<path fill="none" stroke="#00ff00" d="M674.284,-25.8398C719.476,-34.9818 777.034,-56.0395 777.034,-104 777.034,-429 777.034,-429 777.034,-429 777.034,-461.009 684.549,-482.372 625.678,-492.729"/>
<polygon fill="#00ff00" stroke="#00ff00" points="624.731,-489.34 615.464,-494.475 625.911,-496.24 624.731,-489.34"/>
<text text-anchor="middle" x="834.034" y="-269.8" font-family="Times New Roman,serif" font-size="14.00">item=(current,index)</text>
</g>
<!-- ancestry&#45;&gt;getattr(current,&#39;children&#39;,None) -->
<g id="edge4" class="edge"><title>ancestry&#45;&gt;getattr(current,&#39;children&#39;,None)</title>
<path fill="none" stroke="black" d="M623.501,-36.2494C627.312,-70.4213 630.275,-146.797 588.034,-186 580.873,-192.646 476.915,-204.033 395.712,-212.009"/>
<polygon fill="black" stroke="black" points="395.04,-208.558 385.428,-213.013 395.72,-215.525 395.04,-208.558"/>
</g>
<!-- start -->
<g id="node9" class="node"><title>start</title>
<ellipse fill="none" stroke="black" cx="914.034" cy="-325" rx="27" ry="18"/>
<text text-anchor="middle" x="914.034" y="-321.3" font-family="Times New Roman,serif" font-size="14.00">start</text>
</g>
<!-- start&#45;&gt;Btree{_path_to -->
<g id="edge1" class="edge"><title>start&#45;&gt;Btree{_path_to</title>
<path fill="none" stroke="black" d="M913.355,-306.867C912.743,-291.414 911.833,-268.416 911.119,-250.409"/>
<polygon fill="black" stroke="black" points="914.609,-250.071 910.716,-240.217 907.614,-250.348 914.609,-250.071"/>
<text text-anchor="middle" x="928.534" y="-269.8" font-family="Times New Roman,serif" font-size="14.00">(item)</text>
</g>
</g>
</svg>
