<?xml version="1.0" encoding="UTF-8" standalone="no"?>
<!DOCTYPE svg PUBLIC "-//W3C//DTD SVG 1.1//EN"
 "http://www.w3.org/Graphics/SVG/1.1/DTD/svg11.dtd">
<!-- Generated by graphviz version 2.38.0 (20140413.2041)
 -->
<!-- Title: %3 Pages: 1 -->
<svg width="1795pt" height="1130pt"
 viewBox="0.00 0.00 1795.45 1130.00" xmlns="http://www.w3.org/2000/svg" xmlns:xlink="http://www.w3.org/1999/xlink">
<g id="graph0" class="graph" transform="scale(1 1) rotate(0) translate(4 1126)">
<title>%3</title>
<polygon fill="white" stroke="none" points="-4,4 -4,-1126 1791.45,-1126 1791.45,4 -4,4"/>
<!-- []{insert -->
<g id="node1" class="node"><title>[]{insert</title>
<path fill="#ff5e99" stroke="black" d="M675.447,-1122C675.447,-1122 637.447,-1122 637.447,-1122 631.447,-1122 625.447,-1116 625.447,-1110 625.447,-1110 625.447,-1098 625.447,-1098 625.447,-1092 631.447,-1086 637.447,-1086 637.447,-1086 675.447,-1086 675.447,-1086 681.447,-1086 687.447,-1092 687.447,-1098 687.447,-1098 687.447,-1110 687.447,-1110 687.447,-1116 681.447,-1122 675.447,-1122"/>
<text text-anchor="middle" x="656.447" y="-1100.3" font-family="Times New Roman,serif" font-size="14.00">[]{insert</text>
</g>
<!-- _Bnodes{children -->
<g id="node4" class="node"><title>_Bnodes{children</title>
<path fill="#00e599" stroke="black" d="M212.84,-1035C212.84,-1035 58.0473,-1035 58.0473,-1035 52.0473,-1035 41.3225,-1031.3 36.5977,-1027.6 36.5977,-1027.6 9.50276,-1006.4 9.50276,-1006.4 4.77795,-1002.7 6.05315,-999 12.0532,-999 12.0532,-999 166.846,-999 166.846,-999 172.846,-999 183.571,-1002.7 188.296,-1006.4 188.296,-1006.4 215.391,-1027.6 215.391,-1027.6 220.116,-1031.3 218.84,-1035 212.84,-1035"/>
<text text-anchor="middle" x="112.447" y="-1013.3" font-family="Times New Roman,serif" font-size="14.00">_Bnodes{children</text>
</g>
<!-- []{insert&#45;&gt;_Bnodes{children -->
<g id="edge23" class="edge"><title>[]{insert&#45;&gt;_Bnodes{children</title>
<path fill="none" stroke="#aaffaa" d="M625.432,-1102.51C559.212,-1100.96 399.361,-1094.55 268.447,-1068 233.888,-1060.99 196.213,-1049.04 166.546,-1038.59"/>
<polygon fill="#aaffaa" stroke="#aaffaa" points="167.402,-1035.17 156.808,-1035.1 165.046,-1041.77 167.402,-1035.17"/>
</g>
<!-- len(_Bnodes{contents) &gt; _Bnodes{tree{order -->
<g id="node9" class="node"><title>len(_Bnodes{contents) &gt; _Bnodes{tree{order</title>
<path fill="#ffce9f" stroke="black" d="M950.477,-1034.15C950.477,-1034.15 721.88,-1017.85 721.88,-1017.85 715.895,-1017.43 715.895,-1016.57 721.88,-1016.15 721.88,-1016.15 950.477,-999.853 950.477,-999.853 956.462,-999.427 968.432,-999.427 974.416,-999.853 974.416,-999.853 1203.01,-1016.15 1203.01,-1016.15 1209,-1016.57 1209,-1017.43 1203.01,-1017.85 1203.01,-1017.85 974.416,-1034.15 974.416,-1034.15 968.432,-1034.57 956.462,-1034.57 950.477,-1034.15"/>
<text text-anchor="middle" x="962.447" y="-1013.3" font-family="Times New Roman,serif" font-size="14.00">len(_Bnodes{contents) &gt; _Bnodes{tree{order</text>
</g>
<!-- []{insert&#45;&gt;len(_Bnodes{contents) &gt; _Bnodes{tree{order -->
<g id="edge4" class="edge"><title>[]{insert&#45;&gt;len(_Bnodes{contents) &gt; _Bnodes{tree{order</title>
<path fill="none" stroke="#fff00f" d="M687.472,-1094.38C738.023,-1080.34 838.985,-1052.29 903.498,-1034.37"/>
<polygon fill="#fff00f" stroke="#fff00f" points="904.827,-1037.64 913.526,-1031.59 902.954,-1030.89 904.827,-1037.64"/>
</g>
<!-- len(parent{contents) &gt; parent{tree{order -->
<g id="node16" class="node"><title>len(parent{contents) &gt; parent{tree{order</title>
<path fill="#ffce9f" stroke="black" d="M455.485,-1034.04C455.485,-1034.04 255.359,-1017.96 255.359,-1017.96 249.379,-1017.48 249.379,-1016.52 255.359,-1016.04 255.359,-1016.04 455.485,-999.961 455.485,-999.961 461.466,-999.48 473.428,-999.48 479.408,-999.961 479.408,-999.961 679.534,-1016.04 679.534,-1016.04 685.515,-1016.52 685.515,-1017.48 679.534,-1017.96 679.534,-1017.96 479.408,-1034.04 479.408,-1034.04 473.428,-1034.52 461.466,-1034.52 455.485,-1034.04"/>
<text text-anchor="middle" x="467.447" y="-1013.3" font-family="Times New Roman,serif" font-size="14.00">len(parent{contents) &gt; parent{tree{order</text>
</g>
<!-- []{insert&#45;&gt;len(parent{contents) &gt; parent{tree{order -->
<g id="edge25" class="edge"><title>[]{insert&#45;&gt;len(parent{contents) &gt; parent{tree{order</title>
<path fill="none" stroke="#ffaaaa" d="M625.237,-1088.96C593.516,-1074.7 544.185,-1052.51 509.133,-1036.75"/>
<polygon fill="#ffaaaa" stroke="#ffaaaa" points="510.208,-1033.39 499.652,-1032.48 507.337,-1039.78 510.208,-1033.39"/>
</g>
<!-- _Bnodes{tree{BRANCH -->
<g id="node2" class="node"><title>_Bnodes{tree{BRANCH</title>
<path fill="#00e599" stroke="black" d="M870.076,-109C870.076,-109 654.459,-109 654.459,-109 648.459,-109 637.278,-105.974 632.097,-102.948 632.097,-102.948 591.18,-79.0518 591.18,-79.0518 585.999,-76.0259 586.818,-73 592.818,-73 592.818,-73 808.435,-73 808.435,-73 814.435,-73 825.616,-76.0259 830.797,-79.0518 830.797,-79.0518 871.713,-102.948 871.713,-102.948 876.895,-105.974 876.076,-109 870.076,-109"/>
<text text-anchor="middle" x="731.447" y="-87.3" font-family="Times New Roman,serif" font-size="14.00">_Bnodes{tree{BRANCH</text>
</g>
<!-- _Bnodes{contents -->
<g id="node3" class="node"><title>_Bnodes{contents</title>
<path fill="#00e599" stroke="black" d="M1346.56,-36C1346.56,-36 1187.44,-36 1187.44,-36 1181.44,-36 1170.67,-32.3567 1165.91,-28.7135 1165.91,-28.7135 1137.87,-7.28652 1137.87,-7.28652 1133.1,-3.64326 1134.34,-2.08506e-014 1140.34,-2.0385e-014 1140.34,-2.0385e-014 1299.45,-8.03669e-015 1299.45,-8.03669e-015 1305.45,-7.57106e-015 1316.22,-3.64326 1320.99,-7.28652 1320.99,-7.28652 1349.02,-28.7135 1349.02,-28.7135 1353.79,-32.3567 1352.56,-36 1346.56,-36"/>
<text text-anchor="middle" x="1243.45" y="-14.3" font-family="Times New Roman,serif" font-size="14.00">_Bnodes{contents</text>
</g>
<!-- _Bnodes{tree{BRANCH&#45;&gt;_Bnodes{contents -->
<g id="edge20" class="edge"><title>_Bnodes{tree{BRANCH&#45;&gt;_Bnodes{contents</title>
<path fill="none" stroke="#aaffaa" d="M821.882,-73.762C859.963,-67.191 904.793,-59.8031 945.447,-54 1015.28,-44.0316 1094.62,-34.8159 1153.86,-28.3458"/>
<polygon fill="#aaffaa" stroke="#aaffaa" points="1154.37,-31.8109 1163.94,-27.2508 1153.62,-24.8518 1154.37,-31.8109"/>
</g>
<!-- _Bnodes{contents&#45;&gt;[]{insert -->
<g id="edge3" class="edge"><title>_Bnodes{contents&#45;&gt;[]{insert</title>
<path fill="none" stroke="#fff00f" d="M1243.45,-36.2164C1243.45,-50.5949 1243.45,-71.6337 1243.45,-90 1243.45,-1018 1243.45,-1018 1243.45,-1018 1243.45,-1073.2 831.558,-1095.57 697.831,-1101.37"/>
<polygon fill="#fff00f" stroke="#fff00f" points="697.434,-1097.89 687.592,-1101.81 697.732,-1104.88 697.434,-1097.89"/>
<text text-anchor="middle" x="1276.95" y="-614.3" font-family="Times New Roman,serif" font-size="14.00">(index,item)</text>
</g>
<!-- _Bnodes{contents&#45;&gt;[]{insert -->
<g id="edge22" class="edge"><title>_Bnodes{contents&#45;&gt;[]{insert</title>
<path fill="none" stroke="#00ffaa" d="M1289.77,-36.0685C1311.82,-47.472 1333.45,-65.0233 1333.45,-90 1333.45,-1018 1333.45,-1018 1333.45,-1018 1333.45,-1082.36 845.609,-1098.7 698.159,-1102.17"/>
<polygon fill="#00ffaa" stroke="#00ffaa" points="697.66,-1098.68 687.742,-1102.41 697.819,-1105.68 697.66,-1098.68"/>
<text text-anchor="middle" x="1560.45" y="-621.8" font-family="Times New Roman,serif" font-size="14.00">(index=parent_index,push) </text>
<text text-anchor="middle" x="1560.45" y="-606.8" font-family="Times New Roman,serif" font-size="14.00"> {parent=_Bnodes{tree{BRANCH,parent_index=0,_Bnodes{tree{_root=parent}</text>
</g>
<!-- _Bnodes{children&#45;&gt;[]{insert -->
<g id="edge24" class="edge"><title>_Bnodes{children&#45;&gt;[]{insert</title>
<path fill="none" stroke="#ffaaaa" d="M210.326,-1035.05C268.427,-1045.02 343.573,-1057.63 410.447,-1068 482.331,-1079.14 566.251,-1090.79 615.161,-1097.45"/>
<polygon fill="#ffaaaa" stroke="#ffaaaa" points="614.963,-1100.95 625.343,-1098.83 615.905,-1094.01 614.963,-1100.95"/>
<text text-anchor="middle" x="478.447" y="-1056.8" font-family="Times New Roman,serif" font-size="14.00">(parent_index+1,sibling)</text>
</g>
<!-- _Bnodes{split -->
<g id="node5" class="node"><title>_Bnodes{split</title>
<path fill="#ffe599" stroke="black" d="M358.947,-283C358.947,-283 285.947,-283 285.947,-283 279.947,-283 273.947,-277 273.947,-271 273.947,-271 273.947,-259 273.947,-259 273.947,-253 279.947,-247 285.947,-247 285.947,-247 358.947,-247 358.947,-247 364.947,-247 370.947,-253 370.947,-259 370.947,-259 370.947,-271 370.947,-271 370.947,-277 364.947,-283 358.947,-283"/>
<text text-anchor="middle" x="322.447" y="-261.3" font-family="Times New Roman,serif" font-size="14.00">_Bnodes{split</text>
</g>
<!-- parent? -->
<g id="node12" class="node"><title>parent?</title>
<path fill="#ffce9f" stroke="black" d="M678.1,-192.094C678.1,-192.094 648.509,-181.906 648.509,-181.906 642.836,-179.953 642.836,-176.047 648.509,-174.094 648.509,-174.094 678.1,-163.906 678.1,-163.906 683.774,-161.953 695.12,-161.953 700.793,-163.906 700.793,-163.906 730.385,-174.094 730.385,-174.094 736.058,-176.047 736.058,-179.953 730.385,-181.906 730.385,-181.906 700.793,-192.094 700.793,-192.094 695.12,-194.047 683.774,-194.047 678.1,-192.094"/>
<text text-anchor="middle" x="689.447" y="-174.3" font-family="Times New Roman,serif" font-size="14.00">parent?</text>
</g>
<!-- _Bnodes{split&#45;&gt;parent? -->
<g id="edge18" class="edge"><title>_Bnodes{split&#45;&gt;parent?</title>
<path fill="none" stroke="#00ff00" d="M371.182,-252.713C444.625,-235.703 582.257,-203.826 649.886,-188.163"/>
<polygon fill="#00ff00" stroke="#00ff00" points="650.777,-191.549 659.729,-185.883 649.198,-184.729 650.777,-191.549"/>
<text text-anchor="middle" x="609.447" y="-217.8" font-family="Times New Roman,serif" font-size="14.00">sibling,push=_Bnodes.split()</text>
</g>
<!-- _Bnodes{insert -->
<g id="node6" class="node"><title>_Bnodes{insert</title>
<path fill="#ffe599" stroke="black" d="M1453.45,-109C1453.45,-109 1373.45,-109 1373.45,-109 1367.45,-109 1361.45,-103 1361.45,-97 1361.45,-97 1361.45,-85 1361.45,-85 1361.45,-79 1367.45,-73 1373.45,-73 1373.45,-73 1453.45,-73 1453.45,-73 1459.45,-73 1465.45,-79 1465.45,-85 1465.45,-85 1465.45,-97 1465.45,-97 1465.45,-103 1459.45,-109 1453.45,-109"/>
<text text-anchor="middle" x="1413.45" y="-87.3" font-family="Times New Roman,serif" font-size="14.00">_Bnodes{insert</text>
</g>
<!-- _Bnodes{insert&#45;&gt;_Bnodes{contents -->
<g id="edge2" class="edge"><title>_Bnodes{insert&#45;&gt;_Bnodes{contents</title>
<path fill="none" stroke="#fff00f" d="M1384.76,-72.9285C1373.36,-66.5301 1360,-59.4878 1347.45,-54 1335.41,-48.7417 1322.32,-43.7776 1309.61,-39.3305"/>
<polygon fill="#fff00f" stroke="#fff00f" points="1310.59,-35.9645 1299.99,-36.0342 1308.32,-42.5866 1310.59,-35.9645"/>
</g>
<!-- _Bnodes{shrink -->
<g id="node7" class="node"><title>_Bnodes{shrink</title>
<path fill="#ffe599" stroke="black" d="M619.947,-948C619.947,-948 536.947,-948 536.947,-948 530.947,-948 524.947,-942 524.947,-936 524.947,-936 524.947,-924 524.947,-924 524.947,-918 530.947,-912 536.947,-912 536.947,-912 619.947,-912 619.947,-912 625.947,-912 631.947,-918 631.947,-924 631.947,-924 631.947,-936 631.947,-936 631.947,-942 625.947,-948 619.947,-948"/>
<text text-anchor="middle" x="578.447" y="-926.3" font-family="Times New Roman,serif" font-size="14.00">_Bnodes{shrink</text>
</g>
<!-- ancestors? -->
<g id="node10" class="node"><title>ancestors?</title>
<path fill="#ffce9f" stroke="black" d="M448.828,-858C448.828,-858 402.354,-846 402.354,-846 396.544,-844.5 396.544,-841.5 402.354,-840 402.354,-840 448.828,-828 448.828,-828 454.637,-826.5 466.256,-826.5 472.066,-828 472.066,-828 518.54,-840 518.54,-840 524.35,-841.5 524.35,-844.5 518.54,-846 518.54,-846 472.066,-858 472.066,-858 466.256,-859.5 454.637,-859.5 448.828,-858"/>
<text text-anchor="middle" x="460.447" y="-839.3" font-family="Times New Roman,serif" font-size="14.00">ancestors?</text>
</g>
<!-- _Bnodes{shrink&#45;&gt;ancestors? -->
<g id="edge7" class="edge"><title>_Bnodes{shrink&#45;&gt;ancestors?</title>
<path fill="none" stroke="#00ff00" d="M530.625,-911.858C520.14,-906.952 509.483,-900.997 500.447,-894 490.855,-886.573 482.173,-876.392 475.367,-867.155"/>
<polygon fill="#00ff00" stroke="#00ff00" points="478.054,-864.89 469.449,-858.709 472.321,-868.907 478.054,-864.89"/>
<text text-anchor="middle" x="540.947" y="-882.8" font-family="Times New Roman,serif" font-size="14.00">parent = None</text>
</g>
<!-- end -->
<g id="node18" class="node"><title>end</title>
<ellipse fill="none" stroke="black" cx="596.447" cy="-843" rx="27" ry="18"/>
<text text-anchor="middle" x="596.447" y="-839.3" font-family="Times New Roman,serif" font-size="14.00">end</text>
</g>
<!-- _Bnodes{shrink&#45;&gt;end -->
<g id="edge27" class="edge"><title>_Bnodes{shrink&#45;&gt;end</title>
<path fill="none" stroke="#ffaaaa" d="M582.089,-911.799C584.57,-900.086 587.904,-884.342 590.735,-870.974"/>
<polygon fill="#ffaaaa" stroke="#ffaaaa" points="594.223,-871.394 592.871,-860.885 587.375,-869.943 594.223,-871.394"/>
</g>
<!-- _Bnodes{lateral -->
<g id="node8" class="node"><title>_Bnodes{lateral</title>
<path fill="#ffe599" stroke="black" d="M691.447,-283C691.447,-283 609.447,-283 609.447,-283 603.447,-283 597.447,-277 597.447,-271 597.447,-271 597.447,-259 597.447,-259 597.447,-253 603.447,-247 609.447,-247 609.447,-247 691.447,-247 691.447,-247 697.447,-247 703.447,-253 703.447,-259 703.447,-259 703.447,-271 703.447,-271 703.447,-277 697.447,-283 691.447,-283"/>
<text text-anchor="middle" x="650.447" y="-261.3" font-family="Times New Roman,serif" font-size="14.00">_Bnodes{lateral</text>
</g>
<!-- len(_Bnodes{contents) &gt; _Bnodes{tree{order&#45;&gt;_Bnodes{shrink -->
<g id="edge6" class="edge"><title>len(_Bnodes{contents) &gt; _Bnodes{tree{order&#45;&gt;_Bnodes{shrink</title>
<path fill="none" stroke="#00ff00" d="M904.125,-1003.09C833.49,-987.455 714.933,-961.212 642.017,-945.072"/>
<polygon fill="#00ff00" stroke="#00ff00" points="642.561,-941.607 632.041,-942.863 641.048,-948.442 642.561,-941.607"/>
<text text-anchor="middle" x="836.447" y="-969.8" font-family="Times New Roman,serif" font-size="14.00">Yes (ancestors)</text>
</g>
<!-- len(_Bnodes{contents) &gt; _Bnodes{tree{order&#45;&gt;end -->
<g id="edge5" class="edge"><title>len(_Bnodes{contents) &gt; _Bnodes{tree{order&#45;&gt;end</title>
<path fill="none" stroke="#fff00f" d="M940.522,-1000.52C925.212,-990.076 904.08,-976.356 884.447,-966 795.147,-918.898 683.645,-875.862 629.296,-855.831"/>
<polygon fill="#fff00f" stroke="#fff00f" points="630.424,-852.517 619.831,-852.363 628.016,-859.09 630.424,-852.517"/>
<text text-anchor="middle" x="855.447" y="-926.3" font-family="Times New Roman,serif" font-size="14.00">No</text>
</g>
<!-- ancestors?&#45;&gt;_Bnodes{split -->
<g id="edge9" class="edge"><title>ancestors?&#45;&gt;_Bnodes{split</title>
<path fill="none" stroke="#00ff00" d="M420.4,-835.28C355.97,-823.319 236.447,-795.891 236.447,-757 236.447,-757 236.447,-757 236.447,-399 236.447,-351.436 250.641,-338.849 279.447,-301 282.423,-297.089 285.923,-293.345 289.62,-289.858"/>
<polygon fill="#00ff00" stroke="#00ff00" points="292.143,-292.301 297.377,-283.09 287.541,-287.027 292.143,-292.301"/>
<text text-anchor="middle" x="245.447" y="-614.3" font-family="Times New Roman,serif" font-size="14.00">No</text>
</g>
<!-- parent_index? -->
<g id="node11" class="node"><title>parent_index?</title>
<path fill="#ffce9f" stroke="black" d="M448.695,-771.572C448.695,-771.572 385.058,-758.428 385.058,-758.428 379.183,-757.214 379.183,-754.786 385.058,-753.572 385.058,-753.572 448.695,-740.428 448.695,-740.428 454.571,-739.214 466.323,-739.214 472.199,-740.428 472.199,-740.428 535.835,-753.572 535.835,-753.572 541.711,-754.786 541.711,-757.214 535.835,-758.428 535.835,-758.428 472.199,-771.572 472.199,-771.572 466.323,-772.786 454.571,-772.786 448.695,-771.572"/>
<text text-anchor="middle" x="460.447" y="-752.3" font-family="Times New Roman,serif" font-size="14.00">parent_index?</text>
</g>
<!-- ancestors?&#45;&gt;parent_index? -->
<g id="edge8" class="edge"><title>ancestors?&#45;&gt;parent_index?</title>
<path fill="none" stroke="#00ff00" d="M460.447,-824.799C460.447,-813.163 460.447,-797.548 460.447,-784.237"/>
<polygon fill="#00ff00" stroke="#00ff00" points="463.947,-784.175 460.447,-774.175 456.947,-784.175 463.947,-784.175"/>
<text text-anchor="middle" x="586.947" y="-795.8" font-family="Times New Roman,serif" font-size="14.00">Yes (parent, parent_index = ancestors.pop())</text>
</g>
<!-- len(left_sib{contents) &lt; _Bnodes{tree{order -->
<g id="node13" class="node"><title>len(left_sib{contents) &lt; _Bnodes{tree{order</title>
<path fill="#ffce9f" stroke="black" d="M838.479,-686.119C838.479,-686.119 617.923,-669.881 617.923,-669.881 611.939,-669.441 611.939,-668.559 617.923,-668.119 617.923,-668.119 838.479,-651.881 838.479,-651.881 844.463,-651.441 856.431,-651.441 862.414,-651.881 862.414,-651.881 1082.97,-668.119 1082.97,-668.119 1088.95,-668.559 1088.95,-669.441 1082.97,-669.881 1082.97,-669.881 862.414,-686.119 862.414,-686.119 856.431,-686.559 844.463,-686.559 838.479,-686.119"/>
<text text-anchor="middle" x="850.447" y="-665.3" font-family="Times New Roman,serif" font-size="14.00">len(left_sib{contents) &lt; _Bnodes{tree{order</text>
</g>
<!-- parent_index?&#45;&gt;len(left_sib{contents) &lt; _Bnodes{tree{order -->
<g id="edge12" class="edge"><title>parent_index?&#45;&gt;len(left_sib{contents) &lt; _Bnodes{tree{order</title>
<path fill="none" stroke="#00ff00" d="M500.715,-746.224C567.157,-731.743 700.488,-702.683 781.965,-684.925"/>
<polygon fill="#00ff00" stroke="#00ff00" points="783.1,-688.26 792.126,-682.711 781.61,-681.421 783.1,-688.26"/>
<text text-anchor="middle" x="816.947" y="-708.8" font-family="Times New Roman,serif" font-size="14.00">Yes (left_sib = parent{children[parent_index &#45; 1])</text>
</g>
<!-- parent_index + 1 &lt; len(parent{children) -->
<g id="node15" class="node"><title>parent_index + 1 &lt; len(parent{children)</title>
<path fill="#ffce9f" stroke="black" d="M495.488,-584.011C495.488,-584.011 301.725,-567.989 301.725,-567.989 295.746,-567.494 295.746,-566.506 301.725,-566.011 301.725,-566.011 495.488,-549.989 495.488,-549.989 501.467,-549.494 513.426,-549.494 519.406,-549.989 519.406,-549.989 713.168,-566.011 713.168,-566.011 719.148,-566.506 719.148,-567.494 713.168,-567.989 713.168,-567.989 519.406,-584.011 519.406,-584.011 513.426,-584.506 501.467,-584.506 495.488,-584.011"/>
<text text-anchor="middle" x="507.447" y="-563.3" font-family="Times New Roman,serif" font-size="14.00">parent_index + 1 &lt; len(parent{children)</text>
</g>
<!-- parent_index?&#45;&gt;parent_index + 1 &lt; len(parent{children) -->
<g id="edge10" class="edge"><title>parent_index?&#45;&gt;parent_index + 1 &lt; len(parent{children)</title>
<path fill="none" stroke="#00ff00" d="M454.864,-739.1C448.452,-718.35 439.961,-681.134 449.447,-651 456.504,-628.582 472.009,-606.942 485.213,-591.381"/>
<polygon fill="#00ff00" stroke="#00ff00" points="487.88,-593.649 491.852,-583.826 482.622,-589.028 487.88,-593.649"/>
<text text-anchor="middle" x="523.447" y="-665.3" font-family="Times New Roman,serif" font-size="14.00">NO (parent, parent_index)</text>
</g>
<!-- parent?&#45;&gt;_Bnodes{tree{BRANCH -->
<g id="edge19" class="edge"><title>parent?&#45;&gt;_Bnodes{tree{BRANCH</title>
<path fill="none" stroke="#00ff00" d="M686.52,-160.921C685.429,-150.722 685.469,-137.516 690.447,-127 692.199,-123.299 694.549,-119.841 697.242,-116.651"/>
<polygon fill="#00ff00" stroke="#00ff00" points="699.973,-118.866 704.498,-109.286 694.987,-113.953 699.973,-118.866"/>
<text text-anchor="middle" x="817.947" y="-130.8" font-family="Times New Roman,serif" font-size="14.00">NO (tree=_Bnodes{tree,children=[_Bnodes])</text>
</g>
<!-- parent?&#45;&gt;_Bnodes{contents -->
<g id="edge21" class="edge"><title>parent?&#45;&gt;_Bnodes{contents</title>
<path fill="none" stroke="#aaffaa" d="M736.391,-176.091C801.216,-173.931 913.745,-166.634 945.447,-142 971.58,-121.693 947.951,-94.1009 973.447,-73 1000.46,-50.6414 1085.2,-36.174 1152.62,-27.8965"/>
<polygon fill="#aaffaa" stroke="#aaffaa" points="1153.34,-31.335 1162.85,-26.6705 1152.51,-24.3847 1153.34,-31.335"/>
<text text-anchor="middle" x="1101.45" y="-87.3" font-family="Times New Roman,serif" font-size="14.00">Yes (tree=_Bnodes{tree,children=[_Bnodes])</text>
</g>
<!-- len(left_sib{contents) &lt; _Bnodes{tree{order&#45;&gt;_Bnodes{lateral -->
<g id="edge13" class="edge"><title>len(left_sib{contents) &lt; _Bnodes{tree{order&#45;&gt;_Bnodes{lateral</title>
<path fill="none" stroke="#00ff00" d="M850.381,-650.529C850.035,-579.351 847.974,-314.371 836.447,-301 820.656,-282.683 761.529,-273.859 714.123,-269.667"/>
<polygon fill="#00ff00" stroke="#00ff00" points="714.154,-266.157 703.899,-268.817 713.574,-273.133 714.154,-266.157"/>
<text text-anchor="middle" x="1037.45" y="-479.8" font-family="Times New Roman,serif" font-size="14.00">Yes (parent,parent_index,dest=left_sib,dest_index=parent_index&#45;1)</text>
</g>
<!-- len(left_sib{contents) &lt; _Bnodes{tree{order&#45;&gt;parent_index + 1 &lt; len(parent{children) -->
<g id="edge11" class="edge"><title>len(left_sib{contents) &lt; _Bnodes{tree{order&#45;&gt;parent_index + 1 &lt; len(parent{children)</title>
<path fill="none" stroke="#00ff00" d="M736.148,-659.365C676.92,-653.624 611.449,-644.928 584.447,-633 562.78,-623.429 542.492,-605.799 528.186,-591.313"/>
<polygon fill="#00ff00" stroke="#00ff00" points="530.715,-588.893 521.275,-584.083 525.655,-593.73 530.715,-588.893"/>
<text text-anchor="middle" x="710.447" y="-614.3" font-family="Times New Roman,serif" font-size="14.00">NO (parent, parent_index = ancestors.pop())</text>
</g>
<!-- len(right_sib{contents) &lt; _Bnodes{tree{order -->
<g id="node14" class="node"><title>len(right_sib{contents) &lt; _Bnodes{tree{order</title>
<path fill="#ffce9f" stroke="black" d="M558.477,-417.144C558.477,-417.144 330.718,-400.856 330.718,-400.856 324.733,-400.428 324.733,-399.572 330.718,-399.144 330.718,-399.144 558.477,-382.856 558.477,-382.856 564.462,-382.428 576.432,-382.428 582.416,-382.856 582.416,-382.856 810.176,-399.144 810.176,-399.144 816.16,-399.572 816.16,-400.428 810.176,-400.856 810.176,-400.856 582.416,-417.144 582.416,-417.144 576.432,-417.572 564.462,-417.572 558.477,-417.144"/>
<text text-anchor="middle" x="570.447" y="-396.3" font-family="Times New Roman,serif" font-size="14.00">len(right_sib{contents) &lt; _Bnodes{tree{order</text>
</g>
<!-- len(right_sib{contents) &lt; _Bnodes{tree{order&#45;&gt;_Bnodes{split -->
<g id="edge17" class="edge"><title>len(right_sib{contents) &lt; _Bnodes{tree{order&#45;&gt;_Bnodes{split</title>
<path fill="none" stroke="#00ff00" d="M482.454,-388.19C459.963,-383.007 436.492,-375.341 416.447,-364 384.606,-345.986 356.828,-313.803 339.887,-291.247"/>
<polygon fill="#00ff00" stroke="#00ff00" points="342.67,-289.124 333.939,-283.123 337.023,-293.259 342.67,-289.124"/>
<text text-anchor="middle" x="425.447" y="-328.8" font-family="Times New Roman,serif" font-size="14.00">No</text>
</g>
<!-- len(right_sib{contents) &lt; _Bnodes{tree{order&#45;&gt;_Bnodes{lateral -->
<g id="edge15" class="edge"><title>len(right_sib{contents) &lt; _Bnodes{tree{order&#45;&gt;_Bnodes{lateral</title>
<path fill="none" stroke="#00ff00" d="M483.974,-388.091C471.27,-382.74 459.704,-375.035 451.447,-364 434.672,-341.581 433.444,-322.445 451.447,-301 468.574,-280.598 535.419,-272.085 586.963,-268.535"/>
<polygon fill="#00ff00" stroke="#00ff00" points="587.292,-272.021 597.048,-267.889 586.845,-265.035 587.292,-272.021"/>
<text text-anchor="middle" x="643.947" y="-352.8" font-family="Times New Roman,serif" font-size="14.00">Yes (parent,parent_index,dest=left_sib,dest_index=parent_index+1) </text>
</g>
<!-- parent_index + 1 &lt; len(parent{children)&#45;&gt;_Bnodes{split -->
<g id="edge16" class="edge"><title>parent_index + 1 &lt; len(parent{children)&#45;&gt;_Bnodes{split</title>
<path fill="none" stroke="#00ff00" d="M467.839,-552.237C416.355,-531.943 328.643,-488.577 291.447,-418 270.167,-377.623 290.646,-324.094 306.922,-292.52"/>
<polygon fill="#00ff00" stroke="#00ff00" points="310.137,-293.93 311.787,-283.464 303.971,-290.617 310.137,-293.93"/>
<text text-anchor="middle" x="300.447" y="-396.3" font-family="Times New Roman,serif" font-size="14.00">No</text>
</g>
<!-- parent_index + 1 &lt; len(parent{children)&#45;&gt;len(right_sib{contents) &lt; _Bnodes{tree{order -->
<g id="edge14" class="edge"><title>parent_index + 1 &lt; len(parent{children)&#45;&gt;len(right_sib{contents) &lt; _Bnodes{tree{order</title>
<path fill="none" stroke="#00ff00" d="M508.302,-548.975C510.227,-523.114 516.447,-473.03 536.447,-436 538.635,-431.949 541.426,-428.041 544.465,-424.398"/>
<polygon fill="#00ff00" stroke="#00ff00" points="547.178,-426.618 551.379,-416.891 542.03,-421.876 547.178,-426.618"/>
<text text-anchor="middle" x="682.447" y="-519.8" font-family="Times New Roman,serif" font-size="14.00">Yes (right_sib = parent{children[parent_index + 1]) </text>
</g>
<!-- len(parent{contents) &gt; parent{tree{order&#45;&gt;_Bnodes{shrink -->
<g id="edge26" class="edge"><title>len(parent{contents) &gt; parent{tree{order&#45;&gt;_Bnodes{shrink</title>
<path fill="none" stroke="#ffaaaa" d="M487.548,-1000.61C504.419,-987.688 528.779,-969.034 548.036,-954.288"/>
<polygon fill="#ffaaaa" stroke="#ffaaaa" points="550.397,-956.888 556.208,-948.029 546.141,-951.33 550.397,-956.888"/>
<text text-anchor="middle" x="574.447" y="-969.8" font-family="Times New Roman,serif" font-size="14.00">Yes (ancestors)</text>
</g>
<!-- len(parent{contents) &gt; parent{tree{order&#45;&gt;end -->
<g id="edge28" class="edge"><title>len(parent{contents) &gt; parent{tree{order&#45;&gt;end</title>
<path fill="none" stroke="#ffaaaa" d="M463.758,-999.031C458.662,-970.71 453.036,-913.522 481.447,-879 481.785,-878.589 528.386,-864.491 562.154,-854.315"/>
<polygon fill="#ffaaaa" stroke="#ffaaaa" points="563.591,-857.538 572.157,-851.303 561.572,-850.835 563.591,-857.538"/>
<text text-anchor="middle" x="475.947" y="-926.3" font-family="Times New Roman,serif" font-size="14.00">NO</text>
</g>
<!-- start -->
<g id="node17" class="node"><title>start</title>
<ellipse fill="none" stroke="black" cx="1413.45" cy="-178" rx="27" ry="18"/>
<text text-anchor="middle" x="1413.45" y="-174.3" font-family="Times New Roman,serif" font-size="14.00">start</text>
</g>
<!-- start&#45;&gt;_Bnodes{insert -->
<g id="edge1" class="edge"><title>start&#45;&gt;_Bnodes{insert</title>
<path fill="none" stroke="black" d="M1413.45,-159.799C1413.45,-148.163 1413.45,-132.548 1413.45,-119.237"/>
<polygon fill="black" stroke="black" points="1416.95,-119.175 1413.45,-109.175 1409.95,-119.175 1416.95,-119.175"/>
<text text-anchor="middle" x="1475.45" y="-130.8" font-family="Times New Roman,serif" font-size="14.00">(index,item,ancestors)</text>
</g>
</g>
</svg>
