<?xml version="1.0" encoding="UTF-8" standalone="no"?>
<!DOCTYPE svg PUBLIC "-//W3C//DTD SVG 1.1//EN"
 "http://www.w3.org/Graphics/SVG/1.1/DTD/svg11.dtd">
<!-- Generated by graphviz version 2.38.0 (20140413.2041)
 -->
<!-- Title: %3 Pages: 1 -->
<svg width="2233pt" height="720pt"
 viewBox="0.00 0.00 2232.87 720.00" xmlns="http://www.w3.org/2000/svg" xmlns:xlink="http://www.w3.org/1999/xlink">
<g id="graph0" class="graph" transform="scale(1 1) rotate(0) translate(4 716)">
<title>%3</title>
<polygon fill="white" stroke="none" points="-4,4 -4,-716 2228.87,-716 2228.87,4 -4,4"/>
<!-- []{append -->
<g id="node1" class="node"><title>[]{append</title>
<path fill="#ff5e99" stroke="black" d="M1286.82,-712C1286.82,-712 1236.82,-712 1236.82,-712 1230.82,-712 1224.82,-706 1224.82,-700 1224.82,-700 1224.82,-688 1224.82,-688 1224.82,-682 1230.82,-676 1236.82,-676 1236.82,-676 1286.82,-676 1286.82,-676 1292.82,-676 1298.82,-682 1298.82,-688 1298.82,-688 1298.82,-700 1298.82,-700 1298.82,-706 1292.82,-712 1286.82,-712"/>
<text text-anchor="middle" x="1261.82" y="-690.3" font-family="Times New Roman,serif" font-size="14.00">[]{append</text>
</g>
<!-- index &lt; len(current{contents) -->
<g id="node4" class="node"><title>index &lt; len(current{contents)</title>
<path fill="#ffce9f" stroke="black" d="M691.89,-637.702C691.89,-637.702 550.352,-622.298 550.352,-622.298 544.388,-621.649 544.388,-620.351 550.352,-619.702 550.352,-619.702 691.89,-604.298 691.89,-604.298 697.855,-603.649 709.784,-603.649 715.749,-604.298 715.749,-604.298 857.286,-619.702 857.286,-619.702 863.251,-620.351 863.251,-621.649 857.286,-622.298 857.286,-622.298 715.749,-637.702 715.749,-637.702 709.784,-638.351 697.855,-638.351 691.89,-637.702"/>
<text text-anchor="middle" x="703.819" y="-617.3" font-family="Times New Roman,serif" font-size="14.00">index &lt; len(current{contents)</text>
</g>
<!-- []{append&#45;&gt;index &lt; len(current{contents) -->
<g id="edge7" class="edge"><title>[]{append&#45;&gt;index &lt; len(current{contents)</title>
<path fill="none" stroke="#0000ff" d="M1224.78,-688.287C1135.99,-676.99 909.318,-648.148 786.276,-632.492"/>
<polygon fill="#0000ff" stroke="#0000ff" points="786.512,-628.994 776.15,-631.203 785.629,-635.938 786.512,-628.994"/>
</g>
<!-- end -->
<g id="node10" class="node"><title>end</title>
<ellipse fill="none" stroke="black" cx="1191.82" cy="-393" rx="27" ry="18"/>
<text text-anchor="middle" x="1191.82" y="-389.3" font-family="Times New Roman,serif" font-size="14.00">end</text>
</g>
<!-- []{append&#45;&gt;end -->
<g id="edge14" class="edge"><title>[]{append&#45;&gt;end</title>
<path fill="none" stroke="#0000ff" d="M1246.41,-675.838C1229.49,-655.74 1203.33,-620.639 1192.82,-585 1176.21,-528.697 1182.09,-458.929 1187.3,-421.242"/>
<polygon fill="#0000ff" stroke="#0000ff" points="1190.81,-421.466 1188.81,-411.063 1183.88,-420.445 1190.81,-421.466"/>
<text text-anchor="middle" x="1216.32" y="-557.8" font-family="Times New Roman,serif" font-size="14.00">ancestry</text>
</g>
<!-- []{append&#45;&gt;end -->
<g id="edge17" class="edge"><title>[]{append&#45;&gt;end</title>
<path fill="none" stroke="#00ff00" d="M1259.85,-675.739C1256.65,-649.319 1249.71,-597.354 1239.82,-554 1228.93,-506.242 1211.51,-451.853 1200.92,-420.373"/>
<polygon fill="#00ff00" stroke="#00ff00" points="1204.14,-418.963 1197.61,-410.618 1197.51,-421.213 1204.14,-418.963"/>
<text text-anchor="middle" x="1270.32" y="-565.8" font-family="Times New Roman,serif" font-size="14.00">ancestry</text>
</g>
<!-- Btree{_root -->
<g id="node2" class="node"><title>Btree{_root</title>
<path fill="#00e599" stroke="black" d="M2212.91,-261C2212.91,-261 1651.36,-261 1651.36,-261 1645.36,-261 1635.43,-256.464 1631.5,-251.927 1631.5,-251.927 1496.58,-96.0726 1496.58,-96.0726 1492.65,-91.5363 1494.72,-87 1500.72,-87 1500.72,-87 2062.28,-87 2062.28,-87 2068.28,-87 2078.21,-91.5363 2082.14,-96.0726 2082.14,-96.0726 2217.06,-251.927 2217.06,-251.927 2220.99,-256.464 2218.91,-261 2212.91,-261"/>
<text text-anchor="middle" x="1856.82" y="-170.3" font-family="Times New Roman,serif" font-size="14.00">Btree{_root</text>
</g>
<!-- ancestry -->
<g id="node8" class="node"><title>ancestry</title>
<path fill="#00e599" stroke="black" d="M1352.89,-36C1352.89,-36 1281.33,-36 1281.33,-36 1275.33,-36 1265.95,-31.045 1262.56,-26.09 1262.56,-26.09 1251.52,-9.91002 1251.52,-9.91002 1248.13,-4.95501 1250.75,-2.0424e-014 1256.75,-1.95317e-014 1256.75,-1.95317e-014 1328.31,-8.88999e-015 1328.31,-8.88999e-015 1334.31,-7.99771e-015 1343.69,-4.95501 1347.07,-9.91002 1347.07,-9.91002 1358.12,-26.09 1358.12,-26.09 1361.51,-31.045 1358.89,-36 1352.89,-36"/>
<text text-anchor="middle" x="1304.82" y="-14.3" font-family="Times New Roman,serif" font-size="14.00">ancestry</text>
</g>
<!-- Btree{_root&#45;&gt;ancestry -->
<g id="edge3" class="edge"><title>Btree{_root&#45;&gt;ancestry</title>
<path fill="none" stroke="black" d="M1592.44,-86.9268C1553.18,-75.2289 1513.07,-63.8705 1474.82,-54 1440.59,-45.1687 1402.04,-37.082 1370.31,-30.9117"/>
<polygon fill="black" stroke="black" points="1370.74,-27.431 1360.26,-28.9772 1369.42,-34.3047 1370.74,-27.431"/>
<text text-anchor="middle" x="1562.82" y="-57.8" font-family="Times New Roman,serif" font-size="14.00">ancestry = []</text>
</g>
<!-- getattr(current,&#39;children&#39;,None) -->
<g id="node3" class="node"><title>getattr(current,&#39;children&#39;,None)</title>
<path fill="#ffce9f" stroke="black" d="M691.885,-409.749C691.885,-409.749 543.989,-394.251 543.989,-394.251 538.022,-393.625 538.022,-392.375 543.989,-391.749 543.989,-391.749 691.885,-376.251 691.885,-376.251 697.852,-375.625 709.787,-375.625 715.754,-376.251 715.754,-376.251 863.65,-391.749 863.65,-391.749 869.617,-392.375 869.617,-393.625 863.65,-394.251 863.65,-394.251 715.754,-409.749 715.754,-409.749 709.787,-410.375 697.852,-410.375 691.885,-409.749"/>
<text text-anchor="middle" x="703.819" y="-389.3" font-family="Times New Roman,serif" font-size="14.00">getattr(current,&#39;children&#39;,None)</text>
</g>
<!-- bisect{bisect_left -->
<g id="node7" class="node"><title>bisect{bisect_left</title>
<path fill="#ffe599" stroke="black" d="M1096.82,-192C1096.82,-192 1006.82,-192 1006.82,-192 1000.82,-192 994.819,-186 994.819,-180 994.819,-180 994.819,-168 994.819,-168 994.819,-162 1000.82,-156 1006.82,-156 1006.82,-156 1096.82,-156 1096.82,-156 1102.82,-156 1108.82,-162 1108.82,-168 1108.82,-168 1108.82,-180 1108.82,-180 1108.82,-186 1102.82,-192 1096.82,-192"/>
<text text-anchor="middle" x="1051.82" y="-170.3" font-family="Times New Roman,serif" font-size="14.00">bisect{bisect_left</text>
</g>
<!-- getattr(current,&#39;children&#39;,None)&#45;&gt;bisect{bisect_left -->
<g id="edge5" class="edge"><title>getattr(current,&#39;children&#39;,None)&#45;&gt;bisect{bisect_left</title>
<path fill="none" stroke="#00ff00" d="M689.557,-376.424C685.24,-370.731 681.053,-363.969 678.819,-357 668.24,-323.987 657.855,-306.609 678.819,-279 715.68,-230.456 887.468,-198.502 984.543,-183.992"/>
<polygon fill="#00ff00" stroke="#00ff00" points="985.175,-187.437 994.559,-182.517 984.156,-180.511 985.175,-187.437"/>
<text text-anchor="middle" x="821.319" y="-321.8" font-family="Times New Roman,serif" font-size="14.00">NO,(current.contents,item)</text>
<text text-anchor="middle" x="821.319" y="-306.8" font-family="Times New Roman,serif" font-size="14.00"> &#160;&#160;&#160;index = bisect.bisect_left(current{contents,item)</text>
</g>
<!-- getattr(current,&#39;children&#39;,None)&#45;&gt;bisect{bisect_left -->
<g id="edge6" class="edge"><title>getattr(current,&#39;children&#39;,None)&#45;&gt;bisect{bisect_left</title>
<path fill="none" stroke="#0000ff" d="M827.725,-387.979C884.163,-383.666 942.99,-374.865 963.819,-357 991.254,-333.47 971.994,-311.962 986.819,-279 999.525,-250.752 1018.78,-221.025 1033.04,-200.622"/>
<polygon fill="#0000ff" stroke="#0000ff" points="1036.07,-202.393 1039,-192.211 1030.36,-198.344 1036.07,-202.393"/>
<text text-anchor="middle" x="1129.32" y="-297.8" font-family="Times New Roman,serif" font-size="14.00">Yes,(current.contents,item)</text>
<text text-anchor="middle" x="1129.32" y="-282.8" font-family="Times New Roman,serif" font-size="14.00"> &#160;&#160;&#160;index = bisect.bisect_left(current{contents,item)</text>
</g>
<!-- index &lt; len(current{contents)&#45;&gt;getattr(current,&#39;children&#39;,None) -->
<g id="edge8" class="edge"><title>index &lt; len(current{contents)&#45;&gt;getattr(current,&#39;children&#39;,None)</title>
<path fill="none" stroke="#0000ff" d="M596.576,-614.657C412.125,-604.36 50.8315,-578.913 12.8194,-536 -4.27312,-516.704 -4.27312,-497.296 12.8194,-478 49.9481,-436.084 395.505,-410.832 583.435,-400.086"/>
<polygon fill="#0000ff" stroke="#0000ff" points="583.859,-403.568 593.645,-399.507 583.463,-396.579 583.859,-403.568"/>
<text text-anchor="middle" x="123.819" y="-487.3" font-family="Times New Roman,serif" font-size="14.00"> &#160;&#160;&#160;NO (current=current.children[index])</text>
</g>
<!-- current{contents[index]==item -->
<g id="node5" class="node"><title>current{contents[index]==item</title>
<path fill="#ffce9f" stroke="black" d="M691.843,-535.245C691.843,-535.245 255.796,-507.755 255.796,-507.755 249.807,-507.378 249.807,-506.622 255.796,-506.245 255.796,-506.245 691.843,-478.755 691.843,-478.755 697.831,-478.378 709.807,-478.378 715.796,-478.755 715.796,-478.755 1151.84,-506.245 1151.84,-506.245 1157.83,-506.622 1157.83,-507.378 1151.84,-507.755 1151.84,-507.755 715.796,-535.245 715.796,-535.245 709.807,-535.622 697.831,-535.622 691.843,-535.245"/>
<text text-anchor="middle" x="703.819" y="-503.3" font-family="Times New Roman,serif" font-size="14.00">current{contents[index]==item</text>
</g>
<!-- index &lt; len(current{contents)&#45;&gt;current{contents[index]==item -->
<g id="edge9" class="edge"><title>index &lt; len(current{contents)&#45;&gt;current{contents[index]==item</title>
<path fill="none" stroke="#0000ff" d="M703.819,-602.99C703.819,-587.947 703.819,-565.452 703.819,-546.129"/>
<polygon fill="#0000ff" stroke="#0000ff" points="707.319,-546.079 703.819,-536.079 700.319,-546.079 707.319,-546.079"/>
<text text-anchor="middle" x="714.819" y="-565.8" font-family="Times New Roman,serif" font-size="14.00">Yes</text>
</g>
<!-- current{contents[index]==item&#45;&gt;getattr(current,&#39;children&#39;,None) -->
<g id="edge10" class="edge"><title>current{contents[index]==item&#45;&gt;getattr(current,&#39;children&#39;,None)</title>
<path fill="none" stroke="#0000ff" d="M703.819,-477.738C703.819,-460.514 703.819,-438.608 703.819,-421.521"/>
<polygon fill="#0000ff" stroke="#0000ff" points="707.319,-421.087 703.819,-411.087 700.319,-421.087 707.319,-421.087"/>
<text text-anchor="middle" x="807.319" y="-440.8" font-family="Times New Roman,serif" font-size="14.00">NO (current=current.children[index])</text>
</g>
<!-- current{contents[index]==item&#45;&gt;end -->
<g id="edge11" class="edge"><title>current{contents[index]==item&#45;&gt;end</title>
<path fill="none" stroke="#0000ff" d="M805.061,-484.342C839.881,-476.784 879.088,-468.151 914.819,-460 1002.03,-440.106 1104.34,-415.364 1156.83,-402.564"/>
<polygon fill="#0000ff" stroke="#0000ff" points="1157.76,-405.94 1166.65,-400.169 1156.11,-399.139 1157.76,-405.94"/>
<text text-anchor="middle" x="1085.82" y="-440.8" font-family="Times New Roman,serif" font-size="14.00">Yes (ancestry)</text>
</g>
<!-- Btree{_path_to -->
<g id="node6" class="node"><title>Btree{_path_to</title>
<path fill="#ffe599" stroke="black" d="M1896.32,-411C1896.32,-411 1817.32,-411 1817.32,-411 1811.32,-411 1805.32,-405 1805.32,-399 1805.32,-399 1805.32,-387 1805.32,-387 1805.32,-381 1811.32,-375 1817.32,-375 1817.32,-375 1896.32,-375 1896.32,-375 1902.32,-375 1908.32,-381 1908.32,-387 1908.32,-387 1908.32,-399 1908.32,-399 1908.32,-405 1902.32,-411 1896.32,-411"/>
<text text-anchor="middle" x="1856.82" y="-389.3" font-family="Times New Roman,serif" font-size="14.00">Btree{_path_to</text>
</g>
<!-- Btree{_path_to&#45;&gt;Btree{_root -->
<g id="edge2" class="edge"><title>Btree{_path_to&#45;&gt;Btree{_root</title>
<path fill="none" stroke="black" d="M1856.82,-374.972C1856.82,-352.408 1856.82,-310.842 1856.82,-271.428"/>
<polygon fill="black" stroke="black" points="1860.32,-271.198 1856.82,-261.198 1853.32,-271.198 1860.32,-271.198"/>
<text text-anchor="middle" x="1917.82" y="-314.3" font-family="Times New Roman,serif" font-size="14.00">current = Btree{_root</text>
</g>
<!-- bisect{bisect_left&#45;&gt;ancestry -->
<g id="edge12" class="edge"><title>bisect{bisect_left&#45;&gt;ancestry</title>
<path fill="none" stroke="#0000ff" d="M1075.43,-155.931C1118.48,-127.948 1209.7,-72.3285 1263.3,-41.2777"/>
<polygon fill="#0000ff" stroke="#0000ff" points="1265.29,-44.1699 1272.21,-36.1455 1261.8,-38.1043 1265.29,-44.1699"/>
</g>
<!-- bisect{bisect_left&#45;&gt;ancestry -->
<g id="edge15" class="edge"><title>bisect{bisect_left&#45;&gt;ancestry</title>
<path fill="none" stroke="#00ff00" d="M1084.29,-155.931C1132.98,-128.063 1223.97,-72.7877 1272.54,-41.6639"/>
<polygon fill="#00ff00" stroke="#00ff00" points="1274.59,-44.5071 1281.09,-36.1455 1270.79,-38.6245 1274.59,-44.5071"/>
</g>
<!-- ancestry&#45;&gt;[]{append -->
<g id="edge13" class="edge"><title>ancestry&#45;&gt;[]{append</title>
<path fill="none" stroke="#0000ff" d="M1308.3,-36.0069C1313.79,-64.3026 1323.82,-122.894 1323.82,-173 1323.82,-622 1323.82,-622 1323.82,-622 1323.82,-640.916 1311.18,-657.226 1297.31,-669.426"/>
<polygon fill="#0000ff" stroke="#0000ff" points="1295.08,-666.73 1289.56,-675.771 1299.51,-672.149 1295.08,-666.73"/>
<text text-anchor="middle" x="1380.82" y="-432.8" font-family="Times New Roman,serif" font-size="14.00">item=(current,index)</text>
</g>
<!-- ancestry&#45;&gt;[]{append -->
<g id="edge16" class="edge"><title>ancestry&#45;&gt;[]{append</title>
<path fill="none" stroke="#00ff00" d="M1342.98,-36.1004C1389.16,-59.7066 1460.82,-106.971 1460.82,-173 1460.82,-622 1460.82,-622 1460.82,-622 1460.82,-654.009 1368.33,-675.372 1309.46,-685.729"/>
<polygon fill="#00ff00" stroke="#00ff00" points="1308.52,-682.34 1299.25,-687.475 1309.7,-689.24 1308.52,-682.34"/>
<text text-anchor="middle" x="1517.82" y="-440.8" font-family="Times New Roman,serif" font-size="14.00">item=(current,index)</text>
</g>
<!-- ancestry&#45;&gt;getattr(current,&#39;children&#39;,None) -->
<g id="edge4" class="edge"><title>ancestry&#45;&gt;getattr(current,&#39;children&#39;,None)</title>
<path fill="none" stroke="black" d="M1305.91,-36.1816C1309.48,-98.649 1318.07,-312.377 1271.82,-357 1256.5,-371.782 1004.24,-382.527 841.102,-387.969"/>
<polygon fill="black" stroke="black" points="840.854,-384.475 830.975,-388.304 841.085,-391.471 840.854,-384.475"/>
</g>
<!-- start -->
<g id="node9" class="node"><title>start</title>
<ellipse fill="none" stroke="black" cx="1856.82" cy="-507" rx="27" ry="18"/>
<text text-anchor="middle" x="1856.82" y="-503.3" font-family="Times New Roman,serif" font-size="14.00">start</text>
</g>
<!-- start&#45;&gt;Btree{_path_to -->
<g id="edge1" class="edge"><title>start&#45;&gt;Btree{_path_to</title>
<path fill="none" stroke="black" d="M1856.82,-488.99C1856.82,-471.063 1856.82,-442.555 1856.82,-421.442"/>
<polygon fill="black" stroke="black" points="1860.32,-421.17 1856.82,-411.17 1853.32,-421.171 1860.32,-421.17"/>
<text text-anchor="middle" x="1873.32" y="-440.8" font-family="Times New Roman,serif" font-size="14.00">(item)</text>
</g>
</g>
</svg>
