<?xml version="1.0" encoding="UTF-8" standalone="no"?>
<!DOCTYPE svg PUBLIC "-//W3C//DTD SVG 1.1//EN"
 "http://www.w3.org/Graphics/SVG/1.1/DTD/svg11.dtd">
<!-- Generated by graphviz version 2.38.0 (20140413.2041)
 -->
<!-- Title: %3 Pages: 1 -->
<svg width="845pt" height="470pt"
 viewBox="0.00 0.00 845.31 470.00" xmlns="http://www.w3.org/2000/svg" xmlns:xlink="http://www.w3.org/1999/xlink">
<g id="graph0" class="graph" transform="scale(1 1) rotate(0) translate(4 466)">
<title>%3</title>
<polygon fill="white" stroke="none" points="-4,4 -4,-466 841.306,-466 841.306,4 -4,4"/>
<!-- _Bnodes{contents -->
<g id="node1" class="node"><title>_Bnodes{contents</title>
<path fill="#00e599" stroke="black" d="M218.417,-210C218.417,-210 59.3004,-210 59.3004,-210 53.3004,-210 42.5332,-206.357 37.7659,-202.713 37.7659,-202.713 9.72853,-181.287 9.72853,-181.287 4.96128,-177.643 6.19403,-174 12.194,-174 12.194,-174 171.311,-174 171.311,-174 177.311,-174 188.078,-177.643 192.845,-181.287 192.845,-181.287 220.883,-202.713 220.883,-202.713 225.65,-206.357 224.417,-210 218.417,-210"/>
<text text-anchor="middle" x="115.306" y="-188.3" font-family="Times New Roman,serif" font-size="14.00">_Bnodes{contents</text>
</g>
<!-- _Bnodes{contents&#45;&gt;_Bnodes{contents -->
<g id="edge3" class="edge"><title>_Bnodes{contents&#45;&gt;_Bnodes{contents</title>
<path fill="none" stroke="#ab12fe" d="M216.734,-199.457C235.454,-198.526 248.611,-196.04 248.611,-192 248.611,-187.278 230.635,-184.679 206.809,-184.205"/>
<polygon fill="#ab12fe" stroke="#ab12fe" points="206.686,-180.704 196.66,-184.129 206.634,-187.703 206.686,-180.704"/>
<text text-anchor="middle" x="380.111" y="-188.3" font-family="Times New Roman,serif" font-size="14.00">_Bnodes{contents=_Bnodes{contents[:center]</text>
</g>
<!-- _Bnodes{children -->
<g id="node2" class="node"><title>_Bnodes{children</title>
<path fill="#00e599" stroke="black" d="M215.699,-123C215.699,-123 60.9061,-123 60.9061,-123 54.9061,-123 44.1813,-119.302 39.4565,-115.604 39.4565,-115.604 12.3616,-94.3963 12.3616,-94.3963 7.63677,-90.6981 8.91197,-87 14.912,-87 14.912,-87 169.705,-87 169.705,-87 175.705,-87 186.43,-90.6981 191.155,-94.3963 191.155,-94.3963 218.25,-115.604 218.25,-115.604 222.975,-119.302 221.699,-123 215.699,-123"/>
<text text-anchor="middle" x="115.306" y="-101.3" font-family="Times New Roman,serif" font-size="14.00">_Bnodes{children</text>
</g>
<!-- _Bnodes{contents&#45;&gt;_Bnodes{children -->
<g id="edge4" class="edge"><title>_Bnodes{contents&#45;&gt;_Bnodes{children</title>
<path fill="none" stroke="#ab12fe" d="M115.306,-173.799C115.306,-162.163 115.306,-146.548 115.306,-133.237"/>
<polygon fill="#ab12fe" stroke="#ab12fe" points="118.806,-133.175 115.306,-123.175 111.806,-133.175 118.806,-133.175"/>
<text text-anchor="middle" x="251.306" y="-144.8" font-family="Times New Roman,serif" font-size="14.00">_Bnodes{children=_Bnodes{children[:center+1]</text>
</g>
<!-- end -->
<g id="node5" class="node"><title>end</title>
<ellipse fill="none" stroke="black" cx="115.306" cy="-18" rx="27" ry="18"/>
<text text-anchor="middle" x="115.306" y="-14.3" font-family="Times New Roman,serif" font-size="14.00">end</text>
</g>
<!-- _Bnodes{children&#45;&gt;end -->
<g id="edge5" class="edge"><title>_Bnodes{children&#45;&gt;end</title>
<path fill="none" stroke="#ab12fe" d="M115.306,-86.799C115.306,-75.1626 115.306,-59.5479 115.306,-46.2368"/>
<polygon fill="#ab12fe" stroke="#ab12fe" points="118.806,-46.1754 115.306,-36.1754 111.806,-46.1755 118.806,-46.1754"/>
<text text-anchor="middle" x="159.806" y="-57.8" font-family="Times New Roman,serif" font-size="14.00">(sibling,median)</text>
</g>
<!-- _Bnodes{split -->
<g id="node3" class="node"><title>_Bnodes{split</title>
<path fill="#ffe599" stroke="black" d="M151.806,-389C151.806,-389 78.8056,-389 78.8056,-389 72.8056,-389 66.8056,-383 66.8056,-377 66.8056,-377 66.8056,-365 66.8056,-365 66.8056,-359 72.8056,-353 78.8056,-353 78.8056,-353 151.806,-353 151.806,-353 157.806,-353 163.806,-359 163.806,-365 163.806,-365 163.806,-377 163.806,-377 163.806,-383 157.806,-389 151.806,-389"/>
<text text-anchor="middle" x="115.306" y="-367.3" font-family="Times New Roman,serif" font-size="14.00">_Bnodes{split</text>
</g>
<!-- _Bnodes{split&#45;&gt;_Bnodes{contents -->
<g id="edge2" class="edge"><title>_Bnodes{split&#45;&gt;_Bnodes{contents</title>
<path fill="none" stroke="black" d="M115.306,-352.706C115.306,-321.829 115.306,-257.004 115.306,-220.142"/>
<polygon fill="black" stroke="black" points="118.806,-220.103 115.306,-210.103 111.806,-220.103 118.806,-220.103"/>
<text text-anchor="middle" x="476.306" y="-323.8" font-family="Times New Roman,serif" font-size="14.00">{</text>
<text text-anchor="middle" x="476.306" y="-308.8" font-family="Times New Roman,serif" font-size="14.00"> center = len(_Bnodes{contents //2),</text>
<text text-anchor="middle" x="476.306" y="-277.8" font-family="Times New Roman,serif" font-size="14.00"> median=_Bnodes.contents[center], </text>
<text text-anchor="middle" x="476.306" y="-246.8" font-family="Times New Roman,serif" font-size="14.00"> sibling= _Bnodes(_Bnodes{tree,_Bnodes{contents[center+1:],_Bnodes{children[center+1:] ) &#160;&#160;&#160;&#160;&#160;&#160;&#160;&#160;&#160;&#160;&#160;&#160;&#160;&#160;&#160;&#160;&#160;&#160;&#160;&#160;&#160;&#160;&#160;&#160;&#160;&#160;&#160;&#160;&#160;&#160;&#160;&#160;&#160;&#160;&#160;&#160;&#160;&#160;&#160;&#160;&#160;&#160;&#160;&#160;&#160;&#160;&#160;&#160;&#160;&#160;&#160;</text>
<text text-anchor="middle" x="476.306" y="-231.8" font-family="Times New Roman,serif" font-size="14.00">}</text>
</g>
<!-- start -->
<g id="node4" class="node"><title>start</title>
<ellipse fill="none" stroke="black" cx="115.306" cy="-444" rx="27" ry="18"/>
<text text-anchor="middle" x="115.306" y="-440.3" font-family="Times New Roman,serif" font-size="14.00">start</text>
</g>
<!-- start&#45;&gt;_Bnodes{split -->
<g id="edge1" class="edge"><title>start&#45;&gt;_Bnodes{split</title>
<path fill="none" stroke="black" d="M115.306,-425.813C115.306,-417.789 115.306,-408.047 115.306,-399.069"/>
<polygon fill="black" stroke="black" points="118.806,-399.029 115.306,-389.029 111.806,-399.029 118.806,-399.029"/>
</g>
</g>
</svg>
