<?xml version="1.0" encoding="UTF-8" standalone="no"?>
<!DOCTYPE svg PUBLIC "-//W3C//DTD SVG 1.1//EN"
 "http://www.w3.org/Graphics/SVG/1.1/DTD/svg11.dtd">
<!-- Generated by graphviz version 2.38.0 (20140413.2041)
 -->
<!-- Title: %3 Pages: 1 -->
<svg width="580pt" height="465pt"
 viewBox="0.00 0.00 580.22 465.00" xmlns="http://www.w3.org/2000/svg" xmlns:xlink="http://www.w3.org/1999/xlink">
<g id="graph0" class="graph" transform="scale(1 1) rotate(0) translate(4 461)">
<title>%3</title>
<polygon fill="white" stroke="none" points="-4,4 -4,-461 576.218,-461 576.218,4 -4,4"/>
<!-- Btree{_present -->
<g id="node1" class="node"><title>Btree{_present</title>
<path fill="#ffe599" stroke="black" d="M334.918,-370C334.918,-370 257.918,-370 257.918,-370 251.918,-370 245.918,-364 245.918,-358 245.918,-358 245.918,-346 245.918,-346 245.918,-340 251.918,-334 257.918,-334 257.918,-334 334.918,-334 334.918,-334 340.918,-334 346.918,-340 346.918,-346 346.918,-346 346.918,-358 346.918,-358 346.918,-364 340.918,-370 334.918,-370"/>
<text text-anchor="middle" x="296.418" y="-348.3" font-family="Times New Roman,serif" font-size="14.00">Btree{_present</text>
</g>
<!-- ancestors -->
<g id="node2" class="node"><title>ancestors</title>
<path fill="#00e599" stroke="black" d="M560.019,-283C560.019,-283 145.6,-283 145.6,-283 139.6,-283 127.885,-281.175 122.169,-279.351 122.169,-279.351 32.25,-250.649 32.25,-250.649 26.5342,-248.825 26.8183,-247 32.8183,-247 32.8183,-247 447.236,-247 447.236,-247 453.236,-247 464.952,-248.825 470.668,-250.649 470.668,-250.649 560.587,-279.351 560.587,-279.351 566.303,-281.175 566.019,-283 560.019,-283"/>
<text text-anchor="middle" x="296.418" y="-261.3" font-family="Times New Roman,serif" font-size="14.00">ancestors</text>
</g>
<!-- Btree{_present&#45;&gt;ancestors -->
<g id="edge2" class="edge"><title>Btree{_present&#45;&gt;ancestors</title>
<path fill="none" stroke="black" d="M296.418,-333.799C296.418,-322.163 296.418,-306.548 296.418,-293.237"/>
<polygon fill="black" stroke="black" points="299.919,-293.175 296.418,-283.175 292.919,-293.175 299.919,-293.175"/>
<text text-anchor="middle" x="369.418" y="-304.8" font-family="Times New Roman,serif" font-size="14.00"> &#160;&#160;last,index=ancestors[&#45;1]</text>
</g>
<!-- index &lt; len(last{contents) -->
<g id="node3" class="node"><title>index &lt; len(last{contents)</title>
<path fill="#ffce9f" stroke="black" d="M284.507,-208.543C284.507,-208.543 161.199,-193.457 161.199,-193.457 155.244,-192.729 155.244,-191.271 161.199,-190.543 161.199,-190.543 284.507,-175.457 284.507,-175.457 290.463,-174.729 302.374,-174.729 308.33,-175.457 308.33,-175.457 431.638,-190.543 431.638,-190.543 437.593,-191.271 437.593,-192.729 431.638,-193.457 431.638,-193.457 308.33,-208.543 308.33,-208.543 302.374,-209.271 290.463,-209.271 284.507,-208.543"/>
<text text-anchor="middle" x="296.418" y="-188.3" font-family="Times New Roman,serif" font-size="14.00">index &lt; len(last{contents)</text>
</g>
<!-- ancestors&#45;&gt;index &lt; len(last{contents) -->
<g id="edge3" class="edge"><title>ancestors&#45;&gt;index &lt; len(last{contents)</title>
<path fill="none" stroke="black" d="M296.418,-246.813C296.418,-238.789 296.418,-229.047 296.418,-220.069"/>
<polygon fill="black" stroke="black" points="299.919,-220.029 296.418,-210.029 292.919,-220.029 299.919,-220.029"/>
</g>
<!-- last{contents[index]==item -->
<g id="node4" class="node"><title>last{contents[index]==item</title>
<path fill="#ffce9f" stroke="black" d="M142.499,-121.61C142.499,-121.61 12.0007,-106.39 12.0007,-106.39 6.04114,-105.695 6.04114,-104.305 12.0007,-103.61 12.0007,-103.61 142.499,-88.3901 142.499,-88.3901 148.459,-87.6951 160.378,-87.6951 166.338,-88.3901 166.338,-88.3901 296.836,-103.61 296.836,-103.61 302.796,-104.305 302.796,-105.695 296.836,-106.39 296.836,-106.39 166.338,-121.61 166.338,-121.61 160.378,-122.305 148.459,-122.305 142.499,-121.61"/>
<text text-anchor="middle" x="154.418" y="-101.3" font-family="Times New Roman,serif" font-size="14.00">last{contents[index]==item</text>
</g>
<!-- index &lt; len(last{contents)&#45;&gt;last{contents[index]==item -->
<g id="edge5" class="edge"><title>index &lt; len(last{contents)&#45;&gt;last{contents[index]==item</title>
<path fill="none" stroke="black" d="M272.651,-176.773C249.203,-162.737 213.177,-141.172 187.054,-125.535"/>
<polygon fill="black" stroke="black" points="188.641,-122.407 178.264,-120.274 185.046,-128.413 188.641,-122.407"/>
<text text-anchor="middle" x="245.418" y="-144.8" font-family="Times New Roman,serif" font-size="14.00">Yes</text>
</g>
<!-- end -->
<g id="node6" class="node"><title>end</title>
<ellipse fill="none" stroke="black" cx="238.418" cy="-18" rx="27" ry="18"/>
<text text-anchor="middle" x="238.418" y="-14.3" font-family="Times New Roman,serif" font-size="14.00">end</text>
</g>
<!-- index &lt; len(last{contents)&#45;&gt;end -->
<g id="edge4" class="edge"><title>index &lt; len(last{contents)&#45;&gt;end</title>
<path fill="none" stroke="black" d="M304.988,-174.756C314.775,-153.956 328.132,-117.012 317.418,-87 309.106,-63.7122 287.16,-45.9116 268.503,-34.3751"/>
<polygon fill="black" stroke="black" points="270.082,-31.244 259.683,-29.2183 266.549,-37.287 270.082,-31.244"/>
<text text-anchor="middle" x="350.418" y="-101.3" font-family="Times New Roman,serif" font-size="14.00">No (False)</text>
</g>
<!-- last{contents[index]==item&#45;&gt;end -->
<g id="edge6" class="edge"><title>last{contents[index]==item&#45;&gt;end</title>
<path fill="none" stroke="black" d="M150.435,-87.3173C148.921,-76.8772 148.889,-63.6293 155.418,-54 165.983,-38.4194 184.964,-29.7527 202.11,-24.9427"/>
<polygon fill="black" stroke="black" points="203.04,-28.3184 211.916,-22.5333 201.37,-21.5206 203.04,-28.3184"/>
<text text-anchor="middle" x="185.918" y="-57.8" font-family="Times New Roman,serif" font-size="14.00">Yes (True)</text>
</g>
<!-- last{contents[index]==item&#45;&gt;end -->
<g id="edge7" class="edge"><title>last{contents[index]==item&#45;&gt;end</title>
<path fill="none" stroke="black" d="M186.827,-90.7228C197.298,-85.2143 208.289,-77.9804 216.418,-69 222.482,-62.302 227.079,-53.665 230.461,-45.4596"/>
<polygon fill="black" stroke="black" points="233.838,-46.4179 234.002,-35.8244 227.268,-44.0035 233.838,-46.4179"/>
<text text-anchor="middle" x="256.418" y="-57.8" font-family="Times New Roman,serif" font-size="14.00">No (False)</text>
</g>
<!-- start -->
<g id="node5" class="node"><title>start</title>
<ellipse fill="none" stroke="black" cx="296.418" cy="-439" rx="27" ry="18"/>
<text text-anchor="middle" x="296.418" y="-435.3" font-family="Times New Roman,serif" font-size="14.00">start</text>
</g>
<!-- start&#45;&gt;Btree{_present -->
<g id="edge1" class="edge"><title>start&#45;&gt;Btree{_present</title>
<path fill="none" stroke="black" d="M296.418,-420.799C296.418,-409.163 296.418,-393.548 296.418,-380.237"/>
<polygon fill="black" stroke="black" points="299.919,-380.175 296.418,-370.175 292.919,-380.175 299.919,-380.175"/>
<text text-anchor="middle" x="341.418" y="-391.8" font-family="Times New Roman,serif" font-size="14.00">(item,ancestors)</text>
</g>
</g>
</svg>
