<?xml version="1.0" encoding="UTF-8" standalone="no"?>
<!DOCTYPE svg PUBLIC "-//W3C//DTD SVG 1.1//EN"
 "http://www.w3.org/Graphics/SVG/1.1/DTD/svg11.dtd">
<!-- Generated by graphviz version 2.38.0 (20140413.2041)
 -->
<!-- Title: %3 Pages: 1 -->
<svg width="890pt" height="625pt"
 viewBox="0.00 0.00 889.60 625.00" xmlns="http://www.w3.org/2000/svg" xmlns:xlink="http://www.w3.org/1999/xlink">
<g id="graph0" class="graph" transform="scale(1 1) rotate(0) translate(4 621)">
<title>%3</title>
<polygon fill="white" stroke="none" points="-4,4 -4,-621 885.598,-621 885.598,4 -4,4"/>
<!-- _Bnodes{tree -->
<g id="node1" class="node"><title>_Bnodes{tree</title>
<path fill="#00e599" stroke="black" d="M615.945,-443C615.945,-443 497.327,-443 497.327,-443 491.327,-443 481.045,-438.798 476.762,-434.595 476.762,-434.595 457.205,-415.405 457.205,-415.405 452.922,-411.202 454.639,-407 460.639,-407 460.639,-407 579.257,-407 579.257,-407 585.257,-407 595.539,-411.202 599.822,-415.405 599.822,-415.405 619.379,-434.595 619.379,-434.595 623.662,-438.798 621.945,-443 615.945,-443"/>
<text text-anchor="middle" x="538.292" y="-421.3" font-family="Times New Roman,serif" font-size="14.00">_Bnodes{tree</text>
</g>
<!-- _Bnodes{contents -->
<g id="node2" class="node"><title>_Bnodes{contents</title>
<path fill="#00e599" stroke="black" d="M641.404,-370C641.404,-370 482.287,-370 482.287,-370 476.287,-370 465.52,-366.357 460.752,-362.713 460.752,-362.713 432.715,-341.287 432.715,-341.287 427.948,-337.643 429.18,-334 435.18,-334 435.18,-334 594.297,-334 594.297,-334 600.297,-334 611.064,-337.643 615.832,-341.287 615.832,-341.287 643.869,-362.713 643.869,-362.713 648.636,-366.357 647.404,-370 641.404,-370"/>
<text text-anchor="middle" x="538.292" y="-348.3" font-family="Times New Roman,serif" font-size="14.00">_Bnodes{contents</text>
</g>
<!-- _Bnodes{tree&#45;&gt;_Bnodes{contents -->
<g id="edge3" class="edge"><title>_Bnodes{tree&#45;&gt;_Bnodes{contents</title>
<path fill="none" stroke="black" d="M538.292,-406.813C538.292,-398.789 538.292,-389.047 538.292,-380.069"/>
<polygon fill="black" stroke="black" points="541.792,-380.029 538.292,-370.029 534.792,-380.029 541.792,-380.029"/>
</g>
<!-- _Bnodes{contents&#45;&gt;_Bnodes{contents -->
<g id="edge4" class="edge"><title>_Bnodes{contents&#45;&gt;_Bnodes{contents</title>
<path fill="none" stroke="#ffaa88" d="M638.574,-358.438C657.901,-357.679 671.598,-355.533 671.598,-352 671.598,-348.047 654.454,-345.83 631.461,-345.35"/>
<polygon fill="#ffaa88" stroke="#ffaa88" points="631.316,-341.848 621.282,-345.25 631.248,-348.848 631.316,-341.848"/>
<text text-anchor="middle" x="776.598" y="-348.3" font-family="Times New Roman,serif" font-size="14.00">{_Bnodes{contenst = contents or []}</text>
</g>
<!-- _Bnodes{children -->
<g id="node3" class="node"><title>_Bnodes{children</title>
<path fill="#00e599" stroke="black" d="M638.686,-283C638.686,-283 483.893,-283 483.893,-283 477.893,-283 467.168,-279.302 462.443,-275.604 462.443,-275.604 435.348,-254.396 435.348,-254.396 430.623,-250.698 431.898,-247 437.898,-247 437.898,-247 592.692,-247 592.692,-247 598.692,-247 609.416,-250.698 614.141,-254.396 614.141,-254.396 641.236,-275.604 641.236,-275.604 645.961,-279.302 644.686,-283 638.686,-283"/>
<text text-anchor="middle" x="538.292" y="-261.3" font-family="Times New Roman,serif" font-size="14.00">_Bnodes{children</text>
</g>
<!-- _Bnodes{contents&#45;&gt;_Bnodes{children -->
<g id="edge5" class="edge"><title>_Bnodes{contents&#45;&gt;_Bnodes{children</title>
<path fill="none" stroke="#ffaa88" d="M538.292,-333.799C538.292,-322.163 538.292,-306.548 538.292,-293.237"/>
<polygon fill="#ffaa88" stroke="#ffaa88" points="541.792,-293.175 538.292,-283.175 534.792,-293.175 541.792,-293.175"/>
<text text-anchor="middle" x="643.792" y="-304.8" font-family="Times New Roman,serif" font-size="14.00">{ _Bnodes{children = children or [] }</text>
</g>
<!-- _Bnodes{children? -->
<g id="node5" class="node"><title>_Bnodes{children?</title>
<path fill="#ffce9f" stroke="black" d="M526.439,-208.128C526.439,-208.128 436.194,-193.872 436.194,-193.872 430.268,-192.936 430.268,-191.064 436.194,-190.128 436.194,-190.128 526.439,-175.872 526.439,-175.872 532.365,-174.936 544.219,-174.936 550.145,-175.872 550.145,-175.872 640.39,-190.128 640.39,-190.128 646.316,-191.064 646.316,-192.936 640.39,-193.872 640.39,-193.872 550.145,-208.128 550.145,-208.128 544.219,-209.064 532.365,-209.064 526.439,-208.128"/>
<text text-anchor="middle" x="538.292" y="-188.3" font-family="Times New Roman,serif" font-size="14.00">_Bnodes{children?</text>
</g>
<!-- _Bnodes{children&#45;&gt;_Bnodes{children? -->
<g id="edge6" class="edge"><title>_Bnodes{children&#45;&gt;_Bnodes{children?</title>
<path fill="none" stroke="#ffaa88" d="M538.292,-246.813C538.292,-238.789 538.292,-229.047 538.292,-220.069"/>
<polygon fill="#ffaa88" stroke="#ffaa88" points="541.792,-220.029 538.292,-210.029 534.792,-220.029 541.792,-220.029"/>
</g>
<!-- _Bnodes{__init__ -->
<g id="node4" class="node"><title>_Bnodes{__init__</title>
<path fill="#ffe599" stroke="black" d="M586.292,-530C586.292,-530 490.292,-530 490.292,-530 484.292,-530 478.292,-524 478.292,-518 478.292,-518 478.292,-506 478.292,-506 478.292,-500 484.292,-494 490.292,-494 490.292,-494 586.292,-494 586.292,-494 592.292,-494 598.292,-500 598.292,-506 598.292,-506 598.292,-518 598.292,-518 598.292,-524 592.292,-530 586.292,-530"/>
<text text-anchor="middle" x="538.292" y="-508.3" font-family="Times New Roman,serif" font-size="14.00">_Bnodes{__init__</text>
</g>
<!-- _Bnodes{__init__&#45;&gt;_Bnodes{tree -->
<g id="edge2" class="edge"><title>_Bnodes{__init__&#45;&gt;_Bnodes{tree</title>
<path fill="none" stroke="black" d="M538.292,-493.799C538.292,-482.163 538.292,-466.548 538.292,-453.237"/>
<polygon fill="black" stroke="black" points="541.792,-453.175 538.292,-443.175 534.792,-453.175 541.792,-453.175"/>
<text text-anchor="middle" x="595.292" y="-464.8" font-family="Times New Roman,serif" font-size="14.00">_Bnodes{tree = tree</text>
</g>
<!-- len(_Bnodes{contents) + 1 == len(_Bnodes{children) -->
<g id="node6" class="node"><title>len(_Bnodes{contents) + 1 == len(_Bnodes{children)</title>
<path fill="#ffce9f" stroke="black" d="M280.315,-122.262C280.315,-122.262 12.1851,-105.738 12.1851,-105.738 6.19648,-105.369 6.19648,-104.631 12.1851,-104.262 12.1851,-104.262 280.315,-87.7381 280.315,-87.7381 286.303,-87.3691 298.281,-87.3691 304.269,-87.7381 304.269,-87.7381 572.399,-104.262 572.399,-104.262 578.388,-104.631 578.388,-105.369 572.399,-105.738 572.399,-105.738 304.269,-122.262 304.269,-122.262 298.281,-122.631 286.303,-122.631 280.315,-122.262"/>
<text text-anchor="middle" x="292.292" y="-101.3" font-family="Times New Roman,serif" font-size="14.00">len(_Bnodes{contents) + 1 == len(_Bnodes{children)</text>
</g>
<!-- _Bnodes{children?&#45;&gt;len(_Bnodes{contents) + 1 == len(_Bnodes{children) -->
<g id="edge8" class="edge"><title>_Bnodes{children?&#45;&gt;len(_Bnodes{contents) + 1 == len(_Bnodes{children)</title>
<path fill="none" stroke="#ffaa88" d="M504.345,-179.27C462.79,-164.912 392.005,-140.454 343.746,-123.779"/>
<polygon fill="#ffaa88" stroke="#ffaa88" points="344.704,-120.407 334.109,-120.449 342.418,-127.023 344.704,-120.407"/>
<text text-anchor="middle" x="468.292" y="-144.8" font-family="Times New Roman,serif" font-size="14.00">Yes, {assert}</text>
</g>
<!-- end -->
<g id="node8" class="node"><title>end</title>
<ellipse fill="none" stroke="black" cx="597.292" cy="-18" rx="27" ry="18"/>
<text text-anchor="middle" x="597.292" y="-14.3" font-family="Times New Roman,serif" font-size="14.00">end</text>
</g>
<!-- _Bnodes{children?&#45;&gt;end -->
<g id="edge7" class="edge"><title>_Bnodes{children?&#45;&gt;end</title>
<path fill="none" stroke="#ffaa88" d="M554.916,-176.392C568.011,-163.74 585.338,-144.179 593.292,-123 602.585,-98.2555 602.564,-67.8314 600.839,-46.2984"/>
<polygon fill="#ffaa88" stroke="#ffaa88" points="604.309,-45.8289 599.855,-36.2161 597.342,-46.5087 604.309,-45.8289"/>
<text text-anchor="middle" x="611.792" y="-101.3" font-family="Times New Roman,serif" font-size="14.00">NO</text>
</g>
<!-- len(_Bnodes{contents) + 1 == len(_Bnodes{children)&#45;&gt;end -->
<g id="edge9" class="edge"><title>len(_Bnodes{contents) + 1 == len(_Bnodes{children)&#45;&gt;end</title>
<path fill="none" stroke="#ffaa88" d="M414.269,-94.4683C467.38,-88.8398 522.815,-80.5213 546.292,-69 558.94,-62.7931 570.408,-52.246 579.251,-42.4342"/>
<polygon fill="#ffaa88" stroke="#ffaa88" points="581.92,-44.6975 585.753,-34.82 576.597,-40.1519 581.92,-44.6975"/>
<text text-anchor="middle" x="578.292" y="-57.8" font-family="Times New Roman,serif" font-size="14.00">Yes</text>
</g>
<!-- Error -->
<g id="node9" class="node"><title>Error</title>
<ellipse fill="none" stroke="black" cx="292.292" cy="-18" rx="29.795" ry="18"/>
<text text-anchor="middle" x="292.292" y="-14.3" font-family="Times New Roman,serif" font-size="14.00">Error</text>
</g>
<!-- len(_Bnodes{contents) + 1 == len(_Bnodes{children)&#45;&gt;Error -->
<g id="edge10" class="edge"><title>len(_Bnodes{contents) + 1 == len(_Bnodes{children)&#45;&gt;Error</title>
<path fill="none" stroke="#ff0000" d="M292.292,-86.799C292.292,-75.1626 292.292,-59.5479 292.292,-46.2368"/>
<polygon fill="#ff0000" stroke="#ff0000" points="295.792,-46.1754 292.292,-36.1754 288.792,-46.1755 295.792,-46.1754"/>
<text text-anchor="middle" x="417.292" y="-57.8" font-family="Times New Roman,serif" font-size="14.00">No (&#39;one more child than data item required&#39;)</text>
</g>
<!-- start -->
<g id="node7" class="node"><title>start</title>
<ellipse fill="none" stroke="black" cx="538.292" cy="-599" rx="27" ry="18"/>
<text text-anchor="middle" x="538.292" y="-595.3" font-family="Times New Roman,serif" font-size="14.00">start</text>
</g>
<!-- start&#45;&gt;_Bnodes{__init__ -->
<g id="edge1" class="edge"><title>start&#45;&gt;_Bnodes{__init__</title>
<path fill="none" stroke="black" d="M538.292,-580.799C538.292,-569.163 538.292,-553.548 538.292,-540.237"/>
<polygon fill="black" stroke="black" points="541.792,-540.175 538.292,-530.175 534.792,-540.175 541.792,-540.175"/>
<text text-anchor="middle" x="640.792" y="-551.8" font-family="Times New Roman,serif" font-size="14.00">(tree,contents=None,children=None)</text>
</g>
</g>
</svg>
