<?xml version="1.0" encoding="UTF-8" standalone="no"?>
<!DOCTYPE svg PUBLIC "-//W3C//DTD SVG 1.1//EN"
 "http://www.w3.org/Graphics/SVG/1.1/DTD/svg11.dtd">
<!-- Generated by graphviz version 2.50.0 (0)
 -->
<!-- Pages: 1 -->
<svg width="585pt" height="112pt"
 viewBox="0.00 0.00 585.00 112.00" xmlns="http://www.w3.org/2000/svg" xmlns:xlink="http://www.w3.org/1999/xlink">
<g id="graph0" class="graph" transform="scale(1 1) rotate(0) translate(4 108)">
<polygon fill="white" stroke="transparent" points="-4,4 -4,-108 581,-108 581,4 -4,4"/>
<!-- Jenkinsfile -->
<g id="node1" class="node">
<title>Jenkinsfile</title>
<path fill="none" stroke="black" d="M119,-73C119,-73 12,-73 12,-73 6,-73 0,-67 0,-61 0,-61 0,-42 0,-42 0,-36 6,-30 12,-30 12,-30 119,-30 119,-30 125,-30 131,-36 131,-42 131,-42 131,-61 131,-61 131,-67 125,-73 119,-73"/>
<text text-anchor="middle" x="65.5" y="-47.8" font-family="Times New Roman,serif" font-size="14.00">Jenkinsfile</text>
</g>
<!-- node -->
<g id="node2" class="node">
<title>node</title>
<path fill="none" stroke="black" d="M262.5,-104C262.5,-104 187.5,-104 187.5,-104 181.5,-104 175.5,-98 175.5,-92 175.5,-92 175.5,-73 175.5,-73 175.5,-67 181.5,-61 187.5,-61 187.5,-61 262.5,-61 262.5,-61 268.5,-61 274.5,-67 274.5,-73 274.5,-73 274.5,-92 274.5,-92 274.5,-98 268.5,-104 262.5,-104"/>
<text text-anchor="middle" x="225" y="-78.8" font-family="Times New Roman,serif" font-size="14.00">node</text>
</g>
<!-- Jenkinsfile&#45;&gt;node -->
<g id="edge1" class="edge">
<title>Jenkinsfile&#45;&gt;node</title>
<path fill="none" stroke="black" d="M131.02,-64.2C142.33,-66.43 154.06,-68.73 165.21,-70.93"/>
<polygon fill="black" stroke="black" points="164.77,-74.41 175.26,-72.91 166.12,-67.54 164.77,-74.41"/>
</g>
<!-- pipeline -->
<g id="node3" class="node">
<title>pipeline</title>
<path fill="none" stroke="black" d="M271,-43C271,-43 179,-43 179,-43 173,-43 167,-37 167,-31 167,-31 167,-12 167,-12 167,-6 173,0 179,0 179,0 271,0 271,0 277,0 283,-6 283,-12 283,-12 283,-31 283,-31 283,-37 277,-43 271,-43"/>
<text text-anchor="middle" x="225" y="-17.8" font-family="Times New Roman,serif" font-size="14.00">pipeline</text>
</g>
<!-- Jenkinsfile&#45;&gt;pipeline -->
<g id="edge2" class="edge">
<title>Jenkinsfile&#45;&gt;pipeline</title>
<path fill="none" stroke="black" d="M131.02,-39.21C139.56,-37.58 148.34,-35.91 156.93,-34.27"/>
<polygon fill="black" stroke="black" points="157.74,-37.68 166.91,-32.38 156.43,-30.81 157.74,-37.68"/>
</g>
<!-- Scripted Pipeline syntax;Freestyle -->
<g id="node4" class="node">
<title>Scripted Pipeline syntax;Freestyle</title>
<path fill="none" stroke="black" d="M565,-104C565,-104 331,-104 331,-104 325,-104 319,-98 319,-92 319,-92 319,-73 319,-73 319,-67 325,-61 331,-61 331,-61 565,-61 565,-61 571,-61 577,-67 577,-73 577,-73 577,-92 577,-92 577,-98 571,-104 565,-104"/>
<text text-anchor="middle" x="448" y="-78.8" font-family="Times New Roman,serif" font-size="14.00">Scripted Pipeline syntax;Freestyle</text>
</g>
<!-- node&#45;&gt;Scripted Pipeline syntax;Freestyle -->
<g id="edge3" class="edge">
<title>node&#45;&gt;Scripted Pipeline syntax;Freestyle</title>
<path fill="none" stroke="black" d="M274.77,-82.5C285.2,-82.5 296.71,-82.5 308.68,-82.5"/>
<polygon fill="black" stroke="black" points="308.83,-86 318.83,-82.5 308.83,-79 308.83,-86"/>
</g>
<!-- Declarative Pipeline syntax -->
<g id="node5" class="node">
<title>Declarative Pipeline syntax</title>
<path fill="none" stroke="black" d="M547,-43C547,-43 349,-43 349,-43 343,-43 337,-37 337,-31 337,-31 337,-12 337,-12 337,-6 343,0 349,0 349,0 547,0 547,0 553,0 559,-6 559,-12 559,-12 559,-31 559,-31 559,-37 553,-43 547,-43"/>
<text text-anchor="middle" x="448" y="-17.8" font-family="Times New Roman,serif" font-size="14.00">Declarative Pipeline syntax</text>
</g>
<!-- pipeline&#45;&gt;Declarative Pipeline syntax -->
<g id="edge4" class="edge">
<title>pipeline&#45;&gt;Declarative Pipeline syntax</title>
<path fill="none" stroke="black" d="M283.2,-21.5C296.61,-21.5 311.39,-21.5 326.42,-21.5"/>
<polygon fill="black" stroke="black" points="326.85,-25 336.85,-21.5 326.85,-18 326.85,-25"/>
</g>
</g>
</svg>
