<?xml version="1.0" encoding="UTF-8" standalone="no"?>
<!DOCTYPE svg PUBLIC "-//W3C//DTD SVG 1.1//EN"
 "http://www.w3.org/Graphics/SVG/1.1/DTD/svg11.dtd">
<!-- Generated by graphviz version 3.0.0 (20220226.1711)
 -->
<!-- Pages: 1 -->
<svg width="870pt" height="2258pt"
 viewBox="0.00 0.00 870.00 2258.00" xmlns="http://www.w3.org/2000/svg" xmlns:xlink="http://www.w3.org/1999/xlink">
<g id="graph0" class="graph" transform="scale(1 1) rotate(0) translate(4 2254)">
<polygon fill="white" stroke="transparent" points="-4,4 -4,-2254 866,-2254 866,4 -4,4"/>
<!-- Jenkins -->
<g id="node1" class="node">
<title>Jenkins</title>
<path fill="none" stroke="black" d="M45,-873C45,-873 12,-873 12,-873 6,-873 0,-867 0,-861 0,-861 0,-849 0,-849 0,-843 6,-837 12,-837 12,-837 45,-837 45,-837 51,-837 57,-843 57,-849 57,-849 57,-861 57,-861 57,-867 51,-873 45,-873"/>
<text text-anchor="middle" x="28.5" y="-851.3" font-family="Times New Roman,serif" font-size="14.00">Jenkins</text>
</g>
<!-- Pipeline -->
<g id="node2" class="node">
<title>Pipeline</title>
<path fill="none" stroke="black" d="M141,-873C141,-873 105,-873 105,-873 99,-873 93,-867 93,-861 93,-861 93,-849 93,-849 93,-843 99,-837 105,-837 105,-837 141,-837 141,-837 147,-837 153,-843 153,-849 153,-849 153,-861 153,-861 153,-867 147,-873 141,-873"/>
<text text-anchor="middle" x="123" y="-851.3" font-family="Times New Roman,serif" font-size="14.00">Pipeline</text>
</g>
<!-- Jenkins&#45;&gt;Pipeline -->
<g id="edge1" class="edge">
<title>Jenkins&#45;&gt;Pipeline</title>
<path fill="none" stroke="black" d="M57,-855C65.03,-855 73.96,-855 82.57,-855"/>
<polygon fill="black" stroke="black" points="82.83,-858.5 92.83,-855 82.83,-851.5 82.83,-858.5"/>
</g>
<!-- Declarative Pipeline
 pipeline {} -->
<g id="node3" class="node">
<title>Declarative Pipeline
 pipeline {}</title>
<path fill="none" stroke="black" d="M302,-1320C302,-1320 201,-1320 201,-1320 195,-1320 189,-1314 189,-1308 189,-1308 189,-1294 189,-1294 189,-1288 195,-1282 201,-1282 201,-1282 302,-1282 302,-1282 308,-1282 314,-1288 314,-1294 314,-1294 314,-1308 314,-1308 314,-1314 308,-1320 302,-1320"/>
<text text-anchor="middle" x="251.5" y="-1304.8" font-family="Times New Roman,serif" font-size="14.00">Declarative Pipeline</text>
<text text-anchor="middle" x="251.5" y="-1289.8" font-family="Times New Roman,serif" font-size="14.00"> pipeline {}</text>
</g>
<!-- Pipeline&#45;&gt;Declarative Pipeline
 pipeline {} -->
<g id="edge2" class="edge">
<title>Pipeline&#45;&gt;Declarative Pipeline
 pipeline {}</title>
<path fill="none" stroke="black" d="M124.58,-873.16C127.21,-945 140.07,-1208.49 189,-1273 189.48,-1273.63 189.97,-1274.25 190.49,-1274.85"/>
<polygon fill="black" stroke="black" points="188.3,-1277.6 197.96,-1281.96 193.13,-1272.53 188.3,-1277.6"/>
</g>
<!-- Limitations -->
<g id="node4" class="node">
<title>Limitations</title>
<path fill="none" stroke="black" d="M278.5,-1264C278.5,-1264 224.5,-1264 224.5,-1264 218.5,-1264 212.5,-1258 212.5,-1252 212.5,-1252 212.5,-1240 212.5,-1240 212.5,-1234 218.5,-1228 224.5,-1228 224.5,-1228 278.5,-1228 278.5,-1228 284.5,-1228 290.5,-1234 290.5,-1240 290.5,-1240 290.5,-1252 290.5,-1252 290.5,-1258 284.5,-1264 278.5,-1264"/>
<text text-anchor="middle" x="251.5" y="-1242.3" font-family="Times New Roman,serif" font-size="14.00">Limitations</text>
</g>
<!-- Pipeline&#45;&gt;Limitations -->
<g id="edge3" class="edge">
<title>Pipeline&#45;&gt;Limitations</title>
<path fill="none" stroke="black" d="M125.01,-873.05C129.02,-938.72 145.72,-1164.02 189,-1219 192.93,-1223.99 197.97,-1228.08 203.47,-1231.43"/>
<polygon fill="black" stroke="black" points="201.92,-1234.56 212.4,-1236.09 205.16,-1228.36 201.92,-1234.56"/>
</g>
<!-- Sections -->
<g id="node5" class="node">
<title>Sections</title>
<path fill="none" stroke="black" d="M272,-1210C272,-1210 231,-1210 231,-1210 225,-1210 219,-1204 219,-1198 219,-1198 219,-1186 219,-1186 219,-1180 225,-1174 231,-1174 231,-1174 272,-1174 272,-1174 278,-1174 284,-1180 284,-1186 284,-1186 284,-1198 284,-1198 284,-1204 278,-1210 272,-1210"/>
<text text-anchor="middle" x="251.5" y="-1188.3" font-family="Times New Roman,serif" font-size="14.00">Sections</text>
</g>
<!-- Pipeline&#45;&gt;Sections -->
<g id="edge4" class="edge">
<title>Pipeline&#45;&gt;Sections</title>
<path fill="none" stroke="black" d="M130.8,-873.12C151.69,-928.78 215.04,-1097.53 240.12,-1164.34"/>
<polygon fill="black" stroke="black" points="236.87,-1165.66 243.67,-1173.79 243.43,-1163.2 236.87,-1165.66"/>
</g>
<!-- Directives -->
<g id="node26" class="node">
<title>Directives</title>
<path fill="none" stroke="black" d="M275.5,-900C275.5,-900 227.5,-900 227.5,-900 221.5,-900 215.5,-894 215.5,-888 215.5,-888 215.5,-876 215.5,-876 215.5,-870 221.5,-864 227.5,-864 227.5,-864 275.5,-864 275.5,-864 281.5,-864 287.5,-870 287.5,-876 287.5,-876 287.5,-888 287.5,-888 287.5,-894 281.5,-900 275.5,-900"/>
<text text-anchor="middle" x="251.5" y="-878.3" font-family="Times New Roman,serif" font-size="14.00">Directives</text>
</g>
<!-- Pipeline&#45;&gt;Directives -->
<g id="edge25" class="edge">
<title>Pipeline&#45;&gt;Directives</title>
<path fill="none" stroke="black" d="M153.02,-861.19C168.51,-864.5 187.92,-868.64 205.33,-872.36"/>
<polygon fill="black" stroke="black" points="204.79,-875.82 215.3,-874.49 206.25,-868.98 204.79,-875.82"/>
</g>
<!-- Sequential Stages -->
<g id="node61" class="node">
<title>Sequential Stages</title>
<path fill="none" stroke="black" d="M296.5,-846C296.5,-846 206.5,-846 206.5,-846 200.5,-846 194.5,-840 194.5,-834 194.5,-834 194.5,-822 194.5,-822 194.5,-816 200.5,-810 206.5,-810 206.5,-810 296.5,-810 296.5,-810 302.5,-810 308.5,-816 308.5,-822 308.5,-822 308.5,-834 308.5,-834 308.5,-840 302.5,-846 296.5,-846"/>
<text text-anchor="middle" x="251.5" y="-824.3" font-family="Times New Roman,serif" font-size="14.00">Sequential Stages</text>
</g>
<!-- Pipeline&#45;&gt;Sequential Stages -->
<g id="edge60" class="edge">
<title>Pipeline&#45;&gt;Sequential Stages</title>
<path fill="none" stroke="black" d="M153.02,-848.81C162.46,-846.79 173.35,-844.47 184.36,-842.12"/>
<polygon fill="black" stroke="black" points="185.42,-845.47 194.47,-839.96 183.96,-838.62 185.42,-845.47"/>
</g>
<!-- Parallel -->
<g id="node62" class="node">
<title>Parallel</title>
<path fill="none" stroke="black" d="M267.5,-792C267.5,-792 235.5,-792 235.5,-792 229.5,-792 223.5,-786 223.5,-780 223.5,-780 223.5,-768 223.5,-768 223.5,-762 229.5,-756 235.5,-756 235.5,-756 267.5,-756 267.5,-756 273.5,-756 279.5,-762 279.5,-768 279.5,-768 279.5,-780 279.5,-780 279.5,-786 273.5,-792 267.5,-792"/>
<text text-anchor="middle" x="251.5" y="-770.3" font-family="Times New Roman,serif" font-size="14.00">Parallel</text>
</g>
<!-- Pipeline&#45;&gt;Parallel -->
<g id="edge61" class="edge">
<title>Pipeline&#45;&gt;Parallel</title>
<path fill="none" stroke="black" d="M142.82,-836.94C155.25,-825.64 172.28,-811.33 189,-801 196.78,-796.19 205.57,-791.79 214.02,-788.01"/>
<polygon fill="black" stroke="black" points="215.54,-791.16 223.34,-784 212.77,-784.73 215.54,-791.16"/>
</g>
<!-- Matrix -->
<g id="node63" class="node">
<title>Matrix</title>
<path fill="none" stroke="black" d="M266.5,-495C266.5,-495 236.5,-495 236.5,-495 230.5,-495 224.5,-489 224.5,-483 224.5,-483 224.5,-471 224.5,-471 224.5,-465 230.5,-459 236.5,-459 236.5,-459 266.5,-459 266.5,-459 272.5,-459 278.5,-465 278.5,-471 278.5,-471 278.5,-483 278.5,-483 278.5,-489 272.5,-495 266.5,-495"/>
<text text-anchor="middle" x="251.5" y="-473.3" font-family="Times New Roman,serif" font-size="14.00">Matrix</text>
</g>
<!-- Pipeline&#45;&gt;Matrix -->
<g id="edge62" class="edge">
<title>Pipeline&#45;&gt;Matrix</title>
<path fill="none" stroke="#ea4f16" d="M130.1,-836.77C150.52,-775.76 216.53,-578.5 241.14,-504.97"/>
<polygon fill="#ea4f16" stroke="#ea4f16" points="244.61,-505.64 244.46,-495.05 237.97,-503.42 244.61,-505.64"/>
</g>
<!-- Steps -->
<g id="node67" class="node">
<title>Steps</title>
<path fill="none" stroke="black" d="M266.5,-441C266.5,-441 236.5,-441 236.5,-441 230.5,-441 224.5,-435 224.5,-429 224.5,-429 224.5,-417 224.5,-417 224.5,-411 230.5,-405 236.5,-405 236.5,-405 266.5,-405 266.5,-405 272.5,-405 278.5,-411 278.5,-417 278.5,-417 278.5,-429 278.5,-429 278.5,-435 272.5,-441 266.5,-441"/>
<text text-anchor="middle" x="251.5" y="-419.3" font-family="Times New Roman,serif" font-size="14.00">Steps</text>
</g>
<!-- Pipeline&#45;&gt;Steps -->
<g id="edge66" class="edge">
<title>Pipeline&#45;&gt;Steps</title>
<path fill="none" stroke="black" d="M124.65,-836.9C127.52,-766.53 141.09,-511.97 189,-450 195.47,-441.63 205.08,-435.8 214.8,-431.76"/>
<polygon fill="black" stroke="black" points="216.21,-434.97 224.43,-428.29 213.84,-428.39 216.21,-434.97"/>
</g>
<!-- agent -->
<g id="node6" class="node">
<title>agent</title>
<path fill="none" stroke="black" d="M407.5,-2115C407.5,-2115 377.5,-2115 377.5,-2115 371.5,-2115 365.5,-2109 365.5,-2103 365.5,-2103 365.5,-2091 365.5,-2091 365.5,-2085 371.5,-2079 377.5,-2079 377.5,-2079 407.5,-2079 407.5,-2079 413.5,-2079 419.5,-2085 419.5,-2091 419.5,-2091 419.5,-2103 419.5,-2103 419.5,-2109 413.5,-2115 407.5,-2115"/>
<text text-anchor="middle" x="392.5" y="-2093.3" font-family="Times New Roman,serif" font-size="14.00">agent</text>
</g>
<!-- Sections&#45;&gt;agent -->
<g id="edge5" class="edge">
<title>Sections&#45;&gt;agent</title>
<path fill="none" stroke="black" d="M284.12,-1198.63C295.37,-1202.63 306.98,-1208.97 314,-1219 349.39,-1269.52 344.08,-1711.6 350,-1773 360.59,-1882.77 379.04,-2012.73 387.29,-2068.87"/>
<polygon fill="black" stroke="black" points="383.83,-2069.4 388.76,-2078.78 390.76,-2068.37 383.83,-2069.4"/>
</g>
<!-- post -->
<g id="node7" class="node">
<title>post</title>
<path fill="none" stroke="black" d="M407.5,-1764C407.5,-1764 377.5,-1764 377.5,-1764 371.5,-1764 365.5,-1758 365.5,-1752 365.5,-1752 365.5,-1740 365.5,-1740 365.5,-1734 371.5,-1728 377.5,-1728 377.5,-1728 407.5,-1728 407.5,-1728 413.5,-1728 419.5,-1734 419.5,-1740 419.5,-1740 419.5,-1752 419.5,-1752 419.5,-1758 413.5,-1764 407.5,-1764"/>
<text text-anchor="middle" x="392.5" y="-1742.3" font-family="Times New Roman,serif" font-size="14.00">post</text>
</g>
<!-- Sections&#45;&gt;post -->
<g id="edge6" class="edge">
<title>Sections&#45;&gt;post</title>
<path fill="none" stroke="black" d="M284.05,-1199.03C295.16,-1203.06 306.68,-1209.33 314,-1219 348.81,-1264.97 341.62,-1418.94 350,-1476 362.97,-1564.3 379.3,-1668.69 387.04,-1717.79"/>
<polygon fill="black" stroke="black" points="383.58,-1718.35 388.6,-1727.68 390.5,-1717.26 383.58,-1718.35"/>
</g>
<!-- stages -->
<g id="node8" class="node">
<title>stages</title>
<path fill="none" stroke="black" d="M407.5,-1467C407.5,-1467 377.5,-1467 377.5,-1467 371.5,-1467 365.5,-1461 365.5,-1455 365.5,-1455 365.5,-1443 365.5,-1443 365.5,-1437 371.5,-1431 377.5,-1431 377.5,-1431 407.5,-1431 407.5,-1431 413.5,-1431 419.5,-1437 419.5,-1443 419.5,-1443 419.5,-1455 419.5,-1455 419.5,-1461 413.5,-1467 407.5,-1467"/>
<text text-anchor="middle" x="392.5" y="-1445.3" font-family="Times New Roman,serif" font-size="14.00">stages</text>
</g>
<!-- Sections&#45;&gt;stages -->
<g id="edge7" class="edge">
<title>Sections&#45;&gt;stages</title>
<path fill="none" stroke="black" d="M284.27,-1199.99C295,-1204.09 306.22,-1210.16 314,-1219 351.36,-1261.43 331.85,-1287.46 350,-1341 359.35,-1368.59 371.43,-1399.58 380.14,-1421.27"/>
<polygon fill="black" stroke="black" points="377.01,-1422.86 384,-1430.82 383.5,-1420.23 377.01,-1422.86"/>
</g>
<!-- none -->
<g id="node21" class="node">
<title>none</title>
<path fill="none" stroke="black" d="M604.5,-2250C604.5,-2250 574.5,-2250 574.5,-2250 568.5,-2250 562.5,-2244 562.5,-2238 562.5,-2238 562.5,-2226 562.5,-2226 562.5,-2220 568.5,-2214 574.5,-2214 574.5,-2214 604.5,-2214 604.5,-2214 610.5,-2214 616.5,-2220 616.5,-2226 616.5,-2226 616.5,-2238 616.5,-2238 616.5,-2244 610.5,-2250 604.5,-2250"/>
<text text-anchor="middle" x="589.5" y="-2228.3" font-family="Times New Roman,serif" font-size="14.00">none</text>
</g>
<!-- agent&#45;&gt;none -->
<g id="edge20" class="edge">
<title>agent&#45;&gt;none</title>
<path fill="none" stroke="black" d="M401.37,-2115.04C412.96,-2139.41 436.99,-2182.37 471,-2205 495.09,-2221.03 527.43,-2227.62 552.08,-2230.29"/>
<polygon fill="black" stroke="black" points="551.85,-2233.79 562.13,-2231.21 552.49,-2226.81 551.85,-2233.79"/>
</g>
<!-- any -->
<g id="node22" class="node">
<title>any</title>
<path fill="none" stroke="black" d="M604.5,-2196C604.5,-2196 574.5,-2196 574.5,-2196 568.5,-2196 562.5,-2190 562.5,-2184 562.5,-2184 562.5,-2172 562.5,-2172 562.5,-2166 568.5,-2160 574.5,-2160 574.5,-2160 604.5,-2160 604.5,-2160 610.5,-2160 616.5,-2166 616.5,-2172 616.5,-2172 616.5,-2184 616.5,-2184 616.5,-2190 610.5,-2196 604.5,-2196"/>
<text text-anchor="middle" x="589.5" y="-2174.3" font-family="Times New Roman,serif" font-size="14.00">any</text>
</g>
<!-- agent&#45;&gt;any -->
<g id="edge21" class="edge">
<title>agent&#45;&gt;any</title>
<path fill="none" stroke="black" d="M414.86,-2115.26C429.71,-2127.07 450.46,-2141.9 471,-2151 497,-2162.53 528.51,-2169.42 552.35,-2173.36"/>
<polygon fill="black" stroke="black" points="551.97,-2176.84 562.38,-2174.92 553.04,-2169.92 551.97,-2176.84"/>
</g>
<!-- label -->
<g id="node23" class="node">
<title>label</title>
<path fill="none" stroke="black" d="M604.5,-2142C604.5,-2142 574.5,-2142 574.5,-2142 568.5,-2142 562.5,-2136 562.5,-2130 562.5,-2130 562.5,-2118 562.5,-2118 562.5,-2112 568.5,-2106 574.5,-2106 574.5,-2106 604.5,-2106 604.5,-2106 610.5,-2106 616.5,-2112 616.5,-2118 616.5,-2118 616.5,-2130 616.5,-2130 616.5,-2136 610.5,-2142 604.5,-2142"/>
<text text-anchor="middle" x="589.5" y="-2120.3" font-family="Times New Roman,serif" font-size="14.00">label</text>
</g>
<!-- agent&#45;&gt;label -->
<g id="edge22" class="edge">
<title>agent&#45;&gt;label</title>
<path fill="none" stroke="black" d="M419.8,-2100.64C453.91,-2105.36 513.6,-2113.63 552.06,-2118.95"/>
<polygon fill="black" stroke="black" points="551.92,-2122.47 562.31,-2120.37 552.88,-2115.53 551.92,-2122.47"/>
</g>
<!-- node -->
<g id="node24" class="node">
<title>node</title>
<path fill="none" stroke="black" d="M604.5,-2088C604.5,-2088 574.5,-2088 574.5,-2088 568.5,-2088 562.5,-2082 562.5,-2076 562.5,-2076 562.5,-2064 562.5,-2064 562.5,-2058 568.5,-2052 574.5,-2052 574.5,-2052 604.5,-2052 604.5,-2052 610.5,-2052 616.5,-2058 616.5,-2064 616.5,-2064 616.5,-2076 616.5,-2076 616.5,-2082 610.5,-2088 604.5,-2088"/>
<text text-anchor="middle" x="589.5" y="-2066.3" font-family="Times New Roman,serif" font-size="14.00">node</text>
</g>
<!-- agent&#45;&gt;node -->
<g id="edge23" class="edge">
<title>agent&#45;&gt;node</title>
<path fill="none" stroke="black" d="M419.8,-2093.36C453.91,-2088.64 513.6,-2080.37 552.06,-2075.05"/>
<polygon fill="black" stroke="black" points="552.88,-2078.47 562.31,-2073.63 551.92,-2071.53 552.88,-2078.47"/>
</g>
<!-- docker -->
<g id="node25" class="node">
<title>docker</title>
<path fill="none" stroke="black" d="M605.5,-2034C605.5,-2034 573.5,-2034 573.5,-2034 567.5,-2034 561.5,-2028 561.5,-2022 561.5,-2022 561.5,-2010 561.5,-2010 561.5,-2004 567.5,-1998 573.5,-1998 573.5,-1998 605.5,-1998 605.5,-1998 611.5,-1998 617.5,-2004 617.5,-2010 617.5,-2010 617.5,-2022 617.5,-2022 617.5,-2028 611.5,-2034 605.5,-2034"/>
<text text-anchor="middle" x="589.5" y="-2012.3" font-family="Times New Roman,serif" font-size="14.00">docker</text>
</g>
<!-- agent&#45;&gt;docker -->
<g id="edge24" class="edge">
<title>agent&#45;&gt;docker</title>
<path fill="none" stroke="black" d="M414.86,-2078.74C429.71,-2066.93 450.46,-2052.1 471,-2043 496.67,-2031.62 527.7,-2024.75 551.43,-2020.79"/>
<polygon fill="black" stroke="black" points="552.1,-2024.23 561.44,-2019.22 551.02,-2017.32 552.1,-2024.23"/>
</g>
<!-- always -->
<g id="node13" class="node">
<title>always</title>
<path fill="none" stroke="black" d="M604.5,-1980C604.5,-1980 574.5,-1980 574.5,-1980 568.5,-1980 562.5,-1974 562.5,-1968 562.5,-1968 562.5,-1956 562.5,-1956 562.5,-1950 568.5,-1944 574.5,-1944 574.5,-1944 604.5,-1944 604.5,-1944 610.5,-1944 616.5,-1950 616.5,-1956 616.5,-1956 616.5,-1968 616.5,-1968 616.5,-1974 610.5,-1980 604.5,-1980"/>
<text text-anchor="middle" x="589.5" y="-1958.3" font-family="Times New Roman,serif" font-size="14.00">always</text>
</g>
<!-- post&#45;&gt;always -->
<g id="edge12" class="edge">
<title>post&#45;&gt;always</title>
<path fill="none" stroke="black" d="M395.46,-1764.29C400.55,-1802.24 417.73,-1889.79 471,-1935 493.44,-1954.05 526.68,-1960.32 552.09,-1962.1"/>
<polygon fill="black" stroke="black" points="551.93,-1965.59 562.09,-1962.6 552.28,-1958.6 551.93,-1965.59"/>
</g>
<!-- changed -->
<g id="node14" class="node">
<title>changed</title>
<path fill="none" stroke="black" d="M609,-1926C609,-1926 570,-1926 570,-1926 564,-1926 558,-1920 558,-1914 558,-1914 558,-1902 558,-1902 558,-1896 564,-1890 570,-1890 570,-1890 609,-1890 609,-1890 615,-1890 621,-1896 621,-1902 621,-1902 621,-1914 621,-1914 621,-1920 615,-1926 609,-1926"/>
<text text-anchor="middle" x="589.5" y="-1904.3" font-family="Times New Roman,serif" font-size="14.00">changed</text>
</g>
<!-- post&#45;&gt;changed -->
<g id="edge13" class="edge">
<title>post&#45;&gt;changed</title>
<path fill="none" stroke="black" d="M398.66,-1764.05C408,-1793.37 430.61,-1851.07 471,-1881 493.15,-1897.41 523.6,-1904.08 547.95,-1906.69"/>
<polygon fill="black" stroke="black" points="547.71,-1910.18 557.98,-1907.58 548.32,-1903.21 547.71,-1910.18"/>
</g>
<!-- fixed -->
<g id="node15" class="node">
<title>fixed</title>
<path fill="none" stroke="black" d="M604.5,-1872C604.5,-1872 574.5,-1872 574.5,-1872 568.5,-1872 562.5,-1866 562.5,-1860 562.5,-1860 562.5,-1848 562.5,-1848 562.5,-1842 568.5,-1836 574.5,-1836 574.5,-1836 604.5,-1836 604.5,-1836 610.5,-1836 616.5,-1842 616.5,-1848 616.5,-1848 616.5,-1860 616.5,-1860 616.5,-1866 610.5,-1872 604.5,-1872"/>
<text text-anchor="middle" x="589.5" y="-1850.3" font-family="Times New Roman,serif" font-size="14.00">fixed</text>
</g>
<!-- post&#45;&gt;fixed -->
<g id="edge14" class="edge">
<title>post&#45;&gt;fixed</title>
<path fill="none" stroke="black" d="M405.83,-1764.1C419.54,-1782.78 443.42,-1811.33 471,-1827 495.89,-1841.14 527.72,-1847.88 551.97,-1851.09"/>
<polygon fill="black" stroke="black" points="551.85,-1854.6 562.19,-1852.29 552.67,-1847.65 551.85,-1854.6"/>
</g>
<!-- regression -->
<g id="node16" class="node">
<title>regression</title>
<path fill="none" stroke="black" d="M614.5,-1818C614.5,-1818 564.5,-1818 564.5,-1818 558.5,-1818 552.5,-1812 552.5,-1806 552.5,-1806 552.5,-1794 552.5,-1794 552.5,-1788 558.5,-1782 564.5,-1782 564.5,-1782 614.5,-1782 614.5,-1782 620.5,-1782 626.5,-1788 626.5,-1794 626.5,-1794 626.5,-1806 626.5,-1806 626.5,-1812 620.5,-1818 614.5,-1818"/>
<text text-anchor="middle" x="589.5" y="-1796.3" font-family="Times New Roman,serif" font-size="14.00">regression</text>
</g>
<!-- post&#45;&gt;regression -->
<g id="edge15" class="edge">
<title>post&#45;&gt;regression</title>
<path fill="none" stroke="black" d="M419.81,-1755.97C434.71,-1761.41 453.75,-1768.03 471,-1773 494.27,-1779.7 520.5,-1785.86 542.26,-1790.6"/>
<polygon fill="black" stroke="black" points="541.73,-1794.06 552.24,-1792.74 543.2,-1787.22 541.73,-1794.06"/>
</g>
<!-- aborted -->
<g id="node17" class="node">
<title>aborted</title>
<path fill="none" stroke="black" d="M607,-1764C607,-1764 572,-1764 572,-1764 566,-1764 560,-1758 560,-1752 560,-1752 560,-1740 560,-1740 560,-1734 566,-1728 572,-1728 572,-1728 607,-1728 607,-1728 613,-1728 619,-1734 619,-1740 619,-1740 619,-1752 619,-1752 619,-1758 613,-1764 607,-1764"/>
<text text-anchor="middle" x="589.5" y="-1742.3" font-family="Times New Roman,serif" font-size="14.00">aborted</text>
</g>
<!-- post&#45;&gt;aborted -->
<g id="edge16" class="edge">
<title>post&#45;&gt;aborted</title>
<path fill="none" stroke="black" d="M419.8,-1746C453.15,-1746 510.95,-1746 549.46,-1746"/>
<polygon fill="black" stroke="black" points="549.77,-1749.5 559.77,-1746 549.77,-1742.5 549.77,-1749.5"/>
</g>
<!-- failure -->
<g id="node18" class="node">
<title>failure</title>
<path fill="none" stroke="black" d="M604.5,-1710C604.5,-1710 574.5,-1710 574.5,-1710 568.5,-1710 562.5,-1704 562.5,-1698 562.5,-1698 562.5,-1686 562.5,-1686 562.5,-1680 568.5,-1674 574.5,-1674 574.5,-1674 604.5,-1674 604.5,-1674 610.5,-1674 616.5,-1680 616.5,-1686 616.5,-1686 616.5,-1698 616.5,-1698 616.5,-1704 610.5,-1710 604.5,-1710"/>
<text text-anchor="middle" x="589.5" y="-1688.3" font-family="Times New Roman,serif" font-size="14.00">failure</text>
</g>
<!-- post&#45;&gt;failure -->
<g id="edge17" class="edge">
<title>post&#45;&gt;failure</title>
<path fill="none" stroke="black" d="M419.81,-1736.03C434.71,-1730.59 453.75,-1723.97 471,-1719 497.98,-1711.23 528.95,-1704.18 552.32,-1699.24"/>
<polygon fill="black" stroke="black" points="553.08,-1702.66 562.16,-1697.19 551.65,-1695.81 553.08,-1702.66"/>
</g>
<!-- success -->
<g id="node19" class="node">
<title>success</title>
<path fill="none" stroke="black" d="M608,-1656C608,-1656 571,-1656 571,-1656 565,-1656 559,-1650 559,-1644 559,-1644 559,-1632 559,-1632 559,-1626 565,-1620 571,-1620 571,-1620 608,-1620 608,-1620 614,-1620 620,-1626 620,-1632 620,-1632 620,-1644 620,-1644 620,-1650 614,-1656 608,-1656"/>
<text text-anchor="middle" x="589.5" y="-1634.3" font-family="Times New Roman,serif" font-size="14.00">success</text>
</g>
<!-- post&#45;&gt;success -->
<g id="edge18" class="edge">
<title>post&#45;&gt;success</title>
<path fill="none" stroke="black" d="M405.83,-1727.9C419.54,-1709.22 443.42,-1680.67 471,-1665 494.78,-1651.49 524.89,-1644.74 548.68,-1641.36"/>
<polygon fill="black" stroke="black" points="549.31,-1644.81 558.79,-1640.08 548.43,-1637.87 549.31,-1644.81"/>
</g>
<!-- cleanup -->
<g id="node20" class="node">
<title>cleanup</title>
<path fill="none" stroke="black" d="M607,-1602C607,-1602 572,-1602 572,-1602 566,-1602 560,-1596 560,-1590 560,-1590 560,-1578 560,-1578 560,-1572 566,-1566 572,-1566 572,-1566 607,-1566 607,-1566 613,-1566 619,-1572 619,-1578 619,-1578 619,-1590 619,-1590 619,-1596 613,-1602 607,-1602"/>
<text text-anchor="middle" x="589.5" y="-1580.3" font-family="Times New Roman,serif" font-size="14.00">cleanup</text>
</g>
<!-- post&#45;&gt;cleanup -->
<g id="edge19" class="edge">
<title>post&#45;&gt;cleanup</title>
<path fill="none" stroke="black" d="M398.66,-1727.95C408,-1698.63 430.61,-1640.93 471,-1611 493.66,-1594.21 525.02,-1587.61 549.64,-1585.13"/>
<polygon fill="black" stroke="black" points="550.06,-1588.61 559.74,-1584.3 549.49,-1581.63 550.06,-1588.61"/>
</g>
<!-- stage(&quot;Example&quot;) -->
<g id="node9" class="node">
<title>stage(&quot;Example&quot;)</title>
<path fill="none" stroke="black" d="M634.5,-1548C634.5,-1548 544.5,-1548 544.5,-1548 538.5,-1548 532.5,-1542 532.5,-1536 532.5,-1536 532.5,-1524 532.5,-1524 532.5,-1518 538.5,-1512 544.5,-1512 544.5,-1512 634.5,-1512 634.5,-1512 640.5,-1512 646.5,-1518 646.5,-1524 646.5,-1524 646.5,-1536 646.5,-1536 646.5,-1542 640.5,-1548 634.5,-1548"/>
<text text-anchor="middle" x="589.5" y="-1526.3" font-family="Times New Roman,serif" font-size="14.00">stage(&quot;Example&quot;)</text>
</g>
<!-- stages&#45;&gt;stage(&quot;Example&quot;) -->
<g id="edge8" class="edge">
<title>stages&#45;&gt;stage(&quot;Example&quot;)</title>
<path fill="none" stroke="black" d="M414.86,-1467.26C429.71,-1479.07 450.46,-1493.9 471,-1503 487.08,-1510.13 505.26,-1515.48 522.43,-1519.46"/>
<polygon fill="black" stroke="black" points="521.88,-1522.93 532.39,-1521.65 523.38,-1516.09 521.88,-1522.93"/>
</g>
<!-- steps -->
<g id="node10" class="node">
<title>steps</title>
<path fill="none" stroke="black" d="M818,-1602C818,-1602 788,-1602 788,-1602 782,-1602 776,-1596 776,-1590 776,-1590 776,-1578 776,-1578 776,-1572 782,-1566 788,-1566 788,-1566 818,-1566 818,-1566 824,-1566 830,-1572 830,-1578 830,-1578 830,-1590 830,-1590 830,-1596 824,-1602 818,-1602"/>
<text text-anchor="middle" x="803" y="-1580.3" font-family="Times New Roman,serif" font-size="14.00">steps</text>
</g>
<!-- stage(&quot;Example&quot;)&#45;&gt;steps -->
<g id="edge9" class="edge">
<title>stage(&quot;Example&quot;)&#45;&gt;steps</title>
<path fill="none" stroke="black" d="M646.53,-1542.23C666.04,-1546.66 688.04,-1551.84 708,-1557 727.24,-1561.97 748.53,-1568.04 765.98,-1573.16"/>
<polygon fill="black" stroke="black" points="765.18,-1576.58 775.77,-1576.05 767.17,-1569.86 765.18,-1576.58"/>
</g>
<!-- if (){}else{} -->
<g id="node11" class="node">
<title>if (){}else{}</title>
<path fill="none" stroke="black" d="M833.5,-1548C833.5,-1548 772.5,-1548 772.5,-1548 766.5,-1548 760.5,-1542 760.5,-1536 760.5,-1536 760.5,-1524 760.5,-1524 760.5,-1518 766.5,-1512 772.5,-1512 772.5,-1512 833.5,-1512 833.5,-1512 839.5,-1512 845.5,-1518 845.5,-1524 845.5,-1524 845.5,-1536 845.5,-1536 845.5,-1542 839.5,-1548 833.5,-1548"/>
<text text-anchor="middle" x="803" y="-1526.3" font-family="Times New Roman,serif" font-size="14.00">if (){}else{}</text>
</g>
<!-- stage(&quot;Example&quot;)&#45;&gt;if (){}else{} -->
<g id="edge10" class="edge">
<title>stage(&quot;Example&quot;)&#45;&gt;if (){}else{}</title>
<path fill="none" stroke="black" d="M646.62,-1530C678.73,-1530 718.73,-1530 750.1,-1530"/>
<polygon fill="black" stroke="black" points="750.38,-1533.5 760.38,-1530 750.38,-1526.5 750.38,-1533.5"/>
</g>
<!-- try{}catch (){} -->
<g id="node12" class="node">
<title>try{}catch (){}</title>
<path fill="none" stroke="black" d="M841.5,-1494C841.5,-1494 764.5,-1494 764.5,-1494 758.5,-1494 752.5,-1488 752.5,-1482 752.5,-1482 752.5,-1470 752.5,-1470 752.5,-1464 758.5,-1458 764.5,-1458 764.5,-1458 841.5,-1458 841.5,-1458 847.5,-1458 853.5,-1464 853.5,-1470 853.5,-1470 853.5,-1482 853.5,-1482 853.5,-1488 847.5,-1494 841.5,-1494"/>
<text text-anchor="middle" x="803" y="-1472.3" font-family="Times New Roman,serif" font-size="14.00">try{}catch (){}</text>
</g>
<!-- stage(&quot;Example&quot;)&#45;&gt;try{}catch (){} -->
<g id="edge11" class="edge">
<title>stage(&quot;Example&quot;)&#45;&gt;try{}catch (){}</title>
<path fill="none" stroke="black" d="M646.53,-1517.77C666.04,-1513.34 688.04,-1508.16 708,-1503 719.19,-1500.11 731.07,-1496.85 742.49,-1493.62"/>
<polygon fill="black" stroke="black" points="743.72,-1496.9 752.38,-1490.79 741.8,-1490.17 743.72,-1496.9"/>
</g>
<!-- options -->
<g id="node27" class="node">
<title>options</title>
<path fill="none" stroke="black" d="M410,-1332C410,-1332 375,-1332 375,-1332 369,-1332 363,-1326 363,-1320 363,-1320 363,-1308 363,-1308 363,-1302 369,-1296 375,-1296 375,-1296 410,-1296 410,-1296 416,-1296 422,-1302 422,-1308 422,-1308 422,-1320 422,-1320 422,-1326 416,-1332 410,-1332"/>
<text text-anchor="middle" x="392.5" y="-1310.3" font-family="Times New Roman,serif" font-size="14.00">options</text>
</g>
<!-- Directives&#45;&gt;options -->
<g id="edge26" class="edge">
<title>Directives&#45;&gt;options</title>
<path fill="none" stroke="black" d="M258.3,-900.01C279.98,-967.39 356.39,-1204.89 382.6,-1286.34"/>
<polygon fill="black" stroke="black" points="379.28,-1287.46 385.68,-1295.91 385.95,-1285.32 379.28,-1287.46"/>
</g>
<!-- parameters -->
<g id="node28" class="node">
<title>parameters</title>
<path fill="none" stroke="black" d="M419,-1062C419,-1062 366,-1062 366,-1062 360,-1062 354,-1056 354,-1050 354,-1050 354,-1038 354,-1038 354,-1032 360,-1026 366,-1026 366,-1026 419,-1026 419,-1026 425,-1026 431,-1032 431,-1038 431,-1038 431,-1050 431,-1050 431,-1056 425,-1062 419,-1062"/>
<text text-anchor="middle" x="392.5" y="-1040.3" font-family="Times New Roman,serif" font-size="14.00">parameters</text>
</g>
<!-- Directives&#45;&gt;parameters -->
<g id="edge27" class="edge">
<title>Directives&#45;&gt;parameters</title>
<path fill="none" stroke="black" d="M268.17,-900.27C292.79,-928.95 340.6,-984.67 368.92,-1017.68"/>
<polygon fill="black" stroke="black" points="366.5,-1020.24 375.67,-1025.55 371.81,-1015.68 366.5,-1020.24"/>
</g>
<!-- triggers -->
<g id="node29" class="node">
<title>triggers</title>
<path fill="none" stroke="black" d="M409.5,-900C409.5,-900 375.5,-900 375.5,-900 369.5,-900 363.5,-894 363.5,-888 363.5,-888 363.5,-876 363.5,-876 363.5,-870 369.5,-864 375.5,-864 375.5,-864 409.5,-864 409.5,-864 415.5,-864 421.5,-870 421.5,-876 421.5,-876 421.5,-888 421.5,-888 421.5,-894 415.5,-900 409.5,-900"/>
<text text-anchor="middle" x="392.5" y="-878.3" font-family="Times New Roman,serif" font-size="14.00">triggers</text>
</g>
<!-- Directives&#45;&gt;triggers -->
<g id="edge28" class="edge">
<title>Directives&#45;&gt;triggers</title>
<path fill="none" stroke="black" d="M287.58,-882C307.57,-882 332.66,-882 353.17,-882"/>
<polygon fill="black" stroke="black" points="353.43,-885.5 363.43,-882 353.43,-878.5 353.43,-885.5"/>
</g>
<!-- input -->
<g id="node30" class="node">
<title>input</title>
<path fill="none" stroke="black" d="M407.5,-711C407.5,-711 377.5,-711 377.5,-711 371.5,-711 365.5,-705 365.5,-699 365.5,-699 365.5,-687 365.5,-687 365.5,-681 371.5,-675 377.5,-675 377.5,-675 407.5,-675 407.5,-675 413.5,-675 419.5,-681 419.5,-687 419.5,-687 419.5,-699 419.5,-699 419.5,-705 413.5,-711 407.5,-711"/>
<text text-anchor="middle" x="392.5" y="-689.3" font-family="Times New Roman,serif" font-size="14.00">input</text>
</g>
<!-- Directives&#45;&gt;input -->
<g id="edge29" class="edge">
<title>Directives&#45;&gt;input</title>
<path fill="none" stroke="black" d="M287.67,-871.6C297.06,-867.56 306.63,-862.14 314,-855 352.94,-817.3 374.73,-756.1 384.71,-720.7"/>
<polygon fill="black" stroke="black" points="388.1,-721.58 387.32,-711.02 381.34,-719.76 388.1,-721.58"/>
</g>
<!-- when -->
<g id="node31" class="node">
<title>when</title>
<path fill="none" stroke="black" d="M407.5,-387C407.5,-387 377.5,-387 377.5,-387 371.5,-387 365.5,-381 365.5,-375 365.5,-375 365.5,-363 365.5,-363 365.5,-357 371.5,-351 377.5,-351 377.5,-351 407.5,-351 407.5,-351 413.5,-351 419.5,-357 419.5,-363 419.5,-363 419.5,-375 419.5,-375 419.5,-381 413.5,-387 407.5,-387"/>
<text text-anchor="middle" x="392.5" y="-365.3" font-family="Times New Roman,serif" font-size="14.00">when</text>
</g>
<!-- Directives&#45;&gt;when -->
<g id="edge30" class="edge">
<title>Directives&#45;&gt;when</title>
<path fill="none" stroke="black" d="M287.81,-873.41C297.66,-869.37 307.44,-863.49 314,-855 328.2,-836.61 374.24,-498.43 387.75,-397.32"/>
<polygon fill="black" stroke="black" points="391.24,-397.61 389.09,-387.24 384.3,-396.69 391.24,-397.61"/>
</g>
<!-- environment -->
<g id="node59" class="node">
<title>environment</title>
<path fill="none" stroke="black" d="M423,-333C423,-333 362,-333 362,-333 356,-333 350,-327 350,-321 350,-321 350,-309 350,-309 350,-303 356,-297 362,-297 362,-297 423,-297 423,-297 429,-297 435,-303 435,-309 435,-309 435,-321 435,-321 435,-327 429,-333 423,-333"/>
<text text-anchor="middle" x="392.5" y="-311.3" font-family="Times New Roman,serif" font-size="14.00">environment</text>
</g>
<!-- Directives&#45;&gt;environment -->
<g id="edge58" class="edge">
<title>Directives&#45;&gt;environment</title>
<path fill="none" stroke="black" d="M287.63,-874.01C297.72,-869.98 307.69,-863.96 314,-855 379.8,-761.57 292.03,-440.48 350,-342 350.18,-341.69 350.36,-341.39 350.55,-341.09"/>
<polygon fill="black" stroke="black" points="353.45,-343.08 357.2,-333.18 348.09,-338.58 353.45,-343.08"/>
</g>
<!-- skipDefaultCheckout -->
<g id="node52" class="node">
<title>skipDefaultCheckout</title>
<path fill="none" stroke="black" d="M644.5,-1494C644.5,-1494 534.5,-1494 534.5,-1494 528.5,-1494 522.5,-1488 522.5,-1482 522.5,-1482 522.5,-1470 522.5,-1470 522.5,-1464 528.5,-1458 534.5,-1458 534.5,-1458 644.5,-1458 644.5,-1458 650.5,-1458 656.5,-1464 656.5,-1470 656.5,-1470 656.5,-1482 656.5,-1482 656.5,-1488 650.5,-1494 644.5,-1494"/>
<text text-anchor="middle" x="589.5" y="-1472.3" font-family="Times New Roman,serif" font-size="14.00">skipDefaultCheckout</text>
</g>
<!-- options&#45;&gt;skipDefaultCheckout -->
<g id="edge51" class="edge">
<title>options&#45;&gt;skipDefaultCheckout</title>
<path fill="none" stroke="black" d="M398.66,-1332.05C408,-1361.37 430.61,-1419.07 471,-1449 483.02,-1457.91 497.5,-1463.95 512.11,-1468.03"/>
<polygon fill="black" stroke="black" points="511.68,-1471.53 522.23,-1470.55 513.37,-1464.73 511.68,-1471.53"/>
</g>
<!-- retry -->
<g id="node53" class="node">
<title>retry</title>
<path fill="none" stroke="black" d="M604.5,-1440C604.5,-1440 574.5,-1440 574.5,-1440 568.5,-1440 562.5,-1434 562.5,-1428 562.5,-1428 562.5,-1416 562.5,-1416 562.5,-1410 568.5,-1404 574.5,-1404 574.5,-1404 604.5,-1404 604.5,-1404 610.5,-1404 616.5,-1410 616.5,-1416 616.5,-1416 616.5,-1428 616.5,-1428 616.5,-1434 610.5,-1440 604.5,-1440"/>
<text text-anchor="middle" x="589.5" y="-1418.3" font-family="Times New Roman,serif" font-size="14.00">retry</text>
</g>
<!-- options&#45;&gt;retry -->
<g id="edge52" class="edge">
<title>options&#45;&gt;retry</title>
<path fill="none" stroke="black" d="M405.83,-1332.1C419.54,-1350.78 443.42,-1379.33 471,-1395 495.89,-1409.14 527.72,-1415.88 551.97,-1419.09"/>
<polygon fill="black" stroke="black" points="551.85,-1422.6 562.19,-1420.29 552.67,-1415.65 551.85,-1422.6"/>
</g>
<!-- quietPeriod -->
<g id="node54" class="node">
<title>quietPeriod</title>
<path fill="none" stroke="black" d="M617.5,-1386C617.5,-1386 561.5,-1386 561.5,-1386 555.5,-1386 549.5,-1380 549.5,-1374 549.5,-1374 549.5,-1362 549.5,-1362 549.5,-1356 555.5,-1350 561.5,-1350 561.5,-1350 617.5,-1350 617.5,-1350 623.5,-1350 629.5,-1356 629.5,-1362 629.5,-1362 629.5,-1374 629.5,-1374 629.5,-1380 623.5,-1386 617.5,-1386"/>
<text text-anchor="middle" x="589.5" y="-1364.3" font-family="Times New Roman,serif" font-size="14.00">quietPeriod</text>
</g>
<!-- options&#45;&gt;quietPeriod -->
<g id="edge53" class="edge">
<title>options&#45;&gt;quietPeriod</title>
<path fill="none" stroke="black" d="M422.33,-1324.89C436.82,-1330.14 454.71,-1336.31 471,-1341 493.21,-1347.4 518.12,-1353.3 539.27,-1357.95"/>
<polygon fill="black" stroke="black" points="538.81,-1361.43 549.33,-1360.12 540.29,-1354.59 538.81,-1361.43"/>
</g>
<!-- preserveStashes -->
<g id="node55" class="node">
<title>preserveStashes</title>
<path fill="none" stroke="black" d="M631,-1332C631,-1332 548,-1332 548,-1332 542,-1332 536,-1326 536,-1320 536,-1320 536,-1308 536,-1308 536,-1302 542,-1296 548,-1296 548,-1296 631,-1296 631,-1296 637,-1296 643,-1302 643,-1308 643,-1308 643,-1320 643,-1320 643,-1326 637,-1332 631,-1332"/>
<text text-anchor="middle" x="589.5" y="-1310.3" font-family="Times New Roman,serif" font-size="14.00">preserveStashes</text>
</g>
<!-- options&#45;&gt;preserveStashes -->
<g id="edge54" class="edge">
<title>options&#45;&gt;preserveStashes</title>
<path fill="none" stroke="black" d="M422.27,-1314C449.37,-1314 490.87,-1314 525.63,-1314"/>
<polygon fill="black" stroke="black" points="525.7,-1317.5 535.7,-1314 525.7,-1310.5 525.7,-1317.5"/>
</g>
<!-- disableResume -->
<g id="node56" class="node">
<title>disableResume</title>
<path fill="none" stroke="black" d="M628,-1278C628,-1278 551,-1278 551,-1278 545,-1278 539,-1272 539,-1266 539,-1266 539,-1254 539,-1254 539,-1248 545,-1242 551,-1242 551,-1242 628,-1242 628,-1242 634,-1242 640,-1248 640,-1254 640,-1254 640,-1266 640,-1266 640,-1272 634,-1278 628,-1278"/>
<text text-anchor="middle" x="589.5" y="-1256.3" font-family="Times New Roman,serif" font-size="14.00">disableResume</text>
</g>
<!-- options&#45;&gt;disableResume -->
<g id="edge55" class="edge">
<title>options&#45;&gt;disableResume</title>
<path fill="none" stroke="black" d="M422.33,-1303.11C436.82,-1297.86 454.71,-1291.69 471,-1287 489.67,-1281.62 510.25,-1276.59 528.89,-1272.37"/>
<polygon fill="black" stroke="black" points="529.74,-1275.77 538.74,-1270.17 528.22,-1268.93 529.74,-1275.77"/>
</g>
<!-- timeout -->
<g id="node57" class="node">
<title>timeout</title>
<path fill="none" stroke="black" d="M606.5,-1224C606.5,-1224 572.5,-1224 572.5,-1224 566.5,-1224 560.5,-1218 560.5,-1212 560.5,-1212 560.5,-1200 560.5,-1200 560.5,-1194 566.5,-1188 572.5,-1188 572.5,-1188 606.5,-1188 606.5,-1188 612.5,-1188 618.5,-1194 618.5,-1200 618.5,-1200 618.5,-1212 618.5,-1212 618.5,-1218 612.5,-1224 606.5,-1224"/>
<text text-anchor="middle" x="589.5" y="-1202.3" font-family="Times New Roman,serif" font-size="14.00">timeout</text>
</g>
<!-- options&#45;&gt;timeout -->
<g id="edge56" class="edge">
<title>options&#45;&gt;timeout</title>
<path fill="none" stroke="black" d="M405.83,-1295.9C419.54,-1277.22 443.42,-1248.67 471,-1233 495.25,-1219.22 526.1,-1212.47 550.1,-1209.16"/>
<polygon fill="black" stroke="black" points="550.77,-1212.61 560.27,-1207.91 549.91,-1205.66 550.77,-1212.61"/>
</g>
<!-- string -->
<g id="node48" class="node">
<title>string</title>
<path fill="none" stroke="black" d="M604.5,-1170C604.5,-1170 574.5,-1170 574.5,-1170 568.5,-1170 562.5,-1164 562.5,-1158 562.5,-1158 562.5,-1146 562.5,-1146 562.5,-1140 568.5,-1134 574.5,-1134 574.5,-1134 604.5,-1134 604.5,-1134 610.5,-1134 616.5,-1140 616.5,-1146 616.5,-1146 616.5,-1158 616.5,-1158 616.5,-1164 610.5,-1170 604.5,-1170"/>
<text text-anchor="middle" x="589.5" y="-1148.3" font-family="Times New Roman,serif" font-size="14.00">string</text>
</g>
<!-- parameters&#45;&gt;string -->
<g id="edge47" class="edge">
<title>parameters&#45;&gt;string</title>
<path fill="none" stroke="black" d="M405.83,-1062.1C419.54,-1080.78 443.42,-1109.33 471,-1125 495.89,-1139.14 527.72,-1145.88 551.97,-1149.09"/>
<polygon fill="black" stroke="black" points="551.85,-1152.6 562.19,-1150.29 552.67,-1145.65 551.85,-1152.6"/>
</g>
<!-- text -->
<g id="node49" class="node">
<title>text</title>
<path fill="none" stroke="black" d="M604.5,-1116C604.5,-1116 574.5,-1116 574.5,-1116 568.5,-1116 562.5,-1110 562.5,-1104 562.5,-1104 562.5,-1092 562.5,-1092 562.5,-1086 568.5,-1080 574.5,-1080 574.5,-1080 604.5,-1080 604.5,-1080 610.5,-1080 616.5,-1086 616.5,-1092 616.5,-1092 616.5,-1104 616.5,-1104 616.5,-1110 610.5,-1116 604.5,-1116"/>
<text text-anchor="middle" x="589.5" y="-1094.3" font-family="Times New Roman,serif" font-size="14.00">text</text>
</g>
<!-- parameters&#45;&gt;text -->
<g id="edge48" class="edge">
<title>parameters&#45;&gt;text</title>
<path fill="none" stroke="black" d="M431.08,-1058.02C443.67,-1062.47 457.86,-1067.21 471,-1071 497.98,-1078.77 528.95,-1085.82 552.32,-1090.76"/>
<polygon fill="black" stroke="black" points="551.65,-1094.19 562.16,-1092.81 553.08,-1087.34 551.65,-1094.19"/>
</g>
<!-- choice -->
<g id="node50" class="node">
<title>choice</title>
<path fill="none" stroke="black" d="M604.5,-1062C604.5,-1062 574.5,-1062 574.5,-1062 568.5,-1062 562.5,-1056 562.5,-1050 562.5,-1050 562.5,-1038 562.5,-1038 562.5,-1032 568.5,-1026 574.5,-1026 574.5,-1026 604.5,-1026 604.5,-1026 610.5,-1026 616.5,-1032 616.5,-1038 616.5,-1038 616.5,-1050 616.5,-1050 616.5,-1056 610.5,-1062 604.5,-1062"/>
<text text-anchor="middle" x="589.5" y="-1040.3" font-family="Times New Roman,serif" font-size="14.00">choice</text>
</g>
<!-- parameters&#45;&gt;choice -->
<g id="edge49" class="edge">
<title>parameters&#45;&gt;choice</title>
<path fill="none" stroke="black" d="M431.1,-1044C466,-1044 517.63,-1044 552.13,-1044"/>
<polygon fill="black" stroke="black" points="552.25,-1047.5 562.25,-1044 552.25,-1040.5 552.25,-1047.5"/>
</g>
<!-- password -->
<g id="node51" class="node">
<title>password</title>
<path fill="none" stroke="black" d="M613,-1008C613,-1008 566,-1008 566,-1008 560,-1008 554,-1002 554,-996 554,-996 554,-984 554,-984 554,-978 560,-972 566,-972 566,-972 613,-972 613,-972 619,-972 625,-978 625,-984 625,-984 625,-996 625,-996 625,-1002 619,-1008 613,-1008"/>
<text text-anchor="middle" x="589.5" y="-986.3" font-family="Times New Roman,serif" font-size="14.00">password</text>
</g>
<!-- parameters&#45;&gt;password -->
<g id="edge50" class="edge">
<title>parameters&#45;&gt;password</title>
<path fill="none" stroke="black" d="M431.08,-1029.98C443.67,-1025.53 457.86,-1020.79 471,-1017 494.79,-1010.15 521.67,-1003.86 543.72,-999.08"/>
<polygon fill="black" stroke="black" points="544.75,-1002.44 553.8,-996.93 543.29,-995.6 544.75,-1002.44"/>
</g>
<!-- cron -->
<g id="node45" class="node">
<title>cron</title>
<path fill="none" stroke="black" d="M604.5,-954C604.5,-954 574.5,-954 574.5,-954 568.5,-954 562.5,-948 562.5,-942 562.5,-942 562.5,-930 562.5,-930 562.5,-924 568.5,-918 574.5,-918 574.5,-918 604.5,-918 604.5,-918 610.5,-918 616.5,-924 616.5,-930 616.5,-930 616.5,-942 616.5,-942 616.5,-948 610.5,-954 604.5,-954"/>
<text text-anchor="middle" x="589.5" y="-932.3" font-family="Times New Roman,serif" font-size="14.00">cron</text>
</g>
<!-- triggers&#45;&gt;cron -->
<g id="edge44" class="edge">
<title>triggers&#45;&gt;cron</title>
<path fill="none" stroke="black" d="M421.6,-892.62C436.21,-897.93 454.43,-904.23 471,-909 497.98,-916.77 528.95,-923.82 552.32,-928.76"/>
<polygon fill="black" stroke="black" points="551.65,-932.19 562.16,-930.81 553.08,-925.34 551.65,-932.19"/>
</g>
<!-- pollSCM -->
<g id="node46" class="node">
<title>pollSCM</title>
<path fill="none" stroke="black" d="M611.5,-900C611.5,-900 567.5,-900 567.5,-900 561.5,-900 555.5,-894 555.5,-888 555.5,-888 555.5,-876 555.5,-876 555.5,-870 561.5,-864 567.5,-864 567.5,-864 611.5,-864 611.5,-864 617.5,-864 623.5,-870 623.5,-876 623.5,-876 623.5,-888 623.5,-888 623.5,-894 617.5,-900 611.5,-900"/>
<text text-anchor="middle" x="589.5" y="-878.3" font-family="Times New Roman,serif" font-size="14.00">pollSCM</text>
</g>
<!-- triggers&#45;&gt;pollSCM -->
<g id="edge45" class="edge">
<title>triggers&#45;&gt;pollSCM</title>
<path fill="none" stroke="black" d="M421.85,-882C454.2,-882 507.46,-882 545.05,-882"/>
<polygon fill="black" stroke="black" points="545.21,-885.5 555.21,-882 545.21,-878.5 545.21,-885.5"/>
</g>
<!-- upstream -->
<g id="node47" class="node">
<title>upstream</title>
<path fill="none" stroke="black" d="M611.5,-846C611.5,-846 567.5,-846 567.5,-846 561.5,-846 555.5,-840 555.5,-834 555.5,-834 555.5,-822 555.5,-822 555.5,-816 561.5,-810 567.5,-810 567.5,-810 611.5,-810 611.5,-810 617.5,-810 623.5,-816 623.5,-822 623.5,-822 623.5,-834 623.5,-834 623.5,-840 617.5,-846 611.5,-846"/>
<text text-anchor="middle" x="589.5" y="-824.3" font-family="Times New Roman,serif" font-size="14.00">upstream</text>
</g>
<!-- triggers&#45;&gt;upstream -->
<g id="edge46" class="edge">
<title>triggers&#45;&gt;upstream</title>
<path fill="none" stroke="black" d="M421.6,-871.38C436.21,-866.07 454.43,-859.77 471,-855 495.42,-847.96 523.1,-841.53 545.46,-836.71"/>
<polygon fill="black" stroke="black" points="546.28,-840.11 555.33,-834.61 544.82,-833.27 546.28,-840.11"/>
</g>
<!-- message -->
<g id="node40" class="node">
<title>message</title>
<path fill="none" stroke="black" d="M609.5,-792C609.5,-792 569.5,-792 569.5,-792 563.5,-792 557.5,-786 557.5,-780 557.5,-780 557.5,-768 557.5,-768 557.5,-762 563.5,-756 569.5,-756 569.5,-756 609.5,-756 609.5,-756 615.5,-756 621.5,-762 621.5,-768 621.5,-768 621.5,-780 621.5,-780 621.5,-786 615.5,-792 609.5,-792"/>
<text text-anchor="middle" x="589.5" y="-770.3" font-family="Times New Roman,serif" font-size="14.00">message</text>
</g>
<!-- input&#45;&gt;message -->
<g id="edge39" class="edge">
<title>input&#45;&gt;message</title>
<path fill="none" stroke="black" d="M414.86,-711.26C429.71,-723.07 450.46,-737.9 471,-747 495.14,-757.7 524.03,-764.41 547.12,-768.47"/>
<polygon fill="black" stroke="black" points="546.85,-771.97 557.29,-770.15 547.99,-765.06 546.85,-771.97"/>
</g>
<!-- id -->
<g id="node41" class="node">
<title>id</title>
<path fill="none" stroke="black" d="M604.5,-738C604.5,-738 574.5,-738 574.5,-738 568.5,-738 562.5,-732 562.5,-726 562.5,-726 562.5,-714 562.5,-714 562.5,-708 568.5,-702 574.5,-702 574.5,-702 604.5,-702 604.5,-702 610.5,-702 616.5,-708 616.5,-714 616.5,-714 616.5,-726 616.5,-726 616.5,-732 610.5,-738 604.5,-738"/>
<text text-anchor="middle" x="589.5" y="-716.3" font-family="Times New Roman,serif" font-size="14.00">id</text>
</g>
<!-- input&#45;&gt;id -->
<g id="edge40" class="edge">
<title>input&#45;&gt;id</title>
<path fill="none" stroke="black" d="M419.8,-696.64C453.91,-701.36 513.6,-709.63 552.06,-714.95"/>
<polygon fill="black" stroke="black" points="551.92,-718.47 562.31,-716.37 552.88,-711.53 551.92,-718.47"/>
</g>
<!-- ok -->
<g id="node42" class="node">
<title>ok</title>
<path fill="none" stroke="black" d="M604.5,-684C604.5,-684 574.5,-684 574.5,-684 568.5,-684 562.5,-678 562.5,-672 562.5,-672 562.5,-660 562.5,-660 562.5,-654 568.5,-648 574.5,-648 574.5,-648 604.5,-648 604.5,-648 610.5,-648 616.5,-654 616.5,-660 616.5,-660 616.5,-672 616.5,-672 616.5,-678 610.5,-684 604.5,-684"/>
<text text-anchor="middle" x="589.5" y="-662.3" font-family="Times New Roman,serif" font-size="14.00">ok</text>
</g>
<!-- input&#45;&gt;ok -->
<g id="edge41" class="edge">
<title>input&#45;&gt;ok</title>
<path fill="none" stroke="black" d="M419.8,-689.36C453.91,-684.64 513.6,-676.37 552.06,-671.05"/>
<polygon fill="black" stroke="black" points="552.88,-674.47 562.31,-669.63 551.92,-667.53 552.88,-674.47"/>
</g>
<!-- submitter -->
<g id="node43" class="node">
<title>submitter</title>
<path fill="none" stroke="black" d="M611.5,-630C611.5,-630 567.5,-630 567.5,-630 561.5,-630 555.5,-624 555.5,-618 555.5,-618 555.5,-606 555.5,-606 555.5,-600 561.5,-594 567.5,-594 567.5,-594 611.5,-594 611.5,-594 617.5,-594 623.5,-600 623.5,-606 623.5,-606 623.5,-618 623.5,-618 623.5,-624 617.5,-630 611.5,-630"/>
<text text-anchor="middle" x="589.5" y="-608.3" font-family="Times New Roman,serif" font-size="14.00">submitter</text>
</g>
<!-- input&#45;&gt;submitter -->
<g id="edge42" class="edge">
<title>input&#45;&gt;submitter</title>
<path fill="none" stroke="black" d="M414.86,-674.74C429.71,-662.93 450.46,-648.1 471,-639 494.48,-628.59 522.45,-621.96 545.21,-617.87"/>
<polygon fill="black" stroke="black" points="545.98,-621.29 555.26,-616.17 544.82,-614.39 545.98,-621.29"/>
</g>
<!-- parameters{string{name,defaultValue}} -->
<g id="node44" class="node">
<title>parameters{string{name,defaultValue}}</title>
<path fill="none" stroke="black" d="M696,-576C696,-576 483,-576 483,-576 477,-576 471,-570 471,-564 471,-564 471,-552 471,-552 471,-546 477,-540 483,-540 483,-540 696,-540 696,-540 702,-540 708,-546 708,-552 708,-552 708,-564 708,-564 708,-570 702,-576 696,-576"/>
<text text-anchor="middle" x="589.5" y="-554.3" font-family="Times New Roman,serif" font-size="14.00">parameters{string{name,defaultValue}}</text>
</g>
<!-- input&#45;&gt;parameters{string{name,defaultValue}} -->
<g id="edge43" class="edge">
<title>input&#45;&gt;parameters{string{name,defaultValue}}</title>
<path fill="none" stroke="black" d="M401.37,-674.96C412.96,-650.59 436.99,-607.63 471,-585 473.29,-583.48 475.65,-582.04 478.08,-580.68"/>
<polygon fill="black" stroke="black" points="479.76,-583.75 487.1,-576.11 476.6,-577.51 479.76,-583.75"/>
</g>
<!-- branch -->
<g id="node32" class="node">
<title>branch</title>
<path fill="none" stroke="black" d="M605,-522C605,-522 574,-522 574,-522 568,-522 562,-516 562,-510 562,-510 562,-498 562,-498 562,-492 568,-486 574,-486 574,-486 605,-486 605,-486 611,-486 617,-492 617,-498 617,-498 617,-510 617,-510 617,-516 611,-522 605,-522"/>
<text text-anchor="middle" x="589.5" y="-500.3" font-family="Times New Roman,serif" font-size="14.00">branch</text>
</g>
<!-- when&#45;&gt;branch -->
<g id="edge31" class="edge">
<title>when&#45;&gt;branch</title>
<path fill="none" stroke="black" d="M401.37,-387.04C412.96,-411.41 436.99,-454.37 471,-477 494.94,-492.93 527.02,-499.54 551.61,-502.24"/>
<polygon fill="black" stroke="black" points="551.37,-505.73 561.65,-503.18 552.02,-498.76 551.37,-505.73"/>
</g>
<!-- changeset -->
<g id="node33" class="node">
<title>changeset</title>
<path fill="none" stroke="black" d="M613,-468C613,-468 566,-468 566,-468 560,-468 554,-462 554,-456 554,-456 554,-444 554,-444 554,-438 560,-432 566,-432 566,-432 613,-432 613,-432 619,-432 625,-438 625,-444 625,-444 625,-456 625,-456 625,-462 619,-468 613,-468"/>
<text text-anchor="middle" x="589.5" y="-446.3" font-family="Times New Roman,serif" font-size="14.00">changeset</text>
</g>
<!-- when&#45;&gt;changeset -->
<g id="edge32" class="edge">
<title>when&#45;&gt;changeset</title>
<path fill="none" stroke="black" d="M414.86,-387.26C429.71,-399.07 450.46,-413.9 471,-423 494.07,-433.22 521.46,-439.81 543.99,-443.91"/>
<polygon fill="black" stroke="black" points="543.52,-447.38 553.97,-445.62 544.71,-440.48 543.52,-447.38"/>
</g>
<!-- environment{name,value} -->
<g id="node34" class="node">
<title>environment{name,value}</title>
<path fill="none" stroke="black" d="M657.5,-414C657.5,-414 521.5,-414 521.5,-414 515.5,-414 509.5,-408 509.5,-402 509.5,-402 509.5,-390 509.5,-390 509.5,-384 515.5,-378 521.5,-378 521.5,-378 657.5,-378 657.5,-378 663.5,-378 669.5,-384 669.5,-390 669.5,-390 669.5,-402 669.5,-402 669.5,-408 663.5,-414 657.5,-414"/>
<text text-anchor="middle" x="589.5" y="-392.3" font-family="Times New Roman,serif" font-size="14.00">environment{name,value}</text>
</g>
<!-- when&#45;&gt;environment{name,value} -->
<g id="edge33" class="edge">
<title>when&#45;&gt;environment{name,value}</title>
<path fill="none" stroke="black" d="M419.8,-372.64C440.35,-375.49 470.18,-379.62 499.06,-383.62"/>
<polygon fill="black" stroke="black" points="498.84,-387.12 509.22,-385.02 499.8,-380.18 498.84,-387.12"/>
</g>
<!-- equals -->
<g id="node35" class="node">
<title>equals</title>
<path fill="none" stroke="black" d="M604.5,-360C604.5,-360 574.5,-360 574.5,-360 568.5,-360 562.5,-354 562.5,-348 562.5,-348 562.5,-336 562.5,-336 562.5,-330 568.5,-324 574.5,-324 574.5,-324 604.5,-324 604.5,-324 610.5,-324 616.5,-330 616.5,-336 616.5,-336 616.5,-348 616.5,-348 616.5,-354 610.5,-360 604.5,-360"/>
<text text-anchor="middle" x="589.5" y="-338.3" font-family="Times New Roman,serif" font-size="14.00">equals</text>
</g>
<!-- when&#45;&gt;equals -->
<g id="edge34" class="edge">
<title>when&#45;&gt;equals</title>
<path fill="none" stroke="black" d="M419.8,-365.36C453.91,-360.64 513.6,-352.37 552.06,-347.05"/>
<polygon fill="black" stroke="black" points="552.88,-350.47 562.31,-345.63 551.92,-343.53 552.88,-350.47"/>
</g>
<!-- not -->
<g id="node36" class="node">
<title>not</title>
<path fill="none" stroke="black" d="M604.5,-306C604.5,-306 574.5,-306 574.5,-306 568.5,-306 562.5,-300 562.5,-294 562.5,-294 562.5,-282 562.5,-282 562.5,-276 568.5,-270 574.5,-270 574.5,-270 604.5,-270 604.5,-270 610.5,-270 616.5,-276 616.5,-282 616.5,-282 616.5,-294 616.5,-294 616.5,-300 610.5,-306 604.5,-306"/>
<text text-anchor="middle" x="589.5" y="-284.3" font-family="Times New Roman,serif" font-size="14.00">not</text>
</g>
<!-- when&#45;&gt;not -->
<g id="edge35" class="edge">
<title>when&#45;&gt;not</title>
<path fill="none" stroke="black" d="M419.58,-352.41C424.73,-349.03 430.07,-345.45 435,-342 451.39,-330.54 452.86,-323.42 471,-315 496.8,-303.02 528.32,-296.15 552.21,-292.34"/>
<polygon fill="black" stroke="black" points="552.9,-295.78 562.28,-290.85 551.87,-288.86 552.9,-295.78"/>
</g>
<!-- allOf -->
<g id="node37" class="node">
<title>allOf</title>
<path fill="none" stroke="black" d="M604.5,-252C604.5,-252 574.5,-252 574.5,-252 568.5,-252 562.5,-246 562.5,-240 562.5,-240 562.5,-228 562.5,-228 562.5,-222 568.5,-216 574.5,-216 574.5,-216 604.5,-216 604.5,-216 610.5,-216 616.5,-222 616.5,-228 616.5,-228 616.5,-240 616.5,-240 616.5,-246 610.5,-252 604.5,-252"/>
<text text-anchor="middle" x="589.5" y="-230.3" font-family="Times New Roman,serif" font-size="14.00">allOf</text>
</g>
<!-- when&#45;&gt;allOf -->
<g id="edge36" class="edge">
<title>when&#45;&gt;allOf</title>
<path fill="none" stroke="black" d="M419.91,-355.1C425.38,-351.37 430.76,-346.97 435,-342 460.56,-312.02 440.6,-286.05 471,-261 493.61,-242.37 526.64,-236.04 551.92,-234.13"/>
<polygon fill="black" stroke="black" points="552.43,-237.61 562.23,-233.56 552.05,-230.62 552.43,-237.61"/>
</g>
<!-- anyOf -->
<g id="node38" class="node">
<title>anyOf</title>
<path fill="none" stroke="black" d="M604.5,-198C604.5,-198 574.5,-198 574.5,-198 568.5,-198 562.5,-192 562.5,-186 562.5,-186 562.5,-174 562.5,-174 562.5,-168 568.5,-162 574.5,-162 574.5,-162 604.5,-162 604.5,-162 610.5,-162 616.5,-168 616.5,-174 616.5,-174 616.5,-186 616.5,-186 616.5,-192 610.5,-198 604.5,-198"/>
<text text-anchor="middle" x="589.5" y="-176.3" font-family="Times New Roman,serif" font-size="14.00">anyOf</text>
</g>
<!-- when&#45;&gt;anyOf -->
<g id="edge37" class="edge">
<title>when&#45;&gt;anyOf</title>
<path fill="none" stroke="black" d="M419.65,-356.16C425.4,-352.29 430.96,-347.57 435,-342 471.45,-291.73 426.34,-250.14 471,-207 492.44,-186.3 526.37,-180.27 552.28,-179"/>
<polygon fill="black" stroke="black" points="552.57,-182.49 562.47,-178.72 552.38,-175.5 552.57,-182.49"/>
</g>
<!-- triggeredBy -->
<g id="node39" class="node">
<title>triggeredBy</title>
<path fill="none" stroke="black" d="M618,-144C618,-144 561,-144 561,-144 555,-144 549,-138 549,-132 549,-132 549,-120 549,-120 549,-114 555,-108 561,-108 561,-108 618,-108 618,-108 624,-108 630,-114 630,-120 630,-120 630,-132 630,-132 630,-138 624,-144 618,-144"/>
<text text-anchor="middle" x="589.5" y="-122.3" font-family="Times New Roman,serif" font-size="14.00">triggeredBy</text>
</g>
<!-- when&#45;&gt;triggeredBy -->
<g id="edge38" class="edge">
<title>when&#45;&gt;triggeredBy</title>
<path fill="none" stroke="black" d="M419.51,-356.65C425.4,-352.73 431.07,-347.85 435,-342 482.65,-271 411.68,-214.59 471,-153 488.33,-135.01 515.03,-127.92 538.61,-125.49"/>
<polygon fill="black" stroke="black" points="539.13,-128.96 548.83,-124.69 538.59,-121.98 539.13,-128.96"/>
</g>
<!-- timeout(time, unit) -->
<g id="node58" class="node">
<title>timeout(time, unit)</title>
<path fill="none" stroke="black" d="M850,-1224C850,-1224 756,-1224 756,-1224 750,-1224 744,-1218 744,-1212 744,-1212 744,-1200 744,-1200 744,-1194 750,-1188 756,-1188 756,-1188 850,-1188 850,-1188 856,-1188 862,-1194 862,-1200 862,-1200 862,-1212 862,-1212 862,-1218 856,-1224 850,-1224"/>
<text text-anchor="middle" x="803" y="-1202.3" font-family="Times New Roman,serif" font-size="14.00">timeout(time, unit)</text>
</g>
<!-- timeout&#45;&gt;timeout(time, unit) -->
<g id="edge57" class="edge">
<title>timeout&#45;&gt;timeout(time, unit)</title>
<path fill="none" stroke="black" d="M618.59,-1206C647.78,-1206 694.56,-1206 733.58,-1206"/>
<polygon fill="black" stroke="black" points="733.83,-1209.5 743.83,-1206 733.83,-1202.5 733.83,-1209.5"/>
</g>
<!-- CC = &#39;clang&#39; -->
<g id="node60" class="node">
<title>CC = &#39;clang&#39;</title>
<path fill="none" stroke="black" d="M621,-90C621,-90 558,-90 558,-90 552,-90 546,-84 546,-78 546,-78 546,-66 546,-66 546,-60 552,-54 558,-54 558,-54 621,-54 621,-54 627,-54 633,-60 633,-66 633,-66 633,-78 633,-78 633,-84 627,-90 621,-90"/>
<text text-anchor="middle" x="589.5" y="-68.3" font-family="Times New Roman,serif" font-size="14.00">CC = &#39;clang&#39;</text>
</g>
<!-- environment&#45;&gt;CC = &#39;clang&#39; -->
<g id="edge59" class="edge">
<title>environment&#45;&gt;CC = &#39;clang&#39;</title>
<path fill="none" stroke="#0000ff" d="M427.01,-296.93C430.05,-294.26 432.8,-291.28 435,-288 482.65,-217 411.68,-160.59 471,-99 487.69,-81.66 513.1,-74.45 536.02,-71.77"/>
<polygon fill="#0000ff" stroke="#0000ff" points="536.35,-75.26 545.99,-70.86 535.72,-68.28 536.35,-75.26"/>
</g>
<!-- axes -->
<g id="node64" class="node">
<title>axes</title>
<path fill="none" stroke="black" d="M407.5,-279C407.5,-279 377.5,-279 377.5,-279 371.5,-279 365.5,-273 365.5,-267 365.5,-267 365.5,-255 365.5,-255 365.5,-249 371.5,-243 377.5,-243 377.5,-243 407.5,-243 407.5,-243 413.5,-243 419.5,-249 419.5,-255 419.5,-255 419.5,-267 419.5,-267 419.5,-273 413.5,-279 407.5,-279"/>
<text text-anchor="middle" x="392.5" y="-257.3" font-family="Times New Roman,serif" font-size="14.00">axes</text>
</g>
<!-- Matrix&#45;&gt;axes -->
<g id="edge63" class="edge">
<title>Matrix&#45;&gt;axes</title>
<path fill="none" stroke="#ea4f16" d="M278.61,-471.39C291.05,-467.42 305.12,-460.81 314,-450 360.83,-393.02 307.97,-348.61 350,-288 351.96,-285.17 354.32,-282.57 356.91,-280.19"/>
<polygon fill="#ea4f16" stroke="#ea4f16" points="359.46,-282.64 365.18,-273.73 355.15,-277.13 359.46,-282.64"/>
</g>
<!-- excludes -->
<g id="node65" class="node">
<title>excludes</title>
<path fill="none" stroke="black" d="M413,-225C413,-225 372,-225 372,-225 366,-225 360,-219 360,-213 360,-213 360,-201 360,-201 360,-195 366,-189 372,-189 372,-189 413,-189 413,-189 419,-189 425,-195 425,-201 425,-201 425,-213 425,-213 425,-219 419,-225 413,-225"/>
<text text-anchor="middle" x="392.5" y="-203.3" font-family="Times New Roman,serif" font-size="14.00">excludes</text>
</g>
<!-- Matrix&#45;&gt;excludes -->
<g id="edge64" class="edge">
<title>Matrix&#45;&gt;excludes</title>
<path fill="none" stroke="#ea4f16" d="M278.54,-471.68C291.12,-467.78 305.34,-461.14 314,-450 373.76,-373.18 296.7,-315.43 350,-234 350.82,-232.74 351.73,-231.53 352.7,-230.36"/>
<polygon fill="#ea4f16" stroke="#ea4f16" points="355.21,-232.81 359.92,-223.31 350.32,-227.8 355.21,-232.81"/>
</g>
<!-- axis {name,value} -->
<g id="node66" class="node">
<title>axis {name,value}</title>
<path fill="none" stroke="black" d="M636,-36C636,-36 543,-36 543,-36 537,-36 531,-30 531,-24 531,-24 531,-12 531,-12 531,-6 537,0 543,0 543,0 636,0 636,0 642,0 648,-6 648,-12 648,-12 648,-24 648,-24 648,-30 642,-36 636,-36"/>
<text text-anchor="middle" x="589.5" y="-14.3" font-family="Times New Roman,serif" font-size="14.00">axis {name,value}</text>
</g>
<!-- axes&#45;&gt;axis {name,value} -->
<g id="edge65" class="edge">
<title>axes&#45;&gt;axis {name,value}</title>
<path fill="none" stroke="#ea4f16" d="M419.51,-248.65C425.4,-244.73 431.07,-239.85 435,-234 482.65,-163 411.68,-106.59 471,-45 484.11,-31.39 502.58,-24.02 521.01,-20.18"/>
<polygon fill="#ea4f16" stroke="#ea4f16" points="521.67,-23.62 530.91,-18.44 520.45,-16.73 521.67,-23.62"/>
</g>
</g>
</svg>
