<?xml version="1.0" encoding="UTF-8" standalone="no"?>
<!DOCTYPE svg PUBLIC "-//W3C//DTD SVG 1.1//EN"
 "http://www.w3.org/Graphics/SVG/1.1/DTD/svg11.dtd">
<!-- Generated by graphviz version 3.0.0 (20220226.1711)
 -->
<!-- Pages: 1 -->
<svg width="606pt" height="422pt"
 viewBox="0.00 0.00 606.00 422.00" xmlns="http://www.w3.org/2000/svg" xmlns:xlink="http://www.w3.org/1999/xlink">
<g id="graph0" class="graph" transform="scale(1 1) rotate(0) translate(4 418)">
<polygon fill="white" stroke="transparent" points="-4,4 -4,-418 602,-418 602,4 -4,4"/>
<!-- Jenkins -->
<g id="node1" class="node">
<title>Jenkins</title>
<path fill="none" stroke="black" d="M45,-252C45,-252 12,-252 12,-252 6,-252 0,-246 0,-240 0,-240 0,-228 0,-228 0,-222 6,-216 12,-216 12,-216 45,-216 45,-216 51,-216 57,-222 57,-228 57,-228 57,-240 57,-240 57,-246 51,-252 45,-252"/>
<text text-anchor="middle" x="28.5" y="-230.3" font-family="Times New Roman,serif" font-size="14.00">Jenkins</text>
</g>
<!-- Pipeline -->
<g id="node2" class="node">
<title>Pipeline</title>
<path fill="none" stroke="black" d="M141,-252C141,-252 105,-252 105,-252 99,-252 93,-246 93,-240 93,-240 93,-228 93,-228 93,-222 99,-216 105,-216 105,-216 141,-216 141,-216 147,-216 153,-222 153,-228 153,-228 153,-240 153,-240 153,-246 147,-252 141,-252"/>
<text text-anchor="middle" x="123" y="-230.3" font-family="Times New Roman,serif" font-size="14.00">Pipeline</text>
</g>
<!-- Jenkins&#45;&gt;Pipeline -->
<g id="edge1" class="edge">
<title>Jenkins&#45;&gt;Pipeline</title>
<path fill="none" stroke="black" d="M57,-234C65.03,-234 73.96,-234 82.57,-234"/>
<polygon fill="black" stroke="black" points="82.83,-237.5 92.83,-234 82.83,-230.5 82.83,-237.5"/>
</g>
<!-- agent -->
<g id="node3" class="node">
<title>agent</title>
<path fill="none" stroke="black" d="M231,-346C231,-346 201,-346 201,-346 195,-346 189,-340 189,-334 189,-334 189,-322 189,-322 189,-316 195,-310 201,-310 201,-310 231,-310 231,-310 237,-310 243,-316 243,-322 243,-322 243,-334 243,-334 243,-340 237,-346 231,-346"/>
<text text-anchor="middle" x="216" y="-324.3" font-family="Times New Roman,serif" font-size="14.00">agent</text>
</g>
<!-- Pipeline&#45;&gt;agent -->
<g id="edge2" class="edge">
<title>Pipeline&#45;&gt;agent</title>
<path fill="none" stroke="black" d="M141.55,-252.12C155.39,-266.43 174.88,-286.56 190.31,-302.49"/>
<polygon fill="black" stroke="black" points="188.04,-305.18 197.51,-309.93 193.07,-300.31 188.04,-305.18"/>
</g>
<!-- script -->
<g id="node5" class="node">
<title>script</title>
<path fill="none" stroke="black" d="M231,-225C231,-225 201,-225 201,-225 195,-225 189,-219 189,-213 189,-213 189,-201 189,-201 189,-195 195,-189 201,-189 201,-189 231,-189 231,-189 237,-189 243,-195 243,-201 243,-201 243,-213 243,-213 243,-219 237,-225 231,-225"/>
<text text-anchor="middle" x="216" y="-203.3" font-family="Times New Roman,serif" font-size="14.00">script</text>
</g>
<!-- Pipeline&#45;&gt;script -->
<g id="edge4" class="edge">
<title>Pipeline&#45;&gt;script</title>
<path fill="none" stroke="black" d="M153.04,-225.38C161.27,-222.94 170.32,-220.26 178.91,-217.71"/>
<polygon fill="black" stroke="black" points="180.1,-221 188.7,-214.8 178.11,-214.29 180.1,-221"/>
</g>
<!-- node/any -->
<g id="node4" class="node">
<title>node/any</title>
<path fill="none" stroke="black" d="M460.5,-414C460.5,-414 416.5,-414 416.5,-414 410.5,-414 404.5,-408 404.5,-402 404.5,-402 404.5,-390 404.5,-390 404.5,-384 410.5,-378 416.5,-378 416.5,-378 460.5,-378 460.5,-378 466.5,-378 472.5,-384 472.5,-390 472.5,-390 472.5,-402 472.5,-402 472.5,-408 466.5,-414 460.5,-414"/>
<text text-anchor="middle" x="438.5" y="-392.3" font-family="Times New Roman,serif" font-size="14.00">node/any</text>
</g>
<!-- agent&#45;&gt;node/any -->
<g id="edge3" class="edge">
<title>agent&#45;&gt;node/any</title>
<path fill="none" stroke="black" d="M239.28,-346.02C250.56,-354.25 264.84,-363.4 279,-369 316.24,-383.72 361.53,-390.43 394.14,-393.47"/>
<polygon fill="black" stroke="black" points="393.99,-396.97 404.25,-394.34 394.59,-390 393.99,-396.97"/>
</g>
<!-- catchError / try catch / warnError -->
<g id="node6" class="node">
<title>catchError / try catch / warnError</title>
<path fill="none" stroke="black" d="M528,-360C528,-360 349,-360 349,-360 343,-360 337,-354 337,-348 337,-348 337,-336 337,-336 337,-330 343,-324 349,-324 349,-324 528,-324 528,-324 534,-324 540,-330 540,-336 540,-336 540,-348 540,-348 540,-354 534,-360 528,-360"/>
<text text-anchor="middle" x="438.5" y="-338.3" font-family="Times New Roman,serif" font-size="14.00">catchError / try catch / warnError</text>
</g>
<!-- script&#45;&gt;catchError / try catch / warnError -->
<g id="edge5" class="edge">
<title>script&#45;&gt;catchError / try catch / warnError</title>
<path fill="none" stroke="black" d="M222.1,-225.25C229.99,-249.86 247.62,-293.1 279,-315 293.16,-324.88 309.73,-331.56 326.72,-336.01"/>
<polygon fill="black" stroke="black" points="326.22,-339.49 336.76,-338.39 327.83,-332.68 326.22,-339.49"/>
</g>
<!-- deleteDir / dir / fileExists / readFile / writeFile / archive -->
<g id="node7" class="node">
<title>deleteDir / dir / fileExists / readFile / writeFile / archive</title>
<path fill="none" stroke="black" d="M586,-306C586,-306 291,-306 291,-306 285,-306 279,-300 279,-294 279,-294 279,-282 279,-282 279,-276 285,-270 291,-270 291,-270 586,-270 586,-270 592,-270 598,-276 598,-282 598,-282 598,-294 598,-294 598,-300 592,-306 586,-306"/>
<text text-anchor="middle" x="438.5" y="-284.3" font-family="Times New Roman,serif" font-size="14.00">deleteDir / dir / fileExists / readFile / writeFile / archive</text>
</g>
<!-- script&#45;&gt;deleteDir / dir / fileExists / readFile / writeFile / archive -->
<g id="edge6" class="edge">
<title>script&#45;&gt;deleteDir / dir / fileExists / readFile / writeFile / archive</title>
<path fill="none" stroke="black" d="M232.78,-225.2C244.33,-237.31 261.07,-252.5 279,-261 283.08,-262.94 287.28,-264.73 291.57,-266.41"/>
<polygon fill="black" stroke="black" points="290.49,-269.74 301.08,-269.86 292.88,-263.16 290.49,-269.74"/>
</g>
<!-- echo / error / isUnix / mail / pwd -->
<g id="node8" class="node">
<title>echo / error / isUnix / mail / pwd</title>
<path fill="none" stroke="black" d="M525.5,-252C525.5,-252 351.5,-252 351.5,-252 345.5,-252 339.5,-246 339.5,-240 339.5,-240 339.5,-228 339.5,-228 339.5,-222 345.5,-216 351.5,-216 351.5,-216 525.5,-216 525.5,-216 531.5,-216 537.5,-222 537.5,-228 537.5,-228 537.5,-240 537.5,-240 537.5,-246 531.5,-252 525.5,-252"/>
<text text-anchor="middle" x="438.5" y="-230.3" font-family="Times New Roman,serif" font-size="14.00">echo / error / isUnix / mail / pwd</text>
</g>
<!-- script&#45;&gt;echo / error / isUnix / mail / pwd -->
<g id="edge7" class="edge">
<title>script&#45;&gt;echo / error / isUnix / mail / pwd</title>
<path fill="none" stroke="black" d="M243.16,-210.2C264.87,-212.86 297.29,-216.83 329.46,-220.77"/>
<polygon fill="black" stroke="black" points="329.07,-224.25 339.43,-221.99 329.93,-217.3 329.07,-224.25"/>
</g>
<!-- retry / sleep / &#160;/ waitUntil -->
<g id="node9" class="node">
<title>retry / sleep / &#160;/ waitUntil</title>
<path fill="none" stroke="black" d="M503,-198C503,-198 374,-198 374,-198 368,-198 362,-192 362,-186 362,-186 362,-174 362,-174 362,-168 368,-162 374,-162 374,-162 503,-162 503,-162 509,-162 515,-168 515,-174 515,-174 515,-186 515,-186 515,-192 509,-198 503,-198"/>
<text text-anchor="middle" x="438.5" y="-176.3" font-family="Times New Roman,serif" font-size="14.00">retry / sleep / &#160;/ waitUntil</text>
</g>
<!-- script&#45;&gt;retry / sleep / &#160;/ waitUntil -->
<g id="edge8" class="edge">
<title>script&#45;&gt;retry / sleep / &#160;/ waitUntil</title>
<path fill="none" stroke="black" d="M243.16,-203.8C269.86,-200.53 312.77,-195.27 351.49,-190.53"/>
<polygon fill="black" stroke="black" points="352.25,-193.97 361.75,-189.28 351.4,-187.02 352.25,-193.97"/>
</g>
<!-- timeout / tool / getContext / withContext -->
<g id="node10" class="node">
<title>timeout / tool / getContext / withContext</title>
<path fill="none" stroke="black" d="M547.5,-144C547.5,-144 329.5,-144 329.5,-144 323.5,-144 317.5,-138 317.5,-132 317.5,-132 317.5,-120 317.5,-120 317.5,-114 323.5,-108 329.5,-108 329.5,-108 547.5,-108 547.5,-108 553.5,-108 559.5,-114 559.5,-120 559.5,-120 559.5,-132 559.5,-132 559.5,-138 553.5,-144 547.5,-144"/>
<text text-anchor="middle" x="438.5" y="-122.3" font-family="Times New Roman,serif" font-size="14.00">timeout / tool / getContext / withContext</text>
</g>
<!-- script&#45;&gt;timeout / tool / getContext / withContext -->
<g id="edge9" class="edge">
<title>script&#45;&gt;timeout / tool / getContext / withContext</title>
<path fill="none" stroke="black" d="M232.78,-188.8C244.33,-176.69 261.07,-161.5 279,-153 287.99,-148.74 297.54,-145.14 307.33,-142.11"/>
<polygon fill="black" stroke="black" points="308.56,-145.4 317.19,-139.25 306.61,-138.67 308.56,-145.4"/>
</g>
<!-- unstable / stash / unstash / withEnv -->
<g id="node11" class="node">
<title>unstable / stash / unstash / withEnv</title>
<path fill="none" stroke="black" d="M532.5,-90C532.5,-90 344.5,-90 344.5,-90 338.5,-90 332.5,-84 332.5,-78 332.5,-78 332.5,-66 332.5,-66 332.5,-60 338.5,-54 344.5,-54 344.5,-54 532.5,-54 532.5,-54 538.5,-54 544.5,-60 544.5,-66 544.5,-66 544.5,-78 544.5,-78 544.5,-84 538.5,-90 532.5,-90"/>
<text text-anchor="middle" x="438.5" y="-68.3" font-family="Times New Roman,serif" font-size="14.00">unstable / stash / unstash / withEnv</text>
</g>
<!-- script&#45;&gt;unstable / stash / unstash / withEnv -->
<g id="edge10" class="edge">
<title>script&#45;&gt;unstable / stash / unstash / withEnv</title>
<path fill="none" stroke="black" d="M222.1,-188.75C229.99,-164.14 247.62,-120.9 279,-99 291.99,-89.94 307,-83.57 322.5,-79.14"/>
<polygon fill="black" stroke="black" points="323.4,-82.52 332.21,-76.63 321.65,-75.75 323.4,-82.52"/>
</g>
<!-- wrap -->
<g id="node12" class="node">
<title>wrap</title>
<path fill="none" stroke="black" d="M453.5,-36C453.5,-36 423.5,-36 423.5,-36 417.5,-36 411.5,-30 411.5,-24 411.5,-24 411.5,-12 411.5,-12 411.5,-6 417.5,0 423.5,0 423.5,0 453.5,0 453.5,0 459.5,0 465.5,-6 465.5,-12 465.5,-12 465.5,-24 465.5,-24 465.5,-30 459.5,-36 453.5,-36"/>
<text text-anchor="middle" x="438.5" y="-14.3" font-family="Times New Roman,serif" font-size="14.00">wrap</text>
</g>
<!-- script&#45;&gt;wrap -->
<g id="edge11" class="edge">
<title>script&#45;&gt;wrap</title>
<path fill="none" stroke="black" d="M218.28,-188.83C221.71,-154.84 234.18,-81.77 279,-45 313.23,-16.92 365.88,-13.27 400.99,-14.56"/>
<polygon fill="black" stroke="black" points="401.11,-18.07 411.28,-15.09 401.48,-11.08 401.11,-18.07"/>
</g>
</g>
</svg>
