<?xml version="1.0" encoding="UTF-8" standalone="no"?>
<!DOCTYPE svg PUBLIC "-//W3C//DTD SVG 1.1//EN"
 "http://www.w3.org/Graphics/SVG/1.1/DTD/svg11.dtd">
<!-- Generated by graphviz version 2.50.0 (0)
 -->
<!-- Pages: 1 -->
<svg width="615pt" height="530pt"
 viewBox="0.00 0.00 615.00 530.00" xmlns="http://www.w3.org/2000/svg" xmlns:xlink="http://www.w3.org/1999/xlink">
<g id="graph0" class="graph" transform="scale(1 1) rotate(0) translate(4 526)">
<polygon fill="white" stroke="transparent" points="-4,4 -4,-526 611,-526 611,4 -4,4"/>
<!-- Jenkins -->
<g id="node1" class="node">
<title>Jenkins</title>
<path fill="none" stroke="black" d="M45,-117C45,-117 12,-117 12,-117 6,-117 0,-111 0,-105 0,-105 0,-93 0,-93 0,-87 6,-81 12,-81 12,-81 45,-81 45,-81 51,-81 57,-87 57,-93 57,-93 57,-105 57,-105 57,-111 51,-117 45,-117"/>
<text text-anchor="middle" x="28.5" y="-95.3" font-family="Times New Roman,serif" font-size="14.00">Jenkins</text>
</g>
<!-- node -->
<g id="node2" class="node">
<title>node</title>
<path fill="none" stroke="black" d="M269,-144C269,-144 239,-144 239,-144 233,-144 227,-138 227,-132 227,-132 227,-120 227,-120 227,-114 233,-108 239,-108 239,-108 269,-108 269,-108 275,-108 281,-114 281,-120 281,-120 281,-132 281,-132 281,-138 275,-144 269,-144"/>
<text text-anchor="middle" x="254" y="-122.3" font-family="Times New Roman,serif" font-size="14.00">node</text>
</g>
<!-- Jenkins&#45;&gt;node -->
<g id="edge1" class="edge">
<title>Jenkins&#45;&gt;node</title>
<path fill="none" stroke="black" d="M57.35,-102.36C97.65,-107.23 172.26,-116.25 216.78,-121.62"/>
<polygon fill="black" stroke="black" points="216.53,-125.12 226.88,-122.84 217.37,-118.17 216.53,-125.12"/>
</g>
<!-- Pipeline -->
<g id="node5" class="node">
<title>Pipeline</title>
<path fill="none" stroke="black" d="M272.5,-90C272.5,-90 235.5,-90 235.5,-90 229.5,-90 223.5,-84 223.5,-78 223.5,-78 223.5,-66 223.5,-66 223.5,-60 229.5,-54 235.5,-54 235.5,-54 272.5,-54 272.5,-54 278.5,-54 284.5,-60 284.5,-66 284.5,-66 284.5,-78 284.5,-78 284.5,-84 278.5,-90 272.5,-90"/>
<text text-anchor="middle" x="254" y="-68.3" font-family="Times New Roman,serif" font-size="14.00">Pipeline</text>
</g>
<!-- Jenkins&#45;&gt;Pipeline -->
<g id="edge6" class="edge">
<title>Jenkins&#45;&gt;Pipeline</title>
<path fill="none" stroke="black" d="M57.35,-95.64C96.65,-90.89 168.57,-82.2 213.41,-76.78"/>
<polygon fill="black" stroke="black" points="213.86,-80.25 223.37,-75.58 213.02,-73.3 213.86,-80.25"/>
</g>
<!-- stages -->
<g id="node3" class="node">
<title>stages</title>
<path fill="none" stroke="black" d="M493,-90C493,-90 463,-90 463,-90 457,-90 451,-84 451,-78 451,-78 451,-66 451,-66 451,-60 457,-54 463,-54 463,-54 493,-54 493,-54 499,-54 505,-60 505,-66 505,-66 505,-78 505,-78 505,-84 499,-90 493,-90"/>
<text text-anchor="middle" x="478" y="-68.3" font-family="Times New Roman,serif" font-size="14.00">stages</text>
</g>
<!-- node&#45;&gt;stages -->
<g id="edge2" class="edge">
<title>node&#45;&gt;stages</title>
<path fill="none" stroke="black" d="M281.21,-123.56C313.27,-120.12 368.96,-112.69 415,-99 423.83,-96.37 433.07,-92.82 441.64,-89.16"/>
<polygon fill="black" stroke="black" points="443.26,-92.27 450.98,-85.02 440.42,-85.87 443.26,-92.27"/>
</g>
<!-- steps -->
<g id="node4" class="node">
<title>steps</title>
<path fill="none" stroke="black" d="M493,-144C493,-144 463,-144 463,-144 457,-144 451,-138 451,-132 451,-132 451,-120 451,-120 451,-114 457,-108 463,-108 463,-108 493,-108 493,-108 499,-108 505,-114 505,-120 505,-120 505,-132 505,-132 505,-138 499,-144 493,-144"/>
<text text-anchor="middle" x="478" y="-122.3" font-family="Times New Roman,serif" font-size="14.00">steps</text>
</g>
<!-- node&#45;&gt;steps -->
<g id="edge3" class="edge">
<title>node&#45;&gt;steps</title>
<path fill="none" stroke="black" d="M281.34,-126C320.89,-126 395.76,-126 440.54,-126"/>
<polygon fill="black" stroke="black" points="440.7,-129.5 450.7,-126 440.7,-122.5 440.7,-129.5"/>
</g>
<!-- Pipeline&#45;&gt;stages -->
<g id="edge4" class="edge">
<title>Pipeline&#45;&gt;stages</title>
<path fill="none" stroke="black" d="M284.94,-72C325.39,-72 397.44,-72 440.86,-72"/>
<polygon fill="black" stroke="black" points="440.98,-75.5 450.98,-72 440.98,-68.5 440.98,-75.5"/>
</g>
<!-- Pipeline&#45;&gt;steps -->
<g id="edge5" class="edge">
<title>Pipeline&#45;&gt;steps</title>
<path fill="none" stroke="black" d="M284.68,-74.82C317.18,-78.41 370.58,-85.8 415,-99 423.83,-101.63 433.07,-105.18 441.64,-108.84"/>
<polygon fill="black" stroke="black" points="440.42,-112.13 450.98,-112.98 443.26,-105.73 440.42,-112.13"/>
</g>
<!-- agent -->
<g id="node6" class="node">
<title>agent</title>
<path fill="none" stroke="black" d="M493,-36C493,-36 463,-36 463,-36 457,-36 451,-30 451,-24 451,-24 451,-12 451,-12 451,-6 457,0 463,0 463,0 493,0 493,0 499,0 505,-6 505,-12 505,-12 505,-24 505,-24 505,-30 499,-36 493,-36"/>
<text text-anchor="middle" x="478" y="-14.3" font-family="Times New Roman,serif" font-size="14.00">agent</text>
</g>
<!-- Pipeline&#45;&gt;agent -->
<g id="edge7" class="edge">
<title>Pipeline&#45;&gt;agent</title>
<path fill="none" stroke="black" d="M284.94,-64.72C325.48,-54.86 397.74,-37.28 441.13,-26.72"/>
<polygon fill="black" stroke="black" points="442.09,-30.09 450.98,-24.33 440.44,-23.29 442.09,-30.09"/>
</g>
<!-- node/any -->
<g id="node7" class="node">
<title>node/any</title>
<path fill="none" stroke="black" d="M595,-36C595,-36 553,-36 553,-36 547,-36 541,-30 541,-24 541,-24 541,-12 541,-12 541,-6 547,0 553,0 553,0 595,0 595,0 601,0 607,-6 607,-12 607,-12 607,-24 607,-24 607,-30 601,-36 595,-36"/>
<text text-anchor="middle" x="574" y="-14.3" font-family="Times New Roman,serif" font-size="14.00">node/any</text>
</g>
<!-- agent&#45;&gt;node/any -->
<g id="edge8" class="edge">
<title>agent&#45;&gt;node/any</title>
<path fill="none" stroke="black" d="M505.18,-18C513.15,-18 522.11,-18 530.85,-18"/>
<polygon fill="black" stroke="black" points="530.93,-21.5 540.93,-18 530.93,-14.5 530.93,-21.5"/>
</g>
<!-- script -->
<g id="node8" class="node">
<title>script</title>
<path fill="none" stroke="black" d="M43.5,-360C43.5,-360 13.5,-360 13.5,-360 7.5,-360 1.5,-354 1.5,-348 1.5,-348 1.5,-336 1.5,-336 1.5,-330 7.5,-324 13.5,-324 13.5,-324 43.5,-324 43.5,-324 49.5,-324 55.5,-330 55.5,-336 55.5,-336 55.5,-348 55.5,-348 55.5,-354 49.5,-360 43.5,-360"/>
<text text-anchor="middle" x="28.5" y="-338.3" font-family="Times New Roman,serif" font-size="14.00">script</text>
</g>
<!-- catchError / try catch / warnError -->
<g id="node9" class="node">
<title>catchError / try catch / warnError</title>
<path fill="none" stroke="black" d="M341.5,-522C341.5,-522 166.5,-522 166.5,-522 160.5,-522 154.5,-516 154.5,-510 154.5,-510 154.5,-498 154.5,-498 154.5,-492 160.5,-486 166.5,-486 166.5,-486 341.5,-486 341.5,-486 347.5,-486 353.5,-492 353.5,-498 353.5,-498 353.5,-510 353.5,-510 353.5,-516 347.5,-522 341.5,-522"/>
<text text-anchor="middle" x="254" y="-500.3" font-family="Times New Roman,serif" font-size="14.00">catchError / try catch / warnError</text>
</g>
<!-- script&#45;&gt;catchError / try catch / warnError -->
<g id="edge9" class="edge">
<title>script&#45;&gt;catchError / try catch / warnError</title>
<path fill="none" stroke="black" d="M32.54,-360.23C38.49,-389.81 54.62,-447.88 93,-477 107.93,-488.33 125.91,-495.6 144.35,-500.14"/>
<polygon fill="black" stroke="black" points="143.79,-503.61 154.31,-502.34 145.3,-496.77 143.79,-503.61"/>
</g>
<!-- deleteDir / dir / fileExists / readFile / writeFile / archive -->
<g id="node10" class="node">
<title>deleteDir / dir / fileExists / readFile / writeFile / archive</title>
<path fill="none" stroke="black" d="M403,-468C403,-468 105,-468 105,-468 99,-468 93,-462 93,-456 93,-456 93,-444 93,-444 93,-438 99,-432 105,-432 105,-432 403,-432 403,-432 409,-432 415,-438 415,-444 415,-444 415,-456 415,-456 415,-462 409,-468 403,-468"/>
<text text-anchor="middle" x="254" y="-446.3" font-family="Times New Roman,serif" font-size="14.00">deleteDir / dir / fileExists / readFile / writeFile / archive</text>
</g>
<!-- script&#45;&gt;deleteDir / dir / fileExists / readFile / writeFile / archive -->
<g id="edge10" class="edge">
<title>script&#45;&gt;deleteDir / dir / fileExists / readFile / writeFile / archive</title>
<path fill="none" stroke="black" d="M38.45,-360.06C48.84,-378.99 67.81,-408.02 93,-423 95.7,-424.6 98.46,-426.12 101.29,-427.55"/>
<polygon fill="black" stroke="black" points="99.94,-430.79 110.48,-431.85 102.9,-424.44 99.94,-430.79"/>
</g>
<!-- echo / error / isUnix / mail / pwd -->
<g id="node11" class="node">
<title>echo / error / isUnix / mail / pwd</title>
<path fill="none" stroke="black" d="M340.5,-414C340.5,-414 167.5,-414 167.5,-414 161.5,-414 155.5,-408 155.5,-402 155.5,-402 155.5,-390 155.5,-390 155.5,-384 161.5,-378 167.5,-378 167.5,-378 340.5,-378 340.5,-378 346.5,-378 352.5,-384 352.5,-390 352.5,-390 352.5,-402 352.5,-402 352.5,-408 346.5,-414 340.5,-414"/>
<text text-anchor="middle" x="254" y="-392.3" font-family="Times New Roman,serif" font-size="14.00">echo / error / isUnix / mail / pwd</text>
</g>
<!-- script&#45;&gt;echo / error / isUnix / mail / pwd -->
<g id="edge11" class="edge">
<title>script&#45;&gt;echo / error / isUnix / mail / pwd</title>
<path fill="none" stroke="black" d="M55.56,-354.72C66.85,-359.79 80.35,-365.3 93,-369 109.61,-373.86 127.47,-377.94 145.01,-381.34"/>
<polygon fill="black" stroke="black" points="144.82,-384.87 155.29,-383.26 146.11,-377.98 144.82,-384.87"/>
</g>
<!-- retry / sleep / &#160;/ waitUntil -->
<g id="node12" class="node">
<title>retry / sleep / &#160;/ waitUntil</title>
<path fill="none" stroke="black" d="M319.5,-360C319.5,-360 188.5,-360 188.5,-360 182.5,-360 176.5,-354 176.5,-348 176.5,-348 176.5,-336 176.5,-336 176.5,-330 182.5,-324 188.5,-324 188.5,-324 319.5,-324 319.5,-324 325.5,-324 331.5,-330 331.5,-336 331.5,-336 331.5,-348 331.5,-348 331.5,-354 325.5,-360 319.5,-360"/>
<text text-anchor="middle" x="254" y="-338.3" font-family="Times New Roman,serif" font-size="14.00">retry / sleep / &#160;/ waitUntil</text>
</g>
<!-- script&#45;&gt;retry / sleep / &#160;/ waitUntil -->
<g id="edge12" class="edge">
<title>script&#45;&gt;retry / sleep / &#160;/ waitUntil</title>
<path fill="none" stroke="black" d="M55.58,-342C82.69,-342 126.63,-342 166.18,-342"/>
<polygon fill="black" stroke="black" points="166.4,-345.5 176.4,-342 166.4,-338.5 166.4,-345.5"/>
</g>
<!-- timeout / tool / getContext / withContext -->
<g id="node13" class="node">
<title>timeout / tool / getContext / withContext</title>
<path fill="none" stroke="black" d="M361.5,-306C361.5,-306 146.5,-306 146.5,-306 140.5,-306 134.5,-300 134.5,-294 134.5,-294 134.5,-282 134.5,-282 134.5,-276 140.5,-270 146.5,-270 146.5,-270 361.5,-270 361.5,-270 367.5,-270 373.5,-276 373.5,-282 373.5,-282 373.5,-294 373.5,-294 373.5,-300 367.5,-306 361.5,-306"/>
<text text-anchor="middle" x="254" y="-284.3" font-family="Times New Roman,serif" font-size="14.00">timeout / tool / getContext / withContext</text>
</g>
<!-- script&#45;&gt;timeout / tool / getContext / withContext -->
<g id="edge13" class="edge">
<title>script&#45;&gt;timeout / tool / getContext / withContext</title>
<path fill="none" stroke="black" d="M55.56,-329.28C66.85,-324.21 80.35,-318.7 93,-315 103.14,-312.03 113.75,-309.36 124.47,-306.95"/>
<polygon fill="black" stroke="black" points="125.3,-310.35 134.33,-304.81 123.81,-303.51 125.3,-310.35"/>
</g>
<!-- unstable / stash / unstash / withEnv -->
<g id="node14" class="node">
<title>unstable / stash / unstash / withEnv</title>
<path fill="none" stroke="black" d="M346.5,-252C346.5,-252 161.5,-252 161.5,-252 155.5,-252 149.5,-246 149.5,-240 149.5,-240 149.5,-228 149.5,-228 149.5,-222 155.5,-216 161.5,-216 161.5,-216 346.5,-216 346.5,-216 352.5,-216 358.5,-222 358.5,-228 358.5,-228 358.5,-240 358.5,-240 358.5,-246 352.5,-252 346.5,-252"/>
<text text-anchor="middle" x="254" y="-230.3" font-family="Times New Roman,serif" font-size="14.00">unstable / stash / unstash / withEnv</text>
</g>
<!-- script&#45;&gt;unstable / stash / unstash / withEnv -->
<g id="edge14" class="edge">
<title>script&#45;&gt;unstable / stash / unstash / withEnv</title>
<path fill="none" stroke="black" d="M38.45,-323.94C48.84,-305.01 67.81,-275.98 93,-261 107.04,-252.65 122.92,-246.7 139.09,-242.49"/>
<polygon fill="black" stroke="black" points="140.27,-245.81 149.19,-240.08 138.65,-239 140.27,-245.81"/>
</g>
<!-- wrap -->
<g id="node15" class="node">
<title>wrap</title>
<path fill="none" stroke="black" d="M269,-198C269,-198 239,-198 239,-198 233,-198 227,-192 227,-186 227,-186 227,-174 227,-174 227,-168 233,-162 239,-162 239,-162 269,-162 269,-162 275,-162 281,-168 281,-174 281,-174 281,-186 281,-186 281,-192 275,-198 269,-198"/>
<text text-anchor="middle" x="254" y="-176.3" font-family="Times New Roman,serif" font-size="14.00">wrap</text>
</g>
<!-- script&#45;&gt;wrap -->
<g id="edge15" class="edge">
<title>script&#45;&gt;wrap</title>
<path fill="none" stroke="black" d="M32.54,-323.77C38.49,-294.19 54.62,-236.12 93,-207 128.59,-179.99 181.49,-176.09 216.59,-177.02"/>
<polygon fill="black" stroke="black" points="216.74,-180.53 226.88,-177.45 217.03,-173.54 216.74,-180.53"/>
</g>
</g>
</svg>
