<?xml version="1.0" encoding="UTF-8" standalone="no"?>
<!DOCTYPE svg PUBLIC "-//W3C//DTD SVG 1.1//EN"
 "http://www.w3.org/Graphics/SVG/1.1/DTD/svg11.dtd">
<!-- Generated by graphviz version 2.38.0 (20140413.2041)
 -->
<!-- Title: %3 Pages: 1 -->
<svg width="2440pt" height="1386pt"
 viewBox="0.00 0.00 2440.00 1386.00" xmlns="http://www.w3.org/2000/svg" xmlns:xlink="http://www.w3.org/1999/xlink">
<g id="graph0" class="graph" transform="scale(1 1) rotate(0) translate(4 1382)">
<title>%3</title>
<polygon fill="white" stroke="none" points="-4,4 -4,-1382 2436,-1382 2436,4 -4,4"/>
<g id="clust1" class="cluster"><title>cluster_setup</title>
<polygon fill="#1fbb1f" stroke="black" stroke-width="0.1" points="179.5,-1194 179.5,-1370 1220.5,-1370 1220.5,-1194 179.5,-1194"/>
</g>
<g id="clust2" class="cluster"><title>cluster_entry</title>
<polygon fill="#1fbb1f" stroke="black" stroke-width="0.1" points="8,-599 8,-707 1392,-707 1392,-599 8,-599"/>
</g>
<g id="clust3" class="cluster"><title>cluster_runuse</title>
<polygon fill="none" stroke="black" stroke-width="0.1" points="126,-8 126,-427 1245,-427 1245,-8 126,-8"/>
</g>
<!-- set_setupcfg1 -->
<g id="node1" class="node"><title>set_setupcfg1</title>
<polygon fill="#0e0f11" stroke="black" stroke-width="0.1" points="1212.5,-1296.5 1123.5,-1296.5 1123.5,-1267.5 1212.5,-1267.5 1212.5,-1296.5"/>
<text text-anchor="middle" x="1168" y="-1278.3" font-family="monospace" font-size="14.00" fill="#ffffff">setup.cfg</text>
</g>
<!-- set_setupcfg2 -->
<g id="node2" class="node"><title>set_setupcfg2</title>
<polygon fill="#0e0f11" stroke="black" stroke-width="0.1" points="276.5,-1361.5 187.5,-1361.5 187.5,-1332.5 276.5,-1332.5 276.5,-1361.5"/>
<text text-anchor="middle" x="232" y="-1343.3" font-family="monospace" font-size="14.00" fill="#ffffff">setup.cfg</text>
</g>
<!-- setupcfgwarn -->
<g id="node7" class="node"><title>setupcfgwarn</title>
<polygon fill="#ec7259" stroke="black" stroke-width="0.1" points="777.5,-1185.5 622.5,-1185.5 622.5,-1156.5 777.5,-1156.5 777.5,-1185.5"/>
<text text-anchor="middle" x="700" y="-1167.3" font-family="monospace" font-size="14.00" fill="#ffffff">pdr must with git</text>
</g>
<!-- set_setupcfg2&#45;&gt;setupcfgwarn -->
<g id="edge12" class="edge"><title>set_setupcfg2&#45;&gt;setupcfgwarn</title>
<path fill="none" stroke="black" d="M276.55,-1345.26C320.802,-1342.41 390.784,-1334.87 448,-1315 537.928,-1283.76 632.249,-1219.87 675.188,-1188.78"/>
<polygon fill="black" stroke="black" points="679.428,-1185.7 676.708,-1190.46 677.406,-1187.17 675.385,-1188.64 675.385,-1188.64 675.385,-1188.64 677.406,-1187.17 674.061,-1186.82 679.428,-1185.7 679.428,-1185.7"/>
</g>
<!-- set_setupcfg3 -->
<g id="node3" class="node"><title>set_setupcfg3</title>
<polygon fill="#0e0f11" stroke="black" stroke-width="0.1" points="276.5,-1296.5 187.5,-1296.5 187.5,-1267.5 276.5,-1267.5 276.5,-1296.5"/>
<text text-anchor="middle" x="232" y="-1278.3" font-family="monospace" font-size="14.00" fill="#ffffff">setup.cfg</text>
</g>
<!-- conf_setupcfg -->
<g id="node8" class="node"><title>conf_setupcfg</title>
<polygon fill="#0e0f11" stroke="black" stroke-width="0.1" points="916,-1120.5 484,-1120.5 484,-921.5 916,-921.5 916,-1120.5"/>
<text text-anchor="start" x="491" y="-1086.3" font-family="monospace" font-size="14.00" fill="#ffffff">[metadata]</text>
<text text-anchor="start" x="491" y="-1071.3" font-family="monospace" font-size="14.00" fill="#ffffff">name = fashion</text>
<text text-anchor="start" x="491" y="-1056.3" font-family="monospace" font-size="14.00" fill="#ffffff">version = 0.0.1</text>
<text text-anchor="start" x="491" y="-1009.3" font-family="monospace" font-size="14.00" fill="#ffffff">[global]</text>
<text text-anchor="start" x="491" y="-994.3" font-family="monospace" font-size="14.00" fill="#ffffff">setup&#45;hooks = pbr.hooks.setup_hook</text>
<text text-anchor="start" x="491" y="-947.3" font-family="monospace" font-size="14.00" fill="#ffffff">[files]</text>
<text text-anchor="start" x="491" y="-932.3" font-family="monospace" font-size="14.00" fill="#ffffff">packages = fashion</text>
</g>
<!-- set_setupcfg3&#45;&gt;conf_setupcfg -->
<g id="edge13" class="edge"><title>set_setupcfg3&#45;&gt;conf_setupcfg</title>
<path fill="none" stroke="black" d="M276.758,-1287.98C324.476,-1291.95 400.384,-1290.42 448,-1250 487.863,-1216.17 450.649,-1178.27 484,-1138 487.918,-1133.27 492.078,-1128.7 496.442,-1124.29"/>
<polygon fill="black" stroke="black" points="500.154,-1120.62 498.179,-1125.74 498.376,-1122.38 496.598,-1124.14 496.598,-1124.14 496.598,-1124.14 498.376,-1122.38 495.016,-1122.54 500.154,-1120.62 500.154,-1120.62"/>
</g>
<!-- set_setupcfg4 -->
<g id="node4" class="node"><title>set_setupcfg4</title>
<polygon fill="#0e0f11" stroke="black" stroke-width="0.1" points="276.5,-1231.5 187.5,-1231.5 187.5,-1202.5 276.5,-1202.5 276.5,-1231.5"/>
<text text-anchor="middle" x="232" y="-1213.3" font-family="monospace" font-size="14.00" fill="#ffffff">setup.cfg</text>
</g>
<!-- entry_file -->
<g id="node15" class="node"><title>entry_file</title>
<polygon fill="#0e0f11" stroke="black" stroke-width="0.1" points="916,-698.5 484,-698.5 484,-607.5 916,-607.5 916,-698.5"/>
<text text-anchor="start" x="491" y="-664.3" font-family="monospace" font-size="14.00" fill="#ffffff">#fashion/shell.py</text>
<text text-anchor="start" x="491" y="-649.3" font-family="monospace" font-size="14.00" fill="#ffffff">def main():</text>
<text text-anchor="start" x="491" y="-634.3" font-family="monospace" font-size="14.00" fill="#ffffff"> &#160;&#160;&#160;print(&quot;Hello World!&quot;)</text>
</g>
<!-- set_setupcfg4&#45;&gt;entry_file -->
<g id="edge14" class="edge"><title>set_setupcfg4&#45;&gt;entry_file</title>
<path fill="none" stroke="black" d="M247.368,-1202.26C286.605,-1161.08 396.103,-1039.76 448,-917 483.168,-833.811 423.785,-784.315 484,-717 488.958,-711.458 494.372,-706.386 500.147,-701.746"/>
<polygon fill="black" stroke="black" points="504.201,-698.602 501.629,-703.444 502.226,-700.134 500.25,-701.666 500.25,-701.666 500.25,-701.666 502.226,-700.134 498.871,-699.888 504.201,-698.602 504.201,-698.602"/>
</g>
<!-- set_setupcfg5 -->
<g id="node5" class="node"><title>set_setupcfg5</title>
<polygon fill="#0e0f11" stroke="black" stroke-width="0.1" points="1212.5,-1231.5 1123.5,-1231.5 1123.5,-1202.5 1212.5,-1202.5 1212.5,-1231.5"/>
<text text-anchor="middle" x="1168" y="-1213.3" font-family="monospace" font-size="14.00" fill="#ffffff">setup.cfg</text>
</g>
<!-- mani_cfg -->
<g id="node11" class="node"><title>mani_cfg</title>
<polygon fill="#0e0f11" stroke="black" stroke-width="0.1" points="1878,-1167.5 1420,-1167.5 1420,-1016.5 1878,-1016.5 1878,-1167.5"/>
<text text-anchor="start" x="1427" y="-1133.3" font-family="monospace" font-size="14.00" fill="#ffffff">#setup.cfg</text>
<text text-anchor="start" x="1427" y="-1118.3" font-family="monospace" font-size="14.00" fill="#ffffff">[files]</text>
<text text-anchor="start" x="1427" y="-1103.3" font-family="monospace" font-size="14.00" fill="#ffffff">packages = fashion</text>
<text text-anchor="start" x="1427" y="-1088.3" font-family="monospace" font-size="14.00" fill="#ffffff"># 假设我们在 etc 下有 fashion.conf 这个配置文件，想要安装到</text>
<text text-anchor="start" x="1427" y="-1073.3" font-family="monospace" font-size="14.00" fill="#ffffff"># 系统的 /etc/fashion/ 目录之下</text>
<text text-anchor="start" x="1427" y="-1058.3" font-family="monospace" font-size="14.00" fill="#ffffff">#&#45;&#45;prefix=/</text>
<text text-anchor="start" x="1427" y="-1043.3" font-family="monospace" font-size="14.00" fill="#ffffff">data_files = /etc/fashion = etc/fashion.conf</text>
</g>
<!-- set_setupcfg5&#45;&gt;mani_cfg -->
<g id="edge15" class="edge"><title>set_setupcfg5&#45;&gt;mani_cfg</title>
<path fill="none" stroke="black" d="M1212.78,-1205.58C1259.61,-1193.35 1337.63,-1172.99 1414.77,-1152.86"/>
<polygon fill="black" stroke="black" points="1419.85,-1151.54 1415.58,-1154.98 1417.43,-1152.17 1415.02,-1152.8 1415.02,-1152.8 1415.02,-1152.8 1417.43,-1152.17 1414.45,-1150.62 1419.85,-1151.54 1419.85,-1151.54"/>
</g>
<!-- MANIFESTin -->
<g id="node6" class="node"><title>MANIFESTin</title>
<polygon fill="#0e0f11" stroke="black" stroke-width="0.1" points="1220.5,-824.5 1115.5,-824.5 1115.5,-795.5 1220.5,-795.5 1220.5,-824.5"/>
<text text-anchor="middle" x="1168" y="-806.3" font-family="monospace" font-size="14.00" fill="#ffffff">MANIFEST.in</text>
</g>
<!-- mani_file -->
<g id="node9" class="node"><title>mani_file</title>
<polygon fill="#0e0f11" stroke="black" stroke-width="0.1" points="1865,-855.5 1433,-855.5 1433,-764.5 1865,-764.5 1865,-855.5"/>
<text text-anchor="start" x="1440" y="-821.3" font-family="monospace" font-size="14.00" fill="#ffffff">#MANIFEST.in</text>
<text text-anchor="start" x="1440" y="-806.3" font-family="monospace" font-size="14.00" fill="#ffffff">include scripts/*</text>
<text text-anchor="start" x="1440" y="-791.3" font-family="monospace" font-size="14.00" fill="#ffffff">recursive&#45;include static *.html *.css</text>
</g>
<!-- MANIFESTin&#45;&gt;mani_file -->
<g id="edge16" class="edge"><title>MANIFESTin&#45;&gt;mani_file</title>
<path fill="none" stroke="black" d="M1220.72,-810C1270.96,-810 1350.75,-810 1427.85,-810"/>
<polygon fill="black" stroke="black" points="1432.92,-810 1427.92,-812.25 1430.42,-810 1427.92,-810 1427.92,-810 1427.92,-810 1430.42,-810 1427.92,-807.75 1432.92,-810 1432.92,-810"/>
</g>
<!-- MANIFESTin&#45;&gt;mani_cfg -->
<g id="edge17" class="edge"><title>MANIFESTin&#45;&gt;mani_cfg</title>
<path fill="none" stroke="black" d="M1220.66,-808.191C1267.87,-808.655 1338.29,-814.805 1392,-843 1408.15,-851.477 1407.2,-860.011 1420,-873 1466.57,-920.238 1519.98,-971.682 1563.39,-1012.83"/>
<polygon fill="black" stroke="black" points="1567.03,-1016.28 1561.85,-1014.47 1565.22,-1014.56 1563.4,-1012.84 1563.4,-1012.84 1563.4,-1012.84 1565.22,-1014.56 1564.95,-1011.21 1567.03,-1016.28 1567.03,-1016.28"/>
</g>
<!-- mani_use -->
<g id="node10" class="node"><title>mani_use</title>
<polygon fill="#0e0f11" stroke="black" stroke-width="0.1" points="2432,-855.5 1914,-855.5 1914,-764.5 2432,-764.5 2432,-855.5"/>
<text text-anchor="start" x="1921" y="-821.3" font-family="monospace" font-size="14.00" fill="#ffffff">#pkg_resources模块来获取</text>
<text text-anchor="start" x="1921" y="-806.3" font-family="monospace" font-size="14.00" fill="#ffffff">from pkg_resources import resource_stream</text>
<text text-anchor="start" x="1921" y="-791.3" font-family="monospace" font-size="14.00" fill="#ffffff">text = resource_stream(&#39;fashion&#39;,static/fashion.html&#39;).read()</text>
</g>
<!-- mani_file&#45;&gt;mani_use -->
<g id="edge18" class="edge"><title>mani_file&#45;&gt;mani_use</title>
<path fill="none" stroke="black" d="M1865.33,-810C1879.59,-810 1894.03,-810 1908.49,-810"/>
<polygon fill="black" stroke="black" points="1913.81,-810 1908.81,-812.25 1911.31,-810 1908.81,-810 1908.81,-810 1908.81,-810 1911.31,-810 1908.81,-807.75 1913.81,-810 1913.81,-810"/>
</g>
<!-- test_cfg -->
<g id="node12" class="node"><title>test_cfg</title>
<polygon fill="#0e0f11" stroke="black" stroke-width="0.1" points="448,-571 16,-571 16,-435 448,-435 448,-571"/>
<text text-anchor="start" x="23" y="-536.8" font-family="monospace" font-size="14.00" fill="#ffffff"># setup.py</text>
<text text-anchor="start" x="23" y="-521.8" font-family="monospace" font-size="14.00" fill="#ffffff">setup(</text>
<text text-anchor="start" x="23" y="-506.8" font-family="monospace" font-size="14.00" fill="#ffffff"> &#160;&#160;&#160;setup_requires=[&#39;pbr&#39;, &#39;setuptools&#39;],</text>
<text text-anchor="start" x="23" y="-491.8" font-family="monospace" font-size="14.00" fill="#ffffff"> &#160;&#160;&#160;pbr=True,</text>
<text text-anchor="start" x="23" y="-476.8" font-family="monospace" font-size="14.00" fill="#ffffff"> &#160;&#160;&#160;test_suite=&#39;fashion.tests&#39;,</text>
<text text-anchor="start" x="23" y="-461.8" font-family="monospace" font-size="14.00" fill="#ffffff">)</text>
</g>
<!-- use_test -->
<g id="node29" class="node"><title>use_test</title>
<polygon fill="#0e0f11" stroke="black" stroke-width="0.1" points="790,-353.5 610,-353.5 610,-324.5 790,-324.5 790,-353.5"/>
<text text-anchor="middle" x="700" y="-335.3" font-family="monospace" font-size="14.00" fill="#ffffff">python setup.py test</text>
</g>
<!-- test_cfg&#45;&gt;use_test -->
<g id="edge21" class="edge"><title>test_cfg&#45;&gt;use_test</title>
<path fill="none" stroke="black" d="M442.858,-434.993C444.598,-433.687 446.312,-432.356 448,-431 472.244,-411.524 458.143,-388.278 484,-371 519.059,-347.574 564.471,-338.501 604.52,-335.714"/>
<polygon fill="black" stroke="black" points="609.881,-335.376 605.032,-337.937 607.386,-335.534 604.891,-335.691 604.891,-335.691 604.891,-335.691 607.386,-335.534 604.749,-333.446 609.881,-335.376 609.881,-335.376"/>
</g>
<!-- create -->
<g id="node13" class="node"><title>create</title>
<polygon fill="#0e0f11" stroke="black" stroke-width="0.1" points="448,-899.5 16,-899.5 16,-734.5 448,-734.5 448,-899.5"/>
<text text-anchor="start" x="23" y="-865.3" font-family="monospace" font-size="14.00" fill="#ffffff">from setuptools import setup, find_packages</text>
<text text-anchor="start" x="23" y="-850.3" font-family="monospace" font-size="14.00" fill="#ffffff">setup(</text>
<text text-anchor="start" x="23" y="-835.3" font-family="monospace" font-size="14.00" fill="#ffffff"> &#160;&#160;&#160;&#160;&#160;name=&quot;fashion&quot;,</text>
<text text-anchor="start" x="23" y="-820.3" font-family="monospace" font-size="14.00" fill="#ffffff"> &#160;&#160;&#160;&#160;&#160;version=&quot;0.0.1&quot;,</text>
<text text-anchor="start" x="23" y="-805.3" font-family="monospace" font-size="14.00" fill="#ffffff"> &#160;&#160;&#160;&#160;&#160;author=&quot;xxx&quot;,</text>
<text text-anchor="start" x="23" y="-790.3" font-family="monospace" font-size="14.00" fill="#ffffff"> &#160;&#160;&#160;&#160;&#160;author_email=&quot;xxxx&quot;,</text>
<text text-anchor="start" x="23" y="-775.3" font-family="monospace" font-size="14.00" fill="#ffffff"> &#160;&#160;&#160;&#160;&#160;url=&quot;xxx&quot;,</text>
<text text-anchor="start" x="23" y="-760.3" font-family="monospace" font-size="14.00" fill="#ffffff"> &#160;&#160;&#160;&#160;&#160;packages = find_packages(&#39;fashion&#39;),</text>
<text text-anchor="start" x="23" y="-745.3" font-family="monospace" font-size="14.00" fill="#ffffff">)</text>
</g>
<!-- project_menu -->
<g id="node14" class="node"><title>project_menu</title>
<polygon fill="#0e0f11" stroke="black" stroke-width="0.1" points="916,-885 484,-885 484,-735 916,-735 916,-885"/>
<text text-anchor="start" x="491" y="-850.8" font-family="monospace" font-size="14.00" fill="#ffffff">.</text>
<text text-anchor="start" x="491" y="-835.8" font-family="monospace" font-size="14.00" fill="#ffffff">├── fashion</text>
<text text-anchor="start" x="491" y="-820.8" font-family="monospace" font-size="14.00" fill="#ffffff">│ &#160;&#160;├── __init__.py</text>
<text text-anchor="start" x="491" y="-805.8" font-family="monospace" font-size="14.00" fill="#ffffff">│ &#160;&#160;└── tests</text>
<text text-anchor="start" x="491" y="-790.8" font-family="monospace" font-size="14.00" fill="#ffffff">│ &#160;&#160;&#160;&#160;&#160;&#160;└── __init__.py</text>
<text text-anchor="start" x="491" y="-775.8" font-family="monospace" font-size="14.00" fill="#ffffff">├── README.md</text>
<text text-anchor="start" x="491" y="-760.8" font-family="monospace" font-size="14.00" fill="#ffffff">├── setup.cfg</text>
<text text-anchor="start" x="491" y="-745.8" font-family="monospace" font-size="14.00" fill="#ffffff">└── setup.py</text>
</g>
<!-- create&#45;&gt;project_menu -->
<g id="edge7" class="edge"><title>create&#45;&gt;project_menu</title>
<path fill="none" stroke="black" d="M448.267,-813.766C458.32,-813.615 468.416,-813.464 478.482,-813.313"/>
<polygon fill="black" stroke="black" points="483.742,-813.233 478.777,-815.558 481.242,-813.271 478.743,-813.309 478.743,-813.309 478.743,-813.309 481.242,-813.271 478.709,-811.059 483.742,-813.233 483.742,-813.233"/>
</g>
<!-- project_menu&#45;&gt;set_setupcfg1 -->
<g id="edge10" class="edge"><title>project_menu&#45;&gt;set_setupcfg1</title>
<path fill="none" stroke="black" d="M900.437,-885.092C906.085,-890.646 911.309,-896.606 916,-903 961.859,-965.507 898.411,-1193.98 952,-1250 994.243,-1294.16 1069.07,-1295.26 1118.36,-1290.1"/>
<polygon fill="black" stroke="black" points="1123.35,-1289.55 1118.62,-1292.33 1120.86,-1289.82 1118.38,-1290.1 1118.38,-1290.1 1118.38,-1290.1 1120.86,-1289.82 1118.13,-1287.86 1123.35,-1289.55 1123.35,-1289.55"/>
</g>
<!-- project_menu&#45;&gt;MANIFESTin -->
<g id="edge11" class="edge"><title>project_menu&#45;&gt;MANIFESTin</title>
<path fill="none" stroke="black" d="M916.267,-810C987.596,-810 1061.15,-810 1109.99,-810"/>
<polygon fill="black" stroke="black" points="1115.23,-810 1110.23,-812.25 1112.73,-810 1110.23,-810 1110.23,-810 1110.23,-810 1112.73,-810 1110.23,-807.75 1115.23,-810 1115.23,-810"/>
</g>
<!-- use_command -->
<g id="node18" class="node"><title>use_command</title>
<polygon fill="#0e0f11" stroke="black" stroke-width="0.1" points="1237,-418.5 1099,-418.5 1099,-389.5 1237,-389.5 1237,-418.5"/>
<text text-anchor="middle" x="1168" y="-400.3" font-family="monospace" font-size="14.00" fill="#ffffff">python setup.py</text>
</g>
<!-- project_menu&#45;&gt;use_command -->
<g id="edge8" class="edge"><title>project_menu&#45;&gt;use_command</title>
<path fill="none" stroke="black" d="M896.723,-734.875C903.628,-729.029 910.101,-722.747 916,-716 954.336,-672.155 920.672,-639.098 952,-590 1001.12,-513.013 1091.55,-450.147 1137.92,-421.208"/>
<polygon fill="black" stroke="black" points="1142.26,-418.514 1139.2,-423.061 1140.14,-419.831 1138.01,-421.148 1138.01,-421.148 1138.01,-421.148 1140.14,-419.831 1136.83,-419.236 1142.26,-418.514 1142.26,-418.514"/>
</g>
<!-- run_pdr -->
<g id="node31" class="node"><title>run_pdr</title>
<polygon fill="#0e0f11" stroke="black" stroke-width="0.1" points="1384,-951 952,-951 952,-861 1384,-861 1384,-951"/>
<text text-anchor="start" x="959" y="-916.8" font-family="monospace" font-size="14.00" fill="#ffffff">setup(</text>
<text text-anchor="start" x="959" y="-901.8" font-family="monospace" font-size="14.00" fill="#ffffff"> &#160;&#160;&#160;setup_requires=[&#39;pbr&#39;, &#39;setuptools&#39;],</text>
<text text-anchor="start" x="959" y="-886.8" font-family="monospace" font-size="14.00" fill="#ffffff"> &#160;&#160;&#160;pbr=True,</text>
<text text-anchor="start" x="959" y="-871.8" font-family="monospace" font-size="14.00" fill="#ffffff">)</text>
</g>
<!-- project_menu&#45;&gt;run_pdr -->
<g id="edge9" class="edge"><title>project_menu&#45;&gt;run_pdr</title>
<path fill="none" stroke="black" d="M916.267,-854.347C926.412,-856.437 936.601,-858.536 946.759,-860.628"/>
<polygon fill="black" stroke="black" points="951.742,-861.655 946.391,-862.85 949.294,-861.151 946.845,-860.646 946.845,-860.646 946.845,-860.646 949.294,-861.151 947.299,-858.442 951.742,-861.655 951.742,-861.655"/>
</g>
<!-- entry_cfg -->
<g id="node16" class="node"><title>entry_cfg</title>
<polygon fill="#0e0f11" stroke="black" stroke-width="0.1" points="448,-698.5 16,-698.5 16,-607.5 448,-607.5 448,-698.5"/>
<text text-anchor="start" x="23" y="-664.3" font-family="monospace" font-size="14.00" fill="#ffffff">#[entry_points]</text>
<text text-anchor="start" x="23" y="-649.3" font-family="monospace" font-size="14.00" fill="#ffffff">console_scripts =</text>
<text text-anchor="start" x="23" y="-634.3" font-family="monospace" font-size="14.00" fill="#ffffff"> &#160;&#160;&#160;fashion &#160;= &#160;fashion.shell:main</text>
</g>
<!-- use_install -->
<g id="node21" class="node"><title>use_install</title>
<polygon fill="#0e0f11" stroke="black" stroke-width="0.1" points="802,-418.5 598,-418.5 598,-389.5 802,-389.5 802,-418.5"/>
<text text-anchor="middle" x="700" y="-400.3" font-family="monospace" font-size="14.00" fill="#ffffff">python setup.py install</text>
</g>
<!-- entry_cfg&#45;&gt;use_install -->
<g id="edge19" class="edge"><title>entry_cfg&#45;&gt;use_install</title>
<path fill="none" stroke="black" d="M405.53,-607.496C420.148,-601.889 434.493,-595.73 448,-589 542.816,-541.758 639.339,-458.642 679.557,-422.101"/>
<polygon fill="black" stroke="black" points="683.272,-418.712 681.094,-423.744 681.425,-420.397 679.578,-422.082 679.578,-422.082 679.578,-422.082 681.425,-420.397 678.061,-420.42 683.272,-418.712 683.272,-418.712"/>
</g>
<!-- entry_run -->
<g id="node17" class="node"><title>entry_run</title>
<polygon fill="#0e0f11" stroke="black" stroke-width="0.1" points="1384,-683 952,-683 952,-607 1384,-607 1384,-683"/>
<text text-anchor="start" x="959" y="-648.8" font-family="monospace" font-size="14.00" fill="#ffffff">$ fashion</text>
<text text-anchor="start" x="959" y="-633.8" font-family="monospace" font-size="14.00" fill="#ffffff">Hello World!</text>
</g>
<!-- use_build -->
<g id="node19" class="node"><title>use_build</title>
<polygon fill="#0e0f11" stroke="black" stroke-width="0.1" points="326,-282.5 138,-282.5 138,-253.5 326,-253.5 326,-282.5"/>
<text text-anchor="middle" x="232" y="-264.3" font-family="monospace" font-size="14.00" fill="#ffffff">python setup.py build</text>
</g>
<!-- ubild_label -->
<g id="node20" class="node"><title>ubild_label</title>
<ellipse fill="#ffffcd" stroke="black" stroke-width="0.1" cx="700" cy="-268" rx="30.3115" ry="20.5122"/>
<text text-anchor="middle" x="700" y="-264.3" font-family="monospace" font-size="14.00" fill="#000000">构建</text>
</g>
<!-- use_build&#45;&gt;ubild_label -->
<g id="edge1" class="edge"><title>use_build&#45;&gt;ubild_label</title>
<path fill="none" stroke="black" d="M326.182,-268C430.245,-268 593.354,-268 664.207,-268"/>
<polygon fill="black" stroke="black" points="669.554,-268 664.554,-270.25 667.054,-268 664.554,-268 664.554,-268 664.554,-268 667.054,-268 664.554,-265.75 669.554,-268 669.554,-268"/>
</g>
<!-- use_install&#45;&gt;entry_run -->
<g id="edge20" class="edge"><title>use_install&#45;&gt;entry_run</title>
<path fill="none" stroke="black" d="M729.101,-418.533C799,-454.682 982.688,-549.68 1088.63,-604.469"/>
<polygon fill="black" stroke="black" points="1093.3,-606.885 1087.83,-606.587 1091.08,-605.737 1088.86,-604.588 1088.86,-604.588 1088.86,-604.588 1091.08,-605.737 1089.89,-602.59 1093.3,-606.885 1093.3,-606.885"/>
</g>
<!-- ui_label -->
<g id="node22" class="node"><title>ui_label</title>
<ellipse fill="#ffffcd" stroke="black" stroke-width="0.1" cx="1168" cy="-333" rx="30.3115" ry="20.5122"/>
<text text-anchor="middle" x="1168" y="-329.3" font-family="monospace" font-size="14.00" fill="#000000">安装</text>
</g>
<!-- use_install&#45;&gt;ui_label -->
<g id="edge2" class="edge"><title>use_install&#45;&gt;ui_label</title>
<path fill="none" stroke="black" d="M796.427,-389.461C900.752,-373.566 1062.41,-348.936 1132.56,-338.247"/>
<polygon fill="black" stroke="black" points="1137.86,-337.44 1133.25,-340.418 1135.39,-337.817 1132.91,-338.193 1132.91,-338.193 1132.91,-338.193 1135.39,-337.817 1132.58,-335.969 1137.86,-337.44 1137.86,-337.44"/>
</g>
<!-- use_sdist -->
<g id="node23" class="node"><title>use_sdist</title>
<polygon fill="#0e0f11" stroke="black" stroke-width="0.1" points="326,-205.5 138,-205.5 138,-176.5 326,-176.5 326,-205.5"/>
<text text-anchor="middle" x="232" y="-187.3" font-family="monospace" font-size="14.00" fill="#ffffff">python setup.py sdist</text>
</g>
<!-- us_label -->
<g id="node24" class="node"><title>us_label</title>
<ellipse fill="#ffffcd" stroke="black" stroke-width="0.1" cx="700" cy="-191" rx="60.623" ry="20.5122"/>
<text text-anchor="middle" x="700" y="-187.3" font-family="monospace" font-size="14.00" fill="#000000">创建源码包</text>
</g>
<!-- use_sdist&#45;&gt;us_label -->
<g id="edge3" class="edge"><title>use_sdist&#45;&gt;us_label</title>
<path fill="none" stroke="black" d="M326.182,-191C417.277,-191 553.619,-191 633.714,-191"/>
<polygon fill="black" stroke="black" points="638.907,-191 633.907,-193.25 636.407,-191 633.907,-191 633.907,-191 633.907,-191 636.407,-191 633.907,-188.75 638.907,-191 638.907,-191"/>
</g>
<!-- use_bdist -->
<g id="node25" class="node"><title>use_bdist</title>
<polygon fill="#0e0f11" stroke="black" stroke-width="0.1" points="326,-128.5 138,-128.5 138,-99.5 326,-99.5 326,-128.5"/>
<text text-anchor="middle" x="232" y="-110.3" font-family="monospace" font-size="14.00" fill="#ffffff">python setup.py bdist</text>
</g>
<!-- ub_label -->
<g id="node26" class="node"><title>ub_label</title>
<ellipse fill="#ffffcd" stroke="black" stroke-width="0.1" cx="700" cy="-114" rx="70.922" ry="20.5122"/>
<text text-anchor="middle" x="700" y="-110.3" font-family="monospace" font-size="14.00" fill="#000000">创建二进制包</text>
</g>
<!-- use_bdist&#45;&gt;ub_label -->
<g id="edge4" class="edge"><title>use_bdist&#45;&gt;ub_label</title>
<path fill="none" stroke="black" d="M326.182,-114C413.639,-114 542.8,-114 623.854,-114"/>
<polygon fill="black" stroke="black" points="629.122,-114 624.122,-116.25 626.622,-114 624.122,-114 624.122,-114 624.122,-114 626.622,-114 624.122,-111.75 629.122,-114 629.122,-114"/>
</g>
<!-- use_upload -->
<g id="node27" class="node"><title>use_upload</title>
<polygon fill="#0e0f11" stroke="black" stroke-width="0.1" points="330,-51.5 134,-51.5 134,-22.5 330,-22.5 330,-51.5"/>
<text text-anchor="middle" x="232" y="-33.3" font-family="monospace" font-size="14.00" fill="#ffffff">python setup.py upload</text>
</g>
<!-- uu_label -->
<g id="node28" class="node"><title>uu_label</title>
<ellipse fill="#ffffcd" stroke="black" stroke-width="0.1" cx="700" cy="-37" rx="69.0935" ry="20.5122"/>
<text text-anchor="middle" x="700" y="-33.3" font-family="monospace" font-size="14.00" fill="#000000">上传到 pypi</text>
</g>
<!-- use_upload&#45;&gt;uu_label -->
<g id="edge5" class="edge"><title>use_upload&#45;&gt;uu_label</title>
<path fill="none" stroke="black" d="M330.122,-37C418.082,-37 545.755,-37 625.499,-37"/>
<polygon fill="black" stroke="black" points="630.681,-37 625.681,-39.2501 628.181,-37 625.681,-37.0001 625.681,-37.0001 625.681,-37.0001 628.181,-37 625.681,-34.7501 630.681,-37 630.681,-37"/>
</g>
<!-- utest_label -->
<g id="node30" class="node"><title>utest_label</title>
<ellipse fill="#ffffcd" stroke="black" stroke-width="0.1" cx="1168" cy="-256" rx="30.3115" ry="20.5122"/>
<text text-anchor="middle" x="1168" y="-252.3" font-family="monospace" font-size="14.00" fill="#000000">测试</text>
</g>
<!-- use_test&#45;&gt;utest_label -->
<g id="edge6" class="edge"><title>use_test&#45;&gt;utest_label</title>
<path fill="none" stroke="black" d="M790.175,-329.762C829.156,-324.691 875.201,-317.294 916,-307 932.494,-302.838 935.564,-298.385 952,-294 1014.82,-277.239 1089.98,-265.879 1132.74,-260.207"/>
<polygon fill="black" stroke="black" points="1137.79,-259.544 1133.13,-262.426 1135.31,-259.869 1132.83,-260.195 1132.83,-260.195 1132.83,-260.195 1135.31,-259.869 1132.54,-257.964 1137.79,-259.544 1137.79,-259.544"/>
</g>
</g>
</svg>
