<?xml version="1.0" encoding="UTF-8" standalone="no"?>
<!DOCTYPE svg PUBLIC "-//W3C//DTD SVG 1.1//EN"
 "http://www.w3.org/Graphics/SVG/1.1/DTD/svg11.dtd">
<!-- Generated by graphviz version 2.50.0 (0)
 -->
<!-- Pages: 1 -->
<svg width="475pt" height="530pt"
 viewBox="0.00 0.00 475.00 530.00" xmlns="http://www.w3.org/2000/svg" xmlns:xlink="http://www.w3.org/1999/xlink">
<g id="graph0" class="graph" transform="scale(1 1) rotate(0) translate(4 526)">
<polygon fill="white" stroke="transparent" points="-4,4 -4,-526 471,-526 471,4 -4,4"/>
<!-- A -->
<g id="node1" class="node">
<title>A</title>
<path fill="none" stroke="black" d="M50,-279C50,-279 12,-279 12,-279 6,-279 0,-273 0,-267 0,-267 0,-255 0,-255 0,-249 6,-243 12,-243 12,-243 50,-243 50,-243 56,-243 62,-249 62,-255 62,-255 62,-267 62,-267 62,-273 56,-279 50,-279"/>
<text text-anchor="middle" x="31" y="-257.3" font-family="Times New Roman,serif" font-size="14.00">Features</text>
</g>
<!-- Aa -->
<g id="node2" class="node">
<title>Aa</title>
<path fill="none" stroke="black" d="M251,-522C251,-522 130,-522 130,-522 124,-522 118,-516 118,-510 118,-510 118,-498 118,-498 118,-492 124,-486 130,-486 130,-486 251,-486 251,-486 257,-486 263,-492 263,-498 263,-498 263,-510 263,-510 263,-516 257,-522 251,-522"/>
<text text-anchor="middle" x="190.5" y="-500.3" font-family="Times New Roman,serif" font-size="14.00">Making Your Own CLI</text>
</g>
<!-- A&#45;&gt;Aa -->
<g id="edge1" class="edge">
<title>A&#45;&gt;Aa</title>
<path fill="none" stroke="black" d="M32.08,-279.25C33.3,-320.52 42.14,-421.68 98,-477 101.27,-480.23 104.9,-483.08 108.78,-485.6"/>
<polygon fill="black" stroke="black" points="107.2,-488.72 117.63,-490.57 110.63,-482.62 107.2,-488.72"/>
</g>
<!-- Ab -->
<g id="node4" class="node">
<title>Ab</title>
<path fill="none" stroke="black" d="M271,-468C271,-468 110,-468 110,-468 104,-468 98,-462 98,-456 98,-456 98,-444 98,-444 98,-438 104,-432 110,-432 110,-432 271,-432 271,-432 277,-432 283,-438 283,-444 283,-444 283,-456 283,-456 283,-462 277,-468 271,-468"/>
<text text-anchor="middle" x="190.5" y="-446.3" font-family="Times New Roman,serif" font-size="14.00">Calling Rust from the frontend</text>
</g>
<!-- A&#45;&gt;Ab -->
<g id="edge2" class="edge">
<title>A&#45;&gt;Ab</title>
<path fill="none" stroke="black" d="M34.24,-279.24C39.34,-312.69 54.87,-383.98 98,-423 99.15,-424.04 100.34,-425.04 101.57,-426.01"/>
<polygon fill="black" stroke="black" points="99.86,-429.08 110.09,-431.82 103.8,-423.29 99.86,-429.08"/>
</g>
<!-- Ac -->
<g id="node5" class="node">
<title>Ac</title>
<path fill="none" stroke="black" d="M205.5,-414C205.5,-414 175.5,-414 175.5,-414 169.5,-414 163.5,-408 163.5,-402 163.5,-402 163.5,-390 163.5,-390 163.5,-384 169.5,-378 175.5,-378 175.5,-378 205.5,-378 205.5,-378 211.5,-378 217.5,-384 217.5,-390 217.5,-390 217.5,-402 217.5,-402 217.5,-408 211.5,-414 205.5,-414"/>
<text text-anchor="middle" x="190.5" y="-392.3" font-family="Times New Roman,serif" font-size="14.00">Events</text>
</g>
<!-- A&#45;&gt;Ac -->
<g id="edge3" class="edge">
<title>A&#45;&gt;Ac</title>
<path fill="none" stroke="black" d="M38.32,-279.15C47.63,-303.24 67.32,-345.45 98,-369 113.89,-381.2 135.19,-387.89 153.24,-391.57"/>
<polygon fill="black" stroke="black" points="152.69,-395.02 163.15,-393.36 153.93,-388.14 152.69,-395.02"/>
</g>
<!-- Ad -->
<g id="node10" class="node">
<title>Ad</title>
<path fill="none" stroke="black" d="M205.5,-360C205.5,-360 175.5,-360 175.5,-360 169.5,-360 163.5,-354 163.5,-348 163.5,-348 163.5,-336 163.5,-336 163.5,-330 169.5,-324 175.5,-324 175.5,-324 205.5,-324 205.5,-324 211.5,-324 217.5,-330 217.5,-336 217.5,-336 217.5,-348 217.5,-348 217.5,-354 211.5,-360 205.5,-360"/>
<text text-anchor="middle" x="190.5" y="-338.3" font-family="Times New Roman,serif" font-size="14.00">Icons</text>
</g>
<!-- A&#45;&gt;Ad -->
<g id="edge4" class="edge">
<title>A&#45;&gt;Ad</title>
<path fill="none" stroke="black" d="M49.9,-279.01C62.43,-290.72 80.07,-305.52 98,-315 115.26,-324.12 136.02,-330.57 153.4,-334.87"/>
<polygon fill="black" stroke="black" points="152.66,-338.29 163.19,-337.16 154.25,-331.47 152.66,-338.29"/>
</g>
<!-- Ae -->
<g id="node11" class="node">
<title>Ae</title>
<path fill="none" stroke="black" d="M228,-306C228,-306 153,-306 153,-306 147,-306 141,-300 141,-294 141,-294 141,-282 141,-282 141,-276 147,-270 153,-270 153,-270 228,-270 228,-270 234,-270 240,-276 240,-282 240,-282 240,-294 240,-294 240,-300 234,-306 228,-306"/>
<text text-anchor="middle" x="190.5" y="-284.3" font-family="Times New Roman,serif" font-size="14.00">Window Menu</text>
</g>
<!-- A&#45;&gt;Ae -->
<g id="edge5" class="edge">
<title>A&#45;&gt;Ae</title>
<path fill="none" stroke="black" d="M62.37,-266.21C81.76,-269.53 107.53,-273.95 130.81,-277.94"/>
<polygon fill="black" stroke="black" points="130.5,-281.44 140.95,-279.68 131.68,-274.54 130.5,-281.44"/>
</g>
<!-- Af -->
<g id="node12" class="node">
<title>Af</title>
<path fill="none" stroke="black" d="M224,-252C224,-252 157,-252 157,-252 151,-252 145,-246 145,-240 145,-240 145,-228 145,-228 145,-222 151,-216 157,-216 157,-216 224,-216 224,-216 230,-216 236,-222 236,-228 236,-228 236,-240 236,-240 236,-246 230,-252 224,-252"/>
<text text-anchor="middle" x="190.5" y="-230.3" font-family="Times New Roman,serif" font-size="14.00">Multiwindow</text>
</g>
<!-- A&#45;&gt;Af -->
<g id="edge6" class="edge">
<title>A&#45;&gt;Af</title>
<path fill="none" stroke="black" d="M62.37,-255.79C82.86,-252.28 110.49,-247.54 134.76,-243.38"/>
<polygon fill="black" stroke="black" points="135.65,-246.78 144.92,-241.64 134.47,-239.88 135.65,-246.78"/>
</g>
<!-- Ag -->
<g id="node13" class="node">
<title>Ag</title>
<path fill="none" stroke="black" d="M223,-198C223,-198 158,-198 158,-198 152,-198 146,-192 146,-186 146,-186 146,-174 146,-174 146,-168 152,-162 158,-162 158,-162 223,-162 223,-162 229,-162 235,-168 235,-174 235,-174 235,-186 235,-186 235,-192 229,-198 223,-198"/>
<text text-anchor="middle" x="190.5" y="-176.3" font-family="Times New Roman,serif" font-size="14.00">Tauri Plugins</text>
</g>
<!-- A&#45;&gt;Ag -->
<g id="edge7" class="edge">
<title>A&#45;&gt;Ag</title>
<path fill="none" stroke="black" d="M49.9,-242.99C62.43,-231.28 80.07,-216.48 98,-207 109.78,-200.77 123.2,-195.79 136.06,-191.89"/>
<polygon fill="black" stroke="black" points="137.1,-195.23 145.75,-189.11 135.18,-188.5 137.1,-195.23"/>
</g>
<!-- Ah -->
<g id="node14" class="node">
<title>Ah</title>
<path fill="none" stroke="black" d="M222,-144C222,-144 159,-144 159,-144 153,-144 147,-138 147,-132 147,-132 147,-120 147,-120 147,-114 153,-108 159,-108 159,-108 222,-108 222,-108 228,-108 234,-114 234,-120 234,-120 234,-132 234,-132 234,-138 228,-144 222,-144"/>
<text text-anchor="middle" x="190.5" y="-122.3" font-family="Times New Roman,serif" font-size="14.00">Splashscreen</text>
</g>
<!-- A&#45;&gt;Ah -->
<g id="edge8" class="edge">
<title>A&#45;&gt;Ah</title>
<path fill="none" stroke="black" d="M38.32,-242.85C47.63,-218.76 67.32,-176.55 98,-153 109.31,-144.32 123.37,-138.42 137.04,-134.42"/>
<polygon fill="black" stroke="black" points="138.1,-137.76 146.88,-131.83 136.32,-130.99 138.1,-137.76"/>
</g>
<!-- Ai -->
<g id="node15" class="node">
<title>Ai</title>
<path fill="none" stroke="black" d="M221.5,-90C221.5,-90 159.5,-90 159.5,-90 153.5,-90 147.5,-84 147.5,-78 147.5,-78 147.5,-66 147.5,-66 147.5,-60 153.5,-54 159.5,-54 159.5,-54 221.5,-54 221.5,-54 227.5,-54 233.5,-60 233.5,-66 233.5,-66 233.5,-78 233.5,-78 233.5,-84 227.5,-90 221.5,-90"/>
<text text-anchor="middle" x="190.5" y="-68.3" font-family="Times New Roman,serif" font-size="14.00">System Tray</text>
</g>
<!-- A&#45;&gt;Ai -->
<g id="edge9" class="edge">
<title>A&#45;&gt;Ai</title>
<path fill="none" stroke="black" d="M34.24,-242.76C39.34,-209.31 54.87,-138.02 98,-99 108.98,-89.07 123.44,-82.78 137.62,-78.8"/>
<polygon fill="black" stroke="black" points="138.48,-82.2 147.35,-76.4 136.8,-75.4 138.48,-82.2"/>
</g>
<!-- Aj -->
<g id="node16" class="node">
<title>Aj</title>
<path fill="none" stroke="black" d="M251.5,-36C251.5,-36 129.5,-36 129.5,-36 123.5,-36 117.5,-30 117.5,-24 117.5,-24 117.5,-12 117.5,-12 117.5,-6 123.5,0 129.5,0 129.5,0 251.5,0 251.5,0 257.5,0 263.5,-6 263.5,-12 263.5,-12 263.5,-24 263.5,-24 263.5,-30 257.5,-36 251.5,-36"/>
<text text-anchor="middle" x="190.5" y="-14.3" font-family="Times New Roman,serif" font-size="14.00">Window Customization</text>
</g>
<!-- A&#45;&gt;Aj -->
<g id="edge10" class="edge">
<title>A&#45;&gt;Aj</title>
<path fill="none" stroke="black" d="M32.08,-242.75C33.3,-201.48 42.14,-100.32 98,-45 101.11,-41.92 104.56,-39.19 108.23,-36.76"/>
<polygon fill="black" stroke="black" points="110.23,-39.65 117.18,-31.65 106.76,-33.57 110.23,-39.65"/>
</g>
<!-- Aaa -->
<g id="node3" class="node">
<title>Aaa</title>
<path fill="none" stroke="black" d="M428.5,-522C428.5,-522 357.5,-522 357.5,-522 351.5,-522 345.5,-516 345.5,-510 345.5,-510 345.5,-498 345.5,-498 345.5,-492 351.5,-486 357.5,-486 357.5,-486 428.5,-486 428.5,-486 434.5,-486 440.5,-492 440.5,-498 440.5,-498 440.5,-510 440.5,-510 440.5,-516 434.5,-522 428.5,-522"/>
<text text-anchor="middle" x="393" y="-500.3" font-family="Times New Roman,serif" font-size="14.00">tauri.conf.json</text>
</g>
<!-- Aa&#45;&gt;Aaa -->
<g id="edge11" class="edge">
<title>Aa&#45;&gt;Aaa</title>
<path fill="none" stroke="black" d="M263.04,-504C286.73,-504 312.77,-504 335.21,-504"/>
<polygon fill="black" stroke="black" points="335.24,-507.5 345.24,-504 335.24,-500.5 335.24,-507.5"/>
</g>
<!-- Aca -->
<g id="node6" class="node">
<title>Aca</title>
<path fill="none" stroke="black" d="M413.5,-468C413.5,-468 372.5,-468 372.5,-468 366.5,-468 360.5,-462 360.5,-456 360.5,-456 360.5,-444 360.5,-444 360.5,-438 366.5,-432 372.5,-432 372.5,-432 413.5,-432 413.5,-432 419.5,-432 425.5,-438 425.5,-444 425.5,-444 425.5,-456 425.5,-456 425.5,-462 419.5,-468 413.5,-468"/>
<text text-anchor="middle" x="393" y="-446.3" font-family="Times New Roman,serif" font-size="14.00">Frontend</text>
</g>
<!-- Ac&#45;&gt;Aca -->
<g id="edge12" class="edge">
<title>Ac&#45;&gt;Aca</title>
<path fill="none" stroke="black" d="M217.71,-403.06C251.57,-412.18 310.88,-428.15 350.8,-438.9"/>
<polygon fill="black" stroke="black" points="349.93,-442.3 360.5,-441.52 351.75,-435.54 349.93,-442.3"/>
</g>
<!-- Acb -->
<g id="node7" class="node">
<title>Acb</title>
<path fill="none" stroke="black" d="M427,-414C427,-414 359,-414 359,-414 353,-414 347,-408 347,-402 347,-402 347,-390 347,-390 347,-384 353,-378 359,-378 359,-378 427,-378 427,-378 433,-378 439,-384 439,-390 439,-390 439,-402 439,-402 439,-408 433,-414 427,-414"/>
<text text-anchor="middle" x="393" y="-392.3" font-family="Times New Roman,serif" font-size="14.00">Global events</text>
</g>
<!-- Ac&#45;&gt;Acb -->
<g id="edge14" class="edge">
<title>Ac&#45;&gt;Acb</title>
<path fill="none" stroke="black" d="M218.5,-392C218.5,-392 285.86,-393.55 336.64,-394.72"/>
<polygon fill="black" stroke="black" points="336.79,-398.23 346.87,-394.96 336.95,-391.23 336.79,-398.23"/>
</g>
<!-- Acc -->
<g id="node8" class="node">
<title>Acc</title>
<path fill="none" stroke="black" d="M455,-360C455,-360 331,-360 331,-360 325,-360 319,-354 319,-348 319,-348 319,-336 319,-336 319,-330 325,-324 331,-324 331,-324 455,-324 455,-324 461,-324 467,-330 467,-336 467,-336 467,-348 467,-348 467,-354 461,-360 455,-360"/>
<text text-anchor="middle" x="393" y="-338.3" font-family="Times New Roman,serif" font-size="14.00">Window&#45;specific events</text>
</g>
<!-- Ac&#45;&gt;Acc -->
<g id="edge15" class="edge">
<title>Ac&#45;&gt;Acc</title>
<path fill="none" stroke="black" d="M218.5,-392C218.5,-392 272.04,-376.57 319.63,-362.86"/>
<polygon fill="black" stroke="black" points="320.72,-366.18 329.36,-360.05 318.78,-359.46 320.72,-366.18"/>
</g>
<!-- Acd -->
<g id="node9" class="node">
<title>Acd</title>
<path fill="none" stroke="black" d="M415,-306C415,-306 371,-306 371,-306 365,-306 359,-300 359,-294 359,-294 359,-282 359,-282 359,-276 365,-270 371,-270 371,-270 415,-270 415,-270 421,-270 427,-276 427,-282 427,-282 427,-294 427,-294 427,-300 421,-306 415,-306"/>
<text text-anchor="middle" x="393" y="-284.3" font-family="Times New Roman,serif" font-size="14.00">Backend </text>
</g>
<!-- Ac&#45;&gt;Acd -->
<g id="edge13" class="edge">
<title>Ac&#45;&gt;Acd</title>
<path fill="none" stroke="black" d="M217.69,-393.14C237.25,-389.92 263.8,-383.14 283,-369 306.22,-351.89 296.36,-332.88 319,-315 327.85,-308.01 338.69,-302.71 349.28,-298.74"/>
<polygon fill="black" stroke="black" points="350.54,-302 358.87,-295.45 348.27,-295.38 350.54,-302"/>
</g>
</g>
</svg>
