<?xml version="1.0" encoding="UTF-8" standalone="no"?>
<!DOCTYPE svg PUBLIC "-//W3C//DTD SVG 1.1//EN"
 "http://www.w3.org/Graphics/SVG/1.1/DTD/svg11.dtd">
<!-- Generated by graphviz version 2.50.0 (0)
 -->
<!-- Pages: 1 -->
<svg width="505pt" height="206pt"
 viewBox="0.00 0.00 505.00 206.00" xmlns="http://www.w3.org/2000/svg" xmlns:xlink="http://www.w3.org/1999/xlink">
<g id="graph0" class="graph" transform="scale(1 1) rotate(0) translate(4 202)">
<polygon fill="white" stroke="transparent" points="-4,4 -4,-202 501,-202 501,4 -4,4"/>
<!-- A -->
<g id="node1" class="node">
<title>A</title>
<path fill="none" stroke="black" d="M42,-90C42,-90 12,-90 12,-90 6,-90 0,-84 0,-78 0,-78 0,-66 0,-66 0,-60 6,-54 12,-54 12,-54 42,-54 42,-54 48,-54 54,-60 54,-66 54,-66 54,-78 54,-78 54,-84 48,-90 42,-90"/>
<text text-anchor="middle" x="27" y="-68.3" font-family="Times New Roman,serif" font-size="14.00">Tauri</text>
</g>
<!-- Aa -->
<g id="node2" class="node">
<title>Aa</title>
<path fill="none" stroke="black" d="M144,-144C144,-144 102,-144 102,-144 96,-144 90,-138 90,-132 90,-132 90,-120 90,-120 90,-114 96,-108 102,-108 102,-108 144,-108 144,-108 150,-108 156,-114 156,-120 156,-120 156,-132 156,-132 156,-138 150,-144 144,-144"/>
<text text-anchor="middle" x="123" y="-122.3" font-family="Times New Roman,serif" font-size="14.00"> Window</text>
</g>
<!-- A&#45;&gt;Aa -->
<g id="edge1" class="edge">
<title>A&#45;&gt;Aa</title>
<path fill="none" stroke="black" d="M54.18,-87.04C62.75,-91.96 72.47,-97.54 81.82,-102.92"/>
<polygon fill="black" stroke="black" points="80.2,-106.03 90.62,-107.97 83.69,-99.96 80.2,-106.03"/>
</g>
<!-- Ab -->
<g id="node5" class="node">
<title>Ab</title>
<path fill="none" stroke="black" d="M138,-90C138,-90 108,-90 108,-90 102,-90 96,-84 96,-78 96,-78 96,-66 96,-66 96,-60 102,-54 108,-54 108,-54 138,-54 138,-54 144,-54 150,-60 150,-66 150,-66 150,-78 150,-78 150,-84 144,-90 138,-90"/>
<text text-anchor="middle" x="123" y="-68.3" font-family="Times New Roman,serif" font-size="14.00"> Linux</text>
</g>
<!-- A&#45;&gt;Ab -->
<g id="edge4" class="edge">
<title>A&#45;&gt;Ab</title>
<path fill="none" stroke="black" d="M54.18,-72C63.96,-72 75.25,-72 85.77,-72"/>
<polygon fill="black" stroke="black" points="85.96,-75.5 95.96,-72 85.96,-68.5 85.96,-75.5"/>
</g>
<!-- Ac -->
<g id="node7" class="node">
<title>Ac</title>
<path fill="none" stroke="black" d="M138,-36C138,-36 108,-36 108,-36 102,-36 96,-30 96,-24 96,-24 96,-12 96,-12 96,-6 102,0 108,0 108,0 138,0 138,0 144,0 150,-6 150,-12 150,-12 150,-24 150,-24 150,-30 144,-36 138,-36"/>
<text text-anchor="middle" x="123" y="-14.3" font-family="Times New Roman,serif" font-size="14.00">Rust</text>
</g>
<!-- A&#45;&gt;Ac -->
<g id="edge6" class="edge">
<title>A&#45;&gt;Ac</title>
<path fill="none" stroke="black" d="M54.18,-56.96C64.37,-51.11 76.19,-44.32 87.08,-38.06"/>
<polygon fill="black" stroke="black" points="89.03,-40.98 95.96,-32.96 85.54,-34.91 89.03,-40.98"/>
</g>
<!-- Aaa -->
<g id="node3" class="node">
<title>Aaa</title>
<path fill="none" stroke="black" d="M454,-198C454,-198 235,-198 235,-198 229,-198 223,-192 223,-186 223,-186 223,-174 223,-174 223,-168 229,-162 235,-162 235,-162 454,-162 454,-162 460,-162 466,-168 466,-174 466,-174 466,-186 466,-186 466,-192 460,-198 454,-198"/>
<text text-anchor="middle" x="344.5" y="-176.3" font-family="Times New Roman,serif" font-size="14.00">Microsoft Visual Studio C++ Build Tools</text>
</g>
<!-- Aa&#45;&gt;Aaa -->
<g id="edge2" class="edge">
<title>Aa&#45;&gt;Aaa</title>
<path fill="none" stroke="black" d="M156.05,-140.27C167.26,-144.84 180.03,-149.59 192,-153 200.4,-155.39 209.13,-157.61 217.96,-159.66"/>
<polygon fill="black" stroke="black" points="217.44,-163.14 227.96,-161.91 218.98,-156.31 217.44,-163.14"/>
</g>
<!-- Aab -->
<g id="node4" class="node">
<title>Aab</title>
<path fill="none" stroke="black" d="M371,-144C371,-144 318,-144 318,-144 312,-144 306,-138 306,-132 306,-132 306,-120 306,-120 306,-114 312,-108 318,-108 318,-108 371,-108 371,-108 377,-108 383,-114 383,-120 383,-120 383,-132 383,-132 383,-138 377,-144 371,-144"/>
<text text-anchor="middle" x="344.5" y="-122.3" font-family="Times New Roman,serif" font-size="14.00">WebView2</text>
</g>
<!-- Aa&#45;&gt;Aab -->
<g id="edge3" class="edge">
<title>Aa&#45;&gt;Aab</title>
<path fill="none" stroke="black" d="M156.39,-126C193.18,-126 253.59,-126 295.78,-126"/>
<polygon fill="black" stroke="black" points="295.82,-129.5 305.82,-126 295.82,-122.5 295.82,-129.5"/>
</g>
<!-- Aba -->
<g id="node6" class="node">
<title>Aba</title>
<path fill="none" stroke="black" d="M485,-90C485,-90 204,-90 204,-90 198,-90 192,-84 192,-78 192,-78 192,-66 192,-66 192,-60 198,-54 204,-54 204,-54 485,-54 485,-54 491,-54 497,-60 497,-66 497,-66 497,-78 497,-78 497,-84 491,-90 485,-90"/>
<text text-anchor="middle" x="344.5" y="-68.3" font-family="Times New Roman,serif" font-size="14.00">build&#45;essential;libwebkit2gtk&#45;4.0&#45;dev;libgtk&#45;3&#45;dev;...</text>
</g>
<!-- Ab&#45;&gt;Aba -->
<g id="edge5" class="edge">
<title>Ab&#45;&gt;Aba</title>
<path fill="none" stroke="black" d="M150.04,-72C159,-72 169.8,-72 181.64,-72"/>
<polygon fill="black" stroke="black" points="181.83,-75.5 191.83,-72 181.83,-68.5 181.83,-75.5"/>
</g>
</g>
</svg>
