<?xml version="1.0" encoding="UTF-8" standalone="no"?>
<!DOCTYPE svg PUBLIC "-//W3C//DTD SVG 1.1//EN"
 "http://www.w3.org/Graphics/SVG/1.1/DTD/svg11.dtd">
<!-- Generated by graphviz version 2.50.0 (0)
 -->
<!-- Pages: 1 -->
<svg width="581pt" height="368pt"
 viewBox="0.00 0.00 581.00 368.00" xmlns="http://www.w3.org/2000/svg" xmlns:xlink="http://www.w3.org/1999/xlink">
<g id="graph0" class="graph" transform="scale(1 1) rotate(0) translate(4 364)">
<polygon fill="white" stroke="transparent" points="-4,4 -4,-364 577,-364 577,4 -4,4"/>
<!-- aa -->
<g id="node1" class="node">
<title>aa</title>
<path fill="none" stroke="black" d="M161,-90C161,-90 12,-90 12,-90 6,-90 0,-84 0,-78 0,-78 0,-66 0,-66 0,-60 6,-54 12,-54 12,-54 161,-54 161,-54 167,-54 173,-60 173,-66 173,-66 173,-78 173,-78 173,-84 167,-90 161,-90"/>
<text text-anchor="middle" x="86.5" y="-68.3" font-family="Times New Roman,serif" font-size="14.00">cargo install create&#45;tauri&#45;app</text>
</g>
<!-- ab -->
<g id="node2" class="node">
<title>ab</title>
<path fill="none" stroke="black" d="M335,-90C335,-90 223,-90 223,-90 217,-90 211,-84 211,-78 211,-78 211,-66 211,-66 211,-60 217,-54 223,-54 223,-54 335,-54 335,-54 341,-54 347,-60 347,-66 347,-66 347,-78 347,-78 347,-84 341,-90 335,-90"/>
<text text-anchor="middle" x="279" y="-68.3" font-family="Times New Roman,serif" font-size="14.00">cargo create&#45;tauri&#45;app</text>
</g>
<!-- aa&#45;&gt;ab -->
<g id="edge1" class="edge">
<title>aa&#45;&gt;ab</title>
<path fill="none" stroke="black" d="M173.28,-72C182.46,-72 191.76,-72 200.84,-72"/>
<polygon fill="black" stroke="black" points="200.97,-75.5 210.97,-72 200.97,-68.5 200.97,-75.5"/>
</g>
<!-- ac -->
<g id="node3" class="node">
<title>ac</title>
<path fill="none" stroke="black" d="M464.5,-90C464.5,-90 403.5,-90 403.5,-90 397.5,-90 391.5,-84 391.5,-78 391.5,-78 391.5,-66 391.5,-66 391.5,-60 397.5,-54 403.5,-54 403.5,-54 464.5,-54 464.5,-54 470.5,-54 476.5,-60 476.5,-66 476.5,-66 476.5,-78 476.5,-78 476.5,-84 470.5,-90 464.5,-90"/>
<text text-anchor="middle" x="434" y="-68.3" font-family="Times New Roman,serif" font-size="14.00">Frameworks</text>
</g>
<!-- ab&#45;&gt;ac -->
<g id="edge2" class="edge">
<title>ab&#45;&gt;ac</title>
<path fill="none" stroke="black" d="M347.11,-72C358.55,-72 370.27,-72 381.23,-72"/>
<polygon fill="black" stroke="black" points="381.48,-75.5 391.48,-72 381.48,-68.5 381.48,-75.5"/>
</g>
<!-- React -->
<g id="node4" class="node">
<title>React</title>
<path fill="none" stroke="black" d="M561,-144C561,-144 531,-144 531,-144 525,-144 519,-138 519,-132 519,-132 519,-120 519,-120 519,-114 525,-108 531,-108 531,-108 561,-108 561,-108 567,-108 573,-114 573,-120 573,-120 573,-132 573,-132 573,-138 567,-144 561,-144"/>
<text text-anchor="middle" x="546" y="-122.3" font-family="Times New Roman,serif" font-size="14.00">React</text>
</g>
<!-- ac&#45;&gt;React -->
<g id="edge3" class="edge">
<title>ac&#45;&gt;React</title>
<path fill="none" stroke="black" d="M471.93,-90.13C484.05,-96.08 497.48,-102.67 509.49,-108.57"/>
<polygon fill="black" stroke="black" points="508.24,-111.85 518.76,-113.12 511.33,-105.57 508.24,-111.85"/>
</g>
<!-- Svelte -->
<g id="node5" class="node">
<title>Svelte</title>
<path fill="none" stroke="black" d="M561,-90C561,-90 531,-90 531,-90 525,-90 519,-84 519,-78 519,-78 519,-66 519,-66 519,-60 525,-54 531,-54 531,-54 561,-54 561,-54 567,-54 573,-60 573,-66 573,-66 573,-78 573,-78 573,-84 567,-90 561,-90"/>
<text text-anchor="middle" x="546" y="-68.3" font-family="Times New Roman,serif" font-size="14.00">Svelte</text>
</g>
<!-- ac&#45;&gt;Svelte -->
<g id="edge4" class="edge">
<title>ac&#45;&gt;Svelte</title>
<path fill="none" stroke="black" d="M476.59,-72C487.15,-72 498.42,-72 508.7,-72"/>
<polygon fill="black" stroke="black" points="508.99,-75.5 518.99,-72 508.99,-68.5 508.99,-75.5"/>
</g>
<!-- Yew -->
<g id="node6" class="node">
<title>Yew</title>
<path fill="none" stroke="black" d="M561,-36C561,-36 531,-36 531,-36 525,-36 519,-30 519,-24 519,-24 519,-12 519,-12 519,-6 525,0 531,0 531,0 561,0 561,0 567,0 573,-6 573,-12 573,-12 573,-24 573,-24 573,-30 567,-36 561,-36"/>
<text text-anchor="middle" x="546" y="-14.3" font-family="Times New Roman,serif" font-size="14.00">Yew</text>
</g>
<!-- ac&#45;&gt;Yew -->
<g id="edge5" class="edge">
<title>ac&#45;&gt;Yew</title>
<path fill="none" stroke="black" d="M471.93,-53.87C484.05,-47.92 497.48,-41.33 509.49,-35.43"/>
<polygon fill="black" stroke="black" points="511.33,-38.43 518.76,-30.88 508.24,-32.15 511.33,-38.43"/>
</g>
<!-- ba -->
<g id="node7" class="node">
<title>ba</title>
<path fill="none" stroke="black" d="M139.5,-144C139.5,-144 33.5,-144 33.5,-144 27.5,-144 21.5,-138 21.5,-132 21.5,-132 21.5,-120 21.5,-120 21.5,-114 27.5,-108 33.5,-108 33.5,-108 139.5,-108 139.5,-108 145.5,-108 151.5,-114 151.5,-120 151.5,-120 151.5,-132 151.5,-132 151.5,-138 145.5,-144 139.5,-144"/>
<text text-anchor="middle" x="86.5" y="-122.3" font-family="Times New Roman,serif" font-size="14.00">cargo install tauri&#45;cli</text>
</g>
<!-- bb -->
<g id="node8" class="node">
<title>bb</title>
<path fill="none" stroke="black" d="M315.5,-144C315.5,-144 242.5,-144 242.5,-144 236.5,-144 230.5,-138 230.5,-132 230.5,-132 230.5,-120 230.5,-120 230.5,-114 236.5,-108 242.5,-108 242.5,-108 315.5,-108 315.5,-108 321.5,-108 327.5,-114 327.5,-120 327.5,-120 327.5,-132 327.5,-132 327.5,-138 321.5,-144 315.5,-144"/>
<text text-anchor="middle" x="279" y="-122.3" font-family="Times New Roman,serif" font-size="14.00">cargo tauri init</text>
</g>
<!-- ba&#45;&gt;bb -->
<g id="edge6" class="edge">
<title>ba&#45;&gt;bb</title>
<path fill="none" stroke="black" d="M151.73,-126C173.92,-126 198.64,-126 220.28,-126"/>
<polygon fill="black" stroke="black" points="220.3,-129.5 230.3,-126 220.3,-122.5 220.3,-129.5"/>
</g>
<!-- bc -->
<g id="node9" class="node">
<title>bc</title>
<path fill="none" stroke="black" d="M471,-144C471,-144 397,-144 397,-144 391,-144 385,-138 385,-132 385,-132 385,-120 385,-120 385,-114 391,-108 397,-108 397,-108 471,-108 471,-108 477,-108 483,-114 483,-120 483,-120 483,-132 483,-132 483,-138 477,-144 471,-144"/>
<text text-anchor="middle" x="434" y="-122.3" font-family="Times New Roman,serif" font-size="14.00">cargo tauri dev</text>
</g>
<!-- bb&#45;&gt;bc -->
<g id="edge7" class="edge">
<title>bb&#45;&gt;bc</title>
<path fill="none" stroke="black" d="M327.57,-126C342.54,-126 359.24,-126 374.85,-126"/>
<polygon fill="black" stroke="black" points="374.93,-129.5 384.93,-126 374.93,-122.5 374.93,-129.5"/>
</g>
<!-- ca -->
<g id="node10" class="node">
<title>ca</title>
<path fill="none" stroke="black" d="M101.5,-279C101.5,-279 71.5,-279 71.5,-279 65.5,-279 59.5,-273 59.5,-267 59.5,-267 59.5,-255 59.5,-255 59.5,-249 65.5,-243 71.5,-243 71.5,-243 101.5,-243 101.5,-243 107.5,-243 113.5,-249 113.5,-255 113.5,-255 113.5,-267 113.5,-267 113.5,-273 107.5,-279 101.5,-279"/>
<text text-anchor="middle" x="86.5" y="-257.3" font-family="Times New Roman,serif" font-size="14.00">Yew</text>
</g>
<!-- Component Based -->
<g id="node11" class="node">
<title>Component Based</title>
<path fill="none" stroke="black" d="M325.5,-360C325.5,-360 232.5,-360 232.5,-360 226.5,-360 220.5,-354 220.5,-348 220.5,-348 220.5,-336 220.5,-336 220.5,-330 226.5,-324 232.5,-324 232.5,-324 325.5,-324 325.5,-324 331.5,-324 337.5,-330 337.5,-336 337.5,-336 337.5,-348 337.5,-348 337.5,-354 331.5,-360 325.5,-360"/>
<text text-anchor="middle" x="279" y="-338.3" font-family="Times New Roman,serif" font-size="14.00">Component Based</text>
</g>
<!-- ca&#45;&gt;Component Based -->
<g id="edge8" class="edge">
<title>ca&#45;&gt;Component Based</title>
<path fill="none" stroke="black" d="M113.9,-273.15C138.41,-284.32 175.98,-301.21 209,-315 213.12,-316.72 217.39,-318.47 221.69,-320.21"/>
<polygon fill="black" stroke="black" points="220.53,-323.52 231.12,-323.98 223.14,-317.02 220.53,-323.52"/>
</g>
<!-- HTML macro -->
<g id="node12" class="node">
<title>HTML macro</title>
<path fill="none" stroke="black" d="M314,-306C314,-306 244,-306 244,-306 238,-306 232,-300 232,-294 232,-294 232,-282 232,-282 232,-276 238,-270 244,-270 244,-270 314,-270 314,-270 320,-270 326,-276 326,-282 326,-282 326,-294 326,-294 326,-300 320,-306 314,-306"/>
<text text-anchor="middle" x="279" y="-284.3" font-family="Times New Roman,serif" font-size="14.00">HTML macro</text>
</g>
<!-- ca&#45;&gt;HTML macro -->
<g id="edge9" class="edge">
<title>ca&#45;&gt;HTML macro</title>
<path fill="none" stroke="black" d="M113.59,-264.7C141.23,-268.61 185.72,-274.92 221.46,-279.99"/>
<polygon fill="black" stroke="black" points="221.37,-283.51 231.76,-281.45 222.35,-276.58 221.37,-283.51"/>
</g>
<!-- Server Side Rendering -->
<g id="node13" class="node">
<title>Server Side Rendering</title>
<path fill="none" stroke="black" d="M337,-252C337,-252 221,-252 221,-252 215,-252 209,-246 209,-240 209,-240 209,-228 209,-228 209,-222 215,-216 221,-216 221,-216 337,-216 337,-216 343,-216 349,-222 349,-228 349,-228 349,-240 349,-240 349,-246 343,-252 337,-252"/>
<text text-anchor="middle" x="279" y="-230.3" font-family="Times New Roman,serif" font-size="14.00">Server Side Rendering</text>
</g>
<!-- ca&#45;&gt;Server Side Rendering -->
<g id="edge10" class="edge">
<title>ca&#45;&gt;Server Side Rendering</title>
<path fill="none" stroke="black" d="M113.59,-257.3C135.56,-254.19 168.19,-249.56 198.6,-245.25"/>
<polygon fill="black" stroke="black" points="199.39,-248.68 208.8,-243.81 198.41,-241.75 199.39,-248.68"/>
</g>
<!-- Rust -->
<g id="node14" class="node">
<title>Rust</title>
<path fill="none" stroke="black" d="M294,-198C294,-198 264,-198 264,-198 258,-198 252,-192 252,-186 252,-186 252,-174 252,-174 252,-168 258,-162 264,-162 264,-162 294,-162 294,-162 300,-162 306,-168 306,-174 306,-174 306,-186 306,-186 306,-192 300,-198 294,-198"/>
<text text-anchor="middle" x="279" y="-176.3" font-family="Times New Roman,serif" font-size="14.00">Rust</text>
</g>
<!-- ca&#45;&gt;Rust -->
<g id="edge11" class="edge">
<title>ca&#45;&gt;Rust</title>
<path fill="none" stroke="black" d="M113.9,-248.85C138.41,-237.68 175.98,-220.79 209,-207 219.72,-202.52 231.47,-197.84 242.19,-193.66"/>
<polygon fill="black" stroke="black" points="243.62,-196.86 251.68,-189.98 241.09,-190.33 243.62,-196.86"/>
</g>
</g>
</svg>
