<?xml version="1.0" encoding="UTF-8" standalone="no"?>
<!DOCTYPE svg PUBLIC "-//W3C//DTD SVG 1.1//EN"
 "http://www.w3.org/Graphics/SVG/1.1/DTD/svg11.dtd">
<!-- Generated by graphviz version 2.50.0 (0)
 -->
<!-- Pages: 1 -->
<svg width="476pt" height="98pt"
 viewBox="0.00 0.00 476.00 98.00" xmlns="http://www.w3.org/2000/svg" xmlns:xlink="http://www.w3.org/1999/xlink">
<g id="graph0" class="graph" transform="scale(1 1) rotate(0) translate(4 94)">
<polygon fill="white" stroke="transparent" points="-4,4 -4,-94 472,-94 472,4 -4,4"/>
<!-- install -->
<g id="node1" class="node">
<title>install</title>
<path fill="none" stroke="black" d="M149,-36C149,-36 12,-36 12,-36 6,-36 0,-30 0,-24 0,-24 0,-12 0,-12 0,-6 6,0 12,0 12,0 149,0 149,0 155,0 161,-6 161,-12 161,-12 161,-24 161,-24 161,-30 155,-36 149,-36"/>
<text text-anchor="middle" x="80.5" y="-14.3" font-family="Times New Roman,serif" font-size="14.00">npm install &#45;D tailwindcss</text>
</g>
<!-- init -->
<g id="node2" class="node">
<title>init</title>
<path fill="none" stroke="black" d="M308,-36C308,-36 209,-36 209,-36 203,-36 197,-30 197,-24 197,-24 197,-12 197,-12 197,-6 203,0 209,0 209,0 308,0 308,0 314,0 320,-6 320,-12 320,-12 320,-24 320,-24 320,-30 314,-36 308,-36"/>
<text text-anchor="middle" x="258.5" y="-14.3" font-family="Times New Roman,serif" font-size="14.00">npx tailwindcss init</text>
</g>
<!-- install&#45;&gt;init -->
<g id="edge1" class="edge">
<title>install&#45;&gt;init</title>
<path fill="none" stroke="black" d="M161,-18C169.55,-18 178.21,-18 186.65,-18"/>
<polygon fill="black" stroke="black" points="186.81,-21.5 196.81,-18 186.81,-14.5 186.81,-21.5"/>
</g>
<!-- config -->
<g id="node3" class="node">
<title>config</title>
<path fill="none" stroke="black" d="M456,-36C456,-36 368,-36 368,-36 362,-36 356,-30 356,-24 356,-24 356,-12 356,-12 356,-6 362,0 368,0 368,0 456,0 456,0 462,0 468,-6 468,-12 468,-12 468,-24 468,-24 468,-30 462,-36 456,-36"/>
<text text-anchor="middle" x="412" y="-14.3" font-family="Times New Roman,serif" font-size="14.00">tailwind.config.js</text>
</g>
<!-- init&#45;&gt;config -->
<g id="edge2" class="edge">
<title>init&#45;&gt;config</title>
<path fill="none" stroke="black" d="M320.25,-18C328.56,-18 337.12,-18 345.51,-18"/>
<polygon fill="black" stroke="black" points="345.63,-21.5 355.63,-18 345.63,-14.5 345.63,-21.5"/>
</g>
<!-- input -->
<g id="node4" class="node">
<title>input</title>
<path fill="none" stroke="black" d="M101,-90C101,-90 60,-90 60,-90 54,-90 48,-84 48,-78 48,-78 48,-66 48,-66 48,-60 54,-54 60,-54 60,-54 101,-54 101,-54 107,-54 113,-60 113,-66 113,-66 113,-78 113,-78 113,-84 107,-90 101,-90"/>
<text text-anchor="middle" x="80.5" y="-68.3" font-family="Times New Roman,serif" font-size="14.00">input.css</text>
</g>
</g>
</svg>
