<?xml version="1.0" encoding="UTF-8" standalone="no"?>
<!DOCTYPE svg PUBLIC "-//W3C//DTD SVG 1.1//EN"
 "http://www.w3.org/Graphics/SVG/1.1/DTD/svg11.dtd">
<!-- Generated by graphviz version 3.0.0 (20220226.1711)
 -->
<!-- Pages: 1 -->
<svg width="480pt" height="1394pt"
 viewBox="0.00 0.00 480.00 1394.00" xmlns="http://www.w3.org/2000/svg" xmlns:xlink="http://www.w3.org/1999/xlink">
<g id="graph0" class="graph" transform="scale(1 1) rotate(0) translate(4 1390)">
<polygon fill="white" stroke="transparent" points="-4,4 -4,-1390 476,-1390 476,4 -4,4"/>
<!-- PlantUML -->
<g id="node1" class="node">
<title>PlantUML</title>
<path fill="none" stroke="black" d="M88,-252C88,-252 38,-252 38,-252 32,-252 26,-246 26,-240 26,-240 26,-228 26,-228 26,-222 32,-216 38,-216 38,-216 88,-216 88,-216 94,-216 100,-222 100,-228 100,-228 100,-240 100,-240 100,-246 94,-252 88,-252"/>
<text text-anchor="middle" x="63" y="-230.3" font-family="Times New Roman,serif" font-size="14.00">PlantUML</text>
</g>
<!-- Sequence diagram -->
<g id="node2" class="node">
<title>Sequence diagram</title>
<path fill="none" stroke="black" d="M364.5,-468C364.5,-468 269.5,-468 269.5,-468 263.5,-468 257.5,-462 257.5,-456 257.5,-456 257.5,-444 257.5,-444 257.5,-438 263.5,-432 269.5,-432 269.5,-432 364.5,-432 364.5,-432 370.5,-432 376.5,-438 376.5,-444 376.5,-444 376.5,-456 376.5,-456 376.5,-462 370.5,-468 364.5,-468"/>
<text text-anchor="middle" x="317" y="-446.3" font-family="Times New Roman,serif" font-size="14.00">Sequence diagram</text>
</g>
<!-- PlantUML&#45;&gt;Sequence diagram -->
<g id="edge1" class="edge">
<title>PlantUML&#45;&gt;Sequence diagram</title>
<path fill="none" stroke="black" d="M67.73,-252.04C76.64,-290.32 103,-379.71 162,-423 186.37,-440.88 218.69,-448.32 247.42,-451.01"/>
<polygon fill="black" stroke="black" points="247.17,-454.5 257.41,-451.77 247.71,-447.52 247.17,-454.5"/>
</g>
<!-- Usecase diagram -->
<g id="node3" class="node">
<title>Usecase diagram</title>
<path fill="none" stroke="black" d="M360.5,-414C360.5,-414 273.5,-414 273.5,-414 267.5,-414 261.5,-408 261.5,-402 261.5,-402 261.5,-390 261.5,-390 261.5,-384 267.5,-378 273.5,-378 273.5,-378 360.5,-378 360.5,-378 366.5,-378 372.5,-384 372.5,-390 372.5,-390 372.5,-402 372.5,-402 372.5,-408 366.5,-414 360.5,-414"/>
<text text-anchor="middle" x="317" y="-392.3" font-family="Times New Roman,serif" font-size="14.00">Usecase diagram</text>
</g>
<!-- PlantUML&#45;&gt;Usecase diagram -->
<g id="edge2" class="edge">
<title>PlantUML&#45;&gt;Usecase diagram</title>
<path fill="none" stroke="black" d="M71.73,-252.36C85.28,-282.13 116.31,-340.47 162,-369 188.46,-385.53 222.21,-392.66 251.37,-395.49"/>
<polygon fill="black" stroke="black" points="251.21,-398.99 261.47,-396.33 251.79,-392.02 251.21,-398.99"/>
</g>
<!-- Class diagram -->
<g id="node4" class="node">
<title>Class diagram</title>
<path fill="none" stroke="black" d="M352.5,-360C352.5,-360 281.5,-360 281.5,-360 275.5,-360 269.5,-354 269.5,-348 269.5,-348 269.5,-336 269.5,-336 269.5,-330 275.5,-324 281.5,-324 281.5,-324 352.5,-324 352.5,-324 358.5,-324 364.5,-330 364.5,-336 364.5,-336 364.5,-348 364.5,-348 364.5,-354 358.5,-360 352.5,-360"/>
<text text-anchor="middle" x="317" y="-338.3" font-family="Times New Roman,serif" font-size="14.00">Class diagram</text>
</g>
<!-- PlantUML&#45;&gt;Class diagram -->
<g id="edge3" class="edge">
<title>PlantUML&#45;&gt;Class diagram</title>
<path fill="none" stroke="black" d="M80.47,-252.34C98.53,-271.21 129.33,-299.93 162,-315 192.32,-328.98 229.05,-335.76 259.04,-339.03"/>
<polygon fill="black" stroke="black" points="259.05,-342.55 269.34,-340.05 259.73,-335.58 259.05,-342.55"/>
</g>
<!-- Object diagram -->
<g id="node5" class="node">
<title>Object diagram</title>
<path fill="none" stroke="black" d="M356,-306C356,-306 278,-306 278,-306 272,-306 266,-300 266,-294 266,-294 266,-282 266,-282 266,-276 272,-270 278,-270 278,-270 356,-270 356,-270 362,-270 368,-276 368,-282 368,-282 368,-294 368,-294 368,-300 362,-306 356,-306"/>
<text text-anchor="middle" x="317" y="-284.3" font-family="Times New Roman,serif" font-size="14.00">Object diagram</text>
</g>
<!-- PlantUML&#45;&gt;Object diagram -->
<g id="edge4" class="edge">
<title>PlantUML&#45;&gt;Object diagram</title>
<path fill="none" stroke="black" d="M100.09,-244.83C118.51,-250.13 141.34,-256.35 162,-261 192.66,-267.9 227.09,-274.08 255.6,-278.78"/>
<polygon fill="black" stroke="black" points="255.39,-282.29 265.82,-280.44 256.52,-275.38 255.39,-282.29"/>
</g>
<!-- Activity diagram -->
<g id="node6" class="node">
<title>Activity diagram</title>
<path fill="none" stroke="black" d="M359,-252C359,-252 275,-252 275,-252 269,-252 263,-246 263,-240 263,-240 263,-228 263,-228 263,-222 269,-216 275,-216 275,-216 359,-216 359,-216 365,-216 371,-222 371,-228 371,-228 371,-240 371,-240 371,-246 365,-252 359,-252"/>
<text text-anchor="middle" x="317" y="-230.3" font-family="Times New Roman,serif" font-size="14.00">Activity diagram</text>
</g>
<!-- PlantUML&#45;&gt;Activity diagram -->
<g id="edge5" class="edge">
<title>PlantUML&#45;&gt;Activity diagram</title>
<path fill="none" stroke="black" d="M100.11,-234C139.87,-234 204.57,-234 252.79,-234"/>
<polygon fill="black" stroke="black" points="252.81,-237.5 262.81,-234 252.81,-230.5 252.81,-237.5"/>
</g>
<!-- Component diagram -->
<g id="node7" class="node">
<title>Component diagram</title>
<path fill="none" stroke="black" d="M370.5,-198C370.5,-198 263.5,-198 263.5,-198 257.5,-198 251.5,-192 251.5,-186 251.5,-186 251.5,-174 251.5,-174 251.5,-168 257.5,-162 263.5,-162 263.5,-162 370.5,-162 370.5,-162 376.5,-162 382.5,-168 382.5,-174 382.5,-174 382.5,-186 382.5,-186 382.5,-192 376.5,-198 370.5,-198"/>
<text text-anchor="middle" x="317" y="-176.3" font-family="Times New Roman,serif" font-size="14.00">Component diagram</text>
</g>
<!-- PlantUML&#45;&gt;Component diagram -->
<g id="edge6" class="edge">
<title>PlantUML&#45;&gt;Component diagram</title>
<path fill="none" stroke="black" d="M100.09,-223.17C118.51,-217.87 141.34,-211.65 162,-207 187.72,-201.22 216.08,-195.94 241.39,-191.61"/>
<polygon fill="black" stroke="black" points="242.01,-195.05 251.29,-189.94 240.85,-188.15 242.01,-195.05"/>
</g>
<!-- Deployment diagram -->
<g id="node8" class="node">
<title>Deployment diagram</title>
<path fill="none" stroke="black" d="M371,-144C371,-144 263,-144 263,-144 257,-144 251,-138 251,-132 251,-132 251,-120 251,-120 251,-114 257,-108 263,-108 263,-108 371,-108 371,-108 377,-108 383,-114 383,-120 383,-120 383,-132 383,-132 383,-138 377,-144 371,-144"/>
<text text-anchor="middle" x="317" y="-122.3" font-family="Times New Roman,serif" font-size="14.00">Deployment diagram</text>
</g>
<!-- PlantUML&#45;&gt;Deployment diagram -->
<g id="edge7" class="edge">
<title>PlantUML&#45;&gt;Deployment diagram</title>
<path fill="none" stroke="black" d="M80.47,-215.66C98.53,-196.79 129.33,-168.07 162,-153 186.37,-141.76 214.89,-135.17 240.72,-131.33"/>
<polygon fill="black" stroke="black" points="241.41,-134.76 250.84,-129.93 240.46,-127.83 241.41,-134.76"/>
</g>
<!-- State diagram -->
<g id="node9" class="node">
<title>State diagram</title>
<path fill="none" stroke="black" d="M351,-90C351,-90 283,-90 283,-90 277,-90 271,-84 271,-78 271,-78 271,-66 271,-66 271,-60 277,-54 283,-54 283,-54 351,-54 351,-54 357,-54 363,-60 363,-66 363,-66 363,-78 363,-78 363,-84 357,-90 351,-90"/>
<text text-anchor="middle" x="317" y="-68.3" font-family="Times New Roman,serif" font-size="14.00">State diagram</text>
</g>
<!-- PlantUML&#45;&gt;State diagram -->
<g id="edge8" class="edge">
<title>PlantUML&#45;&gt;State diagram</title>
<path fill="none" stroke="black" d="M71.73,-215.64C85.28,-185.87 116.31,-127.53 162,-99 191.27,-80.72 229.45,-73.94 260.47,-71.74"/>
<polygon fill="black" stroke="black" points="260.9,-75.22 270.69,-71.16 260.51,-68.23 260.9,-75.22"/>
</g>
<!-- Timing diagram -->
<g id="node10" class="node">
<title>Timing diagram</title>
<path fill="none" stroke="black" d="M357,-36C357,-36 277,-36 277,-36 271,-36 265,-30 265,-24 265,-24 265,-12 265,-12 265,-6 271,0 277,0 277,0 357,0 357,0 363,0 369,-6 369,-12 369,-12 369,-24 369,-24 369,-30 363,-36 357,-36"/>
<text text-anchor="middle" x="317" y="-14.3" font-family="Times New Roman,serif" font-size="14.00">Timing diagram</text>
</g>
<!-- PlantUML&#45;&gt;Timing diagram -->
<g id="edge9" class="edge">
<title>PlantUML&#45;&gt;Timing diagram</title>
<path fill="none" stroke="black" d="M67.73,-215.96C76.64,-177.68 103,-88.29 162,-45 188.45,-25.6 224.24,-18.49 254.66,-16.41"/>
<polygon fill="black" stroke="black" points="254.95,-19.89 264.75,-15.88 254.58,-12.9 254.95,-19.89"/>
</g>
<!-- non&#45;UML diagrams -->
<g id="node11" class="node">
<title>non&#45;UML diagrams</title>
<path fill="none" stroke="black" d="M114,-819C114,-819 12,-819 12,-819 6,-819 0,-813 0,-807 0,-807 0,-795 0,-795 0,-789 6,-783 12,-783 12,-783 114,-783 114,-783 120,-783 126,-789 126,-795 126,-795 126,-807 126,-807 126,-813 120,-819 114,-819"/>
<text text-anchor="middle" x="63" y="-797.3" font-family="Times New Roman,serif" font-size="14.00">non&#45;UML diagrams</text>
</g>
<!-- JSON data -->
<g id="node12" class="node">
<title>JSON data</title>
<path fill="none" stroke="black" d="M343.5,-1116C343.5,-1116 290.5,-1116 290.5,-1116 284.5,-1116 278.5,-1110 278.5,-1104 278.5,-1104 278.5,-1092 278.5,-1092 278.5,-1086 284.5,-1080 290.5,-1080 290.5,-1080 343.5,-1080 343.5,-1080 349.5,-1080 355.5,-1086 355.5,-1092 355.5,-1092 355.5,-1104 355.5,-1104 355.5,-1110 349.5,-1116 343.5,-1116"/>
<text text-anchor="middle" x="317" y="-1094.3" font-family="Times New Roman,serif" font-size="14.00">JSON data</text>
</g>
<!-- non&#45;UML diagrams&#45;&gt;JSON data -->
<g id="edge10" class="edge">
<title>non&#45;UML diagrams&#45;&gt;JSON data</title>
<path fill="none" stroke="black" d="M64.68,-819.24C67.58,-868.41 82.73,-1004.49 162,-1071 191.18,-1095.48 234.63,-1101.24 267.95,-1101.44"/>
<polygon fill="black" stroke="black" points="268.42,-1104.93 278.38,-1101.33 268.35,-1097.94 268.42,-1104.93"/>
</g>
<!-- YAML data -->
<g id="node13" class="node">
<title>YAML data</title>
<path fill="none" stroke="black" d="M346.5,-1062C346.5,-1062 287.5,-1062 287.5,-1062 281.5,-1062 275.5,-1056 275.5,-1050 275.5,-1050 275.5,-1038 275.5,-1038 275.5,-1032 281.5,-1026 287.5,-1026 287.5,-1026 346.5,-1026 346.5,-1026 352.5,-1026 358.5,-1032 358.5,-1038 358.5,-1038 358.5,-1050 358.5,-1050 358.5,-1056 352.5,-1062 346.5,-1062"/>
<text text-anchor="middle" x="317" y="-1040.3" font-family="Times New Roman,serif" font-size="14.00">YAML data</text>
</g>
<!-- non&#45;UML diagrams&#45;&gt;YAML data -->
<g id="edge11" class="edge">
<title>non&#45;UML diagrams&#45;&gt;YAML data</title>
<path fill="none" stroke="black" d="M66.52,-819.29C73.36,-861.54 96.41,-966.18 162,-1017 191.04,-1039.5 232.42,-1045.76 264.98,-1046.66"/>
<polygon fill="black" stroke="black" points="265.17,-1050.16 275.21,-1046.77 265.25,-1043.16 265.17,-1050.16"/>
</g>
<!-- Network diagram (nwdiag) -->
<g id="node14" class="node">
<title>Network diagram (nwdiag)</title>
<path fill="none" stroke="black" d="M387.5,-1008C387.5,-1008 246.5,-1008 246.5,-1008 240.5,-1008 234.5,-1002 234.5,-996 234.5,-996 234.5,-984 234.5,-984 234.5,-978 240.5,-972 246.5,-972 246.5,-972 387.5,-972 387.5,-972 393.5,-972 399.5,-978 399.5,-984 399.5,-984 399.5,-996 399.5,-996 399.5,-1002 393.5,-1008 387.5,-1008"/>
<text text-anchor="middle" x="317" y="-986.3" font-family="Times New Roman,serif" font-size="14.00">Network diagram (nwdiag)</text>
</g>
<!-- non&#45;UML diagrams&#45;&gt;Network diagram (nwdiag) -->
<g id="edge12" class="edge">
<title>non&#45;UML diagrams&#45;&gt;Network diagram (nwdiag)</title>
<path fill="none" stroke="black" d="M69.37,-819.09C80.53,-853.29 109.65,-927.17 162,-963 180.26,-975.5 202.51,-982.77 224.35,-986.89"/>
<polygon fill="black" stroke="black" points="223.9,-990.36 234.34,-988.56 225.05,-983.45 223.9,-990.36"/>
</g>
<!-- Wireframe graphical interface or UI mockups (salt) -->
<g id="node15" class="node">
<title>Wireframe graphical interface or UI mockups (salt)</title>
<path fill="none" stroke="black" d="M455.5,-954C455.5,-954 178.5,-954 178.5,-954 172.5,-954 166.5,-948 166.5,-942 166.5,-942 166.5,-930 166.5,-930 166.5,-924 172.5,-918 178.5,-918 178.5,-918 455.5,-918 455.5,-918 461.5,-918 467.5,-924 467.5,-930 467.5,-930 467.5,-942 467.5,-942 467.5,-948 461.5,-954 455.5,-954"/>
<text text-anchor="middle" x="317" y="-932.3" font-family="Times New Roman,serif" font-size="14.00">Wireframe graphical interface or UI mockups (salt)</text>
</g>
<!-- non&#45;UML diagrams&#45;&gt;Wireframe graphical interface or UI mockups (salt) -->
<g id="edge13" class="edge">
<title>non&#45;UML diagrams&#45;&gt;Wireframe graphical interface or UI mockups (salt)</title>
<path fill="none" stroke="black" d="M75.03,-819.33C90.93,-844.02 122.75,-887.37 162,-909 165.13,-910.72 168.34,-912.34 171.62,-913.86"/>
<polygon fill="black" stroke="black" points="170.45,-917.17 181.02,-917.88 173.2,-910.73 170.45,-917.17"/>
</g>
<!-- Archimate diagram -->
<g id="node16" class="node">
<title>Archimate diagram</title>
<path fill="none" stroke="black" d="M366,-900C366,-900 268,-900 268,-900 262,-900 256,-894 256,-888 256,-888 256,-876 256,-876 256,-870 262,-864 268,-864 268,-864 366,-864 366,-864 372,-864 378,-870 378,-876 378,-876 378,-888 378,-888 378,-894 372,-900 366,-900"/>
<text text-anchor="middle" x="317" y="-878.3" font-family="Times New Roman,serif" font-size="14.00">Archimate diagram</text>
</g>
<!-- non&#45;UML diagrams&#45;&gt;Archimate diagram -->
<g id="edge14" class="edge">
<title>non&#45;UML diagrams&#45;&gt;Archimate diagram</title>
<path fill="none" stroke="black" d="M91.15,-819.17C110.21,-831.1 136.71,-846.1 162,-855 188.68,-864.39 219.15,-870.61 245.9,-874.69"/>
<polygon fill="black" stroke="black" points="245.56,-878.17 255.96,-876.15 246.57,-871.25 245.56,-878.17"/>
</g>
<!-- Specification and Description Language (SDL) -->
<g id="node17" class="node">
<title>Specification and Description Language (SDL)</title>
<path fill="none" stroke="black" d="M444,-846C444,-846 190,-846 190,-846 184,-846 178,-840 178,-834 178,-834 178,-822 178,-822 178,-816 184,-810 190,-810 190,-810 444,-810 444,-810 450,-810 456,-816 456,-822 456,-822 456,-834 456,-834 456,-840 450,-846 444,-846"/>
<text text-anchor="middle" x="317" y="-824.3" font-family="Times New Roman,serif" font-size="14.00">Specification and Description Language (SDL)</text>
</g>
<!-- non&#45;UML diagrams&#45;&gt;Specification and Description Language (SDL) -->
<g id="edge15" class="edge">
<title>non&#45;UML diagrams&#45;&gt;Specification and Description Language (SDL)</title>
<path fill="none" stroke="black" d="M126.29,-807.67C139.2,-809.06 153.32,-810.57 167.84,-812.13"/>
<polygon fill="black" stroke="black" points="167.64,-815.62 177.95,-813.21 168.38,-808.66 167.64,-815.62"/>
</g>
<!-- Ditaa diagram -->
<g id="node18" class="node">
<title>Ditaa diagram</title>
<path fill="none" stroke="black" d="M351.5,-792C351.5,-792 282.5,-792 282.5,-792 276.5,-792 270.5,-786 270.5,-780 270.5,-780 270.5,-768 270.5,-768 270.5,-762 276.5,-756 282.5,-756 282.5,-756 351.5,-756 351.5,-756 357.5,-756 363.5,-762 363.5,-768 363.5,-768 363.5,-780 363.5,-780 363.5,-786 357.5,-792 351.5,-792"/>
<text text-anchor="middle" x="317" y="-770.3" font-family="Times New Roman,serif" font-size="14.00">Ditaa diagram</text>
</g>
<!-- non&#45;UML diagrams&#45;&gt;Ditaa diagram -->
<g id="edge16" class="edge">
<title>non&#45;UML diagrams&#45;&gt;Ditaa diagram</title>
<path fill="none" stroke="black" d="M126.29,-794.33C167.32,-789.93 220.58,-784.22 260.22,-779.98"/>
<polygon fill="black" stroke="black" points="260.67,-783.45 270.24,-778.9 259.93,-776.49 260.67,-783.45"/>
</g>
<!-- Gantt diagram -->
<g id="node19" class="node">
<title>Gantt diagram</title>
<path fill="none" stroke="black" d="M352.5,-738C352.5,-738 281.5,-738 281.5,-738 275.5,-738 269.5,-732 269.5,-726 269.5,-726 269.5,-714 269.5,-714 269.5,-708 275.5,-702 281.5,-702 281.5,-702 352.5,-702 352.5,-702 358.5,-702 364.5,-708 364.5,-714 364.5,-714 364.5,-726 364.5,-726 364.5,-732 358.5,-738 352.5,-738"/>
<text text-anchor="middle" x="317" y="-716.3" font-family="Times New Roman,serif" font-size="14.00">Gantt diagram</text>
</g>
<!-- non&#45;UML diagrams&#45;&gt;Gantt diagram -->
<g id="edge17" class="edge">
<title>non&#45;UML diagrams&#45;&gt;Gantt diagram</title>
<path fill="none" stroke="black" d="M91.15,-782.83C110.21,-770.9 136.71,-755.9 162,-747 193.15,-736.03 229.47,-729.39 259.01,-725.44"/>
<polygon fill="black" stroke="black" points="259.68,-728.88 269.16,-724.15 258.8,-721.94 259.68,-728.88"/>
</g>
<!-- MindMap diagram -->
<g id="node20" class="node">
<title>MindMap diagram</title>
<path fill="none" stroke="black" d="M364.5,-684C364.5,-684 269.5,-684 269.5,-684 263.5,-684 257.5,-678 257.5,-672 257.5,-672 257.5,-660 257.5,-660 257.5,-654 263.5,-648 269.5,-648 269.5,-648 364.5,-648 364.5,-648 370.5,-648 376.5,-654 376.5,-660 376.5,-660 376.5,-672 376.5,-672 376.5,-678 370.5,-684 364.5,-684"/>
<text text-anchor="middle" x="317" y="-662.3" font-family="Times New Roman,serif" font-size="14.00">MindMap diagram</text>
</g>
<!-- non&#45;UML diagrams&#45;&gt;MindMap diagram -->
<g id="edge18" class="edge">
<title>non&#45;UML diagrams&#45;&gt;MindMap diagram</title>
<path fill="none" stroke="black" d="M75.03,-782.67C90.93,-757.98 122.75,-714.63 162,-693 187.83,-678.76 219.48,-671.75 247.35,-668.39"/>
<polygon fill="black" stroke="black" points="247.86,-671.85 257.43,-667.31 247.11,-664.89 247.86,-671.85"/>
</g>
<!-- Work Breakdown Structure diagram (WBS) -->
<g id="node21" class="node">
<title>Work Breakdown Structure diagram (WBS)</title>
<path fill="none" stroke="black" d="M436.5,-630C436.5,-630 197.5,-630 197.5,-630 191.5,-630 185.5,-624 185.5,-618 185.5,-618 185.5,-606 185.5,-606 185.5,-600 191.5,-594 197.5,-594 197.5,-594 436.5,-594 436.5,-594 442.5,-594 448.5,-600 448.5,-606 448.5,-606 448.5,-618 448.5,-618 448.5,-624 442.5,-630 436.5,-630"/>
<text text-anchor="middle" x="317" y="-608.3" font-family="Times New Roman,serif" font-size="14.00">Work Breakdown Structure diagram (WBS)</text>
</g>
<!-- non&#45;UML diagrams&#45;&gt;Work Breakdown Structure diagram (WBS) -->
<g id="edge19" class="edge">
<title>non&#45;UML diagrams&#45;&gt;Work Breakdown Structure diagram (WBS)</title>
<path fill="none" stroke="black" d="M69.37,-782.91C80.53,-748.71 109.65,-674.83 162,-639 166.55,-635.89 171.35,-633.1 176.32,-630.6"/>
<polygon fill="black" stroke="black" points="177.83,-633.76 185.46,-626.41 174.91,-627.4 177.83,-633.76"/>
</g>
<!-- Mathematic with AsciiMath or JLaTeXMath notation -->
<g id="node22" class="node">
<title>Mathematic with AsciiMath or JLaTeXMath notation</title>
<path fill="none" stroke="black" d="M460,-576C460,-576 174,-576 174,-576 168,-576 162,-570 162,-564 162,-564 162,-552 162,-552 162,-546 168,-540 174,-540 174,-540 460,-540 460,-540 466,-540 472,-546 472,-552 472,-552 472,-564 472,-564 472,-570 466,-576 460,-576"/>
<text text-anchor="middle" x="317" y="-554.3" font-family="Times New Roman,serif" font-size="14.00">Mathematic with AsciiMath or JLaTeXMath notation</text>
</g>
<!-- non&#45;UML diagrams&#45;&gt;Mathematic with AsciiMath or JLaTeXMath notation -->
<g id="edge20" class="edge">
<title>non&#45;UML diagrams&#45;&gt;Mathematic with AsciiMath or JLaTeXMath notation</title>
<path fill="none" stroke="black" d="M66.52,-782.71C73.36,-740.46 96.41,-635.82 162,-585 163.61,-583.75 165.26,-582.56 166.94,-581.41"/>
<polygon fill="black" stroke="black" points="168.94,-584.28 175.61,-576.05 165.27,-578.33 168.94,-584.28"/>
</g>
<!-- Entity Relationship diagram (IE/ER) -->
<g id="node23" class="node">
<title>Entity Relationship diagram (IE/ER)</title>
<path fill="none" stroke="black" d="M413.5,-522C413.5,-522 220.5,-522 220.5,-522 214.5,-522 208.5,-516 208.5,-510 208.5,-510 208.5,-498 208.5,-498 208.5,-492 214.5,-486 220.5,-486 220.5,-486 413.5,-486 413.5,-486 419.5,-486 425.5,-492 425.5,-498 425.5,-498 425.5,-510 425.5,-510 425.5,-516 419.5,-522 413.5,-522"/>
<text text-anchor="middle" x="317" y="-500.3" font-family="Times New Roman,serif" font-size="14.00">Entity Relationship diagram (IE/ER)</text>
</g>
<!-- non&#45;UML diagrams&#45;&gt;Entity Relationship diagram (IE/ER) -->
<g id="edge21" class="edge">
<title>non&#45;UML diagrams&#45;&gt;Entity Relationship diagram (IE/ER)</title>
<path fill="none" stroke="black" d="M64.68,-782.76C67.58,-733.59 82.73,-597.51 162,-531 172.63,-522.09 185.14,-515.65 198.38,-511.07"/>
<polygon fill="black" stroke="black" points="199.61,-514.35 208.12,-508.05 197.54,-507.67 199.61,-514.35"/>
</g>
<!-- Furthermore -->
<g id="node24" class="node">
<title>Furthermore</title>
<path fill="none" stroke="black" d="M94,-1278C94,-1278 32,-1278 32,-1278 26,-1278 20,-1272 20,-1266 20,-1266 20,-1254 20,-1254 20,-1248 26,-1242 32,-1242 32,-1242 94,-1242 94,-1242 100,-1242 106,-1248 106,-1254 106,-1254 106,-1266 106,-1266 106,-1272 100,-1278 94,-1278"/>
<text text-anchor="middle" x="63" y="-1256.3" font-family="Times New Roman,serif" font-size="14.00">Furthermore</text>
</g>
<!-- Hyperlinks and tooltips -->
<g id="node25" class="node">
<title>Hyperlinks and tooltips</title>
<path fill="none" stroke="black" d="M378,-1386C378,-1386 256,-1386 256,-1386 250,-1386 244,-1380 244,-1374 244,-1374 244,-1362 244,-1362 244,-1356 250,-1350 256,-1350 256,-1350 378,-1350 378,-1350 384,-1350 390,-1356 390,-1362 390,-1362 390,-1374 390,-1374 390,-1380 384,-1386 378,-1386"/>
<text text-anchor="middle" x="317" y="-1364.3" font-family="Times New Roman,serif" font-size="14.00">Hyperlinks and tooltips</text>
</g>
<!-- Furthermore&#45;&gt;Hyperlinks and tooltips -->
<g id="edge22" class="edge">
<title>Furthermore&#45;&gt;Hyperlinks and tooltips</title>
<path fill="none" stroke="black" d="M80.47,-1278.34C98.53,-1297.21 129.33,-1325.93 162,-1341 184.21,-1351.25 209.87,-1357.62 233.8,-1361.59"/>
<polygon fill="black" stroke="black" points="233.52,-1365.08 243.93,-1363.14 234.58,-1358.17 233.52,-1365.08"/>
</g>
<!-- Creole -->
<g id="node26" class="node">
<title>Creole</title>
<path fill="none" stroke="black" d="M332,-1332C332,-1332 302,-1332 302,-1332 296,-1332 290,-1326 290,-1320 290,-1320 290,-1308 290,-1308 290,-1302 296,-1296 302,-1296 302,-1296 332,-1296 332,-1296 338,-1296 344,-1302 344,-1308 344,-1308 344,-1320 344,-1320 344,-1326 338,-1332 332,-1332"/>
<text text-anchor="middle" x="317" y="-1310.3" font-family="Times New Roman,serif" font-size="14.00">Creole</text>
</g>
<!-- Furthermore&#45;&gt;Creole -->
<g id="edge23" class="edge">
<title>Furthermore&#45;&gt;Creole: rich text, emoticons, unicode, icons</title>
<path fill="none" stroke="black" d="M106.23,-1272.58C123.43,-1277.46 143.58,-1282.86 162,-1287 202.09,-1296.02 248.62,-1303.81 279.95,-1308.68"/>
<polygon fill="black" stroke="black" points="279.55,-1312.15 289.96,-1310.21 280.61,-1305.24 279.55,-1312.15"/>
</g>
<!-- OpenIconic icons -->
<g id="node27" class="node">
<title>OpenIconic icons</title>
<path fill="none" stroke="black" d="M363,-1278C363,-1278 271,-1278 271,-1278 265,-1278 259,-1272 259,-1266 259,-1266 259,-1254 259,-1254 259,-1248 265,-1242 271,-1242 271,-1242 363,-1242 363,-1242 369,-1242 375,-1248 375,-1254 375,-1254 375,-1266 375,-1266 375,-1272 369,-1278 363,-1278"/>
<text text-anchor="middle" x="317" y="-1256.3" font-family="Times New Roman,serif" font-size="14.00">OpenIconic icons</text>
</g>
<!-- Furthermore&#45;&gt;OpenIconic icons -->
<g id="edge24" class="edge">
<title>Furthermore&#45;&gt;OpenIconic icons</title>
<path fill="none" stroke="black" d="M106.18,-1260C145,-1260 203.24,-1260 248.52,-1260"/>
<polygon fill="black" stroke="black" points="248.56,-1263.5 258.56,-1260 248.56,-1256.5 248.56,-1263.5"/>
</g>
<!-- Sprite icons -->
<g id="node28" class="node">
<title>Sprite icons</title>
<path fill="none" stroke="black" d="M346.5,-1224C346.5,-1224 287.5,-1224 287.5,-1224 281.5,-1224 275.5,-1218 275.5,-1212 275.5,-1212 275.5,-1200 275.5,-1200 275.5,-1194 281.5,-1188 287.5,-1188 287.5,-1188 346.5,-1188 346.5,-1188 352.5,-1188 358.5,-1194 358.5,-1200 358.5,-1200 358.5,-1212 358.5,-1212 358.5,-1218 352.5,-1224 346.5,-1224"/>
<text text-anchor="middle" x="317" y="-1202.3" font-family="Times New Roman,serif" font-size="14.00">Sprite icons</text>
</g>
<!-- Furthermore&#45;&gt;Sprite icons -->
<g id="edge25" class="edge">
<title>Furthermore&#45;&gt;Sprite icons</title>
<path fill="none" stroke="black" d="M106.23,-1247.42C123.43,-1242.54 143.58,-1237.14 162,-1233 196.11,-1225.33 234.89,-1218.54 264.99,-1213.69"/>
<polygon fill="black" stroke="black" points="265.93,-1217.09 275.26,-1212.06 264.83,-1210.17 265.93,-1217.09"/>
</g>
<!-- AsciiMath mathematical expressions -->
<g id="node29" class="node">
<title>AsciiMath mathematical expressions</title>
<path fill="none" stroke="black" d="M414.5,-1170C414.5,-1170 219.5,-1170 219.5,-1170 213.5,-1170 207.5,-1164 207.5,-1158 207.5,-1158 207.5,-1146 207.5,-1146 207.5,-1140 213.5,-1134 219.5,-1134 219.5,-1134 414.5,-1134 414.5,-1134 420.5,-1134 426.5,-1140 426.5,-1146 426.5,-1146 426.5,-1158 426.5,-1158 426.5,-1164 420.5,-1170 414.5,-1170"/>
<text text-anchor="middle" x="317" y="-1148.3" font-family="Times New Roman,serif" font-size="14.00">AsciiMath mathematical expressions</text>
</g>
<!-- Furthermore&#45;&gt;AsciiMath mathematical expressions -->
<g id="edge26" class="edge">
<title>Furthermore&#45;&gt;AsciiMath mathematical expressions</title>
<path fill="none" stroke="black" d="M80.47,-1241.66C98.53,-1222.79 129.33,-1194.07 162,-1179 173.18,-1173.84 185.24,-1169.66 197.51,-1166.28"/>
<polygon fill="black" stroke="black" points="198.57,-1169.62 207.38,-1163.74 196.82,-1162.84 198.57,-1169.62"/>
</g>
</g>
</svg>
