<?xml version="1.0" encoding="UTF-8" standalone="no"?>
<!DOCTYPE svg PUBLIC "-//W3C//DTD SVG 1.1//EN"
 "http://www.w3.org/Graphics/SVG/1.1/DTD/svg11.dtd">
<!-- Generated by graphviz version 2.38.0 (20140413.2041)
 -->
<!-- Title: %3 Pages: 1 -->
<svg width="862pt" height="1232pt"
 viewBox="0.00 0.00 862.00 1232.00" xmlns="http://www.w3.org/2000/svg" xmlns:xlink="http://www.w3.org/1999/xlink">
<g id="graph0" class="graph" transform="scale(1 1) rotate(0) translate(4 1228)">
<title>%3</title>
<polygon fill="white" stroke="none" points="-4,4 -4,-1228 858,-1228 858,4 -4,4"/>
<g id="clust1" class="cluster"><title>cluster_project</title>
<polygon fill="none" stroke="#000000" points="150,-8 150,-1216 846,-1216 846,-8 150,-8"/>
<text text-anchor="middle" x="498" y="-1200.8" font-family="Times New Roman,serif" font-size="14.00">project</text>
</g>
<g id="clust4" class="cluster"><title>cluster_app</title>
<polygon fill="none" stroke="#ea4f16" points="295.5,-624 295.5,-1185 497.5,-1185 497.5,-624 295.5,-624"/>
<text text-anchor="middle" x="396.5" y="-1169.8" font-family="Times New Roman,serif" font-size="14.00">app</text>
</g>
<g id="clust2" class="cluster"><title>cluster_setup.py</title>
<polygon fill="none" stroke="#ff5ee5" points="290,-16 290,-616 838,-616 838,-16 290,-16"/>
<text text-anchor="middle" x="564" y="-600.8" font-family="Times New Roman,serif" font-size="14.00">setup.py</text>
</g>
<g id="clust3" class="cluster"><title>cluster_install_requires</title>
<polygon fill="none" stroke="#ea164f" points="527,-24 527,-585 830,-585 830,-24 527,-24"/>
<text text-anchor="middle" x="678.5" y="-569.8" font-family="Times New Roman,serif" font-size="14.00">install_requires</text>
</g>
<!-- firstEel -->
<g id="node1" class="node"><title>firstEel</title>
<path fill="#00e599" stroke="black" d="M110,-674C110,-674 12,-674 12,-674 6,-674 7.10543e-015,-668 7.10543e-015,-662 7.10543e-015,-662 7.10543e-015,-650 7.10543e-015,-650 7.10543e-015,-644 6,-638 12,-638 12,-638 110,-638 110,-638 116,-638 122,-644 122,-650 122,-650 122,-662 122,-662 122,-668 116,-674 110,-674"/>
<text text-anchor="middle" x="61" y="-652.3" font-family="Times New Roman,serif" font-size="14.00">Wiki in 20 Minutes</text>
</g>
<!-- migration -->
<g id="node2" class="node"><title>migration</title>
<path fill="#99ff5e" stroke="black" d="M232,-917C232,-917 188,-917 188,-917 182,-917 176,-911 176,-905 176,-905 176,-893 176,-893 176,-887 182,-881 188,-881 188,-881 232,-881 232,-881 238,-881 244,-887 244,-893 244,-893 244,-905 244,-905 244,-911 238,-917 232,-917"/>
<text text-anchor="middle" x="210" y="-895.3" font-family="Times New Roman,serif" font-size="14.00">migration</text>
</g>
<!-- firstEel&#45;&gt;migration -->
<g id="edge34" class="edge"><title>firstEel&#45;&gt;migration</title>
<path fill="none" stroke="black" d="M64.7455,-674.093C71.771,-714.586 93.9586,-813.536 150,-872 154.766,-876.972 160.621,-881.109 166.772,-884.527"/>
<polygon fill="black" stroke="black" points="165.389,-887.747 175.906,-889.032 168.486,-881.469 165.389,-887.747"/>
</g>
<!-- wiki20 -->
<g id="node3" class="node"><title>wiki20</title>
<path fill="#99ff5e" stroke="black" d="M225,-863C225,-863 195,-863 195,-863 189,-863 183,-857 183,-851 183,-851 183,-839 183,-839 183,-833 189,-827 195,-827 195,-827 225,-827 225,-827 231,-827 237,-833 237,-839 237,-839 237,-851 237,-851 237,-857 231,-863 225,-863"/>
<text text-anchor="middle" x="210" y="-841.3" font-family="Times New Roman,serif" font-size="14.00">wiki20</text>
</g>
<!-- firstEel&#45;&gt;wiki20 -->
<g id="edge33" class="edge"><title>firstEel&#45;&gt;wiki20</title>
<path fill="none" stroke="black" d="M67.5826,-674.216C78.4662,-706.999 105.436,-776.386 150,-818 156.7,-824.256 165.102,-829.263 173.447,-833.183"/>
<polygon fill="black" stroke="black" points="172.179,-836.448 182.75,-837.155 174.928,-830.01 172.179,-836.448"/>
</g>
<!-- wiki20.egg&#45;info -->
<g id="node4" class="node"><title>wiki20.egg&#45;info</title>
<path fill="#99ff5e" stroke="black" d="M249,-809C249,-809 171,-809 171,-809 165,-809 159,-803 159,-797 159,-797 159,-785 159,-785 159,-779 165,-773 171,-773 171,-773 249,-773 249,-773 255,-773 261,-779 261,-785 261,-785 261,-797 261,-797 261,-803 255,-809 249,-809"/>
<text text-anchor="middle" x="210" y="-787.3" font-family="Times New Roman,serif" font-size="14.00">wiki20.egg&#45;info</text>
</g>
<!-- firstEel&#45;&gt;wiki20.egg&#45;info -->
<g id="edge32" class="edge"><title>firstEel&#45;&gt;wiki20.egg&#45;info</title>
<path fill="none" stroke="black" d="M73.0544,-674.221C88.0171,-697.617 116.706,-738.26 150,-764 151.571,-765.214 153.205,-766.389 154.886,-767.525"/>
<polygon fill="black" stroke="black" points="153.256,-770.631 163.611,-772.871 156.913,-764.662 153.256,-770.631"/>
</g>
<!-- devdata.db -->
<g id="node5" class="node"><title>devdata.db</title>
<path fill="#99ff5e" stroke="black" d="M237.5,-755C237.5,-755 182.5,-755 182.5,-755 176.5,-755 170.5,-749 170.5,-743 170.5,-743 170.5,-731 170.5,-731 170.5,-725 176.5,-719 182.5,-719 182.5,-719 237.5,-719 237.5,-719 243.5,-719 249.5,-725 249.5,-731 249.5,-731 249.5,-743 249.5,-743 249.5,-749 243.5,-755 237.5,-755"/>
<text text-anchor="middle" x="210" y="-733.3" font-family="Times New Roman,serif" font-size="14.00">devdata.db</text>
</g>
<!-- firstEel&#45;&gt;devdata.db -->
<g id="edge31" class="edge"><title>firstEel&#45;&gt;devdata.db</title>
<path fill="none" stroke="black" d="M89.6326,-674.15C106.721,-685.072 129.279,-698.953 150,-710 153.533,-711.884 157.223,-713.765 160.958,-715.608"/>
<polygon fill="black" stroke="black" points="159.741,-718.907 170.269,-720.09 162.777,-712.599 159.741,-718.907"/>
</g>
<!-- development.ini -->
<g id="node6" class="node"><title>development.ini</title>
<path fill="#99ff5e" stroke="black" d="M250,-701C250,-701 170,-701 170,-701 164,-701 158,-695 158,-689 158,-689 158,-677 158,-677 158,-671 164,-665 170,-665 170,-665 250,-665 250,-665 256,-665 262,-671 262,-677 262,-677 262,-689 262,-689 262,-695 256,-701 250,-701"/>
<text text-anchor="middle" x="210" y="-679.3" font-family="Times New Roman,serif" font-size="14.00">development.ini</text>
</g>
<!-- firstEel&#45;&gt;development.ini -->
<g id="edge30" class="edge"><title>firstEel&#45;&gt;development.ini</title>
<path fill="none" stroke="black" d="M122.215,-667.06C130.557,-668.592 139.136,-670.168 147.502,-671.704"/>
<polygon fill="black" stroke="black" points="147.103,-675.19 157.57,-673.554 148.367,-668.305 147.103,-675.19"/>
</g>
<!-- MANIFEST.in -->
<g id="node7" class="node"><title>MANIFEST.in</title>
<path fill="#99ff5e" stroke="black" d="M248,-647C248,-647 172,-647 172,-647 166,-647 160,-641 160,-635 160,-635 160,-623 160,-623 160,-617 166,-611 172,-611 172,-611 248,-611 248,-611 254,-611 260,-617 260,-623 260,-623 260,-635 260,-635 260,-641 254,-647 248,-647"/>
<text text-anchor="middle" x="210" y="-625.3" font-family="Times New Roman,serif" font-size="14.00">MANIFEST.in</text>
</g>
<!-- firstEel&#45;&gt;MANIFEST.in -->
<g id="edge29" class="edge"><title>firstEel&#45;&gt;MANIFEST.in</title>
<path fill="none" stroke="black" d="M122.215,-644.94C131.317,-643.268 140.7,-641.545 149.781,-639.877"/>
<polygon fill="black" stroke="black" points="150.671,-643.272 159.874,-638.023 149.406,-636.387 150.671,-643.272"/>
</g>
<!-- README.txt -->
<g id="node8" class="node"><title>README.txt</title>
<path fill="#99ff5e" stroke="black" d="M244,-593C244,-593 176,-593 176,-593 170,-593 164,-587 164,-581 164,-581 164,-569 164,-569 164,-563 170,-557 176,-557 176,-557 244,-557 244,-557 250,-557 256,-563 256,-569 256,-569 256,-581 256,-581 256,-587 250,-593 244,-593"/>
<text text-anchor="middle" x="210" y="-571.3" font-family="Times New Roman,serif" font-size="14.00">README.txt</text>
</g>
<!-- firstEel&#45;&gt;README.txt -->
<g id="edge28" class="edge"><title>firstEel&#45;&gt;README.txt</title>
<path fill="none" stroke="black" d="M89.6326,-637.85C106.721,-626.928 129.279,-613.047 150,-602 152.833,-600.49 155.766,-598.981 158.743,-597.492"/>
<polygon fill="black" stroke="black" points="160.288,-600.633 167.744,-593.105 157.221,-594.341 160.288,-600.633"/>
</g>
<!-- setup.cfg -->
<g id="node9" class="node"><title>setup.cfg</title>
<path fill="#99ff5e" stroke="black" d="M232,-539C232,-539 188,-539 188,-539 182,-539 176,-533 176,-527 176,-527 176,-515 176,-515 176,-509 182,-503 188,-503 188,-503 232,-503 232,-503 238,-503 244,-509 244,-515 244,-515 244,-527 244,-527 244,-533 238,-539 232,-539"/>
<text text-anchor="middle" x="210" y="-517.3" font-family="Times New Roman,serif" font-size="14.00">setup.cfg</text>
</g>
<!-- firstEel&#45;&gt;setup.cfg -->
<g id="edge27" class="edge"><title>firstEel&#45;&gt;setup.cfg</title>
<path fill="none" stroke="black" d="M73.0544,-637.779C88.0171,-614.383 116.706,-573.74 150,-548 155.088,-544.066 160.841,-540.544 166.71,-537.446"/>
<polygon fill="black" stroke="black" points="168.503,-540.465 175.948,-532.928 165.427,-534.177 168.503,-540.465"/>
</g>
<!-- setup.py -->
<g id="node10" class="node"><title>setup.py</title>
<path fill="#99ff5e" stroke="black" d="M230.5,-485C230.5,-485 189.5,-485 189.5,-485 183.5,-485 177.5,-479 177.5,-473 177.5,-473 177.5,-461 177.5,-461 177.5,-455 183.5,-449 189.5,-449 189.5,-449 230.5,-449 230.5,-449 236.5,-449 242.5,-455 242.5,-461 242.5,-461 242.5,-473 242.5,-473 242.5,-479 236.5,-485 230.5,-485"/>
<text text-anchor="middle" x="210" y="-463.3" font-family="Times New Roman,serif" font-size="14.00">setup.py</text>
</g>
<!-- firstEel&#45;&gt;setup.py -->
<g id="edge26" class="edge"><title>firstEel&#45;&gt;setup.py</title>
<path fill="none" stroke="black" d="M67.5826,-637.784C78.4662,-605.001 105.436,-535.614 150,-494 155.2,-489.144 161.425,-485.041 167.853,-481.615"/>
<polygon fill="black" stroke="black" points="169.82,-484.553 177.32,-477.07 166.79,-478.243 169.82,-484.553"/>
</g>
<!-- test.ini -->
<g id="node11" class="node"><title>test.ini</title>
<path fill="#99ff5e" stroke="black" d="M225,-431C225,-431 195,-431 195,-431 189,-431 183,-425 183,-419 183,-419 183,-407 183,-407 183,-401 189,-395 195,-395 195,-395 225,-395 225,-395 231,-395 237,-401 237,-407 237,-407 237,-419 237,-419 237,-425 231,-431 225,-431"/>
<text text-anchor="middle" x="210" y="-409.3" font-family="Times New Roman,serif" font-size="14.00">test.ini</text>
</g>
<!-- firstEel&#45;&gt;test.ini -->
<g id="edge25" class="edge"><title>firstEel&#45;&gt;test.ini</title>
<path fill="none" stroke="black" d="M64.7455,-637.907C71.771,-597.414 93.9586,-498.464 150,-440 156.457,-433.264 164.911,-428.061 173.396,-424.103"/>
<polygon fill="black" stroke="black" points="174.998,-427.227 182.882,-420.149 172.305,-420.766 174.998,-427.227"/>
</g>
<!-- app -->
<g id="node35" class="node"><title>app</title>
<path fill="#ea4f16" stroke="black" d="M345.5,-884C345.5,-884 315.5,-884 315.5,-884 309.5,-884 303.5,-878 303.5,-872 303.5,-872 303.5,-860 303.5,-860 303.5,-854 309.5,-848 315.5,-848 315.5,-848 345.5,-848 345.5,-848 351.5,-848 357.5,-854 357.5,-860 357.5,-860 357.5,-872 357.5,-872 357.5,-878 351.5,-884 345.5,-884"/>
<text text-anchor="middle" x="330.5" y="-862.3" font-family="Times New Roman,serif" font-size="14.00">wiki20</text>
</g>
<!-- wiki20&#45;&gt;app -->
<g id="edge24" class="edge"><title>wiki20&#45;&gt;app</title>
<path fill="none" stroke="black" d="M237.005,-849.609C253.484,-852.529 275.036,-856.348 293.19,-859.565"/>
<polygon fill="black" stroke="black" points="292.688,-863.031 303.146,-861.33 293.91,-856.138 292.688,-863.031"/>
</g>
<!-- setup.pysetup.py -->
<g id="node12" class="node"><title>setup.pysetup.py</title>
<path fill="#ff5ee5" stroke="black" d="M351,-401C351,-401 310,-401 310,-401 304,-401 298,-395 298,-389 298,-389 298,-377 298,-377 298,-371 304,-365 310,-365 310,-365 351,-365 351,-365 357,-365 363,-371 363,-377 363,-377 363,-389 363,-389 363,-395 357,-401 351,-401"/>
<text text-anchor="middle" x="330.5" y="-379.3" font-family="Times New Roman,serif" font-size="14.00">setup.py</text>
</g>
<!-- setup.py&#45;&gt;setup.pysetup.py -->
<g id="edge1" class="edge"><title>setup.py&#45;&gt;setup.pysetup.py</title>
<path fill="none" stroke="black" d="M242.633,-451.61C249.189,-448.048 255.94,-444.094 262,-440 276.18,-430.422 290.82,-418.367 302.826,-407.813"/>
<polygon fill="black" stroke="black" points="305.177,-410.406 310.304,-401.135 300.514,-405.185 305.177,-410.406"/>
</g>
<!-- setup.pyinstall_requires -->
<g id="node13" class="node"><title>setup.pyinstall_requires</title>
<path fill="#ff5ee5" stroke="black" d="M487,-359C487,-359 411,-359 411,-359 405,-359 399,-353 399,-347 399,-347 399,-335 399,-335 399,-329 405,-323 411,-323 411,-323 487,-323 487,-323 493,-323 499,-329 499,-335 499,-335 499,-347 499,-347 499,-353 493,-359 487,-359"/>
<text text-anchor="middle" x="449" y="-337.3" font-family="Times New Roman,serif" font-size="14.00">install_requires</text>
</g>
<!-- setup.pysetup.py&#45;&gt;setup.pyinstall_requires -->
<g id="edge2" class="edge"><title>setup.pysetup.py&#45;&gt;setup.pyinstall_requires</title>
<path fill="none" stroke="black" d="M363.027,-371.634C371.229,-368.677 380.334,-365.395 389.448,-362.109"/>
<polygon fill="black" stroke="black" points="390.692,-365.381 398.913,-358.697 388.318,-358.796 390.692,-365.381"/>
</g>
<!-- install_requiresinstall_requires -->
<g id="node14" class="node"><title>install_requiresinstall_requires</title>
<path fill="#ea164f" stroke="black" d="M623,-338C623,-338 547,-338 547,-338 541,-338 535,-332 535,-326 535,-326 535,-314 535,-314 535,-308 541,-302 547,-302 547,-302 623,-302 623,-302 629,-302 635,-308 635,-314 635,-314 635,-326 635,-326 635,-332 629,-338 623,-338"/>
<text text-anchor="middle" x="585" y="-316.3" font-family="Times New Roman,serif" font-size="14.00">install_requires</text>
</g>
<!-- setup.pyinstall_requires&#45;&gt;install_requiresinstall_requires -->
<g id="edge3" class="edge"><title>setup.pyinstall_requires&#45;&gt;install_requiresinstall_requires</title>
<path fill="none" stroke="black" d="M499.136,-333.3C507.511,-331.987 516.288,-330.612 524.889,-329.264"/>
<polygon fill="black" stroke="black" points="525.533,-332.706 534.87,-327.699 524.449,-325.79 525.533,-332.706"/>
</g>
<!-- install_requiresTurboGears2 &gt;= 2.4.3 -->
<g id="node15" class="node"><title>install_requiresTurboGears2 &gt;= 2.4.3</title>
<path fill="#ea164f" stroke="black" d="M806,-68C806,-68 687,-68 687,-68 681,-68 675,-62 675,-56 675,-56 675,-44 675,-44 675,-38 681,-32 687,-32 687,-32 806,-32 806,-32 812,-32 818,-38 818,-44 818,-44 818,-56 818,-56 818,-62 812,-68 806,-68"/>
<text text-anchor="middle" x="746.5" y="-46.3" font-family="Times New Roman,serif" font-size="14.00">TurboGears2 &gt;= 2.4.3</text>
</g>
<!-- install_requiresinstall_requires&#45;&gt;install_requiresTurboGears2 &gt;= 2.4.3 -->
<g id="edge4" class="edge"><title>install_requiresinstall_requires&#45;&gt;install_requiresTurboGears2 &gt;= 2.4.3</title>
<path fill="none" stroke="black" d="M587.189,-301.692C591.058,-257.078 607.048,-141.672 671,-77 671.925,-76.0646 672.885,-75.1614 673.876,-74.2893"/>
<polygon fill="black" stroke="black" points="676.108,-76.9905 682.013,-68.1943 671.911,-71.3878 676.108,-76.9905"/>
</g>
<!-- install_requiresBeaker &gt;= 1.8.0 -->
<g id="node16" class="node"><title>install_requiresBeaker &gt;= 1.8.0</title>
<path fill="#ea164f" stroke="black" d="M788,-122C788,-122 705,-122 705,-122 699,-122 693,-116 693,-110 693,-110 693,-98 693,-98 693,-92 699,-86 705,-86 705,-86 788,-86 788,-86 794,-86 800,-92 800,-98 800,-98 800,-110 800,-110 800,-116 794,-122 788,-122"/>
<text text-anchor="middle" x="746.5" y="-100.3" font-family="Times New Roman,serif" font-size="14.00">Beaker &gt;= 1.8.0</text>
</g>
<!-- install_requiresinstall_requires&#45;&gt;install_requiresBeaker &gt;= 1.8.0 -->
<g id="edge5" class="edge"><title>install_requiresinstall_requires&#45;&gt;install_requiresBeaker &gt;= 1.8.0</title>
<path fill="none" stroke="black" d="M589.241,-301.909C596.828,-264.705 619.172,-179.083 671,-131 674.81,-127.465 679.119,-124.385 683.695,-121.704"/>
<polygon fill="black" stroke="black" points="685.485,-124.719 692.766,-117.022 682.274,-118.498 685.485,-124.719"/>
</g>
<!-- install_requiresKajiki &gt;= 0.6.3 -->
<g id="node17" class="node"><title>install_requiresKajiki &gt;= 0.6.3</title>
<path fill="#ea164f" stroke="black" d="M784.5,-176C784.5,-176 708.5,-176 708.5,-176 702.5,-176 696.5,-170 696.5,-164 696.5,-164 696.5,-152 696.5,-152 696.5,-146 702.5,-140 708.5,-140 708.5,-140 784.5,-140 784.5,-140 790.5,-140 796.5,-146 796.5,-152 796.5,-152 796.5,-164 796.5,-164 796.5,-170 790.5,-176 784.5,-176"/>
<text text-anchor="middle" x="746.5" y="-154.3" font-family="Times New Roman,serif" font-size="14.00">Kajiki &gt;= 0.6.3</text>
</g>
<!-- install_requiresinstall_requires&#45;&gt;install_requiresKajiki &gt;= 0.6.3 -->
<g id="edge6" class="edge"><title>install_requiresinstall_requires&#45;&gt;install_requiresKajiki &gt;= 0.6.3</title>
<path fill="none" stroke="black" d="M592.972,-301.559C604.768,-272.728 631.319,-216.976 671,-185 675.851,-181.091 681.316,-177.721 687.027,-174.82"/>
<polygon fill="black" stroke="black" points="688.518,-177.987 696.151,-170.639 685.602,-171.623 688.518,-177.987"/>
</g>
<!-- install_requireszope.sqlalchemy &gt;= 1.2 -->
<g id="node18" class="node"><title>install_requireszope.sqlalchemy &gt;= 1.2</title>
<path fill="#ea164f" stroke="black" d="M810,-230C810,-230 683,-230 683,-230 677,-230 671,-224 671,-218 671,-218 671,-206 671,-206 671,-200 677,-194 683,-194 683,-194 810,-194 810,-194 816,-194 822,-200 822,-206 822,-206 822,-218 822,-218 822,-224 816,-230 810,-230"/>
<text text-anchor="middle" x="746.5" y="-208.3" font-family="Times New Roman,serif" font-size="14.00">zope.sqlalchemy &gt;= 1.2</text>
</g>
<!-- install_requiresinstall_requires&#45;&gt;install_requireszope.sqlalchemy &gt;= 1.2 -->
<g id="edge7" class="edge"><title>install_requiresinstall_requires&#45;&gt;install_requireszope.sqlalchemy &gt;= 1.2</title>
<path fill="none" stroke="black" d="M600.902,-301.954C616.673,-283.862 643.099,-256.28 671,-239 673.467,-237.472 676.033,-236.013 678.666,-234.621"/>
<polygon fill="black" stroke="black" points="680.374,-237.682 687.823,-230.147 677.302,-231.392 680.374,-237.682"/>
</g>
<!-- install_requiressqlalchemy -->
<g id="node19" class="node"><title>install_requiressqlalchemy</title>
<path fill="#ea164f" stroke="black" d="M774,-284C774,-284 719,-284 719,-284 713,-284 707,-278 707,-272 707,-272 707,-260 707,-260 707,-254 713,-248 719,-248 719,-248 774,-248 774,-248 780,-248 786,-254 786,-260 786,-260 786,-272 786,-272 786,-278 780,-284 774,-284"/>
<text text-anchor="middle" x="746.5" y="-262.3" font-family="Times New Roman,serif" font-size="14.00">sqlalchemy</text>
</g>
<!-- install_requiresinstall_requires&#45;&gt;install_requiressqlalchemy -->
<g id="edge8" class="edge"><title>install_requiresinstall_requires&#45;&gt;install_requiressqlalchemy</title>
<path fill="none" stroke="black" d="M635.157,-303.358C654.889,-296.677 677.567,-288.999 697.212,-282.348"/>
<polygon fill="black" stroke="black" points="698.53,-285.597 706.88,-279.075 696.286,-278.967 698.53,-285.597"/>
</g>
<!-- install_requiresalembic -->
<g id="node20" class="node"><title>install_requiresalembic</title>
<path fill="#ea164f" stroke="black" d="M764,-338C764,-338 729,-338 729,-338 723,-338 717,-332 717,-326 717,-326 717,-314 717,-314 717,-308 723,-302 729,-302 729,-302 764,-302 764,-302 770,-302 776,-308 776,-314 776,-314 776,-326 776,-326 776,-332 770,-338 764,-338"/>
<text text-anchor="middle" x="746.5" y="-316.3" font-family="Times New Roman,serif" font-size="14.00">alembic</text>
</g>
<!-- install_requiresinstall_requires&#45;&gt;install_requiresalembic -->
<g id="edge9" class="edge"><title>install_requiresinstall_requires&#45;&gt;install_requiresalembic</title>
<path fill="none" stroke="black" d="M635.157,-320C658.126,-320 685.086,-320 706.607,-320"/>
<polygon fill="black" stroke="black" points="706.694,-323.5 716.694,-320 706.694,-316.5 706.694,-323.5"/>
</g>
<!-- install_requiresrepoze.who -->
<g id="node21" class="node"><title>install_requiresrepoze.who</title>
<path fill="#ea164f" stroke="black" d="M775.5,-392C775.5,-392 717.5,-392 717.5,-392 711.5,-392 705.5,-386 705.5,-380 705.5,-380 705.5,-368 705.5,-368 705.5,-362 711.5,-356 717.5,-356 717.5,-356 775.5,-356 775.5,-356 781.5,-356 787.5,-362 787.5,-368 787.5,-368 787.5,-380 787.5,-380 787.5,-386 781.5,-392 775.5,-392"/>
<text text-anchor="middle" x="746.5" y="-370.3" font-family="Times New Roman,serif" font-size="14.00">repoze.who</text>
</g>
<!-- install_requiresinstall_requires&#45;&gt;install_requiresrepoze.who -->
<g id="edge10" class="edge"><title>install_requiresinstall_requires&#45;&gt;install_requiresrepoze.who</title>
<path fill="none" stroke="black" d="M635.157,-336.642C654.419,-343.164 676.489,-350.636 695.803,-357.175"/>
<polygon fill="black" stroke="black" points="694.736,-360.509 705.33,-360.4 696.981,-353.878 694.736,-360.509"/>
</g>
<!-- install_requirestw2.forms -->
<g id="node22" class="node"><title>install_requirestw2.forms</title>
<path fill="#ea164f" stroke="black" d="M771.5,-446C771.5,-446 721.5,-446 721.5,-446 715.5,-446 709.5,-440 709.5,-434 709.5,-434 709.5,-422 709.5,-422 709.5,-416 715.5,-410 721.5,-410 721.5,-410 771.5,-410 771.5,-410 777.5,-410 783.5,-416 783.5,-422 783.5,-422 783.5,-434 783.5,-434 783.5,-440 777.5,-446 771.5,-446"/>
<text text-anchor="middle" x="746.5" y="-424.3" font-family="Times New Roman,serif" font-size="14.00">tw2.forms</text>
</g>
<!-- install_requiresinstall_requires&#45;&gt;install_requirestw2.forms -->
<g id="edge11" class="edge"><title>install_requiresinstall_requires&#45;&gt;install_requirestw2.forms</title>
<path fill="none" stroke="black" d="M600.902,-338.046C616.673,-356.138 643.099,-383.72 671,-401 679.772,-406.433 689.798,-410.999 699.592,-414.742"/>
<polygon fill="black" stroke="black" points="698.657,-418.125 709.252,-418.21 701.023,-411.537 698.657,-418.125"/>
</g>
<!-- install_requirestgext.admin &gt;= 0.6.1 -->
<g id="node23" class="node"><title>install_requirestgext.admin &gt;= 0.6.1</title>
<path fill="#ea164f" stroke="black" d="M801,-500C801,-500 692,-500 692,-500 686,-500 680,-494 680,-488 680,-488 680,-476 680,-476 680,-470 686,-464 692,-464 692,-464 801,-464 801,-464 807,-464 813,-470 813,-476 813,-476 813,-488 813,-488 813,-494 807,-500 801,-500"/>
<text text-anchor="middle" x="746.5" y="-478.3" font-family="Times New Roman,serif" font-size="14.00">tgext.admin &gt;= 0.6.1</text>
</g>
<!-- install_requiresinstall_requires&#45;&gt;install_requirestgext.admin &gt;= 0.6.1 -->
<g id="edge12" class="edge"><title>install_requiresinstall_requires&#45;&gt;install_requirestgext.admin &gt;= 0.6.1</title>
<path fill="none" stroke="black" d="M592.972,-338.441C604.768,-367.272 631.319,-423.024 671,-455 672.567,-456.262 674.197,-457.469 675.88,-458.621"/>
<polygon fill="black" stroke="black" points="674.3,-461.756 684.666,-463.946 677.928,-455.77 674.3,-461.756"/>
</g>
<!-- install_requiresWebHelpers2 -->
<g id="node24" class="node"><title>install_requiresWebHelpers2</title>
<path fill="#ea164f" stroke="black" d="M781,-554C781,-554 712,-554 712,-554 706,-554 700,-548 700,-542 700,-542 700,-530 700,-530 700,-524 706,-518 712,-518 712,-518 781,-518 781,-518 787,-518 793,-524 793,-530 793,-530 793,-542 793,-542 793,-548 787,-554 781,-554"/>
<text text-anchor="middle" x="746.5" y="-532.3" font-family="Times New Roman,serif" font-size="14.00">WebHelpers2</text>
</g>
<!-- install_requiresinstall_requires&#45;&gt;install_requiresWebHelpers2 -->
<g id="edge13" class="edge"><title>install_requiresinstall_requires&#45;&gt;install_requiresWebHelpers2</title>
<path fill="none" stroke="black" d="M589.241,-338.091C596.828,-375.295 619.172,-460.917 671,-509 676.547,-514.146 683.149,-518.327 690.097,-521.721"/>
<polygon fill="black" stroke="black" points="689.152,-525.125 699.72,-525.876 691.927,-518.698 689.152,-525.125"/>
</g>
<!-- config -->
<g id="node25" class="node"><title>config</title>
<path fill="#ea4f16" stroke="black" d="M464,-668C464,-668 434,-668 434,-668 428,-668 422,-662 422,-656 422,-656 422,-644 422,-644 422,-638 428,-632 434,-632 434,-632 464,-632 464,-632 470,-632 476,-638 476,-644 476,-644 476,-656 476,-656 476,-662 470,-668 464,-668"/>
<text text-anchor="middle" x="449" y="-646.3" font-family="Times New Roman,serif" font-size="14.00">config</text>
</g>
<!-- controllers -->
<g id="node26" class="node"><title>controllers</title>
<path fill="#ea4f16" stroke="black" d="M475,-722C475,-722 423,-722 423,-722 417,-722 411,-716 411,-710 411,-710 411,-698 411,-698 411,-692 417,-686 423,-686 423,-686 475,-686 475,-686 481,-686 487,-692 487,-698 487,-698 487,-710 487,-710 487,-716 481,-722 475,-722"/>
<text text-anchor="middle" x="449" y="-700.3" font-family="Times New Roman,serif" font-size="14.00">controllers</text>
</g>
<!-- i18n -->
<g id="node27" class="node"><title>i18n</title>
<path fill="#ea4f16" stroke="black" d="M464,-776C464,-776 434,-776 434,-776 428,-776 422,-770 422,-764 422,-764 422,-752 422,-752 422,-746 428,-740 434,-740 434,-740 464,-740 464,-740 470,-740 476,-746 476,-752 476,-752 476,-764 476,-764 476,-770 470,-776 464,-776"/>
<text text-anchor="middle" x="449" y="-754.3" font-family="Times New Roman,serif" font-size="14.00">i18n</text>
</g>
<!-- lib -->
<g id="node28" class="node"><title>lib</title>
<path fill="#ea4f16" stroke="black" d="M464,-830C464,-830 434,-830 434,-830 428,-830 422,-824 422,-818 422,-818 422,-806 422,-806 422,-800 428,-794 434,-794 434,-794 464,-794 464,-794 470,-794 476,-800 476,-806 476,-806 476,-818 476,-818 476,-824 470,-830 464,-830"/>
<text text-anchor="middle" x="449" y="-808.3" font-family="Times New Roman,serif" font-size="14.00">lib</text>
</g>
<!-- model -->
<g id="node29" class="node"><title>model</title>
<path fill="#ea4f16" stroke="black" d="M464,-884C464,-884 434,-884 434,-884 428,-884 422,-878 422,-872 422,-872 422,-860 422,-860 422,-854 428,-848 434,-848 434,-848 464,-848 464,-848 470,-848 476,-854 476,-860 476,-860 476,-872 476,-872 476,-878 470,-884 464,-884"/>
<text text-anchor="middle" x="449" y="-862.3" font-family="Times New Roman,serif" font-size="14.00">model</text>
</g>
<!-- public -->
<g id="node30" class="node"><title>public</title>
<path fill="#ea4f16" stroke="black" d="M464,-938C464,-938 434,-938 434,-938 428,-938 422,-932 422,-926 422,-926 422,-914 422,-914 422,-908 428,-902 434,-902 434,-902 464,-902 464,-902 470,-902 476,-908 476,-914 476,-914 476,-926 476,-926 476,-932 470,-938 464,-938"/>
<text text-anchor="middle" x="449" y="-916.3" font-family="Times New Roman,serif" font-size="14.00">public</text>
</g>
<!-- templates -->
<g id="node31" class="node"><title>templates</title>
<path fill="#ea4f16" stroke="black" d="M471.5,-992C471.5,-992 426.5,-992 426.5,-992 420.5,-992 414.5,-986 414.5,-980 414.5,-980 414.5,-968 414.5,-968 414.5,-962 420.5,-956 426.5,-956 426.5,-956 471.5,-956 471.5,-956 477.5,-956 483.5,-962 483.5,-968 483.5,-968 483.5,-980 483.5,-980 483.5,-986 477.5,-992 471.5,-992"/>
<text text-anchor="middle" x="449" y="-970.3" font-family="Times New Roman,serif" font-size="14.00">templates</text>
</g>
<!-- tests -->
<g id="node32" class="node"><title>tests</title>
<path fill="#ea4f16" stroke="black" d="M464,-1046C464,-1046 434,-1046 434,-1046 428,-1046 422,-1040 422,-1034 422,-1034 422,-1022 422,-1022 422,-1016 428,-1010 434,-1010 434,-1010 464,-1010 464,-1010 470,-1010 476,-1016 476,-1022 476,-1022 476,-1034 476,-1034 476,-1040 470,-1046 464,-1046"/>
<text text-anchor="middle" x="449" y="-1024.3" font-family="Times New Roman,serif" font-size="14.00">tests</text>
</g>
<!-- websetup -->
<g id="node33" class="node"><title>websetup</title>
<path fill="#ea4f16" stroke="black" d="M472,-1100C472,-1100 426,-1100 426,-1100 420,-1100 414,-1094 414,-1088 414,-1088 414,-1076 414,-1076 414,-1070 420,-1064 426,-1064 426,-1064 472,-1064 472,-1064 478,-1064 484,-1070 484,-1076 484,-1076 484,-1088 484,-1088 484,-1094 478,-1100 472,-1100"/>
<text text-anchor="middle" x="449" y="-1078.3" font-family="Times New Roman,serif" font-size="14.00">websetup</text>
</g>
<!-- __init__.py -->
<g id="node34" class="node"><title>__init__.py</title>
<path fill="#ea4f16" stroke="black" d="M477.5,-1154C477.5,-1154 420.5,-1154 420.5,-1154 414.5,-1154 408.5,-1148 408.5,-1142 408.5,-1142 408.5,-1130 408.5,-1130 408.5,-1124 414.5,-1118 420.5,-1118 420.5,-1118 477.5,-1118 477.5,-1118 483.5,-1118 489.5,-1124 489.5,-1130 489.5,-1130 489.5,-1142 489.5,-1142 489.5,-1148 483.5,-1154 477.5,-1154"/>
<text text-anchor="middle" x="449" y="-1132.3" font-family="Times New Roman,serif" font-size="14.00">__init__.py</text>
</g>
<!-- app&#45;&gt;config -->
<g id="edge14" class="edge"><title>app&#45;&gt;config</title>
<path fill="none" stroke="black" d="M333.671,-847.734C338.85,-811.319 354.966,-728.742 399,-677 402.912,-672.404 407.812,-668.448 412.989,-665.092"/>
<polygon fill="black" stroke="black" points="414.914,-668.023 421.84,-660.005 411.426,-661.954 414.914,-668.023"/>
</g>
<!-- app&#45;&gt;controllers -->
<g id="edge15" class="edge"><title>app&#45;&gt;controllers</title>
<path fill="none" stroke="black" d="M336.731,-847.764C345.56,-819.706 365.777,-765.579 399,-731 400.203,-729.748 401.477,-728.539 402.806,-727.374"/>
<polygon fill="black" stroke="black" points="405.095,-730.029 410.91,-721.172 400.841,-724.47 405.095,-730.029"/>
</g>
<!-- app&#45;&gt;i18n -->
<g id="edge16" class="edge"><title>app&#45;&gt;i18n</title>
<path fill="none" stroke="black" d="M343.559,-847.903C355.948,-830.283 376.55,-803.523 399,-785 403.308,-781.446 408.153,-778.126 413.076,-775.115"/>
<polygon fill="black" stroke="black" points="414.988,-778.053 421.923,-770.043 411.506,-771.98 414.988,-778.053"/>
</g>
<!-- app&#45;&gt;lib -->
<g id="edge17" class="edge"><title>app&#45;&gt;lib</title>
<path fill="none" stroke="black" d="M357.645,-853.881C373.834,-846.378 394.834,-836.644 412.513,-828.449"/>
<polygon fill="black" stroke="black" points="414.342,-831.459 421.942,-824.078 411.398,-825.108 414.342,-831.459"/>
</g>
<!-- app&#45;&gt;model -->
<g id="edge18" class="edge"><title>app&#45;&gt;model</title>
<path fill="none" stroke="black" d="M357.645,-866C373.534,-866 394.057,-866 411.528,-866"/>
<polygon fill="black" stroke="black" points="411.942,-869.5 421.942,-866 411.942,-862.5 411.942,-869.5"/>
</g>
<!-- app&#45;&gt;public -->
<g id="edge19" class="edge"><title>app&#45;&gt;public</title>
<path fill="none" stroke="black" d="M357.645,-878.119C373.834,-885.622 394.834,-895.356 412.513,-903.551"/>
<polygon fill="black" stroke="black" points="411.398,-906.892 421.942,-907.922 414.342,-900.541 411.398,-906.892"/>
</g>
<!-- app&#45;&gt;templates -->
<g id="edge20" class="edge"><title>app&#45;&gt;templates</title>
<path fill="none" stroke="black" d="M343.559,-884.097C355.948,-901.717 376.55,-928.477 399,-947 401.212,-948.825 403.567,-950.589 406,-952.281"/>
<polygon fill="black" stroke="black" points="404.186,-955.275 414.49,-957.741 407.973,-949.388 404.186,-955.275"/>
</g>
<!-- app&#45;&gt;tests -->
<g id="edge21" class="edge"><title>app&#45;&gt;tests</title>
<path fill="none" stroke="black" d="M336.731,-884.236C345.56,-912.294 365.777,-966.421 399,-1001 403.095,-1005.26 408.013,-1009.02 413.13,-1012.28"/>
<polygon fill="black" stroke="black" points="411.409,-1015.33 421.821,-1017.29 414.904,-1009.27 411.409,-1015.33"/>
</g>
<!-- app&#45;&gt;websetup -->
<g id="edge22" class="edge"><title>app&#45;&gt;websetup</title>
<path fill="none" stroke="black" d="M333.671,-884.266C338.85,-920.681 354.966,-1003.26 399,-1055 400.948,-1057.29 403.14,-1059.42 405.49,-1061.39"/>
<polygon fill="black" stroke="black" points="403.805,-1064.5 413.957,-1067.53 407.911,-1058.83 403.805,-1064.5"/>
</g>
<!-- app&#45;&gt;__init__.py -->
<g id="edge23" class="edge"><title>app&#45;&gt;__init__.py</title>
<path fill="none" stroke="black" d="M331.906,-884.29C333.779,-927.884 344.006,-1039.45 399,-1109 399.58,-1109.73 400.185,-1110.45 400.814,-1111.15"/>
<polygon fill="black" stroke="black" points="398.564,-1113.83 408.299,-1118.02 403.296,-1108.68 398.564,-1113.83"/>
</g>
</g>
</svg>
