<?xml version="1.0" encoding="UTF-8" standalone="no"?>
<!DOCTYPE svg PUBLIC "-//W3C//DTD SVG 1.1//EN"
 "http://www.w3.org/Graphics/SVG/1.1/DTD/svg11.dtd">
<!-- Generated by graphviz version 2.38.0 (20140413.2041)
 -->
<!-- Title: %3 Pages: 1 -->
<svg width="514pt" height="479pt"
 viewBox="0.00 0.00 513.54 479.00" xmlns="http://www.w3.org/2000/svg" xmlns:xlink="http://www.w3.org/1999/xlink">
<g id="graph0" class="graph" transform="scale(1 1) rotate(0) translate(4 475)">
<title>%3</title>
<polygon fill="white" stroke="none" points="-4,4 -4,-475 509.536,-475 509.536,4 -4,4"/>
<!-- []{insert -->
<g id="node1" class="node"><title>[]{insert</title>
<path fill="#ff5e99" stroke="black" d="M271.768,-297C271.768,-297 233.768,-297 233.768,-297 227.768,-297 221.768,-291 221.768,-285 221.768,-285 221.768,-273 221.768,-273 221.768,-267 227.768,-261 233.768,-261 233.768,-261 271.768,-261 271.768,-261 277.768,-261 283.768,-267 283.768,-273 283.768,-273 283.768,-285 283.768,-285 283.768,-291 277.768,-297 271.768,-297"/>
<text text-anchor="middle" x="252.768" y="-275.3" font-family="Times New Roman,serif" font-size="14.00">[]{insert</text>
</g>
<!-- len(_Bnodes{contents) &gt; _Bnodes{tree{order -->
<g id="node4" class="node"><title>len(_Bnodes{contents) &gt; _Bnodes{tree{order</title>
<path fill="#ffce9f" stroke="black" d="M240.799,-209.147C240.799,-209.147 12.2012,-192.853 12.2012,-192.853 6.21636,-192.427 6.21636,-191.573 12.2012,-191.147 12.2012,-191.147 240.799,-174.853 240.799,-174.853 246.783,-174.427 258.753,-174.427 264.738,-174.853 264.738,-174.853 493.335,-191.147 493.335,-191.147 499.32,-191.573 499.32,-192.427 493.335,-192.853 493.335,-192.853 264.738,-209.147 264.738,-209.147 258.753,-209.573 246.783,-209.573 240.799,-209.147"/>
<text text-anchor="middle" x="252.768" y="-188.3" font-family="Times New Roman,serif" font-size="14.00">len(_Bnodes{contents) &gt; _Bnodes{tree{order</text>
</g>
<!-- []{insert&#45;&gt;len(_Bnodes{contents) &gt; _Bnodes{tree{order -->
<g id="edge3" class="edge"><title>[]{insert&#45;&gt;len(_Bnodes{contents) &gt; _Bnodes{tree{order</title>
<path fill="none" stroke="black" d="M252.768,-260.799C252.768,-249.163 252.768,-233.548 252.768,-220.237"/>
<polygon fill="black" stroke="black" points="256.268,-220.175 252.768,-210.175 249.268,-220.175 256.268,-220.175"/>
<text text-anchor="middle" x="298.268" y="-231.8" font-family="Times New Roman,serif" font-size="14.00">_Bnodes{shrink</text>
</g>
<!-- _Bnodes{insert -->
<g id="node2" class="node"><title>_Bnodes{insert</title>
<path fill="#ffe599" stroke="black" d="M292.768,-384C292.768,-384 212.768,-384 212.768,-384 206.768,-384 200.768,-378 200.768,-372 200.768,-372 200.768,-360 200.768,-360 200.768,-354 206.768,-348 212.768,-348 212.768,-348 292.768,-348 292.768,-348 298.768,-348 304.768,-354 304.768,-360 304.768,-360 304.768,-372 304.768,-372 304.768,-378 298.768,-384 292.768,-384"/>
<text text-anchor="middle" x="252.768" y="-362.3" font-family="Times New Roman,serif" font-size="14.00">_Bnodes{insert</text>
</g>
<!-- _Bnodes{insert&#45;&gt;[]{insert -->
<g id="edge2" class="edge"><title>_Bnodes{insert&#45;&gt;[]{insert</title>
<path fill="none" stroke="black" d="M252.768,-347.799C252.768,-336.163 252.768,-320.548 252.768,-307.237"/>
<polygon fill="black" stroke="black" points="256.268,-307.175 252.768,-297.175 249.268,-307.175 256.268,-307.175"/>
<text text-anchor="middle" x="356.768" y="-318.8" font-family="Times New Roman,serif" font-size="14.00">_Bnodes{contents{insert(index,item)</text>
</g>
<!-- _Bnodes{shrink -->
<g id="node3" class="node"><title>_Bnodes{shrink</title>
<path fill="#ffe599" stroke="black" d="M227.268,-123C227.268,-123 144.268,-123 144.268,-123 138.268,-123 132.268,-117 132.268,-111 132.268,-111 132.268,-99 132.268,-99 132.268,-93 138.268,-87 144.268,-87 144.268,-87 227.268,-87 227.268,-87 233.268,-87 239.268,-93 239.268,-99 239.268,-99 239.268,-111 239.268,-111 239.268,-117 233.268,-123 227.268,-123"/>
<text text-anchor="middle" x="185.768" y="-101.3" font-family="Times New Roman,serif" font-size="14.00">_Bnodes{shrink</text>
</g>
<!-- end -->
<g id="node6" class="node"><title>end</title>
<ellipse fill="none" stroke="black" cx="233.768" cy="-18" rx="27" ry="18"/>
<text text-anchor="middle" x="233.768" y="-14.3" font-family="Times New Roman,serif" font-size="14.00">end</text>
</g>
<!-- _Bnodes{shrink&#45;&gt;end -->
<g id="edge6" class="edge"><title>_Bnodes{shrink&#45;&gt;end</title>
<path fill="none" stroke="black" d="M187.906,-86.9401C189.714,-76.8549 192.976,-64.1194 198.768,-54 201.65,-48.9659 205.445,-44.1532 209.472,-39.7951"/>
<polygon fill="black" stroke="black" points="212.196,-42.0229 216.823,-32.492 207.262,-37.057 212.196,-42.0229"/>
<text text-anchor="middle" x="230.268" y="-57.8" font-family="Times New Roman,serif" font-size="14.00">(ancestors)</text>
</g>
<!-- len(_Bnodes{contents) &gt; _Bnodes{tree{order&#45;&gt;_Bnodes{shrink -->
<g id="edge5" class="edge"><title>len(_Bnodes{contents) &gt; _Bnodes{tree{order&#45;&gt;_Bnodes{shrink</title>
<path fill="none" stroke="black" d="M239.85,-174.611C230.123,-162.271 216.616,-145.136 205.534,-131.077"/>
<polygon fill="black" stroke="black" points="208.276,-128.901 199.337,-123.214 202.779,-133.234 208.276,-128.901"/>
<text text-anchor="middle" x="234.768" y="-144.8" font-family="Times New Roman,serif" font-size="14.00">Yes</text>
</g>
<!-- len(_Bnodes{contents) &gt; _Bnodes{tree{order&#45;&gt;end -->
<g id="edge4" class="edge"><title>len(_Bnodes{contents) &gt; _Bnodes{tree{order&#45;&gt;end</title>
<path fill="none" stroke="black" d="M258.069,-173.974C265.404,-147.482 276.207,-95.1609 261.768,-54 260.22,-49.5851 257.854,-45.3133 255.14,-41.361"/>
<polygon fill="black" stroke="black" points="257.744,-39.0087 248.826,-33.2876 252.23,-43.3209 257.744,-39.0087"/>
<text text-anchor="middle" x="280.268" y="-101.3" font-family="Times New Roman,serif" font-size="14.00">NO</text>
</g>
<!-- start -->
<g id="node5" class="node"><title>start</title>
<ellipse fill="none" stroke="black" cx="252.768" cy="-453" rx="27" ry="18"/>
<text text-anchor="middle" x="252.768" y="-449.3" font-family="Times New Roman,serif" font-size="14.00">start</text>
</g>
<!-- start&#45;&gt;_Bnodes{insert -->
<g id="edge1" class="edge"><title>start&#45;&gt;_Bnodes{insert</title>
<path fill="none" stroke="black" d="M252.768,-434.799C252.768,-423.163 252.768,-407.548 252.768,-394.237"/>
<polygon fill="black" stroke="black" points="256.268,-394.175 252.768,-384.175 249.268,-394.175 256.268,-394.175"/>
<text text-anchor="middle" x="314.768" y="-405.8" font-family="Times New Roman,serif" font-size="14.00">(index,item,ancestors)</text>
</g>
</g>
</svg>
