<?xml version="1.0" encoding="UTF-8" standalone="no"?>
<!DOCTYPE svg PUBLIC "-//W3C//DTD SVG 1.1//EN"
 "http://www.w3.org/Graphics/SVG/1.1/DTD/svg11.dtd">
<!-- Generated by graphviz version 2.38.0 (20140413.2041)
 -->
<!-- Title: G Pages: 1 -->
<svg width="1078pt" height="651pt"
 viewBox="0.00 0.00 1078.00 651.00" xmlns="http://www.w3.org/2000/svg" xmlns:xlink="http://www.w3.org/1999/xlink">
<g id="graph0" class="graph" transform="scale(1 1) rotate(0) translate(4 647)">
<title>G</title>
<polygon fill="white" stroke="none" points="-4,4 -4,-647 1074,-647 1074,4 -4,4"/>
<g id="clust1" class="cluster"><title>cluster_class</title>
<polygon fill="lightgrey" stroke="lightgrey" points="8,-81 8,-202 328,-202 328,-81 8,-81"/>
<text text-anchor="middle" x="168" y="-186.8" font-family="Times New Roman,serif" font-size="14.00">class Btree </text>
<text text-anchor="middle" x="168" y="-155.8" font-family="Times New Roman,serif" font-size="14.00"> &#160;&#160;&#160;&#160;&#160;&#160;&#160;&#160;&#160;&#160;{ Btree&#45;BRANCH = Btree&#45;LEAF = _Bnodes }</text>
<text text-anchor="middle" x="168" y="-140.8" font-family="Times New Roman,serif" font-size="14.00"> &#160;&#160;&#160;</text>
</g>
<g id="clust2" class="cluster"><title>cluster_instance</title>
<polygon fill="lightgrey" stroke="lightgrey" points="336,-8 336,-635 1062,-635 1062,-8 336,-8"/>
</g>
<!-- _BnodesClass -->
<g id="node1" class="node"><title>_BnodesClass</title>
<path fill="#ffe599" stroke="black" d="M314,-52C314,-52 240,-52 240,-52 234,-52 228,-46 228,-40 228,-40 228,-28 228,-28 228,-22 234,-16 240,-16 240,-16 314,-16 314,-16 320,-16 326,-22 326,-28 326,-28 326,-40 326,-40 326,-46 320,-52 314,-52"/>
<text text-anchor="middle" x="277" y="-30.3" font-family="Times New Roman,serif" font-size="14.00">_BnodesClass</text>
</g>
<!-- Btree&#45;BRANCH -->
<g id="node2" class="node"><title>Btree&#45;BRANCH</title>
<path fill="#ffe599" stroke="black" d="M204,-125C204,-125 120,-125 120,-125 114,-125 108,-119 108,-113 108,-113 108,-101 108,-101 108,-95 114,-89 120,-89 120,-89 204,-89 204,-89 210,-89 216,-95 216,-101 216,-101 216,-113 216,-113 216,-119 210,-125 204,-125"/>
<text text-anchor="middle" x="162" y="-103.3" font-family="Times New Roman,serif" font-size="14.00">Btree&#45;BRANCH</text>
</g>
<!-- Btree&#45;BRANCH&#45;&#45;_BnodesClass -->
<g id="edge7" class="edge"><title>Btree&#45;BRANCH&#45;&#45;_BnodesClass</title>
<path fill="none" stroke="black" stroke-dasharray="1,5" d="M189.545,-88.9937C207.619,-77.835 231.172,-63.2939 249.281,-52.1136"/>
</g>
<!-- Btree&#45;LEAF -->
<g id="node3" class="node"><title>Btree&#45;LEAF</title>
<path fill="#ffe599" stroke="black" d="M307.5,-125C307.5,-125 246.5,-125 246.5,-125 240.5,-125 234.5,-119 234.5,-113 234.5,-113 234.5,-101 234.5,-101 234.5,-95 240.5,-89 246.5,-89 246.5,-89 307.5,-89 307.5,-89 313.5,-89 319.5,-95 319.5,-101 319.5,-101 319.5,-113 319.5,-113 319.5,-119 313.5,-125 307.5,-125"/>
<text text-anchor="middle" x="277" y="-103.3" font-family="Times New Roman,serif" font-size="14.00">Btree&#45;LEAF</text>
</g>
<!-- Btree&#45;LEAF&#45;&#45;_BnodesClass -->
<g id="edge8" class="edge"><title>Btree&#45;LEAF&#45;&#45;_BnodesClass</title>
<path fill="none" stroke="black" stroke-dasharray="1,5" d="M277,-88.8129C277,-77.6499 277,-63.1602 277,-52.0288"/>
</g>
<!-- Btree{order -->
<g id="node4" class="node"><title>Btree{order</title>
<path fill="#00e599" stroke="black" d="M766.188,-453C766.188,-453 664.218,-453 664.218,-453 658.218,-453 648.203,-448.541 644.189,-444.081 644.189,-444.081 627.84,-425.919 627.84,-425.919 623.826,-421.459 625.812,-417 631.812,-417 631.812,-417 733.782,-417 733.782,-417 739.782,-417 749.797,-421.459 753.811,-425.919 753.811,-425.919 770.16,-444.081 770.16,-444.081 774.174,-448.541 772.188,-453 766.188,-453"/>
<text text-anchor="middle" x="699" y="-431.3" font-family="Times New Roman,serif" font-size="14.00">Btree{order</text>
</g>
<!-- Btree{_root -->
<g id="node5" class="node"><title>Btree{_root</title>
<path fill="#00e599" stroke="black" d="M766.188,-366C766.188,-366 664.218,-366 664.218,-366 658.218,-366 648.203,-361.541 644.189,-357.081 644.189,-357.081 627.84,-338.919 627.84,-338.919 623.826,-334.459 625.812,-330 631.812,-330 631.812,-330 733.782,-330 733.782,-330 739.782,-330 749.797,-334.459 753.811,-338.919 753.811,-338.919 770.16,-357.081 770.16,-357.081 774.174,-361.541 772.188,-366 766.188,-366"/>
<text text-anchor="middle" x="699" y="-344.3" font-family="Times New Roman,serif" font-size="14.00">Btree{_root</text>
</g>
<!-- Btree{order&#45;&#45;Btree{_root -->
<g id="edge3" class="edge"><title>Btree{order&#45;&#45;Btree{_root</title>
<path fill="none" stroke="black" d="M699,-416.799C699,-402.052 699,-380.915 699,-366.175"/>
<text text-anchor="middle" x="827" y="-387.8" font-family="Times New Roman,serif" font-size="14.00">Btree{_root=Btree{_bottom=_Bnodes(Btree)</text>
</g>
<!-- Btree{_bottom -->
<g id="node6" class="node"><title>Btree{_bottom</title>
<path fill="#00e599" stroke="black" d="M1042.39,-279C1042.39,-279 501.042,-279 501.042,-279 495.042,-279 483.218,-277.558 477.394,-276.117 477.394,-276.117 355.256,-245.883 355.256,-245.883 349.432,-244.442 349.607,-243 355.607,-243 355.607,-243 896.958,-243 896.958,-243 902.958,-243 914.782,-244.442 920.606,-245.883 920.606,-245.883 1042.74,-276.117 1042.74,-276.117 1048.57,-277.558 1048.39,-279 1042.39,-279"/>
<text text-anchor="middle" x="699" y="-257.3" font-family="Times New Roman,serif" font-size="14.00">Btree{_bottom</text>
</g>
<!-- Btree{_root&#45;&#45;Btree{_bottom -->
<g id="edge4" class="edge"><title>Btree{_root&#45;&#45;Btree{_bottom</title>
<path fill="none" stroke="black" d="M699,-329.799C699,-315.052 699,-293.915 699,-279.175"/>
<text text-anchor="middle" x="827" y="-300.8" font-family="Times New Roman,serif" font-size="14.00">Btree{_root=Btree{_bottom=_Bnodes(Btree)</text>
</g>
<!-- _Bnodes -->
<g id="node7" class="node"><title>_Bnodes</title>
<path fill="#ffe599" stroke="black" d="M479.5,-125C479.5,-125 436.5,-125 436.5,-125 430.5,-125 424.5,-119 424.5,-113 424.5,-113 424.5,-101 424.5,-101 424.5,-95 430.5,-89 436.5,-89 436.5,-89 479.5,-89 479.5,-89 485.5,-89 491.5,-95 491.5,-101 491.5,-101 491.5,-113 491.5,-113 491.5,-119 485.5,-125 479.5,-125"/>
<text text-anchor="middle" x="458" y="-103.3" font-family="Times New Roman,serif" font-size="14.00">_Bnodes</text>
</g>
<!-- Btree{_bottom&#45;&#45;_Bnodes -->
<g id="edge5" class="edge"><title>Btree{_bottom&#45;&#45;_Bnodes</title>
<path fill="none" stroke="black" d="M671.823,-242.859C625.414,-213.589 531.419,-154.306 485.078,-125.078"/>
<text text-anchor="middle" x="768" y="-213.8" font-family="Times New Roman,serif" font-size="14.00">Btree{_root=Btree{_bottom=_Bnodes(Btree)</text>
</g>
<!-- _Bnodes&#45;&#45;_BnodesClass -->
<g id="edge9" class="edge"><title>_Bnodes&#45;&#45;_BnodesClass</title>
<path fill="none" stroke="black" stroke-dasharray="1,5" d="M424.379,-92.8118C395.038,-81.3023 352.283,-64.5308 320.371,-52.013"/>
</g>
<!-- end -->
<g id="node10" class="node"><title>end</title>
<ellipse fill="none" stroke="black" cx="458" cy="-34" rx="27" ry="18"/>
<text text-anchor="middle" x="458" y="-30.3" font-family="Times New Roman,serif" font-size="14.00">end</text>
</g>
<!-- _Bnodes&#45;&#45;end -->
<g id="edge6" class="edge"><title>_Bnodes&#45;&#45;end</title>
<path fill="none" stroke="black" d="M458,-88.8129C458,-77.6499 458,-63.1602 458,-52.0288"/>
</g>
<!-- Btree{__init__ -->
<g id="node8" class="node"><title>Btree{__init__</title>
<path fill="#ffe599" stroke="black" d="M736.5,-540C736.5,-540 661.5,-540 661.5,-540 655.5,-540 649.5,-534 649.5,-528 649.5,-528 649.5,-516 649.5,-516 649.5,-510 655.5,-504 661.5,-504 661.5,-504 736.5,-504 736.5,-504 742.5,-504 748.5,-510 748.5,-516 748.5,-516 748.5,-528 748.5,-528 748.5,-534 742.5,-540 736.5,-540"/>
<text text-anchor="middle" x="699" y="-518.3" font-family="Times New Roman,serif" font-size="14.00">Btree{__init__</text>
</g>
<!-- Btree{__init__&#45;&#45;Btree{order -->
<g id="edge2" class="edge"><title>Btree{__init__&#45;&#45;Btree{order</title>
<path fill="none" stroke="black" d="M699,-503.799C699,-489.052 699,-467.915 699,-453.175"/>
<text text-anchor="middle" x="751.5" y="-474.8" font-family="Times New Roman,serif" font-size="14.00">Btree{order=order</text>
</g>
<!-- start -->
<g id="node9" class="node"><title>start</title>
<ellipse fill="none" stroke="black" cx="699" cy="-609" rx="27" ry="18"/>
<text text-anchor="middle" x="699" y="-605.3" font-family="Times New Roman,serif" font-size="14.00">start</text>
</g>
<!-- start&#45;&#45;Btree{__init__ -->
<g id="edge1" class="edge"><title>start&#45;&#45;Btree{__init__</title>
<path fill="none" stroke="black" d="M699,-590.799C699,-576.052 699,-554.915 699,-540.175"/>
<text text-anchor="middle" x="719" y="-561.8" font-family="Times New Roman,serif" font-size="14.00">(order)</text>
</g>
</g>
</svg>
