<?xml version="1.0" encoding="UTF-8" standalone="no"?>
<!DOCTYPE svg PUBLIC "-//W3C//DTD SVG 1.1//EN"
 "http://www.w3.org/Graphics/SVG/1.1/DTD/svg11.dtd">
<!-- Generated by graphviz version 2.38.0 (20140413.2041)
 -->
<!-- Title: %3 Pages: 1 -->
<svg width="3406pt" height="1709pt"
 viewBox="0.00 0.00 3406.31 1709.00" xmlns="http://www.w3.org/2000/svg" xmlns:xlink="http://www.w3.org/1999/xlink">
<g id="graph0" class="graph" transform="scale(1 1) rotate(0) translate(4 1705)">
<title>%3</title>
<polygon fill="white" stroke="none" points="-4,4 -4,-1705 3402.31,-1705 3402.31,4 -4,4"/>
<g id="clust1" class="cluster"><title>cluster_begin</title>
<polygon fill="none" stroke="black" points="8,-1280 8,-1693 1015.16,-1693 1015.16,-1280 8,-1280"/>
<text text-anchor="middle" x="511.578" y="-1677.8" font-family="Times New Roman,serif" font-size="14.00">begin status</text>
</g>
<g id="clust3" class="cluster"><title>cluster_bnode1</title>
<polygon fill="none" stroke="black" points="804.38,-1479 804.38,-1662 1007.16,-1662 1007.16,-1479 804.38,-1479"/>
<text text-anchor="middle" x="905.768" y="-1646.8" font-family="Times New Roman,serif" font-size="14.00">bnode1</text>
</g>
<g id="clust2" class="cluster"><title>cluster_root_bnode</title>
<polygon fill="none" stroke="black" points="130.826,-1330 130.826,-1513 491.79,-1513 491.79,-1330 130.826,-1330"/>
<text text-anchor="middle" x="311.308" y="-1497.8" font-family="Times New Roman,serif" font-size="14.00">root Bnode</text>
</g>
<g id="clust4" class="cluster"><title>cluster_bnode2</title>
<polygon fill="none" stroke="black" points="804.38,-1288 804.38,-1471 1007.16,-1471 1007.16,-1288 804.38,-1288"/>
<text text-anchor="middle" x="905.768" y="-1455.8" font-family="Times New Roman,serif" font-size="14.00">bnode2</text>
</g>
<g id="clust6" class="cluster"><title>cluster_gen_ances</title>
<polygon fill="none" stroke="black" points="559.79,-1058 559.79,-1272 3390.31,-1272 3390.31,-1058 559.79,-1058"/>
<text text-anchor="middle" x="1975.05" y="-1256.8" font-family="Times New Roman,serif" font-size="14.00">generate ancestry</text>
</g>
<g id="clust7" class="cluster"><title>cluster_loop_ances</title>
<polygon fill="none" stroke="black" points="567.79,-1112 567.79,-1241 2979.75,-1241 2979.75,-1112 567.79,-1112"/>
<text text-anchor="middle" x="1773.77" y="-1225.8" font-family="Times New Roman,serif" font-size="14.00">loop</text>
</g>
<g id="clust5" class="cluster"><title>cluster_add6</title>
<polygon fill="none" stroke="black" points="259.808,-1121 259.808,-1250 362.808,-1250 362.808,-1121 259.808,-1121"/>
<text text-anchor="middle" x="311.308" y="-1234.8" font-family="Times New Roman,serif" font-size="14.00">add 6(insert(6))</text>
</g>
<g id="clust8" class="cluster"><title>cluster_insertting</title>
<polygon fill="none" stroke="black" points="1262.75,-620 1262.75,-1050 2244.07,-1050 2244.07,-620 1262.75,-620"/>
<text text-anchor="middle" x="1753.41" y="-1034.8" font-family="Times New Roman,serif" font-size="14.00">insert ing</text>
</g>
<g id="clust9" class="cluster"><title>cluster_lpag</title>
<polygon fill="none" stroke="black" points="1270.75,-782 1270.75,-1019 1609.12,-1019 1609.12,-782 1270.75,-782"/>
<text text-anchor="middle" x="1439.93" y="-1003.8" font-family="Times New Roman,serif" font-size="14.00">loop again</text>
</g>
<g id="clust10" class="cluster"><title>cluster_begin_ins6</title>
<polygon fill="none" stroke="black" points="1715.59,-199 1715.59,-612 2769.75,-612 2769.75,-199 1715.59,-199"/>
<text text-anchor="middle" x="2242.67" y="-596.8" font-family="Times New Roman,serif" font-size="14.00">bnode inser(6,index)</text>
</g>
<g id="clust11" class="cluster"><title>cluster_root_bnode_ins6</title>
<polygon fill="none" stroke="black" points="1927.9,-249 1927.9,-432 2288.86,-432 2288.86,-249 1927.9,-249"/>
<text text-anchor="middle" x="2108.38" y="-416.8" font-family="Times New Roman,serif" font-size="14.00">root Bnode</text>
</g>
<g id="clust13" class="cluster"><title>cluster_bnode2_ins6</title>
<polygon fill="none" stroke="black" points="2358.86,-207 2358.86,-390 2761.75,-390 2761.75,-207 2358.86,-207"/>
<text text-anchor="middle" x="2560.31" y="-374.8" font-family="Times New Roman,serif" font-size="14.00">bnode2</text>
</g>
<g id="clust12" class="cluster"><title>cluster_bnode1_ins6</title>
<polygon fill="none" stroke="black" points="2458.92,-398 2458.92,-581 2661.69,-581 2661.69,-398 2458.92,-398"/>
<text text-anchor="middle" x="2560.31" y="-565.8" font-family="Times New Roman,serif" font-size="14.00">bnode1</text>
</g>
<g id="clust14" class="cluster"><title>cluster_node2end</title>
<polygon fill="none" stroke="black" points="2446.53,-8 2446.53,-191 2674.08,-191 2674.08,-8 2446.53,-8"/>
<text text-anchor="middle" x="2560.31" y="-175.8" font-family="Times New Roman,serif" font-size="14.00">bnode2</text>
</g>
<!-- BRANCH_begin -->
<g id="node1" class="node"><title>BRANCH_begin</title>
<path fill="lightgrey" stroke="black" d="M83.9131,-1631C83.9131,-1631 33.9131,-1631 33.9131,-1631 27.9131,-1631 21.9131,-1625 21.9131,-1619 21.9131,-1619 21.9131,-1607 21.9131,-1607 21.9131,-1601 27.9131,-1595 33.9131,-1595 33.9131,-1595 83.9131,-1595 83.9131,-1595 89.9131,-1595 95.9131,-1601 95.9131,-1607 95.9131,-1607 95.9131,-1619 95.9131,-1619 95.9131,-1625 89.9131,-1631 83.9131,-1631"/>
<text text-anchor="middle" x="58.9131" y="-1609.3" font-family="Times New Roman,serif" font-size="14.00">BRANCH</text>
</g>
<!-- LEAF_begin -->
<g id="node2" class="node"><title>LEAF_begin</title>
<path fill="lightgrey" stroke="black" d="M73.9131,-1547C73.9131,-1547 43.9131,-1547 43.9131,-1547 37.9131,-1547 31.9131,-1541 31.9131,-1535 31.9131,-1535 31.9131,-1523 31.9131,-1523 31.9131,-1517 37.9131,-1511 43.9131,-1511 43.9131,-1511 73.9131,-1511 73.9131,-1511 79.9131,-1511 85.9131,-1517 85.9131,-1523 85.9131,-1523 85.9131,-1535 85.9131,-1535 85.9131,-1541 79.9131,-1547 73.9131,-1547"/>
<text text-anchor="middle" x="58.9131" y="-1525.3" font-family="Times New Roman,serif" font-size="14.00">LEAF</text>
</g>
<!-- _bottom_begin -->
<g id="node3" class="node"><title>_bottom_begin</title>
<polygon fill="lightgrey" stroke="black" points="343.808,-1557 290.808,-1557 290.808,-1561 278.808,-1561 278.808,-1521 343.808,-1521 343.808,-1557"/>
<polyline fill="none" stroke="black" points="278.808,-1557 290.808,-1557 "/>
<text text-anchor="middle" x="311.308" y="-1535.3" font-family="Times New Roman,serif" font-size="14.00">_bottom</text>
</g>
<!-- bnode1_none -->
<g id="node10" class="node"><title>bnode1_none</title>
</g>
<!-- _bottom_begin&#45;&gt;bnode1_none -->
<g id="edge2" class="edge"><title>_bottom_begin&#45;&gt;bnode1_none</title>
<path fill="none" stroke="black" d="M354.305,-1536.59C465.239,-1530.22 764.682,-1513.04 868.633,-1507.07"/>
<polygon fill="black" stroke="black" points="353.944,-1533.1 344.161,-1537.17 354.346,-1540.09 353.944,-1533.1"/>
<polygon fill="black" stroke="black" points="868.853,-1510.57 878.636,-1506.5 868.452,-1503.58 868.853,-1510.57"/>
</g>
<!-- _root_begin -->
<g id="node4" class="node"><title>_root_begin</title>
<polygon fill="lightgrey" stroke="black" points="85.9131,-1432 43.9131,-1432 43.9131,-1436 31.9131,-1436 31.9131,-1396 85.9131,-1396 85.9131,-1432"/>
<polyline fill="none" stroke="black" points="31.9131,-1432 43.9131,-1432 "/>
<text text-anchor="middle" x="58.9131" y="-1410.3" font-family="Times New Roman,serif" font-size="14.00">_root</text>
</g>
<!-- root_bnode_none -->
<g id="node7" class="node"><title>root_bnode_none</title>
</g>
<!-- _root_begin&#45;&gt;root_bnode_none -->
<g id="edge1" class="edge"><title>_root_begin&#45;&gt;root_bnode_none</title>
<path fill="none" stroke="black" d="M95.577,-1396.23C106.649,-1391.31 119.044,-1386.4 130.826,-1383 179.327,-1369.02 237.405,-1361.96 274.085,-1358.64"/>
<polygon fill="black" stroke="black" points="93.8654,-1393.17 86.2357,-1400.52 96.7843,-1399.53 93.8654,-1393.17"/>
<polygon fill="black" stroke="black" points="274.629,-1362.1 284.292,-1357.76 274.029,-1355.13 274.629,-1362.1"/>
</g>
<!-- cont_root_bnode -->
<g id="node5" class="node"><title>cont_root_bnode</title>
<path fill="lightgrey" stroke="black" d="M383.026,-1482C383.026,-1482 273.85,-1482 273.85,-1482 267.85,-1482 257.714,-1477.65 253.577,-1473.31 253.577,-1473.31 235.863,-1454.69 235.863,-1454.69 231.727,-1450.35 233.591,-1446 239.591,-1446 239.591,-1446 348.767,-1446 348.767,-1446 354.767,-1446 364.903,-1450.35 369.039,-1454.69 369.039,-1454.69 386.753,-1473.31 386.753,-1473.31 390.89,-1477.65 389.026,-1482 383.026,-1482"/>
<text text-anchor="middle" x="311.308" y="-1460.3" font-family="Times New Roman,serif" font-size="14.00">contents=[3]</text>
</g>
<!-- child_root_bnode -->
<g id="node6" class="node"><title>child_root_bnode</title>
<path fill="lightgrey" stroke="black" d="M471.772,-1428C471.772,-1428 221.421,-1428 221.421,-1428 215.421,-1428 204.076,-1425.27 198.731,-1422.55 198.731,-1422.55 149.534,-1397.45 149.534,-1397.45 144.189,-1394.73 144.844,-1392 150.844,-1392 150.844,-1392 401.196,-1392 401.196,-1392 407.196,-1392 418.541,-1394.73 423.886,-1397.45 423.886,-1397.45 473.083,-1422.55 473.083,-1422.55 478.427,-1425.27 477.772,-1428 471.772,-1428"/>
<text text-anchor="middle" x="311.308" y="-1406.3" font-family="Times New Roman,serif" font-size="14.00">children=[_bnode1,_bnode2]</text>
</g>
<!-- child_root_bnode&#45;&gt;bnode1_none -->
<g id="edge3" class="edge"><title>child_root_bnode&#45;&gt;bnode1_none</title>
<path fill="none" stroke="black" d="M433.996,-1428.04C453.338,-1430.98 473.117,-1434.04 491.79,-1437 518.491,-1441.23 531.624,-1429 551.79,-1447 561.445,-1455.62 549.805,-1466.77 559.79,-1475 649.345,-1548.86 800.062,-1528.37 868.73,-1513.84"/>
<polygon fill="black" stroke="black" points="869.622,-1517.22 878.638,-1511.66 868.119,-1510.39 869.622,-1517.22"/>
<text text-anchor="middle" x="526.79" y="-1450.8" font-family="Times New Roman,serif" font-size="14.00">_bnode1</text>
</g>
<!-- bnode2_none -->
<g id="node13" class="node"><title>bnode2_none</title>
</g>
<!-- child_root_bnode&#45;&gt;bnode2_none -->
<g id="edge4" class="edge"><title>child_root_bnode&#45;&gt;bnode2_none</title>
<path fill="none" stroke="black" d="M428.453,-1399.55C449.902,-1395.66 471.82,-1390.32 491.79,-1383 525.143,-1370.78 526.024,-1352.03 559.79,-1341 667.709,-1305.75 804.289,-1307.83 868.405,-1311.33"/>
<polygon fill="black" stroke="black" points="868.232,-1314.83 878.422,-1311.93 868.646,-1307.84 868.232,-1314.83"/>
<text text-anchor="middle" x="526.79" y="-1381.8" font-family="Times New Roman,serif" font-size="14.00">_bnode2</text>
</g>
<!-- cont_bnode1 -->
<g id="node8" class="node"><title>cont_bnode1</title>
<path fill="lightgrey" stroke="black" d="M987.044,-1631C987.044,-1631 862.662,-1631 862.662,-1631 856.662,-1631 846.297,-1626.88 841.932,-1622.77 841.932,-1622.77 821.221,-1603.23 821.221,-1603.23 816.856,-1599.12 818.492,-1595 824.492,-1595 824.492,-1595 948.873,-1595 948.873,-1595 954.873,-1595 965.238,-1599.12 969.603,-1603.23 969.603,-1603.23 990.314,-1622.77 990.314,-1622.77 994.679,-1626.88 993.044,-1631 987.044,-1631"/>
<text text-anchor="middle" x="905.768" y="-1609.3" font-family="Times New Roman,serif" font-size="14.00">contents=[1,2]</text>
</g>
<!-- child_bnode1 -->
<g id="node9" class="node"><title>child_bnode1</title>
<path fill="lightgrey" stroke="black" d="M932.768,-1577C932.768,-1577 878.768,-1577 878.768,-1577 872.768,-1577 866.768,-1571 866.768,-1565 866.768,-1565 866.768,-1553 866.768,-1553 866.768,-1547 872.768,-1541 878.768,-1541 878.768,-1541 932.768,-1541 932.768,-1541 938.768,-1541 944.768,-1547 944.768,-1553 944.768,-1553 944.768,-1565 944.768,-1565 944.768,-1571 938.768,-1577 932.768,-1577"/>
<text text-anchor="middle" x="905.768" y="-1555.3" font-family="Times New Roman,serif" font-size="14.00">children=[]</text>
</g>
<!-- cont_bnode2 -->
<g id="node11" class="node"><title>cont_bnode2</title>
<path fill="lightgrey" stroke="black" d="M987.044,-1440C987.044,-1440 862.662,-1440 862.662,-1440 856.662,-1440 846.297,-1435.88 841.932,-1431.77 841.932,-1431.77 821.221,-1412.23 821.221,-1412.23 816.856,-1408.12 818.492,-1404 824.492,-1404 824.492,-1404 948.873,-1404 948.873,-1404 954.873,-1404 965.238,-1408.12 969.603,-1412.23 969.603,-1412.23 990.314,-1431.77 990.314,-1431.77 994.679,-1435.88 993.044,-1440 987.044,-1440"/>
<text text-anchor="middle" x="905.768" y="-1418.3" font-family="Times New Roman,serif" font-size="14.00">contents=[4,5]</text>
</g>
<!-- child_bnode2 -->
<g id="node12" class="node"><title>child_bnode2</title>
<path fill="lightgrey" stroke="black" d="M932.768,-1386C932.768,-1386 878.768,-1386 878.768,-1386 872.768,-1386 866.768,-1380 866.768,-1374 866.768,-1374 866.768,-1362 866.768,-1362 866.768,-1356 872.768,-1350 878.768,-1350 878.768,-1350 932.768,-1350 932.768,-1350 938.768,-1350 944.768,-1356 944.768,-1362 944.768,-1362 944.768,-1374 944.768,-1374 944.768,-1380 938.768,-1386 932.768,-1386"/>
<text text-anchor="middle" x="905.768" y="-1364.3" font-family="Times New Roman,serif" font-size="14.00">children=[]</text>
</g>
<!-- order_begin -->
<g id="node14" class="node"><title>order_begin</title>
<path fill="lightgrey" stroke="black" d="M63.1837,-1342.06C63.1837,-1342.06 65.1924,-1342.14 65.1924,-1342.14 65.3462,-1342.14 65.6537,-1342.16 65.8073,-1342.17 65.8073,-1342.17 67.7894,-1342.28 67.7894,-1342.28 67.9431,-1342.29 68.2502,-1342.31 68.4036,-1342.32 68.4036,-1342.32 70.3488,-1342.47 70.3488,-1342.47 70.5022,-1342.48 70.8089,-1342.51 70.962,-1342.52 70.962,-1342.52 72.8602,-1342.71 72.8602,-1342.71 73.0134,-1342.72 73.3194,-1342.75 73.4722,-1342.77 73.4722,-1342.77 75.3136,-1342.99 75.3136,-1342.99 75.4664,-1343.01 75.7716,-1343.05 75.924,-1343.07 75.924,-1343.07 77.6993,-1343.32 77.6993,-1343.32 77.8517,-1343.34 78.1559,-1343.39 78.3077,-1343.41 78.3077,-1343.41 80.0082,-1343.7 80.0082,-1343.7 80.16,-1343.72 80.4629,-1343.78 80.6141,-1343.81 80.6141,-1343.81 82.2314,-1344.12 82.2314,-1344.12 82.3825,-1344.15 82.6839,-1344.21 82.8341,-1344.24 82.8341,-1344.24 84.3608,-1344.58 84.3608,-1344.58 84.511,-1344.61 84.8105,-1344.69 84.9597,-1344.72 84.9597,-1344.72 86.3888,-1345.09 86.3888,-1345.09 86.538,-1345.12 86.835,-1345.2 86.9828,-1345.25 86.9828,-1345.25 88.3084,-1345.63 88.3084,-1345.63 88.4563,-1345.67 88.7503,-1345.76 88.8965,-1345.81 88.8965,-1345.81 90.1135,-1346.21 90.1135,-1346.21 90.2597,-1346.26 90.55,-1346.36 90.694,-1346.42 90.694,-1346.42 91.7985,-1346.83 91.7985,-1346.83 91.9426,-1346.88 92.2281,-1347 92.3695,-1347.06 92.3695,-1347.06 93.3586,-1347.48 93.3586,-1347.48 93.5,-1347.54 93.7796,-1347.67 93.9177,-1347.74 93.9177,-1347.74 94.7899,-1348.17 94.7899,-1348.17 94.928,-1348.24 95.2,-1348.38 95.3338,-1348.46 95.3338,-1348.46 96.0893,-1348.89 96.0893,-1348.89 96.2232,-1348.96 96.4854,-1349.12 96.6138,-1349.21 96.6138,-1349.21 97.2546,-1349.63 97.2546,-1349.63 97.383,-1349.72 97.6329,-1349.9 97.7543,-1349.99 97.7543,-1349.99 98.2844,-1350.4 98.2844,-1350.4 98.4058,-1350.5 98.6399,-1350.7 98.7525,-1350.8 98.7525,-1350.8 99.1782,-1351.2 99.1782,-1351.2 99.2907,-1351.3 99.5047,-1351.52 99.6061,-1351.64 99.6061,-1351.64 99.9362,-1352.02 99.9362,-1352.02 100.038,-1352.13 100.227,-1352.37 100.314,-1352.5 100.314,-1352.5 100.559,-1352.86 100.559,-1352.86 100.647,-1352.98 100.805,-1353.25 100.876,-1353.38 100.876,-1353.38 101.049,-1353.72 101.049,-1353.72 101.12,-1353.85 101.242,-1354.13 101.293,-1354.28 101.293,-1354.28 101.406,-1354.6 101.406,-1354.6 101.457,-1354.74 101.539,-1355.04 101.569,-1355.19 101.569,-1355.19 101.63,-1355.49 101.63,-1355.49 101.66,-1355.65 101.699,-1355.95 101.707,-1356.1 101.707,-1356.1 101.723,-1356.41 101.723,-1356.41 101.731,-1356.56 101.726,-1356.87 101.713,-1357.03 101.713,-1357.03 101.685,-1357.34 101.685,-1357.34 101.672,-1357.5 101.625,-1357.8 101.592,-1357.95 101.592,-1357.95 101.518,-1358.29 101.518,-1358.29 101.485,-1358.44 101.401,-1358.73 101.35,-1358.88 101.35,-1358.88 101.224,-1359.24 101.224,-1359.24 101.173,-1359.38 101.056,-1359.67 100.99,-1359.81 100.99,-1359.81 100.807,-1360.19 100.807,-1360.19 100.741,-1360.33 100.597,-1360.6 100.518,-1360.74 100.518,-1360.74 100.273,-1361.15 100.273,-1361.15 100.195,-1361.28 100.027,-1361.54 99.9377,-1361.66 99.9377,-1361.66 99.6276,-1362.1 99.6276,-1362.1 99.5384,-1362.22 99.3512,-1362.47 99.2532,-1362.59 99.2532,-1362.59 98.8763,-1363.04 98.8763,-1363.04 98.7783,-1363.16 98.575,-1363.39 98.4697,-1363.51 98.4697,-1363.51 98.0256,-1363.98 98.0256,-1363.98 97.9203,-1364.09 97.7036,-1364.31 97.5921,-1364.42 97.5921,-1364.42 97.0819,-1364.9 97.0819,-1364.9 96.9704,-1365.01 96.7424,-1365.21 96.6258,-1365.31 96.6258,-1365.31 96.0512,-1365.81 96.0512,-1365.81 95.9346,-1365.91 95.697,-1366.11 95.576,-1366.2 95.576,-1366.2 94.94,-1366.7 94.94,-1366.7 94.819,-1366.8 94.5732,-1366.98 94.4484,-1367.07 94.4484,-1367.07 93.7543,-1367.57 93.7543,-1367.57 93.6295,-1367.66 93.3766,-1367.84 93.2485,-1367.92 93.2485,-1367.92 92.5,-1368.42 92.5,-1368.42 92.3719,-1368.51 92.1128,-1368.67 91.9819,-1368.75 91.9819,-1368.75 91.1829,-1369.25 91.1829,-1369.25 91.052,-1369.33 90.7875,-1369.48 90.6539,-1369.56 90.6539,-1369.56 89.8087,-1370.05 89.8087,-1370.05 89.6752,-1370.12 89.4059,-1370.27 89.2701,-1370.34 89.2701,-1370.34 88.3828,-1370.82 88.3828,-1370.82 88.247,-1370.89 87.9733,-1371.03 87.8354,-1371.1 87.8354,-1371.1 86.9102,-1371.56 86.9102,-1371.56 86.7723,-1371.63 86.4947,-1371.76 86.355,-1371.82 86.355,-1371.82 85.3959,-1372.27 85.3959,-1372.27 85.2562,-1372.33 84.975,-1372.46 84.8335,-1372.52 84.8335,-1372.52 83.8445,-1372.94 83.8445,-1372.94 83.703,-1373 83.4186,-1373.12 83.2756,-1373.17 83.2756,-1373.17 82.2603,-1373.58 82.2603,-1373.58 82.1172,-1373.64 81.8298,-1373.75 81.6853,-1373.8 81.6853,-1373.8 80.6472,-1374.18 80.6472,-1374.18 80.5027,-1374.23 80.2125,-1374.33 80.0666,-1374.38 80.0666,-1374.38 79.009,-1374.74 79.009,-1374.74 78.8632,-1374.79 78.5704,-1374.88 78.4233,-1374.93 78.4233,-1374.93 77.3491,-1375.26 77.3491,-1375.26 77.202,-1375.31 76.9068,-1375.39 76.7586,-1375.44 76.7586,-1375.44 75.6705,-1375.74 75.6705,-1375.74 75.5223,-1375.78 75.2249,-1375.86 75.0757,-1375.9 75.0757,-1375.9 73.976,-1376.18 73.976,-1376.18 73.8267,-1376.21 73.5273,-1376.29 73.3772,-1376.32 73.3772,-1376.32 72.268,-1376.57 72.268,-1376.57 72.1179,-1376.6 71.8167,-1376.67 71.6657,-1376.69 71.6657,-1376.69 70.5489,-1376.91 70.5489,-1376.91 70.3979,-1376.94 70.0951,-1377 69.9434,-1377.02 69.9434,-1377.02 68.8206,-1377.21 68.8206,-1377.21 68.6689,-1377.24 68.3647,-1377.29 68.2123,-1377.31 68.2123,-1377.31 67.0849,-1377.47 67.0849,-1377.47 66.9325,-1377.49 66.6271,-1377.53 66.4742,-1377.54 66.4742,-1377.54 65.3433,-1377.67 65.3433,-1377.67 65.1903,-1377.69 64.8841,-1377.72 64.7307,-1377.73 64.7307,-1377.73 63.5972,-1377.83 63.5972,-1377.83 63.4439,-1377.84 63.1369,-1377.86 62.9832,-1377.87 62.9832,-1377.87 61.848,-1377.93 61.848,-1377.93 61.6944,-1377.94 61.3869,-1377.95 61.233,-1377.96 61.233,-1377.96 60.0969,-1377.99 60.0969,-1377.99 59.943,-1378 59.6353,-1378 59.4814,-1378 59.4814,-1378 58.3449,-1378 58.3449,-1378 58.191,-1378 57.8833,-1378 57.7294,-1377.99 57.7294,-1377.99 56.5933,-1377.96 56.5933,-1377.96 56.4394,-1377.95 56.1319,-1377.94 55.9783,-1377.93 55.9783,-1377.93 54.8431,-1377.87 54.8431,-1377.87 54.6894,-1377.86 54.3824,-1377.84 54.2291,-1377.83 54.2291,-1377.83 53.0956,-1377.73 53.0956,-1377.73 52.9422,-1377.72 52.6359,-1377.69 52.483,-1377.67 52.483,-1377.67 51.3521,-1377.54 51.3521,-1377.54 51.1992,-1377.53 50.8938,-1377.49 50.7414,-1377.47 50.7414,-1377.47 49.614,-1377.31 49.614,-1377.31 49.4616,-1377.29 49.1574,-1377.24 49.0057,-1377.21 49.0057,-1377.21 47.8829,-1377.02 47.8829,-1377.02 47.7312,-1377 47.4284,-1376.94 47.2774,-1376.91 47.2774,-1376.91 46.1606,-1376.69 46.1606,-1376.69 46.0096,-1376.67 45.7084,-1376.6 45.5583,-1376.57 45.5583,-1376.57 44.4491,-1376.32 44.4491,-1376.32 44.2989,-1376.29 43.9996,-1376.21 43.8503,-1376.18 43.8503,-1376.18 42.7506,-1375.9 42.7506,-1375.9 42.6014,-1375.86 42.304,-1375.78 42.1558,-1375.74 42.1558,-1375.74 41.0677,-1375.44 41.0677,-1375.44 40.9195,-1375.39 40.6242,-1375.31 40.4772,-1375.26 40.4772,-1375.26 39.403,-1374.93 39.403,-1374.93 39.2559,-1374.88 38.9631,-1374.79 38.8173,-1374.74 38.8173,-1374.74 37.7596,-1374.38 37.7596,-1374.38 37.6138,-1374.33 37.3236,-1374.23 37.1791,-1374.18 37.1791,-1374.18 36.141,-1373.8 36.141,-1373.8 35.9965,-1373.75 35.7091,-1373.64 35.566,-1373.58 35.566,-1373.58 34.5507,-1373.17 34.5507,-1373.17 34.4077,-1373.12 34.1232,-1373 33.9818,-1372.94 33.9818,-1372.94 32.9928,-1372.52 32.9928,-1372.52 32.8513,-1372.46 32.5701,-1372.33 32.4304,-1372.27 32.4304,-1372.27 31.4713,-1371.82 31.4713,-1371.82 31.3316,-1371.76 31.054,-1371.63 30.9161,-1371.56 30.9161,-1371.56 29.9909,-1371.1 29.9909,-1371.1 29.853,-1371.03 29.5793,-1370.89 29.4435,-1370.82 29.4435,-1370.82 28.5562,-1370.34 28.5562,-1370.34 28.4204,-1370.27 28.1511,-1370.12 28.0176,-1370.05 28.0176,-1370.05 27.1723,-1369.56 27.1723,-1369.56 27.0388,-1369.48 26.7743,-1369.33 26.6434,-1369.25 26.6434,-1369.25 25.8444,-1368.75 25.8444,-1368.75 25.7134,-1368.67 25.4544,-1368.51 25.3263,-1368.42 25.3263,-1368.42 24.5778,-1367.92 24.5778,-1367.92 24.4497,-1367.84 24.1968,-1367.66 24.072,-1367.57 24.072,-1367.57 23.3779,-1367.07 23.3779,-1367.07 23.2531,-1366.98 23.0073,-1366.8 22.8863,-1366.7 22.8863,-1366.7 22.2503,-1366.2 22.2503,-1366.2 22.1293,-1366.11 21.8917,-1365.91 21.775,-1365.81 21.775,-1365.81 21.2005,-1365.31 21.2005,-1365.31 21.0839,-1365.21 20.8559,-1365.01 20.7444,-1364.9 20.7444,-1364.9 20.2342,-1364.42 20.2342,-1364.42 20.1227,-1364.31 19.906,-1364.09 19.8007,-1363.98 19.8007,-1363.98 19.3566,-1363.51 19.3566,-1363.51 19.2513,-1363.39 19.048,-1363.16 18.95,-1363.04 18.95,-1363.04 18.5731,-1362.59 18.5731,-1362.59 18.4751,-1362.47 18.2879,-1362.22 18.1987,-1362.1 18.1987,-1362.1 17.8886,-1361.66 17.8886,-1361.66 17.7994,-1361.54 17.6316,-1361.28 17.553,-1361.15 17.553,-1361.15 17.308,-1360.74 17.308,-1360.74 17.2294,-1360.6 17.0849,-1360.33 17.019,-1360.19 17.019,-1360.19 16.8359,-1359.81 16.8359,-1359.81 16.7699,-1359.67 16.6532,-1359.38 16.6024,-1359.24 16.6024,-1359.24 16.4764,-1358.88 16.4764,-1358.88 16.4256,-1358.73 16.3416,-1358.44 16.3084,-1358.29 16.3084,-1358.29 16.234,-1357.95 16.234,-1357.95 16.2008,-1357.8 16.1543,-1357.5 16.141,-1357.34 16.141,-1357.34 16.1133,-1357.03 16.1133,-1357.03 16.1,-1356.87 16.0948,-1356.56 16.103,-1356.41 16.103,-1356.41 16.1194,-1356.1 16.1194,-1356.1 16.1275,-1355.95 16.1659,-1355.65 16.1961,-1355.49 16.1961,-1355.49 16.2575,-1355.19 16.2575,-1355.19 16.2877,-1355.04 16.3693,-1354.74 16.4208,-1354.6 16.4208,-1354.6 16.533,-1354.28 16.533,-1354.28 16.5845,-1354.13 16.7067,-1353.85 16.7775,-1353.72 16.7775,-1353.72 16.9503,-1353.38 16.9503,-1353.38 17.0211,-1353.25 17.1794,-1352.98 17.2669,-1352.86 17.2669,-1352.86 17.5123,-1352.5 17.5123,-1352.5 17.5998,-1352.37 17.7887,-1352.13 17.8901,-1352.02 17.8901,-1352.02 18.2202,-1351.64 18.2202,-1351.64 18.3216,-1351.52 18.5356,-1351.3 18.6481,-1351.2 18.6481,-1351.2 19.0738,-1350.8 19.0738,-1350.8 19.1864,-1350.7 19.4205,-1350.5 19.5419,-1350.4 19.5419,-1350.4 20.072,-1349.99 20.072,-1349.99 20.1934,-1349.9 20.4433,-1349.72 20.5717,-1349.63 20.5717,-1349.63 21.2125,-1349.21 21.2125,-1349.21 21.3409,-1349.12 21.6031,-1348.96 21.737,-1348.89 21.737,-1348.89 22.4925,-1348.46 22.4925,-1348.46 22.6263,-1348.38 22.8983,-1348.24 23.0364,-1348.17 23.0364,-1348.17 23.9086,-1347.74 23.9086,-1347.74 24.0467,-1347.67 24.3263,-1347.54 24.4677,-1347.48 24.4677,-1347.48 25.4568,-1347.06 25.4568,-1347.06 25.5982,-1347 25.8837,-1346.88 26.0278,-1346.83 26.0278,-1346.83 27.1323,-1346.42 27.1323,-1346.42 27.2763,-1346.36 27.5666,-1346.26 27.7128,-1346.21 27.7128,-1346.21 28.9298,-1345.81 28.9298,-1345.81 29.076,-1345.76 29.37,-1345.67 29.5179,-1345.63 29.5179,-1345.63 30.8435,-1345.25 30.8435,-1345.25 30.9913,-1345.2 31.2883,-1345.12 31.4375,-1345.09 31.4375,-1345.09 32.8666,-1344.72 32.8666,-1344.72 33.0158,-1344.69 33.3153,-1344.61 33.4655,-1344.58 33.4655,-1344.58 34.9922,-1344.24 34.9922,-1344.24 35.1424,-1344.21 35.4438,-1344.15 35.5949,-1344.12 35.5949,-1344.12 37.2122,-1343.81 37.2122,-1343.81 37.3634,-1343.78 37.6663,-1343.72 37.8181,-1343.7 37.8181,-1343.7 39.5186,-1343.41 39.5186,-1343.41 39.6704,-1343.39 39.9746,-1343.34 40.127,-1343.32 40.127,-1343.32 41.9023,-1343.07 41.9023,-1343.07 42.0547,-1343.05 42.3599,-1343.01 42.5127,-1342.99 42.5127,-1342.99 44.3541,-1342.77 44.3541,-1342.77 44.5069,-1342.75 44.8129,-1342.72 44.9661,-1342.71 44.9661,-1342.71 46.8643,-1342.52 46.8643,-1342.52 47.0174,-1342.51 47.3241,-1342.48 47.4775,-1342.47 47.4775,-1342.47 49.4227,-1342.32 49.4227,-1342.32 49.5761,-1342.31 49.8832,-1342.29 50.0369,-1342.28 50.0369,-1342.28 52.019,-1342.17 52.019,-1342.17 52.1726,-1342.16 52.4801,-1342.14 52.6339,-1342.14 52.6339,-1342.14 54.6426,-1342.06 54.6426,-1342.06 54.7963,-1342.06 55.104,-1342.05 55.2579,-1342.04 55.2579,-1342.04 57.2826,-1342.01 57.2826,-1342.01 57.4365,-1342 57.7442,-1342 57.8981,-1342 57.8981,-1342 59.9282,-1342 59.9282,-1342 60.0821,-1342 60.3898,-1342 60.5437,-1342.01 60.5437,-1342.01 62.5684,-1342.04 62.5684,-1342.04 62.7223,-1342.05 63.03,-1342.06 63.1837,-1342.06"/>
<text text-anchor="middle" x="58.9131" y="-1356.3" font-family="Times New Roman,serif" font-size="14.00">order=4</text>
</g>
<!-- tag__2 -->
<g id="node15" class="node"><title>tag__2</title>
</g>
<!-- tag__3 -->
<g id="node17" class="node"><title>tag__3</title>
</g>
<!-- tag__2&#45;&gt;tag__3 -->
<g id="edge21" class="edge"><title>tag__2&#45;&gt;tag__3</title>
<path fill="none" stroke="black" d="M64.1714,-1287.57C71.9672,-1258.31 91.4781,-1201.71 130.826,-1174 173.097,-1144.23 234.91,-1141.53 273.852,-1143.43"/>
<polygon fill="black" stroke="black" points="273.997,-1146.94 284.194,-1144.07 274.428,-1139.96 273.997,-1146.94"/>
</g>
<!-- fn_path_to -->
<g id="node16" class="node"><title>fn_path_to</title>
<polygon fill="lightgrey" stroke="black" points="334.808,-1213 269.808,-1213 269.808,-1189 334.808,-1189 334.808,-1183 352.808,-1201 334.808,-1219 334.808,-1213"/>
<text text-anchor="middle" x="311.308" y="-1197.3" font-family="Times New Roman,serif" font-size="14.00">_path_to(6)</text>
</g>
<!-- tag__4 -->
<g id="node29" class="node"><title>tag__4</title>
</g>
<!-- tag__3&#45;&gt;tag__4 -->
<g id="edge22" class="edge"><title>tag__3&#45;&gt;tag__4</title>
<path fill="none" stroke="black" d="M338.577,-1142.09C383.664,-1133.84 478.755,-1117.19 559.79,-1108 672.011,-1095.28 805.585,-1088.29 868.534,-1085.48"/>
<polygon fill="black" stroke="black" points="868.894,-1088.97 878.732,-1085.04 868.589,-1081.98 868.894,-1088.97"/>
</g>
<!-- ances_empty -->
<g id="node18" class="node"><title>ances_empty</title>
<path fill="lightgrey" stroke="black" d="M1830.98,-1102C1830.98,-1102 1733.33,-1102 1733.33,-1102 1727.33,-1102 1717.39,-1097.47 1713.46,-1092.94 1713.46,-1092.94 1697.91,-1075.06 1697.91,-1075.06 1693.97,-1070.53 1696.04,-1066 1702.04,-1066 1702.04,-1066 1799.68,-1066 1799.68,-1066 1805.68,-1066 1815.62,-1070.53 1819.56,-1075.06 1819.56,-1075.06 1835.1,-1092.94 1835.1,-1092.94 1839.04,-1097.47 1836.98,-1102 1830.98,-1102"/>
<text text-anchor="middle" x="1766.51" y="-1080.3" font-family="Times New Roman,serif" font-size="14.00">ancestry=[]</text>
</g>
<!-- ances_1 -->
<g id="node19" class="node"><title>ances_1</title>
<path fill="lightgrey" stroke="black" d="M2224.27,-1102C2224.27,-1102 2044.83,-1102 2044.83,-1102 2038.83,-1102 2027.88,-1098.6 2022.94,-1095.2 2022.94,-1095.2 1990.38,-1072.8 1990.38,-1072.8 1985.43,-1069.4 1986.49,-1066 1992.49,-1066 1992.49,-1066 2171.93,-1066 2171.93,-1066 2177.93,-1066 2188.87,-1069.4 2193.82,-1072.8 2193.82,-1072.8 2226.38,-1095.2 2226.38,-1095.2 2231.32,-1098.6 2230.27,-1102 2224.27,-1102"/>
<text text-anchor="middle" x="2108.38" y="-1080.3" font-family="Times New Roman,serif" font-size="14.00">ancestry=[(_root,1),]</text>
</g>
<!-- ances_empty&#45;&gt;ances_1 -->
<g id="edge11" class="edge"><title>ances_empty&#45;&gt;ances_1</title>
<path fill="none" stroke="black" d="M1827.49,-1084C1874.14,-1084 1940.16,-1084 1996.37,-1084"/>
<polygon fill="black" stroke="black" points="1996.38,-1087.5 2006.38,-1084 1996.38,-1080.5 1996.38,-1087.5"/>
</g>
<!-- ances_2 -->
<g id="node20" class="node"><title>ances_2</title>
<path fill="lightgrey" stroke="black" d="M3370.08,-1117C3370.08,-1117 3097.32,-1117 3097.32,-1117 3091.32,-1117 3079.89,-1114.44 3074.47,-1111.88 3074.47,-1111.88 3019.83,-1086.12 3019.83,-1086.12 3014.4,-1083.56 3014.98,-1081 3020.98,-1081 3020.98,-1081 3293.74,-1081 3293.74,-1081 3299.74,-1081 3311.17,-1083.56 3316.59,-1086.12 3316.59,-1086.12 3371.23,-1111.88 3371.23,-1111.88 3376.66,-1114.44 3376.08,-1117 3370.08,-1117"/>
<text text-anchor="middle" x="3195.53" y="-1095.3" font-family="Times New Roman,serif" font-size="14.00">ancestry=[(_root,1),(bnode2,2)]</text>
</g>
<!-- ances_1&#45;&gt;ances_2 -->
<g id="edge12" class="edge"><title>ances_1&#45;&gt;ances_2</title>
<path fill="none" stroke="black" d="M2212.45,-1085.42C2401.71,-1088.04 2805.97,-1093.63 3032.36,-1096.76"/>
<polygon fill="black" stroke="black" points="3032.63,-1100.26 3042.68,-1096.9 3032.73,-1093.26 3032.63,-1100.26"/>
</g>
<!-- current_0 -->
<g id="node21" class="node"><title>current_0</title>
<text text-anchor="middle" x="905.768" y="-1188.3" font-family="Times New Roman,serif" font-size="14.00">current=_root</text>
</g>
<!-- index_0 -->
<g id="node22" class="node"><title>index_0</title>
<text text-anchor="middle" x="1439.93" y="-1147.3" font-family="Times New Roman,serif" font-size="14.00">index=bisect.bisect_left(current.contents=[3],6)=1</text>
</g>
<!-- current_0&#45;&gt;index_0 -->
<g id="edge6" class="edge"><title>current_0&#45;&gt;index_0</title>
<path fill="none" stroke="black" d="M953.527,-1188.4C1025.97,-1182.82 1168.65,-1171.82 1280.66,-1163.19"/>
<polygon fill="black" stroke="black" points="1281.01,-1166.68 1290.71,-1162.42 1280.48,-1159.7 1281.01,-1166.68"/>
</g>
<!-- append_root1 -->
<g id="node23" class="node"><title>append_root1</title>
<polygon fill="lightgrey" stroke="black" points="1830.51,-1150 1684.51,-1150 1684.51,-1126 1830.51,-1126 1830.51,-1120 1848.51,-1138 1830.51,-1156 1830.51,-1150"/>
<text text-anchor="middle" x="1766.51" y="-1134.3" font-family="Times New Roman,serif" font-size="14.00">append( tuple=(_root,1,) )</text>
</g>
<!-- index_0&#45;&gt;append_root1 -->
<g id="edge7" class="edge"><title>index_0&#45;&gt;append_root1</title>
<path fill="none" stroke="black" d="M1588.97,-1145.07C1618.03,-1143.91 1647.7,-1142.72 1674.22,-1141.66"/>
<polygon fill="black" stroke="black" points="1674.37,-1145.15 1684.22,-1141.26 1674.09,-1138.16 1674.37,-1145.15"/>
</g>
<!-- append_root1&#45;&gt;ances_1 -->
<g id="edge13" class="edge"><title>append_root1&#45;&gt;ances_1</title>
<path fill="none" stroke="black" d="M1848.55,-1121.99C1873.91,-1117.21 1902.02,-1112.15 1927.9,-1108 1955.01,-1103.65 1984.51,-1099.48 2011.62,-1095.87"/>
<polygon fill="black" stroke="black" points="2012.43,-1099.29 2021.88,-1094.51 2011.51,-1092.35 2012.43,-1099.29"/>
</g>
<!-- current_1 -->
<g id="node26" class="node"><title>current_1</title>
<text text-anchor="middle" x="2108.38" y="-1134.3" font-family="Times New Roman,serif" font-size="14.00">current=current.children[1]=bnode2</text>
</g>
<!-- append_root1&#45;&gt;current_1 -->
<g id="edge8" class="edge"><title>append_root1&#45;&gt;current_1</title>
<path fill="none" stroke="black" d="M1848.91,-1138C1890.99,-1138 1943.12,-1138 1989.52,-1138"/>
<polygon fill="black" stroke="black" points="1989.63,-1141.5 1999.63,-1138 1989.63,-1134.5 1989.63,-1141.5"/>
</g>
<!-- checkEq -->
<g id="node24" class="node"><title>checkEq</title>
<polygon fill="lightgrey" stroke="black" points="905.768,-1156 575.813,-1138 905.768,-1120 1235.72,-1138 905.768,-1156"/>
<text text-anchor="middle" x="905.768" y="-1134.3" font-family="Times New Roman,serif" font-size="14.00">index &lt; len(current.contents) &amp;&amp; current.contents[index]==6</text>
</g>
<!-- checkChildren -->
<g id="node25" class="node"><title>checkChildren</title>
<polygon fill="lightgrey" stroke="black" points="1766.51,-1210 1670.82,-1192 1766.51,-1174 1862.19,-1192 1766.51,-1210"/>
<text text-anchor="middle" x="1766.51" y="-1188.3" font-family="Times New Roman,serif" font-size="14.00">current.children</text>
</g>
<!-- checkChildren&#45;&gt;current_1 -->
<g id="edge5" class="edge"><title>checkChildren&#45;&gt;current_1</title>
<path fill="none" stroke="black" stroke-width="2" d="M1819.13,-1183.8C1864.24,-1176.63 1931.44,-1165.95 1989.61,-1156.71"/>
<polygon fill="black" stroke="black" stroke-width="2" points="1990.28,-1160.15 1999.61,-1155.12 1989.19,-1153.24 1990.28,-1160.15"/>
<text text-anchor="middle" x="1908.4" y="-1173.8" font-family="Times New Roman,serif" font-size="14.00">yes</text>
</g>
<!-- index_1 -->
<g id="node27" class="node"><title>index_1</title>
<text text-anchor="middle" x="2560.31" y="-1134.3" font-family="Times New Roman,serif" font-size="14.00">index=bisect.bisect_left(current.contents=[4,5],6)=2</text>
</g>
<!-- current_1&#45;&gt;index_1 -->
<g id="edge9" class="edge"><title>current_1&#45;&gt;index_1</title>
<path fill="none" stroke="black" d="M2217.15,-1138C2270.6,-1138 2336.3,-1138 2395.79,-1138"/>
<polygon fill="black" stroke="black" points="2396.05,-1141.5 2406.05,-1138 2396.05,-1134.5 2396.05,-1141.5"/>
</g>
<!-- append_root2 -->
<g id="node28" class="node"><title>append_root2</title>
<polygon fill="lightgrey" stroke="black" points="2953.75,-1150 2796.75,-1150 2796.75,-1126 2953.75,-1126 2953.75,-1120 2971.75,-1138 2953.75,-1156 2953.75,-1150"/>
<text text-anchor="middle" x="2884.25" y="-1134.3" font-family="Times New Roman,serif" font-size="14.00">append( tuple=(bnode2,2,) )</text>
</g>
<!-- index_1&#45;&gt;append_root2 -->
<g id="edge10" class="edge"><title>index_1&#45;&gt;append_root2</title>
<path fill="none" stroke="black" d="M2714.74,-1138C2739.17,-1138 2763.84,-1138 2786.49,-1138"/>
<polygon fill="black" stroke="black" points="2786.74,-1141.5 2796.74,-1138 2786.74,-1134.5 2786.74,-1141.5"/>
</g>
<!-- append_root2&#45;&gt;ances_2 -->
<g id="edge14" class="edge"><title>append_root2&#45;&gt;ances_2</title>
<path fill="none" stroke="black" d="M2971.82,-1127.08C3001.69,-1123.32 3035.81,-1119.01 3068.21,-1114.93"/>
<polygon fill="black" stroke="black" points="3068.72,-1118.39 3078.2,-1113.67 3067.84,-1111.45 3068.72,-1118.39"/>
</g>
<!-- tag__5 -->
<g id="node38" class="node"><title>tag__5</title>
</g>
<!-- tag__4&#45;&gt;tag__5 -->
<g id="edge23" class="edge"><title>tag__4&#45;&gt;tag__5</title>
<path fill="none" stroke="black" d="M916.305,-1065.64C951.728,-999.527 1083.01,-772.25 1262.75,-673 1306.39,-648.902 1364.87,-644.441 1402.24,-644.445"/>
<polygon fill="black" stroke="black" points="1402.61,-647.95 1412.65,-644.562 1402.69,-640.95 1402.61,-647.95"/>
</g>
<!-- param_1 -->
<g id="node30" class="node"><title>param_1</title>
<ellipse fill="none" stroke="black" cx="1439.93" cy="-754" rx="104.782" ry="18"/>
<text text-anchor="middle" x="1439.93" y="-750.3" font-family="Times New Roman,serif" font-size="14.00">node,index = ancestry[&#45;1]</text>
</g>
<!-- param_2 -->
<g id="node31" class="node"><title>param_2</title>
<ellipse fill="none" stroke="black" cx="1766.51" cy="-970" rx="114.28" ry="18"/>
<text text-anchor="middle" x="1766.51" y="-966.3" font-family="Times New Roman,serif" font-size="14.00">node,index = ancestry.pop()</text>
</g>
<!-- ancestry_3 -->
<g id="node32" class="node"><title>ancestry_3</title>
<path fill="lightgrey" stroke="black" d="M2224.27,-988C2224.27,-988 2044.83,-988 2044.83,-988 2038.83,-988 2027.88,-984.6 2022.94,-981.199 2022.94,-981.199 1990.38,-958.801 1990.38,-958.801 1985.43,-955.4 1986.49,-952 1992.49,-952 1992.49,-952 2171.93,-952 2171.93,-952 2177.93,-952 2188.87,-955.4 2193.82,-958.801 2193.82,-958.801 2226.38,-981.199 2226.38,-981.199 2231.32,-984.6 2230.27,-988 2224.27,-988"/>
<text text-anchor="middle" x="2108.38" y="-966.3" font-family="Times New Roman,serif" font-size="14.00">ancestry=[(_root,1),]</text>
</g>
<!-- param_2&#45;&gt;ancestry_3 -->
<g id="edge15" class="edge"><title>param_2&#45;&gt;ancestry_3</title>
<path fill="none" stroke="black" d="M1881.15,-970C1918.19,-970 1959.26,-970 1996.12,-970"/>
<polygon fill="black" stroke="black" points="1996.4,-973.5 2006.4,-970 1996.4,-966.5 1996.4,-973.5"/>
</g>
<!-- checkChildren_lpag -->
<g id="node33" class="node"><title>checkChildren_lpag</title>
<polygon fill="lightgrey" stroke="black" points="1439.93,-988 1355.31,-970 1439.93,-952 1524.56,-970 1439.93,-988"/>
<text text-anchor="middle" x="1439.93" y="-966.3" font-family="Times New Roman,serif" font-size="14.00">node.children</text>
</g>
<!-- checkChildren_lpag&#45;&gt;param_2 -->
<g id="edge16" class="edge"><title>checkChildren_lpag&#45;&gt;param_2</title>
<path fill="none" stroke="black" d="M1524.52,-970C1560.12,-970 1602.4,-970 1641.52,-970"/>
<polygon fill="black" stroke="black" points="1641.93,-973.5 1651.93,-970 1641.93,-966.5 1641.93,-973.5"/>
<text text-anchor="middle" x="1626.62" y="-973.8" font-family="Times New Roman,serif" font-size="14.00">no</text>
</g>
<!-- node_lpag -->
<g id="node34" class="node"><title>node_lpag</title>
<ellipse fill="none" stroke="black" cx="1439.93" cy="-916" rx="108.581" ry="18"/>
<text text-anchor="middle" x="1439.93" y="-912.3" font-family="Times New Roman,serif" font-size="14.00">node=node.children[index]</text>
</g>
<!-- index_lpag -->
<g id="node35" class="node"><title>index_lpag</title>
<ellipse fill="none" stroke="black" cx="1439.93" cy="-862" rx="161.372" ry="18"/>
<text text-anchor="middle" x="1439.93" y="-858.3" font-family="Times New Roman,serif" font-size="14.00">index=bisect.bisect_left(node.contents,6)</text>
</g>
<!-- append_lpag -->
<g id="node36" class="node"><title>append_lpag</title>
<polygon fill="lightgrey" stroke="black" points="1496.43,-820 1365.43,-820 1365.43,-796 1496.43,-796 1496.43,-790 1514.43,-808 1496.43,-826 1496.43,-820"/>
<text text-anchor="middle" x="1439.93" y="-804.3" font-family="Times New Roman,serif" font-size="14.00">append( (node,index,) )</text>
</g>
<!-- insert_fn_6 -->
<g id="node37" class="node"><title>insert_fn_6</title>
<polygon fill="lightgrey" stroke="black" points="1510.93,-712 1350.93,-712 1350.93,-688 1510.93,-688 1510.93,-682 1528.93,-700 1510.93,-718 1510.93,-712"/>
<text text-anchor="middle" x="1439.93" y="-696.3" font-family="Times New Roman,serif" font-size="14.00">node.insert(6,index,ancestry)</text>
</g>
<!-- tag__6 -->
<g id="node53" class="node"><title>tag__6</title>
</g>
<!-- tag__5&#45;&gt;tag__6 -->
<g id="edge24" class="edge"><title>tag__5&#45;&gt;tag__6</title>
<path fill="none" stroke="black" d="M1445.06,-627.64C1460.27,-564.458 1519.3,-354.285 1652.12,-252 1674.04,-235.114 1704.9,-228.564 1728.89,-226.126"/>
<polygon fill="black" stroke="black" points="1729.36,-229.599 1739.04,-225.293 1728.79,-222.623 1729.36,-229.599"/>
</g>
<!-- BRANCH_nodeinsert6 -->
<g id="node39" class="node"><title>BRANCH_nodeinsert6</title>
<path fill="lightgrey" stroke="black" d="M1791.51,-550C1791.51,-550 1741.51,-550 1741.51,-550 1735.51,-550 1729.51,-544 1729.51,-538 1729.51,-538 1729.51,-526 1729.51,-526 1729.51,-520 1735.51,-514 1741.51,-514 1741.51,-514 1791.51,-514 1791.51,-514 1797.51,-514 1803.51,-520 1803.51,-526 1803.51,-526 1803.51,-538 1803.51,-538 1803.51,-544 1797.51,-550 1791.51,-550"/>
<text text-anchor="middle" x="1766.51" y="-528.3" font-family="Times New Roman,serif" font-size="14.00">BRANCH</text>
</g>
<!-- LEAF_nodeinsert6 -->
<g id="node40" class="node"><title>LEAF_nodeinsert6</title>
<path fill="lightgrey" stroke="black" d="M1781.51,-466C1781.51,-466 1751.51,-466 1751.51,-466 1745.51,-466 1739.51,-460 1739.51,-454 1739.51,-454 1739.51,-442 1739.51,-442 1739.51,-436 1745.51,-430 1751.51,-430 1751.51,-430 1781.51,-430 1781.51,-430 1787.51,-430 1793.51,-436 1793.51,-442 1793.51,-442 1793.51,-454 1793.51,-454 1793.51,-460 1787.51,-466 1781.51,-466"/>
<text text-anchor="middle" x="1766.51" y="-444.3" font-family="Times New Roman,serif" font-size="14.00">LEAF</text>
</g>
<!-- _bottom_nodeinsert6 -->
<g id="node41" class="node"><title>_bottom_nodeinsert6</title>
<polygon fill="lightgrey" stroke="black" points="2140.88,-476 2087.88,-476 2087.88,-480 2075.88,-480 2075.88,-440 2140.88,-440 2140.88,-476"/>
<polyline fill="none" stroke="black" points="2075.88,-476 2087.88,-476 "/>
<text text-anchor="middle" x="2108.38" y="-454.3" font-family="Times New Roman,serif" font-size="14.00">_bottom</text>
</g>
<!-- nodeinsert6_bnode1_none -->
<g id="node48" class="node"><title>nodeinsert6_bnode1_none</title>
</g>
<!-- _bottom_nodeinsert6&#45;&gt;nodeinsert6_bnode1_none -->
<g id="edge18" class="edge"><title>_bottom_nodeinsert6&#45;&gt;nodeinsert6_bnode1_none</title>
<path fill="none" stroke="black" d="M2151.01,-454.854C2238.54,-448.239 2440.37,-432.988 2523.02,-426.742"/>
<polygon fill="black" stroke="black" points="2150.72,-451.366 2141.02,-455.609 2151.25,-458.346 2150.72,-451.366"/>
<polygon fill="black" stroke="black" points="2523.47,-430.218 2533.18,-425.975 2522.94,-423.238 2523.47,-430.218"/>
</g>
<!-- _root_nodeinsert6 -->
<g id="node42" class="node"><title>_root_nodeinsert6</title>
<polygon fill="lightgrey" stroke="black" points="1793.51,-351 1751.51,-351 1751.51,-355 1739.51,-355 1739.51,-315 1793.51,-315 1793.51,-351"/>
<polyline fill="none" stroke="black" points="1739.51,-351 1751.51,-351 "/>
<text text-anchor="middle" x="1766.51" y="-329.3" font-family="Times New Roman,serif" font-size="14.00">_root</text>
</g>
<!-- nodeinsert6_root_bnode_none -->
<g id="node45" class="node"><title>nodeinsert6_root_bnode_none</title>
</g>
<!-- _root_nodeinsert6&#45;&gt;nodeinsert6_root_bnode_none -->
<g id="edge17" class="edge"><title>_root_nodeinsert6&#45;&gt;nodeinsert6_root_bnode_none</title>
<path fill="none" stroke="black" d="M1803.48,-325.602C1835.94,-319.035 1885.02,-309.365 1927.9,-302 1977.36,-293.503 2034.75,-285.127 2071.06,-280.011"/>
<polygon fill="black" stroke="black" points="1802.66,-322.197 1793.56,-327.619 1804.06,-329.057 1802.66,-322.197"/>
<polygon fill="black" stroke="black" points="2071.75,-283.449 2081.17,-278.595 2070.78,-276.517 2071.75,-283.449"/>
</g>
<!-- nodeinsert6_cont_root_bnode -->
<g id="node43" class="node"><title>nodeinsert6_cont_root_bnode</title>
<path fill="lightgrey" stroke="black" d="M2180.1,-401C2180.1,-401 2070.92,-401 2070.92,-401 2064.92,-401 2054.78,-396.654 2050.65,-392.307 2050.65,-392.307 2032.93,-373.693 2032.93,-373.693 2028.8,-369.346 2030.66,-365 2036.66,-365 2036.66,-365 2145.84,-365 2145.84,-365 2151.84,-365 2161.97,-369.346 2166.11,-373.693 2166.11,-373.693 2183.82,-392.307 2183.82,-392.307 2187.96,-396.654 2186.1,-401 2180.1,-401"/>
<text text-anchor="middle" x="2108.38" y="-379.3" font-family="Times New Roman,serif" font-size="14.00">contents=[3]</text>
</g>
<!-- nodeinsert6_child_root_bnode -->
<g id="node44" class="node"><title>nodeinsert6_child_root_bnode</title>
<path fill="lightgrey" stroke="black" d="M2268.84,-347C2268.84,-347 2018.49,-347 2018.49,-347 2012.49,-347 2001.15,-344.274 1995.8,-341.547 1995.8,-341.547 1946.6,-316.453 1946.6,-316.453 1941.26,-313.726 1941.91,-311 1947.91,-311 1947.91,-311 2198.27,-311 2198.27,-311 2204.27,-311 2215.61,-313.726 2220.96,-316.453 2220.96,-316.453 2270.15,-341.547 2270.15,-341.547 2275.5,-344.274 2274.84,-347 2268.84,-347"/>
<text text-anchor="middle" x="2108.38" y="-325.3" font-family="Times New Roman,serif" font-size="14.00">children=[_bnode1,_bnode2]</text>
</g>
<!-- nodeinsert6_child_root_bnode&#45;&gt;nodeinsert6_bnode1_none -->
<g id="edge19" class="edge"><title>nodeinsert6_child_root_bnode&#45;&gt;nodeinsert6_bnode1_none</title>
<path fill="none" stroke="black" d="M2231.07,-347.04C2250.41,-349.984 2270.19,-353.04 2288.86,-356 2315.56,-360.233 2328.12,-348.657 2348.86,-366 2359,-374.477 2348.65,-385.607 2358.86,-394 2405.31,-432.195 2479.08,-432.762 2522.99,-428.92"/>
<polygon fill="black" stroke="black" points="2523.61,-432.375 2533.21,-427.898 2522.91,-425.41 2523.61,-432.375"/>
<text text-anchor="middle" x="2323.86" y="-369.8" font-family="Times New Roman,serif" font-size="14.00">_bnode1</text>
</g>
<!-- nodeinsert6_bnode2_none -->
<g id="node51" class="node"><title>nodeinsert6_bnode2_none</title>
</g>
<!-- nodeinsert6_child_root_bnode&#45;&gt;nodeinsert6_bnode2_none -->
<g id="edge20" class="edge"><title>nodeinsert6_child_root_bnode&#45;&gt;nodeinsert6_bnode2_none</title>
<path fill="none" stroke="black" d="M2224.97,-318.423C2246.58,-314.545 2268.69,-309.244 2288.86,-302 2323.01,-289.734 2324.62,-272.002 2358.86,-260 2414.04,-240.659 2482.23,-235.055 2523.17,-233.501"/>
<polygon fill="black" stroke="black" points="2523.33,-236.998 2533.22,-233.181 2523.11,-230.001 2523.33,-236.998"/>
<text text-anchor="middle" x="2323.86" y="-301.8" font-family="Times New Roman,serif" font-size="14.00">_bnode2</text>
</g>
<!-- nodeinsert6_cont_bnode1 -->
<g id="node46" class="node"><title>nodeinsert6_cont_bnode1</title>
<path fill="lightgrey" stroke="black" d="M2641.58,-550C2641.58,-550 2517.2,-550 2517.2,-550 2511.2,-550 2500.84,-545.883 2496.47,-541.767 2496.47,-541.767 2475.76,-522.233 2475.76,-522.233 2471.4,-518.117 2473.03,-514 2479.03,-514 2479.03,-514 2603.41,-514 2603.41,-514 2609.41,-514 2619.78,-518.117 2624.14,-522.233 2624.14,-522.233 2644.85,-541.767 2644.85,-541.767 2649.22,-545.883 2647.58,-550 2641.58,-550"/>
<text text-anchor="middle" x="2560.31" y="-528.3" font-family="Times New Roman,serif" font-size="14.00">contents=[1,2]</text>
</g>
<!-- nodeinsert6_child_bnode1 -->
<g id="node47" class="node"><title>nodeinsert6_child_bnode1</title>
<path fill="lightgrey" stroke="black" d="M2587.31,-496C2587.31,-496 2533.31,-496 2533.31,-496 2527.31,-496 2521.31,-490 2521.31,-484 2521.31,-484 2521.31,-472 2521.31,-472 2521.31,-466 2527.31,-460 2533.31,-460 2533.31,-460 2587.31,-460 2587.31,-460 2593.31,-460 2599.31,-466 2599.31,-472 2599.31,-472 2599.31,-484 2599.31,-484 2599.31,-490 2593.31,-496 2587.31,-496"/>
<text text-anchor="middle" x="2560.31" y="-474.3" font-family="Times New Roman,serif" font-size="14.00">children=[]</text>
</g>
<!-- nodeinsert6_cont_bnode2 -->
<g id="node49" class="node"><title>nodeinsert6_cont_bnode2</title>
<path fill="lightgrey" stroke="black" d="M2741.7,-359C2741.7,-359 2458.05,-359 2458.05,-359 2452.05,-359 2440.59,-356.516 2435.13,-354.031 2435.13,-354.031 2377.84,-327.969 2377.84,-327.969 2372.38,-325.484 2372.91,-323 2378.91,-323 2378.91,-323 2662.56,-323 2662.56,-323 2668.56,-323 2680.02,-325.484 2685.48,-327.969 2685.48,-327.969 2742.78,-354.031 2742.78,-354.031 2748.24,-356.516 2747.7,-359 2741.7,-359"/>
<text text-anchor="middle" x="2560.31" y="-337.3" font-family="Times New Roman,serif" font-size="14.00">contents=[4,5].insert(6,2)=[4,5,6]</text>
</g>
<!-- nodeinsert6_child_bnode2 -->
<g id="node50" class="node"><title>nodeinsert6_child_bnode2</title>
<path fill="lightgrey" stroke="black" d="M2587.31,-305C2587.31,-305 2533.31,-305 2533.31,-305 2527.31,-305 2521.31,-299 2521.31,-293 2521.31,-293 2521.31,-281 2521.31,-281 2521.31,-275 2527.31,-269 2533.31,-269 2533.31,-269 2587.31,-269 2587.31,-269 2593.31,-269 2599.31,-275 2599.31,-281 2599.31,-281 2599.31,-293 2599.31,-293 2599.31,-299 2593.31,-305 2587.31,-305"/>
<text text-anchor="middle" x="2560.31" y="-283.3" font-family="Times New Roman,serif" font-size="14.00">children=[]</text>
</g>
<!-- order_nodeinsert6 -->
<g id="node52" class="node"><title>order_nodeinsert6</title>
<path fill="lightgrey" stroke="black" d="M1770.78,-261.061C1770.78,-261.061 1772.79,-261.136 1772.79,-261.136 1772.94,-261.142 1773.25,-261.157 1773.4,-261.165 1773.4,-261.165 1775.38,-261.278 1775.38,-261.278 1775.54,-261.287 1775.84,-261.307 1776,-261.319 1776,-261.319 1777.94,-261.468 1777.94,-261.468 1778.1,-261.48 1778.4,-261.506 1778.56,-261.521 1778.56,-261.521 1780.45,-261.706 1780.45,-261.706 1780.61,-261.72 1780.91,-261.753 1781.07,-261.772 1781.07,-261.772 1782.91,-261.99 1782.91,-261.99 1783.06,-262.008 1783.36,-262.048 1783.52,-262.07 1783.52,-262.07 1785.29,-262.321 1785.29,-262.321 1785.45,-262.343 1785.75,-262.39 1785.9,-262.415 1785.9,-262.415 1787.6,-262.697 1787.6,-262.697 1787.75,-262.723 1788.06,-262.777 1788.21,-262.806 1788.21,-262.806 1789.82,-263.118 1789.82,-263.118 1789.98,-263.147 1790.28,-263.209 1790.43,-263.242 1790.43,-263.242 1791.95,-263.581 1791.95,-263.581 1792.1,-263.614 1792.4,-263.685 1792.55,-263.723 1792.55,-263.723 1793.98,-264.085 1793.98,-264.085 1794.13,-264.123 1794.43,-264.203 1794.58,-264.246 1794.58,-264.246 1795.9,-264.629 1795.9,-264.629 1796.05,-264.672 1796.34,-264.763 1796.49,-264.811 1796.49,-264.811 1797.71,-265.212 1797.71,-265.212 1797.85,-265.26 1798.14,-265.362 1798.29,-265.416 1798.29,-265.416 1799.39,-265.831 1799.39,-265.831 1799.54,-265.885 1799.82,-265.999 1799.96,-266.06 1799.96,-266.06 1800.95,-266.484 1800.95,-266.484 1801.09,-266.545 1801.37,-266.673 1801.51,-266.741 1801.51,-266.741 1802.38,-267.17 1802.38,-267.17 1802.52,-267.238 1802.79,-267.382 1802.93,-267.458 1802.93,-267.458 1803.68,-267.887 1803.68,-267.887 1803.82,-267.963 1804.08,-268.123 1804.21,-268.208 1804.21,-268.208 1804.85,-268.632 1804.85,-268.632 1804.98,-268.716 1805.23,-268.896 1805.35,-268.99 1805.35,-268.99 1805.88,-269.403 1805.88,-269.403 1806,-269.497 1806.23,-269.697 1806.35,-269.802 1806.35,-269.802 1806.77,-270.198 1806.77,-270.198 1806.88,-270.303 1807.1,-270.524 1807.2,-270.64 1807.2,-270.64 1807.53,-271.017 1807.53,-271.017 1807.63,-271.132 1807.82,-271.375 1807.91,-271.501 1807.91,-271.501 1808.15,-271.856 1808.15,-271.856 1808.24,-271.983 1808.4,-272.246 1808.47,-272.383 1808.47,-272.383 1808.64,-272.716 1808.64,-272.716 1808.71,-272.853 1808.84,-273.134 1808.89,-273.28 1808.89,-273.28 1809,-273.596 1809,-273.596 1809.05,-273.741 1809.13,-274.037 1809.16,-274.188 1809.16,-274.188 1809.22,-274.495 1809.22,-274.495 1809.25,-274.646 1809.29,-274.95 1809.3,-275.104 1809.3,-275.104 1809.32,-275.411 1809.32,-275.411 1809.32,-275.565 1809.32,-275.872 1809.31,-276.025 1809.31,-276.025 1809.28,-276.343 1809.28,-276.343 1809.27,-276.496 1809.22,-276.8 1809.19,-276.95 1809.19,-276.95 1809.11,-277.287 1809.11,-277.287 1809.08,-277.437 1808.99,-277.733 1808.94,-277.878 1808.94,-277.878 1808.82,-278.238 1808.82,-278.238 1808.77,-278.383 1808.65,-278.668 1808.58,-278.807 1808.58,-278.807 1808.4,-279.193 1808.4,-279.193 1808.33,-279.332 1808.19,-279.604 1808.11,-279.736 1808.11,-279.736 1807.87,-280.148 1807.87,-280.148 1807.79,-280.28 1807.62,-280.538 1807.53,-280.664 1807.53,-280.664 1807.22,-281.099 1807.22,-281.099 1807.13,-281.225 1806.94,-281.469 1806.85,-281.588 1806.85,-281.588 1806.47,-282.044 1806.47,-282.044 1806.37,-282.163 1806.17,-282.394 1806.06,-282.506 1806.06,-282.506 1805.62,-282.979 1805.62,-282.979 1805.51,-283.091 1805.3,-283.31 1805.19,-283.416 1805.19,-283.416 1804.68,-283.902 1804.68,-283.902 1804.56,-284.008 1804.34,-284.214 1804.22,-284.315 1804.22,-284.315 1803.64,-284.81 1803.64,-284.81 1803.53,-284.91 1803.29,-285.106 1803.17,-285.201 1803.17,-285.201 1802.53,-285.7 1802.53,-285.7 1802.41,-285.796 1802.17,-285.981 1802.04,-286.071 1802.04,-286.071 1801.35,-286.572 1801.35,-286.572 1801.22,-286.662 1800.97,-286.837 1800.84,-286.923 1800.84,-286.923 1800.09,-287.421 1800.09,-287.421 1799.97,-287.506 1799.71,-287.673 1799.58,-287.753 1799.58,-287.753 1798.78,-288.247 1798.78,-288.247 1798.65,-288.327 1798.38,-288.485 1798.25,-288.561 1798.25,-288.561 1797.4,-289.046 1797.4,-289.046 1797.27,-289.122 1797,-289.271 1796.86,-289.344 1796.86,-289.344 1795.98,-289.817 1795.98,-289.817 1795.84,-289.889 1795.57,-290.03 1795.43,-290.098 1795.43,-290.098 1794.5,-290.557 1794.5,-290.557 1794.37,-290.626 1794.09,-290.759 1793.95,-290.823 1793.95,-290.823 1792.99,-291.266 1792.99,-291.266 1792.85,-291.33 1792.57,-291.455 1792.43,-291.516 1792.43,-291.516 1791.44,-291.94 1791.44,-291.94 1791.3,-292.001 1791.01,-292.118 1790.87,-292.175 1790.87,-292.175 1789.85,-292.578 1789.85,-292.578 1789.71,-292.635 1789.42,-292.745 1789.28,-292.798 1789.28,-292.798 1788.24,-293.179 1788.24,-293.179 1788.1,-293.232 1787.81,-293.334 1787.66,-293.384 1787.66,-293.384 1786.6,-293.741 1786.6,-293.741 1786.46,-293.79 1786.16,-293.885 1786.02,-293.93 1786.02,-293.93 1784.94,-294.262 1784.94,-294.262 1784.8,-294.307 1784.5,-294.394 1784.35,-294.436 1784.35,-294.436 1783.26,-294.741 1783.26,-294.741 1783.12,-294.783 1782.82,-294.862 1782.67,-294.899 1782.67,-294.899 1781.57,-295.177 1781.57,-295.177 1781.42,-295.214 1781.12,-295.286 1780.97,-295.319 1780.97,-295.319 1779.86,-295.568 1779.86,-295.568 1779.71,-295.602 1779.41,-295.665 1779.26,-295.695 1779.26,-295.695 1778.14,-295.914 1778.14,-295.914 1777.99,-295.944 1777.69,-295.999 1777.54,-296.024 1777.54,-296.024 1776.41,-296.214 1776.41,-296.214 1776.26,-296.239 1775.96,-296.286 1775.81,-296.307 1775.81,-296.307 1774.68,-296.466 1774.68,-296.466 1774.53,-296.487 1774.22,-296.526 1774.07,-296.543 1774.07,-296.543 1772.94,-296.67 1772.94,-296.67 1772.78,-296.687 1772.48,-296.718 1772.32,-296.731 1772.32,-296.731 1771.19,-296.826 1771.19,-296.826 1771.04,-296.839 1770.73,-296.861 1770.58,-296.869 1770.58,-296.869 1769.44,-296.933 1769.44,-296.933 1769.29,-296.942 1768.98,-296.955 1768.83,-296.959 1768.83,-296.959 1767.69,-296.991 1767.69,-296.991 1767.54,-296.996 1767.23,-297 1767.07,-297 1767.07,-297 1765.94,-297 1765.94,-297 1765.78,-297 1765.48,-296.996 1765.32,-296.991 1765.32,-296.991 1764.19,-296.959 1764.19,-296.959 1764.03,-296.955 1763.73,-296.942 1763.57,-296.933 1763.57,-296.933 1762.44,-296.869 1762.44,-296.869 1762.28,-296.861 1761.98,-296.839 1761.82,-296.826 1761.82,-296.826 1760.69,-296.731 1760.69,-296.731 1760.54,-296.718 1760.23,-296.687 1760.08,-296.67 1760.08,-296.67 1758.95,-296.543 1758.95,-296.543 1758.79,-296.526 1758.49,-296.487 1758.33,-296.466 1758.33,-296.466 1757.21,-296.307 1757.21,-296.307 1757.05,-296.286 1756.75,-296.239 1756.6,-296.214 1756.6,-296.214 1755.48,-296.024 1755.48,-296.024 1755.32,-295.999 1755.02,-295.944 1754.87,-295.914 1754.87,-295.914 1753.75,-295.695 1753.75,-295.695 1753.6,-295.665 1753.3,-295.602 1753.15,-295.568 1753.15,-295.568 1752.04,-295.319 1752.04,-295.319 1751.89,-295.286 1751.59,-295.214 1751.44,-295.177 1751.44,-295.177 1750.34,-294.899 1750.34,-294.899 1750.19,-294.862 1749.9,-294.783 1749.75,-294.741 1749.75,-294.741 1748.66,-294.436 1748.66,-294.436 1748.51,-294.394 1748.22,-294.307 1748.07,-294.262 1748.07,-294.262 1747,-293.93 1747,-293.93 1746.85,-293.885 1746.56,-293.79 1746.41,-293.741 1746.41,-293.741 1745.35,-293.384 1745.35,-293.384 1745.21,-293.334 1744.92,-293.232 1744.77,-293.179 1744.77,-293.179 1743.73,-292.798 1743.73,-292.798 1743.59,-292.745 1743.3,-292.635 1743.16,-292.578 1743.16,-292.578 1742.14,-292.175 1742.14,-292.175 1742,-292.118 1741.72,-292.001 1741.58,-291.94 1741.58,-291.94 1740.59,-291.516 1740.59,-291.516 1740.44,-291.455 1740.16,-291.33 1740.02,-291.266 1740.02,-291.266 1739.06,-290.823 1739.06,-290.823 1738.92,-290.759 1738.65,-290.626 1738.51,-290.557 1738.51,-290.557 1737.58,-290.098 1737.58,-290.098 1737.45,-290.03 1737.17,-289.889 1737.04,-289.817 1737.04,-289.817 1736.15,-289.344 1736.15,-289.344 1736.01,-289.271 1735.74,-289.122 1735.61,-289.046 1735.61,-289.046 1734.77,-288.561 1734.77,-288.561 1734.63,-288.485 1734.37,-288.327 1734.24,-288.247 1734.24,-288.247 1733.44,-287.753 1733.44,-287.753 1733.31,-287.673 1733.05,-287.506 1732.92,-287.421 1732.92,-287.421 1732.17,-286.923 1732.17,-286.923 1732.04,-286.837 1731.79,-286.662 1731.67,-286.572 1731.67,-286.572 1730.97,-286.071 1730.97,-286.071 1730.85,-285.981 1730.6,-285.796 1730.48,-285.7 1730.48,-285.7 1729.84,-285.201 1729.84,-285.201 1729.72,-285.106 1729.48,-284.91 1729.37,-284.81 1729.37,-284.81 1728.79,-284.315 1728.79,-284.315 1728.68,-284.214 1728.45,-284.008 1728.34,-283.902 1728.34,-283.902 1727.83,-283.416 1727.83,-283.416 1727.72,-283.31 1727.5,-283.091 1727.39,-282.979 1727.39,-282.979 1726.95,-282.506 1726.95,-282.506 1726.84,-282.394 1726.64,-282.163 1726.54,-282.044 1726.54,-282.044 1726.17,-281.588 1726.17,-281.588 1726.07,-281.469 1725.88,-281.225 1725.79,-281.099 1725.79,-281.099 1725.48,-280.664 1725.48,-280.664 1725.39,-280.538 1725.22,-280.28 1725.15,-280.148 1725.15,-280.148 1724.9,-279.736 1724.9,-279.736 1724.82,-279.604 1724.68,-279.332 1724.61,-279.193 1724.61,-279.193 1724.43,-278.807 1724.43,-278.807 1724.36,-278.668 1724.25,-278.383 1724.2,-278.238 1724.2,-278.238 1724.07,-277.878 1724.07,-277.878 1724.02,-277.733 1723.93,-277.437 1723.9,-277.287 1723.9,-277.287 1723.83,-276.95 1723.83,-276.95 1723.79,-276.8 1723.75,-276.496 1723.73,-276.343 1723.73,-276.343 1723.71,-276.025 1723.71,-276.025 1723.69,-275.872 1723.69,-275.565 1723.7,-275.411 1723.7,-275.411 1723.71,-275.104 1723.71,-275.104 1723.72,-274.95 1723.76,-274.646 1723.79,-274.495 1723.79,-274.495 1723.85,-274.188 1723.85,-274.188 1723.88,-274.037 1723.96,-273.741 1724.01,-273.596 1724.01,-273.596 1724.13,-273.28 1724.13,-273.28 1724.18,-273.134 1724.3,-272.853 1724.37,-272.716 1724.37,-272.716 1724.54,-272.383 1724.54,-272.383 1724.61,-272.246 1724.77,-271.983 1724.86,-271.856 1724.86,-271.856 1725.11,-271.501 1725.11,-271.501 1725.19,-271.375 1725.38,-271.132 1725.48,-271.017 1725.48,-271.017 1725.81,-270.64 1725.81,-270.64 1725.91,-270.524 1726.13,-270.303 1726.24,-270.198 1726.24,-270.198 1726.67,-269.802 1726.67,-269.802 1726.78,-269.697 1727.01,-269.497 1727.14,-269.403 1727.14,-269.403 1727.67,-268.99 1727.67,-268.99 1727.79,-268.896 1728.04,-268.716 1728.16,-268.632 1728.16,-268.632 1728.81,-268.208 1728.81,-268.208 1728.93,-268.123 1729.2,-267.963 1729.33,-267.887 1729.33,-267.887 1730.09,-267.458 1730.09,-267.458 1730.22,-267.382 1730.49,-267.238 1730.63,-267.17 1730.63,-267.17 1731.5,-266.741 1731.5,-266.741 1731.64,-266.673 1731.92,-266.545 1732.06,-266.484 1732.06,-266.484 1733.05,-266.06 1733.05,-266.06 1733.19,-265.999 1733.48,-265.885 1733.62,-265.831 1733.62,-265.831 1734.73,-265.416 1734.73,-265.416 1734.87,-265.362 1735.16,-265.26 1735.31,-265.212 1735.31,-265.212 1736.52,-264.811 1736.52,-264.811 1736.67,-264.763 1736.96,-264.672 1737.11,-264.629 1737.11,-264.629 1738.44,-264.246 1738.44,-264.246 1738.58,-264.203 1738.88,-264.123 1739.03,-264.085 1739.03,-264.085 1740.46,-263.723 1740.46,-263.723 1740.61,-263.685 1740.91,-263.614 1741.06,-263.581 1741.06,-263.581 1742.59,-263.242 1742.59,-263.242 1742.74,-263.209 1743.04,-263.147 1743.19,-263.118 1743.19,-263.118 1744.81,-262.806 1744.81,-262.806 1744.96,-262.777 1745.26,-262.723 1745.41,-262.697 1745.41,-262.697 1747.11,-262.415 1747.11,-262.415 1747.26,-262.39 1747.57,-262.343 1747.72,-262.321 1747.72,-262.321 1749.5,-262.07 1749.5,-262.07 1749.65,-262.048 1749.95,-262.008 1750.11,-261.99 1750.11,-261.99 1751.95,-261.772 1751.95,-261.772 1752.1,-261.753 1752.41,-261.72 1752.56,-261.706 1752.56,-261.706 1754.46,-261.521 1754.46,-261.521 1754.61,-261.506 1754.92,-261.48 1755.07,-261.468 1755.07,-261.468 1757.02,-261.319 1757.02,-261.319 1757.17,-261.307 1757.48,-261.287 1757.63,-261.278 1757.63,-261.278 1759.61,-261.165 1759.61,-261.165 1759.77,-261.157 1760.07,-261.142 1760.23,-261.136 1760.23,-261.136 1762.24,-261.061 1762.24,-261.061 1762.39,-261.055 1762.7,-261.046 1762.85,-261.044 1762.85,-261.044 1764.88,-261.006 1764.88,-261.006 1765.03,-261.003 1765.34,-261 1765.49,-261 1765.49,-261 1767.52,-261 1767.52,-261 1767.68,-261 1767.98,-261.003 1768.14,-261.006 1768.14,-261.006 1770.16,-261.044 1770.16,-261.044 1770.32,-261.046 1770.62,-261.055 1770.78,-261.061"/>
<text text-anchor="middle" x="1766.51" y="-275.3" font-family="Times New Roman,serif" font-size="14.00">order=4</text>
</g>
<!-- loop_7 -->
<g id="node54" class="node"><title>loop_7</title>
<ellipse fill="none" stroke="black" cx="2108.38" cy="-123" rx="34.3995" ry="34.3995"/>
<ellipse fill="none" stroke="black" cx="2108.38" cy="-123" rx="38.394" ry="38.394"/>
<text text-anchor="middle" x="2108.38" y="-119.3" font-family="Times New Roman,serif" font-size="14.00">7 loop</text>
</g>
<!-- tag__6&#45;&gt;loop_7 -->
<g id="edge25" class="edge"><title>tag__6&#45;&gt;loop_7</title>
<path fill="none" stroke="black" d="M1793.61,-217.166C1851.14,-199.901 1989.44,-158.394 2061.69,-136.713"/>
<polygon fill="black" stroke="black" points="2062.86,-140.016 2071.43,-133.789 2060.84,-133.312 2062.86,-140.016"/>
</g>
<!-- tag__7 -->
<g id="node57" class="node"><title>tag__7</title>
</g>
<!-- loop_7&#45;&gt;tag__7 -->
<g id="edge26" class="edge"><title>loop_7&#45;&gt;tag__7</title>
<path fill="none" stroke="black" d="M2145.46,-112.708C2193.73,-99.2456 2282.14,-75.6536 2358.86,-61 2415.85,-50.1143 2482.78,-42.0326 2523.07,-37.6703"/>
<polygon fill="black" stroke="black" points="2523.64,-41.13 2533.21,-36.5906 2522.9,-34.1693 2523.64,-41.13"/>
</g>
<!-- contents_bnode2end -->
<g id="node55" class="node"><title>contents_bnode2end</title>
<path fill="lightgrey" stroke="black" d="M2653.86,-160C2653.86,-160 2509.95,-160 2509.95,-160 2503.95,-160 2493.34,-156.159 2488.73,-152.317 2488.73,-152.317 2463.97,-131.683 2463.97,-131.683 2459.36,-127.841 2460.75,-124 2466.75,-124 2466.75,-124 2610.67,-124 2610.67,-124 2616.67,-124 2627.27,-127.841 2631.88,-131.683 2631.88,-131.683 2656.64,-152.317 2656.64,-152.317 2661.25,-156.159 2659.86,-160 2653.86,-160"/>
<text text-anchor="middle" x="2560.31" y="-138.3" font-family="Times New Roman,serif" font-size="14.00">contents[4,5,6,7]</text>
</g>
<!-- children_bnode2end -->
<g id="node56" class="node"><title>children_bnode2end</title>
<path fill="lightgrey" stroke="black" d="M2622.47,-106C2622.47,-106 2528.5,-106 2528.5,-106 2522.5,-106 2512.63,-101.413 2508.76,-96.8251 2508.76,-96.8251 2493.88,-79.1749 2493.88,-79.1749 2490.02,-74.5875 2492.15,-70 2498.15,-70 2498.15,-70 2592.12,-70 2592.12,-70 2598.12,-70 2607.99,-74.5875 2611.85,-79.1749 2611.85,-79.1749 2626.73,-96.8251 2626.73,-96.8251 2630.6,-101.413 2628.47,-106 2622.47,-106"/>
<text text-anchor="middle" x="2560.31" y="-84.3" font-family="Times New Roman,serif" font-size="14.00">children=[]</text>
</g>
</g>
</svg>
