<?xml version="1.0" encoding="UTF-8" standalone="no"?>
<!DOCTYPE svg PUBLIC "-//W3C//DTD SVG 1.1//EN"
 "http://www.w3.org/Graphics/SVG/1.1/DTD/svg11.dtd">
<!-- Generated by graphviz version 2.38.0 (20140413.2041)
 -->
<!-- Title: %3 Pages: 1 -->
<svg width="3406pt" height="1686pt"
 viewBox="0.00 0.00 3406.31 1686.00" xmlns="http://www.w3.org/2000/svg" xmlns:xlink="http://www.w3.org/1999/xlink">
<g id="graph0" class="graph" transform="scale(1 1) rotate(0) translate(4 1682)">
<title>%3</title>
<polygon fill="white" stroke="none" points="-4,4 -4,-1682 3402.31,-1682 3402.31,4 -4,4"/>
<g id="clust1" class="cluster"><title>cluster_begin</title>
<polygon fill="none" stroke="black" points="8,-1257 8,-1670 1015.16,-1670 1015.16,-1257 8,-1257"/>
<text text-anchor="middle" x="511.578" y="-1654.8" font-family="Times New Roman,serif" font-size="14.00">begin status</text>
</g>
<g id="clust3" class="cluster"><title>cluster_bnode1</title>
<polygon fill="none" stroke="black" points="804.38,-1456 804.38,-1639 1007.16,-1639 1007.16,-1456 804.38,-1456"/>
<text text-anchor="middle" x="905.768" y="-1623.8" font-family="Times New Roman,serif" font-size="14.00">bnode1</text>
</g>
<g id="clust2" class="cluster"><title>cluster_root_bnode</title>
<polygon fill="none" stroke="black" points="130.826,-1307 130.826,-1490 491.79,-1490 491.79,-1307 130.826,-1307"/>
<text text-anchor="middle" x="311.308" y="-1474.8" font-family="Times New Roman,serif" font-size="14.00">root Bnode</text>
</g>
<g id="clust4" class="cluster"><title>cluster_bnode2</title>
<polygon fill="none" stroke="black" points="804.38,-1265 804.38,-1448 1007.16,-1448 1007.16,-1265 804.38,-1265"/>
<text text-anchor="middle" x="905.768" y="-1432.8" font-family="Times New Roman,serif" font-size="14.00">bnode2</text>
</g>
<g id="clust6" class="cluster"><title>cluster_gen_ances</title>
<polygon fill="none" stroke="black" points="559.79,-1035 559.79,-1249 3390.31,-1249 3390.31,-1035 559.79,-1035"/>
<text text-anchor="middle" x="1975.05" y="-1233.8" font-family="Times New Roman,serif" font-size="14.00">generate ancestry</text>
</g>
<g id="clust7" class="cluster"><title>cluster_loop_ances</title>
<polygon fill="none" stroke="black" points="567.79,-1089 567.79,-1218 2979.75,-1218 2979.75,-1089 567.79,-1089"/>
<text text-anchor="middle" x="1773.77" y="-1202.8" font-family="Times New Roman,serif" font-size="14.00">loop</text>
</g>
<g id="clust5" class="cluster"><title>cluster_add6</title>
<polygon fill="none" stroke="black" points="259.808,-1098 259.808,-1227 362.808,-1227 362.808,-1098 259.808,-1098"/>
<text text-anchor="middle" x="311.308" y="-1211.8" font-family="Times New Roman,serif" font-size="14.00">add 6(insert(6))</text>
</g>
<g id="clust8" class="cluster"><title>cluster_insertting</title>
<polygon fill="none" stroke="black" points="1262.75,-620 1262.75,-1027 2244.07,-1027 2244.07,-620 1262.75,-620"/>
<text text-anchor="middle" x="1753.41" y="-1011.8" font-family="Times New Roman,serif" font-size="14.00">insert ing</text>
</g>
<g id="clust9" class="cluster"><title>cluster_lpag</title>
<polygon fill="none" stroke="black" points="1270.75,-782 1270.75,-996 1609.12,-996 1609.12,-782 1270.75,-782"/>
</g>
<g id="clust10" class="cluster"><title>cluster_begin_ins6</title>
<polygon fill="none" stroke="black" points="1715.59,-199 1715.59,-612 2769.75,-612 2769.75,-199 1715.59,-199"/>
<text text-anchor="middle" x="2242.67" y="-596.8" font-family="Times New Roman,serif" font-size="14.00">bnode inser(6,index)</text>
</g>
<g id="clust11" class="cluster"><title>cluster_root_bnode_ins6</title>
<polygon fill="none" stroke="black" points="1927.9,-249 1927.9,-432 2288.86,-432 2288.86,-249 1927.9,-249"/>
<text text-anchor="middle" x="2108.38" y="-416.8" font-family="Times New Roman,serif" font-size="14.00">root Bnode</text>
</g>
<g id="clust13" class="cluster"><title>cluster_bnode2_ins6</title>
<polygon fill="none" stroke="black" points="2358.86,-207 2358.86,-390 2761.75,-390 2761.75,-207 2358.86,-207"/>
<text text-anchor="middle" x="2560.31" y="-374.8" font-family="Times New Roman,serif" font-size="14.00">bnode2</text>
</g>
<g id="clust12" class="cluster"><title>cluster_bnode1_ins6</title>
<polygon fill="none" stroke="black" points="2458.92,-398 2458.92,-581 2661.69,-581 2661.69,-398 2458.92,-398"/>
<text text-anchor="middle" x="2560.31" y="-565.8" font-family="Times New Roman,serif" font-size="14.00">bnode1</text>
</g>
<g id="clust14" class="cluster"><title>cluster_node2end</title>
<polygon fill="none" stroke="black" points="2446.53,-8 2446.53,-191 2674.08,-191 2674.08,-8 2446.53,-8"/>
<text text-anchor="middle" x="2560.31" y="-175.8" font-family="Times New Roman,serif" font-size="14.00">bnode2</text>
</g>
<!-- BRANCH_begin -->
<g id="node1" class="node"><title>BRANCH_begin</title>
<path fill="lightgrey" stroke="black" d="M83.9131,-1608C83.9131,-1608 33.9131,-1608 33.9131,-1608 27.9131,-1608 21.9131,-1602 21.9131,-1596 21.9131,-1596 21.9131,-1584 21.9131,-1584 21.9131,-1578 27.9131,-1572 33.9131,-1572 33.9131,-1572 83.9131,-1572 83.9131,-1572 89.9131,-1572 95.9131,-1578 95.9131,-1584 95.9131,-1584 95.9131,-1596 95.9131,-1596 95.9131,-1602 89.9131,-1608 83.9131,-1608"/>
<text text-anchor="middle" x="58.9131" y="-1586.3" font-family="Times New Roman,serif" font-size="14.00">BRANCH</text>
</g>
<!-- LEAF_begin -->
<g id="node2" class="node"><title>LEAF_begin</title>
<path fill="lightgrey" stroke="black" d="M73.9131,-1524C73.9131,-1524 43.9131,-1524 43.9131,-1524 37.9131,-1524 31.9131,-1518 31.9131,-1512 31.9131,-1512 31.9131,-1500 31.9131,-1500 31.9131,-1494 37.9131,-1488 43.9131,-1488 43.9131,-1488 73.9131,-1488 73.9131,-1488 79.9131,-1488 85.9131,-1494 85.9131,-1500 85.9131,-1500 85.9131,-1512 85.9131,-1512 85.9131,-1518 79.9131,-1524 73.9131,-1524"/>
<text text-anchor="middle" x="58.9131" y="-1502.3" font-family="Times New Roman,serif" font-size="14.00">LEAF</text>
</g>
<!-- _bottom_begin -->
<g id="node3" class="node"><title>_bottom_begin</title>
<polygon fill="lightgrey" stroke="black" points="343.808,-1534 290.808,-1534 290.808,-1538 278.808,-1538 278.808,-1498 343.808,-1498 343.808,-1534"/>
<polyline fill="none" stroke="black" points="278.808,-1534 290.808,-1534 "/>
<text text-anchor="middle" x="311.308" y="-1512.3" font-family="Times New Roman,serif" font-size="14.00">_bottom</text>
</g>
<!-- bnode1_none -->
<g id="node10" class="node"><title>bnode1_none</title>
</g>
<!-- _bottom_begin&#45;&gt;bnode1_none -->
<g id="edge2" class="edge"><title>_bottom_begin&#45;&gt;bnode1_none</title>
<path fill="none" stroke="black" d="M354.305,-1513.59C465.239,-1507.22 764.682,-1490.04 868.633,-1484.07"/>
<polygon fill="black" stroke="black" points="353.944,-1510.1 344.161,-1514.17 354.346,-1517.09 353.944,-1510.1"/>
<polygon fill="black" stroke="black" points="868.853,-1487.57 878.636,-1483.5 868.452,-1480.58 868.853,-1487.57"/>
</g>
<!-- _root_begin -->
<g id="node4" class="node"><title>_root_begin</title>
<polygon fill="lightgrey" stroke="black" points="85.9131,-1409 43.9131,-1409 43.9131,-1413 31.9131,-1413 31.9131,-1373 85.9131,-1373 85.9131,-1409"/>
<polyline fill="none" stroke="black" points="31.9131,-1409 43.9131,-1409 "/>
<text text-anchor="middle" x="58.9131" y="-1387.3" font-family="Times New Roman,serif" font-size="14.00">_root</text>
</g>
<!-- root_bnode_none -->
<g id="node7" class="node"><title>root_bnode_none</title>
</g>
<!-- _root_begin&#45;&gt;root_bnode_none -->
<g id="edge1" class="edge"><title>_root_begin&#45;&gt;root_bnode_none</title>
<path fill="none" stroke="black" d="M95.577,-1373.23C106.649,-1368.31 119.044,-1363.4 130.826,-1360 179.327,-1346.02 237.405,-1338.96 274.085,-1335.64"/>
<polygon fill="black" stroke="black" points="93.8654,-1370.17 86.2357,-1377.52 96.7843,-1376.53 93.8654,-1370.17"/>
<polygon fill="black" stroke="black" points="274.629,-1339.1 284.292,-1334.76 274.029,-1332.13 274.629,-1339.1"/>
</g>
<!-- cont_root_bnode -->
<g id="node5" class="node"><title>cont_root_bnode</title>
<path fill="lightgrey" stroke="black" d="M383.026,-1459C383.026,-1459 273.85,-1459 273.85,-1459 267.85,-1459 257.714,-1454.65 253.577,-1450.31 253.577,-1450.31 235.863,-1431.69 235.863,-1431.69 231.727,-1427.35 233.591,-1423 239.591,-1423 239.591,-1423 348.767,-1423 348.767,-1423 354.767,-1423 364.903,-1427.35 369.039,-1431.69 369.039,-1431.69 386.753,-1450.31 386.753,-1450.31 390.89,-1454.65 389.026,-1459 383.026,-1459"/>
<text text-anchor="middle" x="311.308" y="-1437.3" font-family="Times New Roman,serif" font-size="14.00">contents=[3]</text>
</g>
<!-- child_root_bnode -->
<g id="node6" class="node"><title>child_root_bnode</title>
<path fill="lightgrey" stroke="black" d="M471.772,-1405C471.772,-1405 221.421,-1405 221.421,-1405 215.421,-1405 204.076,-1402.27 198.731,-1399.55 198.731,-1399.55 149.534,-1374.45 149.534,-1374.45 144.189,-1371.73 144.844,-1369 150.844,-1369 150.844,-1369 401.196,-1369 401.196,-1369 407.196,-1369 418.541,-1371.73 423.886,-1374.45 423.886,-1374.45 473.083,-1399.55 473.083,-1399.55 478.427,-1402.27 477.772,-1405 471.772,-1405"/>
<text text-anchor="middle" x="311.308" y="-1383.3" font-family="Times New Roman,serif" font-size="14.00">children=[_bnode1,_bnode2]</text>
</g>
<!-- child_root_bnode&#45;&gt;bnode1_none -->
<g id="edge3" class="edge"><title>child_root_bnode&#45;&gt;bnode1_none</title>
<path fill="none" stroke="black" d="M433.996,-1405.04C453.338,-1407.98 473.117,-1411.04 491.79,-1414 518.491,-1418.23 531.624,-1406 551.79,-1424 561.445,-1432.62 549.805,-1443.77 559.79,-1452 649.345,-1525.86 800.062,-1505.37 868.73,-1490.84"/>
<polygon fill="black" stroke="black" points="869.622,-1494.22 878.638,-1488.66 868.119,-1487.39 869.622,-1494.22"/>
<text text-anchor="middle" x="526.79" y="-1427.8" font-family="Times New Roman,serif" font-size="14.00">_bnode1</text>
</g>
<!-- bnode2_none -->
<g id="node13" class="node"><title>bnode2_none</title>
</g>
<!-- child_root_bnode&#45;&gt;bnode2_none -->
<g id="edge4" class="edge"><title>child_root_bnode&#45;&gt;bnode2_none</title>
<path fill="none" stroke="black" d="M428.453,-1376.55C449.902,-1372.66 471.82,-1367.32 491.79,-1360 525.143,-1347.78 526.024,-1329.03 559.79,-1318 667.709,-1282.75 804.289,-1284.83 868.405,-1288.33"/>
<polygon fill="black" stroke="black" points="868.232,-1291.83 878.422,-1288.93 868.646,-1284.84 868.232,-1291.83"/>
<text text-anchor="middle" x="526.79" y="-1358.8" font-family="Times New Roman,serif" font-size="14.00">_bnode2</text>
</g>
<!-- cont_bnode1 -->
<g id="node8" class="node"><title>cont_bnode1</title>
<path fill="lightgrey" stroke="black" d="M987.044,-1608C987.044,-1608 862.662,-1608 862.662,-1608 856.662,-1608 846.297,-1603.88 841.932,-1599.77 841.932,-1599.77 821.221,-1580.23 821.221,-1580.23 816.856,-1576.12 818.492,-1572 824.492,-1572 824.492,-1572 948.873,-1572 948.873,-1572 954.873,-1572 965.238,-1576.12 969.603,-1580.23 969.603,-1580.23 990.314,-1599.77 990.314,-1599.77 994.679,-1603.88 993.044,-1608 987.044,-1608"/>
<text text-anchor="middle" x="905.768" y="-1586.3" font-family="Times New Roman,serif" font-size="14.00">contents=[1,2]</text>
</g>
<!-- child_bnode1 -->
<g id="node9" class="node"><title>child_bnode1</title>
<path fill="lightgrey" stroke="black" d="M932.768,-1554C932.768,-1554 878.768,-1554 878.768,-1554 872.768,-1554 866.768,-1548 866.768,-1542 866.768,-1542 866.768,-1530 866.768,-1530 866.768,-1524 872.768,-1518 878.768,-1518 878.768,-1518 932.768,-1518 932.768,-1518 938.768,-1518 944.768,-1524 944.768,-1530 944.768,-1530 944.768,-1542 944.768,-1542 944.768,-1548 938.768,-1554 932.768,-1554"/>
<text text-anchor="middle" x="905.768" y="-1532.3" font-family="Times New Roman,serif" font-size="14.00">children=[]</text>
</g>
<!-- cont_bnode2 -->
<g id="node11" class="node"><title>cont_bnode2</title>
<path fill="lightgrey" stroke="black" d="M987.044,-1417C987.044,-1417 862.662,-1417 862.662,-1417 856.662,-1417 846.297,-1412.88 841.932,-1408.77 841.932,-1408.77 821.221,-1389.23 821.221,-1389.23 816.856,-1385.12 818.492,-1381 824.492,-1381 824.492,-1381 948.873,-1381 948.873,-1381 954.873,-1381 965.238,-1385.12 969.603,-1389.23 969.603,-1389.23 990.314,-1408.77 990.314,-1408.77 994.679,-1412.88 993.044,-1417 987.044,-1417"/>
<text text-anchor="middle" x="905.768" y="-1395.3" font-family="Times New Roman,serif" font-size="14.00">contents=[4,5]</text>
</g>
<!-- child_bnode2 -->
<g id="node12" class="node"><title>child_bnode2</title>
<path fill="lightgrey" stroke="black" d="M932.768,-1363C932.768,-1363 878.768,-1363 878.768,-1363 872.768,-1363 866.768,-1357 866.768,-1351 866.768,-1351 866.768,-1339 866.768,-1339 866.768,-1333 872.768,-1327 878.768,-1327 878.768,-1327 932.768,-1327 932.768,-1327 938.768,-1327 944.768,-1333 944.768,-1339 944.768,-1339 944.768,-1351 944.768,-1351 944.768,-1357 938.768,-1363 932.768,-1363"/>
<text text-anchor="middle" x="905.768" y="-1341.3" font-family="Times New Roman,serif" font-size="14.00">children=[]</text>
</g>
<!-- order_begin -->
<g id="node14" class="node"><title>order_begin</title>
<path fill="lightgrey" stroke="black" d="M63.1837,-1319.06C63.1837,-1319.06 65.1924,-1319.14 65.1924,-1319.14 65.3462,-1319.14 65.6537,-1319.16 65.8073,-1319.17 65.8073,-1319.17 67.7894,-1319.28 67.7894,-1319.28 67.9431,-1319.29 68.2502,-1319.31 68.4036,-1319.32 68.4036,-1319.32 70.3488,-1319.47 70.3488,-1319.47 70.5022,-1319.48 70.8089,-1319.51 70.962,-1319.52 70.962,-1319.52 72.8602,-1319.71 72.8602,-1319.71 73.0134,-1319.72 73.3194,-1319.75 73.4722,-1319.77 73.4722,-1319.77 75.3136,-1319.99 75.3136,-1319.99 75.4664,-1320.01 75.7716,-1320.05 75.924,-1320.07 75.924,-1320.07 77.6993,-1320.32 77.6993,-1320.32 77.8517,-1320.34 78.1559,-1320.39 78.3077,-1320.41 78.3077,-1320.41 80.0082,-1320.7 80.0082,-1320.7 80.16,-1320.72 80.4629,-1320.78 80.6141,-1320.81 80.6141,-1320.81 82.2314,-1321.12 82.2314,-1321.12 82.3825,-1321.15 82.6839,-1321.21 82.8341,-1321.24 82.8341,-1321.24 84.3608,-1321.58 84.3608,-1321.58 84.511,-1321.61 84.8105,-1321.69 84.9597,-1321.72 84.9597,-1321.72 86.3888,-1322.09 86.3888,-1322.09 86.538,-1322.12 86.835,-1322.2 86.9828,-1322.25 86.9828,-1322.25 88.3084,-1322.63 88.3084,-1322.63 88.4563,-1322.67 88.7503,-1322.76 88.8965,-1322.81 88.8965,-1322.81 90.1135,-1323.21 90.1135,-1323.21 90.2597,-1323.26 90.55,-1323.36 90.694,-1323.42 90.694,-1323.42 91.7985,-1323.83 91.7985,-1323.83 91.9426,-1323.88 92.2281,-1324 92.3695,-1324.06 92.3695,-1324.06 93.3586,-1324.48 93.3586,-1324.48 93.5,-1324.54 93.7796,-1324.67 93.9177,-1324.74 93.9177,-1324.74 94.7899,-1325.17 94.7899,-1325.17 94.928,-1325.24 95.2,-1325.38 95.3338,-1325.46 95.3338,-1325.46 96.0893,-1325.89 96.0893,-1325.89 96.2232,-1325.96 96.4854,-1326.12 96.6138,-1326.21 96.6138,-1326.21 97.2546,-1326.63 97.2546,-1326.63 97.383,-1326.72 97.6329,-1326.9 97.7543,-1326.99 97.7543,-1326.99 98.2844,-1327.4 98.2844,-1327.4 98.4058,-1327.5 98.6399,-1327.7 98.7525,-1327.8 98.7525,-1327.8 99.1782,-1328.2 99.1782,-1328.2 99.2907,-1328.3 99.5047,-1328.52 99.6061,-1328.64 99.6061,-1328.64 99.9362,-1329.02 99.9362,-1329.02 100.038,-1329.13 100.227,-1329.37 100.314,-1329.5 100.314,-1329.5 100.559,-1329.86 100.559,-1329.86 100.647,-1329.98 100.805,-1330.25 100.876,-1330.38 100.876,-1330.38 101.049,-1330.72 101.049,-1330.72 101.12,-1330.85 101.242,-1331.13 101.293,-1331.28 101.293,-1331.28 101.406,-1331.6 101.406,-1331.6 101.457,-1331.74 101.539,-1332.04 101.569,-1332.19 101.569,-1332.19 101.63,-1332.49 101.63,-1332.49 101.66,-1332.65 101.699,-1332.95 101.707,-1333.1 101.707,-1333.1 101.723,-1333.41 101.723,-1333.41 101.731,-1333.56 101.726,-1333.87 101.713,-1334.03 101.713,-1334.03 101.685,-1334.34 101.685,-1334.34 101.672,-1334.5 101.625,-1334.8 101.592,-1334.95 101.592,-1334.95 101.518,-1335.29 101.518,-1335.29 101.485,-1335.44 101.401,-1335.73 101.35,-1335.88 101.35,-1335.88 101.224,-1336.24 101.224,-1336.24 101.173,-1336.38 101.056,-1336.67 100.99,-1336.81 100.99,-1336.81 100.807,-1337.19 100.807,-1337.19 100.741,-1337.33 100.597,-1337.6 100.518,-1337.74 100.518,-1337.74 100.273,-1338.15 100.273,-1338.15 100.195,-1338.28 100.027,-1338.54 99.9377,-1338.66 99.9377,-1338.66 99.6276,-1339.1 99.6276,-1339.1 99.5384,-1339.22 99.3512,-1339.47 99.2532,-1339.59 99.2532,-1339.59 98.8763,-1340.04 98.8763,-1340.04 98.7783,-1340.16 98.575,-1340.39 98.4697,-1340.51 98.4697,-1340.51 98.0256,-1340.98 98.0256,-1340.98 97.9203,-1341.09 97.7036,-1341.31 97.5921,-1341.42 97.5921,-1341.42 97.0819,-1341.9 97.0819,-1341.9 96.9704,-1342.01 96.7424,-1342.21 96.6258,-1342.31 96.6258,-1342.31 96.0512,-1342.81 96.0512,-1342.81 95.9346,-1342.91 95.697,-1343.11 95.576,-1343.2 95.576,-1343.2 94.94,-1343.7 94.94,-1343.7 94.819,-1343.8 94.5732,-1343.98 94.4484,-1344.07 94.4484,-1344.07 93.7543,-1344.57 93.7543,-1344.57 93.6295,-1344.66 93.3766,-1344.84 93.2485,-1344.92 93.2485,-1344.92 92.5,-1345.42 92.5,-1345.42 92.3719,-1345.51 92.1128,-1345.67 91.9819,-1345.75 91.9819,-1345.75 91.1829,-1346.25 91.1829,-1346.25 91.052,-1346.33 90.7875,-1346.48 90.6539,-1346.56 90.6539,-1346.56 89.8087,-1347.05 89.8087,-1347.05 89.6752,-1347.12 89.4059,-1347.27 89.2701,-1347.34 89.2701,-1347.34 88.3828,-1347.82 88.3828,-1347.82 88.247,-1347.89 87.9733,-1348.03 87.8354,-1348.1 87.8354,-1348.1 86.9102,-1348.56 86.9102,-1348.56 86.7723,-1348.63 86.4947,-1348.76 86.355,-1348.82 86.355,-1348.82 85.3959,-1349.27 85.3959,-1349.27 85.2562,-1349.33 84.975,-1349.46 84.8335,-1349.52 84.8335,-1349.52 83.8445,-1349.94 83.8445,-1349.94 83.703,-1350 83.4186,-1350.12 83.2756,-1350.17 83.2756,-1350.17 82.2603,-1350.58 82.2603,-1350.58 82.1172,-1350.64 81.8298,-1350.75 81.6853,-1350.8 81.6853,-1350.8 80.6472,-1351.18 80.6472,-1351.18 80.5027,-1351.23 80.2125,-1351.33 80.0666,-1351.38 80.0666,-1351.38 79.009,-1351.74 79.009,-1351.74 78.8632,-1351.79 78.5704,-1351.88 78.4233,-1351.93 78.4233,-1351.93 77.3491,-1352.26 77.3491,-1352.26 77.202,-1352.31 76.9068,-1352.39 76.7586,-1352.44 76.7586,-1352.44 75.6705,-1352.74 75.6705,-1352.74 75.5223,-1352.78 75.2249,-1352.86 75.0757,-1352.9 75.0757,-1352.9 73.976,-1353.18 73.976,-1353.18 73.8267,-1353.21 73.5273,-1353.29 73.3772,-1353.32 73.3772,-1353.32 72.268,-1353.57 72.268,-1353.57 72.1179,-1353.6 71.8167,-1353.67 71.6657,-1353.69 71.6657,-1353.69 70.5489,-1353.91 70.5489,-1353.91 70.3979,-1353.94 70.0951,-1354 69.9434,-1354.02 69.9434,-1354.02 68.8206,-1354.21 68.8206,-1354.21 68.6689,-1354.24 68.3647,-1354.29 68.2123,-1354.31 68.2123,-1354.31 67.0849,-1354.47 67.0849,-1354.47 66.9325,-1354.49 66.6271,-1354.53 66.4742,-1354.54 66.4742,-1354.54 65.3433,-1354.67 65.3433,-1354.67 65.1903,-1354.69 64.8841,-1354.72 64.7307,-1354.73 64.7307,-1354.73 63.5972,-1354.83 63.5972,-1354.83 63.4439,-1354.84 63.1369,-1354.86 62.9832,-1354.87 62.9832,-1354.87 61.848,-1354.93 61.848,-1354.93 61.6944,-1354.94 61.3869,-1354.95 61.233,-1354.96 61.233,-1354.96 60.0969,-1354.99 60.0969,-1354.99 59.943,-1355 59.6353,-1355 59.4814,-1355 59.4814,-1355 58.3449,-1355 58.3449,-1355 58.191,-1355 57.8833,-1355 57.7294,-1354.99 57.7294,-1354.99 56.5933,-1354.96 56.5933,-1354.96 56.4394,-1354.95 56.1319,-1354.94 55.9783,-1354.93 55.9783,-1354.93 54.8431,-1354.87 54.8431,-1354.87 54.6894,-1354.86 54.3824,-1354.84 54.2291,-1354.83 54.2291,-1354.83 53.0956,-1354.73 53.0956,-1354.73 52.9422,-1354.72 52.6359,-1354.69 52.483,-1354.67 52.483,-1354.67 51.3521,-1354.54 51.3521,-1354.54 51.1992,-1354.53 50.8938,-1354.49 50.7414,-1354.47 50.7414,-1354.47 49.614,-1354.31 49.614,-1354.31 49.4616,-1354.29 49.1574,-1354.24 49.0057,-1354.21 49.0057,-1354.21 47.8829,-1354.02 47.8829,-1354.02 47.7312,-1354 47.4284,-1353.94 47.2774,-1353.91 47.2774,-1353.91 46.1606,-1353.69 46.1606,-1353.69 46.0096,-1353.67 45.7084,-1353.6 45.5583,-1353.57 45.5583,-1353.57 44.4491,-1353.32 44.4491,-1353.32 44.2989,-1353.29 43.9996,-1353.21 43.8503,-1353.18 43.8503,-1353.18 42.7506,-1352.9 42.7506,-1352.9 42.6014,-1352.86 42.304,-1352.78 42.1558,-1352.74 42.1558,-1352.74 41.0677,-1352.44 41.0677,-1352.44 40.9195,-1352.39 40.6242,-1352.31 40.4772,-1352.26 40.4772,-1352.26 39.403,-1351.93 39.403,-1351.93 39.2559,-1351.88 38.9631,-1351.79 38.8173,-1351.74 38.8173,-1351.74 37.7596,-1351.38 37.7596,-1351.38 37.6138,-1351.33 37.3236,-1351.23 37.1791,-1351.18 37.1791,-1351.18 36.141,-1350.8 36.141,-1350.8 35.9965,-1350.75 35.7091,-1350.64 35.566,-1350.58 35.566,-1350.58 34.5507,-1350.17 34.5507,-1350.17 34.4077,-1350.12 34.1232,-1350 33.9818,-1349.94 33.9818,-1349.94 32.9928,-1349.52 32.9928,-1349.52 32.8513,-1349.46 32.5701,-1349.33 32.4304,-1349.27 32.4304,-1349.27 31.4713,-1348.82 31.4713,-1348.82 31.3316,-1348.76 31.054,-1348.63 30.9161,-1348.56 30.9161,-1348.56 29.9909,-1348.1 29.9909,-1348.1 29.853,-1348.03 29.5793,-1347.89 29.4435,-1347.82 29.4435,-1347.82 28.5562,-1347.34 28.5562,-1347.34 28.4204,-1347.27 28.1511,-1347.12 28.0176,-1347.05 28.0176,-1347.05 27.1723,-1346.56 27.1723,-1346.56 27.0388,-1346.48 26.7743,-1346.33 26.6434,-1346.25 26.6434,-1346.25 25.8444,-1345.75 25.8444,-1345.75 25.7134,-1345.67 25.4544,-1345.51 25.3263,-1345.42 25.3263,-1345.42 24.5778,-1344.92 24.5778,-1344.92 24.4497,-1344.84 24.1968,-1344.66 24.072,-1344.57 24.072,-1344.57 23.3779,-1344.07 23.3779,-1344.07 23.2531,-1343.98 23.0073,-1343.8 22.8863,-1343.7 22.8863,-1343.7 22.2503,-1343.2 22.2503,-1343.2 22.1293,-1343.11 21.8917,-1342.91 21.775,-1342.81 21.775,-1342.81 21.2005,-1342.31 21.2005,-1342.31 21.0839,-1342.21 20.8559,-1342.01 20.7444,-1341.9 20.7444,-1341.9 20.2342,-1341.42 20.2342,-1341.42 20.1227,-1341.31 19.906,-1341.09 19.8007,-1340.98 19.8007,-1340.98 19.3566,-1340.51 19.3566,-1340.51 19.2513,-1340.39 19.048,-1340.16 18.95,-1340.04 18.95,-1340.04 18.5731,-1339.59 18.5731,-1339.59 18.4751,-1339.47 18.2879,-1339.22 18.1987,-1339.1 18.1987,-1339.1 17.8886,-1338.66 17.8886,-1338.66 17.7994,-1338.54 17.6316,-1338.28 17.553,-1338.15 17.553,-1338.15 17.308,-1337.74 17.308,-1337.74 17.2294,-1337.6 17.0849,-1337.33 17.019,-1337.19 17.019,-1337.19 16.8359,-1336.81 16.8359,-1336.81 16.7699,-1336.67 16.6532,-1336.38 16.6024,-1336.24 16.6024,-1336.24 16.4764,-1335.88 16.4764,-1335.88 16.4256,-1335.73 16.3416,-1335.44 16.3084,-1335.29 16.3084,-1335.29 16.234,-1334.95 16.234,-1334.95 16.2008,-1334.8 16.1543,-1334.5 16.141,-1334.34 16.141,-1334.34 16.1133,-1334.03 16.1133,-1334.03 16.1,-1333.87 16.0948,-1333.56 16.103,-1333.41 16.103,-1333.41 16.1194,-1333.1 16.1194,-1333.1 16.1275,-1332.95 16.1659,-1332.65 16.1961,-1332.49 16.1961,-1332.49 16.2575,-1332.19 16.2575,-1332.19 16.2877,-1332.04 16.3693,-1331.74 16.4208,-1331.6 16.4208,-1331.6 16.533,-1331.28 16.533,-1331.28 16.5845,-1331.13 16.7067,-1330.85 16.7775,-1330.72 16.7775,-1330.72 16.9503,-1330.38 16.9503,-1330.38 17.0211,-1330.25 17.1794,-1329.98 17.2669,-1329.86 17.2669,-1329.86 17.5123,-1329.5 17.5123,-1329.5 17.5998,-1329.37 17.7887,-1329.13 17.8901,-1329.02 17.8901,-1329.02 18.2202,-1328.64 18.2202,-1328.64 18.3216,-1328.52 18.5356,-1328.3 18.6481,-1328.2 18.6481,-1328.2 19.0738,-1327.8 19.0738,-1327.8 19.1864,-1327.7 19.4205,-1327.5 19.5419,-1327.4 19.5419,-1327.4 20.072,-1326.99 20.072,-1326.99 20.1934,-1326.9 20.4433,-1326.72 20.5717,-1326.63 20.5717,-1326.63 21.2125,-1326.21 21.2125,-1326.21 21.3409,-1326.12 21.6031,-1325.96 21.737,-1325.89 21.737,-1325.89 22.4925,-1325.46 22.4925,-1325.46 22.6263,-1325.38 22.8983,-1325.24 23.0364,-1325.17 23.0364,-1325.17 23.9086,-1324.74 23.9086,-1324.74 24.0467,-1324.67 24.3263,-1324.54 24.4677,-1324.48 24.4677,-1324.48 25.4568,-1324.06 25.4568,-1324.06 25.5982,-1324 25.8837,-1323.88 26.0278,-1323.83 26.0278,-1323.83 27.1323,-1323.42 27.1323,-1323.42 27.2763,-1323.36 27.5666,-1323.26 27.7128,-1323.21 27.7128,-1323.21 28.9298,-1322.81 28.9298,-1322.81 29.076,-1322.76 29.37,-1322.67 29.5179,-1322.63 29.5179,-1322.63 30.8435,-1322.25 30.8435,-1322.25 30.9913,-1322.2 31.2883,-1322.12 31.4375,-1322.09 31.4375,-1322.09 32.8666,-1321.72 32.8666,-1321.72 33.0158,-1321.69 33.3153,-1321.61 33.4655,-1321.58 33.4655,-1321.58 34.9922,-1321.24 34.9922,-1321.24 35.1424,-1321.21 35.4438,-1321.15 35.5949,-1321.12 35.5949,-1321.12 37.2122,-1320.81 37.2122,-1320.81 37.3634,-1320.78 37.6663,-1320.72 37.8181,-1320.7 37.8181,-1320.7 39.5186,-1320.41 39.5186,-1320.41 39.6704,-1320.39 39.9746,-1320.34 40.127,-1320.32 40.127,-1320.32 41.9023,-1320.07 41.9023,-1320.07 42.0547,-1320.05 42.3599,-1320.01 42.5127,-1319.99 42.5127,-1319.99 44.3541,-1319.77 44.3541,-1319.77 44.5069,-1319.75 44.8129,-1319.72 44.9661,-1319.71 44.9661,-1319.71 46.8643,-1319.52 46.8643,-1319.52 47.0174,-1319.51 47.3241,-1319.48 47.4775,-1319.47 47.4775,-1319.47 49.4227,-1319.32 49.4227,-1319.32 49.5761,-1319.31 49.8832,-1319.29 50.0369,-1319.28 50.0369,-1319.28 52.019,-1319.17 52.019,-1319.17 52.1726,-1319.16 52.4801,-1319.14 52.6339,-1319.14 52.6339,-1319.14 54.6426,-1319.06 54.6426,-1319.06 54.7963,-1319.06 55.104,-1319.05 55.2579,-1319.04 55.2579,-1319.04 57.2826,-1319.01 57.2826,-1319.01 57.4365,-1319 57.7442,-1319 57.8981,-1319 57.8981,-1319 59.9282,-1319 59.9282,-1319 60.0821,-1319 60.3898,-1319 60.5437,-1319.01 60.5437,-1319.01 62.5684,-1319.04 62.5684,-1319.04 62.7223,-1319.05 63.03,-1319.06 63.1837,-1319.06"/>
<text text-anchor="middle" x="58.9131" y="-1333.3" font-family="Times New Roman,serif" font-size="14.00">order=4</text>
</g>
<!-- tag__2 -->
<g id="node15" class="node"><title>tag__2</title>
</g>
<!-- tag__3 -->
<g id="node17" class="node"><title>tag__3</title>
</g>
<!-- tag__2&#45;&gt;tag__3 -->
<g id="edge21" class="edge"><title>tag__2&#45;&gt;tag__3</title>
<path fill="none" stroke="black" d="M64.1714,-1264.57C71.9672,-1235.31 91.4781,-1178.71 130.826,-1151 173.097,-1121.23 234.91,-1118.53 273.852,-1120.43"/>
<polygon fill="black" stroke="black" points="273.997,-1123.94 284.194,-1121.07 274.428,-1116.96 273.997,-1123.94"/>
</g>
<!-- fn_path_to -->
<g id="node16" class="node"><title>fn_path_to</title>
<polygon fill="lightgrey" stroke="black" points="334.808,-1190 269.808,-1190 269.808,-1166 334.808,-1166 334.808,-1160 352.808,-1178 334.808,-1196 334.808,-1190"/>
<text text-anchor="middle" x="311.308" y="-1174.3" font-family="Times New Roman,serif" font-size="14.00">_path_to(6)</text>
</g>
<!-- tag__4 -->
<g id="node29" class="node"><title>tag__4</title>
</g>
<!-- tag__3&#45;&gt;tag__4 -->
<g id="edge22" class="edge"><title>tag__3&#45;&gt;tag__4</title>
<path fill="none" stroke="black" d="M338.577,-1119.09C383.664,-1110.84 478.755,-1094.19 559.79,-1085 672.011,-1072.28 805.585,-1065.29 868.534,-1062.48"/>
<polygon fill="black" stroke="black" points="868.894,-1065.97 878.732,-1062.04 868.589,-1058.98 868.894,-1065.97"/>
</g>
<!-- ances_empty -->
<g id="node18" class="node"><title>ances_empty</title>
<path fill="lightgrey" stroke="black" d="M1830.98,-1079C1830.98,-1079 1733.33,-1079 1733.33,-1079 1727.33,-1079 1717.39,-1074.47 1713.46,-1069.94 1713.46,-1069.94 1697.91,-1052.06 1697.91,-1052.06 1693.97,-1047.53 1696.04,-1043 1702.04,-1043 1702.04,-1043 1799.68,-1043 1799.68,-1043 1805.68,-1043 1815.62,-1047.53 1819.56,-1052.06 1819.56,-1052.06 1835.1,-1069.94 1835.1,-1069.94 1839.04,-1074.47 1836.98,-1079 1830.98,-1079"/>
<text text-anchor="middle" x="1766.51" y="-1057.3" font-family="Times New Roman,serif" font-size="14.00">ancestry=[]</text>
</g>
<!-- ances_1 -->
<g id="node19" class="node"><title>ances_1</title>
<path fill="lightgrey" stroke="black" d="M2224.27,-1079C2224.27,-1079 2044.83,-1079 2044.83,-1079 2038.83,-1079 2027.88,-1075.6 2022.94,-1072.2 2022.94,-1072.2 1990.38,-1049.8 1990.38,-1049.8 1985.43,-1046.4 1986.49,-1043 1992.49,-1043 1992.49,-1043 2171.93,-1043 2171.93,-1043 2177.93,-1043 2188.87,-1046.4 2193.82,-1049.8 2193.82,-1049.8 2226.38,-1072.2 2226.38,-1072.2 2231.32,-1075.6 2230.27,-1079 2224.27,-1079"/>
<text text-anchor="middle" x="2108.38" y="-1057.3" font-family="Times New Roman,serif" font-size="14.00">ancestry=[(_root,1),]</text>
</g>
<!-- ances_empty&#45;&gt;ances_1 -->
<g id="edge11" class="edge"><title>ances_empty&#45;&gt;ances_1</title>
<path fill="none" stroke="black" d="M1827.49,-1061C1874.14,-1061 1940.16,-1061 1996.37,-1061"/>
<polygon fill="black" stroke="black" points="1996.38,-1064.5 2006.38,-1061 1996.38,-1057.5 1996.38,-1064.5"/>
</g>
<!-- ances_2 -->
<g id="node20" class="node"><title>ances_2</title>
<path fill="lightgrey" stroke="black" d="M3370.08,-1094C3370.08,-1094 3097.32,-1094 3097.32,-1094 3091.32,-1094 3079.89,-1091.44 3074.47,-1088.88 3074.47,-1088.88 3019.83,-1063.12 3019.83,-1063.12 3014.4,-1060.56 3014.98,-1058 3020.98,-1058 3020.98,-1058 3293.74,-1058 3293.74,-1058 3299.74,-1058 3311.17,-1060.56 3316.59,-1063.12 3316.59,-1063.12 3371.23,-1088.88 3371.23,-1088.88 3376.66,-1091.44 3376.08,-1094 3370.08,-1094"/>
<text text-anchor="middle" x="3195.53" y="-1072.3" font-family="Times New Roman,serif" font-size="14.00">ancestry=[(_root,1),(bnode2,2)]</text>
</g>
<!-- ances_1&#45;&gt;ances_2 -->
<g id="edge12" class="edge"><title>ances_1&#45;&gt;ances_2</title>
<path fill="none" stroke="black" d="M2212.45,-1062.42C2401.71,-1065.04 2805.97,-1070.63 3032.36,-1073.76"/>
<polygon fill="black" stroke="black" points="3032.63,-1077.26 3042.68,-1073.9 3032.73,-1070.26 3032.63,-1077.26"/>
</g>
<!-- current_0 -->
<g id="node21" class="node"><title>current_0</title>
<text text-anchor="middle" x="905.768" y="-1165.3" font-family="Times New Roman,serif" font-size="14.00">current=_root</text>
</g>
<!-- index_0 -->
<g id="node22" class="node"><title>index_0</title>
<text text-anchor="middle" x="1439.93" y="-1124.3" font-family="Times New Roman,serif" font-size="14.00">index=bisect.bisect_left(current.contents=[3],6)=1</text>
</g>
<!-- current_0&#45;&gt;index_0 -->
<g id="edge6" class="edge"><title>current_0&#45;&gt;index_0</title>
<path fill="none" stroke="black" d="M953.527,-1165.4C1025.97,-1159.82 1168.65,-1148.82 1280.66,-1140.19"/>
<polygon fill="black" stroke="black" points="1281.01,-1143.68 1290.71,-1139.42 1280.48,-1136.7 1281.01,-1143.68"/>
</g>
<!-- append_root1 -->
<g id="node23" class="node"><title>append_root1</title>
<polygon fill="lightgrey" stroke="black" points="1830.51,-1127 1684.51,-1127 1684.51,-1103 1830.51,-1103 1830.51,-1097 1848.51,-1115 1830.51,-1133 1830.51,-1127"/>
<text text-anchor="middle" x="1766.51" y="-1111.3" font-family="Times New Roman,serif" font-size="14.00">append( tuple=(_root,1,) )</text>
</g>
<!-- index_0&#45;&gt;append_root1 -->
<g id="edge7" class="edge"><title>index_0&#45;&gt;append_root1</title>
<path fill="none" stroke="black" d="M1588.97,-1122.07C1618.03,-1120.91 1647.7,-1119.72 1674.22,-1118.66"/>
<polygon fill="black" stroke="black" points="1674.37,-1122.15 1684.22,-1118.26 1674.09,-1115.16 1674.37,-1122.15"/>
</g>
<!-- append_root1&#45;&gt;ances_1 -->
<g id="edge13" class="edge"><title>append_root1&#45;&gt;ances_1</title>
<path fill="none" stroke="black" d="M1848.55,-1098.99C1873.91,-1094.21 1902.02,-1089.15 1927.9,-1085 1955.01,-1080.65 1984.51,-1076.48 2011.62,-1072.87"/>
<polygon fill="black" stroke="black" points="2012.43,-1076.29 2021.88,-1071.51 2011.51,-1069.35 2012.43,-1076.29"/>
</g>
<!-- current_1 -->
<g id="node26" class="node"><title>current_1</title>
<text text-anchor="middle" x="2108.38" y="-1111.3" font-family="Times New Roman,serif" font-size="14.00">current=current.children[1]=bnode2</text>
</g>
<!-- append_root1&#45;&gt;current_1 -->
<g id="edge8" class="edge"><title>append_root1&#45;&gt;current_1</title>
<path fill="none" stroke="black" d="M1848.91,-1115C1890.99,-1115 1943.12,-1115 1989.52,-1115"/>
<polygon fill="black" stroke="black" points="1989.63,-1118.5 1999.63,-1115 1989.63,-1111.5 1989.63,-1118.5"/>
</g>
<!-- checkEq -->
<g id="node24" class="node"><title>checkEq</title>
<polygon fill="lightgrey" stroke="black" points="905.768,-1133 575.813,-1115 905.768,-1097 1235.72,-1115 905.768,-1133"/>
<text text-anchor="middle" x="905.768" y="-1111.3" font-family="Times New Roman,serif" font-size="14.00">index &lt; len(current.contents) &amp;&amp; current.contents[index]==6</text>
</g>
<!-- checkChildren -->
<g id="node25" class="node"><title>checkChildren</title>
<polygon fill="lightgrey" stroke="black" points="1766.51,-1187 1670.82,-1169 1766.51,-1151 1862.19,-1169 1766.51,-1187"/>
<text text-anchor="middle" x="1766.51" y="-1165.3" font-family="Times New Roman,serif" font-size="14.00">current.children</text>
</g>
<!-- checkChildren&#45;&gt;current_1 -->
<g id="edge5" class="edge"><title>checkChildren&#45;&gt;current_1</title>
<path fill="none" stroke="black" stroke-width="2" d="M1819.13,-1160.8C1864.24,-1153.63 1931.44,-1142.95 1989.61,-1133.71"/>
<polygon fill="black" stroke="black" stroke-width="2" points="1990.28,-1137.15 1999.61,-1132.12 1989.19,-1130.24 1990.28,-1137.15"/>
<text text-anchor="middle" x="1908.4" y="-1150.8" font-family="Times New Roman,serif" font-size="14.00">yes</text>
</g>
<!-- index_1 -->
<g id="node27" class="node"><title>index_1</title>
<text text-anchor="middle" x="2560.31" y="-1111.3" font-family="Times New Roman,serif" font-size="14.00">index=bisect.bisect_left(current.contents=[4,5],6)=2</text>
</g>
<!-- current_1&#45;&gt;index_1 -->
<g id="edge9" class="edge"><title>current_1&#45;&gt;index_1</title>
<path fill="none" stroke="black" d="M2217.15,-1115C2270.6,-1115 2336.3,-1115 2395.79,-1115"/>
<polygon fill="black" stroke="black" points="2396.05,-1118.5 2406.05,-1115 2396.05,-1111.5 2396.05,-1118.5"/>
</g>
<!-- append_root2 -->
<g id="node28" class="node"><title>append_root2</title>
<polygon fill="lightgrey" stroke="black" points="2953.75,-1127 2796.75,-1127 2796.75,-1103 2953.75,-1103 2953.75,-1097 2971.75,-1115 2953.75,-1133 2953.75,-1127"/>
<text text-anchor="middle" x="2884.25" y="-1111.3" font-family="Times New Roman,serif" font-size="14.00">append( tuple=(bnode2,2,) )</text>
</g>
<!-- index_1&#45;&gt;append_root2 -->
<g id="edge10" class="edge"><title>index_1&#45;&gt;append_root2</title>
<path fill="none" stroke="black" d="M2714.74,-1115C2739.17,-1115 2763.84,-1115 2786.49,-1115"/>
<polygon fill="black" stroke="black" points="2786.74,-1118.5 2796.74,-1115 2786.74,-1111.5 2786.74,-1118.5"/>
</g>
<!-- append_root2&#45;&gt;ances_2 -->
<g id="edge14" class="edge"><title>append_root2&#45;&gt;ances_2</title>
<path fill="none" stroke="black" d="M2971.82,-1104.08C3001.69,-1100.32 3035.81,-1096.01 3068.21,-1091.93"/>
<polygon fill="black" stroke="black" points="3068.72,-1095.39 3078.2,-1090.67 3067.84,-1088.45 3068.72,-1095.39"/>
</g>
<!-- tag__5 -->
<g id="node38" class="node"><title>tag__5</title>
</g>
<!-- tag__4&#45;&gt;tag__5 -->
<g id="edge23" class="edge"><title>tag__4&#45;&gt;tag__5</title>
<path fill="none" stroke="black" d="M917.106,-1042.79C954.263,-979.26 1088.14,-766.186 1262.75,-673 1306.73,-649.528 1365.12,-644.905 1402.38,-644.703"/>
<polygon fill="black" stroke="black" points="1402.74,-648.205 1412.76,-644.759 1402.78,-641.205 1402.74,-648.205"/>
</g>
<!-- param_1 -->
<g id="node30" class="node"><title>param_1</title>
<ellipse fill="none" stroke="black" cx="1439.93" cy="-754" rx="104.782" ry="18"/>
<text text-anchor="middle" x="1439.93" y="-750.3" font-family="Times New Roman,serif" font-size="14.00">node,index = ancestry[&#45;1]</text>
</g>
<!-- param_2 -->
<g id="node31" class="node"><title>param_2</title>
<ellipse fill="none" stroke="black" cx="1766.51" cy="-970" rx="114.28" ry="18"/>
<text text-anchor="middle" x="1766.51" y="-966.3" font-family="Times New Roman,serif" font-size="14.00">node,index = ancestry.pop()</text>
</g>
<!-- ancestry_3 -->
<g id="node32" class="node"><title>ancestry_3</title>
<path fill="lightgrey" stroke="black" d="M2224.27,-988C2224.27,-988 2044.83,-988 2044.83,-988 2038.83,-988 2027.88,-984.6 2022.94,-981.199 2022.94,-981.199 1990.38,-958.801 1990.38,-958.801 1985.43,-955.4 1986.49,-952 1992.49,-952 1992.49,-952 2171.93,-952 2171.93,-952 2177.93,-952 2188.87,-955.4 2193.82,-958.801 2193.82,-958.801 2226.38,-981.199 2226.38,-981.199 2231.32,-984.6 2230.27,-988 2224.27,-988"/>
<text text-anchor="middle" x="2108.38" y="-966.3" font-family="Times New Roman,serif" font-size="14.00">ancestry=[(_root,1),]</text>
</g>
<!-- param_2&#45;&gt;ancestry_3 -->
<g id="edge15" class="edge"><title>param_2&#45;&gt;ancestry_3</title>
<path fill="none" stroke="black" d="M1881.15,-970C1918.19,-970 1959.26,-970 1996.12,-970"/>
<polygon fill="black" stroke="black" points="1996.4,-973.5 2006.4,-970 1996.4,-966.5 1996.4,-973.5"/>
</g>
<!-- checkChildren_lpag -->
<g id="node33" class="node"><title>checkChildren_lpag</title>
<polygon fill="lightgrey" stroke="black" points="1439.93,-988 1355.31,-970 1439.93,-952 1524.56,-970 1439.93,-988"/>
<text text-anchor="middle" x="1439.93" y="-966.3" font-family="Times New Roman,serif" font-size="14.00">node.children</text>
</g>
<!-- checkChildren_lpag&#45;&gt;param_2 -->
<g id="edge16" class="edge"><title>checkChildren_lpag&#45;&gt;param_2</title>
<path fill="none" stroke="black" d="M1524.52,-970C1560.12,-970 1602.4,-970 1641.52,-970"/>
<polygon fill="black" stroke="black" points="1641.93,-973.5 1651.93,-970 1641.93,-966.5 1641.93,-973.5"/>
<text text-anchor="middle" x="1626.62" y="-973.8" font-family="Times New Roman,serif" font-size="14.00">no</text>
</g>
<!-- node_lpag -->
<g id="node34" class="node"><title>node_lpag</title>
<ellipse fill="none" stroke="black" cx="1439.93" cy="-916" rx="108.581" ry="18"/>
<text text-anchor="middle" x="1439.93" y="-912.3" font-family="Times New Roman,serif" font-size="14.00">node=node.children[index]</text>
</g>
<!-- index_lpag -->
<g id="node35" class="node"><title>index_lpag</title>
<ellipse fill="none" stroke="black" cx="1439.93" cy="-862" rx="161.372" ry="18"/>
<text text-anchor="middle" x="1439.93" y="-858.3" font-family="Times New Roman,serif" font-size="14.00">index=bisect.bisect_left(node.contents,6)</text>
</g>
<!-- append_lpag -->
<g id="node36" class="node"><title>append_lpag</title>
<polygon fill="lightgrey" stroke="black" points="1496.43,-820 1365.43,-820 1365.43,-796 1496.43,-796 1496.43,-790 1514.43,-808 1496.43,-826 1496.43,-820"/>
<text text-anchor="middle" x="1439.93" y="-804.3" font-family="Times New Roman,serif" font-size="14.00">append( (node,index,) )</text>
</g>
<!-- insert_fn_6 -->
<g id="node37" class="node"><title>insert_fn_6</title>
<polygon fill="lightgrey" stroke="black" points="1510.93,-712 1350.93,-712 1350.93,-688 1510.93,-688 1510.93,-682 1528.93,-700 1510.93,-718 1510.93,-712"/>
<text text-anchor="middle" x="1439.93" y="-696.3" font-family="Times New Roman,serif" font-size="14.00">node.insert(6,index,ancestry)</text>
</g>
<!-- tag__6 -->
<g id="node53" class="node"><title>tag__6</title>
</g>
<!-- tag__5&#45;&gt;tag__6 -->
<g id="edge24" class="edge"><title>tag__5&#45;&gt;tag__6</title>
<path fill="none" stroke="black" d="M1445.06,-627.64C1460.27,-564.458 1519.3,-354.285 1652.12,-252 1674.04,-235.114 1704.9,-228.564 1728.89,-226.126"/>
<polygon fill="black" stroke="black" points="1729.36,-229.599 1739.04,-225.293 1728.79,-222.623 1729.36,-229.599"/>
</g>
<!-- BRANCH_nodeinsert6 -->
<g id="node39" class="node"><title>BRANCH_nodeinsert6</title>
<path fill="lightgrey" stroke="black" d="M1791.51,-550C1791.51,-550 1741.51,-550 1741.51,-550 1735.51,-550 1729.51,-544 1729.51,-538 1729.51,-538 1729.51,-526 1729.51,-526 1729.51,-520 1735.51,-514 1741.51,-514 1741.51,-514 1791.51,-514 1791.51,-514 1797.51,-514 1803.51,-520 1803.51,-526 1803.51,-526 1803.51,-538 1803.51,-538 1803.51,-544 1797.51,-550 1791.51,-550"/>
<text text-anchor="middle" x="1766.51" y="-528.3" font-family="Times New Roman,serif" font-size="14.00">BRANCH</text>
</g>
<!-- LEAF_nodeinsert6 -->
<g id="node40" class="node"><title>LEAF_nodeinsert6</title>
<path fill="lightgrey" stroke="black" d="M1781.51,-466C1781.51,-466 1751.51,-466 1751.51,-466 1745.51,-466 1739.51,-460 1739.51,-454 1739.51,-454 1739.51,-442 1739.51,-442 1739.51,-436 1745.51,-430 1751.51,-430 1751.51,-430 1781.51,-430 1781.51,-430 1787.51,-430 1793.51,-436 1793.51,-442 1793.51,-442 1793.51,-454 1793.51,-454 1793.51,-460 1787.51,-466 1781.51,-466"/>
<text text-anchor="middle" x="1766.51" y="-444.3" font-family="Times New Roman,serif" font-size="14.00">LEAF</text>
</g>
<!-- _bottom_nodeinsert6 -->
<g id="node41" class="node"><title>_bottom_nodeinsert6</title>
<polygon fill="lightgrey" stroke="black" points="2140.88,-476 2087.88,-476 2087.88,-480 2075.88,-480 2075.88,-440 2140.88,-440 2140.88,-476"/>
<polyline fill="none" stroke="black" points="2075.88,-476 2087.88,-476 "/>
<text text-anchor="middle" x="2108.38" y="-454.3" font-family="Times New Roman,serif" font-size="14.00">_bottom</text>
</g>
<!-- nodeinsert6_bnode1_none -->
<g id="node48" class="node"><title>nodeinsert6_bnode1_none</title>
</g>
<!-- _bottom_nodeinsert6&#45;&gt;nodeinsert6_bnode1_none -->
<g id="edge18" class="edge"><title>_bottom_nodeinsert6&#45;&gt;nodeinsert6_bnode1_none</title>
<path fill="none" stroke="black" d="M2151.01,-454.854C2238.54,-448.239 2440.37,-432.988 2523.02,-426.742"/>
<polygon fill="black" stroke="black" points="2150.72,-451.366 2141.02,-455.609 2151.25,-458.346 2150.72,-451.366"/>
<polygon fill="black" stroke="black" points="2523.47,-430.218 2533.18,-425.975 2522.94,-423.238 2523.47,-430.218"/>
</g>
<!-- _root_nodeinsert6 -->
<g id="node42" class="node"><title>_root_nodeinsert6</title>
<polygon fill="lightgrey" stroke="black" points="1793.51,-351 1751.51,-351 1751.51,-355 1739.51,-355 1739.51,-315 1793.51,-315 1793.51,-351"/>
<polyline fill="none" stroke="black" points="1739.51,-351 1751.51,-351 "/>
<text text-anchor="middle" x="1766.51" y="-329.3" font-family="Times New Roman,serif" font-size="14.00">_root</text>
</g>
<!-- nodeinsert6_root_bnode_none -->
<g id="node45" class="node"><title>nodeinsert6_root_bnode_none</title>
</g>
<!-- _root_nodeinsert6&#45;&gt;nodeinsert6_root_bnode_none -->
<g id="edge17" class="edge"><title>_root_nodeinsert6&#45;&gt;nodeinsert6_root_bnode_none</title>
<path fill="none" stroke="black" d="M1803.48,-325.602C1835.94,-319.035 1885.02,-309.365 1927.9,-302 1977.36,-293.503 2034.75,-285.127 2071.06,-280.011"/>
<polygon fill="black" stroke="black" points="1802.66,-322.197 1793.56,-327.619 1804.06,-329.057 1802.66,-322.197"/>
<polygon fill="black" stroke="black" points="2071.75,-283.449 2081.17,-278.595 2070.78,-276.517 2071.75,-283.449"/>
</g>
<!-- nodeinsert6_cont_root_bnode -->
<g id="node43" class="node"><title>nodeinsert6_cont_root_bnode</title>
<path fill="lightgrey" stroke="black" d="M2180.1,-401C2180.1,-401 2070.92,-401 2070.92,-401 2064.92,-401 2054.78,-396.654 2050.65,-392.307 2050.65,-392.307 2032.93,-373.693 2032.93,-373.693 2028.8,-369.346 2030.66,-365 2036.66,-365 2036.66,-365 2145.84,-365 2145.84,-365 2151.84,-365 2161.97,-369.346 2166.11,-373.693 2166.11,-373.693 2183.82,-392.307 2183.82,-392.307 2187.96,-396.654 2186.1,-401 2180.1,-401"/>
<text text-anchor="middle" x="2108.38" y="-379.3" font-family="Times New Roman,serif" font-size="14.00">contents=[3]</text>
</g>
<!-- nodeinsert6_child_root_bnode -->
<g id="node44" class="node"><title>nodeinsert6_child_root_bnode</title>
<path fill="lightgrey" stroke="black" d="M2268.84,-347C2268.84,-347 2018.49,-347 2018.49,-347 2012.49,-347 2001.15,-344.274 1995.8,-341.547 1995.8,-341.547 1946.6,-316.453 1946.6,-316.453 1941.26,-313.726 1941.91,-311 1947.91,-311 1947.91,-311 2198.27,-311 2198.27,-311 2204.27,-311 2215.61,-313.726 2220.96,-316.453 2220.96,-316.453 2270.15,-341.547 2270.15,-341.547 2275.5,-344.274 2274.84,-347 2268.84,-347"/>
<text text-anchor="middle" x="2108.38" y="-325.3" font-family="Times New Roman,serif" font-size="14.00">children=[_bnode1,_bnode2]</text>
</g>
<!-- nodeinsert6_child_root_bnode&#45;&gt;nodeinsert6_bnode1_none -->
<g id="edge19" class="edge"><title>nodeinsert6_child_root_bnode&#45;&gt;nodeinsert6_bnode1_none</title>
<path fill="none" stroke="black" d="M2231.07,-347.04C2250.41,-349.984 2270.19,-353.04 2288.86,-356 2315.56,-360.233 2328.12,-348.657 2348.86,-366 2359,-374.477 2348.65,-385.607 2358.86,-394 2405.31,-432.195 2479.08,-432.762 2522.99,-428.92"/>
<polygon fill="black" stroke="black" points="2523.61,-432.375 2533.21,-427.898 2522.91,-425.41 2523.61,-432.375"/>
<text text-anchor="middle" x="2323.86" y="-369.8" font-family="Times New Roman,serif" font-size="14.00">_bnode1</text>
</g>
<!-- nodeinsert6_bnode2_none -->
<g id="node51" class="node"><title>nodeinsert6_bnode2_none</title>
</g>
<!-- nodeinsert6_child_root_bnode&#45;&gt;nodeinsert6_bnode2_none -->
<g id="edge20" class="edge"><title>nodeinsert6_child_root_bnode&#45;&gt;nodeinsert6_bnode2_none</title>
<path fill="none" stroke="black" d="M2224.97,-318.423C2246.58,-314.545 2268.69,-309.244 2288.86,-302 2323.01,-289.734 2324.62,-272.002 2358.86,-260 2414.04,-240.659 2482.23,-235.055 2523.17,-233.501"/>
<polygon fill="black" stroke="black" points="2523.33,-236.998 2533.22,-233.181 2523.11,-230.001 2523.33,-236.998"/>
<text text-anchor="middle" x="2323.86" y="-301.8" font-family="Times New Roman,serif" font-size="14.00">_bnode2</text>
</g>
<!-- nodeinsert6_cont_bnode1 -->
<g id="node46" class="node"><title>nodeinsert6_cont_bnode1</title>
<path fill="lightgrey" stroke="black" d="M2641.58,-550C2641.58,-550 2517.2,-550 2517.2,-550 2511.2,-550 2500.84,-545.883 2496.47,-541.767 2496.47,-541.767 2475.76,-522.233 2475.76,-522.233 2471.4,-518.117 2473.03,-514 2479.03,-514 2479.03,-514 2603.41,-514 2603.41,-514 2609.41,-514 2619.78,-518.117 2624.14,-522.233 2624.14,-522.233 2644.85,-541.767 2644.85,-541.767 2649.22,-545.883 2647.58,-550 2641.58,-550"/>
<text text-anchor="middle" x="2560.31" y="-528.3" font-family="Times New Roman,serif" font-size="14.00">contents=[1,2]</text>
</g>
<!-- nodeinsert6_child_bnode1 -->
<g id="node47" class="node"><title>nodeinsert6_child_bnode1</title>
<path fill="lightgrey" stroke="black" d="M2587.31,-496C2587.31,-496 2533.31,-496 2533.31,-496 2527.31,-496 2521.31,-490 2521.31,-484 2521.31,-484 2521.31,-472 2521.31,-472 2521.31,-466 2527.31,-460 2533.31,-460 2533.31,-460 2587.31,-460 2587.31,-460 2593.31,-460 2599.31,-466 2599.31,-472 2599.31,-472 2599.31,-484 2599.31,-484 2599.31,-490 2593.31,-496 2587.31,-496"/>
<text text-anchor="middle" x="2560.31" y="-474.3" font-family="Times New Roman,serif" font-size="14.00">children=[]</text>
</g>
<!-- nodeinsert6_cont_bnode2 -->
<g id="node49" class="node"><title>nodeinsert6_cont_bnode2</title>
<path fill="lightgrey" stroke="black" d="M2741.7,-359C2741.7,-359 2458.05,-359 2458.05,-359 2452.05,-359 2440.59,-356.516 2435.13,-354.031 2435.13,-354.031 2377.84,-327.969 2377.84,-327.969 2372.38,-325.484 2372.91,-323 2378.91,-323 2378.91,-323 2662.56,-323 2662.56,-323 2668.56,-323 2680.02,-325.484 2685.48,-327.969 2685.48,-327.969 2742.78,-354.031 2742.78,-354.031 2748.24,-356.516 2747.7,-359 2741.7,-359"/>
<text text-anchor="middle" x="2560.31" y="-337.3" font-family="Times New Roman,serif" font-size="14.00">contents=[4,5].insert(6,2)=[4,5,6]</text>
</g>
<!-- nodeinsert6_child_bnode2 -->
<g id="node50" class="node"><title>nodeinsert6_child_bnode2</title>
<path fill="lightgrey" stroke="black" d="M2587.31,-305C2587.31,-305 2533.31,-305 2533.31,-305 2527.31,-305 2521.31,-299 2521.31,-293 2521.31,-293 2521.31,-281 2521.31,-281 2521.31,-275 2527.31,-269 2533.31,-269 2533.31,-269 2587.31,-269 2587.31,-269 2593.31,-269 2599.31,-275 2599.31,-281 2599.31,-281 2599.31,-293 2599.31,-293 2599.31,-299 2593.31,-305 2587.31,-305"/>
<text text-anchor="middle" x="2560.31" y="-283.3" font-family="Times New Roman,serif" font-size="14.00">children=[]</text>
</g>
<!-- order_nodeinsert6 -->
<g id="node52" class="node"><title>order_nodeinsert6</title>
<path fill="lightgrey" stroke="black" d="M1770.78,-261.061C1770.78,-261.061 1772.79,-261.136 1772.79,-261.136 1772.94,-261.142 1773.25,-261.157 1773.4,-261.165 1773.4,-261.165 1775.38,-261.278 1775.38,-261.278 1775.54,-261.287 1775.84,-261.307 1776,-261.319 1776,-261.319 1777.94,-261.468 1777.94,-261.468 1778.1,-261.48 1778.4,-261.506 1778.56,-261.521 1778.56,-261.521 1780.45,-261.706 1780.45,-261.706 1780.61,-261.72 1780.91,-261.753 1781.07,-261.772 1781.07,-261.772 1782.91,-261.99 1782.91,-261.99 1783.06,-262.008 1783.36,-262.048 1783.52,-262.07 1783.52,-262.07 1785.29,-262.321 1785.29,-262.321 1785.45,-262.343 1785.75,-262.39 1785.9,-262.415 1785.9,-262.415 1787.6,-262.697 1787.6,-262.697 1787.75,-262.723 1788.06,-262.777 1788.21,-262.806 1788.21,-262.806 1789.82,-263.118 1789.82,-263.118 1789.98,-263.147 1790.28,-263.209 1790.43,-263.242 1790.43,-263.242 1791.95,-263.581 1791.95,-263.581 1792.1,-263.614 1792.4,-263.685 1792.55,-263.723 1792.55,-263.723 1793.98,-264.085 1793.98,-264.085 1794.13,-264.123 1794.43,-264.203 1794.58,-264.246 1794.58,-264.246 1795.9,-264.629 1795.9,-264.629 1796.05,-264.672 1796.34,-264.763 1796.49,-264.811 1796.49,-264.811 1797.71,-265.212 1797.71,-265.212 1797.85,-265.26 1798.14,-265.362 1798.29,-265.416 1798.29,-265.416 1799.39,-265.831 1799.39,-265.831 1799.54,-265.885 1799.82,-265.999 1799.96,-266.06 1799.96,-266.06 1800.95,-266.484 1800.95,-266.484 1801.09,-266.545 1801.37,-266.673 1801.51,-266.741 1801.51,-266.741 1802.38,-267.17 1802.38,-267.17 1802.52,-267.238 1802.79,-267.382 1802.93,-267.458 1802.93,-267.458 1803.68,-267.887 1803.68,-267.887 1803.82,-267.963 1804.08,-268.123 1804.21,-268.208 1804.21,-268.208 1804.85,-268.632 1804.85,-268.632 1804.98,-268.716 1805.23,-268.896 1805.35,-268.99 1805.35,-268.99 1805.88,-269.403 1805.88,-269.403 1806,-269.497 1806.23,-269.697 1806.35,-269.802 1806.35,-269.802 1806.77,-270.198 1806.77,-270.198 1806.88,-270.303 1807.1,-270.524 1807.2,-270.64 1807.2,-270.64 1807.53,-271.017 1807.53,-271.017 1807.63,-271.132 1807.82,-271.375 1807.91,-271.501 1807.91,-271.501 1808.15,-271.856 1808.15,-271.856 1808.24,-271.983 1808.4,-272.246 1808.47,-272.383 1808.47,-272.383 1808.64,-272.716 1808.64,-272.716 1808.71,-272.853 1808.84,-273.134 1808.89,-273.28 1808.89,-273.28 1809,-273.596 1809,-273.596 1809.05,-273.741 1809.13,-274.037 1809.16,-274.188 1809.16,-274.188 1809.22,-274.495 1809.22,-274.495 1809.25,-274.646 1809.29,-274.95 1809.3,-275.104 1809.3,-275.104 1809.32,-275.411 1809.32,-275.411 1809.32,-275.565 1809.32,-275.872 1809.31,-276.025 1809.31,-276.025 1809.28,-276.343 1809.28,-276.343 1809.27,-276.496 1809.22,-276.8 1809.19,-276.95 1809.19,-276.95 1809.11,-277.287 1809.11,-277.287 1809.08,-277.437 1808.99,-277.733 1808.94,-277.878 1808.94,-277.878 1808.82,-278.238 1808.82,-278.238 1808.77,-278.383 1808.65,-278.668 1808.58,-278.807 1808.58,-278.807 1808.4,-279.193 1808.4,-279.193 1808.33,-279.332 1808.19,-279.604 1808.11,-279.736 1808.11,-279.736 1807.87,-280.148 1807.87,-280.148 1807.79,-280.28 1807.62,-280.538 1807.53,-280.664 1807.53,-280.664 1807.22,-281.099 1807.22,-281.099 1807.13,-281.225 1806.94,-281.469 1806.85,-281.588 1806.85,-281.588 1806.47,-282.044 1806.47,-282.044 1806.37,-282.163 1806.17,-282.394 1806.06,-282.506 1806.06,-282.506 1805.62,-282.979 1805.62,-282.979 1805.51,-283.091 1805.3,-283.31 1805.19,-283.416 1805.19,-283.416 1804.68,-283.902 1804.68,-283.902 1804.56,-284.008 1804.34,-284.214 1804.22,-284.315 1804.22,-284.315 1803.64,-284.81 1803.64,-284.81 1803.53,-284.91 1803.29,-285.106 1803.17,-285.201 1803.17,-285.201 1802.53,-285.7 1802.53,-285.7 1802.41,-285.796 1802.17,-285.981 1802.04,-286.071 1802.04,-286.071 1801.35,-286.572 1801.35,-286.572 1801.22,-286.662 1800.97,-286.837 1800.84,-286.923 1800.84,-286.923 1800.09,-287.421 1800.09,-287.421 1799.97,-287.506 1799.71,-287.673 1799.58,-287.753 1799.58,-287.753 1798.78,-288.247 1798.78,-288.247 1798.65,-288.327 1798.38,-288.485 1798.25,-288.561 1798.25,-288.561 1797.4,-289.046 1797.4,-289.046 1797.27,-289.122 1797,-289.271 1796.86,-289.344 1796.86,-289.344 1795.98,-289.817 1795.98,-289.817 1795.84,-289.889 1795.57,-290.03 1795.43,-290.098 1795.43,-290.098 1794.5,-290.557 1794.5,-290.557 1794.37,-290.626 1794.09,-290.759 1793.95,-290.823 1793.95,-290.823 1792.99,-291.266 1792.99,-291.266 1792.85,-291.33 1792.57,-291.455 1792.43,-291.516 1792.43,-291.516 1791.44,-291.94 1791.44,-291.94 1791.3,-292.001 1791.01,-292.118 1790.87,-292.175 1790.87,-292.175 1789.85,-292.578 1789.85,-292.578 1789.71,-292.635 1789.42,-292.745 1789.28,-292.798 1789.28,-292.798 1788.24,-293.179 1788.24,-293.179 1788.1,-293.232 1787.81,-293.334 1787.66,-293.384 1787.66,-293.384 1786.6,-293.741 1786.6,-293.741 1786.46,-293.79 1786.16,-293.885 1786.02,-293.93 1786.02,-293.93 1784.94,-294.262 1784.94,-294.262 1784.8,-294.307 1784.5,-294.394 1784.35,-294.436 1784.35,-294.436 1783.26,-294.741 1783.26,-294.741 1783.12,-294.783 1782.82,-294.862 1782.67,-294.899 1782.67,-294.899 1781.57,-295.177 1781.57,-295.177 1781.42,-295.214 1781.12,-295.286 1780.97,-295.319 1780.97,-295.319 1779.86,-295.568 1779.86,-295.568 1779.71,-295.602 1779.41,-295.665 1779.26,-295.695 1779.26,-295.695 1778.14,-295.914 1778.14,-295.914 1777.99,-295.944 1777.69,-295.999 1777.54,-296.024 1777.54,-296.024 1776.41,-296.214 1776.41,-296.214 1776.26,-296.239 1775.96,-296.286 1775.81,-296.307 1775.81,-296.307 1774.68,-296.466 1774.68,-296.466 1774.53,-296.487 1774.22,-296.526 1774.07,-296.543 1774.07,-296.543 1772.94,-296.67 1772.94,-296.67 1772.78,-296.687 1772.48,-296.718 1772.32,-296.731 1772.32,-296.731 1771.19,-296.826 1771.19,-296.826 1771.04,-296.839 1770.73,-296.861 1770.58,-296.869 1770.58,-296.869 1769.44,-296.933 1769.44,-296.933 1769.29,-296.942 1768.98,-296.955 1768.83,-296.959 1768.83,-296.959 1767.69,-296.991 1767.69,-296.991 1767.54,-296.996 1767.23,-297 1767.07,-297 1767.07,-297 1765.94,-297 1765.94,-297 1765.78,-297 1765.48,-296.996 1765.32,-296.991 1765.32,-296.991 1764.19,-296.959 1764.19,-296.959 1764.03,-296.955 1763.73,-296.942 1763.57,-296.933 1763.57,-296.933 1762.44,-296.869 1762.44,-296.869 1762.28,-296.861 1761.98,-296.839 1761.82,-296.826 1761.82,-296.826 1760.69,-296.731 1760.69,-296.731 1760.54,-296.718 1760.23,-296.687 1760.08,-296.67 1760.08,-296.67 1758.95,-296.543 1758.95,-296.543 1758.79,-296.526 1758.49,-296.487 1758.33,-296.466 1758.33,-296.466 1757.21,-296.307 1757.21,-296.307 1757.05,-296.286 1756.75,-296.239 1756.6,-296.214 1756.6,-296.214 1755.48,-296.024 1755.48,-296.024 1755.32,-295.999 1755.02,-295.944 1754.87,-295.914 1754.87,-295.914 1753.75,-295.695 1753.75,-295.695 1753.6,-295.665 1753.3,-295.602 1753.15,-295.568 1753.15,-295.568 1752.04,-295.319 1752.04,-295.319 1751.89,-295.286 1751.59,-295.214 1751.44,-295.177 1751.44,-295.177 1750.34,-294.899 1750.34,-294.899 1750.19,-294.862 1749.9,-294.783 1749.75,-294.741 1749.75,-294.741 1748.66,-294.436 1748.66,-294.436 1748.51,-294.394 1748.22,-294.307 1748.07,-294.262 1748.07,-294.262 1747,-293.93 1747,-293.93 1746.85,-293.885 1746.56,-293.79 1746.41,-293.741 1746.41,-293.741 1745.35,-293.384 1745.35,-293.384 1745.21,-293.334 1744.92,-293.232 1744.77,-293.179 1744.77,-293.179 1743.73,-292.798 1743.73,-292.798 1743.59,-292.745 1743.3,-292.635 1743.16,-292.578 1743.16,-292.578 1742.14,-292.175 1742.14,-292.175 1742,-292.118 1741.72,-292.001 1741.58,-291.94 1741.58,-291.94 1740.59,-291.516 1740.59,-291.516 1740.44,-291.455 1740.16,-291.33 1740.02,-291.266 1740.02,-291.266 1739.06,-290.823 1739.06,-290.823 1738.92,-290.759 1738.65,-290.626 1738.51,-290.557 1738.51,-290.557 1737.58,-290.098 1737.58,-290.098 1737.45,-290.03 1737.17,-289.889 1737.04,-289.817 1737.04,-289.817 1736.15,-289.344 1736.15,-289.344 1736.01,-289.271 1735.74,-289.122 1735.61,-289.046 1735.61,-289.046 1734.77,-288.561 1734.77,-288.561 1734.63,-288.485 1734.37,-288.327 1734.24,-288.247 1734.24,-288.247 1733.44,-287.753 1733.44,-287.753 1733.31,-287.673 1733.05,-287.506 1732.92,-287.421 1732.92,-287.421 1732.17,-286.923 1732.17,-286.923 1732.04,-286.837 1731.79,-286.662 1731.67,-286.572 1731.67,-286.572 1730.97,-286.071 1730.97,-286.071 1730.85,-285.981 1730.6,-285.796 1730.48,-285.7 1730.48,-285.7 1729.84,-285.201 1729.84,-285.201 1729.72,-285.106 1729.48,-284.91 1729.37,-284.81 1729.37,-284.81 1728.79,-284.315 1728.79,-284.315 1728.68,-284.214 1728.45,-284.008 1728.34,-283.902 1728.34,-283.902 1727.83,-283.416 1727.83,-283.416 1727.72,-283.31 1727.5,-283.091 1727.39,-282.979 1727.39,-282.979 1726.95,-282.506 1726.95,-282.506 1726.84,-282.394 1726.64,-282.163 1726.54,-282.044 1726.54,-282.044 1726.17,-281.588 1726.17,-281.588 1726.07,-281.469 1725.88,-281.225 1725.79,-281.099 1725.79,-281.099 1725.48,-280.664 1725.48,-280.664 1725.39,-280.538 1725.22,-280.28 1725.15,-280.148 1725.15,-280.148 1724.9,-279.736 1724.9,-279.736 1724.82,-279.604 1724.68,-279.332 1724.61,-279.193 1724.61,-279.193 1724.43,-278.807 1724.43,-278.807 1724.36,-278.668 1724.25,-278.383 1724.2,-278.238 1724.2,-278.238 1724.07,-277.878 1724.07,-277.878 1724.02,-277.733 1723.93,-277.437 1723.9,-277.287 1723.9,-277.287 1723.83,-276.95 1723.83,-276.95 1723.79,-276.8 1723.75,-276.496 1723.73,-276.343 1723.73,-276.343 1723.71,-276.025 1723.71,-276.025 1723.69,-275.872 1723.69,-275.565 1723.7,-275.411 1723.7,-275.411 1723.71,-275.104 1723.71,-275.104 1723.72,-274.95 1723.76,-274.646 1723.79,-274.495 1723.79,-274.495 1723.85,-274.188 1723.85,-274.188 1723.88,-274.037 1723.96,-273.741 1724.01,-273.596 1724.01,-273.596 1724.13,-273.28 1724.13,-273.28 1724.18,-273.134 1724.3,-272.853 1724.37,-272.716 1724.37,-272.716 1724.54,-272.383 1724.54,-272.383 1724.61,-272.246 1724.77,-271.983 1724.86,-271.856 1724.86,-271.856 1725.11,-271.501 1725.11,-271.501 1725.19,-271.375 1725.38,-271.132 1725.48,-271.017 1725.48,-271.017 1725.81,-270.64 1725.81,-270.64 1725.91,-270.524 1726.13,-270.303 1726.24,-270.198 1726.24,-270.198 1726.67,-269.802 1726.67,-269.802 1726.78,-269.697 1727.01,-269.497 1727.14,-269.403 1727.14,-269.403 1727.67,-268.99 1727.67,-268.99 1727.79,-268.896 1728.04,-268.716 1728.16,-268.632 1728.16,-268.632 1728.81,-268.208 1728.81,-268.208 1728.93,-268.123 1729.2,-267.963 1729.33,-267.887 1729.33,-267.887 1730.09,-267.458 1730.09,-267.458 1730.22,-267.382 1730.49,-267.238 1730.63,-267.17 1730.63,-267.17 1731.5,-266.741 1731.5,-266.741 1731.64,-266.673 1731.92,-266.545 1732.06,-266.484 1732.06,-266.484 1733.05,-266.06 1733.05,-266.06 1733.19,-265.999 1733.48,-265.885 1733.62,-265.831 1733.62,-265.831 1734.73,-265.416 1734.73,-265.416 1734.87,-265.362 1735.16,-265.26 1735.31,-265.212 1735.31,-265.212 1736.52,-264.811 1736.52,-264.811 1736.67,-264.763 1736.96,-264.672 1737.11,-264.629 1737.11,-264.629 1738.44,-264.246 1738.44,-264.246 1738.58,-264.203 1738.88,-264.123 1739.03,-264.085 1739.03,-264.085 1740.46,-263.723 1740.46,-263.723 1740.61,-263.685 1740.91,-263.614 1741.06,-263.581 1741.06,-263.581 1742.59,-263.242 1742.59,-263.242 1742.74,-263.209 1743.04,-263.147 1743.19,-263.118 1743.19,-263.118 1744.81,-262.806 1744.81,-262.806 1744.96,-262.777 1745.26,-262.723 1745.41,-262.697 1745.41,-262.697 1747.11,-262.415 1747.11,-262.415 1747.26,-262.39 1747.57,-262.343 1747.72,-262.321 1747.72,-262.321 1749.5,-262.07 1749.5,-262.07 1749.65,-262.048 1749.95,-262.008 1750.11,-261.99 1750.11,-261.99 1751.95,-261.772 1751.95,-261.772 1752.1,-261.753 1752.41,-261.72 1752.56,-261.706 1752.56,-261.706 1754.46,-261.521 1754.46,-261.521 1754.61,-261.506 1754.92,-261.48 1755.07,-261.468 1755.07,-261.468 1757.02,-261.319 1757.02,-261.319 1757.17,-261.307 1757.48,-261.287 1757.63,-261.278 1757.63,-261.278 1759.61,-261.165 1759.61,-261.165 1759.77,-261.157 1760.07,-261.142 1760.23,-261.136 1760.23,-261.136 1762.24,-261.061 1762.24,-261.061 1762.39,-261.055 1762.7,-261.046 1762.85,-261.044 1762.85,-261.044 1764.88,-261.006 1764.88,-261.006 1765.03,-261.003 1765.34,-261 1765.49,-261 1765.49,-261 1767.52,-261 1767.52,-261 1767.68,-261 1767.98,-261.003 1768.14,-261.006 1768.14,-261.006 1770.16,-261.044 1770.16,-261.044 1770.32,-261.046 1770.62,-261.055 1770.78,-261.061"/>
<text text-anchor="middle" x="1766.51" y="-275.3" font-family="Times New Roman,serif" font-size="14.00">order=4</text>
</g>
<!-- loop_7 -->
<g id="node54" class="node"><title>loop_7</title>
<ellipse fill="none" stroke="black" cx="2108.38" cy="-123" rx="34.3995" ry="34.3995"/>
<ellipse fill="none" stroke="black" cx="2108.38" cy="-123" rx="38.394" ry="38.394"/>
<text text-anchor="middle" x="2108.38" y="-119.3" font-family="Times New Roman,serif" font-size="14.00">7 loop</text>
</g>
<!-- tag__6&#45;&gt;loop_7 -->
<g id="edge25" class="edge"><title>tag__6&#45;&gt;loop_7</title>
<path fill="none" stroke="black" d="M1793.61,-217.166C1851.14,-199.901 1989.44,-158.394 2061.69,-136.713"/>
<polygon fill="black" stroke="black" points="2062.86,-140.016 2071.43,-133.789 2060.84,-133.312 2062.86,-140.016"/>
</g>
<!-- tag__7 -->
<g id="node57" class="node"><title>tag__7</title>
</g>
<!-- loop_7&#45;&gt;tag__7 -->
<g id="edge26" class="edge"><title>loop_7&#45;&gt;tag__7</title>
<path fill="none" stroke="black" d="M2145.46,-112.708C2193.73,-99.2456 2282.14,-75.6536 2358.86,-61 2415.85,-50.1143 2482.78,-42.0326 2523.07,-37.6703"/>
<polygon fill="black" stroke="black" points="2523.64,-41.13 2533.21,-36.5906 2522.9,-34.1693 2523.64,-41.13"/>
</g>
<!-- contents_bnode2end -->
<g id="node55" class="node"><title>contents_bnode2end</title>
<path fill="lightgrey" stroke="black" d="M2653.86,-160C2653.86,-160 2509.95,-160 2509.95,-160 2503.95,-160 2493.34,-156.159 2488.73,-152.317 2488.73,-152.317 2463.97,-131.683 2463.97,-131.683 2459.36,-127.841 2460.75,-124 2466.75,-124 2466.75,-124 2610.67,-124 2610.67,-124 2616.67,-124 2627.27,-127.841 2631.88,-131.683 2631.88,-131.683 2656.64,-152.317 2656.64,-152.317 2661.25,-156.159 2659.86,-160 2653.86,-160"/>
<text text-anchor="middle" x="2560.31" y="-138.3" font-family="Times New Roman,serif" font-size="14.00">contents[4,5,6,7]</text>
</g>
<!-- children_bnode2end -->
<g id="node56" class="node"><title>children_bnode2end</title>
<path fill="lightgrey" stroke="black" d="M2622.47,-106C2622.47,-106 2528.5,-106 2528.5,-106 2522.5,-106 2512.63,-101.413 2508.76,-96.8251 2508.76,-96.8251 2493.88,-79.1749 2493.88,-79.1749 2490.02,-74.5875 2492.15,-70 2498.15,-70 2498.15,-70 2592.12,-70 2592.12,-70 2598.12,-70 2607.99,-74.5875 2611.85,-79.1749 2611.85,-79.1749 2626.73,-96.8251 2626.73,-96.8251 2630.6,-101.413 2628.47,-106 2622.47,-106"/>
<text text-anchor="middle" x="2560.31" y="-84.3" font-family="Times New Roman,serif" font-size="14.00">children=[]</text>
</g>
</g>
</svg>
