<?xml version="1.0" encoding="UTF-8" standalone="no"?>
<!DOCTYPE svg PUBLIC "-//W3C//DTD SVG 1.1//EN"
 "http://www.w3.org/Graphics/SVG/1.1/DTD/svg11.dtd">
<!-- Generated by graphviz version 2.38.0 (20140413.2041)
 -->
<!-- Title: %3 Pages: 1 -->
<svg width="1346pt" height="913pt"
 viewBox="0.00 0.00 1345.69 913.00" xmlns="http://www.w3.org/2000/svg" xmlns:xlink="http://www.w3.org/1999/xlink">
<g id="graph0" class="graph" transform="scale(1 1) rotate(0) translate(4 909)">
<title>%3</title>
<polygon fill="white" stroke="none" points="-4,4 -4,-909 1341.69,-909 1341.69,4 -4,4"/>
<g id="clust6" class="cluster"><title>cluster_btree_step1end</title>
<polygon fill="none" stroke="#ea4f16" points="757.942,-8 757.942,-299 1329.69,-299 1329.69,-8 757.942,-8"/>
<text text-anchor="middle" x="1043.82" y="-283.8" font-family="Times New Roman,serif" font-size="14.00">simple 4 num</text>
</g>
<g id="clust7" class="cluster"><title>cluster_t_n_end</title>
<polygon fill="none" stroke="black" points="1078.89,-82 1078.89,-265 1321.69,-265 1321.69,-82 1078.89,-82"/>
<text text-anchor="middle" x="1200.29" y="-249.8" font-family="Times New Roman,serif" font-size="14.00">_Bnode</text>
</g>
<g id="clust1" class="cluster"><title>cluster_btree_</title>
<polygon fill="none" stroke="#ea4f16" points="8,-606 8,-843 98,-843 98,-606 8,-606"/>
<text text-anchor="middle" x="53" y="-827.8" font-family="Times New Roman,serif" font-size="14.00">BTree </text>
</g>
<g id="clust2" class="cluster"><title>cluster_btree_node</title>
<polygon fill="none" stroke="#ea4f16" points="118,-606 118,-843 255.976,-843 255.976,-606 118,-606"/>
<text text-anchor="middle" x="186.988" y="-827.8" font-family="Times New Roman,serif" font-size="14.00">NODE attr</text>
</g>
<g id="clust3" class="cluster"><title>cluster_btree_init</title>
<polygon fill="none" stroke="#ea4f16" points="275.976,-606 275.976,-897 489.216,-897 489.216,-606 275.976,-606"/>
<text text-anchor="middle" x="382.596" y="-881.8" font-family="Times New Roman,serif" font-size="14.00">run init(4)</text>
</g>
<g id="clust4" class="cluster"><title>cluster_btree_in1</title>
<polygon fill="none" stroke="#ea4f16" points="397.803,-307 397.803,-598 965.89,-598 965.89,-307 397.803,-307"/>
<text text-anchor="middle" x="681.846" y="-582.8" font-family="Times New Roman,serif" font-size="14.00">inert(1)</text>
</g>
<g id="clust5" class="cluster"><title>cluster_t_n_1</title>
<polygon fill="none" stroke="black" points="659.82,-381 659.82,-564 957.89,-564 957.89,-381 659.82,-381"/>
<text text-anchor="middle" x="808.855" y="-548.8" font-family="Times New Roman,serif" font-size="14.00">insert(1)</text>
</g>
<!-- BRANCH_ -->
<g id="node1" class="node"><title>BRANCH_</title>
<path fill="lightgrey" stroke="black" d="M78,-812C78,-812 28,-812 28,-812 22,-812 16,-806 16,-800 16,-800 16,-788 16,-788 16,-782 22,-776 28,-776 28,-776 78,-776 78,-776 84,-776 90,-782 90,-788 90,-788 90,-800 90,-800 90,-806 84,-812 78,-812"/>
<text text-anchor="middle" x="53" y="-790.3" font-family="Times New Roman,serif" font-size="14.00">BRANCH</text>
</g>
<!-- LEAF_ -->
<g id="node2" class="node"><title>LEAF_</title>
<path fill="lightgrey" stroke="black" d="M68,-758C68,-758 38,-758 38,-758 32,-758 26,-752 26,-746 26,-746 26,-734 26,-734 26,-728 32,-722 38,-722 38,-722 68,-722 68,-722 74,-722 80,-728 80,-734 80,-734 80,-746 80,-746 80,-752 74,-758 68,-758"/>
<text text-anchor="middle" x="53" y="-736.3" font-family="Times New Roman,serif" font-size="14.00">LEAF</text>
</g>
<!-- order_ -->
<g id="node3" class="node"><title>order_</title>
<path fill="lightgrey" stroke="black" d="M56.3198,-668.064C56.3198,-668.064 57.7015,-668.133 57.7015,-668.133 57.8548,-668.14 58.1612,-668.159 58.3143,-668.171 58.3143,-668.171 59.6763,-668.272 59.6763,-668.272 59.8294,-668.284 60.1352,-668.311 60.2879,-668.326 60.2879,-668.326 61.6226,-668.461 61.6226,-668.461 61.7754,-668.476 62.0804,-668.511 62.2326,-668.53 62.2326,-668.53 63.5326,-668.696 63.5326,-668.696 63.6849,-668.716 63.9888,-668.759 64.1405,-668.783 64.1405,-668.783 65.3987,-668.979 65.3987,-668.979 65.5503,-669.003 65.8529,-669.055 66.0038,-669.083 66.0038,-669.083 67.2134,-669.308 67.2134,-669.308 67.3644,-669.336 67.6652,-669.397 67.8152,-669.43 67.8152,-669.43 68.9699,-669.682 68.9699,-669.682 69.1199,-669.715 69.4187,-669.786 69.5675,-669.823 69.5675,-669.823 70.6616,-670.1 70.6616,-670.1 70.8104,-670.138 71.1065,-670.219 71.2539,-670.262 71.2539,-670.262 72.2821,-670.561 72.2821,-670.561 72.4295,-670.604 72.7225,-670.696 72.8681,-670.744 72.8681,-670.744 73.8259,-671.064 73.8259,-671.064 73.9715,-671.112 74.2607,-671.215 74.4042,-671.27 74.4042,-671.27 75.2877,-671.606 75.2877,-671.606 75.4312,-671.66 75.7156,-671.776 75.8564,-671.837 75.8564,-671.837 76.6629,-672.186 76.6629,-672.186 76.8037,-672.247 77.0823,-672.376 77.2199,-672.444 77.2199,-672.444 77.9472,-672.803 77.9472,-672.803 78.0849,-672.871 78.3562,-673.014 78.49,-673.09 78.49,-673.09 79.1373,-673.455 79.1373,-673.455 79.271,-673.53 79.5336,-673.689 79.6625,-673.772 79.6625,-673.772 80.2301,-674.139 80.2301,-674.139 80.359,-674.223 80.6109,-674.398 80.7339,-674.49 80.7339,-674.49 81.2234,-674.855 81.2234,-674.855 81.3464,-674.947 81.5853,-675.139 81.7011,-675.24 81.7011,-675.24 82.1154,-675.6 82.1154,-675.6 82.2312,-675.701 82.4544,-675.911 82.5617,-676.021 82.5617,-676.021 82.9049,-676.372 82.9049,-676.372 83.0122,-676.482 83.2165,-676.711 83.3136,-676.83 83.3136,-676.83 83.5915,-677.17 83.5915,-677.17 83.6885,-677.289 83.8707,-677.536 83.9557,-677.664 83.9557,-677.664 84.1747,-677.993 84.1747,-677.993 84.2598,-678.12 84.4163,-678.384 84.4878,-678.52 84.4878,-678.52 84.6548,-678.838 84.6548,-678.838 84.7262,-678.973 84.8539,-679.252 84.9101,-679.395 84.9101,-679.395 85.0318,-679.704 85.0318,-679.704 85.088,-679.847 85.1843,-680.138 85.2242,-680.286 85.2242,-680.286 85.3062,-680.59 85.3062,-680.59 85.3461,-680.738 85.4092,-681.038 85.4323,-681.189 85.4323,-681.189 85.4785,-681.493 85.4785,-681.493 85.5015,-681.645 85.5308,-681.95 85.537,-682.103 85.537,-682.103 85.5495,-682.412 85.5495,-682.412 85.5557,-682.565 85.5518,-682.872 85.5417,-683.025 85.5417,-683.025 85.5206,-683.343 85.5206,-683.343 85.5105,-683.497 85.4749,-683.801 85.4495,-683.952 85.4495,-683.952 85.3937,-684.284 85.3937,-684.284 85.3683,-684.436 85.3034,-684.736 85.2639,-684.884 85.2639,-684.884 85.1714,-685.232 85.1714,-685.232 85.132,-685.38 85.0405,-685.673 84.9884,-685.817 84.9884,-685.817 84.8569,-686.183 84.8569,-686.183 84.8049,-686.327 84.6896,-686.611 84.6264,-686.751 84.6264,-686.751 84.4539,-687.133 84.4539,-687.133 84.3907,-687.273 84.2545,-687.548 84.1814,-687.683 84.1814,-687.683 83.9665,-688.08 83.9665,-688.08 83.8935,-688.215 83.7388,-688.48 83.6572,-688.61 83.6572,-688.61 83.3991,-689.021 83.3991,-689.021 83.3175,-689.151 83.1467,-689.406 83.0575,-689.531 83.0575,-689.531 82.7562,-689.954 82.7562,-689.954 82.6671,-690.078 82.4822,-690.323 82.3864,-690.443 82.3864,-690.443 82.0426,-690.874 82.0426,-690.874 81.9468,-690.994 81.7494,-691.229 81.6479,-691.344 81.6479,-691.344 81.2628,-691.78 81.2628,-691.78 81.1612,-691.896 80.9528,-692.121 80.8461,-692.231 80.8461,-692.231 80.4215,-692.67 80.4215,-692.67 80.3148,-692.78 80.0967,-692.996 79.9853,-693.102 79.9853,-693.102 79.5234,-693.54 79.5234,-693.54 79.412,-693.646 79.1852,-693.853 79.0698,-693.954 79.0698,-693.954 78.573,-694.389 78.573,-694.389 78.4575,-694.491 78.2228,-694.689 78.1037,-694.785 78.1037,-694.785 77.5746,-695.215 77.5746,-695.215 77.4554,-695.311 77.2137,-695.501 77.0911,-695.593 77.0911,-695.593 76.5327,-696.014 76.5327,-696.014 76.4101,-696.106 76.1618,-696.287 76.0362,-696.375 76.0362,-696.375 75.4513,-696.785 75.4513,-696.785 75.3256,-696.873 75.0713,-697.045 74.9428,-697.129 74.9428,-697.129 74.3342,-697.526 74.3342,-697.526 74.2057,-697.61 73.9459,-697.774 73.8147,-697.853 73.8147,-697.853 73.1854,-698.235 73.1854,-698.235 73.0542,-698.315 72.7892,-698.47 72.6555,-698.545 72.6555,-698.545 72.0082,-698.91 72.0082,-698.91 71.8745,-698.986 71.6047,-699.132 71.4687,-699.203 71.4687,-699.203 70.8059,-699.55 70.8059,-699.55 70.6699,-699.621 70.3956,-699.759 70.2574,-699.825 70.2574,-699.825 69.5817,-700.152 69.5817,-700.152 69.4434,-700.219 69.1649,-700.348 69.0246,-700.41 69.0246,-700.41 68.3382,-700.715 68.3382,-700.715 68.1979,-700.777 67.9154,-700.897 67.7732,-700.955 67.7732,-700.955 67.0781,-701.237 67.0781,-701.237 66.9359,-701.295 66.6496,-701.406 66.5056,-701.459 66.5056,-701.459 65.8037,-701.718 65.8037,-701.718 65.6597,-701.771 65.3699,-701.872 65.2242,-701.921 65.2242,-701.921 64.5171,-702.155 64.5171,-702.155 64.3714,-702.204 64.0784,-702.296 63.9312,-702.339 63.9312,-702.339 63.2201,-702.549 63.2201,-702.549 63.0729,-702.592 62.777,-702.674 62.6284,-702.712 62.6284,-702.712 61.9146,-702.897 61.9146,-702.897 61.7659,-702.935 61.4674,-703.007 61.3175,-703.04 61.3175,-703.04 60.6018,-703.198 60.6018,-703.198 60.452,-703.231 60.1511,-703.293 60.0002,-703.32 60.0002,-703.32 59.2833,-703.453 59.2833,-703.453 59.1324,-703.481 58.8295,-703.531 58.6777,-703.554 58.6777,-703.554 57.9601,-703.66 57.9601,-703.66 57.8083,-703.682 57.5038,-703.722 57.3513,-703.739 57.3513,-703.739 56.6334,-703.818 56.6334,-703.818 56.4808,-703.835 56.1751,-703.863 56.022,-703.875 56.022,-703.875 55.304,-703.928 55.304,-703.928 55.1509,-703.939 54.8444,-703.956 54.691,-703.962 54.691,-703.962 53.9729,-703.989 53.9729,-703.989 53.8195,-703.994 53.5126,-704 53.3591,-704 53.3591,-704 52.6409,-704 52.6409,-704 52.4874,-704 52.1805,-703.994 52.0271,-703.989 52.0271,-703.989 51.309,-703.962 51.309,-703.962 51.1556,-703.956 50.8491,-703.939 50.696,-703.928 50.696,-703.928 49.978,-703.875 49.978,-703.875 49.8249,-703.863 49.5192,-703.835 49.3666,-703.818 49.3666,-703.818 48.6487,-703.739 48.6487,-703.739 48.4962,-703.722 48.1917,-703.682 48.0399,-703.66 48.0399,-703.66 47.3223,-703.554 47.3223,-703.554 47.1705,-703.531 46.8676,-703.481 46.7167,-703.453 46.7167,-703.453 45.9998,-703.32 45.9998,-703.32 45.8489,-703.293 45.548,-703.231 45.3982,-703.198 45.3982,-703.198 44.6825,-703.04 44.6825,-703.04 44.5326,-703.007 44.2341,-702.935 44.0854,-702.897 44.0854,-702.897 43.3716,-702.712 43.3716,-702.712 43.223,-702.674 42.9271,-702.592 42.7799,-702.549 42.7799,-702.549 42.0688,-702.339 42.0688,-702.339 41.9216,-702.296 41.6286,-702.204 41.4829,-702.155 41.4829,-702.155 40.7758,-701.921 40.7758,-701.921 40.6301,-701.872 40.3403,-701.771 40.1963,-701.718 40.1963,-701.718 39.4944,-701.459 39.4944,-701.459 39.3504,-701.406 39.0641,-701.295 38.9219,-701.237 38.9219,-701.237 38.2268,-700.955 38.2268,-700.955 38.0846,-700.897 37.8021,-700.777 37.6618,-700.715 37.6618,-700.715 36.9754,-700.41 36.9754,-700.41 36.8351,-700.348 36.5566,-700.219 36.4183,-700.152 36.4183,-700.152 35.7426,-699.825 35.7426,-699.825 35.6044,-699.759 35.3301,-699.621 35.1941,-699.55 35.1941,-699.55 34.5313,-699.203 34.5313,-699.203 34.3953,-699.132 34.1255,-698.986 33.9918,-698.91 33.9918,-698.91 33.3445,-698.545 33.3445,-698.545 33.2108,-698.47 32.9458,-698.315 32.8146,-698.235 32.8146,-698.235 32.1853,-697.853 32.1853,-697.853 32.0541,-697.774 31.7943,-697.61 31.6658,-697.526 31.6658,-697.526 31.0572,-697.129 31.0572,-697.129 30.9287,-697.045 30.6744,-696.873 30.5487,-696.785 30.5487,-696.785 29.9638,-696.375 29.9638,-696.375 29.8382,-696.287 29.5899,-696.106 29.4673,-696.014 29.4673,-696.014 28.9089,-695.593 28.9089,-695.593 28.7863,-695.501 28.5446,-695.311 28.4254,-695.215 28.4254,-695.215 27.8963,-694.785 27.8963,-694.785 27.7772,-694.689 27.5425,-694.491 27.427,-694.389 27.427,-694.389 26.9302,-693.954 26.9302,-693.954 26.8148,-693.853 26.588,-693.646 26.4766,-693.54 26.4766,-693.54 26.0147,-693.102 26.0147,-693.102 25.9033,-692.996 25.6852,-692.78 25.5785,-692.67 25.5785,-692.67 25.1539,-692.231 25.1539,-692.231 25.0472,-692.121 24.8388,-691.896 24.7372,-691.78 24.7372,-691.78 24.3521,-691.344 24.3521,-691.344 24.2506,-691.229 24.0532,-690.994 23.9574,-690.874 23.9574,-690.874 23.6136,-690.443 23.6136,-690.443 23.5178,-690.323 23.3329,-690.078 23.2438,-689.954 23.2438,-689.954 22.9425,-689.531 22.9425,-689.531 22.8533,-689.406 22.6825,-689.151 22.6009,-689.021 22.6009,-689.021 22.3428,-688.61 22.3428,-688.61 22.2612,-688.48 22.1065,-688.215 22.0335,-688.08 22.0335,-688.08 21.8186,-687.683 21.8186,-687.683 21.7455,-687.548 21.6093,-687.273 21.5461,-687.133 21.5461,-687.133 21.3736,-686.751 21.3736,-686.751 21.3104,-686.611 21.1951,-686.327 21.1431,-686.183 21.1431,-686.183 21.0116,-685.817 21.0116,-685.817 20.9595,-685.673 20.868,-685.38 20.8286,-685.232 20.8286,-685.232 20.7361,-684.884 20.7361,-684.884 20.6966,-684.736 20.6317,-684.436 20.6063,-684.284 20.6063,-684.284 20.5505,-683.952 20.5505,-683.952 20.5251,-683.801 20.4895,-683.497 20.4794,-683.343 20.4794,-683.343 20.4583,-683.025 20.4583,-683.025 20.4482,-682.872 20.4443,-682.565 20.4505,-682.412 20.4505,-682.412 20.463,-682.103 20.463,-682.103 20.4692,-681.95 20.4985,-681.645 20.5215,-681.493 20.5215,-681.493 20.5677,-681.189 20.5677,-681.189 20.5908,-681.038 20.6539,-680.738 20.6938,-680.59 20.6938,-680.59 20.7758,-680.286 20.7758,-680.286 20.8157,-680.138 20.912,-679.847 20.9682,-679.704 20.9682,-679.704 21.0899,-679.395 21.0899,-679.395 21.1461,-679.252 21.2738,-678.973 21.3452,-678.838 21.3452,-678.838 21.5122,-678.52 21.5122,-678.52 21.5837,-678.384 21.7402,-678.12 21.8253,-677.993 21.8253,-677.993 22.0443,-677.664 22.0443,-677.664 22.1293,-677.536 22.3115,-677.289 22.4085,-677.17 22.4085,-677.17 22.6864,-676.83 22.6864,-676.83 22.7835,-676.711 22.9878,-676.482 23.0951,-676.372 23.0951,-676.372 23.4383,-676.021 23.4383,-676.021 23.5456,-675.911 23.7688,-675.701 23.8846,-675.6 23.8846,-675.6 24.2989,-675.24 24.2989,-675.24 24.4147,-675.139 24.6536,-674.947 24.7766,-674.855 24.7766,-674.855 25.2661,-674.49 25.2661,-674.49 25.3891,-674.398 25.641,-674.223 25.7699,-674.139 25.7699,-674.139 26.3375,-673.772 26.3375,-673.772 26.4664,-673.689 26.729,-673.53 26.8627,-673.455 26.8627,-673.455 27.51,-673.09 27.51,-673.09 27.6438,-673.014 27.9151,-672.871 28.0528,-672.803 28.0528,-672.803 28.7801,-672.444 28.7801,-672.444 28.9177,-672.376 29.1963,-672.247 29.3371,-672.186 29.3371,-672.186 30.1436,-671.837 30.1436,-671.837 30.2844,-671.776 30.5688,-671.66 30.7123,-671.606 30.7123,-671.606 31.5958,-671.27 31.5958,-671.27 31.7393,-671.215 32.0285,-671.112 32.1741,-671.064 32.1741,-671.064 33.1319,-670.744 33.1319,-670.744 33.2775,-670.696 33.5705,-670.604 33.7179,-670.561 33.7179,-670.561 34.7461,-670.262 34.7461,-670.262 34.8935,-670.219 35.1896,-670.138 35.3384,-670.1 35.3384,-670.1 36.4325,-669.823 36.4325,-669.823 36.5813,-669.786 36.8801,-669.715 37.0301,-669.682 37.0301,-669.682 38.1848,-669.43 38.1848,-669.43 38.3348,-669.397 38.6356,-669.336 38.7866,-669.308 38.7866,-669.308 39.9962,-669.083 39.9962,-669.083 40.1471,-669.055 40.4497,-669.003 40.6013,-668.979 40.6013,-668.979 41.8595,-668.783 41.8595,-668.783 42.0112,-668.759 42.3151,-668.716 42.4674,-668.696 42.4674,-668.696 43.7674,-668.53 43.7674,-668.53 43.9196,-668.511 44.2246,-668.476 44.3774,-668.461 44.3774,-668.461 45.7121,-668.326 45.7121,-668.326 45.8648,-668.311 46.1706,-668.284 46.3237,-668.272 46.3237,-668.272 47.6857,-668.171 47.6857,-668.171 47.8388,-668.159 48.1452,-668.14 48.2985,-668.133 48.2985,-668.133 49.6802,-668.064 49.6802,-668.064 49.8335,-668.057 50.1403,-668.046 50.2938,-668.042 50.2938,-668.042 51.6873,-668.008 51.6873,-668.008 51.8408,-668.004 52.1477,-668 52.3012,-668 52.3012,-668 53.6988,-668 53.6988,-668 53.8523,-668 54.1592,-668.004 54.3127,-668.008 54.3127,-668.008 55.7062,-668.042 55.7062,-668.042 55.8597,-668.046 56.1665,-668.057 56.3198,-668.064"/>
<text text-anchor="middle" x="53" y="-682.3" font-family="Times New Roman,serif" font-size="14.00">order</text>
</g>
<!-- tag__2 -->
<g id="node4" class="node"><title>tag__2</title>
</g>
<!-- tag__3 -->
<g id="node8" class="node"><title>tag__3</title>
</g>
<!-- tag__2&#45;&gt;tag__3 -->
<g id="edge11" class="edge"><title>tag__2&#45;&gt;tag__3</title>
<path fill="none" stroke="black" d="M80.0766,-632C100.052,-632 127.844,-632 149.946,-632"/>
<polygon fill="black" stroke="black" points="149.966,-635.5 159.966,-632 149.966,-628.5 149.966,-635.5"/>
</g>
<!-- tree -->
<g id="node5" class="node"><title>tree</title>
<polygon fill="lightgrey" stroke="black" points="213.988,-812 159.988,-812 159.988,-808 155.988,-808 155.988,-804 159.988,-804 159.988,-784 155.988,-784 155.988,-780 159.988,-780 159.988,-776 213.988,-776 213.988,-812"/>
<polyline fill="none" stroke="black" points="159.988,-808 163.988,-808 163.988,-804 159.988,-804 "/>
<polyline fill="none" stroke="black" points="159.988,-784 163.988,-784 163.988,-780 159.988,-780 "/>
<text text-anchor="middle" x="186.988" y="-790.3" font-family="Times New Roman,serif" font-size="14.00">tree</text>
</g>
<!-- contents -->
<g id="node6" class="node"><title>contents</title>
<path fill="lightgrey" stroke="black" d="M235.964,-758C235.964,-758 162.965,-758 162.965,-758 156.965,-758 147.547,-753.069 144.129,-748.138 144.129,-748.138 132.848,-731.862 132.848,-731.862 129.43,-726.931 132.012,-722 138.012,-722 138.012,-722 211.011,-722 211.011,-722 217.011,-722 226.429,-726.931 229.847,-731.862 229.847,-731.862 241.128,-748.138 241.128,-748.138 244.546,-753.069 241.964,-758 235.964,-758"/>
<text text-anchor="middle" x="186.988" y="-736.3" font-family="Times New Roman,serif" font-size="14.00">contents</text>
</g>
<!-- children -->
<g id="node7" class="node"><title>children</title>
<path fill="lightgrey" stroke="black" d="M233.247,-704C233.247,-704 164.57,-704 164.57,-704 158.57,-704 149.257,-698.998 145.944,-693.995 145.944,-693.995 135.355,-678.005 135.355,-678.005 132.042,-673.002 134.729,-668 140.729,-668 140.729,-668 209.406,-668 209.406,-668 215.406,-668 224.719,-673.002 228.032,-678.005 228.032,-678.005 238.621,-693.995 238.621,-693.995 241.934,-698.998 239.247,-704 233.247,-704"/>
<text text-anchor="middle" x="186.988" y="-682.3" font-family="Times New Roman,serif" font-size="14.00">children</text>
</g>
<!-- tag__4 -->
<g id="node14" class="node"><title>tag__4</title>
</g>
<!-- tag__3&#45;&gt;tag__4 -->
<g id="edge12" class="edge"><title>tag__3&#45;&gt;tag__4</title>
<path fill="none" stroke="black" d="M214.251,-632C235.626,-632 266.024,-632 289.704,-632"/>
<polygon fill="black" stroke="black" points="289.724,-635.5 299.724,-632 289.724,-628.5 289.724,-635.5"/>
</g>
<!-- BRANCH_init -->
<g id="node9" class="node"><title>BRANCH_init</title>
<path fill="lightgrey" stroke="black" d="M351.889,-866C351.889,-866 301.889,-866 301.889,-866 295.889,-866 289.889,-860 289.889,-854 289.889,-854 289.889,-842 289.889,-842 289.889,-836 295.889,-830 301.889,-830 301.889,-830 351.889,-830 351.889,-830 357.889,-830 363.889,-836 363.889,-842 363.889,-842 363.889,-854 363.889,-854 363.889,-860 357.889,-866 351.889,-866"/>
<text text-anchor="middle" x="326.889" y="-844.3" font-family="Times New Roman,serif" font-size="14.00">BRANCH</text>
</g>
<!-- LEAF_init -->
<g id="node10" class="node"><title>LEAF_init</title>
<path fill="lightgrey" stroke="black" d="M341.889,-812C341.889,-812 311.889,-812 311.889,-812 305.889,-812 299.889,-806 299.889,-800 299.889,-800 299.889,-788 299.889,-788 299.889,-782 305.889,-776 311.889,-776 311.889,-776 341.889,-776 341.889,-776 347.889,-776 353.889,-782 353.889,-788 353.889,-788 353.889,-800 353.889,-800 353.889,-806 347.889,-812 341.889,-812"/>
<text text-anchor="middle" x="326.889" y="-790.3" font-family="Times New Roman,serif" font-size="14.00">LEAF</text>
</g>
<!-- _root_init -->
<g id="node11" class="node"><title>_root_init</title>
<polygon fill="lightgrey" stroke="black" points="353.889,-758 311.889,-758 311.889,-762 299.889,-762 299.889,-722 353.889,-722 353.889,-758"/>
<polyline fill="none" stroke="black" points="299.889,-758 311.889,-758 "/>
<text text-anchor="middle" x="326.889" y="-736.3" font-family="Times New Roman,serif" font-size="14.00">_root</text>
</g>
<!-- _bottom_init -->
<g id="node12" class="node"><title>_bottom_init</title>
<polygon fill="lightgrey" stroke="black" points="481.216,-758 428.216,-758 428.216,-762 416.216,-762 416.216,-722 481.216,-722 481.216,-758"/>
<polyline fill="none" stroke="black" points="416.216,-758 428.216,-758 "/>
<text text-anchor="middle" x="448.716" y="-736.3" font-family="Times New Roman,serif" font-size="14.00">_bottom</text>
</g>
<!-- _root_init&#45;&gt;_bottom_init -->
<g id="edge1" class="edge"><title>_root_init&#45;&gt;_bottom_init</title>
<path fill="none" stroke="black" d="M364.221,-733.738C377.321,-733.168 392.21,-733.097 405.751,-733.527"/>
<polygon fill="black" stroke="black" points="363.677,-730.263 353.89,-734.322 364.071,-737.252 363.677,-730.263"/>
<polygon fill="black" stroke="black" points="405.652,-737.026 415.791,-733.953 405.949,-730.032 405.652,-737.026"/>
</g>
<!-- _root_init&#45;&gt;_bottom_init -->
<g id="edge2" class="edge"><title>_root_init&#45;&gt;_bottom_init</title>
<path fill="none" stroke="black" d="M364.221,-746.262C377.321,-746.832 392.21,-746.903 405.751,-746.473"/>
<polygon fill="black" stroke="black" points="364.071,-742.748 353.89,-745.678 363.677,-749.737 364.071,-742.748"/>
<polygon fill="black" stroke="black" points="405.949,-749.968 415.791,-746.047 405.652,-742.974 405.949,-749.968"/>
</g>
<!-- order_init -->
<g id="node13" class="node"><title>order_init</title>
<path fill="lightgrey" stroke="black" d="M331.16,-668.061C331.16,-668.061 333.169,-668.136 333.169,-668.136 333.322,-668.142 333.63,-668.157 333.784,-668.165 333.784,-668.165 335.766,-668.278 335.766,-668.278 335.919,-668.287 336.226,-668.307 336.38,-668.319 336.38,-668.319 338.325,-668.468 338.325,-668.468 338.478,-668.48 338.785,-668.506 338.938,-668.521 338.938,-668.521 340.836,-668.706 340.836,-668.706 340.99,-668.72 341.296,-668.753 341.448,-668.772 341.448,-668.772 343.29,-668.99 343.29,-668.99 343.443,-669.008 343.748,-669.048 343.9,-669.07 343.9,-669.07 345.676,-669.321 345.676,-669.321 345.828,-669.343 346.132,-669.39 346.284,-669.415 346.284,-669.415 347.984,-669.697 347.984,-669.697 348.136,-669.723 348.439,-669.777 348.59,-669.806 348.59,-669.806 350.208,-670.118 350.208,-670.118 350.359,-670.147 350.66,-670.209 350.81,-670.242 350.81,-670.242 352.337,-670.581 352.337,-670.581 352.487,-670.614 352.787,-670.685 352.936,-670.723 352.936,-670.723 354.365,-671.085 354.365,-671.085 354.514,-671.123 354.811,-671.203 354.959,-671.246 354.959,-671.246 356.285,-671.629 356.285,-671.629 356.433,-671.672 356.727,-671.763 356.873,-671.811 356.873,-671.811 358.09,-672.212 358.09,-672.212 358.236,-672.26 358.526,-672.362 358.67,-672.416 358.67,-672.416 359.775,-672.831 359.775,-672.831 359.919,-672.885 360.204,-672.999 360.346,-673.06 360.346,-673.06 361.335,-673.484 361.335,-673.484 361.476,-673.545 361.756,-673.673 361.894,-673.741 361.894,-673.741 362.766,-674.17 362.766,-674.17 362.904,-674.238 363.176,-674.382 363.31,-674.458 363.31,-674.458 364.066,-674.887 364.066,-674.887 364.199,-674.963 364.462,-675.123 364.59,-675.208 364.59,-675.208 365.231,-675.632 365.231,-675.632 365.359,-675.716 365.609,-675.896 365.731,-675.99 365.731,-675.99 366.261,-676.403 366.261,-676.403 366.382,-676.497 366.616,-676.697 366.729,-676.802 366.729,-676.802 367.154,-677.198 367.154,-677.198 367.267,-677.303 367.481,-677.524 367.582,-677.64 367.582,-677.64 367.912,-678.017 367.912,-678.017 368.014,-678.132 368.203,-678.375 368.29,-678.501 368.29,-678.501 368.536,-678.856 368.536,-678.856 368.623,-678.983 368.781,-679.246 368.852,-679.383 368.852,-679.383 369.025,-679.716 369.025,-679.716 369.096,-679.853 369.218,-680.134 369.269,-680.28 369.269,-680.28 369.382,-680.596 369.382,-680.596 369.433,-680.741 369.515,-681.037 369.545,-681.188 369.545,-681.188 369.606,-681.495 369.606,-681.495 369.637,-681.646 369.675,-681.95 369.683,-682.104 369.683,-682.104 369.699,-682.411 369.699,-682.411 369.708,-682.565 369.703,-682.872 369.689,-683.025 369.689,-683.025 369.662,-683.343 369.662,-683.343 369.648,-683.496 369.602,-683.8 369.568,-683.95 369.568,-683.95 369.494,-684.287 369.494,-684.287 369.461,-684.437 369.377,-684.733 369.326,-684.878 369.326,-684.878 369.2,-685.238 369.2,-685.238 369.149,-685.383 369.033,-685.668 368.967,-685.807 368.967,-685.807 368.784,-686.193 368.784,-686.193 368.718,-686.332 368.573,-686.604 368.494,-686.736 368.494,-686.736 368.25,-687.148 368.25,-687.148 368.171,-687.28 368.003,-687.538 367.914,-687.664 367.914,-687.664 367.604,-688.099 367.604,-688.099 367.515,-688.225 367.327,-688.469 367.229,-688.588 367.229,-688.588 366.853,-689.044 366.853,-689.044 366.755,-689.163 366.551,-689.394 366.446,-689.506 366.446,-689.506 366.002,-689.979 366.002,-689.979 365.897,-690.091 365.68,-690.31 365.568,-690.416 365.568,-690.416 365.058,-690.902 365.058,-690.902 364.947,-691.008 364.719,-691.214 364.602,-691.315 364.602,-691.315 364.027,-691.81 364.027,-691.81 363.911,-691.91 363.673,-692.106 363.552,-692.201 363.552,-692.201 362.916,-692.7 362.916,-692.7 362.795,-692.796 362.549,-692.981 362.425,-693.071 362.425,-693.071 361.73,-693.572 361.73,-693.572 361.606,-693.662 361.353,-693.837 361.225,-693.923 361.225,-693.923 360.476,-694.421 360.476,-694.421 360.348,-694.506 360.089,-694.673 359.958,-694.753 359.958,-694.753 359.159,-695.247 359.159,-695.247 359.028,-695.327 358.764,-695.485 358.63,-695.561 358.63,-695.561 357.785,-696.046 357.785,-696.046 357.651,-696.122 357.382,-696.271 357.246,-696.344 357.246,-696.344 356.359,-696.817 356.359,-696.817 356.223,-696.889 355.95,-697.03 355.812,-697.098 355.812,-697.098 354.886,-697.557 354.886,-697.557 354.749,-697.626 354.471,-697.759 354.331,-697.823 354.331,-697.823 353.372,-698.266 353.372,-698.266 353.232,-698.33 352.951,-698.455 352.81,-698.516 352.81,-698.516 351.821,-698.94 351.821,-698.94 351.679,-699.001 351.395,-699.118 351.252,-699.175 351.252,-699.175 350.236,-699.578 350.236,-699.578 350.093,-699.635 349.806,-699.745 349.661,-699.798 349.661,-699.798 348.623,-700.179 348.623,-700.179 348.479,-700.232 348.189,-700.334 348.043,-700.384 348.043,-700.384 346.985,-700.741 346.985,-700.741 346.839,-700.79 346.547,-700.885 346.4,-700.93 346.4,-700.93 345.325,-701.262 345.325,-701.262 345.178,-701.307 344.883,-701.394 344.735,-701.436 344.735,-701.436 343.647,-701.741 343.647,-701.741 343.499,-701.783 343.201,-701.862 343.052,-701.899 343.052,-701.899 341.952,-702.177 341.952,-702.177 341.803,-702.214 341.504,-702.286 341.353,-702.319 341.353,-702.319 340.244,-702.568 340.244,-702.568 340.094,-702.602 339.793,-702.665 339.642,-702.695 339.642,-702.695 338.525,-702.914 338.525,-702.914 338.374,-702.944 338.071,-702.999 337.92,-703.024 337.92,-703.024 336.797,-703.214 336.797,-703.214 336.645,-703.239 336.341,-703.286 336.189,-703.307 336.189,-703.307 335.061,-703.466 335.061,-703.466 334.909,-703.487 334.603,-703.526 334.45,-703.543 334.45,-703.543 333.32,-703.67 333.32,-703.67 333.167,-703.687 332.86,-703.718 332.707,-703.731 332.707,-703.731 331.573,-703.826 331.573,-703.826 331.42,-703.839 331.113,-703.861 330.959,-703.869 330.959,-703.869 329.824,-703.933 329.824,-703.933 329.671,-703.942 329.363,-703.955 329.209,-703.959 329.209,-703.959 328.073,-703.991 328.073,-703.991 327.919,-703.996 327.612,-704 327.458,-704 327.458,-704 326.321,-704 326.321,-704 326.167,-704 325.859,-703.996 325.706,-703.991 325.706,-703.991 324.569,-703.959 324.569,-703.959 324.416,-703.955 324.108,-703.942 323.954,-703.933 323.954,-703.933 322.819,-703.869 322.819,-703.869 322.666,-703.861 322.359,-703.839 322.205,-703.826 322.205,-703.826 321.072,-703.731 321.072,-703.731 320.918,-703.718 320.612,-703.687 320.459,-703.67 320.459,-703.67 319.328,-703.543 319.328,-703.543 319.175,-703.526 318.87,-703.487 318.718,-703.466 318.718,-703.466 317.59,-703.307 317.59,-703.307 317.438,-703.286 317.134,-703.239 316.982,-703.214 316.982,-703.214 315.859,-703.024 315.859,-703.024 315.707,-702.999 315.405,-702.944 315.254,-702.914 315.254,-702.914 314.137,-702.695 314.137,-702.695 313.986,-702.665 313.685,-702.602 313.534,-702.568 313.534,-702.568 312.425,-702.319 312.425,-702.319 312.275,-702.286 311.976,-702.214 311.827,-702.177 311.827,-702.177 310.727,-701.899 310.727,-701.899 310.578,-701.862 310.28,-701.783 310.132,-701.741 310.132,-701.741 309.044,-701.436 309.044,-701.436 308.896,-701.394 308.6,-701.307 308.453,-701.262 308.453,-701.262 307.379,-700.93 307.379,-700.93 307.232,-700.885 306.939,-700.79 306.793,-700.741 306.793,-700.741 305.736,-700.384 305.736,-700.384 305.59,-700.334 305.3,-700.232 305.155,-700.179 305.155,-700.179 304.117,-699.798 304.117,-699.798 303.973,-699.745 303.685,-699.635 303.542,-699.578 303.542,-699.578 302.527,-699.175 302.527,-699.175 302.384,-699.118 302.099,-699.001 301.958,-698.94 301.958,-698.94 300.969,-698.516 300.969,-698.516 300.828,-698.455 300.546,-698.33 300.407,-698.266 300.407,-698.266 299.448,-697.823 299.448,-697.823 299.308,-697.759 299.03,-697.626 298.892,-697.557 298.892,-697.557 297.967,-697.098 297.967,-697.098 297.829,-697.03 297.556,-696.889 297.42,-696.817 297.42,-696.817 296.532,-696.344 296.532,-696.344 296.397,-696.271 296.127,-696.122 295.994,-696.046 295.994,-696.046 295.149,-695.561 295.149,-695.561 295.015,-695.485 294.751,-695.327 294.62,-695.247 294.62,-695.247 293.821,-694.753 293.821,-694.753 293.69,-694.673 293.431,-694.506 293.303,-694.421 293.303,-694.421 292.554,-693.923 292.554,-693.923 292.426,-693.837 292.173,-693.662 292.048,-693.572 292.048,-693.572 291.354,-693.071 291.354,-693.071 291.229,-692.981 290.983,-692.796 290.862,-692.7 290.862,-692.7 290.227,-692.201 290.227,-692.201 290.105,-692.106 289.868,-691.91 289.751,-691.81 289.751,-691.81 289.177,-691.315 289.177,-691.315 289.06,-691.214 288.832,-691.008 288.721,-690.902 288.721,-690.902 288.21,-690.416 288.21,-690.416 288.099,-690.31 287.882,-690.091 287.777,-689.979 287.777,-689.979 287.333,-689.506 287.333,-689.506 287.228,-689.394 287.024,-689.163 286.926,-689.044 286.926,-689.044 286.549,-688.588 286.549,-688.588 286.451,-688.469 286.264,-688.225 286.175,-688.099 286.175,-688.099 285.865,-687.664 285.865,-687.664 285.776,-687.538 285.608,-687.28 285.529,-687.148 285.529,-687.148 285.284,-686.736 285.284,-686.736 285.206,-686.604 285.061,-686.332 284.995,-686.193 284.995,-686.193 284.812,-685.807 284.812,-685.807 284.746,-685.668 284.629,-685.383 284.579,-685.238 284.579,-685.238 284.453,-684.878 284.453,-684.878 284.402,-684.733 284.318,-684.437 284.285,-684.287 284.285,-684.287 284.21,-683.95 284.21,-683.95 284.177,-683.8 284.13,-683.496 284.117,-683.343 284.117,-683.343 284.09,-683.025 284.09,-683.025 284.076,-682.872 284.071,-682.565 284.079,-682.411 284.079,-682.411 284.096,-682.104 284.096,-682.104 284.104,-681.95 284.142,-681.646 284.172,-681.495 284.172,-681.495 284.234,-681.188 284.234,-681.188 284.264,-681.037 284.346,-680.741 284.397,-680.596 284.397,-680.596 284.509,-680.28 284.509,-680.28 284.561,-680.134 284.683,-679.853 284.754,-679.716 284.754,-679.716 284.927,-679.383 284.927,-679.383 284.997,-679.246 285.156,-678.983 285.243,-678.856 285.243,-678.856 285.488,-678.501 285.488,-678.501 285.576,-678.375 285.765,-678.132 285.866,-678.017 285.866,-678.017 286.196,-677.64 286.196,-677.64 286.298,-677.524 286.512,-677.303 286.624,-677.198 286.624,-677.198 287.05,-676.802 287.05,-676.802 287.163,-676.697 287.397,-676.497 287.518,-676.403 287.518,-676.403 288.048,-675.99 288.048,-675.99 288.17,-675.896 288.42,-675.716 288.548,-675.632 288.548,-675.632 289.189,-675.208 289.189,-675.208 289.317,-675.123 289.579,-674.963 289.713,-674.887 289.713,-674.887 290.469,-674.458 290.469,-674.458 290.603,-674.382 290.875,-674.238 291.013,-674.17 291.013,-674.17 291.885,-673.741 291.885,-673.741 292.023,-673.673 292.302,-673.545 292.444,-673.484 292.444,-673.484 293.433,-673.06 293.433,-673.06 293.574,-672.999 293.86,-672.885 294.004,-672.831 294.004,-672.831 295.108,-672.416 295.108,-672.416 295.253,-672.362 295.543,-672.26 295.689,-672.212 295.689,-672.212 296.906,-671.811 296.906,-671.811 297.052,-671.763 297.346,-671.672 297.494,-671.629 297.494,-671.629 298.82,-671.246 298.82,-671.246 298.968,-671.203 299.265,-671.123 299.414,-671.085 299.414,-671.085 300.843,-670.723 300.843,-670.723 300.992,-670.685 301.291,-670.614 301.442,-670.581 301.442,-670.581 302.968,-670.242 302.968,-670.242 303.119,-670.209 303.42,-670.147 303.571,-670.118 303.571,-670.118 305.188,-669.806 305.188,-669.806 305.34,-669.777 305.643,-669.723 305.794,-669.697 305.794,-669.697 307.495,-669.415 307.495,-669.415 307.647,-669.39 307.951,-669.343 308.103,-669.321 308.103,-669.321 309.879,-669.07 309.879,-669.07 310.031,-669.048 310.336,-669.008 310.489,-668.99 310.489,-668.99 312.33,-668.772 312.33,-668.772 312.483,-668.753 312.789,-668.72 312.942,-668.706 312.942,-668.706 314.84,-668.521 314.84,-668.521 314.994,-668.506 315.3,-668.48 315.454,-668.468 315.454,-668.468 317.399,-668.319 317.399,-668.319 317.552,-668.307 317.859,-668.287 318.013,-668.278 318.013,-668.278 319.995,-668.165 319.995,-668.165 320.149,-668.157 320.456,-668.142 320.61,-668.136 320.61,-668.136 322.619,-668.061 322.619,-668.061 322.773,-668.055 323.08,-668.046 323.234,-668.044 323.234,-668.044 325.259,-668.006 325.259,-668.006 325.413,-668.003 325.72,-668 325.874,-668 325.874,-668 327.904,-668 327.904,-668 328.058,-668 328.366,-668.003 328.52,-668.006 328.52,-668.006 330.545,-668.044 330.545,-668.044 330.699,-668.046 331.006,-668.055 331.16,-668.061"/>
<text text-anchor="middle" x="326.889" y="-682.3" font-family="Times New Roman,serif" font-size="14.00">order=4</text>
</g>
<!-- tag__5 -->
<g id="node23" class="node"><title>tag__5</title>
</g>
<!-- tag__4&#45;&gt;tag__5 -->
<g id="edge13" class="edge"><title>tag__4&#45;&gt;tag__5</title>
<path fill="none" stroke="black" d="M327.771,-613.983C328.376,-567.042 335.963,-439.145 397.803,-360 401.783,-354.905 407.003,-350.648 412.565,-347.134"/>
<polygon fill="black" stroke="black" points="414.405,-350.116 421.458,-342.211 411.014,-343.992 414.405,-350.116"/>
</g>
<!-- BRANCH_in1 -->
<g id="node15" class="node"><title>BRANCH_in1</title>
<path fill="lightgrey" stroke="black" d="M473.716,-567C473.716,-567 423.716,-567 423.716,-567 417.716,-567 411.716,-561 411.716,-555 411.716,-555 411.716,-543 411.716,-543 411.716,-537 417.716,-531 423.716,-531 423.716,-531 473.716,-531 473.716,-531 479.716,-531 485.716,-537 485.716,-543 485.716,-543 485.716,-555 485.716,-555 485.716,-561 479.716,-567 473.716,-567"/>
<text text-anchor="middle" x="448.716" y="-545.3" font-family="Times New Roman,serif" font-size="14.00">BRANCH</text>
</g>
<!-- LEAF_in1 -->
<g id="node16" class="node"><title>LEAF_in1</title>
<path fill="lightgrey" stroke="black" d="M463.716,-513C463.716,-513 433.716,-513 433.716,-513 427.716,-513 421.716,-507 421.716,-501 421.716,-501 421.716,-489 421.716,-489 421.716,-483 427.716,-477 433.716,-477 433.716,-477 463.716,-477 463.716,-477 469.716,-477 475.716,-483 475.716,-489 475.716,-489 475.716,-501 475.716,-501 475.716,-507 469.716,-513 463.716,-513"/>
<text text-anchor="middle" x="448.716" y="-491.3" font-family="Times New Roman,serif" font-size="14.00">LEAF</text>
</g>
<!-- _root_in1 -->
<g id="node17" class="node"><title>_root_in1</title>
<polygon fill="lightgrey" stroke="black" points="475.716,-459 433.716,-459 433.716,-463 421.716,-463 421.716,-423 475.716,-423 475.716,-459"/>
<polyline fill="none" stroke="black" points="421.716,-459 433.716,-459 "/>
<text text-anchor="middle" x="448.716" y="-437.3" font-family="Times New Roman,serif" font-size="14.00">_root</text>
</g>
<!-- _root_1 -->
<g id="node20" class="node"><title>_root_1</title>
</g>
<!-- _root_in1&#45;&gt;_root_1 -->
<g id="edge3" class="edge"><title>_root_in1&#45;&gt;_root_1</title>
<path fill="none" stroke="black" d="M475.854,-429.672C490.728,-423.808 509.88,-417.217 527.629,-414 614.047,-398.339 717.886,-401.28 771.636,-404.378"/>
<polygon fill="black" stroke="black" points="771.503,-407.877 781.699,-404.995 771.931,-400.89 771.503,-407.877"/>
</g>
<!-- _bottom_in1 -->
<g id="node21" class="node"><title>_bottom_in1</title>
<polygon fill="lightgrey" stroke="black" points="612.225,-459 559.225,-459 559.225,-463 547.225,-463 547.225,-423 612.225,-423 612.225,-459"/>
<polyline fill="none" stroke="black" points="547.225,-459 559.225,-459 "/>
<text text-anchor="middle" x="579.725" y="-437.3" font-family="Times New Roman,serif" font-size="14.00">_bottom</text>
</g>
<!-- _root_in1&#45;&gt;_bottom_in1 -->
<g id="edge5" class="edge"><title>_root_in1&#45;&gt;_bottom_in1</title>
<path fill="none" stroke="black" d="M486.031,-434.859C501.823,-434.132 520.421,-434.056 536.797,-434.632"/>
<polygon fill="black" stroke="black" points="485.603,-431.378 475.823,-435.451 486.009,-438.366 485.603,-431.378"/>
<polygon fill="black" stroke="black" points="537.037,-438.146 547.186,-435.104 537.355,-431.153 537.037,-438.146"/>
</g>
<!-- _root_in1&#45;&gt;_bottom_in1 -->
<g id="edge6" class="edge"><title>_root_in1&#45;&gt;_bottom_in1</title>
<path fill="none" stroke="black" d="M486.031,-447.141C501.823,-447.868 520.421,-447.944 536.797,-447.368"/>
<polygon fill="black" stroke="black" points="486.009,-443.634 475.823,-446.549 485.603,-450.622 486.009,-443.634"/>
<polygon fill="black" stroke="black" points="537.355,-450.847 547.186,-446.896 537.037,-443.854 537.355,-450.847"/>
</g>
<!-- contents_in1 -->
<g id="node18" class="node"><title>contents_in1</title>
<path fill="lightgrey" stroke="black" d="M937.925,-533C937.925,-533 737.514,-533 737.514,-533 731.514,-533 720.423,-529.825 715.332,-526.65 715.332,-526.65 677.968,-503.35 677.968,-503.35 672.876,-500.175 673.785,-497 679.785,-497 679.785,-497 880.196,-497 880.196,-497 886.196,-497 897.287,-500.175 902.378,-503.35 902.378,-503.35 939.743,-526.65 939.743,-526.65 944.834,-529.825 943.925,-533 937.925,-533"/>
<text text-anchor="middle" x="808.855" y="-511.3" font-family="Times New Roman,serif" font-size="14.00">contents add 1====[1]</text>
</g>
<!-- children_in1 -->
<g id="node19" class="node"><title>children_in1</title>
<path fill="lightgrey" stroke="black" d="M855.114,-479C855.114,-479 786.437,-479 786.437,-479 780.437,-479 771.124,-473.998 767.812,-468.995 767.812,-468.995 757.222,-453.005 757.222,-453.005 753.909,-448.002 756.596,-443 762.596,-443 762.596,-443 831.273,-443 831.273,-443 837.273,-443 846.586,-448.002 849.899,-453.005 849.899,-453.005 860.488,-468.995 860.488,-468.995 863.801,-473.998 861.114,-479 855.114,-479"/>
<text text-anchor="middle" x="808.855" y="-457.3" font-family="Times New Roman,serif" font-size="14.00">children</text>
</g>
<!-- _bottom_in1&#45;&gt;_root_1 -->
<g id="edge4" class="edge"><title>_bottom_in1&#45;&gt;_root_1</title>
<path fill="none" stroke="black" d="M612.306,-436.272C654.172,-430.005 727.868,-418.974 771.848,-412.39"/>
<polygon fill="black" stroke="black" points="772.45,-415.839 781.821,-410.897 771.413,-408.916 772.45,-415.839"/>
</g>
<!-- order_in1 -->
<g id="node22" class="node"><title>order_in1</title>
<path fill="lightgrey" stroke="black" d="M452.986,-369.061C452.986,-369.061 454.995,-369.136 454.995,-369.136 455.149,-369.142 455.456,-369.157 455.61,-369.165 455.61,-369.165 457.592,-369.278 457.592,-369.278 457.746,-369.287 458.053,-369.307 458.206,-369.319 458.206,-369.319 460.151,-369.468 460.151,-369.468 460.305,-369.48 460.611,-369.506 460.765,-369.521 460.765,-369.521 462.663,-369.706 462.663,-369.706 462.816,-369.72 463.122,-369.753 463.275,-369.772 463.275,-369.772 465.116,-369.99 465.116,-369.99 465.269,-370.008 465.574,-370.048 465.727,-370.07 465.727,-370.07 467.502,-370.321 467.502,-370.321 467.654,-370.343 467.958,-370.39 468.11,-370.415 468.11,-370.415 469.811,-370.697 469.811,-370.697 469.963,-370.723 470.265,-370.777 470.417,-370.806 470.417,-370.806 472.034,-371.118 472.034,-371.118 472.185,-371.147 472.486,-371.209 472.637,-371.242 472.637,-371.242 474.163,-371.581 474.163,-371.581 474.314,-371.614 474.613,-371.685 474.762,-371.723 474.762,-371.723 476.191,-372.085 476.191,-372.085 476.34,-372.123 476.638,-372.203 476.785,-372.246 476.785,-372.246 478.111,-372.629 478.111,-372.629 478.259,-372.672 478.553,-372.763 478.699,-372.811 478.699,-372.811 479.916,-373.212 479.916,-373.212 480.062,-373.26 480.352,-373.362 480.497,-373.416 480.497,-373.416 481.601,-373.831 481.601,-373.831 481.745,-373.885 482.031,-373.999 482.172,-374.06 482.172,-374.06 483.161,-374.484 483.161,-374.484 483.303,-374.545 483.582,-374.673 483.72,-374.741 483.72,-374.741 484.592,-375.17 484.592,-375.17 484.731,-375.238 485.002,-375.382 485.136,-375.458 485.136,-375.458 485.892,-375.887 485.892,-375.887 486.026,-375.963 486.288,-376.123 486.416,-376.208 486.416,-376.208 487.057,-376.632 487.057,-376.632 487.186,-376.716 487.435,-376.896 487.557,-376.99 487.557,-376.99 488.087,-377.403 488.087,-377.403 488.208,-377.497 488.442,-377.697 488.555,-377.802 488.555,-377.802 488.981,-378.198 488.981,-378.198 489.093,-378.303 489.307,-378.524 489.409,-378.64 489.409,-378.64 489.739,-379.017 489.739,-379.017 489.84,-379.132 490.029,-379.375 490.117,-379.501 490.117,-379.501 490.362,-379.856 490.362,-379.856 490.449,-379.983 490.608,-380.246 490.679,-380.383 490.679,-380.383 490.851,-380.716 490.851,-380.716 490.922,-380.853 491.044,-381.134 491.096,-381.28 491.096,-381.28 491.208,-381.596 491.208,-381.596 491.259,-381.741 491.341,-382.037 491.371,-382.188 491.371,-382.188 491.433,-382.495 491.433,-382.495 491.463,-382.646 491.501,-382.95 491.509,-383.104 491.509,-383.104 491.526,-383.411 491.526,-383.411 491.534,-383.565 491.529,-383.872 491.515,-384.025 491.515,-384.025 491.488,-384.343 491.488,-384.343 491.475,-384.496 491.428,-384.8 491.395,-384.95 491.395,-384.95 491.32,-385.287 491.32,-385.287 491.287,-385.437 491.203,-385.733 491.152,-385.878 491.152,-385.878 491.026,-386.238 491.026,-386.238 490.976,-386.383 490.859,-386.668 490.793,-386.807 490.793,-386.807 490.61,-387.193 490.61,-387.193 490.544,-387.332 490.399,-387.604 490.321,-387.736 490.321,-387.736 490.076,-388.148 490.076,-388.148 489.997,-388.28 489.829,-388.538 489.74,-388.664 489.74,-388.664 489.43,-389.099 489.43,-389.099 489.341,-389.225 489.154,-389.469 489.056,-389.588 489.056,-389.588 488.679,-390.044 488.679,-390.044 488.581,-390.163 488.378,-390.394 488.272,-390.506 488.272,-390.506 487.828,-390.979 487.828,-390.979 487.723,-391.091 487.506,-391.31 487.395,-391.416 487.395,-391.416 486.884,-391.902 486.884,-391.902 486.773,-392.008 486.545,-392.214 486.428,-392.315 486.428,-392.315 485.854,-392.81 485.854,-392.81 485.737,-392.91 485.5,-393.106 485.379,-393.201 485.379,-393.201 484.743,-393.7 484.743,-393.7 484.622,-393.796 484.376,-393.981 484.251,-394.071 484.251,-394.071 483.557,-394.572 483.557,-394.572 483.432,-394.662 483.179,-394.837 483.051,-394.923 483.051,-394.923 482.302,-395.421 482.302,-395.421 482.174,-395.506 481.915,-395.673 481.784,-395.753 481.784,-395.753 480.985,-396.247 480.985,-396.247 480.854,-396.327 480.59,-396.485 480.456,-396.561 480.456,-396.561 479.611,-397.046 479.611,-397.046 479.478,-397.122 479.208,-397.271 479.073,-397.344 479.073,-397.344 478.185,-397.817 478.185,-397.817 478.049,-397.889 477.776,-398.03 477.638,-398.098 477.638,-398.098 476.713,-398.557 476.713,-398.557 476.575,-398.626 476.297,-398.759 476.158,-398.823 476.158,-398.823 475.198,-399.266 475.198,-399.266 475.059,-399.33 474.778,-399.455 474.636,-399.516 474.636,-399.516 473.647,-399.94 473.647,-399.94 473.506,-400.001 473.221,-400.118 473.078,-400.175 473.078,-400.175 472.063,-400.578 472.063,-400.578 471.92,-400.635 471.632,-400.745 471.488,-400.798 471.488,-400.798 470.45,-401.179 470.45,-401.179 470.305,-401.232 470.015,-401.334 469.869,-401.384 469.869,-401.384 468.812,-401.741 468.812,-401.741 468.666,-401.79 468.373,-401.885 468.226,-401.93 468.226,-401.93 467.152,-402.262 467.152,-402.262 467.005,-402.307 466.709,-402.394 466.561,-402.436 466.561,-402.436 465.473,-402.741 465.473,-402.741 465.325,-402.783 465.027,-402.862 464.878,-402.899 464.878,-402.899 463.778,-403.177 463.778,-403.177 463.629,-403.214 463.33,-403.286 463.18,-403.319 463.18,-403.319 462.071,-403.568 462.071,-403.568 461.92,-403.602 461.619,-403.665 461.468,-403.695 461.468,-403.695 460.351,-403.914 460.351,-403.914 460.2,-403.944 459.898,-403.999 459.746,-404.024 459.746,-404.024 458.623,-404.214 458.623,-404.214 458.471,-404.239 458.167,-404.286 458.015,-404.307 458.015,-404.307 456.887,-404.466 456.887,-404.466 456.735,-404.487 456.43,-404.526 456.277,-404.543 456.277,-404.543 455.146,-404.67 455.146,-404.67 454.993,-404.687 454.687,-404.718 454.533,-404.731 454.533,-404.731 453.4,-404.826 453.4,-404.826 453.246,-404.839 452.939,-404.861 452.786,-404.869 452.786,-404.869 451.651,-404.933 451.651,-404.933 451.497,-404.942 451.189,-404.955 451.036,-404.959 451.036,-404.959 449.899,-404.991 449.899,-404.991 449.746,-404.996 449.438,-405 449.284,-405 449.284,-405 448.147,-405 448.147,-405 447.994,-405 447.686,-404.996 447.532,-404.991 447.532,-404.991 446.396,-404.959 446.396,-404.959 446.242,-404.955 445.934,-404.942 445.781,-404.933 445.781,-404.933 444.646,-404.869 444.646,-404.869 444.492,-404.861 444.185,-404.839 444.032,-404.826 444.032,-404.826 442.898,-404.731 442.898,-404.731 442.745,-404.718 442.438,-404.687 442.286,-404.67 442.286,-404.67 441.155,-404.543 441.155,-404.543 441.002,-404.526 440.696,-404.487 440.544,-404.466 440.544,-404.466 439.417,-404.307 439.417,-404.307 439.264,-404.286 438.96,-404.239 438.808,-404.214 438.808,-404.214 437.685,-404.024 437.685,-404.024 437.534,-403.999 437.231,-403.944 437.08,-403.914 437.08,-403.914 435.963,-403.695 435.963,-403.695 435.812,-403.665 435.511,-403.602 435.361,-403.568 435.361,-403.568 434.252,-403.319 434.252,-403.319 434.101,-403.286 433.802,-403.214 433.653,-403.177 433.653,-403.177 432.553,-402.899 432.553,-402.899 432.404,-402.862 432.107,-402.783 431.958,-402.741 431.958,-402.741 430.87,-402.436 430.87,-402.436 430.722,-402.394 430.427,-402.307 430.28,-402.262 430.28,-402.262 429.205,-401.93 429.205,-401.93 429.058,-401.885 428.766,-401.79 428.62,-401.741 428.62,-401.741 427.562,-401.384 427.562,-401.384 427.416,-401.334 427.126,-401.232 426.982,-401.179 426.982,-401.179 425.944,-400.798 425.944,-400.798 425.799,-400.745 425.512,-400.635 425.369,-400.578 425.369,-400.578 424.353,-400.175 424.353,-400.175 424.21,-400.118 423.926,-400.001 423.784,-399.94 423.784,-399.94 422.795,-399.516 422.795,-399.516 422.654,-399.455 422.373,-399.33 422.233,-399.266 422.233,-399.266 421.274,-398.823 421.274,-398.823 421.134,-398.759 420.856,-398.626 420.719,-398.557 420.719,-398.557 419.793,-398.098 419.793,-398.098 419.656,-398.03 419.382,-397.889 419.246,-397.817 419.246,-397.817 418.359,-397.344 418.359,-397.344 418.223,-397.271 417.954,-397.122 417.82,-397.046 417.82,-397.046 416.975,-396.561 416.975,-396.561 416.841,-396.485 416.577,-396.327 416.446,-396.247 416.446,-396.247 415.647,-395.753 415.647,-395.753 415.516,-395.673 415.257,-395.506 415.129,-395.421 415.129,-395.421 414.38,-394.923 414.38,-394.923 414.252,-394.837 413.999,-394.662 413.875,-394.572 413.875,-394.572 413.18,-394.071 413.18,-394.071 413.056,-393.981 412.81,-393.796 412.689,-393.7 412.689,-393.7 412.053,-393.201 412.053,-393.201 411.932,-393.106 411.694,-392.91 411.578,-392.81 411.578,-392.81 411.003,-392.315 411.003,-392.315 410.886,-392.214 410.658,-392.008 410.547,-391.902 410.547,-391.902 410.037,-391.416 410.037,-391.416 409.925,-391.31 409.708,-391.091 409.603,-390.979 409.603,-390.979 409.159,-390.506 409.159,-390.506 409.054,-390.394 408.85,-390.163 408.752,-390.044 408.752,-390.044 408.376,-389.588 408.376,-389.588 408.278,-389.469 408.09,-389.225 408.001,-389.099 408.001,-389.099 407.691,-388.664 407.691,-388.664 407.602,-388.538 407.434,-388.28 407.355,-388.148 407.355,-388.148 407.111,-387.736 407.111,-387.736 407.032,-387.604 406.887,-387.332 406.822,-387.193 406.822,-387.193 406.638,-386.807 406.638,-386.807 406.572,-386.668 406.456,-386.383 406.405,-386.238 406.405,-386.238 406.279,-385.878 406.279,-385.878 406.228,-385.733 406.144,-385.437 406.111,-385.287 406.111,-385.287 406.037,-384.95 406.037,-384.95 406.003,-384.8 405.957,-384.496 405.943,-384.343 405.943,-384.343 405.916,-384.025 405.916,-384.025 405.903,-383.872 405.897,-383.565 405.906,-383.411 405.906,-383.411 405.922,-383.104 405.922,-383.104 405.93,-382.95 405.968,-382.646 405.999,-382.495 405.999,-382.495 406.06,-382.188 406.06,-382.188 406.09,-382.037 406.172,-381.741 406.223,-381.596 406.223,-381.596 406.336,-381.28 406.336,-381.28 406.387,-381.134 406.509,-380.853 406.58,-380.716 406.58,-380.716 406.753,-380.383 406.753,-380.383 406.824,-380.246 406.982,-379.983 407.069,-379.856 407.069,-379.856 407.315,-379.501 407.315,-379.501 407.402,-379.375 407.591,-379.132 407.693,-379.017 407.693,-379.017 408.023,-378.64 408.023,-378.64 408.124,-378.524 408.338,-378.303 408.451,-378.198 408.451,-378.198 408.876,-377.802 408.876,-377.802 408.989,-377.697 409.223,-377.497 409.344,-377.403 409.344,-377.403 409.874,-376.99 409.874,-376.99 409.996,-376.896 410.246,-376.716 410.374,-376.632 410.374,-376.632 411.015,-376.208 411.015,-376.208 411.143,-376.123 411.406,-375.963 411.539,-375.887 411.539,-375.887 412.295,-375.458 412.295,-375.458 412.429,-375.382 412.701,-375.238 412.839,-375.17 412.839,-375.17 413.711,-374.741 413.711,-374.741 413.849,-374.673 414.129,-374.545 414.27,-374.484 414.27,-374.484 415.259,-374.06 415.259,-374.06 415.401,-373.999 415.686,-373.885 415.83,-373.831 415.83,-373.831 416.935,-373.416 416.935,-373.416 417.079,-373.362 417.369,-373.26 417.515,-373.212 417.515,-373.212 418.732,-372.811 418.732,-372.811 418.878,-372.763 419.173,-372.672 419.32,-372.629 419.32,-372.629 420.646,-372.246 420.646,-372.246 420.794,-372.203 421.091,-372.123 421.24,-372.085 421.24,-372.085 422.669,-371.723 422.669,-371.723 422.818,-371.685 423.118,-371.614 423.268,-371.581 423.268,-371.581 424.795,-371.242 424.795,-371.242 424.945,-371.209 425.246,-371.147 425.397,-371.118 425.397,-371.118 427.015,-370.806 427.015,-370.806 427.166,-370.777 427.469,-370.723 427.621,-370.697 427.621,-370.697 429.321,-370.415 429.321,-370.415 429.473,-370.39 429.777,-370.343 429.929,-370.321 429.929,-370.321 431.705,-370.07 431.705,-370.07 431.857,-370.048 432.162,-370.008 432.315,-369.99 432.315,-369.99 434.157,-369.772 434.157,-369.772 434.309,-369.753 434.615,-369.72 434.769,-369.706 434.769,-369.706 436.667,-369.521 436.667,-369.521 436.82,-369.506 437.127,-369.48 437.28,-369.468 437.28,-369.468 439.225,-369.319 439.225,-369.319 439.379,-369.307 439.686,-369.287 439.839,-369.278 439.839,-369.278 441.822,-369.165 441.822,-369.165 441.975,-369.157 442.283,-369.142 442.436,-369.136 442.436,-369.136 444.445,-369.061 444.445,-369.061 444.599,-369.055 444.907,-369.046 445.06,-369.044 445.06,-369.044 447.085,-369.006 447.085,-369.006 447.239,-369.003 447.547,-369 447.701,-369 447.701,-369 449.731,-369 449.731,-369 449.885,-369 450.192,-369.003 450.346,-369.006 450.346,-369.006 452.371,-369.044 452.371,-369.044 452.525,-369.046 452.832,-369.055 452.986,-369.061"/>
<text text-anchor="middle" x="448.716" y="-383.3" font-family="Times New Roman,serif" font-size="14.00">order=4</text>
</g>
<!-- loop_2,3,4 -->
<g id="node24" class="node"><title>loop_2,3,4</title>
<ellipse fill="none" stroke="black" cx="579.725" cy="-140" rx="48.1843" ry="48.1843"/>
<ellipse fill="none" stroke="black" cx="579.725" cy="-140" rx="52.1916" ry="52.1916"/>
<text text-anchor="middle" x="579.725" y="-136.3" font-family="Times New Roman,serif" font-size="14.00">2,3,4 loop</text>
</g>
<!-- tag__5&#45;&gt;loop_2,3,4 -->
<g id="edge14" class="edge"><title>tag__5&#45;&gt;loop_2,3,4</title>
<path fill="none" stroke="black" d="M461.853,-314.843C480.533,-286.897 517.024,-232.305 544.286,-191.521"/>
<polygon fill="black" stroke="black" points="547.306,-193.301 549.954,-183.042 541.487,-189.41 547.306,-193.301"/>
</g>
<!-- tag__6 -->
<g id="node33" class="node"><title>tag__6</title>
</g>
<!-- loop_2,3,4&#45;&gt;tag__6 -->
<g id="edge15" class="edge"><title>loop_2,3,4&#45;&gt;tag__6</title>
<path fill="none" stroke="black" d="M612.737,-99.0161C625.851,-84.8777 642.113,-70.2772 659.82,-61 694.956,-42.5915 740.489,-36.5215 771.725,-34.6295"/>
<polygon fill="black" stroke="black" points="771.919,-38.1243 781.735,-34.1363 771.575,-31.1328 771.919,-38.1243"/>
</g>
<!-- BRANCH_step1end -->
<g id="node25" class="node"><title>BRANCH_step1end</title>
<path fill="lightgrey" stroke="black" d="M833.855,-268C833.855,-268 783.855,-268 783.855,-268 777.855,-268 771.855,-262 771.855,-256 771.855,-256 771.855,-244 771.855,-244 771.855,-238 777.855,-232 783.855,-232 783.855,-232 833.855,-232 833.855,-232 839.855,-232 845.855,-238 845.855,-244 845.855,-244 845.855,-256 845.855,-256 845.855,-262 839.855,-268 833.855,-268"/>
<text text-anchor="middle" x="808.855" y="-246.3" font-family="Times New Roman,serif" font-size="14.00">BRANCH</text>
</g>
<!-- LEAF_step1end -->
<g id="node26" class="node"><title>LEAF_step1end</title>
<path fill="lightgrey" stroke="black" d="M823.855,-214C823.855,-214 793.855,-214 793.855,-214 787.855,-214 781.855,-208 781.855,-202 781.855,-202 781.855,-190 781.855,-190 781.855,-184 787.855,-178 793.855,-178 793.855,-178 823.855,-178 823.855,-178 829.855,-178 835.855,-184 835.855,-190 835.855,-190 835.855,-202 835.855,-202 835.855,-208 829.855,-214 823.855,-214"/>
<text text-anchor="middle" x="808.855" y="-192.3" font-family="Times New Roman,serif" font-size="14.00">LEAF</text>
</g>
<!-- _root_step1end -->
<g id="node27" class="node"><title>_root_step1end</title>
<polygon fill="lightgrey" stroke="black" points="835.855,-160 793.855,-160 793.855,-164 781.855,-164 781.855,-124 835.855,-124 835.855,-160"/>
<polyline fill="none" stroke="black" points="781.855,-160 793.855,-160 "/>
<text text-anchor="middle" x="808.855" y="-138.3" font-family="Times New Roman,serif" font-size="14.00">_root</text>
</g>
<!-- _root_s_end -->
<g id="node30" class="node"><title>_root_s_end</title>
</g>
<!-- _root_step1end&#45;&gt;_root_s_end -->
<g id="edge7" class="edge"><title>_root_step1end&#45;&gt;_root_s_end</title>
<path fill="none" stroke="black" d="M835.98,-136.993C870.249,-130.657 932.321,-119.969 985.89,-115 1047.99,-109.24 1120.63,-108.028 1163.14,-107.873"/>
<polygon fill="black" stroke="black" points="1163.28,-111.373 1173.28,-107.855 1163.27,-104.373 1163.28,-111.373"/>
</g>
<!-- _bottom_step1end -->
<g id="node31" class="node"><title>_bottom_step1end</title>
<polygon fill="lightgrey" stroke="black" points="1050.89,-160 997.89,-160 997.89,-164 985.89,-164 985.89,-124 1050.89,-124 1050.89,-160"/>
<polyline fill="none" stroke="black" points="985.89,-160 997.89,-160 "/>
<text text-anchor="middle" x="1018.39" y="-138.3" font-family="Times New Roman,serif" font-size="14.00">_bottom</text>
</g>
<!-- _root_step1end&#45;&gt;_bottom_step1end -->
<g id="edge9" class="edge"><title>_root_step1end&#45;&gt;_bottom_step1end</title>
<path fill="none" stroke="black" d="M846.126,-136.727C882.167,-134.855 937.397,-134.763 975.338,-136.449"/>
<polygon fill="black" stroke="black" points="845.912,-133.233 836.14,-137.327 846.332,-140.221 845.912,-133.233"/>
<polygon fill="black" stroke="black" points="975.385,-139.956 985.551,-136.972 975.743,-132.965 975.385,-139.956"/>
</g>
<!-- _root_step1end&#45;&gt;_bottom_step1end -->
<g id="edge10" class="edge"><title>_root_step1end&#45;&gt;_bottom_step1end</title>
<path fill="none" stroke="black" d="M846.126,-147.273C882.167,-149.145 937.397,-149.237 975.338,-147.551"/>
<polygon fill="black" stroke="black" points="846.332,-143.779 836.14,-146.673 845.912,-150.767 846.332,-143.779"/>
<polygon fill="black" stroke="black" points="975.743,-151.035 985.551,-147.028 975.385,-144.044 975.743,-151.035"/>
</g>
<!-- contents_step1end -->
<g id="node28" class="node"><title>contents_step1end</title>
<path fill="lightgrey" stroke="black" d="M1301.59,-234C1301.59,-234 1145.36,-234 1145.36,-234 1139.36,-234 1128.62,-230.32 1123.88,-226.641 1123.88,-226.641 1096.47,-205.359 1096.47,-205.359 1091.73,-201.68 1092.99,-198 1098.99,-198 1098.99,-198 1255.22,-198 1255.22,-198 1261.22,-198 1271.96,-201.68 1276.7,-205.359 1276.7,-205.359 1304.11,-226.641 1304.11,-226.641 1308.85,-230.32 1307.59,-234 1301.59,-234"/>
<text text-anchor="middle" x="1200.29" y="-212.3" font-family="Times New Roman,serif" font-size="14.00">contents=[1,2,3,4]</text>
</g>
<!-- children_step1end -->
<g id="node29" class="node"><title>children_step1end</title>
<path fill="lightgrey" stroke="black" d="M1262.45,-180C1262.45,-180 1168.48,-180 1168.48,-180 1162.48,-180 1152.61,-175.413 1148.74,-170.825 1148.74,-170.825 1133.87,-153.175 1133.87,-153.175 1130,-148.587 1132.13,-144 1138.13,-144 1138.13,-144 1232.1,-144 1232.1,-144 1238.1,-144 1247.97,-148.587 1251.84,-153.175 1251.84,-153.175 1266.71,-170.825 1266.71,-170.825 1270.58,-175.413 1268.45,-180 1262.45,-180"/>
<text text-anchor="middle" x="1200.29" y="-158.3" font-family="Times New Roman,serif" font-size="14.00">children=[]</text>
</g>
<!-- _bottom_step1end&#45;&gt;_root_s_end -->
<g id="edge8" class="edge"><title>_bottom_step1end&#45;&gt;_root_s_end</title>
<path fill="none" stroke="black" d="M1051.14,-136C1082.45,-130.082 1130.25,-121.048 1163.04,-114.852"/>
<polygon fill="black" stroke="black" points="1163.94,-118.244 1173.11,-112.947 1162.64,-111.365 1163.94,-118.244"/>
</g>
<!-- order_step1end -->
<g id="node32" class="node"><title>order_step1end</title>
<path fill="lightgrey" stroke="black" d="M813.126,-70.0609C813.126,-70.0609 815.135,-70.1363 815.135,-70.1363 815.288,-70.1421 815.596,-70.1566 815.749,-70.1653 815.749,-70.1653 817.732,-70.2779 817.732,-70.2779 817.885,-70.2866 818.192,-70.3071 818.346,-70.3189 818.346,-70.3189 820.291,-70.4678 820.291,-70.4678 820.444,-70.4796 820.751,-70.5062 820.904,-70.5211 820.904,-70.5211 822.802,-70.7056 822.802,-70.7056 822.955,-70.7204 823.262,-70.7535 823.414,-70.7716 823.414,-70.7716 825.256,-70.9903 825.256,-70.9903 825.409,-71.0085 825.714,-71.0482 825.866,-71.0698 825.866,-71.0698 827.641,-71.3213 827.641,-71.3213 827.794,-71.3429 828.098,-71.3897 828.25,-71.4149 828.25,-71.4149 829.95,-71.6974 829.95,-71.6974 830.102,-71.7227 830.405,-71.777 830.556,-71.8061 830.556,-71.8061 832.174,-72.1177 832.174,-72.1177 832.325,-72.1468 832.626,-72.2092 832.776,-72.2424 832.776,-72.2424 834.303,-72.5806 834.303,-72.5806 834.453,-72.6139 834.753,-72.685 834.902,-72.7228 834.902,-72.7228 836.331,-73.085 836.331,-73.085 836.48,-73.1228 836.777,-73.2034 836.925,-73.2461 836.925,-73.2461 838.251,-73.6293 838.251,-73.6293 838.398,-73.672 838.692,-73.7629 838.839,-73.811 838.839,-73.811 840.056,-74.2117 840.056,-74.2117 840.202,-74.2599 840.492,-74.3621 840.636,-74.4161 840.636,-74.4161 841.741,-74.8306 841.741,-74.8306 841.885,-74.8847 842.17,-74.9994 842.312,-75.0601 842.312,-75.0601 843.301,-75.4841 843.301,-75.4841 843.442,-75.5447 843.722,-75.6733 843.86,-75.7412 843.86,-75.7412 844.732,-76.1701 844.732,-76.1701 844.87,-76.238 845.142,-76.3819 845.276,-76.4578 845.276,-76.4578 846.031,-76.8866 846.031,-76.8866 846.165,-76.9626 846.428,-77.1234 846.556,-77.2082 846.556,-77.2082 847.197,-77.6315 847.197,-77.6315 847.325,-77.7164 847.575,-77.8957 847.696,-77.9902 847.696,-77.9902 848.227,-78.4028 848.227,-78.4028 848.348,-78.4973 848.582,-78.6967 848.695,-78.8016 848.695,-78.8016 849.12,-79.1984 849.12,-79.1984 849.233,-79.3033 849.447,-79.524 849.548,-79.6397 849.548,-79.6397 849.878,-80.0166 849.878,-80.0166 849.98,-80.1324 850.169,-80.3747 850.256,-80.5013 850.256,-80.5013 850.501,-80.8562 850.501,-80.8562 850.589,-80.9827 850.747,-81.246 850.818,-81.3826 850.818,-81.3826 850.991,-81.7161 850.991,-81.7161 851.062,-81.8528 851.184,-82.1345 851.235,-82.2795 851.235,-82.2795 851.348,-82.5959 851.348,-82.5959 851.399,-82.7409 851.481,-83.0369 851.511,-83.1878 851.511,-83.1878 851.572,-83.4947 851.572,-83.4947 851.603,-83.6456 851.641,-83.9502 851.649,-84.1039 851.649,-84.1039 851.665,-84.4113 851.665,-84.4113 851.674,-84.565 851.668,-84.872 851.655,-85.0253 851.655,-85.0253 851.627,-85.3431 851.627,-85.3431 851.614,-85.4964 851.568,-85.8 851.534,-85.9503 851.534,-85.9503 851.46,-86.2867 851.46,-86.2867 851.427,-86.437 851.343,-86.7325 851.292,-86.8778 851.292,-86.8778 851.166,-87.2381 851.166,-87.2381 851.115,-87.3834 850.998,-87.6677 850.933,-87.8068 850.933,-87.8068 850.749,-88.1932 850.749,-88.1932 850.684,-88.3323 850.539,-88.6036 850.46,-88.736 850.46,-88.736 850.215,-89.1481 850.215,-89.1481 850.137,-89.2804 849.969,-89.5382 849.88,-89.6636 849.88,-89.6636 849.57,-90.0995 849.57,-90.0995 849.481,-90.2249 849.293,-90.4689 849.195,-90.5876 849.195,-90.5876 848.818,-91.044 848.818,-91.044 848.72,-91.1627 848.517,-91.3936 848.412,-91.5058 848.412,-91.5058 847.968,-91.979 847.968,-91.979 847.862,-92.0912 847.646,-92.3096 847.534,-92.4157 847.534,-92.4157 847.024,-92.9017 847.024,-92.9017 846.913,-93.0079 846.684,-93.2145 846.568,-93.3149 846.568,-93.3149 845.993,-93.8097 845.993,-93.8097 845.877,-93.9101 845.639,-94.1057 845.518,-94.2008 845.518,-94.2008 844.882,-94.7005 844.882,-94.7005 844.761,-94.7956 844.515,-94.9807 844.391,-95.0708 844.391,-95.0708 843.696,-95.5717 843.696,-95.5717 843.572,-95.6618 843.319,-95.8372 843.191,-95.9225 843.191,-95.9225 842.442,-96.4212 842.442,-96.4212 842.314,-96.5065 842.055,-96.6726 841.924,-96.7535 841.924,-96.7535 841.125,-97.2465 841.125,-97.2465 840.994,-97.3274 840.73,-97.4847 840.596,-97.5613 840.596,-97.5613 839.751,-98.0457 839.751,-98.0457 839.617,-98.1223 839.348,-98.2712 839.212,-98.3436 839.212,-98.3436 838.325,-98.8167 838.325,-98.8167 838.189,-98.8891 837.915,-99.0299 837.778,-99.0983 837.778,-99.0983 836.852,-99.5573 836.852,-99.5573 836.714,-99.6257 836.437,-99.7586 836.297,-99.823 836.297,-99.823 835.338,-100.266 835.338,-100.266 835.198,-100.33 834.917,-100.455 834.776,-100.516 834.776,-100.516 833.787,-100.94 833.787,-100.94 833.645,-101.001 833.361,-101.118 833.218,-101.175 833.218,-101.175 832.202,-101.578 832.202,-101.578 832.059,-101.635 831.772,-101.745 831.627,-101.798 831.627,-101.798 830.589,-102.179 830.589,-102.179 830.445,-102.232 830.155,-102.334 830.009,-102.384 830.009,-102.384 828.951,-102.741 828.951,-102.741 828.805,-102.79 828.512,-102.885 828.365,-102.93 828.365,-102.93 827.291,-103.262 827.291,-103.262 827.144,-103.307 826.849,-103.394 826.701,-103.436 826.701,-103.436 825.613,-103.741 825.613,-103.741 825.464,-103.783 825.167,-103.862 825.018,-103.899 825.018,-103.899 823.918,-104.177 823.918,-104.177 823.769,-104.214 823.469,-104.286 823.319,-104.319 823.319,-104.319 822.21,-104.568 822.21,-104.568 822.06,-104.602 821.759,-104.665 821.608,-104.695 821.608,-104.695 820.491,-104.914 820.491,-104.914 820.34,-104.944 820.037,-104.999 819.886,-105.024 819.886,-105.024 818.763,-105.214 818.763,-105.214 818.611,-105.239 818.307,-105.286 818.154,-105.307 818.154,-105.307 817.027,-105.466 817.027,-105.466 816.875,-105.487 816.569,-105.526 816.416,-105.543 816.416,-105.543 815.285,-105.67 815.285,-105.67 815.132,-105.687 814.826,-105.718 814.673,-105.731 814.673,-105.731 813.539,-105.826 813.539,-105.826 813.386,-105.839 813.079,-105.861 812.925,-105.869 812.925,-105.869 811.79,-105.933 811.79,-105.933 811.637,-105.942 811.329,-105.955 811.175,-105.959 811.175,-105.959 810.039,-105.991 810.039,-105.991 809.885,-105.996 809.577,-106 809.424,-106 809.424,-106 808.287,-106 808.287,-106 808.133,-106 807.825,-105.996 807.672,-105.991 807.672,-105.991 806.535,-105.959 806.535,-105.959 806.382,-105.955 806.074,-105.942 805.92,-105.933 805.92,-105.933 804.785,-105.869 804.785,-105.869 804.632,-105.861 804.325,-105.839 804.171,-105.826 804.171,-105.826 803.038,-105.731 803.038,-105.731 802.884,-105.718 802.578,-105.687 802.425,-105.67 802.425,-105.67 801.294,-105.543 801.294,-105.543 801.141,-105.526 800.836,-105.487 800.684,-105.466 800.684,-105.466 799.556,-105.307 799.556,-105.307 799.404,-105.286 799.1,-105.239 798.948,-105.214 798.948,-105.214 797.825,-105.024 797.825,-105.024 797.673,-104.999 797.371,-104.944 797.219,-104.914 797.219,-104.914 796.103,-104.695 796.103,-104.695 795.952,-104.665 795.651,-104.602 795.5,-104.568 795.5,-104.568 794.391,-104.319 794.391,-104.319 794.241,-104.286 793.942,-104.214 793.792,-104.177 793.792,-104.177 792.693,-103.899 792.693,-103.899 792.544,-103.862 792.246,-103.783 792.098,-103.741 792.098,-103.741 791.01,-103.436 791.01,-103.436 790.862,-103.394 790.566,-103.307 790.419,-103.262 790.419,-103.262 789.345,-102.93 789.345,-102.93 789.198,-102.885 788.905,-102.79 788.759,-102.741 788.759,-102.741 787.702,-102.384 787.702,-102.384 787.556,-102.334 787.266,-102.232 787.121,-102.179 787.121,-102.179 786.083,-101.798 786.083,-101.798 785.939,-101.745 785.651,-101.635 785.508,-101.578 785.508,-101.578 784.493,-101.175 784.493,-101.175 784.35,-101.118 784.065,-101.001 783.924,-100.94 783.924,-100.94 782.935,-100.516 782.935,-100.516 782.793,-100.455 782.512,-100.33 782.373,-100.266 782.373,-100.266 781.413,-99.823 781.413,-99.823 781.274,-99.7586 780.996,-99.6257 780.858,-99.5573 780.858,-99.5573 779.933,-99.0983 779.933,-99.0983 779.795,-99.0299 779.521,-98.8891 779.386,-98.8167 779.386,-98.8167 778.498,-98.3436 778.498,-98.3436 778.363,-98.2712 778.093,-98.1223 777.96,-98.0457 777.96,-98.0457 777.114,-97.5613 777.114,-97.5613 776.981,-97.4847 776.716,-97.3274 776.586,-97.2465 776.586,-97.2465 775.787,-96.7535 775.787,-96.7535 775.656,-96.6726 775.397,-96.5065 775.268,-96.4212 775.268,-96.4212 774.52,-95.9225 774.52,-95.9225 774.392,-95.8372 774.139,-95.6618 774.014,-95.5717 774.014,-95.5717 773.32,-95.0708 773.32,-95.0708 773.195,-94.9807 772.949,-94.7956 772.828,-94.7005 772.828,-94.7005 772.192,-94.2008 772.192,-94.2008 772.071,-94.1057 771.834,-93.9101 771.717,-93.8097 771.717,-93.8097 771.143,-93.3149 771.143,-93.3149 771.026,-93.2145 770.798,-93.0079 770.687,-92.9017 770.687,-92.9017 770.176,-92.4157 770.176,-92.4157 770.065,-92.3096 769.848,-92.0912 769.743,-91.979 769.743,-91.979 769.299,-91.5058 769.299,-91.5058 769.193,-91.3936 768.99,-91.1627 768.892,-91.044 768.892,-91.044 768.515,-90.5876 768.515,-90.5876 768.417,-90.4689 768.23,-90.2249 768.141,-90.0995 768.141,-90.0995 767.831,-89.6636 767.831,-89.6636 767.742,-89.5382 767.574,-89.2804 767.495,-89.1481 767.495,-89.1481 767.25,-88.736 767.25,-88.736 767.172,-88.6036 767.027,-88.3323 766.961,-88.1932 766.961,-88.1932 766.778,-87.8068 766.778,-87.8068 766.712,-87.6677 766.595,-87.3834 766.545,-87.2381 766.545,-87.2381 766.419,-86.8778 766.419,-86.8778 766.368,-86.7325 766.284,-86.437 766.25,-86.2867 766.25,-86.2867 766.176,-85.9503 766.176,-85.9503 766.143,-85.8 766.096,-85.4964 766.083,-85.3431 766.083,-85.3431 766.055,-85.0253 766.055,-85.0253 766.042,-84.872 766.037,-84.565 766.045,-84.4113 766.045,-84.4113 766.061,-84.1039 766.061,-84.1039 766.07,-83.9502 766.108,-83.6456 766.138,-83.4947 766.138,-83.4947 766.2,-83.1878 766.2,-83.1878 766.23,-83.0369 766.311,-82.7409 766.363,-82.5959 766.363,-82.5959 766.475,-82.2795 766.475,-82.2795 766.527,-82.1345 766.649,-81.8528 766.72,-81.7161 766.72,-81.7161 766.892,-81.3826 766.892,-81.3826 766.963,-81.246 767.122,-80.9827 767.209,-80.8562 767.209,-80.8562 767.454,-80.5013 767.454,-80.5013 767.542,-80.3747 767.731,-80.1324 767.832,-80.0166 767.832,-80.0166 768.162,-79.6397 768.162,-79.6397 768.264,-79.524 768.478,-79.3033 768.59,-79.1984 768.59,-79.1984 769.016,-78.8016 769.016,-78.8016 769.129,-78.6967 769.363,-78.4973 769.484,-78.4028 769.484,-78.4028 770.014,-77.9902 770.014,-77.9902 770.136,-77.8957 770.385,-77.7164 770.514,-77.6315 770.514,-77.6315 771.155,-77.2082 771.155,-77.2082 771.283,-77.1234 771.545,-76.9626 771.679,-76.8866 771.679,-76.8866 772.435,-76.4578 772.435,-76.4578 772.568,-76.3819 772.84,-76.238 772.979,-76.1701 772.979,-76.1701 773.851,-75.7412 773.851,-75.7412 773.989,-75.6733 774.268,-75.5447 774.41,-75.4841 774.41,-75.4841 775.399,-75.0601 775.399,-75.0601 775.54,-74.9994 775.826,-74.8847 775.97,-74.8306 775.97,-74.8306 777.074,-74.4161 777.074,-74.4161 777.218,-74.3621 777.509,-74.2599 777.655,-74.2117 777.655,-74.2117 778.872,-73.811 778.872,-73.811 779.018,-73.7629 779.312,-73.672 779.46,-73.6293 779.46,-73.6293 780.786,-73.2461 780.786,-73.2461 780.933,-73.2034 781.23,-73.1228 781.38,-73.085 781.38,-73.085 782.809,-72.7228 782.809,-72.7228 782.958,-72.685 783.257,-72.6139 783.408,-72.5806 783.408,-72.5806 784.934,-72.2424 784.934,-72.2424 785.085,-72.2092 785.386,-72.1468 785.537,-72.1177 785.537,-72.1177 787.154,-71.8061 787.154,-71.8061 787.305,-71.777 787.608,-71.7227 787.76,-71.6974 787.76,-71.6974 789.461,-71.4149 789.461,-71.4149 789.613,-71.3897 789.917,-71.3429 790.069,-71.3213 790.069,-71.3213 791.844,-71.0698 791.844,-71.0698 791.997,-71.0482 792.302,-71.0085 792.455,-70.9903 792.455,-70.9903 794.296,-70.7716 794.296,-70.7716 794.449,-70.7535 794.755,-70.7204 794.908,-70.7056 794.908,-70.7056 796.806,-70.5211 796.806,-70.5211 796.96,-70.5062 797.266,-70.4796 797.42,-70.4678 797.42,-70.4678 799.365,-70.3189 799.365,-70.3189 799.518,-70.3071 799.825,-70.2866 799.979,-70.2779 799.979,-70.2779 801.961,-70.1653 801.961,-70.1653 802.115,-70.1566 802.422,-70.1421 802.576,-70.1363 802.576,-70.1363 804.585,-70.0609 804.585,-70.0609 804.738,-70.0551 805.046,-70.0465 805.2,-70.0436 805.2,-70.0436 807.225,-70.0058 807.225,-70.0058 807.379,-70.0029 807.686,-70 807.84,-70 807.84,-70 809.87,-70 809.87,-70 810.024,-70 810.332,-70.0029 810.486,-70.0058 810.486,-70.0058 812.511,-70.0436 812.511,-70.0436 812.664,-70.0465 812.972,-70.0551 813.126,-70.0609"/>
<text text-anchor="middle" x="808.855" y="-84.3" font-family="Times New Roman,serif" font-size="14.00">order=4</text>
</g>
</g>
</svg>
