<?xml version="1.0" encoding="UTF-8" standalone="no"?>
<!DOCTYPE svg PUBLIC "-//W3C//DTD SVG 1.1//EN"
 "http://www.w3.org/Graphics/SVG/1.1/DTD/svg11.dtd">
<!-- Generated by graphviz version 2.38.0 (20140413.2041)
 -->
<!-- Title: %3 Pages: 1 -->
<svg width="2343pt" height="2042pt"
 viewBox="0.00 0.00 2343.00 2042.00" xmlns="http://www.w3.org/2000/svg" xmlns:xlink="http://www.w3.org/1999/xlink">
<g id="graph0" class="graph" transform="scale(1 1) rotate(0) translate(4 2038)">
<title>%3</title>
<polygon fill="white" stroke="none" points="-4,4 -4,-2038 2339,-2038 2339,4 -4,4"/>
<!-- _Bnodes{grow -->
<g id="node1" class="node"><title>_Bnodes{grow</title>
<path fill="#ffe599" stroke="black" d="M2323,-1947C2323,-1947 1829,-1947 1829,-1947 1823,-1947 1817,-1941 1817,-1935 1817,-1935 1817,-1923 1817,-1923 1817,-1917 1823,-1911 1829,-1911 1829,-1911 2323,-1911 2323,-1911 2329,-1911 2335,-1917 2335,-1923 2335,-1923 2335,-1935 2335,-1935 2335,-1941 2329,-1947 2323,-1947"/>
<text text-anchor="middle" x="2076" y="-1925.3" font-family="Times New Roman,serif" font-size="14.00">_Bnodes{grow</text>
</g>
<!-- ancestors{pop() -->
<g id="node15" class="node"><title>ancestors{pop()</title>
<path fill="#ff5e99" stroke="black" d="M1513,-1860C1513,-1860 1429,-1860 1429,-1860 1423,-1860 1417,-1854 1417,-1848 1417,-1848 1417,-1836 1417,-1836 1417,-1830 1423,-1824 1429,-1824 1429,-1824 1513,-1824 1513,-1824 1519,-1824 1525,-1830 1525,-1836 1525,-1836 1525,-1848 1525,-1848 1525,-1854 1519,-1860 1513,-1860"/>
<text text-anchor="middle" x="1471" y="-1838.3" font-family="Times New Roman,serif" font-size="14.00">ancestors{pop()</text>
</g>
<!-- _Bnodes{grow&#45;&gt;ancestors{pop() -->
<g id="edge2" class="edge"><title>_Bnodes{grow&#45;&gt;ancestors{pop()</title>
<path fill="none" stroke="black" d="M1954.66,-1910.95C1828.1,-1893.17 1634.56,-1865.98 1535.02,-1852"/>
<polygon fill="black" stroke="black" points="1535.5,-1848.53 1525.11,-1850.6 1534.52,-1855.46 1535.5,-1848.53"/>
<text text-anchor="middle" x="1928" y="-1881.8" font-family="Times New Roman,serif" font-size="14.00">{ parent,parent_index = ancestors.pop() }</text>
</g>
<!-- //2 -->
<g id="node2" class="node"><title>//2</title>
<path fill="#ffe599" stroke="black" d="M1335,-1773C1335,-1773 1305,-1773 1305,-1773 1299,-1773 1293,-1767 1293,-1761 1293,-1761 1293,-1749 1293,-1749 1293,-1743 1299,-1737 1305,-1737 1305,-1737 1335,-1737 1335,-1737 1341,-1737 1347,-1743 1347,-1749 1347,-1749 1347,-1761 1347,-1761 1347,-1767 1341,-1773 1335,-1773"/>
<text text-anchor="middle" x="1320" y="-1751.3" font-family="Times New Roman,serif" font-size="14.00">//2</text>
</g>
<!-- parent_index + 1 &lt; len(parent{children) -->
<g id="node6" class="node"><title>parent_index + 1 &lt; len(parent{children)</title>
<path fill="#ffce9f" stroke="black" d="M1270.04,-1685.01C1270.04,-1685.01 1076.28,-1668.99 1076.28,-1668.99 1070.3,-1668.49 1070.3,-1667.51 1076.28,-1667.01 1076.28,-1667.01 1270.04,-1650.99 1270.04,-1650.99 1276.02,-1650.49 1287.98,-1650.49 1293.96,-1650.99 1293.96,-1650.99 1487.72,-1667.01 1487.72,-1667.01 1493.7,-1667.51 1493.7,-1668.49 1487.72,-1668.99 1487.72,-1668.99 1293.96,-1685.01 1293.96,-1685.01 1287.98,-1685.51 1276.02,-1685.51 1270.04,-1685.01"/>
<text text-anchor="middle" x="1282" y="-1664.3" font-family="Times New Roman,serif" font-size="14.00">parent_index + 1 &lt; len(parent{children)</text>
</g>
<!-- //2&#45;&gt;parent_index + 1 &lt; len(parent{children) -->
<g id="edge4" class="edge"><title>//2&#45;&gt;parent_index + 1 &lt; len(parent{children)</title>
<path fill="none" stroke="black" d="M1312.31,-1736.8C1306.94,-1724.78 1299.66,-1708.51 1293.59,-1694.92"/>
<polygon fill="black" stroke="black" points="1296.7,-1693.3 1289.42,-1685.6 1290.31,-1696.15 1296.7,-1693.3"/>
<text text-anchor="middle" x="1383" y="-1707.8" font-family="Times New Roman,serif" font-size="14.00">{ left_sib=right_sib=None }</text>
</g>
<!-- left_sib or _Bnodes -->
<g id="node3" class="node"><title>left_sib or _Bnodes</title>
<path fill="#ffe599" stroke="black" d="M920,-123C920,-123 816,-123 816,-123 810,-123 804,-117 804,-111 804,-111 804,-99 804,-99 804,-93 810,-87 816,-87 816,-87 920,-87 920,-87 926,-87 932,-93 932,-99 932,-99 932,-111 932,-111 932,-117 926,-123 920,-123"/>
<text text-anchor="middle" x="868" y="-101.3" font-family="Times New Roman,serif" font-size="14.00">left_sib or _Bnodes</text>
</g>
<!-- end -->
<g id="node31" class="node"><title>end</title>
<ellipse fill="none" stroke="black" cx="718" cy="-18" rx="27" ry="18"/>
<text text-anchor="middle" x="718" y="-14.3" font-family="Times New Roman,serif" font-size="14.00">end</text>
</g>
<!-- left_sib or _Bnodes&#45;&gt;end -->
<g id="edge40" class="edge"><title>left_sib or _Bnodes&#45;&gt;end</title>
<path fill="none" stroke="black" d="M837.645,-86.799C811.265,-71.8502 773.299,-50.336 747.249,-35.5745"/>
<polygon fill="black" stroke="black" points="748.66,-32.3513 738.235,-30.4662 745.209,-38.4415 748.66,-32.3513"/>
<text text-anchor="middle" x="933.5" y="-57.8" font-family="Times New Roman,serif" font-size="14.00">{ _Bnodes{tree{_root = left_sib or _Bnodes }</text>
</g>
<!-- right_sib{lateral_left -->
<g id="node4" class="node"><title>right_sib{lateral_left</title>
<path fill="#ffe599" stroke="black" d="M673.5,-1312C673.5,-1312 568.5,-1312 568.5,-1312 562.5,-1312 556.5,-1306 556.5,-1300 556.5,-1300 556.5,-1288 556.5,-1288 556.5,-1282 562.5,-1276 568.5,-1276 568.5,-1276 673.5,-1276 673.5,-1276 679.5,-1276 685.5,-1282 685.5,-1288 685.5,-1288 685.5,-1300 685.5,-1300 685.5,-1306 679.5,-1312 673.5,-1312"/>
<text text-anchor="middle" x="621" y="-1290.3" font-family="Times New Roman,serif" font-size="14.00">right_sib{lateral_left</text>
</g>
<!-- right_sib{lateral_left&#45;&gt;end -->
<g id="edge8" class="edge"><title>right_sib{lateral_left&#45;&gt;end</title>
<path fill="none" stroke="black" d="M621,-1275.94C621,-1258.02 621,-1229.03 621,-1204 621,-1204 621,-1204 621,-104 621,-68.9964 657.171,-45.0465 685.338,-31.7032"/>
<polygon fill="black" stroke="black" points="686.828,-34.8708 694.519,-27.5841 683.962,-28.4841 686.828,-34.8708"/>
</g>
<!-- left_sib{lateral_right -->
<g id="node5" class="node"><title>left_sib{lateral_right</title>
<path fill="#ffe599" stroke="black" d="M797.5,-1044C797.5,-1044 692.5,-1044 692.5,-1044 686.5,-1044 680.5,-1038 680.5,-1032 680.5,-1032 680.5,-1020 680.5,-1020 680.5,-1014 686.5,-1008 692.5,-1008 692.5,-1008 797.5,-1008 797.5,-1008 803.5,-1008 809.5,-1014 809.5,-1020 809.5,-1020 809.5,-1032 809.5,-1032 809.5,-1038 803.5,-1044 797.5,-1044"/>
<text text-anchor="middle" x="745" y="-1022.3" font-family="Times New Roman,serif" font-size="14.00">left_sib{lateral_right</text>
</g>
<!-- left_sib{lateral_right&#45;&gt;end -->
<g id="edge14" class="edge"><title>left_sib{lateral_right&#45;&gt;end</title>
<path fill="none" stroke="black" d="M717.316,-1007.8C692.175,-989.802 659,-959.04 659,-922 659,-922 659,-922 659,-104 659,-78.5283 677.101,-55.196 693.251,-39.4477"/>
<polygon fill="black" stroke="black" points="695.964,-41.7064 700.935,-32.3498 691.214,-36.5645 695.964,-41.7064"/>
</g>
<!-- parent? -->
<g id="node9" class="node"><title>parent?</title>
<path fill="#ffce9f" stroke="black" d="M1110.02,-1387.27C1110.02,-1387.27 660.978,-1359.73 660.978,-1359.73 654.989,-1359.37 654.989,-1358.63 660.978,-1358.27 660.978,-1358.27 1110.02,-1330.73 1110.02,-1330.73 1116.01,-1330.37 1127.99,-1330.37 1133.98,-1330.73 1133.98,-1330.73 1583.02,-1358.27 1583.02,-1358.27 1589.01,-1358.63 1589.01,-1359.37 1583.02,-1359.73 1583.02,-1359.73 1133.98,-1387.27 1133.98,-1387.27 1127.99,-1387.63 1116.01,-1387.63 1110.02,-1387.27"/>
<text text-anchor="middle" x="1122" y="-1355.3" font-family="Times New Roman,serif" font-size="14.00">parent?</text>
</g>
<!-- parent_index + 1 &lt; len(parent{children)&#45;&gt;parent? -->
<g id="edge10" class="edge"><title>parent_index + 1 &lt; len(parent{children)&#45;&gt;parent?</title>
<path fill="none" stroke="black" d="M1285.56,-1650.15C1293.08,-1609.94 1306.51,-1506.65 1263,-1439 1248.73,-1416.81 1225.92,-1400.27 1202.77,-1388.21"/>
<polygon fill="black" stroke="black" points="1204.07,-1384.95 1193.56,-1383.64 1200.96,-1391.22 1204.07,-1384.95"/>
<text text-anchor="middle" x="1302.5" y="-1518.8" font-family="Times New Roman,serif" font-size="14.00">NO</text>
</g>
<!-- parent{children{[parent_index+1] -->
<g id="node16" class="node"><title>parent{children{[parent_index+1]</title>
<path fill="#ff5e99" stroke="black" d="M855.5,-1584C855.5,-1584 674.5,-1584 674.5,-1584 668.5,-1584 662.5,-1578 662.5,-1572 662.5,-1572 662.5,-1560 662.5,-1560 662.5,-1554 668.5,-1548 674.5,-1548 674.5,-1548 855.5,-1548 855.5,-1548 861.5,-1548 867.5,-1554 867.5,-1560 867.5,-1560 867.5,-1572 867.5,-1572 867.5,-1578 861.5,-1584 855.5,-1584"/>
<text text-anchor="middle" x="765" y="-1562.3" font-family="Times New Roman,serif" font-size="14.00">parent{children{[parent_index+1]</text>
</g>
<!-- parent_index + 1 &lt; len(parent{children)&#45;&gt;parent{children{[parent_index+1] -->
<g id="edge5" class="edge"><title>parent_index + 1 &lt; len(parent{children)&#45;&gt;parent{children{[parent_index+1]</title>
<path fill="none" stroke="#ea4f16" d="M1181.2,-1658.28C1126.65,-1652.63 1058.28,-1644.05 998,-1632 939.37,-1620.28 873.887,-1601.49 827.308,-1587.12"/>
<polygon fill="#ea4f16" stroke="#ea4f16" points="828.253,-1583.75 817.665,-1584.13 826.177,-1590.43 828.253,-1583.75"/>
<text text-anchor="middle" x="1133" y="-1620.8" font-family="Times New Roman,serif" font-size="14.00">Yes</text>
<text text-anchor="middle" x="1133" y="-1605.8" font-family="Times New Roman,serif" font-size="14.00"> {right_sib=parent{contents{[parent_index+1] }</text>
</g>
<!-- len(right_sib{contents) &gt; minimum -->
<g id="node7" class="node"><title>len(right_sib{contents) &gt; minimum</title>
<path fill="#ffce9f" stroke="black" d="M615.013,-1496.45C615.013,-1496.45 11.9872,-1468.55 11.9872,-1468.55 5.99359,-1468.28 5.99359,-1467.72 11.9872,-1467.45 11.9872,-1467.45 615.013,-1439.55 615.013,-1439.55 621.006,-1439.28 632.994,-1439.28 638.987,-1439.55 638.987,-1439.55 1242.01,-1467.45 1242.01,-1467.45 1248.01,-1467.72 1248.01,-1468.28 1242.01,-1468.55 1242.01,-1468.55 638.987,-1496.45 638.987,-1496.45 632.994,-1496.72 621.006,-1496.72 615.013,-1496.45"/>
<text text-anchor="middle" x="627" y="-1464.3" font-family="Times New Roman,serif" font-size="14.00">len(right_sib{contents) &gt; minimum</text>
</g>
<!-- len(right_sib{contents) &gt; minimum&#45;&gt;right_sib{lateral_left -->
<g id="edge7" class="edge"><title>len(right_sib{contents) &gt; minimum&#45;&gt;right_sib{lateral_left</title>
<path fill="none" stroke="black" d="M626.023,-1438.98C624.9,-1406.79 623.069,-1354.32 621.956,-1322.4"/>
<polygon fill="black" stroke="black" points="625.441,-1321.9 621.594,-1312.03 618.445,-1322.15 625.441,-1321.9"/>
<text text-anchor="middle" x="725.5" y="-1409.8" font-family="Times New Roman,serif" font-size="14.00">Yes (parent,parent_index,_Bnodes)</text>
</g>
<!-- len(right_sib{contents) &gt; minimum&#45;&gt;parent? -->
<g id="edge9" class="edge"><title>len(right_sib{contents) &gt; minimum&#45;&gt;parent?</title>
<path fill="none" stroke="black" d="M733.798,-1443.91C815.595,-1426.23 928.093,-1401.92 1010.93,-1384.01"/>
<polygon fill="black" stroke="black" points="1011.85,-1387.39 1020.88,-1381.86 1010.37,-1380.55 1011.85,-1387.39"/>
<text text-anchor="middle" x="915.5" y="-1409.8" font-family="Times New Roman,serif" font-size="14.00">NO</text>
</g>
<!-- len(left_sib{contents) &gt; minimum -->
<g id="node8" class="node"><title>len(left_sib{contents) &gt; minimum</title>
<path fill="#ffce9f" stroke="black" d="M1085.06,-1183.85C1085.06,-1183.85 922.267,-1168.15 922.267,-1168.15 916.294,-1167.58 916.294,-1166.42 922.267,-1165.85 922.267,-1165.85 1085.06,-1150.15 1085.06,-1150.15 1091.03,-1149.58 1102.97,-1149.58 1108.94,-1150.15 1108.94,-1150.15 1271.73,-1165.85 1271.73,-1165.85 1277.71,-1166.42 1277.71,-1167.58 1271.73,-1168.15 1271.73,-1168.15 1108.94,-1183.85 1108.94,-1183.85 1102.97,-1184.42 1091.03,-1184.42 1085.06,-1183.85"/>
<text text-anchor="middle" x="1097" y="-1163.3" font-family="Times New Roman,serif" font-size="14.00">len(left_sib{contents) &gt; minimum</text>
</g>
<!-- len(left_sib{contents) &gt; minimum&#45;&gt;left_sib{lateral_right -->
<g id="edge13" class="edge"><title>len(left_sib{contents) &gt; minimum&#45;&gt;left_sib{lateral_right</title>
<path fill="none" stroke="black" d="M991.319,-1159.16C955.548,-1154.17 916.058,-1145.61 882,-1131 837.733,-1112 794.856,-1075.65 769.195,-1051.36"/>
<polygon fill="black" stroke="black" points="771.432,-1048.66 761.801,-1044.24 766.577,-1053.7 771.432,-1048.66"/>
<text text-anchor="middle" x="987.5" y="-1119.8" font-family="Times New Roman,serif" font-size="14.00">Yes (parent,parent_index&#45;1,_Bnodes)</text>
</g>
<!-- left_sib? -->
<g id="node10" class="node"><title>left_sib?</title>
<path fill="#ffce9f" stroke="black" d="M1085.53,-1094.48C1085.53,-1094.48 1049.82,-1083.52 1049.82,-1083.52 1044.08,-1081.76 1044.08,-1078.24 1049.82,-1076.48 1049.82,-1076.48 1085.53,-1065.52 1085.53,-1065.52 1091.26,-1063.76 1102.74,-1063.76 1108.47,-1065.52 1108.47,-1065.52 1144.18,-1076.48 1144.18,-1076.48 1149.92,-1078.24 1149.92,-1081.76 1144.18,-1083.52 1144.18,-1083.52 1108.47,-1094.48 1108.47,-1094.48 1102.74,-1096.24 1091.26,-1096.24 1085.53,-1094.48"/>
<text text-anchor="middle" x="1097" y="-1076.3" font-family="Times New Roman,serif" font-size="14.00">left_sib?</text>
</g>
<!-- len(left_sib{contents) &gt; minimum&#45;&gt;left_sib? -->
<g id="edge15" class="edge"><title>len(left_sib{contents) &gt; minimum&#45;&gt;left_sib?</title>
<path fill="none" stroke="black" d="M1097,-1148.8C1097,-1137.16 1097,-1121.55 1097,-1108.24"/>
<polygon fill="black" stroke="black" points="1100.5,-1108.18 1097,-1098.18 1093.5,-1108.18 1100.5,-1108.18"/>
<text text-anchor="middle" x="1107.5" y="-1119.8" font-family="Times New Roman,serif" font-size="14.00">NO</text>
</g>
<!-- parent{children{[parent_index&#45;1] -->
<g id="node17" class="node"><title>parent{children{[parent_index&#45;1]</title>
<path fill="#ff5e99" stroke="black" d="M1188.5,-1258C1188.5,-1258 1011.5,-1258 1011.5,-1258 1005.5,-1258 999.5,-1252 999.5,-1246 999.5,-1246 999.5,-1234 999.5,-1234 999.5,-1228 1005.5,-1222 1011.5,-1222 1011.5,-1222 1188.5,-1222 1188.5,-1222 1194.5,-1222 1200.5,-1228 1200.5,-1234 1200.5,-1234 1200.5,-1246 1200.5,-1246 1200.5,-1252 1194.5,-1258 1188.5,-1258"/>
<text text-anchor="middle" x="1100" y="-1236.3" font-family="Times New Roman,serif" font-size="14.00">parent{children{[parent_index&#45;1]</text>
</g>
<!-- parent?&#45;&gt;parent{children{[parent_index&#45;1] -->
<g id="edge11" class="edge"><title>parent?&#45;&gt;parent{children{[parent_index&#45;1]</title>
<path fill="none" stroke="#0c2d5f" d="M1116.79,-1330.27C1113.24,-1311.43 1108.58,-1286.63 1105.07,-1267.96"/>
<polygon fill="#0c2d5f" stroke="#0c2d5f" points="1108.49,-1267.21 1103.2,-1258.02 1101.61,-1268.5 1108.49,-1267.21"/>
<text text-anchor="middle" x="1254" y="-1290.3" font-family="Times New Roman,serif" font-size="14.00">Yes,{ left_sib = parent{children[parent_index&#45;1] }</text>
</g>
<!-- parent{contents{[parent_index] -->
<g id="node18" class="node"><title>parent{contents{[parent_index]</title>
<path fill="#ff5e99" stroke="black" d="M1388.5,-990C1388.5,-990 803.5,-990 803.5,-990 797.5,-990 791.5,-984 791.5,-978 791.5,-978 791.5,-966 791.5,-966 791.5,-960 797.5,-954 803.5,-954 803.5,-954 1388.5,-954 1388.5,-954 1394.5,-954 1400.5,-960 1400.5,-966 1400.5,-966 1400.5,-978 1400.5,-978 1400.5,-984 1394.5,-990 1388.5,-990"/>
<text text-anchor="middle" x="1096" y="-968.3" font-family="Times New Roman,serif" font-size="14.00">parent{contents{[parent_index]</text>
</g>
<!-- left_sib?&#45;&gt;parent{contents{[parent_index] -->
<g id="edge24" class="edge"><title>left_sib?&#45;&gt;parent{contents{[parent_index]</title>
<path fill="none" stroke="#0c2d5f" d="M1096.84,-1061.97C1096.68,-1045.38 1096.44,-1019.88 1096.26,-1000.43"/>
<polygon fill="#0c2d5f" stroke="#0c2d5f" points="1099.76,-1000.31 1096.16,-990.341 1092.76,-1000.37 1099.76,-1000.31"/>
<text text-anchor="middle" x="1107.5" y="-1022.3" font-family="Times New Roman,serif" font-size="14.00">NO</text>
</g>
<!-- parent{contents{[parent_index&#45;1] -->
<g id="node19" class="node"><title>parent{contents{[parent_index&#45;1]</title>
<path fill="#ff5e99" stroke="black" d="M2027,-990C2027,-990 1431,-990 1431,-990 1425,-990 1419,-984 1419,-978 1419,-978 1419,-966 1419,-966 1419,-960 1425,-954 1431,-954 1431,-954 2027,-954 2027,-954 2033,-954 2039,-960 2039,-966 2039,-966 2039,-978 2039,-978 2039,-984 2033,-990 2027,-990"/>
<text text-anchor="middle" x="1729" y="-968.3" font-family="Times New Roman,serif" font-size="14.00">parent{contents{[parent_index&#45;1]</text>
</g>
<!-- left_sib?&#45;&gt;parent{contents{[parent_index&#45;1] -->
<g id="edge16" class="edge"><title>left_sib?&#45;&gt;parent{contents{[parent_index&#45;1]</title>
<path fill="none" stroke="#ea4f16" d="M1133.25,-1072.92C1225.46,-1057.45 1471.92,-1016.12 1617.33,-991.729"/>
<polygon fill="#ea4f16" stroke="#ea4f16" points="1618.34,-995.109 1627.62,-990.003 1617.18,-988.206 1618.34,-995.109"/>
<text text-anchor="middle" x="1518" y="-1022.3" font-family="Times New Roman,serif" font-size="14.00">Yes</text>
</g>
<!-- len(parent{contents &lt; minimum) -->
<g id="node11" class="node"><title>len(parent{contents &lt; minimum)</title>
<path fill="#ffce9f" stroke="black" d="M896.059,-368.813C896.059,-368.813 738.793,-353.187 738.793,-353.187 732.823,-352.593 732.823,-351.407 738.793,-350.813 738.793,-350.813 896.059,-335.187 896.059,-335.187 902.029,-334.593 913.971,-334.593 919.941,-335.187 919.941,-335.187 1077.21,-350.813 1077.21,-350.813 1083.18,-351.407 1083.18,-352.593 1077.21,-353.187 1077.21,-353.187 919.941,-368.813 919.941,-368.813 913.971,-369.407 902.029,-369.407 896.059,-368.813"/>
<text text-anchor="middle" x="908" y="-348.3" font-family="Times New Roman,serif" font-size="14.00">len(parent{contents &lt; minimum)</text>
</g>
<!-- ancestors? -->
<g id="node12" class="node"><title>ancestors?</title>
<path fill="#ffce9f" stroke="black" d="M896.381,-280C896.381,-280 849.907,-268 849.907,-268 844.097,-266.5 844.097,-263.5 849.907,-262 849.907,-262 896.381,-250 896.381,-250 902.191,-248.5 913.809,-248.5 919.619,-250 919.619,-250 966.093,-262 966.093,-262 971.903,-263.5 971.903,-266.5 966.093,-268 966.093,-268 919.619,-280 919.619,-280 913.809,-281.5 902.191,-281.5 896.381,-280"/>
<text text-anchor="middle" x="908" y="-261.3" font-family="Times New Roman,serif" font-size="14.00">ancestors?</text>
</g>
<!-- len(parent{contents &lt; minimum)&#45;&gt;ancestors? -->
<g id="edge34" class="edge"><title>len(parent{contents &lt; minimum)&#45;&gt;ancestors?</title>
<path fill="none" stroke="black" d="M908,-333.799C908,-322.163 908,-306.548 908,-293.237"/>
<polygon fill="black" stroke="black" points="911.5,-293.175 908,-283.175 904.5,-293.175 911.5,-293.175"/>
<text text-anchor="middle" x="919" y="-304.8" font-family="Times New Roman,serif" font-size="14.00">Yes</text>
</g>
<!-- len(parent{contents &lt; minimum)&#45;&gt;end -->
<g id="edge35" class="edge"><title>len(parent{contents &lt; minimum)&#45;&gt;end</title>
<path fill="none" stroke="black" d="M813.557,-343.304C765.872,-333.67 718,-312.435 718,-266 718,-266 718,-266 718,-104 718,-84.7526 718,-63.0535 718,-46.3973"/>
<polygon fill="black" stroke="black" points="721.5,-46.2564 718,-36.2564 714.5,-46.2565 721.5,-46.2564"/>
<text text-anchor="middle" x="728.5" y="-188.3" font-family="Times New Roman,serif" font-size="14.00">NO</text>
</g>
<!-- ancestors?&#45;&gt;_Bnodes{grow -->
<g id="edge36" class="edge"><title>ancestors?&#45;&gt;_Bnodes{grow</title>
<path fill="none" stroke="black" d="M969.519,-267.198C1211.28,-272.305 2083,-294.627 2083,-351 2083,-1843 2083,-1843 2083,-1843 2083,-1862.31 2081.18,-1884.01 2079.4,-1900.65"/>
<polygon fill="black" stroke="black" points="2075.9,-1900.45 2078.25,-1910.78 2082.86,-1901.24 2075.9,-1900.45"/>
<text text-anchor="middle" x="2158" y="-1083.8" font-family="Times New Roman,serif" font-size="14.00">Yes(ancestors)</text>
<text text-anchor="middle" x="2158" y="-1068.8" font-family="Times New Roman,serif" font-size="14.00">{ parent{grow(ancestors)}</text>
</g>
<!-- parent{contents? -->
<g id="node13" class="node"><title>parent{contents?</title>
<path fill="#ffce9f" stroke="black" d="M856.182,-207.916C856.182,-207.916 777.765,-194.084 777.765,-194.084 771.856,-193.042 771.856,-190.958 777.765,-189.916 777.765,-189.916 856.182,-176.084 856.182,-176.084 862.091,-175.042 873.909,-175.042 879.818,-176.084 879.818,-176.084 958.235,-189.916 958.235,-189.916 964.144,-190.958 964.144,-193.042 958.235,-194.084 958.235,-194.084 879.818,-207.916 879.818,-207.916 873.909,-208.958 862.091,-208.958 856.182,-207.916"/>
<text text-anchor="middle" x="868" y="-188.3" font-family="Times New Roman,serif" font-size="14.00">parent{contents?</text>
</g>
<!-- ancestors?&#45;&gt;parent{contents? -->
<g id="edge37" class="edge"><title>ancestors?&#45;&gt;parent{contents?</title>
<path fill="none" stroke="black" d="M899.517,-248.943C894.338,-239.75 887.595,-227.782 881.677,-217.276"/>
<polygon fill="black" stroke="black" points="884.705,-215.521 876.747,-208.526 878.606,-218.957 884.705,-215.521"/>
</g>
<!-- parent{contents?&#45;&gt;left_sib or _Bnodes -->
<g id="edge39" class="edge"><title>parent{contents?&#45;&gt;left_sib or _Bnodes</title>
<path fill="none" stroke="black" d="M868,-173.799C868,-162.163 868,-146.548 868,-133.237"/>
<polygon fill="black" stroke="black" points="871.5,-133.175 868,-123.175 864.5,-133.175 871.5,-133.175"/>
<text text-anchor="middle" x="877" y="-144.8" font-family="Times New Roman,serif" font-size="14.00">No</text>
</g>
<!-- parent{contents?&#45;&gt;end -->
<g id="edge38" class="edge"><title>parent{contents?&#45;&gt;end</title>
<path fill="none" stroke="black" d="M844.154,-178.184C823.362,-166.096 793.416,-146.371 773,-123 761.99,-110.396 742.538,-71.312 729.964,-44.8144"/>
<polygon fill="black" stroke="black" points="733.097,-43.2511 725.671,-35.6939 726.763,-46.2323 733.097,-43.2511"/>
<text text-anchor="middle" x="784" y="-101.3" font-family="Times New Roman,serif" font-size="14.00">Yes</text>
</g>
<!-- _Bnodes{children? -->
<g id="node14" class="node"><title>_Bnodes{children?</title>
<path fill="#ffce9f" stroke="black" d="M1359.01,-712.492C1359.01,-712.492 698.989,-684.508 698.989,-684.508 692.995,-684.254 692.995,-683.746 698.989,-683.492 698.989,-683.492 1359.01,-655.508 1359.01,-655.508 1365.01,-655.254 1376.99,-655.254 1382.99,-655.508 1382.99,-655.508 2043.01,-683.492 2043.01,-683.492 2049.01,-683.746 2049.01,-684.254 2043.01,-684.508 2043.01,-684.508 1382.99,-712.492 1382.99,-712.492 1376.99,-712.746 1365.01,-712.746 1359.01,-712.492"/>
<text text-anchor="middle" x="1371" y="-680.3" font-family="Times New Roman,serif" font-size="14.00">_Bnodes{children?</text>
</g>
<!-- left_sib{children{extend -->
<g id="node22" class="node"><title>left_sib{children{extend</title>
<path fill="#ff5e99" stroke="black" d="M1300,-589C1300,-589 756,-589 756,-589 750,-589 744,-583 744,-577 744,-577 744,-565 744,-565 744,-559 750,-553 756,-553 756,-553 1300,-553 1300,-553 1306,-553 1312,-559 1312,-565 1312,-565 1312,-577 1312,-577 1312,-583 1306,-589 1300,-589"/>
<text text-anchor="middle" x="1028" y="-567.3" font-family="Times New Roman,serif" font-size="14.00">left_sib{children{extend</text>
</g>
<!-- _Bnodes{children?&#45;&gt;left_sib{children{extend -->
<g id="edge20" class="edge"><title>_Bnodes{children?&#45;&gt;left_sib{children{extend</title>
<path fill="none" stroke="#ea4f16" d="M1282.11,-658.717C1258.58,-651.983 1233.25,-644.465 1210,-637 1167.08,-623.219 1119.07,-605.997 1083.15,-592.744"/>
<polygon fill="#ea4f16" stroke="#ea4f16" points="1083.94,-589.306 1073.35,-589.117 1081.51,-595.871 1083.94,-589.306"/>
<text text-anchor="middle" x="1343.5" y="-625.8" font-family="Times New Roman,serif" font-size="14.00">Yes (_Bnodes{children)</text>
<text text-anchor="middle" x="1343.5" y="-610.8" font-family="Times New Roman,serif" font-size="14.00">{left_sib{children{extend{(_Bnodes{children)}</text>
</g>
<!-- _Bnodes{children{extend -->
<g id="node25" class="node"><title>_Bnodes{children{extend</title>
<path fill="#ff5e99" stroke="black" d="M1895.5,-589C1895.5,-589 1342.5,-589 1342.5,-589 1336.5,-589 1330.5,-583 1330.5,-577 1330.5,-577 1330.5,-565 1330.5,-565 1330.5,-559 1336.5,-553 1342.5,-553 1342.5,-553 1895.5,-553 1895.5,-553 1901.5,-553 1907.5,-559 1907.5,-565 1907.5,-565 1907.5,-577 1907.5,-577 1907.5,-583 1901.5,-589 1895.5,-589"/>
<text text-anchor="middle" x="1619" y="-567.3" font-family="Times New Roman,serif" font-size="14.00">_Bnodes{children{extend</text>
</g>
<!-- _Bnodes{children?&#45;&gt;_Bnodes{children{extend -->
<g id="edge28" class="edge"><title>_Bnodes{children?&#45;&gt;_Bnodes{children{extend</title>
<path fill="none" stroke="#0c2d5f" d="M1428.21,-657.395C1471.74,-637.912 1530.92,-611.424 1571.77,-593.139"/>
<polygon fill="#0c2d5f" stroke="#0c2d5f" points="1573.27,-596.303 1580.97,-589.023 1570.41,-589.914 1573.27,-596.303"/>
<text text-anchor="middle" x="1676" y="-625.8" font-family="Times New Roman,serif" font-size="14.00">Yes (right_sib{children)</text>
<text text-anchor="middle" x="1676" y="-610.8" font-family="Times New Roman,serif" font-size="14.00">{_Bnodes{children{extend{(right_sib{children)}</text>
</g>
<!-- parent{contents{pop(parent_index&#45;1) -->
<g id="node26" class="node"><title>parent{contents{pop(parent_index&#45;1)</title>
<path fill="#ff5e99" stroke="black" d="M1009.5,-516C1009.5,-516 806.5,-516 806.5,-516 800.5,-516 794.5,-510 794.5,-504 794.5,-504 794.5,-492 794.5,-492 794.5,-486 800.5,-480 806.5,-480 806.5,-480 1009.5,-480 1009.5,-480 1015.5,-480 1021.5,-486 1021.5,-492 1021.5,-492 1021.5,-504 1021.5,-504 1021.5,-510 1015.5,-516 1009.5,-516"/>
<text text-anchor="middle" x="908" y="-494.3" font-family="Times New Roman,serif" font-size="14.00">parent{contents{pop(parent_index&#45;1)</text>
</g>
<!-- _Bnodes{children?&#45;&gt;parent{contents{pop(parent_index&#45;1) -->
<g id="edge21" class="edge"><title>_Bnodes{children?&#45;&gt;parent{contents{pop(parent_index&#45;1)</title>
<path fill="none" stroke="#ea4f16" d="M994.044,-670.948C869.879,-658.443 753.394,-634.432 714,-589 683.482,-553.805 729.477,-531.49 784.317,-517.884"/>
<polygon fill="#ea4f16" stroke="#ea4f16" points="785.352,-521.236 794.276,-515.527 783.739,-514.424 785.352,-521.236"/>
<text text-anchor="middle" x="724.5" y="-567.3" font-family="Times New Roman,serif" font-size="14.00">NO</text>
</g>
<!-- parent{contents{pop(parent_index) -->
<g id="node27" class="node"><title>parent{contents{pop(parent_index)</title>
<path fill="#ff5e99" stroke="black" d="M1714.5,-516C1714.5,-516 1523.5,-516 1523.5,-516 1517.5,-516 1511.5,-510 1511.5,-504 1511.5,-504 1511.5,-492 1511.5,-492 1511.5,-486 1517.5,-480 1523.5,-480 1523.5,-480 1714.5,-480 1714.5,-480 1720.5,-480 1726.5,-486 1726.5,-492 1726.5,-492 1726.5,-504 1726.5,-504 1726.5,-510 1720.5,-516 1714.5,-516"/>
<text text-anchor="middle" x="1619" y="-494.3" font-family="Times New Roman,serif" font-size="14.00">parent{contents{pop(parent_index)</text>
</g>
<!-- _Bnodes{children?&#45;&gt;parent{contents{pop(parent_index) -->
<g id="edge29" class="edge"><title>_Bnodes{children?&#45;&gt;parent{contents{pop(parent_index)</title>
<path fill="none" stroke="#0c2d5f" d="M1685.98,-668.328C1791.36,-655.541 1889.05,-632.022 1916,-589 1924.49,-575.441 1926.25,-565.284 1916,-553 1892.99,-525.427 1809.49,-511.9 1736.87,-505.283"/>
<polygon fill="#0c2d5f" stroke="#0c2d5f" points="1736.97,-501.778 1726.7,-504.394 1736.36,-508.751 1736.97,-501.778"/>
<text text-anchor="middle" x="1934.5" y="-567.3" font-family="Times New Roman,serif" font-size="14.00">NO</text>
</g>
<!-- ancestors{pop()&#45;&gt;//2 -->
<g id="edge3" class="edge"><title>ancestors{pop()&#45;&gt;//2</title>
<path fill="none" stroke="black" d="M1440.44,-1823.8C1416.08,-1810.09 1381.91,-1790.85 1356.18,-1776.37"/>
<polygon fill="black" stroke="black" points="1357.9,-1773.32 1347.47,-1771.46 1354.46,-1779.42 1357.9,-1773.32"/>
<text text-anchor="middle" x="1513.5" y="-1794.8" font-family="Times New Roman,serif" font-size="14.00">{ minimum = _Bnodes{tree{order//2 }</text>
</g>
<!-- parent{children{[parent_index+1]&#45;&gt;len(right_sib{contents) &gt; minimum -->
<g id="edge6" class="edge"><title>parent{children{[parent_index+1]&#45;&gt;len(right_sib{contents) &gt; minimum</title>
<path fill="none" stroke="#000000" d="M740.328,-1547.84C721.767,-1534.93 695.785,-1516.85 673.38,-1501.26"/>
<polygon fill="#000000" stroke="#000000" points="675.199,-1498.27 664.992,-1495.43 671.202,-1504.01 675.199,-1498.27"/>
</g>
<!-- parent{children{[parent_index&#45;1]&#45;&gt;len(left_sib{contents) &gt; minimum -->
<g id="edge12" class="edge"><title>parent{children{[parent_index&#45;1]&#45;&gt;len(left_sib{contents) &gt; minimum</title>
<path fill="none" stroke="#0c2d5f" d="M1099.27,-1221.81C1098.93,-1213.79 1098.52,-1204.05 1098.14,-1195.07"/>
<polygon fill="#0c2d5f" stroke="#0c2d5f" points="1101.64,-1194.87 1097.72,-1185.03 1094.64,-1195.17 1101.64,-1194.87"/>
</g>
<!-- _Bnodes{contents{append -->
<g id="node23" class="node"><title>_Bnodes{contents{append</title>
<path fill="#ff5e99" stroke="black" d="M1170.5,-888C1170.5,-888 1025.5,-888 1025.5,-888 1019.5,-888 1013.5,-882 1013.5,-876 1013.5,-876 1013.5,-864 1013.5,-864 1013.5,-858 1019.5,-852 1025.5,-852 1025.5,-852 1170.5,-852 1170.5,-852 1176.5,-852 1182.5,-858 1182.5,-864 1182.5,-864 1182.5,-876 1182.5,-876 1182.5,-882 1176.5,-888 1170.5,-888"/>
<text text-anchor="middle" x="1098" y="-866.3" font-family="Times New Roman,serif" font-size="14.00">_Bnodes{contents{append</text>
</g>
<!-- parent{contents{[parent_index]&#45;&gt;_Bnodes{contents{append -->
<g id="edge25" class="edge"><title>parent{contents{[parent_index]&#45;&gt;_Bnodes{contents{append</title>
<path fill="none" stroke="#0c2d5f" d="M1096.35,-953.581C1096.65,-938.382 1097.1,-916.067 1097.45,-898.464"/>
<polygon fill="#0c2d5f" stroke="#0c2d5f" points="1100.95,-898.287 1097.66,-888.219 1093.96,-898.147 1100.95,-898.287"/>
<text text-anchor="middle" x="1274" y="-924.8" font-family="Times New Roman,serif" font-size="14.00">(parent{contents{[index])</text>
<text text-anchor="middle" x="1274" y="-909.8" font-family="Times New Roman,serif" font-size="14.00">{ _Bnodes{contents{append(parent{contents[parent_index]) }</text>
</g>
<!-- left_sib{contents{append -->
<g id="node20" class="node"><title>left_sib{contents{append</title>
<path fill="#ff5e99" stroke="black" d="M1769,-888C1769,-888 1633,-888 1633,-888 1627,-888 1621,-882 1621,-876 1621,-876 1621,-864 1621,-864 1621,-858 1627,-852 1633,-852 1633,-852 1769,-852 1769,-852 1775,-852 1781,-858 1781,-864 1781,-864 1781,-876 1781,-876 1781,-882 1775,-888 1769,-888"/>
<text text-anchor="middle" x="1701" y="-866.3" font-family="Times New Roman,serif" font-size="14.00">left_sib{contents{append</text>
</g>
<!-- parent{contents{[parent_index&#45;1]&#45;&gt;left_sib{contents{append -->
<g id="edge17" class="edge"><title>parent{contents{[parent_index&#45;1]&#45;&gt;left_sib{contents{append</title>
<path fill="none" stroke="#ea4f16" d="M1720.8,-953.821C1718.36,-948.23 1715.84,-941.935 1714,-936 1710.21,-923.799 1707.26,-909.956 1705.14,-898.19"/>
<polygon fill="#ea4f16" stroke="#ea4f16" points="1708.55,-897.348 1703.42,-888.075 1701.65,-898.52 1708.55,-897.348"/>
<text text-anchor="middle" x="1891.5" y="-924.8" font-family="Times New Roman,serif" font-size="14.00">(parent{contents{[index])</text>
<text text-anchor="middle" x="1891.5" y="-909.8" font-family="Times New Roman,serif" font-size="14.00">{ left_sib{contents{append(parent{contents[parent_index&#45;1]) }</text>
</g>
<!-- left_sib{contents{extend -->
<g id="node21" class="node"><title>left_sib{contents{extend</title>
<path fill="#ff5e99" stroke="black" d="M1971.5,-786C1971.5,-786 1424.5,-786 1424.5,-786 1418.5,-786 1412.5,-780 1412.5,-774 1412.5,-774 1412.5,-762 1412.5,-762 1412.5,-756 1418.5,-750 1424.5,-750 1424.5,-750 1971.5,-750 1971.5,-750 1977.5,-750 1983.5,-756 1983.5,-762 1983.5,-762 1983.5,-774 1983.5,-774 1983.5,-780 1977.5,-786 1971.5,-786"/>
<text text-anchor="middle" x="1698" y="-764.3" font-family="Times New Roman,serif" font-size="14.00">left_sib{contents{extend</text>
</g>
<!-- left_sib{contents{append&#45;&gt;left_sib{contents{extend -->
<g id="edge18" class="edge"><title>left_sib{contents{append&#45;&gt;left_sib{contents{extend</title>
<path fill="none" stroke="black" d="M1700.48,-851.581C1700.02,-836.382 1699.35,-814.067 1698.82,-796.464"/>
<polygon fill="black" stroke="black" points="1702.31,-796.11 1698.52,-786.219 1695.32,-796.32 1702.31,-796.11"/>
<text text-anchor="middle" x="1833" y="-822.8" font-family="Times New Roman,serif" font-size="14.00">(_Bnodes{contents)</text>
<text text-anchor="middle" x="1833" y="-807.8" font-family="Times New Roman,serif" font-size="14.00">{left_sib{contents{extend(_Bnodes{contents)}</text>
</g>
<!-- left_sib{contents{extend&#45;&gt;_Bnodes{children? -->
<g id="edge19" class="edge"><title>left_sib{contents{extend&#45;&gt;_Bnodes{children?</title>
<path fill="none" stroke="#ea4f16" d="M1629.85,-749.91C1585.54,-738.799 1526.87,-724.087 1476.59,-711.479"/>
<polygon fill="#ea4f16" stroke="#ea4f16" points="1477.21,-708.025 1466.66,-708.987 1475.5,-714.814 1477.21,-708.025"/>
</g>
<!-- left_sib{children{extend&#45;&gt;parent{contents{pop(parent_index&#45;1) -->
<g id="edge22" class="edge"><title>left_sib{children{extend&#45;&gt;parent{contents{pop(parent_index&#45;1)</title>
<path fill="none" stroke="black" d="M999.257,-552.994C983.197,-543.491 962.991,-531.536 945.677,-521.292"/>
<polygon fill="black" stroke="black" points="947.313,-518.194 936.924,-516.114 943.749,-524.218 947.313,-518.194"/>
</g>
<!-- _Bnodes{contents{extend -->
<g id="node24" class="node"><title>_Bnodes{contents{extend</title>
<path fill="#ff5e99" stroke="black" d="M1382,-786C1382,-786 826,-786 826,-786 820,-786 814,-780 814,-774 814,-774 814,-762 814,-762 814,-756 820,-750 826,-750 826,-750 1382,-750 1382,-750 1388,-750 1394,-756 1394,-762 1394,-762 1394,-774 1394,-774 1394,-780 1388,-786 1382,-786"/>
<text text-anchor="middle" x="1104" y="-764.3" font-family="Times New Roman,serif" font-size="14.00">_Bnodes{contents{extend</text>
</g>
<!-- _Bnodes{contents{append&#45;&gt;_Bnodes{contents{extend -->
<g id="edge26" class="edge"><title>_Bnodes{contents{append&#45;&gt;_Bnodes{contents{extend</title>
<path fill="none" stroke="black" d="M1099.05,-851.581C1099.96,-836.382 1101.3,-814.067 1102.35,-796.464"/>
<polygon fill="black" stroke="black" points="1105.86,-796.411 1102.97,-786.219 1098.87,-795.991 1105.86,-796.411"/>
<text text-anchor="middle" x="1239" y="-822.8" font-family="Times New Roman,serif" font-size="14.00">(_Bnodes{contents)</text>
<text text-anchor="middle" x="1239" y="-807.8" font-family="Times New Roman,serif" font-size="14.00">{_Bnodes{contents{extend(right_sib{contents)}</text>
</g>
<!-- _Bnodes{contents{extend&#45;&gt;_Bnodes{children? -->
<g id="edge27" class="edge"><title>_Bnodes{contents{extend&#45;&gt;_Bnodes{children?</title>
<path fill="none" stroke="#0c2d5f" d="M1159.65,-749.91C1194.73,-739.134 1240.85,-724.972 1281.05,-712.627"/>
<polygon fill="#0c2d5f" stroke="#0c2d5f" points="1282.33,-715.894 1290.86,-709.613 1280.27,-709.203 1282.33,-715.894"/>
</g>
<!-- _Bnodes{children{extend&#45;&gt;parent{contents{pop(parent_index) -->
<g id="edge31" class="edge"><title>_Bnodes{children{extend&#45;&gt;parent{contents{pop(parent_index)</title>
<path fill="none" stroke="black" d="M1619,-552.813C1619,-544.789 1619,-535.047 1619,-526.069"/>
<polygon fill="black" stroke="black" points="1622.5,-526.029 1619,-516.029 1615.5,-526.029 1622.5,-526.029"/>
</g>
<!-- parent{children{pop(parent_index) -->
<g id="node28" class="node"><title>parent{children{pop(parent_index)</title>
<path fill="#ff5e99" stroke="black" d="M1002,-443C1002,-443 814,-443 814,-443 808,-443 802,-437 802,-431 802,-431 802,-419 802,-419 802,-413 808,-407 814,-407 814,-407 1002,-407 1002,-407 1008,-407 1014,-413 1014,-419 1014,-419 1014,-431 1014,-431 1014,-437 1008,-443 1002,-443"/>
<text text-anchor="middle" x="908" y="-421.3" font-family="Times New Roman,serif" font-size="14.00">parent{children{pop(parent_index)</text>
</g>
<!-- parent{contents{pop(parent_index&#45;1)&#45;&gt;parent{children{pop(parent_index) -->
<g id="edge23" class="edge"><title>parent{contents{pop(parent_index&#45;1)&#45;&gt;parent{children{pop(parent_index)</title>
<path fill="none" stroke="black" d="M908,-479.813C908,-471.789 908,-462.047 908,-453.069"/>
<polygon fill="black" stroke="black" points="911.5,-453.029 908,-443.029 904.5,-453.029 911.5,-453.029"/>
</g>
<!-- parent{children{pop(parent_index+1) -->
<g id="node29" class="node"><title>parent{children{pop(parent_index+1)</title>
<path fill="#ff5e99" stroke="black" d="M1375.5,-443C1375.5,-443 1172.5,-443 1172.5,-443 1166.5,-443 1160.5,-437 1160.5,-431 1160.5,-431 1160.5,-419 1160.5,-419 1160.5,-413 1166.5,-407 1172.5,-407 1172.5,-407 1375.5,-407 1375.5,-407 1381.5,-407 1387.5,-413 1387.5,-419 1387.5,-419 1387.5,-431 1387.5,-431 1387.5,-437 1381.5,-443 1375.5,-443"/>
<text text-anchor="middle" x="1274" y="-421.3" font-family="Times New Roman,serif" font-size="14.00">parent{children{pop(parent_index+1)</text>
</g>
<!-- parent{contents{pop(parent_index)&#45;&gt;parent{children{pop(parent_index+1) -->
<g id="edge30" class="edge"><title>parent{contents{pop(parent_index)&#45;&gt;parent{children{pop(parent_index+1)</title>
<path fill="none" stroke="black" d="M1536.36,-479.994C1485.33,-469.491 1419.74,-455.993 1366.91,-445.12"/>
<polygon fill="black" stroke="black" points="1367.36,-441.64 1356.86,-443.052 1365.95,-448.496 1367.36,-441.64"/>
</g>
<!-- parent{children{pop(parent_index)&#45;&gt;len(parent{contents &lt; minimum) -->
<g id="edge32" class="edge"><title>parent{children{pop(parent_index)&#45;&gt;len(parent{contents &lt; minimum)</title>
<path fill="none" stroke="black" d="M908,-406.813C908,-398.789 908,-389.047 908,-380.069"/>
<polygon fill="black" stroke="black" points="911.5,-380.029 908,-370.029 904.5,-380.029 911.5,-380.029"/>
</g>
<!-- parent{children{pop(parent_index+1)&#45;&gt;len(parent{contents &lt; minimum) -->
<g id="edge33" class="edge"><title>parent{children{pop(parent_index+1)&#45;&gt;len(parent{contents &lt; minimum)</title>
<path fill="none" stroke="black" d="M1186.33,-406.994C1121.86,-394.487 1035.49,-377.731 976.149,-366.22"/>
<polygon fill="black" stroke="black" points="976.616,-362.745 966.132,-364.277 975.282,-369.617 976.616,-362.745"/>
</g>
<!-- start -->
<g id="node30" class="node"><title>start</title>
<ellipse fill="none" stroke="black" cx="2076" cy="-2016" rx="27" ry="18"/>
<text text-anchor="middle" x="2076" y="-2012.3" font-family="Times New Roman,serif" font-size="14.00">start</text>
</g>
<!-- start&#45;&gt;_Bnodes{grow -->
<g id="edge1" class="edge"><title>start&#45;&gt;_Bnodes{grow</title>
<path fill="none" stroke="black" d="M2076,-1997.8C2076,-1986.16 2076,-1970.55 2076,-1957.24"/>
<polygon fill="black" stroke="black" points="2079.5,-1957.18 2076,-1947.18 2072.5,-1957.18 2079.5,-1957.18"/>
<text text-anchor="middle" x="2107.5" y="-1968.8" font-family="Times New Roman,serif" font-size="14.00">(ancestors)</text>
</g>
</g>
</svg>
