<?xml version="1.0" encoding="UTF-8" standalone="no"?>
<!DOCTYPE svg PUBLIC "-//W3C//DTD SVG 1.1//EN"
 "http://www.w3.org/Graphics/SVG/1.1/DTD/svg11.dtd">
<!-- Generated by graphviz version 2.38.0 (20140413.2041)
 -->
<!-- Title: %3 Pages: 1 -->
<svg width="1978pt" height="752pt"
 viewBox="0.00 0.00 1977.50 752.00" xmlns="http://www.w3.org/2000/svg" xmlns:xlink="http://www.w3.org/1999/xlink">
<g id="graph0" class="graph" transform="scale(1 1) rotate(0) translate(4 748)">
<title>%3</title>
<polygon fill="white" stroke="none" points="-4,4 -4,-748 1973.5,-748 1973.5,4 -4,4"/>
<!-- []{append -->
<g id="node1" class="node"><title>[]{append</title>
<path fill="#ff5e99" stroke="black" d="M766,-468C766,-468 12,-468 12,-468 6,-468 0,-462 0,-456 0,-456 0,-437 0,-437 0,-431 6,-425 12,-425 12,-425 766,-425 766,-425 772,-425 778,-431 778,-437 778,-437 778,-456 778,-456 778,-462 772,-468 766,-468"/>
<text text-anchor="middle" x="389" y="-442.8" font-family="Times New Roman,serif" font-size="14.00">[]{append</text>
</g>
<!-- getattr(node,&#39;children&#39;,None) -->
<g id="node5" class="node"><title>getattr(node,&#39;children&#39;,None)</title>
<path fill="#ffce9f" stroke="black" d="M884.074,-386.671C884.074,-386.671 746.383,-371.329 746.383,-371.329 740.419,-370.664 740.419,-369.336 746.383,-368.671 746.383,-368.671 884.074,-353.329 884.074,-353.329 890.037,-352.664 901.963,-352.664 907.926,-353.329 907.926,-353.329 1045.62,-368.671 1045.62,-368.671 1051.58,-369.336 1051.58,-370.664 1045.62,-371.329 1045.62,-371.329 907.926,-386.671 907.926,-386.671 901.963,-387.336 890.037,-387.336 884.074,-386.671"/>
<text text-anchor="middle" x="896" y="-366.3" font-family="Times New Roman,serif" font-size="14.00">getattr(node,&#39;children&#39;,None)</text>
</g>
<!-- []{append&#45;&gt;getattr(node,&#39;children&#39;,None) -->
<g id="edge8" class="edge"><title>[]{append&#45;&gt;getattr(node,&#39;children&#39;,None)</title>
<path fill="none" stroke="black" d="M528.546,-424.995C622.664,-411.165 743.247,-393.446 820.087,-382.155"/>
<polygon fill="black" stroke="black" points="820.781,-385.591 830.166,-380.674 819.764,-378.665 820.781,-385.591"/>
</g>
<!-- []{pop -->
<g id="node2" class="node"><title>[]{pop</title>
<path fill="#ff5e99" stroke="black" d="M1957.5,-285C1957.5,-285 1222.5,-285 1222.5,-285 1216.5,-285 1210.5,-279 1210.5,-273 1210.5,-273 1210.5,-254 1210.5,-254 1210.5,-248 1216.5,-242 1222.5,-242 1222.5,-242 1957.5,-242 1957.5,-242 1963.5,-242 1969.5,-248 1969.5,-254 1969.5,-254 1969.5,-273 1969.5,-273 1969.5,-279 1963.5,-285 1957.5,-285"/>
<text text-anchor="middle" x="1590" y="-259.8" font-family="Times New Roman,serif" font-size="14.00">[]{pop</text>
</g>
<!-- _Bnodes{insert -->
<g id="node7" class="node"><title>_Bnodes{insert</title>
<path fill="#ffe599" stroke="black" d="M1630,-134.5C1630,-134.5 1550,-134.5 1550,-134.5 1544,-134.5 1538,-128.5 1538,-122.5 1538,-122.5 1538,-110.5 1538,-110.5 1538,-104.5 1544,-98.5 1550,-98.5 1550,-98.5 1630,-98.5 1630,-98.5 1636,-98.5 1642,-104.5 1642,-110.5 1642,-110.5 1642,-122.5 1642,-122.5 1642,-128.5 1636,-134.5 1630,-134.5"/>
<text text-anchor="middle" x="1590" y="-112.8" font-family="Times New Roman,serif" font-size="14.00">_Bnodes{insert</text>
</g>
<!-- []{pop&#45;&gt;_Bnodes{insert -->
<g id="edge10" class="edge"><title>[]{pop&#45;&gt;_Bnodes{insert</title>
<path fill="none" stroke="black" d="M1590,-241.725C1590,-216.285 1590,-173.114 1590,-144.956"/>
<polygon fill="black" stroke="black" points="1593.5,-144.613 1590,-134.613 1586.5,-144.613 1593.5,-144.613"/>
<text text-anchor="middle" x="1689.5" y="-196.8" font-family="Times New Roman,serif" font-size="14.00"> &#160;&#160;(index,item,ancestors)</text>
<text text-anchor="middle" x="1689.5" y="-181.8" font-family="Times New Roman,serif" font-size="14.00">{node.insert(index,item,ancestors)}</text>
</g>
<!-- []{[&#45;1] -->
<g id="node3" class="node"><title>[]{[&#45;1]</title>
<path fill="#ff5e99" stroke="black" d="M1253.5,-468C1253.5,-468 808.5,-468 808.5,-468 802.5,-468 796.5,-462 796.5,-456 796.5,-456 796.5,-437 796.5,-437 796.5,-431 802.5,-425 808.5,-425 808.5,-425 1253.5,-425 1253.5,-425 1259.5,-425 1265.5,-431 1265.5,-437 1265.5,-437 1265.5,-456 1265.5,-456 1265.5,-462 1259.5,-468 1253.5,-468"/>
<text text-anchor="middle" x="1031" y="-442.8" font-family="Times New Roman,serif" font-size="14.00">[]{[&#45;1]</text>
</g>
<!-- []{[&#45;1]&#45;&gt;getattr(node,&#39;children&#39;,None) -->
<g id="edge4" class="edge"><title>[]{[&#45;1]&#45;&gt;getattr(node,&#39;children&#39;,None)</title>
<path fill="none" stroke="black" d="M993.753,-424.945C974.08,-414.088 950.083,-400.846 930.789,-390.198"/>
<polygon fill="black" stroke="black" points="932.458,-387.122 922.012,-385.355 929.076,-393.251 932.458,-387.122"/>
</g>
<!-- []{[index] -->
<g id="node4" class="node"><title>[]{[index]</title>
<path fill="#ff5e99" stroke="black" d="M1180.5,-285C1180.5,-285 429.5,-285 429.5,-285 423.5,-285 417.5,-279 417.5,-273 417.5,-273 417.5,-254 417.5,-254 417.5,-248 423.5,-242 429.5,-242 429.5,-242 1180.5,-242 1180.5,-242 1186.5,-242 1192.5,-248 1192.5,-254 1192.5,-254 1192.5,-273 1192.5,-273 1192.5,-279 1186.5,-285 1180.5,-285"/>
<text text-anchor="middle" x="805" y="-259.8" font-family="Times New Roman,serif" font-size="14.00">[]{[index]</text>
</g>
<!-- bisect{bisect_left -->
<g id="node9" class="node"><title>bisect{bisect_left</title>
<path fill="#ffe599" stroke="black" d="M611,-160C611,-160 393,-160 393,-160 387,-160 381,-154 381,-148 381,-148 381,-85 381,-85 381,-79 387,-73 393,-73 393,-73 611,-73 611,-73 617,-73 623,-79 623,-85 623,-85 623,-148 623,-148 623,-154 617,-160 611,-160"/>
<text text-anchor="middle" x="502" y="-112.8" font-family="Times New Roman,serif" font-size="14.00">bisect{bisect_left</text>
</g>
<!-- []{[index]&#45;&gt;bisect{bisect_left -->
<g id="edge6" class="edge"><title>[]{[index]&#45;&gt;bisect{bisect_left</title>
<path fill="none" stroke="black" d="M761.909,-241.879C720.053,-221.849 655.014,-190.725 600.47,-164.623"/>
<polygon fill="black" stroke="black" points="601.647,-161.306 591.116,-160.146 598.625,-167.62 601.647,-161.306"/>
<text text-anchor="middle" x="859.5" y="-204.8" font-family="Times New Roman,serif" font-size="14.00">(node{contents,item),</text>
<text text-anchor="middle" x="859.5" y="-189.8" font-family="Times New Roman,serif" font-size="14.00">{index= bisect{bisect_left(node{contents,item)}</text>
</g>
<!-- getattr(node,&#39;children&#39;,None)&#45;&gt;[]{pop -->
<g id="edge9" class="edge"><title>getattr(node,&#39;children&#39;,None)&#45;&gt;[]{pop</title>
<path fill="none" stroke="black" d="M960.978,-359.216C1070.5,-342.724 1294.47,-309 1443.43,-286.569"/>
<polygon fill="black" stroke="black" points="1444.21,-289.991 1453.58,-285.041 1443.17,-283.069 1444.21,-289.991"/>
<text text-anchor="middle" x="1427" y="-314.8" font-family="Times New Roman,serif" font-size="14.00">NO,{node,index = ancestors.pop()}</text>
</g>
<!-- getattr(node,&#39;children&#39;,None)&#45;&gt;[]{[index] -->
<g id="edge5" class="edge"><title>getattr(node,&#39;children&#39;,None)&#45;&gt;[]{[index]</title>
<path fill="none" stroke="black" d="M882.179,-353.129C868.283,-337.171 846.559,-312.225 829.695,-292.859"/>
<polygon fill="black" stroke="black" points="832.241,-290.453 823.035,-285.21 826.962,-295.05 832.241,-290.453"/>
<text text-anchor="middle" x="966.5" y="-314.8" font-family="Times New Roman,serif" font-size="14.00">Yes { node = node.children[index] }</text>
</g>
<!-- Btree{insert -->
<g id="node6" class="node"><title>Btree{insert</title>
<path fill="#ffe599" stroke="black" d="M1060.5,-657C1060.5,-657 1001.5,-657 1001.5,-657 995.5,-657 989.5,-651 989.5,-645 989.5,-645 989.5,-633 989.5,-633 989.5,-627 995.5,-621 1001.5,-621 1001.5,-621 1060.5,-621 1060.5,-621 1066.5,-621 1072.5,-627 1072.5,-633 1072.5,-633 1072.5,-645 1072.5,-645 1072.5,-651 1066.5,-657 1060.5,-657"/>
<text text-anchor="middle" x="1031" y="-635.3" font-family="Times New Roman,serif" font-size="14.00">Btree{insert</text>
</g>
<!-- Btree{_path_to -->
<g id="node8" class="node"><title>Btree{_path_to</title>
<path fill="#ffe599" stroke="black" d="M1070.5,-555C1070.5,-555 991.5,-555 991.5,-555 985.5,-555 979.5,-549 979.5,-543 979.5,-543 979.5,-531 979.5,-531 979.5,-525 985.5,-519 991.5,-519 991.5,-519 1070.5,-519 1070.5,-519 1076.5,-519 1082.5,-525 1082.5,-531 1082.5,-531 1082.5,-543 1082.5,-543 1082.5,-549 1076.5,-555 1070.5,-555"/>
<text text-anchor="middle" x="1031" y="-533.3" font-family="Times New Roman,serif" font-size="14.00">Btree{_path_to</text>
</g>
<!-- Btree{insert&#45;&gt;Btree{_path_to -->
<g id="edge2" class="edge"><title>Btree{insert&#45;&gt;Btree{_path_to</title>
<path fill="none" stroke="black" d="M1031,-620.581C1031,-605.382 1031,-583.067 1031,-565.464"/>
<polygon fill="black" stroke="black" points="1034.5,-565.219 1031,-555.219 1027.5,-565.219 1034.5,-565.219"/>
<text text-anchor="middle" x="1137.5" y="-591.8" font-family="Times New Roman,serif" font-size="14.00">(item)</text>
<text text-anchor="middle" x="1137.5" y="-576.8" font-family="Times New Roman,serif" font-size="14.00">{ ancestors = Btree{_path_to(item) &#160;}</text>
</g>
<!-- end -->
<g id="node11" class="node"><title>end</title>
<ellipse fill="none" stroke="black" cx="1590" cy="-18" rx="27" ry="18"/>
<text text-anchor="middle" x="1590" y="-14.3" font-family="Times New Roman,serif" font-size="14.00">end</text>
</g>
<!-- _Bnodes{insert&#45;&gt;end -->
<g id="edge11" class="edge"><title>_Bnodes{insert&#45;&gt;end</title>
<path fill="none" stroke="black" d="M1590,-98.2477C1590,-83.8391 1590,-63.0348 1590,-46.3576"/>
<polygon fill="black" stroke="black" points="1593.5,-46.1029 1590,-36.1029 1586.5,-46.1029 1593.5,-46.1029"/>
</g>
<!-- Btree{_path_to&#45;&gt;[]{[&#45;1] -->
<g id="edge3" class="edge"><title>Btree{_path_to&#45;&gt;[]{[&#45;1]</title>
<path fill="none" stroke="black" d="M1031,-518.936C1031,-507.522 1031,-492.167 1031,-478.618"/>
<polygon fill="black" stroke="black" points="1034.5,-478.249 1031,-468.249 1027.5,-478.249 1034.5,-478.249"/>
<text text-anchor="middle" x="1117" y="-489.8" font-family="Times New Roman,serif" font-size="14.00">{ node,index = ancestors[&#45;1] }</text>
</g>
<!-- bisect{bisect_left&#45;&gt;[]{append -->
<g id="edge7" class="edge"><title>bisect{bisect_left&#45;&gt;[]{append</title>
<path fill="none" stroke="black" d="M460.305,-160.204C440.96,-182.692 419.701,-211.824 408,-242 385.567,-299.854 384.916,-373.626 386.756,-414.573"/>
<polygon fill="black" stroke="black" points="383.27,-414.928 387.296,-424.729 390.26,-414.557 383.27,-414.928"/>
<text text-anchor="middle" x="530.5" y="-306.8" font-family="Times New Roman,serif" font-size="14.00">( (node,index,) ),ancestors.append((node,index,))</text>
</g>
<!-- start -->
<g id="node10" class="node"><title>start</title>
<ellipse fill="none" stroke="black" cx="1031" cy="-726" rx="27" ry="18"/>
<text text-anchor="middle" x="1031" y="-722.3" font-family="Times New Roman,serif" font-size="14.00">start</text>
</g>
<!-- start&#45;&gt;Btree{insert -->
<g id="edge1" class="edge"><title>start&#45;&gt;Btree{insert</title>
<path fill="none" stroke="black" d="M1031,-707.799C1031,-696.163 1031,-680.548 1031,-667.237"/>
<polygon fill="black" stroke="black" points="1034.5,-667.175 1031,-657.175 1027.5,-667.175 1034.5,-667.175"/>
<text text-anchor="middle" x="1047.5" y="-678.8" font-family="Times New Roman,serif" font-size="14.00">(item)</text>
</g>
</g>
</svg>
