<?xml version="1.0" encoding="UTF-8" standalone="no"?>
<!DOCTYPE svg PUBLIC "-//W3C//DTD SVG 1.1//EN"
 "http://www.w3.org/Graphics/SVG/1.1/DTD/svg11.dtd">
<!-- Generated by graphviz version 2.38.0 (20140413.2041)
 -->
<!-- Title: %3 Pages: 1 -->
<svg width="2173pt" height="1193pt"
 viewBox="0.00 0.00 2173.00 1193.00" xmlns="http://www.w3.org/2000/svg" xmlns:xlink="http://www.w3.org/1999/xlink">
<g id="graph0" class="graph" transform="scale(1 1) rotate(0) translate(4 1189)">
<title>%3</title>
<polygon fill="white" stroke="none" points="-4,4 -4,-1189 2169,-1189 2169,4 -4,4"/>
<!-- ancetors{pop() -->
<g id="node1" class="node"><title>ancetors{pop()</title>
<path fill="#ff5e99" stroke="black" d="M2153,-1185C2153,-1185 1083,-1185 1083,-1185 1077,-1185 1071,-1179 1071,-1173 1071,-1173 1071,-1161 1071,-1161 1071,-1155 1077,-1149 1083,-1149 1083,-1149 2153,-1149 2153,-1149 2159,-1149 2165,-1155 2165,-1161 2165,-1161 2165,-1173 2165,-1173 2165,-1179 2159,-1185 2153,-1185"/>
<text text-anchor="middle" x="1618" y="-1163.3" font-family="Times New Roman,serif" font-size="14.00">ancetors{pop()</text>
</g>
<!-- parent_index? -->
<g id="node11" class="node"><title>parent_index?</title>
<path fill="#ffce9f" stroke="black" d="M1289.25,-1109.57C1289.25,-1109.57 1225.61,-1096.43 1225.61,-1096.43 1219.74,-1095.21 1219.74,-1092.79 1225.61,-1091.57 1225.61,-1091.57 1289.25,-1078.43 1289.25,-1078.43 1295.12,-1077.21 1306.88,-1077.21 1312.75,-1078.43 1312.75,-1078.43 1376.39,-1091.57 1376.39,-1091.57 1382.26,-1092.79 1382.26,-1095.21 1376.39,-1096.43 1376.39,-1096.43 1312.75,-1109.57 1312.75,-1109.57 1306.88,-1110.79 1295.12,-1110.79 1289.25,-1109.57"/>
<text text-anchor="middle" x="1301" y="-1090.3" font-family="Times New Roman,serif" font-size="14.00">parent_index?</text>
</g>
<!-- ancetors{pop()&#45;&gt;parent_index? -->
<g id="edge5" class="edge"><title>ancetors{pop()&#45;&gt;parent_index?</title>
<path fill="none" stroke="black" d="M1542.07,-1148.99C1482.66,-1135.69 1401.76,-1117.57 1350.46,-1106.08"/>
<polygon fill="black" stroke="black" points="1351.13,-1102.64 1340.6,-1103.87 1349.6,-1109.47 1351.13,-1102.64"/>
</g>
<!-- parent{contents{insert -->
<g id="node2" class="node"><title>parent{contents{insert</title>
<path fill="#ff5e99" stroke="black" d="M845,-429C845,-429 727,-429 727,-429 721,-429 715,-423 715,-417 715,-417 715,-405 715,-405 715,-399 721,-393 727,-393 727,-393 845,-393 845,-393 851,-393 857,-399 857,-405 857,-405 857,-417 857,-417 857,-423 851,-429 845,-429"/>
<text text-anchor="middle" x="786" y="-407.3" font-family="Times New Roman,serif" font-size="14.00">parent{contents{insert</text>
</g>
<!-- parent{children{insert -->
<g id="node3" class="node"><title>parent{children{insert</title>
<path fill="#ff5e99" stroke="black" d="M843.5,-342C843.5,-342 728.5,-342 728.5,-342 722.5,-342 716.5,-336 716.5,-330 716.5,-330 716.5,-318 716.5,-318 716.5,-312 722.5,-306 728.5,-306 728.5,-306 843.5,-306 843.5,-306 849.5,-306 855.5,-312 855.5,-318 855.5,-318 855.5,-330 855.5,-330 855.5,-336 849.5,-342 843.5,-342"/>
<text text-anchor="middle" x="786" y="-320.3" font-family="Times New Roman,serif" font-size="14.00">parent{children{insert</text>
</g>
<!-- parent{contents{insert&#45;&gt;parent{children{insert -->
<g id="edge22" class="edge"><title>parent{contents{insert&#45;&gt;parent{children{insert</title>
<path fill="none" stroke="black" d="M786,-392.799C786,-381.163 786,-365.548 786,-352.237"/>
<polygon fill="black" stroke="black" points="789.5,-352.175 786,-342.175 782.5,-352.175 789.5,-352.175"/>
<text text-anchor="middle" x="854" y="-363.8" font-family="Times New Roman,serif" font-size="14.00">(paretn_index+1,sibling)</text>
</g>
<!-- len(parent{contents) &gt; parent{tree{order -->
<g id="node16" class="node"><title>len(parent{contents) &gt; parent{tree{order</title>
<path fill="#ffce9f" stroke="black" d="M774.019,-268.327C774.019,-268.327 281.981,-240.673 281.981,-240.673 275.991,-240.337 275.991,-239.663 281.981,-239.327 281.981,-239.327 774.019,-211.673 774.019,-211.673 780.009,-211.337 791.991,-211.337 797.981,-211.673 797.981,-211.673 1290.02,-239.327 1290.02,-239.327 1296.01,-239.663 1296.01,-240.337 1290.02,-240.673 1290.02,-240.673 797.981,-268.327 797.981,-268.327 791.991,-268.663 780.009,-268.663 774.019,-268.327"/>
<text text-anchor="middle" x="786" y="-236.3" font-family="Times New Roman,serif" font-size="14.00">len(parent{contents) &gt; parent{tree{order</text>
</g>
<!-- parent{children{insert&#45;&gt;len(parent{contents) &gt; parent{tree{order -->
<g id="edge23" class="edge"><title>parent{children{insert&#45;&gt;len(parent{contents) &gt; parent{tree{order</title>
<path fill="none" stroke="black" d="M786,-305.61C786,-297.89 786,-288.477 786,-279.25"/>
<polygon fill="black" stroke="black" points="789.5,-279.012 786,-269.012 782.5,-279.012 789.5,-279.012"/>
</g>
<!-- parent{children{[index] -->
<g id="node4" class="node"><title>parent{children{[index]</title>
<path fill="#ff5e99" stroke="black" d="M1499,-1010C1499,-1010 1103,-1010 1103,-1010 1097,-1010 1091,-1004 1091,-998 1091,-998 1091,-986 1091,-986 1091,-980 1097,-974 1103,-974 1103,-974 1499,-974 1499,-974 1505,-974 1511,-980 1511,-986 1511,-986 1511,-998 1511,-998 1511,-1004 1505,-1010 1499,-1010"/>
<text text-anchor="middle" x="1301" y="-988.3" font-family="Times New Roman,serif" font-size="14.00">parent{children{[index]</text>
</g>
<!-- len(left_sib{contents) &lt; _Bnodes{tree{order -->
<g id="node13" class="node"><title>len(left_sib{contents) &lt; _Bnodes{tree{order</title>
<path fill="#ffce9f" stroke="black" d="M1289.03,-922.119C1289.03,-922.119 1068.48,-905.881 1068.48,-905.881 1062.49,-905.441 1062.49,-904.559 1068.48,-904.119 1068.48,-904.119 1289.03,-887.881 1289.03,-887.881 1295.02,-887.441 1306.98,-887.441 1312.97,-887.881 1312.97,-887.881 1533.52,-904.119 1533.52,-904.119 1539.51,-904.559 1539.51,-905.441 1533.52,-905.881 1533.52,-905.881 1312.97,-922.119 1312.97,-922.119 1306.98,-922.559 1295.02,-922.559 1289.03,-922.119"/>
<text text-anchor="middle" x="1301" y="-901.3" font-family="Times New Roman,serif" font-size="14.00">len(left_sib{contents) &lt; _Bnodes{tree{order</text>
</g>
<!-- parent{children{[index]&#45;&gt;len(left_sib{contents) &lt; _Bnodes{tree{order -->
<g id="edge7" class="edge"><title>parent{children{[index]&#45;&gt;len(left_sib{contents) &lt; _Bnodes{tree{order</title>
<path fill="none" stroke="#ea4f16" d="M1301,-973.799C1301,-962.163 1301,-946.548 1301,-933.237"/>
<polygon fill="#ea4f16" stroke="#ea4f16" points="1304.5,-933.175 1301,-923.175 1297.5,-933.175 1304.5,-933.175"/>
</g>
<!-- len(right_sib{contents) &lt; _Bnodes{tree{order -->
<g id="node14" class="node"><title>len(right_sib{contents) &lt; _Bnodes{tree{order</title>
<path fill="#ffce9f" stroke="black" d="M1440.03,-835.144C1440.03,-835.144 1212.27,-818.856 1212.27,-818.856 1206.29,-818.428 1206.29,-817.572 1212.27,-817.144 1212.27,-817.144 1440.03,-800.856 1440.03,-800.856 1446.02,-800.428 1457.98,-800.428 1463.97,-800.856 1463.97,-800.856 1691.73,-817.144 1691.73,-817.144 1697.71,-817.572 1697.71,-818.428 1691.73,-818.856 1691.73,-818.856 1463.97,-835.144 1463.97,-835.144 1457.98,-835.572 1446.02,-835.572 1440.03,-835.144"/>
<text text-anchor="middle" x="1452" y="-814.3" font-family="Times New Roman,serif" font-size="14.00">len(right_sib{contents) &lt; _Bnodes{tree{order</text>
</g>
<!-- parent{children{[index]&#45;&gt;len(right_sib{contents) &lt; _Bnodes{tree{order -->
<g id="edge13" class="edge"><title>parent{children{[index]&#45;&gt;len(right_sib{contents) &lt; _Bnodes{tree{order</title>
<path fill="none" stroke="#0c2d5f" d="M1415.94,-973.995C1474.27,-962.768 1536.46,-945.875 1554,-923 1578.65,-890.856 1532.53,-858.226 1494.55,-838.299"/>
<polygon fill="#0c2d5f" stroke="#0c2d5f" points="1496.11,-835.168 1485.61,-833.759 1492.94,-841.408 1496.11,-835.168"/>
</g>
<!-- _Bnodes{lateral_right -->
<g id="node5" class="node"><title>_Bnodes{lateral_right</title>
<path fill="#ffe599" stroke="black" d="M1509,-669.5C1509,-669.5 1395,-669.5 1395,-669.5 1389,-669.5 1383,-663.5 1383,-657.5 1383,-657.5 1383,-645.5 1383,-645.5 1383,-639.5 1389,-633.5 1395,-633.5 1395,-633.5 1509,-633.5 1509,-633.5 1515,-633.5 1521,-639.5 1521,-645.5 1521,-645.5 1521,-657.5 1521,-657.5 1521,-663.5 1515,-669.5 1509,-669.5"/>
<text text-anchor="middle" x="1452" y="-647.8" font-family="Times New Roman,serif" font-size="14.00">_Bnodes{lateral_right</text>
</g>
<!-- end -->
<g id="node18" class="node"><title>end</title>
<ellipse fill="none" stroke="black" cx="1385" cy="-127" rx="27" ry="18"/>
<text text-anchor="middle" x="1385" y="-123.3" font-family="Times New Roman,serif" font-size="14.00">end</text>
</g>
<!-- _Bnodes{lateral_right&#45;&gt;end -->
<g id="edge15" class="edge"><title>_Bnodes{lateral_right&#45;&gt;end</title>
<path fill="none" stroke="black" d="M1445.59,-633.344C1438.79,-613.552 1429,-579.891 1429,-550 1429,-550 1429,-550 1429,-239 1429,-207.439 1413.44,-174.158 1400.82,-152.365"/>
<polygon fill="black" stroke="black" points="1403.8,-150.533 1395.65,-143.768 1397.81,-154.141 1403.8,-150.533"/>
</g>
<!-- _Bnodes{lateral_left -->
<g id="node6" class="node"><title>_Bnodes{lateral_left</title>
<path fill="#ffe599" stroke="black" d="M1266.5,-782C1266.5,-782 1159.5,-782 1159.5,-782 1153.5,-782 1147.5,-776 1147.5,-770 1147.5,-770 1147.5,-758 1147.5,-758 1147.5,-752 1153.5,-746 1159.5,-746 1159.5,-746 1266.5,-746 1266.5,-746 1272.5,-746 1278.5,-752 1278.5,-758 1278.5,-758 1278.5,-770 1278.5,-770 1278.5,-776 1272.5,-782 1266.5,-782"/>
<text text-anchor="middle" x="1213" y="-760.3" font-family="Times New Roman,serif" font-size="14.00">_Bnodes{lateral_left</text>
</g>
<!-- _Bnodes{lateral_left&#45;&gt;end -->
<g id="edge9" class="edge"><title>_Bnodes{lateral_left&#45;&gt;end</title>
<path fill="none" stroke="black" d="M1278.51,-757.362C1300.64,-752.508 1324.01,-743.733 1341,-728 1367.14,-703.783 1368,-688.137 1368,-652.5 1368,-652.5 1368,-652.5 1368,-239 1368,-209.884 1373.79,-176.962 1378.61,-154.584"/>
<polygon fill="black" stroke="black" points="1382.03,-155.325 1380.8,-144.802 1375.2,-153.795 1382.03,-155.325"/>
</g>
<!-- _Bnodes{shrink -->
<g id="node7" class="node"><title>_Bnodes{shrink</title>
<path fill="#ffe599" stroke="black" d="M963.5,-145C963.5,-145 608.5,-145 608.5,-145 602.5,-145 596.5,-139 596.5,-133 596.5,-133 596.5,-121 596.5,-121 596.5,-115 602.5,-109 608.5,-109 608.5,-109 963.5,-109 963.5,-109 969.5,-109 975.5,-115 975.5,-121 975.5,-121 975.5,-133 975.5,-133 975.5,-139 969.5,-145 963.5,-145"/>
<text text-anchor="middle" x="786" y="-123.3" font-family="Times New Roman,serif" font-size="14.00">_Bnodes{shrink</text>
</g>
<!-- ancestors? -->
<g id="node10" class="node"><title>ancestors?</title>
<path fill="#ffce9f" stroke="black" d="M1318.02,-57.2939C1318.02,-57.2939 849.979,-29.7061 849.979,-29.7061 843.99,-29.353 843.99,-28.647 849.979,-28.2939 849.979,-28.2939 1318.02,-0.706092 1318.02,-0.706092 1324.01,-0.353046 1335.99,-0.353046 1341.98,-0.706092 1341.98,-0.706092 1810.02,-28.2939 1810.02,-28.2939 1816.01,-28.647 1816.01,-29.353 1810.02,-29.7061 1810.02,-29.7061 1341.98,-57.2939 1341.98,-57.2939 1335.99,-57.647 1324.01,-57.647 1318.02,-57.2939"/>
<text text-anchor="middle" x="1330" y="-25.3" font-family="Times New Roman,serif" font-size="14.00">ancestors?</text>
</g>
<!-- _Bnodes{shrink&#45;&gt;ancestors? -->
<g id="edge2" class="edge"><title>_Bnodes{shrink&#45;&gt;ancestors?</title>
<path fill="none" stroke="black" d="M882.629,-108.948C971.332,-93.2944 1103.41,-69.9863 1201.08,-52.7503"/>
<polygon fill="black" stroke="black" points="1201.78,-56.1812 1211.02,-50.9966 1200.56,-49.2878 1201.78,-56.1812"/>
<text text-anchor="middle" x="1094.5" y="-79.8" font-family="Times New Roman,serif" font-size="14.00">parent=None</text>
</g>
<!-- _Bnodes{split -->
<g id="node8" class="node"><title>_Bnodes{split</title>
<path fill="#ffe599" stroke="black" d="M822.5,-531C822.5,-531 749.5,-531 749.5,-531 743.5,-531 737.5,-525 737.5,-519 737.5,-519 737.5,-507 737.5,-507 737.5,-501 743.5,-495 749.5,-495 749.5,-495 822.5,-495 822.5,-495 828.5,-495 834.5,-501 834.5,-507 834.5,-507 834.5,-519 834.5,-519 834.5,-525 828.5,-531 822.5,-531"/>
<text text-anchor="middle" x="786" y="-509.3" font-family="Times New Roman,serif" font-size="14.00">_Bnodes{split</text>
</g>
<!-- _Bnodes{split&#45;&gt;parent{contents{insert -->
<g id="edge21" class="edge"><title>_Bnodes{split&#45;&gt;parent{contents{insert</title>
<path fill="none" stroke="black" d="M786,-494.581C786,-479.382 786,-457.067 786,-439.464"/>
<polygon fill="black" stroke="black" points="789.5,-439.219 786,-429.219 782.5,-439.219 789.5,-439.219"/>
<text text-anchor="middle" x="879" y="-465.8" font-family="Times New Roman,serif" font-size="14.00">(parent_index,push)</text>
<text text-anchor="middle" x="879" y="-450.8" font-family="Times New Roman,serif" font-size="14.00">{ sibling,push=_Bnodes{split() }</text>
</g>
<!-- Btree&#45;BRANCH -->
<g id="node9" class="node"><title>Btree&#45;BRANCH</title>
<path fill="#ffe599" stroke="black" d="M1232,-611C1232,-611 12,-611 12,-611 6,-611 0,-605 0,-599 0,-599 0,-580 0,-580 0,-574 6,-568 12,-568 12,-568 1232,-568 1232,-568 1238,-568 1244,-574 1244,-580 1244,-580 1244,-599 1244,-599 1244,-605 1238,-611 1232,-611"/>
<text text-anchor="middle" x="622" y="-585.8" font-family="Times New Roman,serif" font-size="14.00">Btree&#45;BRANCH</text>
</g>
<!-- Btree&#45;BRANCH&#45;&gt;_Bnodes{split -->
<g id="edge19" class="edge"><title>Btree&#45;BRANCH&#45;&gt;_Bnodes{split</title>
<path fill="none" stroke="black" d="M667.248,-567.945C689.564,-557.808 716.459,-545.59 739.006,-535.348"/>
<polygon fill="black" stroke="black" points="740.72,-538.413 748.377,-531.091 737.825,-532.04 740.72,-538.413"/>
</g>
<!-- ancestors?&#45;&gt;ancetors{pop() -->
<g id="edge3" class="edge"><title>ancestors?&#45;&gt;ancetors{pop()</title>
<path fill="none" stroke="black" d="M1544.83,-45.3554C1640.51,-58.3267 1732,-82.1851 1732,-126 1732,-1095 1732,-1095 1732,-1095 1732,-1118.05 1714.99,-1133.89 1694.12,-1144.65"/>
<polygon fill="black" stroke="black" points="1692.53,-1141.53 1684.97,-1148.95 1695.51,-1147.86 1692.53,-1141.53"/>
<text text-anchor="middle" x="1864.5" y="-585.8" font-family="Times New Roman,serif" font-size="14.00">Yes,{ parent,parent_index = ancestors{pop() }</text>
</g>
<!-- parent? -->
<g id="node12" class="node"><title>parent?</title>
<path fill="#ffce9f" stroke="black" d="M1268.65,-724.094C1268.65,-724.094 1239.06,-713.906 1239.06,-713.906 1233.39,-711.953 1233.39,-708.047 1239.06,-706.094 1239.06,-706.094 1268.65,-695.906 1268.65,-695.906 1274.33,-693.953 1285.67,-693.953 1291.35,-695.906 1291.35,-695.906 1320.94,-706.094 1320.94,-706.094 1326.61,-708.047 1326.61,-711.953 1320.94,-713.906 1320.94,-713.906 1291.35,-724.094 1291.35,-724.094 1285.67,-726.047 1274.33,-726.047 1268.65,-724.094"/>
<text text-anchor="middle" x="1280" y="-706.3" font-family="Times New Roman,serif" font-size="14.00">parent?</text>
</g>
<!-- ancestors?&#45;&gt;parent? -->
<g id="edge4" class="edge"><title>ancestors?&#45;&gt;parent?</title>
<path fill="none" stroke="black" d="M1330,-58.1444C1330,-77.2785 1330,-103.167 1330,-126 1330,-590.5 1330,-590.5 1330,-590.5 1330,-626.218 1310.48,-663.566 1295.83,-686.561"/>
<polygon fill="black" stroke="black" points="1292.71,-684.934 1290.12,-695.207 1298.55,-688.793 1292.71,-684.934"/>
<text text-anchor="middle" x="1340.5" y="-363.8" font-family="Times New Roman,serif" font-size="14.00">NO</text>
</g>
<!-- parent_index?&#45;&gt;parent{children{[index] -->
<g id="edge6" class="edge"><title>parent_index?&#45;&gt;parent{children{[index]</title>
<path fill="none" stroke="#ea4f16" d="M1301,-1075.58C1301,-1060.38 1301,-1038.07 1301,-1020.46"/>
<polygon fill="#ea4f16" stroke="#ea4f16" points="1304.5,-1020.22 1301,-1010.22 1297.5,-1020.22 1304.5,-1020.22"/>
<text text-anchor="middle" x="1427" y="-1046.8" font-family="Times New Roman,serif" font-size="14.00">Yes,index=parent_index&#45;1 </text>
<text text-anchor="middle" x="1427" y="-1031.8" font-family="Times New Roman,serif" font-size="14.00">{left_sib=parent{children{[parent_index&#45;1] }</text>
</g>
<!-- parent_index + 1 &lt; len(parent{children) -->
<g id="node15" class="node"><title>parent_index + 1 &lt; len(parent{children)</title>
<path fill="#ffce9f" stroke="black" d="M839.041,-835.011C839.041,-835.011 645.279,-818.989 645.279,-818.989 639.299,-818.494 639.299,-817.506 645.279,-817.011 645.279,-817.011 839.041,-800.989 839.041,-800.989 845.02,-800.494 856.98,-800.494 862.959,-800.989 862.959,-800.989 1056.72,-817.011 1056.72,-817.011 1062.7,-817.506 1062.7,-818.494 1056.72,-818.989 1056.72,-818.989 862.959,-835.011 862.959,-835.011 856.98,-835.506 845.02,-835.506 839.041,-835.011"/>
<text text-anchor="middle" x="851" y="-814.3" font-family="Times New Roman,serif" font-size="14.00">parent_index + 1 &lt; len(parent{children)</text>
</g>
<!-- parent_index?&#45;&gt;parent_index + 1 &lt; len(parent{children) -->
<g id="edge11" class="edge"><title>parent_index?&#45;&gt;parent_index + 1 &lt; len(parent{children)</title>
<path fill="none" stroke="black" d="M1246.68,-1087.12C1151.79,-1074.94 952.115,-1040.63 807,-956 789.083,-945.551 781.938,-942.163 774,-923 767.877,-908.218 770.613,-902.637 774,-887 777.411,-871.254 778.116,-865.878 789,-854 794.402,-848.105 801.032,-842.954 807.926,-838.548"/>
<polygon fill="black" stroke="black" points="809.885,-841.456 816.725,-833.365 806.333,-835.425 809.885,-841.456"/>
<text text-anchor="middle" x="817.5" y="-944.8" font-family="Times New Roman,serif" font-size="14.00">NO</text>
</g>
<!-- parent?&#45;&gt;_Bnodes{split -->
<g id="edge20" class="edge"><title>parent?&#45;&gt;_Bnodes{split</title>
<path fill="none" stroke="black" d="M1282.47,-692.54C1285.91,-662.753 1288.22,-600.028 1253,-568 1223.3,-540.989 963.366,-523.598 844.667,-516.997"/>
<polygon fill="black" stroke="black" points="844.835,-513.501 834.658,-516.447 844.451,-520.49 844.835,-513.501"/>
<text text-anchor="middle" x="1289" y="-585.8" font-family="Times New Roman,serif" font-size="14.00">Yes</text>
</g>
<!-- parent?&#45;&gt;Btree&#45;BRANCH -->
<g id="edge18" class="edge"><title>parent?&#45;&gt;Btree&#45;BRANCH</title>
<path fill="none" stroke="black" d="M1235.27,-707.34C1136.43,-703.383 902.076,-692.332 825,-674 770.14,-660.952 710.877,-635.09 670.629,-615.587"/>
<polygon fill="black" stroke="black" points="672.101,-612.411 661.581,-611.154 669.022,-618.697 672.101,-612.411"/>
<text text-anchor="middle" x="1045.5" y="-662.8" font-family="Times New Roman,serif" font-size="14.00">NO,(_Bnodes{tree,children=[_Bnodes]) </text>
<text text-anchor="middle" x="1045.5" y="-647.8" font-family="Times New Roman,serif" font-size="14.00"> { parent,parent_index=Btree&#45;BRANCH(_Bnodes{tree,children=[_Bnodes]),0 </text>
<text text-anchor="middle" x="1045.5" y="-632.8" font-family="Times New Roman,serif" font-size="14.00"> Btree{root = parent}</text>
</g>
<!-- len(left_sib{contents) &lt; _Bnodes{tree{order&#45;&gt;_Bnodes{lateral_left -->
<g id="edge8" class="edge"><title>len(left_sib{contents) &lt; _Bnodes{tree{order&#45;&gt;_Bnodes{lateral_left</title>
<path fill="none" stroke="black" d="M1259.29,-890.054C1234.66,-879.417 1205.54,-862.082 1191,-836 1183.21,-822.025 1186.57,-815.374 1191,-800 1191.87,-796.994 1193.08,-793.996 1194.49,-791.092"/>
<polygon fill="black" stroke="black" points="1197.62,-792.661 1199.5,-782.235 1191.53,-789.212 1197.62,-792.661"/>
<text text-anchor="middle" x="1316" y="-857.8" font-family="Times New Roman,serif" font-size="14.00">Yes,(parent,parent_index,left_sib)</text>
</g>
<!-- len(left_sib{contents) &lt; _Bnodes{tree{order&#45;&gt;parent_index + 1 &lt; len(parent{children) -->
<g id="edge10" class="edge"><title>len(left_sib{contents) &lt; _Bnodes{tree{order&#45;&gt;parent_index + 1 &lt; len(parent{children)</title>
<path fill="none" stroke="black" d="M1236.05,-891.731C1153.17,-876.076 1010.21,-849.074 923.754,-832.742"/>
<polygon fill="black" stroke="black" points="924.233,-829.271 913.757,-830.854 922.934,-836.149 924.233,-829.271"/>
<text text-anchor="middle" x="1113.5" y="-857.8" font-family="Times New Roman,serif" font-size="14.00">NO</text>
</g>
<!-- len(right_sib{contents) &lt; _Bnodes{tree{order&#45;&gt;_Bnodes{lateral_right -->
<g id="edge14" class="edge"><title>len(right_sib{contents) &lt; _Bnodes{tree{order&#45;&gt;_Bnodes{lateral_right</title>
<path fill="none" stroke="black" d="M1452,-799.707C1452,-771.124 1452,-713.808 1452,-679.74"/>
<polygon fill="black" stroke="black" points="1455.5,-679.562 1452,-669.562 1448.5,-679.562 1455.5,-679.562"/>
<text text-anchor="middle" x="1551" y="-760.3" font-family="Times New Roman,serif" font-size="14.00">Yes (parent,parent_index,right_sib)</text>
</g>
<!-- len(right_sib{contents) &lt; _Bnodes{tree{order&#45;&gt;parent? -->
<g id="edge17" class="edge"><title>len(right_sib{contents) &lt; _Bnodes{tree{order&#45;&gt;parent?</title>
<path fill="none" stroke="black" d="M1426.99,-801.587C1394.97,-781.852 1339.7,-747.794 1306.83,-727.534"/>
<polygon fill="black" stroke="black" points="1308.54,-724.476 1298.19,-722.209 1304.87,-730.435 1308.54,-724.476"/>
<text text-anchor="middle" x="1401.5" y="-760.3" font-family="Times New Roman,serif" font-size="14.00">NO</text>
</g>
<!-- parent_index + 1 &lt; len(parent{children)&#45;&gt;parent{children{[index] -->
<g id="edge12" class="edge"><title>parent_index + 1 &lt; len(parent{children)&#45;&gt;parent{children{[index]</title>
<path fill="none" stroke="#0c2d5f" d="M828.894,-834.469C801.149,-855.719 760.045,-894.541 785,-923 805.267,-946.113 949.787,-963.868 1080.74,-975.43"/>
<polygon fill="#0c2d5f" stroke="#0c2d5f" points="1080.68,-978.938 1090.94,-976.321 1081.28,-971.964 1080.68,-978.938"/>
<text text-anchor="middle" x="916.5" y="-908.8" font-family="Times New Roman,serif" font-size="14.00">Yes,index=parent_index+1 </text>
<text text-anchor="middle" x="916.5" y="-893.8" font-family="Times New Roman,serif" font-size="14.00">{right_sib=parent{children{[parent_index+1] }</text>
</g>
<!-- parent_index + 1 &lt; len(parent{children)&#45;&gt;parent? -->
<g id="edge16" class="edge"><title>parent_index + 1 &lt; len(parent{children)&#45;&gt;parent?</title>
<path fill="none" stroke="black" d="M897.91,-803.728C950.915,-788.907 1039.86,-764.565 1117,-746 1158.14,-736.1 1205.44,-726.094 1238.46,-719.331"/>
<polygon fill="black" stroke="black" points="1239.55,-722.681 1248.65,-717.254 1238.15,-715.822 1239.55,-722.681"/>
<text text-anchor="middle" x="1127.5" y="-760.3" font-family="Times New Roman,serif" font-size="14.00">NO</text>
</g>
<!-- len(parent{contents) &gt; parent{tree{order&#45;&gt;_Bnodes{shrink -->
<g id="edge24" class="edge"><title>len(parent{contents) &gt; parent{tree{order&#45;&gt;_Bnodes{shrink</title>
<path fill="none" stroke="black" d="M786,-210.99C786,-194.026 786,-172.477 786,-155.59"/>
<polygon fill="black" stroke="black" points="789.5,-155.26 786,-145.26 782.5,-155.26 789.5,-155.26"/>
<text text-anchor="middle" x="861.5" y="-181.8" font-family="Times New Roman,serif" font-size="14.00">Yes (ancestors)</text>
<text text-anchor="middle" x="861.5" y="-166.8" font-family="Times New Roman,serif" font-size="14.00">{parent{shrink(ancestors)}</text>
</g>
<!-- len(parent{contents) &gt; parent{tree{order&#45;&gt;end -->
<g id="edge25" class="edge"><title>len(parent{contents) &gt; parent{tree{order&#45;&gt;end</title>
<path fill="none" stroke="black" d="M902.203,-217.466C1040.35,-191.866 1263.05,-150.599 1349.29,-134.617"/>
<polygon fill="black" stroke="black" points="1350.16,-138.016 1359.35,-132.753 1348.88,-131.133 1350.16,-138.016"/>
<text text-anchor="middle" x="1202.5" y="-174.3" font-family="Times New Roman,serif" font-size="14.00">NO</text>
</g>
<!-- start -->
<g id="node17" class="node"><title>start</title>
<ellipse fill="none" stroke="black" cx="225" cy="-240" rx="27" ry="18"/>
<text text-anchor="middle" x="225" y="-236.3" font-family="Times New Roman,serif" font-size="14.00">start</text>
</g>
<!-- start&#45;&gt;_Bnodes{shrink -->
<g id="edge1" class="edge"><title>start&#45;&gt;_Bnodes{shrink</title>
<path fill="none" stroke="black" d="M239.663,-224.863C245.803,-219.711 253.299,-214.337 261,-211 363.119,-166.747 485.546,-145.769 586.478,-135.957"/>
<polygon fill="black" stroke="black" points="586.861,-139.437 596.488,-135.014 586.204,-132.468 586.861,-139.437"/>
<text text-anchor="middle" x="430.5" y="-174.3" font-family="Times New Roman,serif" font-size="14.00">(ancestors)</text>
</g>
</g>
</svg>
