<?xml version="1.0" encoding="UTF-8" standalone="no"?>
<!DOCTYPE svg PUBLIC "-//W3C//DTD SVG 1.1//EN"
 "http://www.w3.org/Graphics/SVG/1.1/DTD/svg11.dtd">
<!-- Generated by graphviz version 2.38.0 (20140413.2041)
 -->
<!-- Title: %3 Pages: 1 -->
<svg width="1273pt" height="719pt"
 viewBox="0.00 0.00 1272.66 719.00" xmlns="http://www.w3.org/2000/svg" xmlns:xlink="http://www.w3.org/1999/xlink">
<g id="graph0" class="graph" transform="scale(1 1) rotate(0) translate(4 715)">
<title>%3</title>
<polygon fill="white" stroke="none" points="-4,4 -4,-715 1268.66,-715 1268.66,4 -4,4"/>
<!-- []{insert -->
<g id="node1" class="node"><title>[]{insert</title>
<path fill="#ff5e99" stroke="black" d="M1178.66,-711C1178.66,-711 1140.66,-711 1140.66,-711 1134.66,-711 1128.66,-705 1128.66,-699 1128.66,-699 1128.66,-687 1128.66,-687 1128.66,-681 1134.66,-675 1140.66,-675 1140.66,-675 1178.66,-675 1178.66,-675 1184.66,-675 1190.66,-681 1190.66,-687 1190.66,-687 1190.66,-699 1190.66,-699 1190.66,-705 1184.66,-711 1178.66,-711"/>
<text text-anchor="middle" x="1159.66" y="-689.3" font-family="Times New Roman,serif" font-size="14.00">[]{insert</text>
</g>
<!-- _Bnodes{contents -->
<g id="node6" class="node"><title>_Bnodes{contents</title>
<path fill="#00e599" stroke="black" d="M900.773,-624C900.773,-624 741.656,-624 741.656,-624 735.656,-624 724.888,-620.357 720.121,-616.713 720.121,-616.713 692.084,-595.287 692.084,-595.287 687.317,-591.643 688.549,-588 694.549,-588 694.549,-588 853.666,-588 853.666,-588 859.666,-588 870.433,-591.643 875.201,-595.287 875.201,-595.287 903.238,-616.713 903.238,-616.713 908.005,-620.357 906.773,-624 900.773,-624"/>
<text text-anchor="middle" x="797.661" y="-602.3" font-family="Times New Roman,serif" font-size="14.00">_Bnodes{contents</text>
</g>
<!-- []{insert&#45;&gt;_Bnodes{contents -->
<g id="edge16" class="edge"><title>[]{insert&#45;&gt;_Bnodes{contents</title>
<path fill="none" stroke="#ea4f16" d="M1128.55,-692.048C1076.47,-691.257 968.986,-685.881 883.661,-657 864.789,-650.612 845.463,-639.828 829.923,-629.907"/>
<polygon fill="#ea4f16" stroke="#ea4f16" points="831.523,-626.771 821.243,-624.206 827.679,-632.621 831.523,-626.771"/>
<text text-anchor="middle" x="973.661" y="-645.8" font-family="Times New Roman,serif" font-size="14.00">tmp5=_Bnodes{contents{pop()</text>
</g>
<!-- end -->
<g id="node11" class="node"><title>end</title>
<ellipse fill="none" stroke="black" cx="561.661" cy="-18" rx="27" ry="18"/>
<text text-anchor="middle" x="561.661" y="-14.3" font-family="Times New Roman,serif" font-size="14.00">end</text>
</g>
<!-- []{insert&#45;&gt;end -->
<g id="edge23" class="edge"><title>[]{insert&#45;&gt;end</title>
<path fill="none" stroke="#50364e" d="M1190.88,-681.747C1221.83,-669.383 1264.66,-645.347 1264.66,-607 1264.66,-607 1264.66,-607 1264.66,-90 1264.66,-22.4586 744.351,-18.5808 598.984,-18.8154"/>
<polygon fill="#50364e" stroke="#50364e" points="598.78,-15.3158 588.789,-18.8398 598.797,-22.3157 598.78,-15.3158"/>
</g>
<!-- []{append -->
<g id="node2" class="node"><title>[]{append</title>
<path fill="#ff5e99" stroke="black" d="M921.661,-109C921.661,-109 871.661,-109 871.661,-109 865.661,-109 859.661,-103 859.661,-97 859.661,-97 859.661,-85 859.661,-85 859.661,-79 865.661,-73 871.661,-73 871.661,-73 921.661,-73 921.661,-73 927.661,-73 933.661,-79 933.661,-85 933.661,-85 933.661,-97 933.661,-97 933.661,-103 927.661,-109 921.661,-109"/>
<text text-anchor="middle" x="896.661" y="-87.3" font-family="Times New Roman,serif" font-size="14.00">[]{append</text>
</g>
<!-- []{append&#45;&gt;_Bnodes{contents -->
<g id="edge5" class="edge"><title>[]{append&#45;&gt;_Bnodes{contents</title>
<path fill="none" stroke="#3322ff" d="M933.916,-95.4256C1027.05,-105.599 1258.23,-141.657 1196.66,-245 1162.26,-302.745 1106.38,-265.101 1063.66,-317 1026.23,-362.477 1028.69,-530.872 984.661,-570 970.067,-582.971 929.067,-591.426 889.164,-596.77"/>
<polygon fill="#3322ff" stroke="#3322ff" points="888.535,-593.322 879.06,-598.063 889.423,-600.266 888.535,-593.322"/>
<text text-anchor="middle" x="1157.16" y="-336.8" font-family="Times New Roman,serif" font-size="14.00">tmp1=_Bnodes{contents{pop(0)</text>
</g>
<!-- []{append&#45;&gt;end -->
<g id="edge12" class="edge"><title>[]{append&#45;&gt;end</title>
<path fill="none" stroke="#33ff22" d="M859.53,-82.1305C794.498,-68.3475 660.85,-40.0221 597.059,-26.5023"/>
<polygon fill="#33ff22" stroke="#33ff22" points="597.587,-23.0365 587.079,-24.3871 596.136,-29.8844 597.587,-23.0365"/>
</g>
<!-- dest{contents -->
<g id="node3" class="node"><title>dest{contents</title>
<path fill="#00e599" stroke="black" d="M873.314,-418C873.314,-418 754.696,-418 754.696,-418 748.696,-418 738.414,-413.798 734.131,-409.595 734.131,-409.595 714.574,-390.405 714.574,-390.405 710.291,-386.202 712.008,-382 718.008,-382 718.008,-382 836.626,-382 836.626,-382 842.626,-382 852.908,-386.202 857.191,-390.405 857.191,-390.405 876.748,-409.595 876.748,-409.595 881.031,-413.798 879.314,-418 873.314,-418"/>
<text text-anchor="middle" x="795.661" y="-396.3" font-family="Times New Roman,serif" font-size="14.00">dest{contents</text>
</g>
<!-- dest{contents&#45;&gt;[]{insert -->
<g id="edge15" class="edge"><title>dest{contents&#45;&gt;[]{insert</title>
<path fill="none" stroke="#f2f222" d="M835,-418.082C880.503,-438.933 956.364,-477.145 1012.66,-523 1066.31,-566.695 1116.39,-631.286 1141.95,-666.621"/>
<polygon fill="#f2f222" stroke="#f2f222" points="1139.24,-668.85 1147.91,-674.944 1144.93,-664.775 1139.24,-668.85"/>
<text text-anchor="middle" x="1086.16" y="-542.8" font-family="Times New Roman,serif" font-size="14.00">(0,tmp4)</text>
</g>
<!-- dest{contents&#45;&gt;[]{append -->
<g id="edge4" class="edge"><title>dest{contents&#45;&gt;[]{append</title>
<path fill="none" stroke="black" d="M859.842,-392.679C897.527,-387.494 939.996,-378.572 951.661,-364 1010.6,-290.377 947.247,-170.313 914.161,-117.875"/>
<polygon fill="black" stroke="black" points="916.921,-115.696 908.562,-109.186 911.037,-119.487 916.921,-115.696"/>
<text text-anchor="middle" x="1081.16" y="-217.8" font-family="Times New Roman,serif" font-size="14.00"> &#160;&#160;&#160;&#160;&#160;&#160;&#160;&#160;&#160;&#160;&#160;&#160;&#160;&#160;&#160;dest{contents{append(tmp0)</text>
</g>
<!-- parent{contents -->
<g id="node4" class="node"><title>parent{contents</title>
<path fill="#00e599" stroke="black" d="M605.778,-505C605.778,-505 470.514,-505 470.514,-505 464.514,-505 454.007,-501.04 449.5,-497.079 449.5,-497.079 426.558,-476.921 426.558,-476.921 422.051,-472.96 423.544,-469 429.544,-469 429.544,-469 564.808,-469 564.808,-469 570.808,-469 581.315,-472.96 585.822,-476.921 585.822,-476.921 608.764,-497.079 608.764,-497.079 613.271,-501.04 611.778,-505 605.778,-505"/>
<text text-anchor="middle" x="517.661" y="-483.3" font-family="Times New Roman,serif" font-size="14.00">parent{contents</text>
</g>
<!-- parent{contents&#45;&gt;dest{contents -->
<g id="edge3" class="edge"><title>parent{contents&#45;&gt;dest{contents</title>
<path fill="none" stroke="black" d="M568.046,-468.901C613.735,-454.448 681.216,-433.805 730.885,-419.081"/>
<polygon fill="black" stroke="black" points="731.972,-422.409 740.57,-416.218 729.988,-415.696 731.972,-422.409"/>
</g>
<!-- parent{contents&#45;&gt;dest{contents -->
<g id="edge14" class="edge"><title>parent{contents&#45;&gt;dest{contents</title>
<path fill="none" stroke="#f2f222" d="M577.403,-469.409C624.105,-455.607 688.649,-435.91 735.464,-421.192"/>
<polygon fill="#f2f222" stroke="#f2f222" points="736.687,-424.477 745.172,-418.131 734.582,-417.801 736.687,-424.477"/>
</g>
<!-- _Bnodes{children? -->
<g id="node9" class="node"><title>_Bnodes{children?</title>
<path fill="#ffce9f" stroke="black" d="M468.808,-416.128C468.808,-416.128 378.563,-401.872 378.563,-401.872 372.636,-400.936 372.636,-399.064 378.563,-398.128 378.563,-398.128 468.808,-383.872 468.808,-383.872 474.734,-382.936 486.587,-382.936 492.514,-383.872 492.514,-383.872 582.759,-398.128 582.759,-398.128 588.685,-399.064 588.685,-400.936 582.759,-401.872 582.759,-401.872 492.514,-416.128 492.514,-416.128 486.587,-417.064 474.734,-417.064 468.808,-416.128"/>
<text text-anchor="middle" x="480.661" y="-396.3" font-family="Times New Roman,serif" font-size="14.00">_Bnodes{children?</text>
</g>
<!-- parent{contents&#45;&gt;_Bnodes{children? -->
<g id="edge7" class="edge"><title>parent{contents&#45;&gt;_Bnodes{children?</title>
<path fill="none" stroke="#3322ff" d="M504.625,-468.799C498.19,-456.97 490.998,-441.03 485.92,-427.578"/>
<polygon fill="#3322ff" stroke="#3322ff" points="489.127,-426.149 482.497,-417.885 482.527,-428.48 489.127,-426.149"/>
</g>
<!-- parent{contents&#45;&gt;_Bnodes{children? -->
<g id="edge18" class="edge"><title>parent{contents&#45;&gt;_Bnodes{children?</title>
<path fill="none" stroke="#50364e" d="M515.722,-468.799C511.628,-456.265 504.367,-439.116 497.355,-425.201"/>
<polygon fill="#50364e" stroke="#50364e" points="500.353,-423.383 492.583,-416.181 494.166,-426.657 500.353,-423.383"/>
</g>
<!-- dest{children -->
<g id="node5" class="node"><title>dest{children</title>
<path fill="#00e599" stroke="black" d="M904.596,-196C904.596,-196 790.302,-196 790.302,-196 784.302,-196 774.084,-191.732 769.867,-187.465 769.867,-187.465 751.16,-168.535 751.16,-168.535 746.943,-164.268 748.725,-160 754.725,-160 754.725,-160 869.02,-160 869.02,-160 875.02,-160 885.238,-164.268 889.455,-168.535 889.455,-168.535 908.162,-187.465 908.162,-187.465 912.379,-191.732 910.596,-196 904.596,-196"/>
<text text-anchor="middle" x="829.661" y="-174.3" font-family="Times New Roman,serif" font-size="14.00">dest{children</text>
</g>
<!-- dest{children&#45;&gt;[]{insert -->
<g id="edge22" class="edge"><title>dest{children&#45;&gt;[]{insert</title>
<path fill="none" stroke="#50364e" d="M902.724,-181.604C1001.02,-185.793 1165.98,-195.498 1186.66,-214 1209.01,-233.991 1200.66,-250.014 1200.66,-280 1200.66,-607 1200.66,-607 1200.66,-607 1200.66,-628.565 1189.82,-650.425 1179.29,-666.576"/>
<polygon fill="#50364e" stroke="#50364e" points="1176.33,-664.702 1173.54,-674.923 1182.1,-668.672 1176.33,-664.702"/>
<text text-anchor="middle" x="1225.16" y="-439.8" font-family="Times New Roman,serif" font-size="14.00">(0,tmp6)</text>
</g>
<!-- dest{children&#45;&gt;[]{append -->
<g id="edge11" class="edge"><title>dest{children&#45;&gt;[]{append</title>
<path fill="none" stroke="#33ff22" d="M843.219,-159.799C852.846,-147.587 865.926,-130.992 876.736,-117.278"/>
<polygon fill="#33ff22" stroke="#33ff22" points="879.681,-119.196 883.123,-109.175 874.183,-114.862 879.681,-119.196"/>
<text text-anchor="middle" x="885.661" y="-130.8" font-family="Times New Roman,serif" font-size="14.00">(tmp3)</text>
</g>
<!-- _Bnodes{contents&#45;&gt;parent{contents -->
<g id="edge6" class="edge"><title>_Bnodes{contents&#45;&gt;parent{contents</title>
<path fill="none" stroke="#3322ff" d="M773.364,-587.69C767.095,-582.477 760.702,-576.421 755.661,-570 741.3,-551.708 751.335,-536.861 732.661,-523 713.879,-509.059 663.048,-500.418 615.526,-495.211"/>
<polygon fill="#3322ff" stroke="#3322ff" points="615.759,-491.717 605.448,-494.152 615.027,-498.678 615.759,-491.717"/>
<text text-anchor="middle" x="870.161" y="-534.8" font-family="Times New Roman,serif" font-size="14.00"> &#160;&#160;&#160;&#160;&#160;&#160;parent{contents[dest_index] = tmp1</text>
</g>
<!-- _Bnodes{contents&#45;&gt;parent{contents -->
<g id="edge17" class="edge"><title>_Bnodes{contents&#45;&gt;parent{contents</title>
<path fill="none" stroke="#ea4f16" d="M695.966,-598.394C622.326,-592.569 533.676,-582.983 521.661,-570 508.308,-555.571 508.183,-532.887 510.908,-515.031"/>
<polygon fill="#ea4f16" stroke="#ea4f16" points="514.352,-515.65 512.763,-505.175 507.473,-514.355 514.352,-515.65"/>
<text text-anchor="middle" x="625.161" y="-542.8" font-family="Times New Roman,serif" font-size="14.00">parent{contents[parent_index]=tmp5</text>
</g>
<!-- _Bnodes{children -->
<g id="node7" class="node"><title>_Bnodes{children</title>
<path fill="#00e599" stroke="black" d="M876.055,-299C876.055,-299 721.261,-299 721.261,-299 715.261,-299 704.537,-295.302 699.812,-291.604 699.812,-291.604 672.717,-270.396 672.717,-270.396 667.992,-266.698 669.267,-263 675.267,-263 675.267,-263 830.06,-263 830.06,-263 836.06,-263 846.785,-266.698 851.51,-270.396 851.51,-270.396 878.605,-291.604 878.605,-291.604 883.33,-295.302 882.055,-299 876.055,-299"/>
<text text-anchor="middle" x="775.661" y="-277.3" font-family="Times New Roman,serif" font-size="14.00">_Bnodes{children</text>
</g>
<!-- _Bnodes{children&#45;&gt;dest{children -->
<g id="edge10" class="edge"><title>_Bnodes{children&#45;&gt;dest{children</title>
<path fill="none" stroke="#33ff22" d="M779.604,-262.867C786.322,-247.051 798.744,-223.332 809.682,-205.15"/>
<polygon fill="#33ff22" stroke="#33ff22" points="812.927,-206.559 815.229,-196.217 806.98,-202.866 812.927,-206.559"/>
</g>
<!-- _Bnodes{children&#45;&gt;dest{children -->
<g id="edge21" class="edge"><title>_Bnodes{children&#45;&gt;dest{children</title>
<path fill="none" stroke="#50364e" d="M790.038,-262.867C800.139,-247.196 812.937,-223.766 821.442,-205.651"/>
<polygon fill="#50364e" stroke="#50364e" points="824.775,-206.773 825.682,-196.217 818.39,-203.904 824.775,-206.773"/>
</g>
<!-- parent_index &gt; dest_index -->
<g id="node8" class="node"><title>parent_index &gt; dest_index</title>
<path fill="#ffce9f" stroke="black" d="M139.744,-622.587C139.744,-622.587 11.7554,-607.413 11.7554,-607.413 5.79715,-606.706 5.79715,-605.294 11.7554,-604.587 11.7554,-604.587 139.744,-589.413 139.744,-589.413 145.703,-588.706 157.619,-588.706 163.577,-589.413 163.577,-589.413 291.566,-604.587 291.566,-604.587 297.525,-605.294 297.525,-606.706 291.566,-607.413 291.566,-607.413 163.577,-622.587 163.577,-622.587 157.619,-623.294 145.703,-623.294 139.744,-622.587"/>
<text text-anchor="middle" x="151.661" y="-602.3" font-family="Times New Roman,serif" font-size="14.00">parent_index &gt; dest_index</text>
</g>
<!-- parent_index &gt; dest_index&#45;&gt;parent{contents -->
<g id="edge2" class="edge"><title>parent_index &gt; dest_index&#45;&gt;parent{contents</title>
<path fill="none" stroke="black" d="M71.7565,-597.336C55.7572,-591.989 40.779,-583.46 30.6609,-570 18.109,-553.303 16.4295,-538.291 30.6609,-523 57.1322,-494.558 295.492,-488.903 428.651,-487.985"/>
<polygon fill="black" stroke="black" points="428.86,-491.483 438.838,-487.922 428.817,-484.484 428.86,-491.483"/>
<text text-anchor="middle" x="141.161" y="-542.8" font-family="Times New Roman,serif" font-size="14.00">Yes,tmp0=parent{contents[dest_index]</text>
</g>
<!-- parent_index &gt; dest_index&#45;&gt;parent{contents -->
<g id="edge13" class="edge"><title>parent_index &gt; dest_index&#45;&gt;parent{contents</title>
<path fill="none" stroke="#f2f222" d="M204.725,-594.257C221.095,-588.998 238.308,-581.272 251.661,-570 269.903,-554.601 258.028,-536.581 277.661,-523 302.417,-505.875 374.384,-496.961 433.104,-492.429"/>
<polygon fill="#f2f222" stroke="#f2f222" points="433.436,-495.914 443.151,-491.685 432.92,-488.933 433.436,-495.914"/>
<text text-anchor="middle" x="391.661" y="-558.8" font-family="Times New Roman,serif" font-size="14.00">No,tmp4=parent{contents[parent_index]</text>
</g>
<!-- _Bnodes{children?&#45;&gt;_Bnodes{children -->
<g id="edge9" class="edge"><title>_Bnodes{children?&#45;&gt;_Bnodes{children</title>
<path fill="none" stroke="#33ff22" d="M473.647,-382.938C466.862,-364.619 459.73,-334.898 475.661,-317 489.362,-301.608 599.35,-291.922 682.211,-286.738"/>
<polygon fill="#33ff22" stroke="#33ff22" points="682.661,-290.217 692.429,-286.113 682.234,-283.23 682.661,-290.217"/>
<text text-anchor="middle" x="590.661" y="-336.8" font-family="Times New Roman,serif" font-size="14.00">Yes {tmp3 = _Bnodes{children{pop(0)}</text>
</g>
<!-- _Bnodes{children?&#45;&gt;_Bnodes{children -->
<g id="edge20" class="edge"><title>_Bnodes{children?&#45;&gt;_Bnodes{children</title>
<path fill="none" stroke="#50364e" d="M559.596,-394.411C614.893,-389.785 682.826,-380.825 705.661,-364 724.384,-350.205 713.806,-334.893 728.661,-317 731.987,-312.993 735.863,-309.19 739.934,-305.668"/>
<polygon fill="#50364e" stroke="#50364e" points="742.306,-308.253 747.914,-299.264 737.924,-302.793 742.306,-308.253"/>
<text text-anchor="middle" x="840.161" y="-352.8" font-family="Times New Roman,serif" font-size="14.00">Yes {tmp6 = _Bnodes{children{pop()}</text>
</g>
<!-- _Bnodes{children?&#45;&gt;end -->
<g id="edge8" class="edge"><title>_Bnodes{children?&#45;&gt;end</title>
<path fill="none" stroke="#3322ff" d="M455.068,-385.915C445.588,-380.152 435.3,-372.701 427.661,-364 400.908,-333.528 387.661,-322.549 387.661,-282 387.661,-282 387.661,-282 387.661,-90 387.661,-31.3948 473.326,-20.0762 524.44,-18.539"/>
<polygon fill="#3322ff" stroke="#3322ff" points="524.542,-22.0378 534.473,-18.3482 524.409,-15.039 524.542,-22.0378"/>
<text text-anchor="middle" x="396.661" y="-174.3" font-family="Times New Roman,serif" font-size="14.00">No</text>
</g>
<!-- _Bnodes{children?&#45;&gt;end -->
<g id="edge19" class="edge"><title>_Bnodes{children?&#45;&gt;end</title>
<path fill="none" stroke="#50364e" d="M471.811,-383.278C460.305,-361.321 441.661,-319.898 441.661,-282 441.661,-282 441.661,-282 441.661,-90 441.661,-50.673 489.99,-32.6667 525.307,-24.7586"/>
<polygon fill="#50364e" stroke="#50364e" points="526.235,-28.1412 535.326,-22.7012 524.827,-21.2843 526.235,-28.1412"/>
<text text-anchor="middle" x="450.661" y="-174.3" font-family="Times New Roman,serif" font-size="14.00">No</text>
</g>
<!-- start -->
<g id="node10" class="node"><title>start</title>
<ellipse fill="none" stroke="black" cx="151.661" cy="-693" rx="27" ry="18"/>
<text text-anchor="middle" x="151.661" y="-689.3" font-family="Times New Roman,serif" font-size="14.00">start</text>
</g>
<!-- start&#45;&gt;parent_index &gt; dest_index -->
<g id="edge1" class="edge"><title>start&#45;&gt;parent_index &gt; dest_index</title>
<path fill="none" stroke="black" d="M151.661,-674.799C151.661,-663.163 151.661,-647.548 151.661,-634.237"/>
<polygon fill="black" stroke="black" points="155.161,-634.175 151.661,-624.175 148.161,-634.175 155.161,-634.175"/>
<text text-anchor="middle" x="257.161" y="-645.8" font-family="Times New Roman,serif" font-size="14.00">(parent,parent_index,dest,dest_index)</text>
</g>
</g>
</svg>
