<?xml version="1.0" encoding="UTF-8" standalone="no"?>
<!DOCTYPE svg PUBLIC "-//W3C//DTD SVG 1.1//EN"
 "http://www.w3.org/Graphics/SVG/1.1/DTD/svg11.dtd">
<!-- Generated by graphviz version 2.50.0 (0)
 -->
<!-- Pages: 1 -->
<svg width="1059pt" height="494pt"
 viewBox="0.00 0.00 1059.00 494.00" xmlns="http://www.w3.org/2000/svg" xmlns:xlink="http://www.w3.org/1999/xlink">
<g id="graph0" class="graph" transform="scale(1 1) rotate(0) translate(4 490)">
<polygon fill="white" stroke="transparent" points="-4,4 -4,-490 1055,-490 1055,4 -4,4"/>
<!-- Test -->
<g id="node1" class="node">
<title>Test</title>
<path fill="none" stroke="black" d="M95,-78C95,-78 24,-78 24,-78 18,-78 12,-72 12,-66 12,-66 12,-47 12,-47 12,-41 18,-35 24,-35 24,-35 95,-35 95,-35 101,-35 107,-41 107,-47 107,-47 107,-66 107,-66 107,-72 101,-78 95,-78"/>
<text text-anchor="middle" x="59.5" y="-52.8" font-family="Times New Roman,serif" font-size="14.00">Test</text>
</g>
<!-- #[test]\lfn test_abc(){ -->
<g id="node2" class="node">
<title>#[test]\lfn test_abc(){</title>
<path fill="none" stroke="black" d="M357.5,-119.5C357.5,-119.5 233.5,-119.5 233.5,-119.5 227.5,-119.5 221.5,-113.5 221.5,-107.5 221.5,-107.5 221.5,-73.5 221.5,-73.5 221.5,-67.5 227.5,-61.5 233.5,-61.5 233.5,-61.5 357.5,-61.5 357.5,-61.5 363.5,-61.5 369.5,-67.5 369.5,-73.5 369.5,-73.5 369.5,-107.5 369.5,-107.5 369.5,-113.5 363.5,-119.5 357.5,-119.5"/>
<text text-anchor="start" x="257.5" y="-94.3" font-family="Times New Roman,serif" font-size="14.00">#[test]</text>
<text text-anchor="middle" x="295.5" y="-79.3" font-family="Times New Roman,serif" font-size="14.00">fn test_abc(){</text>
</g>
<!-- Test&#45;&gt;#[test]\lfn test_abc(){ -->
<g id="edge1" class="edge">
<title>Test&#45;&gt;#[test]\lfn test_abc(){</title>
<path fill="none" stroke="black" d="M107.01,-63.26C136.73,-67.58 176.13,-73.3 211.13,-78.39"/>
<polygon fill="black" stroke="black" points="210.96,-81.9 221.36,-79.87 211.96,-74.97 210.96,-81.9"/>
</g>
<!-- cargo test &#45;&#45; &#45;&#45;nocapture test_fn_name -->
<g id="node3" class="node">
<title>cargo test &#45;&#45; &#45;&#45;nocapture test_fn_name</title>
<path fill="none" stroke="black" d="M424,-43C424,-43 167,-43 167,-43 161,-43 155,-37 155,-31 155,-31 155,-12 155,-12 155,-6 161,0 167,0 167,0 424,0 424,0 430,0 436,-6 436,-12 436,-12 436,-31 436,-31 436,-37 430,-43 424,-43"/>
<text text-anchor="middle" x="295.5" y="-17.8" font-family="Times New Roman,serif" font-size="14.00">cargo test &#45;&#45; &#45;&#45;nocapture test_fn_name</text>
</g>
<!-- Test&#45;&gt;cargo test &#45;&#45; &#45;&#45;nocapture test_fn_name -->
<g id="edge2" class="edge">
<title>Test&#45;&gt;cargo test &#45;&#45; &#45;&#45;nocapture test_fn_name</title>
<path fill="none" stroke="black" d="M107.01,-49.54C118.49,-47.83 131.41,-45.89 144.96,-43.87"/>
<polygon fill="black" stroke="black" points="145.55,-47.32 154.92,-42.38 144.52,-40.39 145.55,-47.32"/>
</g>
<!-- DEBUG -->
<g id="node4" class="node">
<title>DEBUG</title>
<path fill="none" stroke="black" d="M107,-272C107,-272 12,-272 12,-272 6,-272 0,-266 0,-260 0,-260 0,-241 0,-241 0,-235 6,-229 12,-229 12,-229 107,-229 107,-229 113,-229 119,-235 119,-241 119,-241 119,-260 119,-260 119,-266 113,-272 107,-272"/>
<text text-anchor="middle" x="59.5" y="-246.8" font-family="Times New Roman,serif" font-size="14.00">DEBUG</text>
</g>
<!-- pringln!(&quot; -->
<g id="node5" class="node">
<title>pringln!(&quot;</title>
<path fill="none" stroke="black" d="M347,-364C347,-364 244,-364 244,-364 238,-364 232,-358 232,-352 232,-352 232,-333 232,-333 232,-327 238,-321 244,-321 244,-321 347,-321 347,-321 353,-321 359,-327 359,-333 359,-333 359,-352 359,-352 359,-358 353,-364 347,-364"/>
<text text-anchor="middle" x="295.5" y="-338.8" font-family="Times New Roman,serif" font-size="14.00">pringln!(&quot;</text>
</g>
<!-- DEBUG&#45;&gt;pringln!(&quot; -->
<g id="edge3" class="edge">
<title>DEBUG&#45;&gt;pringln!(&quot;:#?&quot;,xx)</title>
<path fill="none" stroke="black" d="M88.39,-272.28C106.47,-285.41 131.04,-301.48 155,-311.5 176.04,-320.3 199.96,-326.77 221.97,-331.46"/>
<polygon fill="black" stroke="black" points="221.44,-334.92 231.94,-333.49 222.84,-328.06 221.44,-334.92"/>
</g>
<!-- deg!(function()) -->
<g id="node6" class="node">
<title>deg!(function())</title>
<path fill="none" stroke="black" d="M363.5,-303C363.5,-303 227.5,-303 227.5,-303 221.5,-303 215.5,-297 215.5,-291 215.5,-291 215.5,-272 215.5,-272 215.5,-266 221.5,-260 227.5,-260 227.5,-260 363.5,-260 363.5,-260 369.5,-260 375.5,-266 375.5,-272 375.5,-272 375.5,-291 375.5,-291 375.5,-297 369.5,-303 363.5,-303"/>
<text text-anchor="middle" x="295.5" y="-277.8" font-family="Times New Roman,serif" font-size="14.00">deg!(function())</text>
</g>
<!-- DEBUG&#45;&gt;deg!(function()) -->
<g id="edge4" class="edge">
<title>DEBUG&#45;&gt;deg!(function())</title>
<path fill="none" stroke="black" d="M119.25,-258.28C145.28,-261.73 176.49,-265.87 205.3,-269.68"/>
<polygon fill="black" stroke="black" points="205.01,-273.18 215.38,-271.02 205.93,-266.24 205.01,-273.18"/>
</g>
<!-- #[derive(Debug)] -->
<g id="node7" class="node">
<title>#[derive(Debug)]</title>
<path fill="none" stroke="black" d="M367,-242C367,-242 224,-242 224,-242 218,-242 212,-236 212,-230 212,-230 212,-211 212,-211 212,-205 218,-199 224,-199 224,-199 367,-199 367,-199 373,-199 379,-205 379,-211 379,-211 379,-230 379,-230 379,-236 373,-242 367,-242"/>
<text text-anchor="middle" x="295.5" y="-216.8" font-family="Times New Roman,serif" font-size="14.00">#[derive(Debug)]</text>
</g>
<!-- DEBUG&#45;&gt;#[derive(Debug)] -->
<g id="edge5" class="edge">
<title>DEBUG&#45;&gt;#[derive(Debug)]</title>
<path fill="none" stroke="black" d="M119.25,-242.97C144.2,-239.77 173.91,-235.96 201.71,-232.4"/>
<polygon fill="black" stroke="black" points="202.38,-235.84 211.86,-231.1 201.49,-228.9 202.38,-235.84"/>
</g>
<!-- cargo&#45;expand -->
<g id="node9" class="node">
<title>cargo&#45;expand</title>
<path fill="none" stroke="black" d="M356.5,-181C356.5,-181 234.5,-181 234.5,-181 228.5,-181 222.5,-175 222.5,-169 222.5,-169 222.5,-150 222.5,-150 222.5,-144 228.5,-138 234.5,-138 234.5,-138 356.5,-138 356.5,-138 362.5,-138 368.5,-144 368.5,-150 368.5,-150 368.5,-169 368.5,-169 368.5,-175 362.5,-181 356.5,-181"/>
<text text-anchor="middle" x="295.5" y="-155.8" font-family="Times New Roman,serif" font-size="14.00">cargo&#45;expand</text>
</g>
<!-- DEBUG&#45;&gt;cargo&#45;expand -->
<g id="edge7" class="edge">
<title>DEBUG&#45;&gt;cargo&#45;expand</title>
<path fill="none" stroke="black" d="M87.96,-228.96C106.06,-215.75 130.82,-199.51 155,-189.5 173.03,-182.04 193.17,-176.32 212.42,-171.99"/>
<polygon fill="black" stroke="black" points="213.34,-175.38 222.39,-169.85 211.87,-168.53 213.34,-175.38"/>
</g>
<!-- fn fmt(&amp;self, f -->
<g id="node8" class="node">
<title>fn fmt(&amp;self, f</title>
<path fill="none" stroke="black" d="M826.5,-242C826.5,-242 696.5,-242 696.5,-242 690.5,-242 684.5,-236 684.5,-230 684.5,-230 684.5,-211 684.5,-211 684.5,-205 690.5,-199 696.5,-199 696.5,-199 826.5,-199 826.5,-199 832.5,-199 838.5,-205 838.5,-211 838.5,-211 838.5,-230 838.5,-230 838.5,-236 832.5,-242 826.5,-242"/>
<text text-anchor="middle" x="761.5" y="-216.8" font-family="Times New Roman,serif" font-size="14.00">fn fmt(&amp;self, f</text>
</g>
<!-- #[derive(Debug)]&#45;&gt;fn fmt(&amp;self, f -->
<g id="edge6" class="edge">
<title>#[derive(Debug)]&#45;&gt;fn fmt(&amp;self, f: &amp;mut Formatter&lt;&#39;_&gt;) &#45;&gt; Result&lt;(), Error&gt;;</title>
<path fill="none" stroke="black" d="M379.19,-220.5C462.31,-220.5 589.89,-220.5 674.26,-220.5"/>
<polygon fill="black" stroke="black" points="674.32,-224 684.32,-220.5 674.32,-217 674.32,-224"/>
</g>
<!-- cargo rustc &#45;&#45;profile=check &#45;&#45; &#45;Zunpretty=expanded -->
<g id="node10" class="node">
<title>cargo rustc &#45;&#45;profile=check &#45;&#45; &#45;Zunpretty=expanded</title>
<path fill="none" stroke="black" d="M927,-181C927,-181 596,-181 596,-181 590,-181 584,-175 584,-169 584,-169 584,-150 584,-150 584,-144 590,-138 596,-138 596,-138 927,-138 927,-138 933,-138 939,-144 939,-150 939,-150 939,-169 939,-169 939,-175 933,-181 927,-181"/>
<text text-anchor="middle" x="761.5" y="-155.8" font-family="Times New Roman,serif" font-size="14.00">cargo rustc &#45;&#45;profile=check &#45;&#45; &#45;Zunpretty=expanded</text>
</g>
<!-- cargo&#45;expand&#45;&gt;cargo rustc &#45;&#45;profile=check &#45;&#45; &#45;Zunpretty=expanded -->
<g id="edge8" class="edge">
<title>cargo&#45;expand&#45;&gt;cargo rustc &#45;&#45;profile=check &#45;&#45; &#45;Zunpretty=expanded</title>
<path fill="none" stroke="black" d="M368.75,-159.5C423.6,-159.5 501.63,-159.5 573.62,-159.5"/>
<polygon fill="black" stroke="black" points="573.74,-163 583.74,-159.5 573.74,-156 573.74,-163"/>
</g>
<!-- prints out the result of macro expansion and #[derive] expansion applied to the current crate. -->
<g id="node11" class="node">
<title>prints out the result of macro expansion and #[derive] expansion applied to the current crate.</title>
<path fill="none" stroke="black" d="M1039,-120C1039,-120 484,-120 484,-120 478,-120 472,-114 472,-108 472,-108 472,-89 472,-89 472,-83 478,-77 484,-77 484,-77 1039,-77 1039,-77 1045,-77 1051,-83 1051,-89 1051,-89 1051,-108 1051,-108 1051,-114 1045,-120 1039,-120"/>
<text text-anchor="middle" x="761.5" y="-94.8" font-family="Times New Roman,serif" font-size="14.00">prints out the result of macro expansion and #[derive] expansion applied to the current crate.</text>
</g>
<!-- cargo&#45;expand&#45;&gt;prints out the result of macro expansion and #[derive] expansion applied to the current crate. -->
<g id="edge9" class="edge">
<title>cargo&#45;expand&#45;&gt;prints out the result of macro expansion and #[derive] expansion applied to the current crate.</title>
<path fill="none" stroke="black" d="M368.89,-145.52C400.48,-139.73 437.99,-133.27 472,-128.5 490.26,-125.94 509.2,-123.5 528.25,-121.2"/>
<polygon fill="black" stroke="black" points="528.71,-124.67 538.22,-120 527.87,-117.72 528.71,-124.67"/>
</g>
<!-- Log -->
<g id="node12" class="node">
<title>Log</title>
<path fill="none" stroke="black" d="M94.5,-455C94.5,-455 24.5,-455 24.5,-455 18.5,-455 12.5,-449 12.5,-443 12.5,-443 12.5,-424 12.5,-424 12.5,-418 18.5,-412 24.5,-412 24.5,-412 94.5,-412 94.5,-412 100.5,-412 106.5,-418 106.5,-424 106.5,-424 106.5,-443 106.5,-443 106.5,-449 100.5,-455 94.5,-455"/>
<text text-anchor="middle" x="59.5" y="-429.8" font-family="Times New Roman,serif" font-size="14.00">Log</text>
</g>
<!-- log -->
<g id="node13" class="node">
<title>log</title>
<path fill="none" stroke="black" d="M328.5,-486C328.5,-486 262.5,-486 262.5,-486 256.5,-486 250.5,-480 250.5,-474 250.5,-474 250.5,-455 250.5,-455 250.5,-449 256.5,-443 262.5,-443 262.5,-443 328.5,-443 328.5,-443 334.5,-443 340.5,-449 340.5,-455 340.5,-455 340.5,-474 340.5,-474 340.5,-480 334.5,-486 328.5,-486"/>
<text text-anchor="middle" x="295.5" y="-460.8" font-family="Times New Roman,serif" font-size="14.00">log</text>
</g>
<!-- Log&#45;&gt;log -->
<g id="edge10" class="edge">
<title>Log&#45;&gt;log</title>
<path fill="none" stroke="black" d="M106.73,-439.62C145.16,-444.72 199.91,-451.97 240.38,-457.33"/>
<polygon fill="black" stroke="black" points="239.97,-460.81 250.35,-458.65 240.89,-453.87 239.97,-460.81"/>
</g>
<!-- syslog -->
<g id="node14" class="node">
<title>syslog</title>
<path fill="none" stroke="black" d="M337,-425C337,-425 254,-425 254,-425 248,-425 242,-419 242,-413 242,-413 242,-394 242,-394 242,-388 248,-382 254,-382 254,-382 337,-382 337,-382 343,-382 349,-388 349,-394 349,-394 349,-413 349,-413 349,-419 343,-425 337,-425"/>
<text text-anchor="middle" x="295.5" y="-399.8" font-family="Times New Roman,serif" font-size="14.00">syslog</text>
</g>
<!-- Log&#45;&gt;syslog -->
<g id="edge11" class="edge">
<title>Log&#45;&gt;syslog</title>
<path fill="none" stroke="black" d="M106.73,-427.57C142.51,-422.99 192.43,-416.59 231.8,-411.54"/>
<polygon fill="black" stroke="black" points="232.36,-415 241.83,-410.25 231.47,-408.05 232.36,-415"/>
</g>
</g>
</svg>
