<?xml version="1.0" encoding="UTF-8" standalone="no"?>
<!DOCTYPE svg PUBLIC "-//W3C//DTD SVG 1.1//EN"
 "http://www.w3.org/Graphics/SVG/1.1/DTD/svg11.dtd">
<!-- Generated by graphviz version 2.50.0 (0)
 -->
<!-- Pages: 1 -->
<svg width="1181pt" height="1061pt"
 viewBox="0.00 0.00 1181.00 1061.00" xmlns="http://www.w3.org/2000/svg" xmlns:xlink="http://www.w3.org/1999/xlink">
<g id="graph0" class="graph" transform="scale(1 1) rotate(0) translate(4 1057)">
<polygon fill="white" stroke="transparent" points="-4,4 -4,-1057 1177,-1057 1177,4 -4,4"/>
<!-- Flame Graphs -->
<g id="node1" class="node">
<title>Flame Graphs</title>
<path fill="none" stroke="black" d="M183.5,-104C183.5,-104 57.5,-104 57.5,-104 51.5,-104 45.5,-98 45.5,-92 45.5,-92 45.5,-73 45.5,-73 45.5,-67 51.5,-61 57.5,-61 57.5,-61 183.5,-61 183.5,-61 189.5,-61 195.5,-67 195.5,-73 195.5,-73 195.5,-92 195.5,-92 195.5,-98 189.5,-104 183.5,-104"/>
<text text-anchor="middle" x="120.5" y="-78.8" font-family="Times New Roman,serif" font-size="14.00">Flame Graphs</text>
</g>
<!-- github.com/jonhoo/inferno -->
<g id="node2" class="node">
<title>github.com/jonhoo/inferno</title>
<path fill="none" stroke="black" d="M515,-165C515,-165 320,-165 320,-165 314,-165 308,-159 308,-153 308,-153 308,-134 308,-134 308,-128 314,-122 320,-122 320,-122 515,-122 515,-122 521,-122 527,-128 527,-134 527,-134 527,-153 527,-153 527,-159 521,-165 515,-165"/>
<text text-anchor="middle" x="417.5" y="-139.8" font-family="Times New Roman,serif" font-size="14.00">github.com/jonhoo/inferno</text>
</g>
<!-- Flame Graphs&#45;&gt;github.com/jonhoo/inferno -->
<g id="edge1" class="edge">
<title>Flame Graphs&#45;&gt;github.com/jonhoo/inferno</title>
<path fill="none" stroke="black" d="M195.56,-97.81C227.85,-104.49 266.45,-112.47 302.29,-119.88"/>
<polygon fill="black" stroke="black" points="301.81,-123.36 312.31,-121.96 303.23,-116.5 301.81,-123.36"/>
</g>
<!-- github.com/flamegraph&#45;rs/flamegraph -->
<g id="node3" class="node">
<title>github.com/flamegraph&#45;rs/flamegraph</title>
<path fill="none" stroke="black" d="M546,-104C546,-104 289,-104 289,-104 283,-104 277,-98 277,-92 277,-92 277,-73 277,-73 277,-67 283,-61 289,-61 289,-61 546,-61 546,-61 552,-61 558,-67 558,-73 558,-73 558,-92 558,-92 558,-98 552,-104 546,-104"/>
<text text-anchor="middle" x="417.5" y="-78.8" font-family="Times New Roman,serif" font-size="14.00">github.com/flamegraph&#45;rs/flamegraph</text>
</g>
<!-- Flame Graphs&#45;&gt;github.com/flamegraph&#45;rs/flamegraph -->
<g id="edge2" class="edge">
<title>Flame Graphs&#45;&gt;github.com/flamegraph&#45;rs/flamegraph</title>
<path fill="none" stroke="black" d="M195.56,-82.5C217.31,-82.5 241.92,-82.5 266.62,-82.5"/>
<polygon fill="black" stroke="black" points="266.83,-86 276.83,-82.5 266.83,-79 266.83,-86"/>
</g>
<!-- github.com/tokio&#45;rs/tracing -->
<g id="node4" class="node">
<title>github.com/tokio&#45;rs/tracing</title>
<path fill="none" stroke="black" d="M516.5,-43C516.5,-43 318.5,-43 318.5,-43 312.5,-43 306.5,-37 306.5,-31 306.5,-31 306.5,-12 306.5,-12 306.5,-6 312.5,0 318.5,0 318.5,0 516.5,0 516.5,0 522.5,0 528.5,-6 528.5,-12 528.5,-12 528.5,-31 528.5,-31 528.5,-37 522.5,-43 516.5,-43"/>
<text text-anchor="middle" x="417.5" y="-17.8" font-family="Times New Roman,serif" font-size="14.00">github.com/tokio&#45;rs/tracing</text>
</g>
<!-- Flame Graphs&#45;&gt;github.com/tokio&#45;rs/tracing -->
<g id="edge3" class="edge">
<title>Flame Graphs&#45;&gt;github.com/tokio&#45;rs/tracing</title>
<path fill="none" stroke="black" d="M195.56,-67.19C227.85,-60.51 266.45,-52.53 302.29,-45.12"/>
<polygon fill="black" stroke="black" points="303.23,-48.5 312.31,-43.04 301.81,-41.64 303.23,-48.5"/>
</g>
<!-- A Rust port of FlameGraph  -->
<g id="node6" class="node">
<title>A Rust port of FlameGraph </title>
<path fill="none" stroke="black" d="M984.5,-165C984.5,-165 782.5,-165 782.5,-165 776.5,-165 770.5,-159 770.5,-153 770.5,-153 770.5,-134 770.5,-134 770.5,-128 776.5,-122 782.5,-122 782.5,-122 984.5,-122 984.5,-122 990.5,-122 996.5,-128 996.5,-134 996.5,-134 996.5,-153 996.5,-153 996.5,-159 990.5,-165 984.5,-165"/>
<text text-anchor="middle" x="883.5" y="-139.8" font-family="Times New Roman,serif" font-size="14.00">A Rust port of FlameGraph </text>
</g>
<!-- github.com/jonhoo/inferno&#45;&gt;A Rust port of FlameGraph  -->
<g id="edge5" class="edge">
<title>github.com/jonhoo/inferno&#45;&gt;A Rust port of FlameGraph </title>
<path fill="none" stroke="black" d="M527.29,-143.5C597.13,-143.5 687.96,-143.5 760.28,-143.5"/>
<polygon fill="black" stroke="black" points="760.36,-147 770.36,-143.5 760.36,-140 760.36,-147"/>
</g>
<!-- Easy flamegraphs for Rust projects and everything else, without Perl or pipes &lt;3  -->
<g id="node5" class="node">
<title>Easy flamegraphs for Rust projects and everything else, without Perl or pipes &lt;3 </title>
<path fill="none" stroke="black" d="M1130.5,-104C1130.5,-104 636.5,-104 636.5,-104 630.5,-104 624.5,-98 624.5,-92 624.5,-92 624.5,-73 624.5,-73 624.5,-67 630.5,-61 636.5,-61 636.5,-61 1130.5,-61 1130.5,-61 1136.5,-61 1142.5,-67 1142.5,-73 1142.5,-73 1142.5,-92 1142.5,-92 1142.5,-98 1136.5,-104 1130.5,-104"/>
<text text-anchor="middle" x="883.5" y="-78.8" font-family="Times New Roman,serif" font-size="14.00">Easy flamegraphs for Rust projects and everything else, without Perl or pipes &lt;3 </text>
</g>
<!-- github.com/flamegraph&#45;rs/flamegraph&#45;&gt;Easy flamegraphs for Rust projects and everything else, without Perl or pipes &lt;3  -->
<g id="edge4" class="edge">
<title>github.com/flamegraph&#45;rs/flamegraph&#45;&gt;Easy flamegraphs for Rust projects and everything else, without Perl or pipes &lt;3 </title>
<path fill="none" stroke="black" d="M558.03,-82.5C576.1,-82.5 595.06,-82.5 614.37,-82.5"/>
<polygon fill="black" stroke="black" points="614.49,-86 624.49,-82.5 614.49,-79 614.49,-86"/>
</g>
<!-- instrumenting Rust programs to collect structured, event&#45;based diagnostic information.  -->
<g id="node7" class="node">
<title>instrumenting Rust programs to collect structured, event&#45;based diagnostic information. </title>
<path fill="none" stroke="black" d="M1147,-43C1147,-43 620,-43 620,-43 614,-43 608,-37 608,-31 608,-31 608,-12 608,-12 608,-6 614,0 620,0 620,0 1147,0 1147,0 1153,0 1159,-6 1159,-12 1159,-12 1159,-31 1159,-31 1159,-37 1153,-43 1147,-43"/>
<text text-anchor="middle" x="883.5" y="-17.8" font-family="Times New Roman,serif" font-size="14.00">instrumenting Rust programs to collect structured, event&#45;based diagnostic information. </text>
</g>
<!-- github.com/tokio&#45;rs/tracing&#45;&gt;instrumenting Rust programs to collect structured, event&#45;based diagnostic information.  -->
<g id="edge6" class="edge">
<title>github.com/tokio&#45;rs/tracing&#45;&gt;instrumenting Rust programs to collect structured, event&#45;based diagnostic information. </title>
<path fill="none" stroke="black" d="M528.76,-21.5C550.19,-21.5 573.56,-21.5 597.74,-21.5"/>
<polygon fill="black" stroke="black" points="597.78,-25 607.78,-21.5 597.78,-18 597.78,-25"/>
</g>
<!-- different types of flame graphs -->
<g id="node8" class="node">
<title>different types of flame graphs</title>
<path fill="none" stroke="black" d="M229,-348C229,-348 12,-348 12,-348 6,-348 0,-342 0,-336 0,-336 0,-317 0,-317 0,-311 6,-305 12,-305 12,-305 229,-305 229,-305 235,-305 241,-311 241,-317 241,-317 241,-336 241,-336 241,-342 235,-348 229,-348"/>
<text text-anchor="middle" x="120.5" y="-322.8" font-family="Times New Roman,serif" font-size="14.00">different types of flame graphs</text>
</g>
<!-- CPU -->
<g id="node9" class="node">
<title>CPU</title>
<path fill="none" stroke="black" d="M455,-470C455,-470 380,-470 380,-470 374,-470 368,-464 368,-458 368,-458 368,-439 368,-439 368,-433 374,-427 380,-427 380,-427 455,-427 455,-427 461,-427 467,-433 467,-439 467,-439 467,-458 467,-458 467,-464 461,-470 455,-470"/>
<text text-anchor="middle" x="417.5" y="-444.8" font-family="Times New Roman,serif" font-size="14.00">CPU</text>
</g>
<!-- different types of flame graphs&#45;&gt;CPU -->
<g id="edge7" class="edge">
<title>different types of flame graphs&#45;&gt;CPU</title>
<path fill="none" stroke="black" d="M151.9,-348.16C182.24,-368.82 230.85,-399.38 277,-417.5 302.79,-427.62 332.63,-434.81 358.07,-439.7"/>
<polygon fill="black" stroke="black" points="357.48,-443.15 367.95,-441.53 358.75,-436.27 357.48,-443.15"/>
</g>
<!-- Memory -->
<g id="node10" class="node">
<title>Memory</title>
<path fill="none" stroke="black" d="M466,-409C466,-409 369,-409 369,-409 363,-409 357,-403 357,-397 357,-397 357,-378 357,-378 357,-372 363,-366 369,-366 369,-366 466,-366 466,-366 472,-366 478,-372 478,-378 478,-378 478,-397 478,-397 478,-403 472,-409 466,-409"/>
<text text-anchor="middle" x="417.5" y="-383.8" font-family="Times New Roman,serif" font-size="14.00">Memory</text>
</g>
<!-- different types of flame graphs&#45;&gt;Memory -->
<g id="edge8" class="edge">
<title>different types of flame graphs&#45;&gt;Memory</title>
<path fill="none" stroke="black" d="M225.51,-348.01C265.69,-356.32 310.6,-365.6 346.77,-373.08"/>
<polygon fill="black" stroke="black" points="346.23,-376.54 356.73,-375.14 347.64,-369.69 346.23,-376.54"/>
</g>
<!-- Off&#45;CPU -->
<g id="node11" class="node">
<title>Off&#45;CPU</title>
<path fill="none" stroke="black" d="M466.5,-348C466.5,-348 368.5,-348 368.5,-348 362.5,-348 356.5,-342 356.5,-336 356.5,-336 356.5,-317 356.5,-317 356.5,-311 362.5,-305 368.5,-305 368.5,-305 466.5,-305 466.5,-305 472.5,-305 478.5,-311 478.5,-317 478.5,-317 478.5,-336 478.5,-336 478.5,-342 472.5,-348 466.5,-348"/>
<text text-anchor="middle" x="417.5" y="-322.8" font-family="Times New Roman,serif" font-size="14.00">Off&#45;CPU</text>
</g>
<!-- different types of flame graphs&#45;&gt;Off&#45;CPU -->
<g id="edge9" class="edge">
<title>different types of flame graphs&#45;&gt;Off&#45;CPU</title>
<path fill="none" stroke="black" d="M241.06,-326.5C276.65,-326.5 314.49,-326.5 345.88,-326.5"/>
<polygon fill="black" stroke="black" points="346.26,-330 356.26,-326.5 346.26,-323 346.26,-330"/>
</g>
<!-- Hot/Cold -->
<g id="node12" class="node">
<title>Hot/Cold</title>
<path fill="none" stroke="black" d="M467,-287C467,-287 368,-287 368,-287 362,-287 356,-281 356,-275 356,-275 356,-256 356,-256 356,-250 362,-244 368,-244 368,-244 467,-244 467,-244 473,-244 479,-250 479,-256 479,-256 479,-275 479,-275 479,-281 473,-287 467,-287"/>
<text text-anchor="middle" x="417.5" y="-261.8" font-family="Times New Roman,serif" font-size="14.00">Hot/Cold</text>
</g>
<!-- different types of flame graphs&#45;&gt;Hot/Cold -->
<g id="edge10" class="edge">
<title>different types of flame graphs&#45;&gt;Hot/Cold</title>
<path fill="none" stroke="black" d="M225.51,-304.99C265.38,-296.75 309.92,-287.54 345.95,-280.09"/>
<polygon fill="black" stroke="black" points="346.79,-283.49 355.87,-278.04 345.37,-276.63 346.79,-283.49"/>
</g>
<!-- Differential -->
<g id="node13" class="node">
<title>Differential</title>
<path fill="none" stroke="black" d="M473.5,-226C473.5,-226 361.5,-226 361.5,-226 355.5,-226 349.5,-220 349.5,-214 349.5,-214 349.5,-195 349.5,-195 349.5,-189 355.5,-183 361.5,-183 361.5,-183 473.5,-183 473.5,-183 479.5,-183 485.5,-189 485.5,-195 485.5,-195 485.5,-214 485.5,-214 485.5,-220 479.5,-226 473.5,-226"/>
<text text-anchor="middle" x="417.5" y="-200.8" font-family="Times New Roman,serif" font-size="14.00">Differential</text>
</g>
<!-- different types of flame graphs&#45;&gt;Differential -->
<g id="edge11" class="edge">
<title>different types of flame graphs&#45;&gt;Differential</title>
<path fill="none" stroke="black" d="M151.27,-304.91C181.51,-283.96 230.41,-252.73 277,-234.5 296.63,-226.82 318.62,-220.93 339.23,-216.49"/>
<polygon fill="black" stroke="black" points="340.14,-219.88 349.22,-214.43 338.72,-213.02 340.14,-219.88"/>
</g>
<!-- Log -->
<g id="node14" class="node">
<title>Log</title>
<path fill="none" stroke="black" d="M155.5,-561C155.5,-561 85.5,-561 85.5,-561 79.5,-561 73.5,-555 73.5,-549 73.5,-549 73.5,-530 73.5,-530 73.5,-524 79.5,-518 85.5,-518 85.5,-518 155.5,-518 155.5,-518 161.5,-518 167.5,-524 167.5,-530 167.5,-530 167.5,-549 167.5,-549 167.5,-555 161.5,-561 155.5,-561"/>
<text text-anchor="middle" x="120.5" y="-535.8" font-family="Times New Roman,serif" font-size="14.00">Log</text>
</g>
<!-- log -->
<g id="node15" class="node">
<title>log</title>
<path fill="none" stroke="black" d="M450.5,-592C450.5,-592 384.5,-592 384.5,-592 378.5,-592 372.5,-586 372.5,-580 372.5,-580 372.5,-561 372.5,-561 372.5,-555 378.5,-549 384.5,-549 384.5,-549 450.5,-549 450.5,-549 456.5,-549 462.5,-555 462.5,-561 462.5,-561 462.5,-580 462.5,-580 462.5,-586 456.5,-592 450.5,-592"/>
<text text-anchor="middle" x="417.5" y="-566.8" font-family="Times New Roman,serif" font-size="14.00">log</text>
</g>
<!-- Log&#45;&gt;log -->
<g id="edge12" class="edge">
<title>Log&#45;&gt;log</title>
<path fill="none" stroke="black" d="M167.59,-544.34C220.22,-549.87 306.24,-558.91 362.11,-564.78"/>
<polygon fill="black" stroke="black" points="361.86,-568.28 372.18,-565.84 362.6,-561.32 361.86,-568.28"/>
</g>
<!-- syslog -->
<g id="node16" class="node">
<title>syslog</title>
<path fill="none" stroke="black" d="M459,-531C459,-531 376,-531 376,-531 370,-531 364,-525 364,-519 364,-519 364,-500 364,-500 364,-494 370,-488 376,-488 376,-488 459,-488 459,-488 465,-488 471,-494 471,-500 471,-500 471,-519 471,-519 471,-525 465,-531 459,-531"/>
<text text-anchor="middle" x="417.5" y="-505.8" font-family="Times New Roman,serif" font-size="14.00">syslog</text>
</g>
<!-- Log&#45;&gt;syslog -->
<g id="edge13" class="edge">
<title>Log&#45;&gt;syslog</title>
<path fill="none" stroke="black" d="M167.59,-534.81C217.63,-529.72 297.85,-521.57 353.64,-515.89"/>
<polygon fill="black" stroke="black" points="354.17,-519.36 363.76,-514.86 353.46,-512.39 354.17,-519.36"/>
</g>
<!-- DEBUG -->
<g id="node17" class="node">
<title>DEBUG</title>
<path fill="none" stroke="black" d="M168,-744C168,-744 73,-744 73,-744 67,-744 61,-738 61,-732 61,-732 61,-713 61,-713 61,-707 67,-701 73,-701 73,-701 168,-701 168,-701 174,-701 180,-707 180,-713 180,-713 180,-732 180,-732 180,-738 174,-744 168,-744"/>
<text text-anchor="middle" x="120.5" y="-718.8" font-family="Times New Roman,serif" font-size="14.00">DEBUG</text>
</g>
<!-- pringln!(&quot; -->
<g id="node18" class="node">
<title>pringln!(&quot;</title>
<path fill="none" stroke="black" d="M469,-836C469,-836 366,-836 366,-836 360,-836 354,-830 354,-824 354,-824 354,-805 354,-805 354,-799 360,-793 366,-793 366,-793 469,-793 469,-793 475,-793 481,-799 481,-805 481,-805 481,-824 481,-824 481,-830 475,-836 469,-836"/>
<text text-anchor="middle" x="417.5" y="-810.8" font-family="Times New Roman,serif" font-size="14.00">pringln!(&quot;</text>
</g>
<!-- DEBUG&#45;&gt;pringln!(&quot; -->
<g id="edge14" class="edge">
<title>DEBUG&#45;&gt;pringln!(&quot;:#?&quot;,xx)</title>
<path fill="none" stroke="black" d="M170.88,-744.14C201.1,-756.82 240.8,-772.45 277,-783.5 298.5,-790.06 322.26,-795.86 343.99,-800.62"/>
<polygon fill="black" stroke="black" points="343.3,-804.05 353.81,-802.73 344.77,-797.21 343.3,-804.05"/>
</g>
<!-- deg!(function()) -->
<g id="node19" class="node">
<title>deg!(function())</title>
<path fill="none" stroke="black" d="M485.5,-775C485.5,-775 349.5,-775 349.5,-775 343.5,-775 337.5,-769 337.5,-763 337.5,-763 337.5,-744 337.5,-744 337.5,-738 343.5,-732 349.5,-732 349.5,-732 485.5,-732 485.5,-732 491.5,-732 497.5,-738 497.5,-744 497.5,-744 497.5,-763 497.5,-763 497.5,-769 491.5,-775 485.5,-775"/>
<text text-anchor="middle" x="417.5" y="-749.8" font-family="Times New Roman,serif" font-size="14.00">deg!(function())</text>
</g>
<!-- DEBUG&#45;&gt;deg!(function()) -->
<g id="edge15" class="edge">
<title>DEBUG&#45;&gt;deg!(function())</title>
<path fill="none" stroke="black" d="M180.14,-728.66C222.18,-733.08 279.57,-739.11 327.28,-744.12"/>
<polygon fill="black" stroke="black" points="326.99,-747.61 337.3,-745.18 327.72,-740.65 326.99,-747.61"/>
</g>
<!-- #[derive(Debug)] -->
<g id="node20" class="node">
<title>#[derive(Debug)]</title>
<path fill="none" stroke="black" d="M489,-714C489,-714 346,-714 346,-714 340,-714 334,-708 334,-702 334,-702 334,-683 334,-683 334,-677 340,-671 346,-671 346,-671 489,-671 489,-671 495,-671 501,-677 501,-683 501,-683 501,-702 501,-702 501,-708 495,-714 489,-714"/>
<text text-anchor="middle" x="417.5" y="-688.8" font-family="Times New Roman,serif" font-size="14.00">#[derive(Debug)]</text>
</g>
<!-- DEBUG&#45;&gt;#[derive(Debug)] -->
<g id="edge16" class="edge">
<title>DEBUG&#45;&gt;#[derive(Debug)]</title>
<path fill="none" stroke="black" d="M180.14,-716.54C221.15,-712.37 276.78,-706.71 323.77,-701.93"/>
<polygon fill="black" stroke="black" points="324.37,-705.39 333.96,-700.89 323.66,-698.42 324.37,-705.39"/>
</g>
<!-- cargo&#45;expand -->
<g id="node22" class="node">
<title>cargo&#45;expand</title>
<path fill="none" stroke="black" d="M478.5,-653C478.5,-653 356.5,-653 356.5,-653 350.5,-653 344.5,-647 344.5,-641 344.5,-641 344.5,-622 344.5,-622 344.5,-616 350.5,-610 356.5,-610 356.5,-610 478.5,-610 478.5,-610 484.5,-610 490.5,-616 490.5,-622 490.5,-622 490.5,-641 490.5,-641 490.5,-647 484.5,-653 478.5,-653"/>
<text text-anchor="middle" x="417.5" y="-627.8" font-family="Times New Roman,serif" font-size="14.00">cargo&#45;expand</text>
</g>
<!-- DEBUG&#45;&gt;cargo&#45;expand -->
<g id="edge18" class="edge">
<title>DEBUG&#45;&gt;cargo&#45;expand</title>
<path fill="none" stroke="black" d="M170.5,-700.92C200.76,-688.18 240.63,-672.47 277,-661.5 295.38,-655.96 315.41,-651.02 334.42,-646.83"/>
<polygon fill="black" stroke="black" points="335.21,-650.24 344.25,-644.71 333.73,-643.4 335.21,-650.24"/>
</g>
<!-- fn fmt(&amp;self, f -->
<g id="node21" class="node">
<title>fn fmt(&amp;self, f</title>
<path fill="none" stroke="black" d="M948.5,-714C948.5,-714 818.5,-714 818.5,-714 812.5,-714 806.5,-708 806.5,-702 806.5,-702 806.5,-683 806.5,-683 806.5,-677 812.5,-671 818.5,-671 818.5,-671 948.5,-671 948.5,-671 954.5,-671 960.5,-677 960.5,-683 960.5,-683 960.5,-702 960.5,-702 960.5,-708 954.5,-714 948.5,-714"/>
<text text-anchor="middle" x="883.5" y="-688.8" font-family="Times New Roman,serif" font-size="14.00">fn fmt(&amp;self, f</text>
</g>
<!-- #[derive(Debug)]&#45;&gt;fn fmt(&amp;self, f -->
<g id="edge17" class="edge">
<title>#[derive(Debug)]&#45;&gt;fn fmt(&amp;self, f: &amp;mut Formatter&lt;&#39;_&gt;) &#45;&gt; Result&lt;(), Error&gt;;</title>
<path fill="none" stroke="black" d="M501.19,-692.5C584.31,-692.5 711.89,-692.5 796.26,-692.5"/>
<polygon fill="black" stroke="black" points="796.32,-696 806.32,-692.5 796.32,-689 796.32,-696"/>
</g>
<!-- cargo rustc &#45;&#45;profile=check &#45;&#45; &#45;Zunpretty=expanded -->
<g id="node23" class="node">
<title>cargo rustc &#45;&#45;profile=check &#45;&#45; &#45;Zunpretty=expanded</title>
<path fill="none" stroke="black" d="M1049,-653C1049,-653 718,-653 718,-653 712,-653 706,-647 706,-641 706,-641 706,-622 706,-622 706,-616 712,-610 718,-610 718,-610 1049,-610 1049,-610 1055,-610 1061,-616 1061,-622 1061,-622 1061,-641 1061,-641 1061,-647 1055,-653 1049,-653"/>
<text text-anchor="middle" x="883.5" y="-627.8" font-family="Times New Roman,serif" font-size="14.00">cargo rustc &#45;&#45;profile=check &#45;&#45; &#45;Zunpretty=expanded</text>
</g>
<!-- cargo&#45;expand&#45;&gt;cargo rustc &#45;&#45;profile=check &#45;&#45; &#45;Zunpretty=expanded -->
<g id="edge19" class="edge">
<title>cargo&#45;expand&#45;&gt;cargo rustc &#45;&#45;profile=check &#45;&#45; &#45;Zunpretty=expanded</title>
<path fill="none" stroke="black" d="M490.75,-631.5C545.6,-631.5 623.63,-631.5 695.62,-631.5"/>
<polygon fill="black" stroke="black" points="695.74,-635 705.74,-631.5 695.74,-628 695.74,-635"/>
</g>
<!-- prints out the result of macro expansion and #[derive] expansion applied to the current crate. -->
<g id="node24" class="node">
<title>prints out the result of macro expansion and #[derive] expansion applied to the current crate.</title>
<path fill="none" stroke="black" d="M1161,-592C1161,-592 606,-592 606,-592 600,-592 594,-586 594,-580 594,-580 594,-561 594,-561 594,-555 600,-549 606,-549 606,-549 1161,-549 1161,-549 1167,-549 1173,-555 1173,-561 1173,-561 1173,-580 1173,-580 1173,-586 1167,-592 1161,-592"/>
<text text-anchor="middle" x="883.5" y="-566.8" font-family="Times New Roman,serif" font-size="14.00">prints out the result of macro expansion and #[derive] expansion applied to the current crate.</text>
</g>
<!-- cargo&#45;expand&#45;&gt;prints out the result of macro expansion and #[derive] expansion applied to the current crate. -->
<g id="edge20" class="edge">
<title>cargo&#45;expand&#45;&gt;prints out the result of macro expansion and #[derive] expansion applied to the current crate.</title>
<path fill="none" stroke="black" d="M490.89,-617.52C522.48,-611.73 559.99,-605.27 594,-600.5 612.26,-597.94 631.2,-595.5 650.25,-593.2"/>
<polygon fill="black" stroke="black" points="650.71,-596.67 660.22,-592 649.87,-589.72 650.71,-596.67"/>
</g>
<!-- Test -->
<g id="node25" class="node">
<title>Test</title>
<path fill="none" stroke="black" d="M156,-931C156,-931 85,-931 85,-931 79,-931 73,-925 73,-919 73,-919 73,-900 73,-900 73,-894 79,-888 85,-888 85,-888 156,-888 156,-888 162,-888 168,-894 168,-900 168,-900 168,-919 168,-919 168,-925 162,-931 156,-931"/>
<text text-anchor="middle" x="120.5" y="-905.8" font-family="Times New Roman,serif" font-size="14.00">Test</text>
</g>
<!-- #[test]\lfn test_abc(){ -->
<g id="node26" class="node">
<title>#[test]\lfn test_abc(){</title>
<path fill="none" stroke="black" d="M479.5,-973.5C479.5,-973.5 355.5,-973.5 355.5,-973.5 349.5,-973.5 343.5,-967.5 343.5,-961.5 343.5,-961.5 343.5,-927.5 343.5,-927.5 343.5,-921.5 349.5,-915.5 355.5,-915.5 355.5,-915.5 479.5,-915.5 479.5,-915.5 485.5,-915.5 491.5,-921.5 491.5,-927.5 491.5,-927.5 491.5,-961.5 491.5,-961.5 491.5,-967.5 485.5,-973.5 479.5,-973.5"/>
<text text-anchor="start" x="379.5" y="-948.3" font-family="Times New Roman,serif" font-size="14.00">#[test]</text>
<text text-anchor="middle" x="417.5" y="-933.3" font-family="Times New Roman,serif" font-size="14.00">fn test_abc(){</text>
</g>
<!-- Test&#45;&gt;#[test]\lfn test_abc(){ -->
<g id="edge21" class="edge">
<title>Test&#45;&gt;#[test]\lfn test_abc(){</title>
<path fill="none" stroke="black" d="M168.24,-915.05C212.43,-920.29 279.72,-928.27 333.11,-934.61"/>
<polygon fill="black" stroke="black" points="332.9,-938.11 343.24,-935.81 333.73,-931.15 332.9,-938.11"/>
</g>
<!-- cargo test &#45;&#45; &#45;&#45;nocapture test_fn_name -->
<g id="node27" class="node">
<title>cargo test &#45;&#45; &#45;&#45;nocapture test_fn_name</title>
<path fill="none" stroke="black" d="M546,-897C546,-897 289,-897 289,-897 283,-897 277,-891 277,-885 277,-885 277,-866 277,-866 277,-860 283,-854 289,-854 289,-854 546,-854 546,-854 552,-854 558,-860 558,-866 558,-866 558,-885 558,-885 558,-891 552,-897 546,-897"/>
<text text-anchor="middle" x="417.5" y="-871.8" font-family="Times New Roman,serif" font-size="14.00">cargo test &#45;&#45; &#45;&#45;nocapture test_fn_name</text>
</g>
<!-- Test&#45;&gt;cargo test &#45;&#45; &#45;&#45;nocapture test_fn_name -->
<g id="edge22" class="edge">
<title>Test&#45;&gt;cargo test &#45;&#45; &#45;&#45;nocapture test_fn_name</title>
<path fill="none" stroke="black" d="M168.24,-904.11C195.27,-901 230.94,-896.89 266.79,-892.75"/>
<polygon fill="black" stroke="black" points="267.37,-896.21 276.9,-891.59 266.56,-889.26 267.37,-896.21"/>
</g>
<!-- cargo doc -->
<g id="node28" class="node">
<title>cargo doc</title>
<path fill="none" stroke="black" d="M203.5,-1053C203.5,-1053 37.5,-1053 37.5,-1053 31.5,-1053 25.5,-1047 25.5,-1041 25.5,-1041 25.5,-1004 25.5,-1004 25.5,-998 31.5,-992 37.5,-992 37.5,-992 203.5,-992 203.5,-992 209.5,-992 215.5,-998 215.5,-1004 215.5,-1004 215.5,-1041 215.5,-1041 215.5,-1047 209.5,-1053 203.5,-1053"/>
<text text-anchor="middle" x="120.5" y="-1015" font-family="Times New Roman,serif" font-size="30.00" fill="#ea4f16">cargo doc</text>
</g>
<!-- ./target/doc -->
<g id="node29" class="node">
<title>./target/doc</title>
<path fill="none" stroke="black" d="M509.5,-1053C509.5,-1053 325.5,-1053 325.5,-1053 319.5,-1053 313.5,-1047 313.5,-1041 313.5,-1041 313.5,-1004 313.5,-1004 313.5,-998 319.5,-992 325.5,-992 325.5,-992 509.5,-992 509.5,-992 515.5,-992 521.5,-998 521.5,-1004 521.5,-1004 521.5,-1041 521.5,-1041 521.5,-1047 515.5,-1053 509.5,-1053"/>
<text text-anchor="middle" x="417.5" y="-1015" font-family="Times New Roman,serif" font-size="30.00" fill="#30638e">./target/doc</text>
</g>
<!-- cargo doc&#45;&gt;./target/doc -->
<g id="edge23" class="edge">
<title>cargo doc&#45;&gt;./target/doc</title>
<path fill="none" stroke="black" d="M215.65,-1022.5C243.48,-1022.5 274.24,-1022.5 303.14,-1022.5"/>
<polygon fill="black" stroke="black" points="303.28,-1026 313.28,-1022.5 303.28,-1019 303.28,-1026"/>
</g>
</g>
</svg>
