<?xml version="1.0" encoding="UTF-8" standalone="no"?>
<!DOCTYPE svg PUBLIC "-//W3C//DTD SVG 1.1//EN"
 "http://www.w3.org/Graphics/SVG/1.1/DTD/svg11.dtd">
<!-- Generated by graphviz version 2.50.0 (0)
 -->
<!-- Pages: 1 -->
<svg width="454pt" height="308pt"
 viewBox="0.00 0.00 454.00 308.00" xmlns="http://www.w3.org/2000/svg" xmlns:xlink="http://www.w3.org/1999/xlink">
<g id="graph0" class="graph" transform="scale(1 1) rotate(0) translate(4 304)">
<polygon fill="white" stroke="transparent" points="-4,4 -4,-304 450,-304 450,4 -4,4"/>
<g id="clust1" class="cluster">
<title>cluster_fn</title>
<polygon fill="none" stroke="black" points="184,-63 184,-256 438,-256 438,-63 184,-63"/>
<text text-anchor="middle" x="311" y="-240.8" font-family="Times New Roman,serif" font-size="14.00">fn</text>
</g>
<g id="clust2" class="cluster">
<title>cluster_code</title>
<polygon fill="none" stroke="black" points="256,-71 256,-225 430,-225 430,-71 256,-71"/>
<text text-anchor="middle" x="343" y="-209.8" font-family="Times New Roman,serif" font-size="14.00">code</text>
</g>
<!-- ofa -->
<g id="node1" class="node">
<title>ofa</title>
<path fill="none" stroke="black" d="M338,-194C338,-194 276,-194 276,-194 270,-194 264,-188 264,-182 264,-182 264,-170 264,-170 264,-164 270,-158 276,-158 276,-158 338,-158 338,-158 344,-158 350,-164 350,-170 350,-170 350,-182 350,-182 350,-188 344,-194 338,-194"/>
<text text-anchor="middle" x="307" y="-172.3" font-family="Times New Roman,serif" font-size="14.00">Other Future</text>
</g>
<!-- await -->
<g id="node2" class="node">
<title>await</title>
<polygon fill="#34af67" stroke="#34af67" points="359.5,-122 264.5,-122 264.5,-79 359.5,-79 359.5,-122"/>
<text text-anchor="middle" x="312" y="-92.4" font-family="Times New Roman,serif" font-size="32.00" fill="#ffffff">.await</text>
</g>
<!-- ofa&#45;&gt;await -->
<g id="edge1" class="edge">
<title>ofa&#45;&gt;await</title>
<path fill="none" stroke="black" d="M308.16,-157.95C308.68,-150.27 309.32,-140.96 309.92,-132.13"/>
<polygon fill="black" stroke="black" points="313.41,-132.34 310.6,-122.12 306.43,-131.86 313.41,-132.34"/>
</g>
<!-- codeNone -->
<!-- fnNone -->
<!-- fn -->
<g id="node5" class="node">
<title>fn</title>
</g>
<!-- fnNone&#45;&gt;fn -->
<g id="edge3" class="edge">
<title>fnNone&#45;&gt;fn</title>
<path fill="none" stroke="black" d="M218.99,-174.95C218.6,-172.76 206.39,-103.71 206.01,-101.55"/>
</g>
<!-- future -->
<g id="node8" class="node">
<title>future</title>
<polygon fill="#30638e" stroke="#30638e" points="212,-43 112,-43 112,0 212,0 212,-43"/>
<text text-anchor="middle" x="162" y="-13.4" font-family="Times New Roman,serif" font-size="32.00" fill="#ffffff">Future</text>
</g>
<!-- fn&#45;&gt;future -->
<g id="edge4" class="edge">
<title>fn&#45;&gt;future</title>
<path fill="none" stroke="black" d="M205.97,-99.44C205.21,-98.11 190.99,-73.23 178.93,-52.12"/>
<polygon fill="black" stroke="black" points="181.93,-50.33 173.93,-43.38 175.86,-53.8 181.93,-50.33"/>
</g>
<!-- poll -->
<g id="node6" class="node">
<title>poll</title>
<polygon fill="#000000" stroke="#000000" points="68,-122 0,-122 0,-79 68,-79 68,-122"/>
<text text-anchor="middle" x="34" y="-92.4" font-family="Times New Roman,serif" font-size="32.00" fill="#ffffff">Poll</text>
</g>
<!-- poll&#45;&gt;future -->
<g id="edge6" class="edge">
<title>poll&#45;&gt;future</title>
<path fill="none" stroke="red" d="M56.35,-78.64C62.76,-73.19 69.93,-67.57 77,-63 85.44,-57.54 94.73,-52.36 103.98,-47.65"/>
<polygon fill="red" stroke="red" points="105.76,-50.68 113.17,-43.11 102.66,-44.4 105.76,-50.68"/>
</g>
<!-- async -->
<g id="node7" class="node">
<title>async</title>
<polygon fill="#34af67" stroke="#34af67" points="175.5,-122 86.5,-122 86.5,-79 175.5,-79 175.5,-122"/>
<text text-anchor="middle" x="131" y="-92.4" font-family="Times New Roman,serif" font-size="32.00" fill="#ffffff">async</text>
</g>
<!-- async&#45;&gt;future -->
<g id="edge5" class="edge">
<title>async&#45;&gt;future</title>
<path fill="none" stroke="black" d="M139.31,-78.87C142.54,-70.84 146.31,-61.48 149.83,-52.72"/>
<polygon fill="black" stroke="black" points="153.18,-53.78 153.67,-43.19 146.69,-51.16 153.18,-53.78"/>
</g>
<!-- future&#45;&gt;codeNone -->
<g id="edge7" class="edge">
<title>future&#45;&gt;codeNone</title>
<path fill="none" stroke="red" d="M212.17,-26.12C266.1,-31.06 347.07,-41.82 369,-63 397.55,-90.57 397.44,-142.88 395.96,-164.87"/>
<polygon fill="red" stroke="red" points="392.46,-164.66 395.01,-174.94 399.43,-165.32 392.46,-164.66"/>
</g>
<!-- run -->
<g id="node9" class="node">
<title>run</title>
<path fill="none" stroke="black" d="M234,-300C234,-300 204,-300 204,-300 198,-300 192,-294 192,-288 192,-288 192,-276 192,-276 192,-270 198,-264 204,-264 204,-264 234,-264 234,-264 240,-264 246,-270 246,-276 246,-276 246,-288 246,-288 246,-294 240,-300 234,-300"/>
<text text-anchor="middle" x="219" y="-278.3" font-family="Times New Roman,serif" font-size="14.00">run</text>
</g>
<!-- run&#45;&gt;fnNone -->
<g id="edge2" class="edge">
<title>run&#45;&gt;fnNone</title>
<path fill="none" stroke="black" d="M219,-263.83C219,-235.21 219,-180.55 219,-177.17"/>
</g>
</g>
</svg>
