<?xml version="1.0" encoding="UTF-8" standalone="no"?>
<!DOCTYPE svg PUBLIC "-//W3C//DTD SVG 1.1//EN"
 "http://www.w3.org/Graphics/SVG/1.1/DTD/svg11.dtd">
<!-- Generated by graphviz version 3.0.0 (20220226.1711)
 -->
<!-- Pages: 1 -->
<svg width="786pt" height="854pt"
 viewBox="0.00 0.00 785.84 854.00" xmlns="http://www.w3.org/2000/svg" xmlns:xlink="http://www.w3.org/1999/xlink">
<g id="graph0" class="graph" transform="scale(1 1) rotate(0) translate(4 850)">
<polygon fill="white" stroke="transparent" points="-4,4 -4,-850 781.84,-850 781.84,4 -4,4"/>
<!-- rustup -->
<g id="node1" class="node">
<title>rustup</title>
<ellipse fill="none" stroke="black" cx="33.8" cy="-423" rx="33.6" ry="18"/>
<text text-anchor="middle" x="33.8" y="-419.3" font-family="Times New Roman,serif" font-size="14.00">rustup</text>
</g>
<!-- show -->
<g id="node2" class="node">
<title>show</title>
<ellipse fill="none" stroke="black" cx="158.84" cy="-828" rx="30.59" ry="18"/>
<text text-anchor="middle" x="158.84" y="-824.3" font-family="Times New Roman,serif" font-size="14.00">show</text>
</g>
<!-- rustup&#45;&gt;show -->
<g id="edge1" class="edge">
<title>rustup&#45;&gt;show</title>
<path fill="none" stroke="black" d="M35.97,-441.21C40.65,-508.56 59.81,-742.75 103.59,-801 108.24,-807.19 114.7,-812.05 121.54,-815.83"/>
<polygon fill="black" stroke="black" points="120.44,-819.19 130.97,-820.35 123.47,-812.87 120.44,-819.19"/>
</g>
<!-- update -->
<g id="node4" class="node">
<title>update</title>
<ellipse fill="none" stroke="black" cx="158.84" cy="-774" rx="35.19" ry="18"/>
<text text-anchor="middle" x="158.84" y="-770.3" font-family="Times New Roman,serif" font-size="14.00">update</text>
</g>
<!-- rustup&#45;&gt;update -->
<g id="edge3" class="edge">
<title>rustup&#45;&gt;update</title>
<path fill="none" stroke="black" d="M36.57,-441.08C42.84,-501.91 65.65,-698.02 103.59,-747 107.79,-752.42 113.37,-756.83 119.35,-760.39"/>
<polygon fill="black" stroke="black" points="117.8,-763.53 128.29,-765.03 121.02,-757.32 117.8,-763.53"/>
</g>
<!-- check -->
<g id="node6" class="node">
<title>check</title>
<ellipse fill="none" stroke="black" cx="158.84" cy="-720" rx="32.49" ry="18"/>
<text text-anchor="middle" x="158.84" y="-716.3" font-family="Times New Roman,serif" font-size="14.00">check</text>
</g>
<!-- rustup&#45;&gt;check -->
<g id="edge5" class="edge">
<title>rustup&#45;&gt;check</title>
<path fill="none" stroke="black" d="M34.48,-441C34.59,-487.88 41,-615.47 103.59,-693 108.23,-698.74 114.39,-703.36 120.9,-707.05"/>
<polygon fill="black" stroke="black" points="119.37,-710.19 129.88,-711.51 122.49,-703.92 119.37,-710.19"/>
</g>
<!-- default -->
<g id="node8" class="node">
<title>default</title>
<ellipse fill="none" stroke="black" cx="158.84" cy="-666" rx="35.19" ry="18"/>
<text text-anchor="middle" x="158.84" y="-662.3" font-family="Times New Roman,serif" font-size="14.00">default</text>
</g>
<!-- rustup&#45;&gt;default -->
<g id="edge7" class="edge">
<title>rustup&#45;&gt;default</title>
<path fill="none" stroke="black" d="M35.9,-441.21C39.26,-481.51 52.5,-579.39 103.59,-639 108.06,-644.21 113.76,-648.51 119.79,-652.04"/>
<polygon fill="black" stroke="black" points="118.25,-655.18 128.74,-656.66 121.46,-648.96 118.25,-655.18"/>
</g>
<!-- toolchain -->
<g id="node10" class="node">
<title>toolchain</title>
<ellipse fill="none" stroke="black" cx="158.84" cy="-612" rx="44.39" ry="18"/>
<text text-anchor="middle" x="158.84" y="-608.3" font-family="Times New Roman,serif" font-size="14.00">toolchain</text>
</g>
<!-- rustup&#45;&gt;toolchain -->
<g id="edge9" class="edge">
<title>rustup&#45;&gt;toolchain</title>
<path fill="none" stroke="black" d="M38.17,-441.07C45.08,-473.61 63.69,-542.62 103.59,-585 107.2,-588.83 111.46,-592.19 115.99,-595.12"/>
<polygon fill="black" stroke="black" points="114.5,-598.3 124.92,-600.24 117.98,-592.23 114.5,-598.3"/>
</g>
<!-- target -->
<g id="node12" class="node">
<title>target</title>
<ellipse fill="none" stroke="black" cx="158.84" cy="-558" rx="30.59" ry="18"/>
<text text-anchor="middle" x="158.84" y="-554.3" font-family="Times New Roman,serif" font-size="14.00">target</text>
</g>
<!-- rustup&#45;&gt;target -->
<g id="edge11" class="edge">
<title>rustup&#45;&gt;target</title>
<path fill="none" stroke="black" d="M42.42,-440.78C53.14,-464.06 74.67,-504.98 103.59,-531 109.29,-536.13 116.14,-540.52 123.03,-544.19"/>
<polygon fill="black" stroke="black" points="121.81,-547.49 132.33,-548.74 124.88,-541.2 121.81,-547.49"/>
</g>
<!-- component -->
<g id="node14" class="node">
<title>component</title>
<ellipse fill="none" stroke="black" cx="158.84" cy="-504" rx="51.99" ry="18"/>
<text text-anchor="middle" x="158.84" y="-500.3" font-family="Times New Roman,serif" font-size="14.00">component</text>
</g>
<!-- rustup&#45;&gt;component -->
<g id="edge13" class="edge">
<title>rustup&#45;&gt;component</title>
<path fill="none" stroke="black" d="M52.17,-438.26C65.65,-449.69 85.11,-465.32 103.59,-477 107.98,-479.77 112.7,-482.48 117.45,-485.05"/>
<polygon fill="black" stroke="black" points="116.06,-488.27 126.55,-489.78 119.29,-482.06 116.06,-488.27"/>
</g>
<!-- override -->
<g id="node16" class="node">
<title>override</title>
<ellipse fill="none" stroke="black" cx="158.84" cy="-450" rx="40.09" ry="18"/>
<text text-anchor="middle" x="158.84" y="-446.3" font-family="Times New Roman,serif" font-size="14.00">override</text>
</g>
<!-- rustup&#45;&gt;override -->
<g id="edge15" class="edge">
<title>rustup&#45;&gt;override</title>
<path fill="none" stroke="black" d="M65.21,-429.67C79.34,-432.77 96.44,-436.53 112.08,-439.96"/>
<polygon fill="black" stroke="black" points="111.58,-443.43 122.1,-442.16 113.08,-436.59 111.58,-443.43"/>
</g>
<!-- run -->
<g id="node18" class="node">
<title>run</title>
<ellipse fill="none" stroke="black" cx="158.84" cy="-396" rx="27" ry="18"/>
<text text-anchor="middle" x="158.84" y="-392.3" font-family="Times New Roman,serif" font-size="14.00">run</text>
</g>
<!-- rustup&#45;&gt;run -->
<g id="edge17" class="edge">
<title>rustup&#45;&gt;run</title>
<path fill="none" stroke="black" d="M65.21,-416.33C82.66,-412.5 104.65,-407.67 122.82,-403.68"/>
<polygon fill="black" stroke="black" points="123.72,-407.07 132.74,-401.51 122.22,-400.23 123.72,-407.07"/>
</g>
<!-- which -->
<g id="node20" class="node">
<title>which</title>
<ellipse fill="none" stroke="black" cx="158.84" cy="-342" rx="32.49" ry="18"/>
<text text-anchor="middle" x="158.84" y="-338.3" font-family="Times New Roman,serif" font-size="14.00">which</text>
</g>
<!-- rustup&#45;&gt;which -->
<g id="edge19" class="edge">
<title>rustup&#45;&gt;which</title>
<path fill="none" stroke="black" d="M52.17,-407.74C65.65,-396.31 85.11,-380.68 103.59,-369 109.95,-364.98 116.99,-361.1 123.83,-357.6"/>
<polygon fill="black" stroke="black" points="125.55,-360.65 132.96,-353.07 122.44,-354.38 125.55,-360.65"/>
</g>
<!-- doc -->
<g id="node22" class="node">
<title>doc</title>
<ellipse fill="none" stroke="black" cx="158.84" cy="-288" rx="27" ry="18"/>
<text text-anchor="middle" x="158.84" y="-284.3" font-family="Times New Roman,serif" font-size="14.00">doc</text>
</g>
<!-- rustup&#45;&gt;doc -->
<g id="edge21" class="edge">
<title>rustup&#45;&gt;doc</title>
<path fill="none" stroke="black" d="M42.42,-405.22C53.14,-381.94 74.67,-341.02 103.59,-315 109.99,-309.25 117.83,-304.41 125.54,-300.5"/>
<polygon fill="black" stroke="black" points="127.2,-303.59 134.78,-296.19 124.24,-297.25 127.2,-303.59"/>
</g>
<!-- man -->
<g id="node24" class="node">
<title>man</title>
<ellipse fill="none" stroke="black" cx="158.84" cy="-234" rx="27" ry="18"/>
<text text-anchor="middle" x="158.84" y="-230.3" font-family="Times New Roman,serif" font-size="14.00">man</text>
</g>
<!-- rustup&#45;&gt;man -->
<g id="edge23" class="edge">
<title>rustup&#45;&gt;man</title>
<path fill="none" stroke="black" d="M38.17,-404.93C45.08,-372.39 63.69,-303.38 103.59,-261 109.49,-254.74 117.15,-249.72 124.85,-245.79"/>
<polygon fill="black" stroke="black" points="126.51,-248.88 134.15,-241.53 123.6,-242.52 126.51,-248.88"/>
</g>
<!-- self -->
<g id="node26" class="node">
<title>self</title>
<ellipse fill="none" stroke="black" cx="158.84" cy="-180" rx="27" ry="18"/>
<text text-anchor="middle" x="158.84" y="-176.3" font-family="Times New Roman,serif" font-size="14.00">self</text>
</g>
<!-- rustup&#45;&gt;self -->
<g id="edge25" class="edge">
<title>rustup&#45;&gt;self</title>
<path fill="none" stroke="black" d="M35.9,-404.79C39.26,-364.49 52.5,-266.61 103.59,-207 109.19,-200.47 116.75,-195.36 124.44,-191.42"/>
<polygon fill="black" stroke="black" points="126.1,-194.51 133.76,-187.19 123.21,-188.14 126.1,-194.51"/>
</g>
<!-- set -->
<g id="node28" class="node">
<title>set</title>
<ellipse fill="none" stroke="black" cx="158.84" cy="-126" rx="27" ry="18"/>
<text text-anchor="middle" x="158.84" y="-122.3" font-family="Times New Roman,serif" font-size="14.00">set</text>
</g>
<!-- rustup&#45;&gt;set -->
<g id="edge27" class="edge">
<title>rustup&#45;&gt;set</title>
<path fill="none" stroke="black" d="M34.48,-405C34.59,-358.12 41,-230.53 103.59,-153 109.1,-146.18 116.78,-140.93 124.62,-136.96"/>
<polygon fill="black" stroke="black" points="126.09,-140.15 133.79,-132.87 123.23,-133.75 126.09,-140.15"/>
</g>
<!-- completions -->
<g id="node30" class="node">
<title>completions</title>
<ellipse fill="none" stroke="black" cx="158.84" cy="-72" rx="55.49" ry="18"/>
<text text-anchor="middle" x="158.84" y="-68.3" font-family="Times New Roman,serif" font-size="14.00">completions</text>
</g>
<!-- rustup&#45;&gt;completions -->
<g id="edge29" class="edge">
<title>rustup&#45;&gt;completions</title>
<path fill="none" stroke="black" d="M36.57,-404.92C42.84,-344.09 65.65,-147.98 103.59,-99 106.02,-95.86 108.92,-93.06 112.08,-90.57"/>
<polygon fill="black" stroke="black" points="114.05,-93.46 120.41,-84.99 110.15,-87.65 114.05,-93.46"/>
</g>
<!-- help -->
<g id="node32" class="node">
<title>help</title>
<ellipse fill="none" stroke="black" cx="158.84" cy="-18" rx="27" ry="18"/>
<text text-anchor="middle" x="158.84" y="-14.3" font-family="Times New Roman,serif" font-size="14.00">help</text>
</g>
<!-- rustup&#45;&gt;help -->
<g id="edge31" class="edge">
<title>rustup&#45;&gt;help</title>
<path fill="none" stroke="black" d="M35.97,-404.79C40.65,-337.44 59.81,-103.25 103.59,-45 108.86,-37.99 116.45,-32.68 124.3,-28.71"/>
<polygon fill="black" stroke="black" points="125.76,-31.89 133.49,-24.64 122.93,-25.49 125.76,-31.89"/>
</g>
<!-- show_next -->
<g id="node3" class="node">
<title>show_next</title>
<ellipse fill="none" stroke="black" cx="513.96" cy="-828" rx="194.97" ry="18"/>
<text text-anchor="middle" x="513.96" y="-824.3" font-family="Times New Roman,serif" font-size="14.00">Show the active and installed toolchains or profiles</text>
</g>
<!-- show&#45;&gt;show_next -->
<g id="edge2" class="edge">
<title>show&#45;&gt;show_next</title>
<path fill="none" stroke="black" d="M189.64,-828C217.51,-828 261.77,-828 308.71,-828"/>
<polygon fill="black" stroke="black" points="308.76,-831.5 318.76,-828 308.76,-824.5 308.76,-831.5"/>
</g>
<!-- update_next -->
<g id="node5" class="node">
<title>update_next</title>
<ellipse fill="none" stroke="black" cx="513.96" cy="-774" rx="137.28" ry="18"/>
<text text-anchor="middle" x="513.96" y="-770.3" font-family="Times New Roman,serif" font-size="14.00">Update Rust toolchains and rustup</text>
</g>
<!-- update&#45;&gt;update_next -->
<g id="edge4" class="edge">
<title>update&#45;&gt;update_next</title>
<path fill="none" stroke="black" d="M194.02,-774C234.02,-774 302.91,-774 366.45,-774"/>
<polygon fill="black" stroke="black" points="366.59,-777.5 376.59,-774 366.59,-770.5 366.59,-777.5"/>
</g>
<!-- check_next -->
<g id="node7" class="node">
<title>check_next</title>
<ellipse fill="none" stroke="black" cx="513.96" cy="-720" rx="187.67" ry="18"/>
<text text-anchor="middle" x="513.96" y="-716.3" font-family="Times New Roman,serif" font-size="14.00">Check for updates to Rust toolchains and rustup</text>
</g>
<!-- check&#45;&gt;check_next -->
<g id="edge6" class="edge">
<title>check&#45;&gt;check_next</title>
<path fill="none" stroke="black" d="M191.49,-720C220.87,-720 267.26,-720 315.76,-720"/>
<polygon fill="black" stroke="black" points="315.81,-723.5 325.81,-720 315.81,-716.5 315.81,-723.5"/>
</g>
<!-- default_next -->
<g id="node9" class="node">
<title>default_next</title>
<ellipse fill="none" stroke="black" cx="513.96" cy="-666" rx="98.28" ry="18"/>
<text text-anchor="middle" x="513.96" y="-662.3" font-family="Times New Roman,serif" font-size="14.00">Set the default toolchain</text>
</g>
<!-- default&#45;&gt;default_next -->
<g id="edge8" class="edge">
<title>default&#45;&gt;default_next</title>
<path fill="none" stroke="black" d="M194.02,-666C242.45,-666 333.22,-666 405.58,-666"/>
<polygon fill="black" stroke="black" points="405.66,-669.5 415.66,-666 405.66,-662.5 405.66,-669.5"/>
</g>
<!-- toolchain_next -->
<g id="node11" class="node">
<title>toolchain_next</title>
<ellipse fill="none" stroke="black" cx="513.96" cy="-612" rx="155.17" ry="18"/>
<text text-anchor="middle" x="513.96" y="-608.3" font-family="Times New Roman,serif" font-size="14.00">Modify or query the installed toolchains</text>
</g>
<!-- toolchain&#45;&gt;toolchain_next -->
<g id="edge10" class="edge">
<title>toolchain&#45;&gt;toolchain_next</title>
<path fill="none" stroke="black" d="M203.14,-612C239.73,-612 294.58,-612 348.01,-612"/>
<polygon fill="black" stroke="black" points="348.32,-615.5 358.32,-612 348.32,-608.5 348.32,-615.5"/>
</g>
<!-- target_next -->
<g id="node13" class="node">
<title>target_next</title>
<ellipse fill="none" stroke="black" cx="513.96" cy="-558" rx="151.37" ry="18"/>
<text text-anchor="middle" x="513.96" y="-554.3" font-family="Times New Roman,serif" font-size="14.00">Modify a toolchain&#39;s supported targets</text>
</g>
<!-- target&#45;&gt;target_next -->
<g id="edge12" class="edge">
<title>target&#45;&gt;target_next</title>
<path fill="none" stroke="black" d="M189.64,-558C226.03,-558 290.37,-558 352.12,-558"/>
<polygon fill="black" stroke="black" points="352.4,-561.5 362.4,-558 352.4,-554.5 352.4,-561.5"/>
</g>
<!-- component_next -->
<g id="node15" class="node">
<title>component_next</title>
<ellipse fill="none" stroke="black" cx="513.96" cy="-504" rx="164.37" ry="18"/>
<text text-anchor="middle" x="513.96" y="-500.3" font-family="Times New Roman,serif" font-size="14.00">Modify a toolchain&#39;s installed components</text>
</g>
<!-- component&#45;&gt;component_next -->
<g id="edge14" class="edge">
<title>component&#45;&gt;component_next</title>
<path fill="none" stroke="black" d="M211.19,-504C245.31,-504 292.3,-504 339.04,-504"/>
<polygon fill="black" stroke="black" points="339.32,-507.5 349.32,-504 339.32,-500.5 339.32,-507.5"/>
</g>
<!-- override_next -->
<g id="node17" class="node">
<title>override_next</title>
<ellipse fill="none" stroke="black" cx="513.96" cy="-450" rx="144.07" ry="18"/>
<text text-anchor="middle" x="513.96" y="-446.3" font-family="Times New Roman,serif" font-size="14.00">Modify directory toolchain overrides</text>
</g>
<!-- override&#45;&gt;override_next -->
<g id="edge16" class="edge">
<title>override&#45;&gt;override_next</title>
<path fill="none" stroke="black" d="M199.32,-450C238.36,-450 300.63,-450 359.43,-450"/>
<polygon fill="black" stroke="black" points="359.6,-453.5 369.6,-450 359.6,-446.5 359.6,-453.5"/>
</g>
<!-- run_next -->
<g id="node19" class="node">
<title>run_next</title>
<ellipse fill="none" stroke="black" cx="513.96" cy="-396" rx="263.75" ry="18"/>
<text text-anchor="middle" x="513.96" y="-392.3" font-family="Times New Roman,serif" font-size="14.00">Run a command with an environment configured for a given toolchain</text>
</g>
<!-- run&#45;&gt;run_next -->
<g id="edge18" class="edge">
<title>run&#45;&gt;run_next</title>
<path fill="none" stroke="black" d="M186.09,-396C200.02,-396 218.68,-396 240.05,-396"/>
<polygon fill="black" stroke="black" points="240.06,-399.5 250.06,-396 240.06,-392.5 240.06,-399.5"/>
</g>
<!-- which_next -->
<g id="node21" class="node">
<title>which_next</title>
<ellipse fill="none" stroke="black" cx="513.96" cy="-342" rx="206.06" ry="18"/>
<text text-anchor="middle" x="513.96" y="-338.3" font-family="Times New Roman,serif" font-size="14.00">Display which binary will be run for a given command</text>
</g>
<!-- which&#45;&gt;which_next -->
<g id="edge20" class="edge">
<title>which&#45;&gt;which_next</title>
<path fill="none" stroke="black" d="M191.49,-342C217.19,-342 255.92,-342 297.69,-342"/>
<polygon fill="black" stroke="black" points="297.78,-345.5 307.78,-342 297.78,-338.5 297.78,-345.5"/>
</g>
<!-- doc_next -->
<g id="node23" class="node">
<title>doc_next</title>
<ellipse fill="none" stroke="black" cx="513.96" cy="-288" rx="189.57" ry="18"/>
<text text-anchor="middle" x="513.96" y="-284.3" font-family="Times New Roman,serif" font-size="14.00">Open the documentation for the current toolchain</text>
</g>
<!-- doc&#45;&gt;doc_next -->
<g id="edge22" class="edge">
<title>doc&#45;&gt;doc_next</title>
<path fill="none" stroke="black" d="M186.09,-288C214.56,-288 262.79,-288 313.57,-288"/>
<polygon fill="black" stroke="black" points="313.76,-291.5 323.76,-288 313.76,-284.5 313.76,-291.5"/>
</g>
<!-- man_next -->
<g id="node25" class="node">
<title>man_next</title>
<ellipse fill="none" stroke="black" cx="513.96" cy="-234" rx="159.47" ry="18"/>
<text text-anchor="middle" x="513.96" y="-230.3" font-family="Times New Roman,serif" font-size="14.00">View the man page for a given command</text>
</g>
<!-- man&#45;&gt;man_next -->
<g id="edge24" class="edge">
<title>man&#45;&gt;man_next</title>
<path fill="none" stroke="black" d="M186.09,-234C220.23,-234 282.78,-234 344.09,-234"/>
<polygon fill="black" stroke="black" points="344.31,-237.5 354.31,-234 344.31,-230.5 344.31,-237.5"/>
</g>
<!-- self_next -->
<g id="node27" class="node">
<title>self_next</title>
<ellipse fill="none" stroke="black" cx="513.96" cy="-180" rx="116.18" ry="18"/>
<text text-anchor="middle" x="513.96" y="-176.3" font-family="Times New Roman,serif" font-size="14.00">Modify the rustup installation</text>
</g>
<!-- self&#45;&gt;self_next -->
<g id="edge26" class="edge">
<title>self&#45;&gt;self_next</title>
<path fill="none" stroke="black" d="M186.09,-180C228.38,-180 314.24,-180 387.35,-180"/>
<polygon fill="black" stroke="black" points="387.57,-183.5 397.57,-180 387.57,-176.5 387.57,-183.5"/>
</g>
<!-- set_next -->
<g id="node29" class="node">
<title>set_next</title>
<ellipse fill="none" stroke="black" cx="513.96" cy="-126" rx="83.39" ry="18"/>
<text text-anchor="middle" x="513.96" y="-122.3" font-family="Times New Roman,serif" font-size="14.00">Alter rustup settings</text>
</g>
<!-- set&#45;&gt;set_next -->
<g id="edge28" class="edge">
<title>set&#45;&gt;set_next</title>
<path fill="none" stroke="black" d="M186.09,-126C234.97,-126 342.04,-126 420.38,-126"/>
<polygon fill="black" stroke="black" points="420.75,-129.5 430.75,-126 420.75,-122.5 420.75,-129.5"/>
</g>
<!-- completions_next -->
<g id="node31" class="node">
<title>completions_next</title>
<ellipse fill="none" stroke="black" cx="513.96" cy="-72" rx="177.37" ry="18"/>
<text text-anchor="middle" x="513.96" y="-68.3" font-family="Times New Roman,serif" font-size="14.00">Generate tab&#45;completion scripts for your shell</text>
</g>
<!-- completions&#45;&gt;completions_next -->
<g id="edge30" class="edge">
<title>completions&#45;&gt;completions_next</title>
<path fill="none" stroke="black" d="M214.24,-72C244.89,-72 285.18,-72 326.2,-72"/>
<polygon fill="black" stroke="black" points="326.36,-75.5 336.36,-72 326.36,-68.5 326.36,-75.5"/>
</g>
<!-- help_next -->
<g id="node33" class="node">
<title>help_next</title>
<ellipse fill="none" stroke="black" cx="513.96" cy="-18" rx="227.46" ry="18"/>
<text text-anchor="middle" x="513.96" y="-14.3" font-family="Times New Roman,serif" font-size="14.00">Prints this message or the help of the given subcommand(s)</text>
</g>
<!-- help&#45;&gt;help_next -->
<g id="edge32" class="edge">
<title>help&#45;&gt;help_next</title>
<path fill="none" stroke="black" d="M186.09,-18C207.42,-18 239.84,-18 276.12,-18"/>
<polygon fill="black" stroke="black" points="276.45,-21.5 286.45,-18 276.45,-14.5 276.45,-21.5"/>
</g>
</g>
</svg>
