<?xml version="1.0" encoding="UTF-8" standalone="no"?>
<!DOCTYPE svg PUBLIC "-//W3C//DTD SVG 1.1//EN"
 "http://www.w3.org/Graphics/SVG/1.1/DTD/svg11.dtd">
<!-- Generated by graphviz version 3.0.0 (20220226.1711)
 -->
<!-- Pages: 1 -->
<svg width="625pt" height="962pt"
 viewBox="0.00 0.00 625.00 962.00" xmlns="http://www.w3.org/2000/svg" xmlns:xlink="http://www.w3.org/1999/xlink">
<g id="graph0" class="graph" transform="scale(1 1) rotate(0) translate(4 958)">
<polygon fill="white" stroke="transparent" points="-4,4 -4,-958 621,-958 621,4 -4,4"/>
<!-- rustup -->
<g id="node1" class="node">
<title>rustup</title>
<path fill="none" stroke="black" d="M42,-495C42,-495 12,-495 12,-495 6,-495 0,-489 0,-483 0,-483 0,-471 0,-471 0,-465 6,-459 12,-459 12,-459 42,-459 42,-459 48,-459 54,-465 54,-471 54,-471 54,-483 54,-483 54,-489 48,-495 42,-495"/>
<text text-anchor="middle" x="27" y="-473.3" font-family="Times New Roman,serif" font-size="14.00">rustup</text>
</g>
<!-- show -->
<g id="node2" class="node">
<title>show</title>
<path fill="none" stroke="black" d="M147.5,-954C147.5,-954 117.5,-954 117.5,-954 111.5,-954 105.5,-948 105.5,-942 105.5,-942 105.5,-930 105.5,-930 105.5,-924 111.5,-918 117.5,-918 117.5,-918 147.5,-918 147.5,-918 153.5,-918 159.5,-924 159.5,-930 159.5,-930 159.5,-942 159.5,-942 159.5,-948 153.5,-954 147.5,-954"/>
<text text-anchor="middle" x="132.5" y="-932.3" font-family="Times New Roman,serif" font-size="14.00">show</text>
</g>
<!-- rustup&#45;&gt;show -->
<g id="edge1" class="edge">
<title>rustup&#45;&gt;show</title>
<path fill="none" stroke="black" d="M28.63,-495.06C31.47,-567.75 44.94,-838.43 90,-909 92.02,-912.16 94.55,-915.02 97.36,-917.6"/>
<polygon fill="black" stroke="black" points="95.26,-920.4 105.3,-923.77 99.55,-914.87 95.26,-920.4"/>
</g>
<!-- update -->
<g id="node4" class="node">
<title>update</title>
<path fill="none" stroke="black" d="M147.5,-900C147.5,-900 117.5,-900 117.5,-900 111.5,-900 105.5,-894 105.5,-888 105.5,-888 105.5,-876 105.5,-876 105.5,-870 111.5,-864 117.5,-864 117.5,-864 147.5,-864 147.5,-864 153.5,-864 159.5,-870 159.5,-876 159.5,-876 159.5,-888 159.5,-888 159.5,-894 153.5,-900 147.5,-900"/>
<text text-anchor="middle" x="132.5" y="-878.3" font-family="Times New Roman,serif" font-size="14.00">update</text>
</g>
<!-- rustup&#45;&gt;update -->
<g id="edge3" class="edge">
<title>rustup&#45;&gt;update</title>
<path fill="none" stroke="black" d="M29.05,-495.04C33.2,-561.81 50.29,-794.16 90,-855 92.05,-858.14 94.6,-860.99 97.42,-863.56"/>
<polygon fill="black" stroke="black" points="95.33,-866.37 105.39,-869.72 99.62,-860.83 95.33,-866.37"/>
</g>
<!-- check -->
<g id="node6" class="node">
<title>check</title>
<path fill="none" stroke="black" d="M147.5,-846C147.5,-846 117.5,-846 117.5,-846 111.5,-846 105.5,-840 105.5,-834 105.5,-834 105.5,-822 105.5,-822 105.5,-816 111.5,-810 117.5,-810 117.5,-810 147.5,-810 147.5,-810 153.5,-810 159.5,-816 159.5,-822 159.5,-822 159.5,-834 159.5,-834 159.5,-840 153.5,-846 147.5,-846"/>
<text text-anchor="middle" x="132.5" y="-824.3" font-family="Times New Roman,serif" font-size="14.00">check</text>
</g>
<!-- rustup&#45;&gt;check -->
<g id="edge5" class="edge">
<title>rustup&#45;&gt;check</title>
<path fill="none" stroke="black" d="M29.62,-495.34C35.27,-556.1 55.67,-749.9 90,-801 92.09,-804.11 94.67,-806.94 97.51,-809.5"/>
<polygon fill="black" stroke="black" points="95.43,-812.32 105.49,-815.64 99.7,-806.77 95.43,-812.32"/>
</g>
<!-- default -->
<g id="node8" class="node">
<title>default</title>
<path fill="none" stroke="black" d="M147.5,-792C147.5,-792 117.5,-792 117.5,-792 111.5,-792 105.5,-786 105.5,-780 105.5,-780 105.5,-768 105.5,-768 105.5,-762 111.5,-756 117.5,-756 117.5,-756 147.5,-756 147.5,-756 153.5,-756 159.5,-762 159.5,-768 159.5,-768 159.5,-780 159.5,-780 159.5,-786 153.5,-792 147.5,-792"/>
<text text-anchor="middle" x="132.5" y="-770.3" font-family="Times New Roman,serif" font-size="14.00">default</text>
</g>
<!-- rustup&#45;&gt;default -->
<g id="edge7" class="edge">
<title>rustup&#45;&gt;default</title>
<path fill="none" stroke="black" d="M27.68,-495.25C27.74,-541.66 33.53,-666.18 90,-747 91.97,-749.82 94.34,-752.42 96.93,-754.79"/>
<polygon fill="black" stroke="black" points="95.17,-757.86 105.21,-761.26 99.48,-752.34 95.17,-757.86"/>
</g>
<!-- toolchain -->
<g id="node10" class="node">
<title>toolchain</title>
<path fill="none" stroke="black" d="M154.5,-738C154.5,-738 110.5,-738 110.5,-738 104.5,-738 98.5,-732 98.5,-726 98.5,-726 98.5,-714 98.5,-714 98.5,-708 104.5,-702 110.5,-702 110.5,-702 154.5,-702 154.5,-702 160.5,-702 166.5,-708 166.5,-714 166.5,-714 166.5,-726 166.5,-726 166.5,-732 160.5,-738 154.5,-738"/>
<text text-anchor="middle" x="132.5" y="-716.3" font-family="Times New Roman,serif" font-size="14.00">toolchain</text>
</g>
<!-- rustup&#45;&gt;toolchain -->
<g id="edge9" class="edge">
<title>rustup&#45;&gt;toolchain</title>
<path fill="none" stroke="black" d="M28.99,-495.07C31.98,-534.68 43.84,-630.58 90,-693 90.37,-693.5 90.75,-693.99 91.14,-694.47"/>
<polygon fill="black" stroke="black" points="88.77,-697.06 98.28,-701.72 93.76,-692.14 88.77,-697.06"/>
</g>
<!-- target -->
<g id="node12" class="node">
<title>target</title>
<path fill="none" stroke="black" d="M147.5,-684C147.5,-684 117.5,-684 117.5,-684 111.5,-684 105.5,-678 105.5,-672 105.5,-672 105.5,-660 105.5,-660 105.5,-654 111.5,-648 117.5,-648 117.5,-648 147.5,-648 147.5,-648 153.5,-648 159.5,-654 159.5,-660 159.5,-660 159.5,-672 159.5,-672 159.5,-678 153.5,-684 147.5,-684"/>
<text text-anchor="middle" x="132.5" y="-662.3" font-family="Times New Roman,serif" font-size="14.00">target</text>
</g>
<!-- rustup&#45;&gt;target -->
<g id="edge11" class="edge">
<title>rustup&#45;&gt;target</title>
<path fill="none" stroke="black" d="M31.12,-495.13C37.39,-527.17 54.13,-594.62 90,-639 92.11,-641.61 94.54,-644.05 97.14,-646.31"/>
<polygon fill="black" stroke="black" points="95.25,-649.27 105.32,-652.55 99.5,-643.71 95.25,-649.27"/>
</g>
<!-- component -->
<g id="node14" class="node">
<title>component</title>
<path fill="none" stroke="black" d="M160.5,-630C160.5,-630 104.5,-630 104.5,-630 98.5,-630 92.5,-624 92.5,-618 92.5,-618 92.5,-606 92.5,-606 92.5,-600 98.5,-594 104.5,-594 104.5,-594 160.5,-594 160.5,-594 166.5,-594 172.5,-600 172.5,-606 172.5,-606 172.5,-618 172.5,-618 172.5,-624 166.5,-630 160.5,-630"/>
<text text-anchor="middle" x="132.5" y="-608.3" font-family="Times New Roman,serif" font-size="14.00">component</text>
</g>
<!-- rustup&#45;&gt;component -->
<g id="edge13" class="edge">
<title>rustup&#45;&gt;component</title>
<path fill="none" stroke="black" d="M35.22,-495.13C45.02,-518.06 64.3,-557.83 90,-585 90.65,-585.68 91.31,-586.36 92,-587.02"/>
<polygon fill="black" stroke="black" points="89.99,-589.91 99.87,-593.75 94.54,-584.59 89.99,-589.91"/>
</g>
<!-- override -->
<g id="node16" class="node">
<title>override</title>
<path fill="none" stroke="black" d="M151.5,-576C151.5,-576 113.5,-576 113.5,-576 107.5,-576 101.5,-570 101.5,-564 101.5,-564 101.5,-552 101.5,-552 101.5,-546 107.5,-540 113.5,-540 113.5,-540 151.5,-540 151.5,-540 157.5,-540 163.5,-546 163.5,-552 163.5,-552 163.5,-564 163.5,-564 163.5,-570 157.5,-576 151.5,-576"/>
<text text-anchor="middle" x="132.5" y="-554.3" font-family="Times New Roman,serif" font-size="14.00">override</text>
</g>
<!-- rustup&#45;&gt;override -->
<g id="edge15" class="edge">
<title>rustup&#45;&gt;override</title>
<path fill="none" stroke="black" d="M47.51,-495.24C59.43,-506.07 75.19,-519.82 90,-531 91.37,-532.03 92.77,-533.07 94.2,-534.1"/>
<polygon fill="black" stroke="black" points="92.36,-537.08 102.57,-539.92 96.36,-531.33 92.36,-537.08"/>
</g>
<!-- run -->
<g id="node18" class="node">
<title>run</title>
<path fill="none" stroke="black" d="M147.5,-522C147.5,-522 117.5,-522 117.5,-522 111.5,-522 105.5,-516 105.5,-510 105.5,-510 105.5,-498 105.5,-498 105.5,-492 111.5,-486 117.5,-486 117.5,-486 147.5,-486 147.5,-486 153.5,-486 159.5,-492 159.5,-498 159.5,-498 159.5,-510 159.5,-510 159.5,-516 153.5,-522 147.5,-522"/>
<text text-anchor="middle" x="132.5" y="-500.3" font-family="Times New Roman,serif" font-size="14.00">run</text>
</g>
<!-- rustup&#45;&gt;run -->
<g id="edge17" class="edge">
<title>rustup&#45;&gt;run</title>
<path fill="none" stroke="black" d="M54.12,-483.81C66.62,-487.07 81.79,-491.03 95.38,-494.58"/>
<polygon fill="black" stroke="black" points="94.83,-498.05 105.39,-497.19 96.6,-491.28 94.83,-498.05"/>
</g>
<!-- which -->
<g id="node20" class="node">
<title>which</title>
<path fill="none" stroke="black" d="M147.5,-468C147.5,-468 117.5,-468 117.5,-468 111.5,-468 105.5,-462 105.5,-456 105.5,-456 105.5,-444 105.5,-444 105.5,-438 111.5,-432 117.5,-432 117.5,-432 147.5,-432 147.5,-432 153.5,-432 159.5,-438 159.5,-444 159.5,-444 159.5,-456 159.5,-456 159.5,-462 153.5,-468 147.5,-468"/>
<text text-anchor="middle" x="132.5" y="-446.3" font-family="Times New Roman,serif" font-size="14.00">which</text>
</g>
<!-- rustup&#45;&gt;which -->
<g id="edge19" class="edge">
<title>rustup&#45;&gt;which</title>
<path fill="none" stroke="black" d="M54.12,-470.19C66.62,-466.93 81.79,-462.97 95.38,-459.42"/>
<polygon fill="black" stroke="black" points="96.6,-462.72 105.39,-456.81 94.83,-455.95 96.6,-462.72"/>
</g>
<!-- doc -->
<g id="node22" class="node">
<title>doc</title>
<path fill="none" stroke="black" d="M147.5,-414C147.5,-414 117.5,-414 117.5,-414 111.5,-414 105.5,-408 105.5,-402 105.5,-402 105.5,-390 105.5,-390 105.5,-384 111.5,-378 117.5,-378 117.5,-378 147.5,-378 147.5,-378 153.5,-378 159.5,-384 159.5,-390 159.5,-390 159.5,-402 159.5,-402 159.5,-408 153.5,-414 147.5,-414"/>
<text text-anchor="middle" x="132.5" y="-392.3" font-family="Times New Roman,serif" font-size="14.00">doc</text>
</g>
<!-- rustup&#45;&gt;doc -->
<g id="edge21" class="edge">
<title>rustup&#45;&gt;doc</title>
<path fill="none" stroke="black" d="M47.51,-458.76C59.43,-447.93 75.19,-434.18 90,-423 92.1,-421.41 94.29,-419.82 96.52,-418.25"/>
<polygon fill="black" stroke="black" points="98.93,-420.84 105.22,-412.31 94.99,-415.06 98.93,-420.84"/>
</g>
<!-- man -->
<g id="node24" class="node">
<title>man</title>
<path fill="none" stroke="black" d="M147.5,-360C147.5,-360 117.5,-360 117.5,-360 111.5,-360 105.5,-354 105.5,-348 105.5,-348 105.5,-336 105.5,-336 105.5,-330 111.5,-324 117.5,-324 117.5,-324 147.5,-324 147.5,-324 153.5,-324 159.5,-330 159.5,-336 159.5,-336 159.5,-348 159.5,-348 159.5,-354 153.5,-360 147.5,-360"/>
<text text-anchor="middle" x="132.5" y="-338.3" font-family="Times New Roman,serif" font-size="14.00">man</text>
</g>
<!-- rustup&#45;&gt;man -->
<g id="edge23" class="edge">
<title>rustup&#45;&gt;man</title>
<path fill="none" stroke="black" d="M35.22,-458.87C45.02,-435.94 64.3,-396.17 90,-369 92.24,-366.63 94.74,-364.36 97.35,-362.23"/>
<polygon fill="black" stroke="black" points="99.5,-365 105.46,-356.23 95.34,-359.37 99.5,-365"/>
</g>
<!-- self -->
<g id="node26" class="node">
<title>self</title>
<path fill="none" stroke="black" d="M147.5,-306C147.5,-306 117.5,-306 117.5,-306 111.5,-306 105.5,-300 105.5,-294 105.5,-294 105.5,-282 105.5,-282 105.5,-276 111.5,-270 117.5,-270 117.5,-270 147.5,-270 147.5,-270 153.5,-270 159.5,-276 159.5,-282 159.5,-282 159.5,-294 159.5,-294 159.5,-300 153.5,-306 147.5,-306"/>
<text text-anchor="middle" x="132.5" y="-284.3" font-family="Times New Roman,serif" font-size="14.00">self</text>
</g>
<!-- rustup&#45;&gt;self -->
<g id="edge25" class="edge">
<title>rustup&#45;&gt;self</title>
<path fill="none" stroke="black" d="M31.12,-458.87C37.39,-426.83 54.13,-359.38 90,-315 92.11,-312.39 94.54,-309.95 97.14,-307.69"/>
<polygon fill="black" stroke="black" points="99.5,-310.29 105.32,-301.45 95.25,-304.73 99.5,-310.29"/>
</g>
<!-- set -->
<g id="node28" class="node">
<title>set</title>
<path fill="none" stroke="black" d="M147.5,-252C147.5,-252 117.5,-252 117.5,-252 111.5,-252 105.5,-246 105.5,-240 105.5,-240 105.5,-228 105.5,-228 105.5,-222 111.5,-216 117.5,-216 117.5,-216 147.5,-216 147.5,-216 153.5,-216 159.5,-222 159.5,-228 159.5,-228 159.5,-240 159.5,-240 159.5,-246 153.5,-252 147.5,-252"/>
<text text-anchor="middle" x="132.5" y="-230.3" font-family="Times New Roman,serif" font-size="14.00">set</text>
</g>
<!-- rustup&#45;&gt;set -->
<g id="edge27" class="edge">
<title>rustup&#45;&gt;set</title>
<path fill="none" stroke="black" d="M28.99,-458.93C31.98,-419.32 43.84,-323.42 90,-261 92.04,-258.24 94.46,-255.68 97.09,-253.32"/>
<polygon fill="black" stroke="black" points="99.64,-255.78 105.42,-246.9 95.37,-250.23 99.64,-255.78"/>
</g>
<!-- completions -->
<g id="node30" class="node">
<title>completions</title>
<path fill="none" stroke="black" d="M163,-198C163,-198 102,-198 102,-198 96,-198 90,-192 90,-186 90,-186 90,-174 90,-174 90,-168 96,-162 102,-162 102,-162 163,-162 163,-162 169,-162 175,-168 175,-174 175,-174 175,-186 175,-186 175,-192 169,-198 163,-198"/>
<text text-anchor="middle" x="132.5" y="-176.3" font-family="Times New Roman,serif" font-size="14.00">completions</text>
</g>
<!-- rustup&#45;&gt;completions -->
<g id="edge29" class="edge">
<title>rustup&#45;&gt;completions</title>
<path fill="none" stroke="black" d="M27.68,-458.75C27.74,-412.34 33.53,-287.82 90,-207 90.35,-206.49 90.72,-205.99 91.1,-205.5"/>
<polygon fill="black" stroke="black" points="93.74,-207.81 98.11,-198.15 88.67,-202.97 93.74,-207.81"/>
</g>
<!-- help -->
<g id="node32" class="node">
<title>help</title>
<path fill="none" stroke="black" d="M147.5,-144C147.5,-144 117.5,-144 117.5,-144 111.5,-144 105.5,-138 105.5,-132 105.5,-132 105.5,-120 105.5,-120 105.5,-114 111.5,-108 117.5,-108 117.5,-108 147.5,-108 147.5,-108 153.5,-108 159.5,-114 159.5,-120 159.5,-120 159.5,-132 159.5,-132 159.5,-138 153.5,-144 147.5,-144"/>
<text text-anchor="middle" x="132.5" y="-122.3" font-family="Times New Roman,serif" font-size="14.00">help</text>
</g>
<!-- rustup&#45;&gt;help -->
<g id="edge31" class="edge">
<title>rustup&#45;&gt;help</title>
<path fill="none" stroke="black" d="M29.62,-458.66C35.27,-397.9 55.67,-204.1 90,-153 92.09,-149.89 94.67,-147.06 97.51,-144.5"/>
<polygon fill="black" stroke="black" points="99.7,-147.23 105.49,-138.36 95.43,-141.68 99.7,-147.23"/>
</g>
<!-- nodea -->
<g id="node34" class="node">
<title>nodea</title>
<path fill="none" stroke="black" d="M152,-90C152,-90 113,-90 113,-90 107,-90 101,-84 101,-78 101,-78 101,-66 101,-66 101,-60 107,-54 113,-54 113,-54 152,-54 152,-54 158,-54 164,-60 164,-66 164,-66 164,-78 164,-78 164,-84 158,-90 152,-90"/>
<text text-anchor="middle" x="132.5" y="-68.3" font-family="Times New Roman,serif" font-size="14.00">~/.cargo</text>
</g>
<!-- rustup&#45;&gt;nodea -->
<g id="edge33" class="edge">
<title>rustup&#45;&gt;nodea</title>
<path fill="none" stroke="black" d="M29.05,-458.96C33.2,-392.19 50.29,-159.84 90,-99 90.97,-97.52 92.05,-96.09 93.22,-94.74"/>
<polygon fill="black" stroke="black" points="95.86,-97.06 100.73,-87.65 91.05,-91.97 95.86,-97.06"/>
</g>
<!-- nodeb -->
<g id="node35" class="node">
<title>nodeb</title>
<path fill="none" stroke="black" d="M154,-36C154,-36 111,-36 111,-36 105,-36 99,-30 99,-24 99,-24 99,-12 99,-12 99,-6 105,0 111,0 111,0 154,0 154,0 160,0 166,-6 166,-12 166,-12 166,-24 166,-24 166,-30 160,-36 154,-36"/>
<text text-anchor="middle" x="132.5" y="-14.3" font-family="Times New Roman,serif" font-size="14.00">~/.rustup</text>
</g>
<!-- rustup&#45;&gt;nodeb -->
<g id="edge34" class="edge">
<title>rustup&#45;&gt;nodeb</title>
<path fill="none" stroke="black" d="M28.63,-458.94C31.47,-386.25 44.94,-115.57 90,-45 90.51,-44.21 91.04,-43.43 91.61,-42.68"/>
<polygon fill="black" stroke="black" points="94.29,-44.94 98.62,-35.28 89.21,-40.13 94.29,-44.94"/>
</g>
<!-- show_next -->
<g id="node3" class="node">
<title>show_next</title>
<path fill="none" stroke="black" d="M552,-954C552,-954 276,-954 276,-954 270,-954 264,-948 264,-942 264,-942 264,-930 264,-930 264,-924 270,-918 276,-918 276,-918 552,-918 552,-918 558,-918 564,-924 564,-930 564,-930 564,-942 564,-942 564,-948 558,-954 552,-954"/>
<text text-anchor="middle" x="414" y="-932.3" font-family="Times New Roman,serif" font-size="14.00">Show the active and installed toolchains or profiles</text>
</g>
<!-- show&#45;&gt;show_next -->
<g id="edge2" class="edge">
<title>show&#45;&gt;show_next</title>
<path fill="none" stroke="black" d="M159.54,-936C182.15,-936 216.93,-936 253.55,-936"/>
<polygon fill="black" stroke="black" points="253.92,-939.5 263.92,-936 253.92,-932.5 253.92,-939.5"/>
</g>
<!-- update_next -->
<g id="node5" class="node">
<title>update_next</title>
<path fill="none" stroke="black" d="M507.5,-900C507.5,-900 320.5,-900 320.5,-900 314.5,-900 308.5,-894 308.5,-888 308.5,-888 308.5,-876 308.5,-876 308.5,-870 314.5,-864 320.5,-864 320.5,-864 507.5,-864 507.5,-864 513.5,-864 519.5,-870 519.5,-876 519.5,-876 519.5,-888 519.5,-888 519.5,-894 513.5,-900 507.5,-900"/>
<text text-anchor="middle" x="414" y="-878.3" font-family="Times New Roman,serif" font-size="14.00">Update Rust toolchains and rustup</text>
</g>
<!-- update&#45;&gt;update_next -->
<g id="edge4" class="edge">
<title>update&#45;&gt;update_next</title>
<path fill="none" stroke="black" d="M159.54,-882C191.31,-882 247.1,-882 298.27,-882"/>
<polygon fill="black" stroke="black" points="298.43,-885.5 308.43,-882 298.43,-878.5 298.43,-885.5"/>
</g>
<!-- check_next -->
<g id="node7" class="node">
<title>check_next</title>
<path fill="none" stroke="black" d="M546.5,-846C546.5,-846 281.5,-846 281.5,-846 275.5,-846 269.5,-840 269.5,-834 269.5,-834 269.5,-822 269.5,-822 269.5,-816 275.5,-810 281.5,-810 281.5,-810 546.5,-810 546.5,-810 552.5,-810 558.5,-816 558.5,-822 558.5,-822 558.5,-834 558.5,-834 558.5,-840 552.5,-846 546.5,-846"/>
<text text-anchor="middle" x="414" y="-824.3" font-family="Times New Roman,serif" font-size="14.00">Check for updates to Rust toolchains and rustup</text>
</g>
<!-- check&#45;&gt;check_next -->
<g id="edge6" class="edge">
<title>check&#45;&gt;check_next</title>
<path fill="none" stroke="black" d="M159.54,-828C183.24,-828 220.32,-828 258.87,-828"/>
<polygon fill="black" stroke="black" points="259.23,-831.5 269.23,-828 259.23,-824.5 259.23,-831.5"/>
</g>
<!-- default_next -->
<g id="node9" class="node">
<title>default_next</title>
<path fill="none" stroke="black" d="M477.5,-792C477.5,-792 350.5,-792 350.5,-792 344.5,-792 338.5,-786 338.5,-780 338.5,-780 338.5,-768 338.5,-768 338.5,-762 344.5,-756 350.5,-756 350.5,-756 477.5,-756 477.5,-756 483.5,-756 489.5,-762 489.5,-768 489.5,-768 489.5,-780 489.5,-780 489.5,-786 483.5,-792 477.5,-792"/>
<text text-anchor="middle" x="414" y="-770.3" font-family="Times New Roman,serif" font-size="14.00">Set the default toolchain</text>
</g>
<!-- default&#45;&gt;default_next -->
<g id="edge8" class="edge">
<title>default&#45;&gt;default_next</title>
<path fill="none" stroke="black" d="M159.54,-774C197.64,-774 270.31,-774 328.11,-774"/>
<polygon fill="black" stroke="black" points="328.34,-777.5 338.34,-774 328.34,-770.5 328.34,-777.5"/>
</g>
<!-- toolchain_next -->
<g id="node11" class="node">
<title>toolchain_next</title>
<path fill="none" stroke="black" d="M521.5,-738C521.5,-738 306.5,-738 306.5,-738 300.5,-738 294.5,-732 294.5,-726 294.5,-726 294.5,-714 294.5,-714 294.5,-708 300.5,-702 306.5,-702 306.5,-702 521.5,-702 521.5,-702 527.5,-702 533.5,-708 533.5,-714 533.5,-714 533.5,-726 533.5,-726 533.5,-732 527.5,-738 521.5,-738"/>
<text text-anchor="middle" x="414" y="-716.3" font-family="Times New Roman,serif" font-size="14.00">Modify or query the installed toolchains</text>
</g>
<!-- toolchain&#45;&gt;toolchain_next -->
<g id="edge10" class="edge">
<title>toolchain&#45;&gt;toolchain_next</title>
<path fill="none" stroke="black" d="M166.66,-720C196.04,-720 240.89,-720 284.31,-720"/>
<polygon fill="black" stroke="black" points="284.43,-723.5 294.43,-720 284.43,-716.5 284.43,-723.5"/>
</g>
<!-- target_next -->
<g id="node13" class="node">
<title>target_next</title>
<path fill="none" stroke="black" d="M518.5,-684C518.5,-684 309.5,-684 309.5,-684 303.5,-684 297.5,-678 297.5,-672 297.5,-672 297.5,-660 297.5,-660 297.5,-654 303.5,-648 309.5,-648 309.5,-648 518.5,-648 518.5,-648 524.5,-648 530.5,-654 530.5,-660 530.5,-660 530.5,-672 530.5,-672 530.5,-678 524.5,-684 518.5,-684"/>
<text text-anchor="middle" x="414" y="-662.3" font-family="Times New Roman,serif" font-size="14.00">Modify a toolchain&#39;s supported targets</text>
</g>
<!-- target&#45;&gt;target_next -->
<g id="edge12" class="edge">
<title>target&#45;&gt;target_next</title>
<path fill="none" stroke="black" d="M159.54,-666C189.02,-666 239.2,-666 287.17,-666"/>
<polygon fill="black" stroke="black" points="287.37,-669.5 297.37,-666 287.37,-662.5 287.37,-669.5"/>
</g>
<!-- component_next -->
<g id="node15" class="node">
<title>component_next</title>
<path fill="none" stroke="black" d="M528.5,-630C528.5,-630 299.5,-630 299.5,-630 293.5,-630 287.5,-624 287.5,-618 287.5,-618 287.5,-606 287.5,-606 287.5,-600 293.5,-594 299.5,-594 299.5,-594 528.5,-594 528.5,-594 534.5,-594 540.5,-600 540.5,-606 540.5,-606 540.5,-618 540.5,-618 540.5,-624 534.5,-630 528.5,-630"/>
<text text-anchor="middle" x="414" y="-608.3" font-family="Times New Roman,serif" font-size="14.00">Modify a toolchain&#39;s installed components</text>
</g>
<!-- component&#45;&gt;component_next -->
<g id="edge14" class="edge">
<title>component&#45;&gt;component_next</title>
<path fill="none" stroke="black" d="M172.66,-612C200.17,-612 238.75,-612 276.96,-612"/>
<polygon fill="black" stroke="black" points="277.19,-615.5 287.19,-612 277.19,-608.5 277.19,-615.5"/>
</g>
<!-- override_next -->
<g id="node17" class="node">
<title>override_next</title>
<path fill="none" stroke="black" d="M513,-576C513,-576 315,-576 315,-576 309,-576 303,-570 303,-564 303,-564 303,-552 303,-552 303,-546 309,-540 315,-540 315,-540 513,-540 513,-540 519,-540 525,-546 525,-552 525,-552 525,-564 525,-564 525,-570 519,-576 513,-576"/>
<text text-anchor="middle" x="414" y="-554.3" font-family="Times New Roman,serif" font-size="14.00">Modify directory toolchain overrides</text>
</g>
<!-- override&#45;&gt;override_next -->
<g id="edge16" class="edge">
<title>override&#45;&gt;override_next</title>
<path fill="none" stroke="black" d="M163.68,-558C194.78,-558 245.28,-558 292.73,-558"/>
<polygon fill="black" stroke="black" points="292.8,-561.5 302.8,-558 292.8,-554.5 292.8,-561.5"/>
</g>
<!-- run_next -->
<g id="node19" class="node">
<title>run_next</title>
<path fill="none" stroke="black" d="M605,-522C605,-522 223,-522 223,-522 217,-522 211,-516 211,-510 211,-510 211,-498 211,-498 211,-492 217,-486 223,-486 223,-486 605,-486 605,-486 611,-486 617,-492 617,-498 617,-498 617,-510 617,-510 617,-516 611,-522 605,-522"/>
<text text-anchor="middle" x="414" y="-500.3" font-family="Times New Roman,serif" font-size="14.00">Run a command with an environment configured for a given toolchain</text>
</g>
<!-- run&#45;&gt;run_next -->
<g id="edge18" class="edge">
<title>run&#45;&gt;run_next</title>
<path fill="none" stroke="black" d="M159.54,-504C170.71,-504 184.85,-504 200.71,-504"/>
<polygon fill="black" stroke="black" points="200.8,-507.5 210.8,-504 200.8,-500.5 200.8,-507.5"/>
</g>
<!-- which_next -->
<g id="node21" class="node">
<title>which_next</title>
<path fill="none" stroke="black" d="M560.5,-468C560.5,-468 267.5,-468 267.5,-468 261.5,-468 255.5,-462 255.5,-456 255.5,-456 255.5,-444 255.5,-444 255.5,-438 261.5,-432 267.5,-432 267.5,-432 560.5,-432 560.5,-432 566.5,-432 572.5,-438 572.5,-444 572.5,-444 572.5,-456 572.5,-456 572.5,-462 566.5,-468 560.5,-468"/>
<text text-anchor="middle" x="414" y="-446.3" font-family="Times New Roman,serif" font-size="14.00">Display which binary will be run for a given command</text>
</g>
<!-- which&#45;&gt;which_next -->
<g id="edge20" class="edge">
<title>which&#45;&gt;which_next</title>
<path fill="none" stroke="black" d="M159.54,-450C180.36,-450 211.5,-450 244.9,-450"/>
<polygon fill="black" stroke="black" points="245.32,-453.5 255.32,-450 245.32,-446.5 245.32,-453.5"/>
</g>
<!-- doc_next -->
<g id="node23" class="node">
<title>doc_next</title>
<path fill="none" stroke="black" d="M548,-414C548,-414 280,-414 280,-414 274,-414 268,-408 268,-402 268,-402 268,-390 268,-390 268,-384 274,-378 280,-378 280,-378 548,-378 548,-378 554,-378 560,-384 560,-390 560,-390 560,-402 560,-402 560,-408 554,-414 548,-414"/>
<text text-anchor="middle" x="414" y="-392.3" font-family="Times New Roman,serif" font-size="14.00">Open the documentation for the current toolchain</text>
</g>
<!-- doc&#45;&gt;doc_next -->
<g id="edge22" class="edge">
<title>doc&#45;&gt;doc_next</title>
<path fill="none" stroke="black" d="M159.54,-396C182.99,-396 219.54,-396 257.66,-396"/>
<polygon fill="black" stroke="black" points="257.91,-399.5 267.91,-396 257.91,-392.5 257.91,-399.5"/>
</g>
<!-- man_next -->
<g id="node25" class="node">
<title>man_next</title>
<path fill="none" stroke="black" d="M524.5,-360C524.5,-360 303.5,-360 303.5,-360 297.5,-360 291.5,-354 291.5,-348 291.5,-348 291.5,-336 291.5,-336 291.5,-330 297.5,-324 303.5,-324 303.5,-324 524.5,-324 524.5,-324 530.5,-324 536.5,-330 536.5,-336 536.5,-336 536.5,-348 536.5,-348 536.5,-354 530.5,-360 524.5,-360"/>
<text text-anchor="middle" x="414" y="-338.3" font-family="Times New Roman,serif" font-size="14.00">View the man page for a given command</text>
</g>
<!-- man&#45;&gt;man_next -->
<g id="edge24" class="edge">
<title>man&#45;&gt;man_next</title>
<path fill="none" stroke="black" d="M159.54,-342C187.82,-342 235.16,-342 281.32,-342"/>
<polygon fill="black" stroke="black" points="281.45,-345.5 291.45,-342 281.45,-338.5 281.45,-345.5"/>
</g>
<!-- self_next -->
<g id="node27" class="node">
<title>self_next</title>
<path fill="none" stroke="black" d="M491.5,-306C491.5,-306 336.5,-306 336.5,-306 330.5,-306 324.5,-300 324.5,-294 324.5,-294 324.5,-282 324.5,-282 324.5,-276 330.5,-270 336.5,-270 336.5,-270 491.5,-270 491.5,-270 497.5,-270 503.5,-276 503.5,-282 503.5,-282 503.5,-294 503.5,-294 503.5,-300 497.5,-306 491.5,-306"/>
<text text-anchor="middle" x="414" y="-284.3" font-family="Times New Roman,serif" font-size="14.00">Modify the rustup installation</text>
</g>
<!-- self&#45;&gt;self_next -->
<g id="edge26" class="edge">
<title>self&#45;&gt;self_next</title>
<path fill="none" stroke="black" d="M159.54,-288C194.63,-288 259.03,-288 314.14,-288"/>
<polygon fill="black" stroke="black" points="314.31,-291.5 324.31,-288 314.31,-284.5 314.31,-291.5"/>
</g>
<!-- set_next -->
<g id="node29" class="node">
<title>set_next</title>
<path fill="none" stroke="black" d="M466,-252C466,-252 362,-252 362,-252 356,-252 350,-246 350,-240 350,-240 350,-228 350,-228 350,-222 356,-216 362,-216 362,-216 466,-216 466,-216 472,-216 478,-222 478,-228 478,-228 478,-240 478,-240 478,-246 472,-252 466,-252"/>
<text text-anchor="middle" x="414" y="-230.3" font-family="Times New Roman,serif" font-size="14.00">Alter rustup settings</text>
</g>
<!-- set&#45;&gt;set_next -->
<g id="edge28" class="edge">
<title>set&#45;&gt;set_next</title>
<path fill="none" stroke="black" d="M159.54,-234C200.28,-234 280.55,-234 339.89,-234"/>
<polygon fill="black" stroke="black" points="339.97,-237.5 349.97,-234 339.97,-230.5 339.97,-237.5"/>
</g>
<!-- completions_next -->
<g id="node31" class="node">
<title>completions_next</title>
<path fill="none" stroke="black" d="M538.5,-198C538.5,-198 289.5,-198 289.5,-198 283.5,-198 277.5,-192 277.5,-186 277.5,-186 277.5,-174 277.5,-174 277.5,-168 283.5,-162 289.5,-162 289.5,-162 538.5,-162 538.5,-162 544.5,-162 550.5,-168 550.5,-174 550.5,-174 550.5,-186 550.5,-186 550.5,-192 544.5,-198 538.5,-198"/>
<text text-anchor="middle" x="414" y="-176.3" font-family="Times New Roman,serif" font-size="14.00">Generate tab&#45;completion scripts for your shell</text>
</g>
<!-- completions&#45;&gt;completions_next -->
<g id="edge30" class="edge">
<title>completions&#45;&gt;completions_next</title>
<path fill="none" stroke="black" d="M175.04,-180C200.02,-180 233.47,-180 267.38,-180"/>
<polygon fill="black" stroke="black" points="267.43,-183.5 277.43,-180 267.43,-176.5 267.43,-183.5"/>
</g>
<!-- help_next -->
<g id="node33" class="node">
<title>help_next</title>
<path fill="none" stroke="black" d="M577,-144C577,-144 251,-144 251,-144 245,-144 239,-138 239,-132 239,-132 239,-120 239,-120 239,-114 245,-108 251,-108 251,-108 577,-108 577,-108 583,-108 589,-114 589,-120 589,-120 589,-132 589,-132 589,-138 583,-144 577,-144"/>
<text text-anchor="middle" x="414" y="-122.3" font-family="Times New Roman,serif" font-size="14.00">Prints this message or the help of the given subcommand(s)</text>
</g>
<!-- help&#45;&gt;help_next -->
<g id="edge32" class="edge">
<title>help&#45;&gt;help_next</title>
<path fill="none" stroke="black" d="M159.54,-126C176.98,-126 201.67,-126 228.86,-126"/>
<polygon fill="black" stroke="black" points="228.98,-129.5 238.98,-126 228.98,-122.5 228.98,-129.5"/>
</g>
<!-- nodec -->
<g id="node36" class="node">
<title>nodec</title>
<path fill="none" stroke="black" d="M472.5,-36C472.5,-36 355.5,-36 355.5,-36 349.5,-36 343.5,-30 343.5,-24 343.5,-24 343.5,-12 343.5,-12 343.5,-6 349.5,0 355.5,0 355.5,0 472.5,0 472.5,0 478.5,0 484.5,-6 484.5,-12 484.5,-12 484.5,-24 484.5,-24 484.5,-30 478.5,-36 472.5,-36"/>
<text text-anchor="middle" x="414" y="-14.3" font-family="Times New Roman,serif" font-size="14.00">~/.rustup/settings.toml</text>
</g>
<!-- nodeb&#45;&gt;nodec -->
<g id="edge35" class="edge">
<title>nodeb&#45;&gt;nodec</title>
<path fill="none" stroke="black" d="M166.11,-18C206.78,-18 277.7,-18 333.13,-18"/>
<polygon fill="black" stroke="black" points="333.29,-21.5 343.29,-18 333.29,-14.5 333.29,-21.5"/>
</g>
</g>
</svg>
