<?xml version="1.0" encoding="UTF-8" standalone="no"?>
<!DOCTYPE svg PUBLIC "-//W3C//DTD SVG 1.1//EN"
 "http://www.w3.org/Graphics/SVG/1.1/DTD/svg11.dtd">
<!-- Generated by graphviz version 2.50.0 (0)
 -->
<!-- Pages: 1 -->
<svg width="1171pt" height="438pt"
 viewBox="0.00 0.00 1171.00 438.00" xmlns="http://www.w3.org/2000/svg" xmlns:xlink="http://www.w3.org/1999/xlink">
<g id="graph0" class="graph" transform="scale(1 1) rotate(0) translate(4 434)">
<polygon fill="white" stroke="transparent" points="-4,4 -4,-434 1167,-434 1167,4 -4,4"/>
<g id="clust2" class="cluster">
<title>cluster_k2</title>
<polygon fill="none" stroke="black" points="408.5,-173.5 408.5,-317.5 1155,-317.5 1155,-173.5 408.5,-173.5"/>
</g>
<g id="clust4" class="cluster">
<title>cluster_k7</title>
<polygon fill="none" stroke="black" points="657,-181.5 657,-241.5 1147,-241.5 1147,-181.5 657,-181.5"/>
</g>
<g id="clust3" class="cluster">
<title>cluster_k4</title>
<polygon fill="none" stroke="black" points="821,-249.5 821,-309.5 983,-309.5 983,-249.5 821,-249.5"/>
</g>
<!-- Thread -->
<g id="node1" class="node">
<title>Thread</title>
<path fill="none" stroke="black" d="M104,-104C104,-104 17,-104 17,-104 11,-104 5,-98 5,-92 5,-92 5,-73 5,-73 5,-67 11,-61 17,-61 17,-61 104,-61 104,-61 110,-61 116,-67 116,-73 116,-73 116,-92 116,-92 116,-98 110,-104 104,-104"/>
<text text-anchor="middle" x="60.5" y="-78.8" font-family="Times New Roman,serif" font-size="14.00">Thread</text>
</g>
<!-- scope -->
<g id="node2" class="node">
<title>scope</title>
<path fill="none" stroke="black" d="M257,-165C257,-165 178,-165 178,-165 172,-165 166,-159 166,-153 166,-153 166,-134 166,-134 166,-128 172,-122 178,-122 178,-122 257,-122 257,-122 263,-122 269,-128 269,-134 269,-134 269,-153 269,-153 269,-159 263,-165 257,-165"/>
<text text-anchor="middle" x="217.5" y="-139.8" font-family="Times New Roman,serif" font-size="14.00">scope</text>
</g>
<!-- Thread&#45;&gt;scope -->
<g id="edge1" class="edge">
<title>Thread&#45;&gt;scope</title>
<path fill="none" stroke="black" d="M116.15,-104.01C129.19,-109.14 143.19,-114.65 156.46,-119.87"/>
<polygon fill="black" stroke="black" points="155.39,-123.21 165.97,-123.62 157.95,-116.7 155.39,-123.21"/>
</g>
<!-- sleep -->
<g id="node3" class="node">
<title>sleep</title>
<path fill="none" stroke="black" d="M255.5,-104C255.5,-104 179.5,-104 179.5,-104 173.5,-104 167.5,-98 167.5,-92 167.5,-92 167.5,-73 167.5,-73 167.5,-67 173.5,-61 179.5,-61 179.5,-61 255.5,-61 255.5,-61 261.5,-61 267.5,-67 267.5,-73 267.5,-73 267.5,-92 267.5,-92 267.5,-98 261.5,-104 255.5,-104"/>
<text text-anchor="middle" x="217.5" y="-78.8" font-family="Times New Roman,serif" font-size="14.00">sleep</text>
</g>
<!-- Thread&#45;&gt;sleep -->
<g id="edge2" class="edge">
<title>Thread&#45;&gt;sleep</title>
<path fill="none" stroke="black" d="M116.15,-82.5C129.41,-82.5 143.66,-82.5 157.13,-82.5"/>
<polygon fill="black" stroke="black" points="157.25,-86 167.25,-82.5 157.25,-79 157.25,-86"/>
</g>
<!-- spawn -->
<g id="node4" class="node">
<title>spawn</title>
<path fill="none" stroke="black" d="M259,-43C259,-43 176,-43 176,-43 170,-43 164,-37 164,-31 164,-31 164,-12 164,-12 164,-6 170,0 176,0 176,0 259,0 259,0 265,0 271,-6 271,-12 271,-12 271,-31 271,-31 271,-37 265,-43 259,-43"/>
<text text-anchor="middle" x="217.5" y="-17.8" font-family="Times New Roman,serif" font-size="14.00">spawn</text>
</g>
<!-- Thread&#45;&gt;spawn -->
<g id="edge3" class="edge">
<title>Thread&#45;&gt;spawn</title>
<path fill="none" stroke="black" d="M116.15,-60.99C128.51,-56.13 141.73,-50.93 154.37,-45.95"/>
<polygon fill="black" stroke="black" points="155.88,-49.12 163.91,-42.2 153.32,-42.6 155.88,-49.12"/>
</g>
<!-- Create a scope for spawning scoped threads. -->
<g id="node5" class="node">
<title>Create a scope for spawning scoped threads.</title>
<path fill="none" stroke="black" d="M617,-165C617,-165 326,-165 326,-165 320,-165 314,-159 314,-153 314,-153 314,-134 314,-134 314,-128 320,-122 326,-122 326,-122 617,-122 617,-122 623,-122 629,-128 629,-134 629,-134 629,-153 629,-153 629,-159 623,-165 617,-165"/>
<text text-anchor="middle" x="471.5" y="-139.8" font-family="Times New Roman,serif" font-size="14.00">Create a scope for spawning scoped threads.</text>
</g>
<!-- scope&#45;&gt;Create a scope for spawning scoped threads. -->
<g id="edge4" class="edge">
<title>scope&#45;&gt;Create a scope for spawning scoped threads.</title>
<path fill="none" stroke="black" d="M269.19,-143.5C279.69,-143.5 291.29,-143.5 303.47,-143.5"/>
<polygon fill="black" stroke="black" points="303.82,-147 313.82,-143.5 303.82,-140 303.82,-147"/>
</g>
<!-- sync -->
<g id="node6" class="node">
<title>sync</title>
<path fill="none" stroke="black" d="M109,-369C109,-369 12,-369 12,-369 6,-369 0,-363 0,-357 0,-357 0,-338 0,-338 0,-332 6,-326 12,-326 12,-326 109,-326 109,-326 115,-326 121,-332 121,-338 121,-338 121,-357 121,-357 121,-363 115,-369 109,-369"/>
<text text-anchor="middle" x="60.5" y="-343.8" font-family="Times New Roman,serif" font-size="14.00">std::sync</text>
</g>
<!-- Arc -->
<g id="node7" class="node">
<title>Arc</title>
<path fill="none" stroke="black" d="M252,-430C252,-430 183,-430 183,-430 177,-430 171,-424 171,-418 171,-418 171,-399 171,-399 171,-393 177,-387 183,-387 183,-387 252,-387 252,-387 258,-387 264,-393 264,-399 264,-399 264,-418 264,-418 264,-424 258,-430 252,-430"/>
<text text-anchor="middle" x="217.5" y="-404.8" font-family="Times New Roman,serif" font-size="14.00">Arc</text>
</g>
<!-- sync&#45;&gt;Arc -->
<g id="edge5" class="edge">
<title>sync&#45;&gt;Arc</title>
<path fill="none" stroke="black" d="M116.15,-369.01C130.8,-374.77 146.66,-381.01 161.34,-386.79"/>
<polygon fill="black" stroke="black" points="160.21,-390.11 170.8,-390.51 162.78,-383.6 160.21,-390.11"/>
</g>
<!-- Mutex -->
<g id="node9" class="node">
<title>Mutex</title>
<path fill="none" stroke="black" d="M260,-369C260,-369 175,-369 175,-369 169,-369 163,-363 163,-357 163,-357 163,-338 163,-338 163,-332 169,-326 175,-326 175,-326 260,-326 260,-326 266,-326 272,-332 272,-338 272,-338 272,-357 272,-357 272,-363 266,-369 260,-369"/>
<text text-anchor="middle" x="217.5" y="-343.8" font-family="Times New Roman,serif" font-size="14.00">Mutex</text>
</g>
<!-- sync&#45;&gt;Mutex -->
<g id="edge7" class="edge">
<title>sync&#45;&gt;Mutex</title>
<path fill="none" stroke="black" d="M121.43,-347.5C131.65,-347.5 142.3,-347.5 152.62,-347.5"/>
<polygon fill="black" stroke="black" points="152.81,-351 162.81,-347.5 152.8,-344 152.81,-351"/>
</g>
<!-- k1 -->
<g id="node11" class="node">
<title>k1</title>
<path fill="none" stroke="black" d="M266,-301C266,-301 169,-301 169,-301 163,-301 157,-295 157,-289 157,-289 157,-270 157,-270 157,-264 163,-258 169,-258 169,-258 266,-258 266,-258 272,-258 278,-264 278,-270 278,-270 278,-289 278,-289 278,-295 272,-301 266,-301"/>
<text text-anchor="middle" x="217.5" y="-275.8" font-family="Times New Roman,serif" font-size="14.00">Modules</text>
</g>
<!-- sync&#45;&gt;k1 -->
<g id="edge13" class="edge">
<title>sync&#45;&gt;k1</title>
<path fill="none" stroke="black" d="M110.54,-325.98C125.53,-319.41 142.16,-312.11 157.72,-305.29"/>
<polygon fill="black" stroke="black" points="159.49,-308.33 167.24,-301.11 156.68,-301.92 159.49,-308.33"/>
</g>
<!--  Atomically Reference&#45;Counted pointer -->
<g id="node8" class="node">
<title> Atomically Reference&#45;Counted pointer</title>
<path fill="none" stroke="black" d="M603.5,-430C603.5,-430 339.5,-430 339.5,-430 333.5,-430 327.5,-424 327.5,-418 327.5,-418 327.5,-399 327.5,-399 327.5,-393 333.5,-387 339.5,-387 339.5,-387 603.5,-387 603.5,-387 609.5,-387 615.5,-393 615.5,-399 615.5,-399 615.5,-418 615.5,-418 615.5,-424 609.5,-430 603.5,-430"/>
<text text-anchor="middle" x="471.5" y="-404.8" font-family="Times New Roman,serif" font-size="14.00"> Atomically Reference&#45;Counted pointer</text>
</g>
<!-- Arc&#45;&gt; Atomically Reference&#45;Counted pointer -->
<g id="edge6" class="edge">
<title>Arc&#45;&gt; Atomically Reference&#45;Counted pointer</title>
<path fill="none" stroke="black" d="M264.14,-408.5C279.66,-408.5 297.97,-408.5 317.17,-408.5"/>
<polygon fill="black" stroke="black" points="317.28,-412 327.28,-408.5 317.28,-405 317.28,-412"/>
</g>
<!-- Mutual Exclusion mechanism -->
<g id="node10" class="node">
<title>Mutual Exclusion mechanism</title>
<path fill="none" stroke="black" d="M578,-369C578,-369 365,-369 365,-369 359,-369 353,-363 353,-357 353,-357 353,-338 353,-338 353,-332 359,-326 365,-326 365,-326 578,-326 578,-326 584,-326 590,-332 590,-338 590,-338 590,-357 590,-357 590,-363 584,-369 578,-369"/>
<text text-anchor="middle" x="471.5" y="-343.8" font-family="Times New Roman,serif" font-size="14.00">Mutual Exclusion mechanism</text>
</g>
<!-- Mutex&#45;&gt;Mutual Exclusion mechanism -->
<g id="edge8" class="edge">
<title>Mutex&#45;&gt;Mutual Exclusion mechanism</title>
<path fill="none" stroke="black" d="M272.25,-347.5C293.02,-347.5 317.75,-347.5 342.58,-347.5"/>
<polygon fill="black" stroke="black" points="342.84,-351 352.84,-347.5 342.84,-344 342.84,-351"/>
</g>
<!-- k3 -->
<g id="node12" class="node">
<title>k3</title>
<path fill="none" stroke="black" d="M514.5,-301C514.5,-301 428.5,-301 428.5,-301 422.5,-301 416.5,-295 416.5,-289 416.5,-289 416.5,-270 416.5,-270 416.5,-264 422.5,-258 428.5,-258 428.5,-258 514.5,-258 514.5,-258 520.5,-258 526.5,-264 526.5,-270 526.5,-270 526.5,-289 526.5,-289 526.5,-295 520.5,-301 514.5,-301"/>
<text text-anchor="middle" x="471.5" y="-275.8" font-family="Times New Roman,serif" font-size="14.00">atomic</text>
</g>
<!-- k1&#45;&gt;k3 -->
<g id="edge9" class="edge">
<title>k1&#45;&gt;k3</title>
<path fill="none" stroke="black" d="M278.22,-279.5C316.78,-279.5 366.92,-279.5 406.33,-279.5"/>
<polygon fill="black" stroke="black" points="406.36,-283 416.36,-279.5 406.36,-276 406.36,-283"/>
</g>
<!-- k6 -->
<g id="node13" class="node">
<title>k6</title>
<path fill="none" stroke="black" d="M510.5,-236C510.5,-236 432.5,-236 432.5,-236 426.5,-236 420.5,-230 420.5,-224 420.5,-224 420.5,-205 420.5,-205 420.5,-199 426.5,-193 432.5,-193 432.5,-193 510.5,-193 510.5,-193 516.5,-193 522.5,-199 522.5,-205 522.5,-205 522.5,-224 522.5,-224 522.5,-230 516.5,-236 510.5,-236"/>
<text text-anchor="middle" x="471.5" y="-210.8" font-family="Times New Roman,serif" font-size="14.00">mpsc</text>
</g>
<!-- k1&#45;&gt;k6 -->
<g id="edge10" class="edge">
<title>k1&#45;&gt;k6</title>
<path fill="none" stroke="black" d="M278.13,-259.92C289.96,-256.27 302.33,-252.63 314,-249.5 345.51,-241.04 380.97,-233 410.15,-226.75"/>
<polygon fill="black" stroke="black" points="411.14,-230.12 420.2,-224.62 409.69,-223.27 411.14,-230.12"/>
</g>
<!-- k5 -->
<g id="node14" class="node">
<title>k5</title>
<path fill="none" stroke="black" d="M963,-301C963,-301 841,-301 841,-301 835,-301 829,-295 829,-289 829,-289 829,-270 829,-270 829,-264 835,-258 841,-258 841,-258 963,-258 963,-258 969,-258 975,-264 975,-270 975,-270 975,-289 975,-289 975,-295 969,-301 963,-301"/>
<text text-anchor="middle" x="902" y="-275.8" font-family="Times New Roman,serif" font-size="14.00">Atomic types</text>
</g>
<!-- k3&#45;&gt;k5 -->
<g id="edge11" class="edge">
<title>k3&#45;&gt;k5</title>
<path fill="none" stroke="black" d="M526.77,-279.5C600.46,-279.5 732.8,-279.5 818.73,-279.5"/>
<polygon fill="black" stroke="black" points="818.97,-283 828.97,-279.5 818.97,-276 818.97,-283"/>
</g>
<!-- k8 -->
<g id="node15" class="node">
<title>k8</title>
<path fill="none" stroke="black" d="M1127,-233C1127,-233 677,-233 677,-233 671,-233 665,-227 665,-221 665,-221 665,-202 665,-202 665,-196 671,-190 677,-190 677,-190 1127,-190 1127,-190 1133,-190 1139,-196 1139,-202 1139,-202 1139,-221 1139,-221 1139,-227 1133,-233 1127,-233"/>
<text text-anchor="middle" x="902" y="-207.8" font-family="Times New Roman,serif" font-size="14.00">Multi&#45;producer, single&#45;consumer FIFO queue communication primitives.</text>
</g>
<!-- k6&#45;&gt;k8 -->
<g id="edge12" class="edge">
<title>k6&#45;&gt;k8</title>
<path fill="none" stroke="black" d="M522.91,-214.15C556.93,-213.91 604.61,-213.58 654.68,-213.22"/>
<polygon fill="black" stroke="black" points="654.75,-216.72 664.72,-213.15 654.7,-209.72 654.75,-216.72"/>
</g>
</g>
</svg>
