<?xml version="1.0" encoding="UTF-8" standalone="no"?>
<!DOCTYPE svg PUBLIC "-//W3C//DTD SVG 1.1//EN"
 "http://www.w3.org/Graphics/SVG/1.1/DTD/svg11.dtd">
<!-- Generated by graphviz version 2.50.0 (0)
 -->
<!-- Pages: 1 -->
<svg width="613pt" height="173pt"
 viewBox="0.00 0.00 613.00 173.00" xmlns="http://www.w3.org/2000/svg" xmlns:xlink="http://www.w3.org/1999/xlink">
<g id="graph0" class="graph" transform="scale(1 1) rotate(0) translate(4 169)">
<polygon fill="white" stroke="transparent" points="-4,4 -4,-169 609,-169 609,4 -4,4"/>
<!-- Thread -->
<g id="node1" class="node">
<title>Thread</title>
<path fill="none" stroke="black" d="M99,-104C99,-104 12,-104 12,-104 6,-104 0,-98 0,-92 0,-92 0,-73 0,-73 0,-67 6,-61 12,-61 12,-61 99,-61 99,-61 105,-61 111,-67 111,-73 111,-73 111,-92 111,-92 111,-98 105,-104 99,-104"/>
<text text-anchor="middle" x="55.5" y="-78.8" font-family="Times New Roman,serif" font-size="14.00">Thread</text>
</g>
<!-- scope -->
<g id="node2" class="node">
<title>scope</title>
<path fill="none" stroke="black" d="M240,-165C240,-165 161,-165 161,-165 155,-165 149,-159 149,-153 149,-153 149,-134 149,-134 149,-128 155,-122 161,-122 161,-122 240,-122 240,-122 246,-122 252,-128 252,-134 252,-134 252,-153 252,-153 252,-159 246,-165 240,-165"/>
<text text-anchor="middle" x="200.5" y="-139.8" font-family="Times New Roman,serif" font-size="14.00">scope</text>
</g>
<!-- Thread&#45;&gt;scope -->
<g id="edge1" class="edge">
<title>Thread&#45;&gt;scope</title>
<path fill="none" stroke="black" d="M106.92,-104.01C117.49,-108.52 128.74,-113.31 139.62,-117.96"/>
<polygon fill="black" stroke="black" points="138.49,-121.28 149.06,-121.98 141.23,-114.84 138.49,-121.28"/>
</g>
<!-- sleep -->
<g id="node3" class="node">
<title>sleep</title>
<path fill="none" stroke="black" d="M238.5,-104C238.5,-104 162.5,-104 162.5,-104 156.5,-104 150.5,-98 150.5,-92 150.5,-92 150.5,-73 150.5,-73 150.5,-67 156.5,-61 162.5,-61 162.5,-61 238.5,-61 238.5,-61 244.5,-61 250.5,-67 250.5,-73 250.5,-73 250.5,-92 250.5,-92 250.5,-98 244.5,-104 238.5,-104"/>
<text text-anchor="middle" x="200.5" y="-78.8" font-family="Times New Roman,serif" font-size="14.00">sleep</text>
</g>
<!-- Thread&#45;&gt;sleep -->
<g id="edge2" class="edge">
<title>Thread&#45;&gt;sleep</title>
<path fill="none" stroke="black" d="M111.38,-82.5C120.75,-82.5 130.52,-82.5 140.01,-82.5"/>
<polygon fill="black" stroke="black" points="140.15,-86 150.15,-82.5 140.15,-79 140.15,-86"/>
</g>
<!-- spawn -->
<g id="node4" class="node">
<title>spawn</title>
<path fill="none" stroke="black" d="M242,-43C242,-43 159,-43 159,-43 153,-43 147,-37 147,-31 147,-31 147,-12 147,-12 147,-6 153,0 159,0 159,0 242,0 242,0 248,0 254,-6 254,-12 254,-12 254,-31 254,-31 254,-37 248,-43 242,-43"/>
<text text-anchor="middle" x="200.5" y="-17.8" font-family="Times New Roman,serif" font-size="14.00">spawn</text>
</g>
<!-- Thread&#45;&gt;spawn -->
<g id="edge3" class="edge">
<title>Thread&#45;&gt;spawn</title>
<path fill="none" stroke="black" d="M106.92,-60.99C117.49,-56.48 128.74,-51.69 139.62,-47.04"/>
<polygon fill="black" stroke="black" points="141.23,-50.16 149.06,-43.02 138.49,-43.72 141.23,-50.16"/>
</g>
<!-- Create a scope for spawning scoped threads. -->
<g id="node5" class="node">
<title>Create a scope for spawning scoped threads.</title>
<path fill="none" stroke="black" d="M593,-165C593,-165 302,-165 302,-165 296,-165 290,-159 290,-153 290,-153 290,-134 290,-134 290,-128 296,-122 302,-122 302,-122 593,-122 593,-122 599,-122 605,-128 605,-134 605,-134 605,-153 605,-153 605,-159 599,-165 593,-165"/>
<text text-anchor="middle" x="447.5" y="-139.8" font-family="Times New Roman,serif" font-size="14.00">Create a scope for spawning scoped threads.</text>
</g>
<!-- scope&#45;&gt;Create a scope for spawning scoped threads. -->
<g id="edge4" class="edge">
<title>scope&#45;&gt;Create a scope for spawning scoped threads.</title>
<path fill="none" stroke="black" d="M252.26,-143.5C260.79,-143.5 270.04,-143.5 279.71,-143.5"/>
<polygon fill="black" stroke="black" points="279.93,-147 289.93,-143.5 279.93,-140 279.93,-147"/>
</g>
</g>
</svg>
