<?xml version="1.0" encoding="UTF-8" standalone="no"?>
<!DOCTYPE svg PUBLIC "-//W3C//DTD SVG 1.1//EN"
 "http://www.w3.org/Graphics/SVG/1.1/DTD/svg11.dtd">
<!-- Generated by graphviz version 2.50.0 (0)
 -->
<!-- Pages: 1 -->
<svg width="765pt" height="749pt"
 viewBox="0.00 0.00 765.00 749.00" xmlns="http://www.w3.org/2000/svg" xmlns:xlink="http://www.w3.org/1999/xlink">
<g id="graph0" class="graph" transform="scale(1 1) rotate(0) translate(4 745)">
<polygon fill="white" stroke="transparent" points="-4,4 -4,-745 761,-745 761,4 -4,4"/>
<g id="clust1" class="cluster">
<title>cluster_run</title>
<polygon fill="none" stroke="black" points="82,-44 82,-733 749,-733 749,-44 82,-44"/>
</g>
<g id="clust4" class="cluster">
<title>cluster_runchild</title>
<polygon fill="none" stroke="black" points="185.5,-536 185.5,-588 320.5,-588 320.5,-536 185.5,-536"/>
</g>
<g id="clust2" class="cluster">
<title>cluster_thread</title>
<polygon fill="none" stroke="black" points="178.5,-206 178.5,-528 741,-528 741,-206 178.5,-206"/>
<text text-anchor="middle" x="459.75" y="-512.8" font-family="Times New Roman,serif" font-size="14.00">annotation</text>
</g>
<g id="clust3" class="cluster">
<title>cluster_ttype</title>
<polygon fill="none" stroke="black" points="192.5,-368 192.5,-497 605.5,-497 605.5,-368 192.5,-368"/>
<text text-anchor="middle" x="399" y="-481.8" font-family="Times New Roman,serif" font-size="14.00">annotation</text>
</g>
<g id="clust5" class="cluster">
<title>cluster_procs</title>
<polygon fill="none" stroke="black" points="203,-596 203,-725 304,-725 304,-596 203,-596"/>
<text text-anchor="middle" x="253.5" y="-709.8" font-family="Times New Roman,serif" font-size="14.00">multi processes</text>
</g>
<!-- tokio -->
<g id="node1" class="node">
<title>tokio</title>
<path fill="none" stroke="black" d="M42,-170C42,-170 12,-170 12,-170 6,-170 0,-164 0,-158 0,-158 0,-146 0,-146 0,-140 6,-134 12,-134 12,-134 42,-134 42,-134 48,-134 54,-140 54,-146 54,-146 54,-158 54,-158 54,-164 48,-170 42,-170"/>
<text text-anchor="middle" x="27" y="-148.3" font-family="Times New Roman,serif" font-size="14.00">tokio</text>
</g>
<!-- runtime -->
<g id="node2" class="node">
<title>runtime</title>
<path fill="none" stroke="black" d="M137,-331C137,-331 102,-331 102,-331 96,-331 90,-325 90,-319 90,-319 90,-307 90,-307 90,-301 96,-295 102,-295 102,-295 137,-295 137,-295 143,-295 149,-301 149,-307 149,-307 149,-319 149,-319 149,-325 143,-331 137,-331"/>
<text text-anchor="middle" x="119.5" y="-309.3" font-family="Times New Roman,serif" font-size="14.00">runtime</text>
</g>
<!-- tokio&#45;&gt;runtime -->
<g id="edge1" class="edge">
<title>tokio&#45;&gt;runtime</title>
<path fill="none" stroke="black" d="M38.21,-170.16C54.03,-198.3 84.57,-252.64 103.09,-285.58"/>
<polygon fill="black" stroke="black" points="100.24,-287.66 108.19,-294.66 106.34,-284.23 100.24,-287.66"/>
</g>
<!-- task -->
<g id="node3" class="node">
<title>task</title>
<path fill="none" stroke="black" d="M134.5,-36C134.5,-36 104.5,-36 104.5,-36 98.5,-36 92.5,-30 92.5,-24 92.5,-24 92.5,-12 92.5,-12 92.5,-6 98.5,0 104.5,0 104.5,0 134.5,0 134.5,0 140.5,0 146.5,-6 146.5,-12 146.5,-12 146.5,-24 146.5,-24 146.5,-30 140.5,-36 134.5,-36"/>
<text text-anchor="middle" x="119.5" y="-14.3" font-family="Times New Roman,serif" font-size="14.00">task</text>
</g>
<!-- tokio&#45;&gt;task -->
<g id="edge2" class="edge">
<title>tokio&#45;&gt;task</title>
<path fill="none" stroke="black" d="M33.16,-133.85C40.67,-110.01 56.56,-67.93 82,-40 82.75,-39.18 83.53,-38.38 84.35,-37.6"/>
<polygon fill="black" stroke="black" points="86.74,-40.17 92.33,-31.17 82.35,-34.72 86.74,-40.17"/>
</g>
<!-- enter -->
<g id="node4" class="node">
<title>enter</title>
<path fill="none" stroke="black" d="M309,-88C309,-88 197,-88 197,-88 191,-88 185,-82 185,-76 185,-76 185,-64 185,-64 185,-58 191,-52 197,-52 197,-52 309,-52 309,-52 315,-52 321,-58 321,-64 321,-64 321,-76 321,-76 321,-82 315,-88 309,-88"/>
<text text-anchor="middle" x="253" y="-66.3" font-family="Times New Roman,serif" font-size="14.00">enter() &#45;&gt; EnterGuard</text>
</g>
<!-- runtime&#45;&gt;enter -->
<g id="edge4" class="edge">
<title>runtime&#45;&gt;enter</title>
<path fill="none" stroke="black" d="M120.09,-294.74C120.18,-253.91 126.11,-154.32 178.5,-97 179.38,-96.04 180.29,-95.12 181.24,-94.22"/>
<polygon fill="black" stroke="black" points="183.42,-96.96 189.08,-88 179.07,-91.47 183.42,-96.96"/>
</g>
<!-- block_on(Future) -->
<g id="node5" class="node">
<title>block_on(Future)</title>
<path fill="none" stroke="black" d="M296.5,-142C296.5,-142 209.5,-142 209.5,-142 203.5,-142 197.5,-136 197.5,-130 197.5,-130 197.5,-118 197.5,-118 197.5,-112 203.5,-106 209.5,-106 209.5,-106 296.5,-106 296.5,-106 302.5,-106 308.5,-112 308.5,-118 308.5,-118 308.5,-130 308.5,-130 308.5,-136 302.5,-142 296.5,-142"/>
<text text-anchor="middle" x="253" y="-120.3" font-family="Times New Roman,serif" font-size="14.00">block_on(Future)</text>
</g>
<!-- runtime&#45;&gt;block_on(Future) -->
<g id="edge3" class="edge">
<title>runtime&#45;&gt;block_on(Future)</title>
<path fill="none" stroke="black" d="M122.05,-294.81C125.81,-261.75 138.32,-191.51 178.5,-151 181.52,-147.96 184.9,-145.26 188.52,-142.86"/>
<polygon fill="black" stroke="black" points="190.41,-145.81 197.33,-137.79 186.92,-139.75 190.41,-145.81"/>
</g>
<!-- drop(runtime) -->
<g id="node7" class="node">
<title>drop(runtime)</title>
<path fill="none" stroke="black" d="M287.5,-196C287.5,-196 218.5,-196 218.5,-196 212.5,-196 206.5,-190 206.5,-184 206.5,-184 206.5,-172 206.5,-172 206.5,-166 212.5,-160 218.5,-160 218.5,-160 287.5,-160 287.5,-160 293.5,-160 299.5,-166 299.5,-172 299.5,-172 299.5,-184 299.5,-184 299.5,-190 293.5,-196 287.5,-196"/>
<text text-anchor="middle" x="253" y="-174.3" font-family="Times New Roman,serif" font-size="14.00">drop(runtime)</text>
</g>
<!-- runtime&#45;&gt;drop(runtime) -->
<g id="edge6" class="edge">
<title>runtime&#45;&gt;drop(runtime)</title>
<path fill="none" stroke="black" d="M125.27,-294.92C132.64,-270.41 149.13,-226.86 178.5,-202 183.87,-197.45 190.12,-193.76 196.67,-190.77"/>
<polygon fill="black" stroke="black" points="198.43,-193.84 206.4,-186.86 195.82,-187.34 198.43,-193.84"/>
</g>
<!-- single_t -->
<g id="node8" class="node">
<title>single_t</title>
<path fill="none" stroke="black" d="M307.5,-358C307.5,-358 198.5,-358 198.5,-358 192.5,-358 186.5,-352 186.5,-346 186.5,-346 186.5,-334 186.5,-334 186.5,-328 192.5,-322 198.5,-322 198.5,-322 307.5,-322 307.5,-322 313.5,-322 319.5,-328 319.5,-334 319.5,-334 319.5,-346 319.5,-346 319.5,-352 313.5,-358 307.5,-358"/>
<text text-anchor="middle" x="253" y="-336.3" font-family="Times New Roman,serif" font-size="14.00">single thread runtime</text>
</g>
<!-- runtime&#45;&gt;single_t -->
<g id="edge7" class="edge">
<title>runtime&#45;&gt;single_t</title>
<path fill="none" stroke="black" d="M149.03,-318.86C157.3,-320.56 166.75,-322.5 176.48,-324.49"/>
<polygon fill="black" stroke="black" points="175.78,-327.92 186.28,-326.51 177.19,-321.07 175.78,-327.92"/>
</g>
<!-- multi_t -->
<g id="node9" class="node">
<title>multi_t</title>
<path fill="none" stroke="black" d="M306,-304C306,-304 200,-304 200,-304 194,-304 188,-298 188,-292 188,-292 188,-280 188,-280 188,-274 194,-268 200,-268 200,-268 306,-268 306,-268 312,-268 318,-274 318,-280 318,-280 318,-292 318,-292 318,-298 312,-304 306,-304"/>
<text text-anchor="middle" x="253" y="-282.3" font-family="Times New Roman,serif" font-size="14.00">multi thread runtime</text>
</g>
<!-- runtime&#45;&gt;multi_t -->
<g id="edge8" class="edge">
<title>runtime&#45;&gt;multi_t</title>
<path fill="none" stroke="black" d="M149.03,-307.14C157.73,-305.35 167.73,-303.3 178,-301.19"/>
<polygon fill="black" stroke="black" points="178.81,-304.6 187.9,-299.16 177.4,-297.74 178.81,-304.6"/>
</g>
<!-- async_run -->
<g id="node10" class="node">
<title>async_run</title>
<path fill="none" stroke="black" d="M288,-250C288,-250 218,-250 218,-250 212,-250 206,-244 206,-238 206,-238 206,-226 206,-226 206,-220 212,-214 218,-214 218,-214 288,-214 288,-214 294,-214 300,-220 300,-226 300,-226 300,-238 300,-238 300,-244 294,-250 288,-250"/>
<text text-anchor="middle" x="253" y="-228.3" font-family="Times New Roman,serif" font-size="14.00">async runtime</text>
</g>
<!-- runtime&#45;&gt;async_run -->
<g id="edge9" class="edge">
<title>runtime&#45;&gt;async_run</title>
<path fill="none" stroke="black" d="M136.28,-294.98C147.18,-283.42 162.56,-268.79 178.5,-259 184.18,-255.51 190.38,-252.37 196.7,-249.56"/>
<polygon fill="black" stroke="black" points="198.09,-252.77 205.98,-245.7 195.41,-246.31 198.09,-252.77"/>
</g>
<!-- worker_t -->
<g id="node11" class="node">
<title>worker_t</title>
<path fill="none" stroke="black" d="M287,-466C287,-466 219,-466 219,-466 213,-466 207,-460 207,-454 207,-454 207,-442 207,-442 207,-436 213,-430 219,-430 219,-430 287,-430 287,-430 293,-430 299,-436 299,-442 299,-442 299,-454 299,-454 299,-460 293,-466 287,-466"/>
<text text-anchor="middle" x="253" y="-444.3" font-family="Times New Roman,serif" font-size="14.00">worker thread</text>
</g>
<!-- runtime&#45;&gt;worker_t -->
<g id="edge10" class="edge">
<title>runtime&#45;&gt;worker_t</title>
<path fill="none" stroke="black" d="M125.8,-331.26C133.6,-355.08 150.38,-396.58 178.5,-421 184.08,-425.84 190.59,-429.84 197.4,-433.14"/>
<polygon fill="black" stroke="black" points="196.24,-436.46 206.81,-437.22 199.03,-430.03 196.24,-436.46"/>
</g>
<!-- blocking_t -->
<g id="node12" class="node">
<title>blocking_t</title>
<path fill="none" stroke="black" d="M293.5,-412C293.5,-412 212.5,-412 212.5,-412 206.5,-412 200.5,-406 200.5,-400 200.5,-400 200.5,-388 200.5,-388 200.5,-382 206.5,-376 212.5,-376 212.5,-376 293.5,-376 293.5,-376 299.5,-376 305.5,-382 305.5,-388 305.5,-388 305.5,-400 305.5,-400 305.5,-406 299.5,-412 293.5,-412"/>
<text text-anchor="middle" x="253" y="-390.3" font-family="Times New Roman,serif" font-size="14.00">blocking &#160;thread</text>
</g>
<!-- runtime&#45;&gt;blocking_t -->
<g id="edge11" class="edge">
<title>runtime&#45;&gt;blocking_t</title>
<path fill="none" stroke="black" d="M134.14,-331.14C144.87,-344.23 160.91,-361.4 178.5,-372 182.39,-374.35 186.55,-376.46 190.84,-378.35"/>
<polygon fill="black" stroke="black" points="189.79,-381.7 200.37,-382.17 192.39,-375.2 189.79,-381.7"/>
</g>
<!-- spawn -->
<g id="node15" class="node">
<title>spawn</title>
<path fill="none" stroke="black" d="M300.5,-580C300.5,-580 205.5,-580 205.5,-580 199.5,-580 193.5,-574 193.5,-568 193.5,-568 193.5,-556 193.5,-556 193.5,-550 199.5,-544 205.5,-544 205.5,-544 300.5,-544 300.5,-544 306.5,-544 312.5,-550 312.5,-556 312.5,-556 312.5,-568 312.5,-568 312.5,-574 306.5,-580 300.5,-580"/>
<text text-anchor="middle" x="253" y="-558.3" font-family="Times New Roman,serif" font-size="14.00">tokio：：spawn()</text>
</g>
<!-- runtime&#45;&gt;spawn -->
<g id="edge14" class="edge">
<title>runtime&#45;&gt;spawn</title>
<path fill="none" stroke="black" d="M122.58,-331.04C127.37,-366.34 141.71,-445.89 178.5,-501 187.94,-515.14 201.61,-527.74 214.61,-537.77"/>
<polygon fill="black" stroke="black" points="212.88,-540.84 223,-543.97 217.04,-535.21 212.88,-540.84"/>
</g>
<!-- Send -->
<g id="node16" class="node">
<title>Send</title>
<path fill="none" stroke="black" d="M268,-694C268,-694 238,-694 238,-694 232,-694 226,-688 226,-682 226,-682 226,-670 226,-670 226,-664 232,-658 238,-658 238,-658 268,-658 268,-658 274,-658 280,-664 280,-670 280,-670 280,-682 280,-682 280,-688 274,-694 268,-694"/>
<text text-anchor="middle" x="253" y="-672.3" font-family="Times New Roman,serif" font-size="14.00">Send</text>
</g>
<!-- runtime&#45;&gt;Send -->
<g id="edge15" class="edge">
<title>runtime&#45;&gt;Send</title>
<path fill="none" stroke="black" d="M121.29,-331.01C124.36,-393.5 137.47,-599.78 178.5,-649 187.79,-660.15 202.12,-666.7 215.67,-670.54"/>
<polygon fill="black" stroke="black" points="215.24,-674.04 225.78,-672.98 216.88,-667.23 215.24,-674.04"/>
</g>
<!-- Sync -->
<g id="node17" class="node">
<title>Sync</title>
<path fill="none" stroke="black" d="M268,-640C268,-640 238,-640 238,-640 232,-640 226,-634 226,-628 226,-628 226,-616 226,-616 226,-610 232,-604 238,-604 238,-604 268,-604 268,-604 274,-604 280,-610 280,-616 280,-616 280,-628 280,-628 280,-634 274,-640 268,-640"/>
<text text-anchor="middle" x="253" y="-618.3" font-family="Times New Roman,serif" font-size="14.00">Sync</text>
</g>
<!-- runtime&#45;&gt;Sync -->
<g id="edge16" class="edge">
<title>runtime&#45;&gt;Sync</title>
<path fill="none" stroke="black" d="M122.08,-331.32C127.19,-386.81 144.95,-551.69 178.5,-592 188.01,-603.42 202.54,-610.55 216.19,-614.96"/>
<polygon fill="black" stroke="black" points="215.31,-618.35 225.88,-617.73 217.22,-611.62 215.31,-618.35"/>
</g>
<!-- drop(EnterGuard) -->
<g id="node6" class="node">
<title>drop(EnterGuard)</title>
<path fill="none" stroke="black" d="M589.5,-88C589.5,-88 500.5,-88 500.5,-88 494.5,-88 488.5,-82 488.5,-76 488.5,-76 488.5,-64 488.5,-64 488.5,-58 494.5,-52 500.5,-52 500.5,-52 589.5,-52 589.5,-52 595.5,-52 601.5,-58 601.5,-64 601.5,-64 601.5,-76 601.5,-76 601.5,-82 595.5,-88 589.5,-88"/>
<text text-anchor="middle" x="545" y="-66.3" font-family="Times New Roman,serif" font-size="14.00">drop(EnterGuard)</text>
</g>
<!-- enter&#45;&gt;drop(EnterGuard) -->
<g id="edge5" class="edge">
<title>enter&#45;&gt;drop(EnterGuard)</title>
<path fill="none" stroke="black" d="M321.26,-70C368.49,-70 431.35,-70 478.25,-70"/>
<polygon fill="black" stroke="black" points="478.3,-73.5 488.3,-70 478.3,-66.5 478.3,-73.5"/>
</g>
<!-- #[tokio：：main(flavor = &#39;multi_thread&#39;, worker_threads = 10))] -->
<g id="node13" class="node">
<title>#[tokio：：main(flavor = &#39;multi_thread&#39;, worker_threads = 10))]</title>
<path fill="none" stroke="black" d="M721,-250C721,-250 369,-250 369,-250 363,-250 357,-244 357,-238 357,-238 357,-226 357,-226 357,-220 363,-214 369,-214 369,-214 721,-214 721,-214 727,-214 733,-220 733,-226 733,-226 733,-238 733,-238 733,-244 727,-250 721,-250"/>
<text text-anchor="middle" x="545" y="-228.3" font-family="Times New Roman,serif" font-size="14.00">#[tokio：：main(flavor = &#39;multi_thread&#39;, worker_threads = 10))]</text>
</g>
<!-- async_run&#45;&gt;#[tokio：：main(flavor = &#39;multi_thread&#39;, worker_threads = 10))] -->
<g id="edge12" class="edge">
<title>async_run&#45;&gt;#[tokio：：main(flavor = &#39;multi_thread&#39;, worker_threads = 10))]</title>
<path fill="none" stroke="black" d="M300.27,-232C313.91,-232 329.76,-232 346.71,-232"/>
<polygon fill="black" stroke="black" points="346.82,-235.5 356.82,-232 346.82,-228.5 346.82,-235.5"/>
</g>
<!-- spawn_blocking -->
<g id="node14" class="node">
<title>spawn_blocking</title>
<path fill="none" stroke="black" d="M585.5,-412C585.5,-412 504.5,-412 504.5,-412 498.5,-412 492.5,-406 492.5,-400 492.5,-400 492.5,-388 492.5,-388 492.5,-382 498.5,-376 504.5,-376 504.5,-376 585.5,-376 585.5,-376 591.5,-376 597.5,-382 597.5,-388 597.5,-388 597.5,-400 597.5,-400 597.5,-406 591.5,-412 585.5,-412"/>
<text text-anchor="middle" x="545" y="-390.3" font-family="Times New Roman,serif" font-size="14.00">spawn_blocking</text>
</g>
<!-- blocking_t&#45;&gt;spawn_blocking -->
<g id="edge13" class="edge">
<title>blocking_t&#45;&gt;spawn_blocking</title>
<path fill="none" stroke="black" d="M305.51,-394C354.95,-394 429.67,-394 482.27,-394"/>
<polygon fill="black" stroke="black" points="482.48,-397.5 492.48,-394 482.48,-390.5 482.48,-397.5"/>
</g>
</g>
</svg>
