<?xml version="1.0" encoding="UTF-8" standalone="no"?>
<!DOCTYPE svg PUBLIC "-//W3C//DTD SVG 1.1//EN"
 "http://www.w3.org/Graphics/SVG/1.1/DTD/svg11.dtd">
<!-- Generated by graphviz version 2.50.0 (0)
 -->
<!-- Pages: 1 -->
<svg width="314pt" height="693pt"
 viewBox="0.00 0.00 314.00 693.00" xmlns="http://www.w3.org/2000/svg" xmlns:xlink="http://www.w3.org/1999/xlink">
<g id="graph0" class="graph" transform="scale(1 1) rotate(0) translate(4 689)">
<polygon fill="white" stroke="transparent" points="-4,4 -4,-689 310,-689 310,4 -4,4"/>
<g id="clust1" class="cluster">
<title>cluster_task</title>
<polygon fill="none" stroke="black" points="177,-8 177,-677 298,-677 298,-8 177,-8"/>
<text text-anchor="middle" x="237.5" y="-661.8" font-family="Times New Roman,serif" font-size="14.00">task</text>
</g>
<!-- tokio -->
<g id="node1" class="node">
<title>tokio</title>
<path fill="none" stroke="black" d="M42,-376C42,-376 12,-376 12,-376 6,-376 0,-370 0,-364 0,-364 0,-352 0,-352 0,-346 6,-340 12,-340 12,-340 42,-340 42,-340 48,-340 54,-346 54,-352 54,-352 54,-364 54,-364 54,-370 48,-376 42,-376"/>
<text text-anchor="middle" x="27" y="-354.3" font-family="Times New Roman,serif" font-size="14.00">tokio</text>
</g>
<!-- runtime -->
<g id="node2" class="node">
<title>runtime</title>
<path fill="none" stroke="black" d="M137,-403C137,-403 102,-403 102,-403 96,-403 90,-397 90,-391 90,-391 90,-379 90,-379 90,-373 96,-367 102,-367 102,-367 137,-367 137,-367 143,-367 149,-373 149,-379 149,-379 149,-391 149,-391 149,-397 143,-403 137,-403"/>
<text text-anchor="middle" x="119.5" y="-381.3" font-family="Times New Roman,serif" font-size="14.00">runtime</text>
</g>
<!-- tokio&#45;&gt;runtime -->
<g id="edge1" class="edge">
<title>tokio&#45;&gt;runtime</title>
<path fill="none" stroke="black" d="M54.18,-365.81C62.29,-368.23 71.41,-370.95 80.18,-373.57"/>
<polygon fill="black" stroke="black" points="79.26,-376.95 89.85,-376.45 81.27,-370.24 79.26,-376.95"/>
</g>
<!-- task -->
<g id="node3" class="node">
<title>task</title>
<path fill="none" stroke="black" d="M134.5,-349C134.5,-349 104.5,-349 104.5,-349 98.5,-349 92.5,-343 92.5,-337 92.5,-337 92.5,-325 92.5,-325 92.5,-319 98.5,-313 104.5,-313 104.5,-313 134.5,-313 134.5,-313 140.5,-313 146.5,-319 146.5,-325 146.5,-325 146.5,-337 146.5,-337 146.5,-343 140.5,-349 134.5,-349"/>
<text text-anchor="middle" x="119.5" y="-327.3" font-family="Times New Roman,serif" font-size="14.00">task</text>
</g>
<!-- tokio&#45;&gt;task -->
<g id="edge2" class="edge">
<title>tokio&#45;&gt;task</title>
<path fill="none" stroke="black" d="M54.18,-350.19C63.09,-347.53 73.21,-344.51 82.74,-341.67"/>
<polygon fill="black" stroke="black" points="83.8,-345 92.38,-338.79 81.8,-338.3 83.8,-345"/>
</g>
<!-- spawn -->
<g id="node4" class="node">
<title>spawn</title>
<path fill="none" stroke="black" d="M252.5,-646C252.5,-646 222.5,-646 222.5,-646 216.5,-646 210.5,-640 210.5,-634 210.5,-634 210.5,-622 210.5,-622 210.5,-616 216.5,-610 222.5,-610 222.5,-610 252.5,-610 252.5,-610 258.5,-610 264.5,-616 264.5,-622 264.5,-622 264.5,-634 264.5,-634 264.5,-640 258.5,-646 252.5,-646"/>
<text text-anchor="middle" x="237.5" y="-624.3" font-family="Times New Roman,serif" font-size="14.00">spawn</text>
</g>
<!-- task&#45;&gt;spawn -->
<g id="edge3" class="edge">
<title>task&#45;&gt;spawn</title>
<path fill="none" stroke="black" d="M142.93,-349.07C145.3,-351.83 147.42,-354.83 149,-358 197.61,-455.24 112.97,-513.14 177,-601 182.9,-609.1 191.81,-614.82 200.95,-618.84"/>
<polygon fill="black" stroke="black" points="199.86,-622.17 210.45,-622.45 202.34,-615.63 199.86,-622.17"/>
</g>
<!-- spawn_blocking -->
<g id="node5" class="node">
<title>spawn_blocking</title>
<path fill="none" stroke="black" d="M278,-592C278,-592 197,-592 197,-592 191,-592 185,-586 185,-580 185,-580 185,-568 185,-568 185,-562 191,-556 197,-556 197,-556 278,-556 278,-556 284,-556 290,-562 290,-568 290,-568 290,-580 290,-580 290,-586 284,-592 278,-592"/>
<text text-anchor="middle" x="237.5" y="-570.3" font-family="Times New Roman,serif" font-size="14.00">spawn_blocking</text>
</g>
<!-- task&#45;&gt;spawn_blocking -->
<g id="edge4" class="edge">
<title>task&#45;&gt;spawn_blocking</title>
<path fill="none" stroke="black" d="M142.83,-349.12C145.22,-351.88 147.36,-354.86 149,-358 188.19,-433.33 125.88,-479.19 177,-547 177.47,-547.63 177.97,-548.24 178.47,-548.84"/>
<polygon fill="black" stroke="black" points="176.25,-551.55 185.92,-555.89 181.06,-546.47 176.25,-551.55"/>
</g>
<!-- block_in_place -->
<g id="node6" class="node">
<title>block_in_place</title>
<path fill="none" stroke="black" d="M275,-538C275,-538 200,-538 200,-538 194,-538 188,-532 188,-526 188,-526 188,-514 188,-514 188,-508 194,-502 200,-502 200,-502 275,-502 275,-502 281,-502 287,-508 287,-514 287,-514 287,-526 287,-526 287,-532 281,-538 275,-538"/>
<text text-anchor="middle" x="237.5" y="-516.3" font-family="Times New Roman,serif" font-size="14.00">block_in_place</text>
</g>
<!-- task&#45;&gt;block_in_place -->
<g id="edge5" class="edge">
<title>task&#45;&gt;block_in_place</title>
<path fill="none" stroke="black" d="M142.66,-349.21C145.07,-351.95 147.27,-354.9 149,-358 178.83,-411.53 138.72,-445.15 177,-493 177.95,-494.19 178.97,-495.33 180.04,-496.42"/>
<polygon fill="black" stroke="black" points="177.89,-499.19 187.8,-502.94 182.39,-493.83 177.89,-499.19"/>
</g>
<!-- yield_now -->
<g id="node7" class="node">
<title>yield_now</title>
<path fill="none" stroke="black" d="M262.5,-484C262.5,-484 212.5,-484 212.5,-484 206.5,-484 200.5,-478 200.5,-472 200.5,-472 200.5,-460 200.5,-460 200.5,-454 206.5,-448 212.5,-448 212.5,-448 262.5,-448 262.5,-448 268.5,-448 274.5,-454 274.5,-460 274.5,-460 274.5,-472 274.5,-472 274.5,-478 268.5,-484 262.5,-484"/>
<text text-anchor="middle" x="237.5" y="-462.3" font-family="Times New Roman,serif" font-size="14.00">yield_now</text>
</g>
<!-- task&#45;&gt;yield_now -->
<g id="edge6" class="edge">
<title>task&#45;&gt;yield_now</title>
<path fill="none" stroke="black" d="M142.01,-349.12C144.58,-351.92 147.01,-354.91 149,-358 169.64,-390.01 151.35,-410.84 177,-439 181.06,-443.46 186,-447.23 191.28,-450.41"/>
<polygon fill="black" stroke="black" points="189.92,-453.64 200.39,-455.21 193.18,-447.45 189.92,-453.64"/>
</g>
<!-- unconstrained -->
<g id="node8" class="node">
<title>unconstrained</title>
<path fill="none" stroke="black" d="M271.5,-430C271.5,-430 203.5,-430 203.5,-430 197.5,-430 191.5,-424 191.5,-418 191.5,-418 191.5,-406 191.5,-406 191.5,-400 197.5,-394 203.5,-394 203.5,-394 271.5,-394 271.5,-394 277.5,-394 283.5,-400 283.5,-406 283.5,-406 283.5,-418 283.5,-418 283.5,-424 277.5,-430 271.5,-430"/>
<text text-anchor="middle" x="237.5" y="-408.3" font-family="Times New Roman,serif" font-size="14.00">unconstrained</text>
</g>
<!-- task&#45;&gt;unconstrained -->
<g id="edge7" class="edge">
<title>task&#45;&gt;unconstrained</title>
<path fill="none" stroke="black" d="M139.84,-349.28C142.91,-352.19 146.04,-355.17 149,-358 161.5,-369.94 162.7,-375.29 177,-385 178.91,-386.29 180.88,-387.55 182.91,-388.77"/>
<polygon fill="black" stroke="black" points="181.6,-392.05 192.04,-393.88 185.02,-385.94 181.6,-392.05"/>
</g>
<!-- spawn_local -->
<g id="node9" class="node">
<title>spawn_local</title>
<path fill="none" stroke="black" d="M267.5,-376C267.5,-376 207.5,-376 207.5,-376 201.5,-376 195.5,-370 195.5,-364 195.5,-364 195.5,-352 195.5,-352 195.5,-346 201.5,-340 207.5,-340 207.5,-340 267.5,-340 267.5,-340 273.5,-340 279.5,-346 279.5,-352 279.5,-352 279.5,-364 279.5,-364 279.5,-370 273.5,-376 267.5,-376"/>
<text text-anchor="middle" x="237.5" y="-354.3" font-family="Times New Roman,serif" font-size="14.00">spawn_local</text>
</g>
<!-- task&#45;&gt;spawn_local -->
<g id="edge8" class="edge">
<title>task&#45;&gt;spawn_local</title>
<path fill="none" stroke="black" d="M146.53,-337.06C157.92,-339.71 171.71,-342.92 185.03,-346.02"/>
<polygon fill="black" stroke="black" points="184.54,-349.5 195.07,-348.36 186.13,-342.68 184.54,-349.5"/>
</g>
<!-- abort -->
<g id="node10" class="node">
<title>abort</title>
<path fill="none" stroke="black" d="M252.5,-322C252.5,-322 222.5,-322 222.5,-322 216.5,-322 210.5,-316 210.5,-310 210.5,-310 210.5,-298 210.5,-298 210.5,-292 216.5,-286 222.5,-286 222.5,-286 252.5,-286 252.5,-286 258.5,-286 264.5,-292 264.5,-298 264.5,-298 264.5,-310 264.5,-310 264.5,-316 258.5,-322 252.5,-322"/>
<text text-anchor="middle" x="237.5" y="-300.3" font-family="Times New Roman,serif" font-size="14.00">abort</text>
</g>
<!-- task&#45;&gt;abort -->
<g id="edge9" class="edge">
<title>task&#45;&gt;abort</title>
<path fill="none" stroke="black" d="M146.53,-324.94C162.39,-321.25 182.89,-316.48 200.31,-312.42"/>
<polygon fill="black" stroke="black" points="201.21,-315.81 210.15,-310.13 199.62,-308.99 201.21,-315.81"/>
</g>
<!-- join! -->
<g id="node11" class="node">
<title>join!</title>
<path fill="none" stroke="black" d="M252.5,-268C252.5,-268 222.5,-268 222.5,-268 216.5,-268 210.5,-262 210.5,-256 210.5,-256 210.5,-244 210.5,-244 210.5,-238 216.5,-232 222.5,-232 222.5,-232 252.5,-232 252.5,-232 258.5,-232 264.5,-238 264.5,-244 264.5,-244 264.5,-256 264.5,-256 264.5,-262 258.5,-268 252.5,-268"/>
<text text-anchor="middle" x="237.5" y="-246.3" font-family="Times New Roman,serif" font-size="14.00">join!</text>
</g>
<!-- task&#45;&gt;join! -->
<g id="edge10" class="edge">
<title>task&#45;&gt;join!</title>
<path fill="none" stroke="black" d="M136.5,-312.83C147.16,-301.5 161.94,-287.18 177,-277 184.36,-272.02 192.79,-267.56 200.94,-263.77"/>
<polygon fill="black" stroke="black" points="202.58,-266.88 210.31,-259.63 199.75,-260.47 202.58,-266.88"/>
</g>
<!-- try_join! -->
<g id="node12" class="node">
<title>try_join!</title>
<path fill="none" stroke="black" d="M257.5,-214C257.5,-214 217.5,-214 217.5,-214 211.5,-214 205.5,-208 205.5,-202 205.5,-202 205.5,-190 205.5,-190 205.5,-184 211.5,-178 217.5,-178 217.5,-178 257.5,-178 257.5,-178 263.5,-178 269.5,-184 269.5,-190 269.5,-190 269.5,-202 269.5,-202 269.5,-208 263.5,-214 257.5,-214"/>
<text text-anchor="middle" x="237.5" y="-192.3" font-family="Times New Roman,serif" font-size="14.00">try_join!</text>
</g>
<!-- task&#45;&gt;try_join! -->
<g id="edge11" class="edge">
<title>task&#45;&gt;try_join!</title>
<path fill="none" stroke="black" d="M125.94,-312.64C133.76,-289.1 150.25,-248.3 177,-223 182.5,-217.8 189.17,-213.48 196.03,-209.93"/>
<polygon fill="black" stroke="black" points="197.82,-212.96 205.41,-205.56 194.86,-206.61 197.82,-212.96"/>
</g>
<!-- select! -->
<g id="node13" class="node">
<title>select!</title>
<path fill="none" stroke="black" d="M252.5,-160C252.5,-160 222.5,-160 222.5,-160 216.5,-160 210.5,-154 210.5,-148 210.5,-148 210.5,-136 210.5,-136 210.5,-130 216.5,-124 222.5,-124 222.5,-124 252.5,-124 252.5,-124 258.5,-124 264.5,-130 264.5,-136 264.5,-136 264.5,-148 264.5,-148 264.5,-154 258.5,-160 252.5,-160"/>
<text text-anchor="middle" x="237.5" y="-138.3" font-family="Times New Roman,serif" font-size="14.00">select!</text>
</g>
<!-- task&#45;&gt;select! -->
<g id="edge12" class="edge">
<title>task&#45;&gt;select!</title>
<path fill="none" stroke="black" d="M122.19,-312.84C126.13,-280.15 138.73,-210.9 177,-169 183.46,-161.93 192.13,-156.58 200.86,-152.59"/>
<polygon fill="black" stroke="black" points="202.29,-155.79 210.24,-148.78 199.66,-149.3 202.29,-155.79"/>
</g>
<!-- JoinSet -->
<g id="node14" class="node">
<title>JoinSet</title>
<path fill="none" stroke="black" d="M253.5,-106C253.5,-106 221.5,-106 221.5,-106 215.5,-106 209.5,-100 209.5,-94 209.5,-94 209.5,-82 209.5,-82 209.5,-76 215.5,-70 221.5,-70 221.5,-70 253.5,-70 253.5,-70 259.5,-70 265.5,-76 265.5,-82 265.5,-82 265.5,-94 265.5,-94 265.5,-100 259.5,-106 253.5,-106"/>
<text text-anchor="middle" x="237.5" y="-84.3" font-family="Times New Roman,serif" font-size="14.00">JoinSet</text>
</g>
<!-- task&#45;&gt;JoinSet -->
<g id="edge13" class="edge">
<title>task&#45;&gt;JoinSet</title>
<path fill="none" stroke="black" d="M120.26,-312.72C120.69,-272.28 127.16,-174.13 177,-115 183.07,-107.8 191.45,-102.43 200.02,-98.46"/>
<polygon fill="black" stroke="black" points="201.34,-101.7 209.28,-94.69 198.7,-95.22 201.34,-101.7"/>
</g>
<!-- is_finished -->
<g id="node15" class="node">
<title>is_finished</title>
<path fill="none" stroke="black" d="M263.5,-52C263.5,-52 211.5,-52 211.5,-52 205.5,-52 199.5,-46 199.5,-40 199.5,-40 199.5,-28 199.5,-28 199.5,-22 205.5,-16 211.5,-16 211.5,-16 263.5,-16 263.5,-16 269.5,-16 275.5,-22 275.5,-28 275.5,-28 275.5,-40 275.5,-40 275.5,-46 269.5,-52 263.5,-52"/>
<text text-anchor="middle" x="237.5" y="-30.3" font-family="Times New Roman,serif" font-size="14.00">is_finished</text>
</g>
<!-- task&#45;&gt;is_finished -->
<g id="edge14" class="edge">
<title>task&#45;&gt;is_finished</title>
<path fill="none" stroke="black" d="M122.16,-312.94C127.43,-259.03 145.33,-100.52 177,-61 180.73,-56.35 185.43,-52.47 190.55,-49.24"/>
<polygon fill="black" stroke="black" points="192.35,-52.25 199.46,-44.4 189.01,-46.1 192.35,-52.25"/>
</g>
</g>
</svg>
