<?xml version="1.0" encoding="UTF-8" standalone="no"?>
<!DOCTYPE svg PUBLIC "-//W3C//DTD SVG 1.1//EN"
 "http://www.w3.org/Graphics/SVG/1.1/DTD/svg11.dtd">
<!-- Generated by graphviz version 2.50.0 (0)
 -->
<!-- Pages: 1 -->
<svg width="287pt" height="949pt"
 viewBox="0.00 0.00 287.00 949.00" xmlns="http://www.w3.org/2000/svg" xmlns:xlink="http://www.w3.org/1999/xlink">
<g id="graph0" class="graph" transform="scale(1 1) rotate(0) translate(4 945)">
<polygon fill="white" stroke="transparent" points="-4,4 -4,-945 283,-945 283,4 -4,4"/>
<g id="clust3" class="cluster">
<title>cluster_sync</title>
<polygon fill="none" stroke="black" points="84.5,-8 84.5,-299 271,-299 271,-8 84.5,-8"/>
<text text-anchor="middle" x="177.75" y="-283.8" font-family="Times New Roman,serif" font-size="14.00">sync</text>
</g>
<g id="clust1" class="cluster">
<title>cluster_time</title>
<polygon fill="none" stroke="black" points="183.5,-307 183.5,-598 264.5,-598 264.5,-307 183.5,-307"/>
<text text-anchor="middle" x="224" y="-582.8" font-family="Times New Roman,serif" font-size="14.00">time</text>
</g>
<g id="clust2" class="cluster">
<title>cluster_channel</title>
<polygon fill="none" stroke="black" points="82,-606 82,-843 266,-843 266,-606 82,-606"/>
<text text-anchor="middle" x="174" y="-827.8" font-family="Times New Roman,serif" font-size="14.00">channel</text>
</g>
<!-- tokio -->
<g id="node1" class="node">
<title>tokio</title>
<path fill="none" stroke="black" d="M42,-731C42,-731 12,-731 12,-731 6,-731 0,-725 0,-719 0,-719 0,-707 0,-707 0,-701 6,-695 12,-695 12,-695 42,-695 42,-695 48,-695 54,-701 54,-707 54,-707 54,-719 54,-719 54,-725 48,-731 42,-731"/>
<text text-anchor="middle" x="27" y="-709.3" font-family="Times New Roman,serif" font-size="14.00">tokio</text>
</g>
<!-- runtime -->
<g id="node2" class="node">
<title>runtime</title>
<path fill="none" stroke="black" d="M137,-941C137,-941 102,-941 102,-941 96,-941 90,-935 90,-929 90,-929 90,-917 90,-917 90,-911 96,-905 102,-905 102,-905 137,-905 137,-905 143,-905 149,-911 149,-917 149,-917 149,-929 149,-929 149,-935 143,-941 137,-941"/>
<text text-anchor="middle" x="119.5" y="-919.3" font-family="Times New Roman,serif" font-size="14.00">runtime</text>
</g>
<!-- tokio&#45;&gt;runtime -->
<g id="edge1" class="edge">
<title>tokio&#45;&gt;runtime</title>
<path fill="none" stroke="black" d="M29.51,-731.01C33.21,-765.8 45.26,-843.48 82,-896 82.35,-896.5 82.72,-897 83.1,-897.5"/>
<polygon fill="black" stroke="black" points="80.65,-900.01 90.02,-904.96 85.79,-895.25 80.65,-900.01"/>
</g>
<!-- task -->
<g id="node3" class="node">
<title>task</title>
<path fill="none" stroke="black" d="M134.5,-887C134.5,-887 104.5,-887 104.5,-887 98.5,-887 92.5,-881 92.5,-875 92.5,-875 92.5,-863 92.5,-863 92.5,-857 98.5,-851 104.5,-851 104.5,-851 134.5,-851 134.5,-851 140.5,-851 146.5,-857 146.5,-863 146.5,-863 146.5,-875 146.5,-875 146.5,-881 140.5,-887 134.5,-887"/>
<text text-anchor="middle" x="119.5" y="-865.3" font-family="Times New Roman,serif" font-size="14.00">task</text>
</g>
<!-- tokio&#45;&gt;task -->
<g id="edge2" class="edge">
<title>tokio&#45;&gt;task</title>
<path fill="none" stroke="black" d="M31.51,-731.41C37.59,-759.18 52.39,-812.25 82,-847 82.72,-847.84 83.48,-848.67 84.28,-849.46"/>
<polygon fill="black" stroke="black" points="82.21,-852.3 92.14,-856 86.69,-846.92 82.21,-852.3"/>
</g>
<!-- time -->
<g id="node4" class="node">
<title>time</title>
<path fill="none" stroke="black" d="M134.5,-486C134.5,-486 104.5,-486 104.5,-486 98.5,-486 92.5,-480 92.5,-474 92.5,-474 92.5,-462 92.5,-462 92.5,-456 98.5,-450 104.5,-450 104.5,-450 134.5,-450 134.5,-450 140.5,-450 146.5,-456 146.5,-462 146.5,-462 146.5,-474 146.5,-474 146.5,-480 140.5,-486 134.5,-486"/>
<text text-anchor="middle" x="119.5" y="-464.3" font-family="Times New Roman,serif" font-size="14.00">time</text>
</g>
<!-- tokio&#45;&gt;time -->
<g id="edge3" class="edge">
<title>tokio&#45;&gt;time</title>
<path fill="none" stroke="black" d="M34.65,-694.98C50.31,-652.6 89.57,-546.32 108.28,-495.68"/>
<polygon fill="black" stroke="black" points="111.65,-496.64 111.84,-486.04 105.09,-494.21 111.65,-496.64"/>
</g>
<!-- channel -->
<g id="node10" class="node">
<title>channel</title>
<path fill="none" stroke="black" d="M137,-731C137,-731 102,-731 102,-731 96,-731 90,-725 90,-719 90,-719 90,-707 90,-707 90,-701 96,-695 102,-695 102,-695 137,-695 137,-695 143,-695 149,-701 149,-707 149,-707 149,-719 149,-719 149,-725 143,-731 137,-731"/>
<text text-anchor="middle" x="119.5" y="-709.3" font-family="Times New Roman,serif" font-size="14.00">channel</text>
</g>
<!-- tokio&#45;&gt;channel -->
<g id="edge5" class="edge">
<title>tokio&#45;&gt;channel</title>
<path fill="none" stroke="black" d="M54.18,-713C62.12,-713 71.02,-713 79.61,-713"/>
<polygon fill="black" stroke="black" points="79.85,-716.5 89.85,-713 79.85,-709.5 79.85,-716.5"/>
</g>
<!-- sync -->
<g id="node15" class="node">
<title>sync</title>
<path fill="none" stroke="black" d="M134.5,-187C134.5,-187 104.5,-187 104.5,-187 98.5,-187 92.5,-181 92.5,-175 92.5,-175 92.5,-163 92.5,-163 92.5,-157 98.5,-151 104.5,-151 104.5,-151 134.5,-151 134.5,-151 140.5,-151 146.5,-157 146.5,-163 146.5,-163 146.5,-175 146.5,-175 146.5,-181 140.5,-187 134.5,-187"/>
<text text-anchor="middle" x="119.5" y="-165.3" font-family="Times New Roman,serif" font-size="14.00">sync</text>
</g>
<!-- tokio&#45;&gt;sync -->
<g id="edge4" class="edge">
<title>tokio&#45;&gt;sync</title>
<path fill="none" stroke="black" d="M31.01,-694.9C44.28,-615.11 97.63,-294.47 113.82,-197.15"/>
<polygon fill="black" stroke="black" points="117.29,-197.61 115.48,-187.17 110.38,-196.46 117.29,-197.61"/>
</g>
<!-- Duration -->
<g id="node5" class="node">
<title>Duration</title>
<path fill="none" stroke="black" d="M244.5,-567C244.5,-567 203.5,-567 203.5,-567 197.5,-567 191.5,-561 191.5,-555 191.5,-555 191.5,-543 191.5,-543 191.5,-537 197.5,-531 203.5,-531 203.5,-531 244.5,-531 244.5,-531 250.5,-531 256.5,-537 256.5,-543 256.5,-543 256.5,-555 256.5,-555 256.5,-561 250.5,-567 244.5,-567"/>
<text text-anchor="middle" x="224" y="-545.3" font-family="Times New Roman,serif" font-size="14.00">Duration</text>
</g>
<!-- time&#45;&gt;Duration -->
<g id="edge6" class="edge">
<title>time&#45;&gt;Duration</title>
<path fill="none" stroke="black" d="M140.46,-486.09C152.62,-496.86 168.64,-510.61 183.5,-522 184.69,-522.92 185.92,-523.84 187.16,-524.76"/>
<polygon fill="black" stroke="black" points="185.37,-527.78 195.53,-530.79 189.46,-522.1 185.37,-527.78"/>
</g>
<!-- Instant -->
<g id="node6" class="node">
<title>Instant</title>
<path fill="none" stroke="black" d="M239,-513C239,-513 209,-513 209,-513 203,-513 197,-507 197,-501 197,-501 197,-489 197,-489 197,-483 203,-477 209,-477 209,-477 239,-477 239,-477 245,-477 251,-483 251,-489 251,-489 251,-501 251,-501 251,-507 245,-513 239,-513"/>
<text text-anchor="middle" x="224" y="-491.3" font-family="Times New Roman,serif" font-size="14.00">Instant</text>
</g>
<!-- time&#45;&gt;Instant -->
<g id="edge7" class="edge">
<title>time&#45;&gt;Instant</title>
<path fill="none" stroke="black" d="M146.63,-474.88C158.92,-478.12 173.77,-482.03 187.09,-485.54"/>
<polygon fill="black" stroke="black" points="186.36,-488.97 196.92,-488.13 188.14,-482.2 186.36,-488.97"/>
</g>
<!-- Sleep -->
<g id="node7" class="node">
<title>Sleep</title>
<path fill="none" stroke="black" d="M239,-459C239,-459 209,-459 209,-459 203,-459 197,-453 197,-447 197,-447 197,-435 197,-435 197,-429 203,-423 209,-423 209,-423 239,-423 239,-423 245,-423 251,-429 251,-435 251,-435 251,-447 251,-447 251,-453 245,-459 239,-459"/>
<text text-anchor="middle" x="224" y="-437.3" font-family="Times New Roman,serif" font-size="14.00">Sleep</text>
</g>
<!-- time&#45;&gt;Sleep -->
<g id="edge8" class="edge">
<title>time&#45;&gt;Sleep</title>
<path fill="none" stroke="black" d="M146.63,-461.12C158.92,-457.88 173.77,-453.97 187.09,-450.46"/>
<polygon fill="black" stroke="black" points="188.14,-453.8 196.92,-447.87 186.36,-447.03 188.14,-453.8"/>
</g>
<!-- Interval -->
<g id="node8" class="node">
<title>Interval</title>
<path fill="none" stroke="black" d="M241.5,-405C241.5,-405 206.5,-405 206.5,-405 200.5,-405 194.5,-399 194.5,-393 194.5,-393 194.5,-381 194.5,-381 194.5,-375 200.5,-369 206.5,-369 206.5,-369 241.5,-369 241.5,-369 247.5,-369 253.5,-375 253.5,-381 253.5,-381 253.5,-393 253.5,-393 253.5,-399 247.5,-405 241.5,-405"/>
<text text-anchor="middle" x="224" y="-383.3" font-family="Times New Roman,serif" font-size="14.00">Interval</text>
</g>
<!-- time&#45;&gt;Interval -->
<g id="edge9" class="edge">
<title>time&#45;&gt;Interval</title>
<path fill="none" stroke="black" d="M140.46,-449.91C152.62,-439.14 168.64,-425.39 183.5,-414 184.69,-413.08 185.92,-412.16 187.16,-411.24"/>
<polygon fill="black" stroke="black" points="189.46,-413.9 195.53,-405.21 185.37,-408.22 189.46,-413.9"/>
</g>
<!-- Timeout -->
<g id="node9" class="node">
<title>Timeout</title>
<path fill="none" stroke="black" d="M243.5,-351C243.5,-351 204.5,-351 204.5,-351 198.5,-351 192.5,-345 192.5,-339 192.5,-339 192.5,-327 192.5,-327 192.5,-321 198.5,-315 204.5,-315 204.5,-315 243.5,-315 243.5,-315 249.5,-315 255.5,-321 255.5,-327 255.5,-327 255.5,-339 255.5,-339 255.5,-345 249.5,-351 243.5,-351"/>
<text text-anchor="middle" x="224" y="-329.3" font-family="Times New Roman,serif" font-size="14.00">Timeout</text>
</g>
<!-- time&#45;&gt;Timeout -->
<g id="edge10" class="edge">
<title>time&#45;&gt;Timeout</title>
<path fill="none" stroke="black" d="M128,-449.97C138.14,-427.14 157.91,-387.49 183.5,-360 184.24,-359.21 185,-358.43 185.78,-357.66"/>
<polygon fill="black" stroke="black" points="188.09,-360.29 193.33,-351.09 183.49,-355.02 188.09,-360.29"/>
</g>
<!-- oneshot -->
<g id="node11" class="node">
<title>oneshot</title>
<path fill="none" stroke="black" d="M241.5,-650C241.5,-650 206.5,-650 206.5,-650 200.5,-650 194.5,-644 194.5,-638 194.5,-638 194.5,-626 194.5,-626 194.5,-620 200.5,-614 206.5,-614 206.5,-614 241.5,-614 241.5,-614 247.5,-614 253.5,-620 253.5,-626 253.5,-626 253.5,-638 253.5,-638 253.5,-644 247.5,-650 241.5,-650"/>
<text text-anchor="middle" x="224" y="-628.3" font-family="Times New Roman,serif" font-size="14.00">oneshot</text>
</g>
<!-- channel&#45;&gt;oneshot -->
<g id="edge11" class="edge">
<title>channel&#45;&gt;oneshot</title>
<path fill="none" stroke="black" d="M140.46,-694.91C152.62,-684.14 168.64,-670.39 183.5,-659 184.69,-658.08 185.92,-657.16 187.16,-656.24"/>
<polygon fill="black" stroke="black" points="189.46,-658.9 195.53,-650.21 185.37,-653.22 189.46,-658.9"/>
</g>
<!-- mpsc -->
<g id="node12" class="node">
<title>mpsc</title>
<path fill="none" stroke="black" d="M239,-704C239,-704 209,-704 209,-704 203,-704 197,-698 197,-692 197,-692 197,-680 197,-680 197,-674 203,-668 209,-668 209,-668 239,-668 239,-668 245,-668 251,-674 251,-680 251,-680 251,-692 251,-692 251,-698 245,-704 239,-704"/>
<text text-anchor="middle" x="224" y="-682.3" font-family="Times New Roman,serif" font-size="14.00">mpsc</text>
</g>
<!-- channel&#45;&gt;mpsc -->
<g id="edge12" class="edge">
<title>channel&#45;&gt;mpsc</title>
<path fill="none" stroke="black" d="M149.05,-705.48C160.71,-702.41 174.34,-698.82 186.7,-695.56"/>
<polygon fill="black" stroke="black" points="187.93,-698.86 196.71,-692.93 186.15,-692.09 187.93,-698.86"/>
</g>
<!-- broadcast -->
<g id="node13" class="node">
<title>broadcast</title>
<path fill="none" stroke="black" d="M246,-758C246,-758 202,-758 202,-758 196,-758 190,-752 190,-746 190,-746 190,-734 190,-734 190,-728 196,-722 202,-722 202,-722 246,-722 246,-722 252,-722 258,-728 258,-734 258,-734 258,-746 258,-746 258,-752 252,-758 246,-758"/>
<text text-anchor="middle" x="224" y="-736.3" font-family="Times New Roman,serif" font-size="14.00">broadcast</text>
</g>
<!-- channel&#45;&gt;broadcast -->
<g id="edge13" class="edge">
<title>channel&#45;&gt;broadcast</title>
<path fill="none" stroke="black" d="M149.05,-720.52C158.66,-723.05 169.6,-725.93 180.06,-728.69"/>
<polygon fill="black" stroke="black" points="179.33,-732.12 189.89,-731.28 181.11,-725.35 179.33,-732.12"/>
</g>
<!-- watch -->
<g id="node14" class="node">
<title>watch</title>
<path fill="none" stroke="black" d="M239,-812C239,-812 209,-812 209,-812 203,-812 197,-806 197,-800 197,-800 197,-788 197,-788 197,-782 203,-776 209,-776 209,-776 239,-776 239,-776 245,-776 251,-782 251,-788 251,-788 251,-800 251,-800 251,-806 245,-812 239,-812"/>
<text text-anchor="middle" x="224" y="-790.3" font-family="Times New Roman,serif" font-size="14.00">watch</text>
</g>
<!-- channel&#45;&gt;watch -->
<g id="edge14" class="edge">
<title>channel&#45;&gt;watch</title>
<path fill="none" stroke="black" d="M140.46,-731.09C152.62,-741.86 168.64,-755.61 183.5,-767 185.08,-768.21 186.71,-769.44 188.37,-770.66"/>
<polygon fill="black" stroke="black" points="186.62,-773.71 196.79,-776.68 190.69,-768.01 186.62,-773.71"/>
</g>
<!-- Mutex -->
<g id="node16" class="node">
<title>Mutex</title>
<path fill="none" stroke="black" d="M239,-52C239,-52 209,-52 209,-52 203,-52 197,-46 197,-40 197,-40 197,-28 197,-28 197,-22 203,-16 209,-16 209,-16 239,-16 239,-16 245,-16 251,-22 251,-28 251,-28 251,-40 251,-40 251,-46 245,-52 239,-52"/>
<text text-anchor="middle" x="224" y="-30.3" font-family="Times New Roman,serif" font-size="14.00">Mutex</text>
</g>
<!-- sync&#45;&gt;Mutex -->
<g id="edge15" class="edge">
<title>sync&#45;&gt;Mutex</title>
<path fill="none" stroke="black" d="M128,-150.97C138.14,-128.14 157.91,-88.49 183.5,-61 185.06,-59.32 186.75,-57.69 188.51,-56.11"/>
<polygon fill="black" stroke="black" points="191.01,-58.6 196.61,-49.61 186.62,-53.15 191.01,-58.6"/>
</g>
<!-- RwLock -->
<g id="node17" class="node">
<title>RwLock</title>
<path fill="none" stroke="black" d="M243.5,-106C243.5,-106 204.5,-106 204.5,-106 198.5,-106 192.5,-100 192.5,-94 192.5,-94 192.5,-82 192.5,-82 192.5,-76 198.5,-70 204.5,-70 204.5,-70 243.5,-70 243.5,-70 249.5,-70 255.5,-76 255.5,-82 255.5,-82 255.5,-94 255.5,-94 255.5,-100 249.5,-106 243.5,-106"/>
<text text-anchor="middle" x="224" y="-84.3" font-family="Times New Roman,serif" font-size="14.00">RwLock</text>
</g>
<!-- sync&#45;&gt;RwLock -->
<g id="edge16" class="edge">
<title>sync&#45;&gt;RwLock</title>
<path fill="none" stroke="black" d="M140.46,-150.91C152.62,-140.14 168.64,-126.39 183.5,-115 184.69,-114.08 185.92,-113.16 187.16,-112.24"/>
<polygon fill="black" stroke="black" points="189.46,-114.9 195.53,-106.21 185.37,-109.22 189.46,-114.9"/>
</g>
<!-- Notify -->
<g id="node18" class="node">
<title>Notify</title>
<path fill="none" stroke="black" d="M239,-160C239,-160 209,-160 209,-160 203,-160 197,-154 197,-148 197,-148 197,-136 197,-136 197,-130 203,-124 209,-124 209,-124 239,-124 239,-124 245,-124 251,-130 251,-136 251,-136 251,-148 251,-148 251,-154 245,-160 239,-160"/>
<text text-anchor="middle" x="224" y="-138.3" font-family="Times New Roman,serif" font-size="14.00">Notify</text>
</g>
<!-- sync&#45;&gt;Notify -->
<g id="edge17" class="edge">
<title>sync&#45;&gt;Notify</title>
<path fill="none" stroke="black" d="M146.63,-162.12C158.92,-158.88 173.77,-154.97 187.09,-151.46"/>
<polygon fill="black" stroke="black" points="188.14,-154.8 196.92,-148.87 186.36,-148.03 188.14,-154.8"/>
</g>
<!-- Barrier -->
<g id="node19" class="node">
<title>Barrier</title>
<path fill="none" stroke="black" d="M239.5,-214C239.5,-214 208.5,-214 208.5,-214 202.5,-214 196.5,-208 196.5,-202 196.5,-202 196.5,-190 196.5,-190 196.5,-184 202.5,-178 208.5,-178 208.5,-178 239.5,-178 239.5,-178 245.5,-178 251.5,-184 251.5,-190 251.5,-190 251.5,-202 251.5,-202 251.5,-208 245.5,-214 239.5,-214"/>
<text text-anchor="middle" x="224" y="-192.3" font-family="Times New Roman,serif" font-size="14.00">Barrier</text>
</g>
<!-- sync&#45;&gt;Barrier -->
<g id="edge18" class="edge">
<title>sync&#45;&gt;Barrier</title>
<path fill="none" stroke="black" d="M146.63,-175.88C158.73,-179.07 173.31,-182.91 186.48,-186.38"/>
<polygon fill="black" stroke="black" points="185.64,-189.78 196.2,-188.94 187.42,-183.01 185.64,-189.78"/>
</g>
<!-- Semaphore -->
<g id="node20" class="node">
<title>Semaphore</title>
<path fill="none" stroke="black" d="M251,-268C251,-268 197,-268 197,-268 191,-268 185,-262 185,-256 185,-256 185,-244 185,-244 185,-238 191,-232 197,-232 197,-232 251,-232 251,-232 257,-232 263,-238 263,-244 263,-244 263,-256 263,-256 263,-262 257,-268 251,-268"/>
<text text-anchor="middle" x="224" y="-246.3" font-family="Times New Roman,serif" font-size="14.00">Semaphore</text>
</g>
<!-- sync&#45;&gt;Semaphore -->
<g id="edge19" class="edge">
<title>sync&#45;&gt;Semaphore</title>
<path fill="none" stroke="black" d="M140.46,-187.09C152.62,-197.86 168.64,-211.61 183.5,-223 184.69,-223.92 185.92,-224.84 187.16,-225.76"/>
<polygon fill="black" stroke="black" points="185.37,-228.78 195.53,-231.79 189.46,-223.1 185.37,-228.78"/>
</g>
</g>
</svg>
