<?xml version="1.0" encoding="UTF-8" standalone="no"?>
<!DOCTYPE svg PUBLIC "-//W3C//DTD SVG 1.1//EN"
 "http://www.w3.org/Graphics/SVG/1.1/DTD/svg11.dtd">
<!-- Generated by graphviz version 2.38.0 (20140413.2041)
 -->
<!-- Title: %3 Pages: 1 -->
<svg width="1597pt" height="890pt"
 viewBox="0.00 0.00 1597.00 890.00" xmlns="http://www.w3.org/2000/svg" xmlns:xlink="http://www.w3.org/1999/xlink">
<g id="graph0" class="graph" transform="scale(1 1) rotate(0) translate(4 886)">
<title>%3</title>
<polygon fill="white" stroke="none" points="-4,4 -4,-886 1593,-886 1593,4 -4,4"/>
<g id="clust1" class="cluster"><title>cluster_box</title>
<polygon fill="none" stroke="black" stroke-width="0.1" points="8,-8 8,-874 1581,-874 1581,-8 8,-8"/>
</g>
<!-- start -->
<g id="node1" class="node"><title>start</title>
<ellipse fill="#ffffcd" stroke="black" stroke-width="0.1" cx="232" cy="-404" rx="216" ry="36"/>
<text text-anchor="middle" x="232" y="-400.2" font-family="Microsoft YaHei" font-size="16.00">Apache Airflow Tutorial</text>
</g>
<!-- running -->
<g id="node2" class="node"><title>running</title>
<path fill="none" stroke="black" d="M904,-183C904,-183 496,-183 496,-183 490,-183 484,-177 484,-171 484,-171 484,-123 484,-123 484,-117 490,-111 496,-111 496,-111 904,-111 904,-111 910,-111 916,-117 916,-123 916,-123 916,-171 916,-171 916,-177 910,-183 904,-183"/>
<text text-anchor="middle" x="700" y="-143.2" font-family="Microsoft YaHei" font-size="16.00">Running the Script</text>
</g>
<!-- start&#45;&gt;running -->
<g id="edge1" class="edge"><title>start&#45;&gt;running</title>
<path fill="none" stroke="black" d="M286.946,-369.022C337.179,-336.957 414.542,-288.853 484,-251 526.421,-227.882 574.763,-204.264 614.851,-185.39"/>
<polygon fill="black" stroke="black" points="619.697,-183.113 616.129,-187.276 617.435,-184.176 615.172,-185.239 615.172,-185.239 615.172,-185.239 617.435,-184.176 614.215,-183.203 619.697,-183.113 619.697,-183.113"/>
</g>
<!-- command -->
<g id="node3" class="node"><title>command</title>
<path fill="none" stroke="black" d="M904,-341C904,-341 496,-341 496,-341 490,-341 484,-335 484,-329 484,-329 484,-281 484,-281 484,-275 490,-269 496,-269 496,-269 904,-269 904,-269 910,-269 916,-275 916,-281 916,-281 916,-329 916,-329 916,-335 910,-341 904,-341"/>
<text text-anchor="middle" x="700" y="-301.2" font-family="Microsoft YaHei" font-size="16.00">Command Line Metadata Validation</text>
</g>
<!-- start&#45;&gt;command -->
<g id="edge2" class="edge"><title>start&#45;&gt;command</title>
<path fill="none" stroke="black" d="M366.225,-375.697C415.474,-365.234 472.056,-353.214 524.427,-342.087"/>
<polygon fill="black" stroke="black" points="529.482,-341.014 525.059,-344.254 527.036,-341.533 524.591,-342.053 524.591,-342.053 524.591,-342.053 527.036,-341.533 524.123,-339.852 529.482,-341.014 529.482,-341.014"/>
</g>
<!-- test -->
<g id="node4" class="node"><title>test</title>
<path fill="none" stroke="black" d="M904,-540C904,-540 496,-540 496,-540 490,-540 484,-534 484,-528 484,-528 484,-480 484,-480 484,-474 490,-468 496,-468 496,-468 904,-468 904,-468 910,-468 916,-474 916,-480 916,-480 916,-528 916,-528 916,-534 910,-540 904,-540"/>
<text text-anchor="middle" x="700" y="-500.2" font-family="Microsoft YaHei" font-size="16.00">Testing</text>
</g>
<!-- start&#45;&gt;test -->
<g id="edge3" class="edge"><title>start&#45;&gt;test</title>
<path fill="none" stroke="black" d="M365.29,-432.389C415.209,-443.101 472.765,-455.452 525.87,-466.848"/>
<polygon fill="black" stroke="black" points="530.995,-467.947 525.634,-469.098 528.55,-467.423 526.106,-466.898 526.106,-466.898 526.106,-466.898 528.55,-467.423 526.578,-464.698 530.995,-467.947 530.995,-467.947"/>
</g>
<!-- backfill -->
<g id="node5" class="node"><title>backfill</title>
<path fill="none" stroke="black" d="M904,-757C904,-757 496,-757 496,-757 490,-757 484,-751 484,-745 484,-745 484,-697 484,-697 484,-691 490,-685 496,-685 496,-685 904,-685 904,-685 910,-685 916,-691 916,-697 916,-697 916,-745 916,-745 916,-751 910,-757 904,-757"/>
<text text-anchor="middle" x="700" y="-717.2" font-family="Microsoft YaHei" font-size="16.00">Backfill</text>
</g>
<!-- start&#45;&gt;backfill -->
<g id="edge4" class="edge"><title>start&#45;&gt;backfill</title>
<path fill="none" stroke="black" d="M284.651,-439.136C372.476,-498.88 550.264,-619.821 641.755,-682.058"/>
<polygon fill="black" stroke="black" points="646.045,-684.977 640.646,-684.025 643.978,-683.571 641.911,-682.165 641.911,-682.165 641.911,-682.165 643.978,-683.571 643.177,-680.304 646.045,-684.977 646.045,-684.977"/>
</g>
<!-- running_doc -->
<g id="node6" class="node"><title>running_doc</title>
<polygon fill="#ccffcc" stroke="black" stroke-width="0.1" points="1478.5,-88 1046.5,-88 1046.5,-16 1478.5,-16 1478.5,-88"/>
<text text-anchor="start" x="1053.5" y="-38.7" font-family="Microsoft YaHei" font-size="16.00">python ~/airflow/dags/tutorial.py</text>
</g>
<!-- running&#45;&gt;running_doc -->
<g id="edge5" class="edge"><title>running&#45;&gt;running_doc</title>
<path fill="none" stroke="black" d="M913.7,-110.949C956.342,-103.722 1001.2,-96.1181 1044.01,-88.8634"/>
<polygon fill="black" stroke="black" points="1048.94,-88.0263 1044.39,-91.0803 1046.48,-88.4441 1044.02,-88.8619 1044.02,-88.8619 1044.02,-88.8619 1046.48,-88.4441 1043.64,-86.6435 1048.94,-88.0263 1048.94,-88.0263"/>
</g>
<!-- command_doc -->
<g id="node7" class="node"><title>command_doc</title>
<polygon fill="#ccffcc" stroke="black" stroke-width="0.1" points="1478.5,-396 1046.5,-396 1046.5,-124 1478.5,-124 1478.5,-396"/>
<text text-anchor="start" x="1053.5" y="-338.2" font-family="Microsoft YaHei" font-size="16.00"># initialize the database tables</text>
<text text-anchor="start" x="1053.5" y="-320.2" font-family="Microsoft YaHei" font-size="16.00">airflow db init</text>
<text text-anchor="start" x="1053.5" y="-283.2" font-family="Microsoft YaHei" font-size="16.00"># print the list of active DAGs</text>
<text text-anchor="start" x="1053.5" y="-265.2" font-family="Microsoft YaHei" font-size="16.00">airflow dags list</text>
<text text-anchor="start" x="1053.5" y="-228.2" font-family="Microsoft YaHei" font-size="16.00"># prints the list of tasks in the &quot;tutorial&quot; DAG</text>
<text text-anchor="start" x="1053.5" y="-210.2" font-family="Microsoft YaHei" font-size="16.00">airflow tasks list tutorial</text>
<text text-anchor="start" x="1053.5" y="-173.2" font-family="Microsoft YaHei" font-size="16.00"># prints the hierarchy of tasks in the &quot;tutorial&quot; DAG</text>
<text text-anchor="start" x="1053.5" y="-155.2" font-family="Microsoft YaHei" font-size="16.00">airflow tasks list tutorial &#45;&#45;tree</text>
</g>
<!-- command&#45;&gt;command_doc -->
<g id="edge6" class="edge"><title>command&#45;&gt;command_doc</title>
<path fill="none" stroke="black" d="M916.101,-287.731C957.04,-284.444 999.943,-280.999 1041.05,-277.699"/>
<polygon fill="black" stroke="black" points="1046.05,-277.298 1041.24,-279.941 1043.56,-277.498 1041.06,-277.698 1041.06,-277.698 1041.06,-277.698 1043.56,-277.498 1040.88,-275.455 1046.05,-277.298 1046.05,-277.298"/>
</g>
<!-- test_doc -->
<g id="node8" class="node"><title>test_doc</title>
<polygon fill="#ccffcc" stroke="black" stroke-width="0.1" points="1511.5,-667.5 1013.5,-667.5 1013.5,-432.5 1511.5,-432.5 1511.5,-667.5"/>
<text text-anchor="start" x="1020.5" y="-609.7" font-family="Microsoft YaHei" font-size="16.00"># command layout: command subcommand dag_id task_id date</text>
<text text-anchor="start" x="1020.5" y="-572.7" font-family="Microsoft YaHei" font-size="16.00"># testing print_date</text>
<text text-anchor="start" x="1020.5" y="-554.7" font-family="Microsoft YaHei" font-size="16.00">airflow tasks test tutorial print_date 2015&#45;06&#45;01</text>
<text text-anchor="start" x="1020.5" y="-517.7" font-family="Microsoft YaHei" font-size="16.00"># testing sleep</text>
<text text-anchor="start" x="1020.5" y="-499.7" font-family="Microsoft YaHei" font-size="16.00">airflow tasks test tutorial sleep 2015&#45;06&#45;01</text>
<text text-anchor="start" x="1020.5" y="-481.7" font-family="Microsoft YaHei" font-size="16.00"># testing templated</text>
<text text-anchor="start" x="1020.5" y="-463.7" font-family="Microsoft YaHei" font-size="16.00">airflow tasks test tutorial templated 2015&#45;06&#45;01</text>
</g>
<!-- test&#45;&gt;test_doc -->
<g id="edge7" class="edge"><title>test&#45;&gt;test_doc</title>
<path fill="none" stroke="black" d="M916.101,-521.653C946.16,-524.12 977.278,-526.674 1007.96,-529.192"/>
<polygon fill="black" stroke="black" points="1013.29,-529.629 1008.12,-531.463 1010.79,-529.425 1008.3,-529.22 1008.3,-529.22 1008.3,-529.22 1010.79,-529.425 1008.49,-526.978 1013.29,-529.629 1013.29,-529.629"/>
</g>
<!-- backfill_doc -->
<g id="node9" class="node"><title>backfill_doc</title>
<polygon fill="#ccffcc" stroke="black" stroke-width="0.1" points="1573,-866 952,-866 952,-704 1573,-704 1573,-866"/>
<text text-anchor="start" x="959" y="-808.2" font-family="Microsoft YaHei" font-size="16.00"># optional, start a web server in debug mode in the background</text>
<text text-anchor="start" x="959" y="-790.2" font-family="Microsoft YaHei" font-size="16.00"># airflow webserver &#45;&#45;debug &amp;</text>
<text text-anchor="start" x="959" y="-753.2" font-family="Microsoft YaHei" font-size="16.00"># start your backfill on a date range</text>
<text text-anchor="start" x="959" y="-735.2" font-family="Microsoft YaHei" font-size="16.00">airflow dags backfill tutorial &#160;&#160;&#160;&#160;&#45;&#45;start&#45;date 2015&#45;06&#45;01 &#160;&#160;&#160;&#160;&#45;&#45;end&#45;date 2015&#45;06&#45;07</text>
</g>
<!-- backfill&#45;&gt;backfill_doc -->
<g id="edge8" class="edge"><title>backfill&#45;&gt;backfill_doc</title>
<path fill="none" stroke="black" d="M916.101,-745.561C926.183,-746.712 936.383,-747.877 946.647,-749.049"/>
<polygon fill="black" stroke="black" points="951.69,-749.625 946.467,-751.293 949.206,-749.341 946.722,-749.057 946.722,-749.057 946.722,-749.057 949.206,-749.341 946.978,-746.822 951.69,-749.625 951.69,-749.625"/>
</g>
</g>
</svg>
