<?xml version="1.0" encoding="UTF-8" standalone="no"?>
<!DOCTYPE svg PUBLIC "-//W3C//DTD SVG 1.1//EN"
 "http://www.w3.org/Graphics/SVG/1.1/DTD/svg11.dtd">
<!-- Generated by graphviz version 2.38.0 (20140413.2041)
 -->
<!-- Title: %3 Pages: 1 -->
<svg width="1381pt" height="2263pt"
 viewBox="0.00 0.00 1381.00 2263.00" xmlns="http://www.w3.org/2000/svg" xmlns:xlink="http://www.w3.org/1999/xlink">
<g id="graph0" class="graph" transform="scale(1 1) rotate(0) translate(4 2259)">
<title>%3</title>
<polygon fill="white" stroke="none" points="-4,4 -4,-2259 1377,-2259 1377,4 -4,4"/>
<!-- Concepts -->
<g id="node1" class="node"><title>Concepts</title>
<polygon fill="#ccffcc" stroke="black" stroke-width="0.1" points="144,-477 0,-477 0,-434 144,-434 144,-477"/>
<text text-anchor="middle" x="72" y="-451.7" font-family="Microsoft YaHei" font-size="16.00">Concepts</text>
</g>
<!-- Architecture -->
<g id="node2" class="node"><title>Architecture</title>
<polygon fill="#ccffcc" stroke="black" stroke-width="0.1" points="324,-477 180,-477 180,-434 324,-434 324,-477"/>
<text text-anchor="middle" x="252" y="-451.7" font-family="Microsoft YaHei" font-size="16.00">Architecture</text>
</g>
<!-- Concepts&#45;&gt;Architecture -->
<g id="edge1" class="edge"><title>Concepts&#45;&gt;Architecture</title>
<path fill="none" stroke="black" d="M144.118,-455.5C154.27,-455.5 164.747,-455.5 174.989,-455.5"/>
<polygon fill="black" stroke="black" points="179.995,-455.5 174.995,-457.75 177.495,-455.5 174.995,-455.5 174.995,-455.5 174.995,-455.5 177.495,-455.5 174.995,-453.25 179.995,-455.5 179.995,-455.5"/>
</g>
<!-- Workloads -->
<g id="node3" class="node"><title>Workloads</title>
<polygon fill="#ccffcc" stroke="black" stroke-width="0.1" points="504,-556 360,-556 360,-513 504,-513 504,-556"/>
<text text-anchor="middle" x="432" y="-530.7" font-family="Microsoft YaHei" font-size="16.00">Workloads</text>
</g>
<!-- Architecture&#45;&gt;Workloads -->
<g id="edge2" class="edge"><title>Architecture&#45;&gt;Workloads</title>
<path fill="none" stroke="black" d="M325,-455.5C325,-455.5 341.589,-480.699 360,-495.5 366.535,-500.754 373.878,-505.676 381.297,-510.136"/>
<polygon fill="black" stroke="black" points="385.92,-512.852 380.469,-512.259 383.765,-511.586 381.609,-510.319 381.609,-510.319 381.609,-510.319 383.765,-511.586 382.749,-508.379 385.92,-512.852 385.92,-512.852"/>
</g>
<!-- Control Flow -->
<g id="node4" class="node"><title>Control Flow</title>
<polygon fill="#ccffcc" stroke="black" stroke-width="0.1" points="504,-477 360,-477 360,-434 504,-434 504,-477"/>
<text text-anchor="middle" x="432" y="-451.7" font-family="Microsoft YaHei" font-size="16.00">Control Flow</text>
</g>
<!-- Architecture&#45;&gt;Control Flow -->
<g id="edge3" class="edge"><title>Architecture&#45;&gt;Control Flow</title>
<path fill="none" stroke="black" d="M325,-455.5C325,-455.5 337.758,-455.5 354.421,-455.5"/>
<polygon fill="black" stroke="black" points="359.708,-455.5 354.708,-457.75 357.208,-455.5 354.708,-455.5 354.708,-455.5 354.708,-455.5 357.208,-455.5 354.708,-453.25 359.708,-455.5 359.708,-455.5"/>
</g>
<!-- User interface -->
<g id="node5" class="node"><title>User interface</title>
<polygon fill="#ccffcc" stroke="black" stroke-width="0.1" points="504,-398 360,-398 360,-355 504,-355 504,-398"/>
<text text-anchor="middle" x="432" y="-372.7" font-family="Microsoft YaHei" font-size="16.00">User interface</text>
</g>
<!-- Architecture&#45;&gt;User interface -->
<g id="edge4" class="edge"><title>Architecture&#45;&gt;User interface</title>
<path fill="none" stroke="black" d="M325,-455.5C325,-455.5 341.835,-431.076 360,-416.5 367.076,-410.822 375.062,-405.479 383.058,-400.659"/>
<polygon fill="black" stroke="black" points="387.495,-398.036 384.336,-402.517 385.343,-399.308 383.191,-400.58 383.191,-400.58 383.191,-400.58 385.343,-399.308 382.046,-398.643 387.495,-398.036 387.495,-398.036"/>
</g>
<!-- DAGs -->
<g id="node6" class="node"><title>DAGs</title>
<polygon fill="#caad73" stroke="black" stroke-width="0.1" points="831,-1781 651,-1781 651,-1738 831,-1738 831,-1781"/>
<text text-anchor="middle" x="741" y="-1755.7" font-family="Microsoft YaHei" font-size="16.00">DAGs</text>
</g>
<!-- Workloads&#45;&gt;DAGs -->
<g id="edge5" class="edge"><title>Workloads&#45;&gt;DAGs</title>
<path fill="none" stroke="black" d="M505,-537.5C505,-537.5 519.24,-693.265 540,-816.5 601.576,-1182.02 706.309,-1620.92 733.431,-1732.63"/>
<polygon fill="black" stroke="black" points="734.664,-1737.7 731.297,-1733.37 734.073,-1735.27 733.483,-1732.84 733.483,-1732.84 733.483,-1732.84 734.073,-1735.27 735.669,-1732.31 734.664,-1737.7 734.664,-1737.7"/>
</g>
<!-- DAG Dependencies -->
<g id="node7" class="node"><title>DAG Dependencies</title>
<polygon fill="#caad73" stroke="black" stroke-width="0.1" points="831,-1070 651,-1070 651,-1027 831,-1027 831,-1070"/>
<text text-anchor="middle" x="741" y="-1044.7" font-family="Microsoft YaHei" font-size="16.00">DAG Dependencies</text>
</g>
<!-- Workloads&#45;&gt;DAG Dependencies -->
<g id="edge6" class="edge"><title>Workloads&#45;&gt;DAG Dependencies</title>
<path fill="none" stroke="black" d="M505,-537.5C505,-537.5 504.03,-846.353 651,-1009.5 656.046,-1015.1 662.042,-1019.94 668.503,-1024.1"/>
<polygon fill="black" stroke="black" points="673.044,-1026.88 667.605,-1026.19 670.911,-1025.57 668.778,-1024.27 668.778,-1024.27 668.778,-1024.27 670.911,-1025.57 669.952,-1022.35 673.044,-1026.88 673.044,-1026.88"/>
</g>
<!-- Tasks -->
<g id="node8" class="node"><title>Tasks</title>
<polygon fill="#caad73" stroke="black" stroke-width="0.1" points="831,-991 651,-991 651,-948 831,-948 831,-991"/>
<text text-anchor="middle" x="741" y="-965.7" font-family="Microsoft YaHei" font-size="16.00">Tasks</text>
</g>
<!-- Workloads&#45;&gt;Tasks -->
<g id="edge7" class="edge"><title>Workloads&#45;&gt;Tasks</title>
<path fill="none" stroke="black" d="M505,-537.5C505,-537.5 520.523,-592.475 540,-633.5 597.461,-754.53 685.192,-888.645 722.37,-943.737"/>
<polygon fill="black" stroke="black" points="725.171,-947.881 720.507,-944.999 723.771,-945.809 722.371,-943.738 722.371,-943.738 722.371,-943.738 723.771,-945.809 724.234,-942.478 725.171,-947.881 725.171,-947.881"/>
</g>
<!-- Operators -->
<g id="node9" class="node"><title>Operators</title>
<polygon fill="#caad73" stroke="black" stroke-width="0.1" points="831,-754 651,-754 651,-711 831,-711 831,-754"/>
<text text-anchor="middle" x="741" y="-728.7" font-family="Microsoft YaHei" font-size="16.00">Operators</text>
</g>
<!-- Workloads&#45;&gt;Operators -->
<g id="edge8" class="edge"><title>Workloads&#45;&gt;Operators</title>
<path fill="none" stroke="black" d="M505,-537.5C505,-537.5 518.419,-579.24 540,-605.5 579.972,-654.138 597.056,-661.042 651,-693.5 660.151,-699.006 670.218,-704.174 680.189,-708.834"/>
<polygon fill="black" stroke="black" points="684.76,-710.938 679.277,-710.891 682.489,-709.893 680.218,-708.847 680.218,-708.847 680.218,-708.847 682.489,-709.893 681.159,-706.803 684.76,-710.938 684.76,-710.938"/>
</g>
<!-- Sensors -->
<g id="node10" class="node"><title>Sensors</title>
<polygon fill="#caad73" stroke="black" stroke-width="0.1" points="831,-675 651,-675 651,-632 831,-632 831,-675"/>
<text text-anchor="middle" x="741" y="-649.7" font-family="Microsoft YaHei" font-size="16.00">Sensors</text>
</g>
<!-- Workloads&#45;&gt;Sensors -->
<g id="edge9" class="edge"><title>Workloads&#45;&gt;Sensors</title>
<path fill="none" stroke="black" d="M505,-537.5C505,-537.5 520.605,-564.015 540,-577.5 573.565,-600.837 615.235,-618.155 651.838,-630.316"/>
<polygon fill="black" stroke="black" points="656.736,-631.923 651.284,-632.503 654.361,-631.144 651.985,-630.365 651.985,-630.365 651.985,-630.365 654.361,-631.144 652.687,-628.227 656.736,-631.923 656.736,-631.923"/>
</g>
<!-- Smart Sensors -->
<g id="node11" class="node"><title>Smart Sensors</title>
<polygon fill="#caad73" stroke="black" stroke-width="0.1" points="831,-596 651,-596 651,-553 831,-553 831,-596"/>
<text text-anchor="middle" x="741" y="-570.7" font-family="Microsoft YaHei" font-size="16.00">Smart Sensors</text>
</g>
<!-- Workloads&#45;&gt;Smart Sensors -->
<g id="edge10" class="edge"><title>Workloads&#45;&gt;Smart Sensors</title>
<path fill="none" stroke="black" d="M505,-537.5C505,-537.5 523.979,-545.794 540,-549.5 573.979,-557.36 611.815,-562.889 645.355,-566.711"/>
<polygon fill="black" stroke="black" points="650.7,-567.31 645.48,-568.989 648.215,-567.032 645.731,-566.753 645.731,-566.753 645.731,-566.753 648.215,-567.032 645.981,-564.517 650.7,-567.31 650.7,-567.31"/>
</g>
<!-- TaskFlow -->
<g id="node12" class="node"><title>TaskFlow</title>
<polygon fill="#caad73" stroke="black" stroke-width="0.1" points="831,-517 651,-517 651,-474 831,-474 831,-517"/>
<text text-anchor="middle" x="741" y="-491.7" font-family="Microsoft YaHei" font-size="16.00">TaskFlow</text>
</g>
<!-- Workloads&#45;&gt;TaskFlow -->
<g id="edge11" class="edge"><title>Workloads&#45;&gt;TaskFlow</title>
<path fill="none" stroke="black" d="M505,-537.5C505,-537.5 580.364,-524.031 645.734,-512.347"/>
<polygon fill="black" stroke="black" points="650.821,-511.438 646.295,-514.533 648.36,-511.878 645.899,-512.318 645.899,-512.318 645.899,-512.318 648.36,-511.878 645.504,-510.103 650.821,-511.438 650.821,-511.438"/>
</g>
<!-- Executor -->
<g id="node13" class="node"><title>Executor</title>
<polygon fill="#caad73" stroke="black" stroke-width="0.1" points="831,-438 651,-438 651,-395 831,-395 831,-438"/>
<text text-anchor="middle" x="741" y="-412.7" font-family="Microsoft YaHei" font-size="16.00">Executor</text>
</g>
<!-- Workloads&#45;&gt;Executor -->
<g id="edge12" class="edge"><title>Workloads&#45;&gt;Executor</title>
<path fill="none" stroke="black" d="M505,-537.5C505,-537.5 584.655,-489.739 651,-456.5 661.867,-451.056 673.634,-445.521 684.942,-440.374"/>
<polygon fill="black" stroke="black" points="689.757,-438.194 686.131,-442.306 687.48,-439.225 685.202,-440.257 685.202,-440.257 685.202,-440.257 687.48,-439.225 684.274,-438.207 689.757,-438.194 689.757,-438.194"/>
</g>
<!-- Scheduler -->
<g id="node14" class="node"><title>Scheduler</title>
<polygon fill="#caad73" stroke="black" stroke-width="0.1" points="831,-359 651,-359 651,-316 831,-316 831,-359"/>
<text text-anchor="middle" x="741" y="-333.7" font-family="Microsoft YaHei" font-size="16.00">Scheduler</text>
</g>
<!-- Workloads&#45;&gt;Scheduler -->
<g id="edge13" class="edge"><title>Workloads&#45;&gt;Scheduler</title>
<path fill="none" stroke="black" d="M505,-537.5C505,-537.5 573.03,-433.962 651,-377.5 659.254,-371.523 668.543,-366.146 677.925,-361.418"/>
<polygon fill="black" stroke="black" points="682.534,-359.149 679.042,-363.376 680.291,-360.253 678.048,-361.357 678.048,-361.357 678.048,-361.357 680.291,-360.253 677.054,-359.339 682.534,-359.149 682.534,-359.149"/>
</g>
<!-- Pools -->
<g id="node15" class="node"><title>Pools</title>
<polygon fill="#caad73" stroke="black" stroke-width="0.1" points="831,-280 651,-280 651,-237 831,-237 831,-280"/>
<text text-anchor="middle" x="741" y="-254.7" font-family="Microsoft YaHei" font-size="16.00">Pools</text>
</g>
<!-- Workloads&#45;&gt;Pools -->
<g id="edge14" class="edge"><title>Workloads&#45;&gt;Pools</title>
<path fill="none" stroke="black" d="M505,-537.5C505,-537.5 557.546,-380.72 651,-298.5 657.868,-292.458 665.799,-287.185 674.038,-282.625"/>
<polygon fill="black" stroke="black" points="678.642,-280.165 675.293,-284.506 676.437,-281.343 674.232,-282.521 674.232,-282.521 674.232,-282.521 676.437,-281.343 673.172,-280.537 678.642,-280.165 678.642,-280.165"/>
</g>
<!-- Priority Weights -->
<g id="node16" class="node"><title>Priority Weights</title>
<polygon fill="#caad73" stroke="black" stroke-width="0.1" points="831,-201 651,-201 651,-158 831,-158 831,-201"/>
<text text-anchor="middle" x="741" y="-175.7" font-family="Microsoft YaHei" font-size="16.00">Priority Weights</text>
</g>
<!-- Workloads&#45;&gt;Priority Weights -->
<g id="edge15" class="edge"><title>Workloads&#45;&gt;Priority Weights</title>
<path fill="none" stroke="black" d="M505,-537.5C505,-537.5 538.98,-327.376 651,-219.5 657.383,-213.353 664.874,-208.048 672.753,-203.497"/>
<polygon fill="black" stroke="black" points="677.166,-201.046 673.888,-205.441 674.981,-202.26 672.795,-203.474 672.795,-203.474 672.795,-203.474 674.981,-202.26 671.702,-201.507 677.166,-201.046 677.166,-201.046"/>
</g>
<!-- Cluster Policies -->
<g id="node17" class="node"><title>Cluster Policies</title>
<polygon fill="#caad73" stroke="black" stroke-width="0.1" points="831,-122 651,-122 651,-79 831,-79 831,-122"/>
<text text-anchor="middle" x="741" y="-96.7" font-family="Microsoft YaHei" font-size="16.00">Cluster Policies</text>
</g>
<!-- Workloads&#45;&gt;Cluster Policies -->
<g id="edge16" class="edge"><title>Workloads&#45;&gt;Cluster Policies</title>
<path fill="none" stroke="black" d="M505,-537.5C505,-537.5 518.854,-274.219 651,-140.5 656.917,-134.513 663.889,-129.343 671.285,-124.899"/>
<polygon fill="black" stroke="black" points="675.939,-122.225 672.725,-126.667 673.771,-123.47 671.604,-124.716 671.604,-124.716 671.604,-124.716 673.771,-123.47 670.483,-122.765 675.939,-122.225 675.939,-122.225"/>
</g>
<!-- Declaring a DAG -->
<g id="node18" class="node"><title>Declaring a DAG</title>
<polygon fill="#db082c" stroke="black" stroke-width="0.1" points="1301.5,-2255 1049.5,-2255 1049.5,-2212 1301.5,-2212 1301.5,-2255"/>
<text text-anchor="middle" x="1175.5" y="-2229.7" font-family="Microsoft YaHei" font-size="16.00">Declaring a DAG</text>
</g>
<!-- DAGs&#45;&gt;Declaring a DAG -->
<g id="edge17" class="edge"><title>DAGs&#45;&gt;Declaring a DAG</title>
<path fill="none" stroke="black" d="M832,-1765.5C832,-1765.5 815.574,-2075.41 978,-2194.5 997.443,-2208.76 1020.76,-2218.15 1044.44,-2224.27"/>
<polygon fill="black" stroke="black" points="1049.49,-2225.53 1044.1,-2226.51 1047.07,-2224.93 1044.64,-2224.32 1044.64,-2224.32 1044.64,-2224.32 1047.07,-2224.93 1045.18,-2222.14 1049.49,-2225.53 1049.49,-2225.53"/>
</g>
<!-- Loading DAGs -->
<g id="node19" class="node"><title>Loading DAGs</title>
<polygon fill="#db082c" stroke="black" stroke-width="0.1" points="1301.5,-2176 1049.5,-2176 1049.5,-2133 1301.5,-2133 1301.5,-2176"/>
<text text-anchor="middle" x="1175.5" y="-2150.7" font-family="Microsoft YaHei" font-size="16.00">Loading DAGs</text>
</g>
<!-- DAGs&#45;&gt;Loading DAGs -->
<g id="edge18" class="edge"><title>DAGs&#45;&gt;Loading DAGs</title>
<path fill="none" stroke="black" d="M832,-1765.5C832,-1765.5 841.113,-2017.16 978,-2115.5 997.515,-2129.52 1020.81,-2138.81 1044.42,-2144.91"/>
<polygon fill="black" stroke="black" points="1049.46,-2146.16 1044.06,-2147.14 1047.03,-2145.56 1044.61,-2144.96 1044.61,-2144.96 1044.61,-2144.96 1047.03,-2145.56 1045.15,-2142.77 1049.46,-2146.16 1049.46,-2146.16"/>
</g>
<!-- Running DAGs -->
<g id="node20" class="node"><title>Running DAGs</title>
<polygon fill="#db082c" stroke="black" stroke-width="0.1" points="1301.5,-2097 1049.5,-2097 1049.5,-2054 1301.5,-2054 1301.5,-2097"/>
<text text-anchor="middle" x="1175.5" y="-2071.7" font-family="Microsoft YaHei" font-size="16.00">Running DAGs</text>
</g>
<!-- DAGs&#45;&gt;Running DAGs -->
<g id="edge19" class="edge"><title>DAGs&#45;&gt;Running DAGs</title>
<path fill="none" stroke="black" d="M832,-1765.5C832,-1765.5 863.57,-1961.51 978,-2036.5 997.826,-2049.49 1021.02,-2058.33 1044.39,-2064.31"/>
<polygon fill="black" stroke="black" points="1049.38,-2065.54 1043.98,-2066.52 1046.95,-2064.94 1044.52,-2064.34 1044.52,-2064.34 1044.52,-2064.34 1046.95,-2064.94 1045.06,-2062.16 1049.38,-2065.54 1049.38,-2065.54"/>
</g>
<!-- DAG Assignment -->
<g id="node21" class="node"><title>DAG Assignment</title>
<polygon fill="#db082c" stroke="black" stroke-width="0.1" points="1301.5,-2018 1049.5,-2018 1049.5,-1975 1301.5,-1975 1301.5,-2018"/>
<text text-anchor="middle" x="1175.5" y="-1992.7" font-family="Microsoft YaHei" font-size="16.00">DAG Assignment</text>
</g>
<!-- DAGs&#45;&gt;DAG Assignment -->
<g id="edge20" class="edge"><title>DAGs&#45;&gt;DAG Assignment</title>
<path fill="none" stroke="black" d="M832,-1765.5C832,-1765.5 844.501,-1815.39 867,-1848.5 905.856,-1905.69 916.868,-1925.2 978,-1957.5 998.455,-1968.31 1021.55,-1976.13 1044.52,-1981.8"/>
<polygon fill="black" stroke="black" points="1049.42,-1982.97 1044.04,-1983.99 1046.99,-1982.39 1044.56,-1981.8 1044.56,-1981.8 1044.56,-1981.8 1046.99,-1982.39 1045.09,-1979.62 1049.42,-1982.97 1049.42,-1982.97"/>
</g>
<!-- Default Arguments -->
<g id="node22" class="node"><title>Default Arguments</title>
<polygon fill="#db082c" stroke="black" stroke-width="0.1" points="1301.5,-1939 1049.5,-1939 1049.5,-1896 1301.5,-1896 1301.5,-1939"/>
<text text-anchor="middle" x="1175.5" y="-1913.7" font-family="Microsoft YaHei" font-size="16.00">Default Arguments</text>
</g>
<!-- DAGs&#45;&gt;Default Arguments -->
<g id="edge21" class="edge"><title>DAGs&#45;&gt;Default Arguments</title>
<path fill="none" stroke="black" d="M832,-1765.5C832,-1765.5 845.658,-1800.9 867,-1820.5 915.428,-1864.97 984.143,-1889.05 1044.34,-1902.09"/>
<polygon fill="black" stroke="black" points="1049.39,-1903.17 1044.03,-1904.33 1046.95,-1902.65 1044.5,-1902.13 1044.5,-1902.13 1044.5,-1902.13 1046.95,-1902.65 1044.97,-1899.93 1049.39,-1903.17 1049.39,-1903.17"/>
</g>
<!-- The DAG decorator -->
<g id="node23" class="node"><title>The DAG decorator</title>
<polygon fill="#db082c" stroke="black" stroke-width="0.1" points="1301.5,-1860 1049.5,-1860 1049.5,-1817 1301.5,-1817 1301.5,-1860"/>
<text text-anchor="middle" x="1175.5" y="-1834.7" font-family="Microsoft YaHei" font-size="16.00">The DAG decorator</text>
</g>
<!-- DAGs&#45;&gt;The DAG decorator -->
<g id="edge22" class="edge"><title>DAGs&#45;&gt;The DAG decorator</title>
<path fill="none" stroke="black" d="M832,-1765.5C832,-1765.5 848.926,-1784.8 867,-1792.5 922.436,-1816.12 987.995,-1827.89 1044.31,-1833.65"/>
<polygon fill="black" stroke="black" points="1049.38,-1834.15 1044.18,-1835.9 1046.89,-1833.91 1044.41,-1833.66 1044.41,-1833.66 1044.41,-1833.66 1046.89,-1833.91 1044.63,-1831.42 1049.38,-1834.15 1049.38,-1834.15"/>
</g>
<!-- Control_Flow -->
<g id="node24" class="node"><title>Control_Flow</title>
<polygon fill="#db082c" stroke="black" stroke-width="0.1" points="1301.5,-1781 1049.5,-1781 1049.5,-1738 1301.5,-1738 1301.5,-1781"/>
<text text-anchor="middle" x="1175.5" y="-1755.7" font-family="Microsoft YaHei" font-size="16.00">Control_Flow</text>
</g>
<!-- DAGs&#45;&gt;Control_Flow -->
<g id="edge23" class="edge"><title>DAGs&#45;&gt;Control_Flow</title>
<path fill="none" stroke="black" d="M832,-1765.5C832,-1765.5 947.39,-1763.48 1044.22,-1761.78"/>
<polygon fill="black" stroke="black" points="1049.4,-1761.69 1044.44,-1764.03 1046.9,-1761.74 1044.4,-1761.78 1044.4,-1761.78 1044.4,-1761.78 1046.9,-1761.74 1044.36,-1759.53 1049.4,-1761.69 1049.4,-1761.69"/>
</g>
<!-- Dynamic DAGs -->
<g id="node25" class="node"><title>Dynamic DAGs</title>
<polygon fill="#db082c" stroke="black" stroke-width="0.1" points="1301.5,-1702 1049.5,-1702 1049.5,-1659 1301.5,-1659 1301.5,-1702"/>
<text text-anchor="middle" x="1175.5" y="-1676.7" font-family="Microsoft YaHei" font-size="16.00">Dynamic DAGs</text>
</g>
<!-- DAGs&#45;&gt;Dynamic DAGs -->
<g id="edge24" class="edge"><title>DAGs&#45;&gt;Dynamic DAGs</title>
<path fill="none" stroke="black" d="M832,-1765.5C832,-1765.5 912.208,-1737.29 978,-1720.5 1002.43,-1714.26 1028.76,-1708.36 1053.97,-1703.09"/>
<polygon fill="black" stroke="black" points="1058.99,-1702.04 1054.56,-1705.26 1056.55,-1702.55 1054.1,-1703.06 1054.1,-1703.06 1054.1,-1703.06 1056.55,-1702.55 1053.64,-1700.86 1058.99,-1702.04 1058.99,-1702.04"/>
</g>
<!-- DAG Visualization -->
<g id="node26" class="node"><title>DAG Visualization</title>
<polygon fill="#db082c" stroke="black" stroke-width="0.1" points="1301.5,-1623 1049.5,-1623 1049.5,-1580 1301.5,-1580 1301.5,-1623"/>
<text text-anchor="middle" x="1175.5" y="-1597.7" font-family="Microsoft YaHei" font-size="16.00">DAG Visualization</text>
</g>
<!-- DAGs&#45;&gt;DAG Visualization -->
<g id="edge25" class="edge"><title>DAGs&#45;&gt;DAG Visualization</title>
<path fill="none" stroke="black" d="M832,-1765.5C832,-1765.5 901.433,-1678.72 978,-1641.5 998.608,-1631.48 1021.61,-1623.97 1044.41,-1618.34"/>
<polygon fill="black" stroke="black" points="1049.27,-1617.17 1044.94,-1620.53 1046.84,-1617.75 1044.41,-1618.34 1044.41,-1618.34 1044.41,-1618.34 1046.84,-1617.75 1043.88,-1616.15 1049.27,-1617.17 1049.27,-1617.17"/>
</g>
<!-- DAG &amp; Task Documentation -->
<g id="node27" class="node"><title>DAG &amp; Task Documentation</title>
<polygon fill="#db082c" stroke="black" stroke-width="0.1" points="1301.5,-1544 1049.5,-1544 1049.5,-1501 1301.5,-1501 1301.5,-1544"/>
<text text-anchor="middle" x="1175.5" y="-1518.7" font-family="Microsoft YaHei" font-size="16.00">DAG &amp; Task Documentation</text>
</g>
<!-- DAGs&#45;&gt;DAG &amp; Task Documentation -->
<g id="edge26" class="edge"><title>DAGs&#45;&gt;DAG &amp; Task Documentation</title>
<path fill="none" stroke="black" d="M832,-1765.5C832,-1765.5 884.65,-1622.8 978,-1562.5 997.862,-1549.67 1021.02,-1540.83 1044.32,-1534.77"/>
<polygon fill="black" stroke="black" points="1049.29,-1533.52 1044.99,-1536.92 1046.87,-1534.13 1044.44,-1534.74 1044.44,-1534.74 1044.44,-1534.74 1046.87,-1534.13 1043.89,-1532.56 1049.29,-1533.52 1049.29,-1533.52"/>
</g>
<!-- SubDAGs -->
<g id="node28" class="node"><title>SubDAGs</title>
<polygon fill="#db082c" stroke="black" stroke-width="0.1" points="1301.5,-1465 1049.5,-1465 1049.5,-1422 1301.5,-1422 1301.5,-1465"/>
<text text-anchor="middle" x="1175.5" y="-1439.7" font-family="Microsoft YaHei" font-size="16.00">SubDAGs</text>
</g>
<!-- DAGs&#45;&gt;SubDAGs -->
<g id="edge27" class="edge"><title>DAGs&#45;&gt;SubDAGs</title>
<path fill="none" stroke="black" d="M832,-1765.5C832,-1765.5 863.987,-1566.69 978,-1483.5 997.43,-1469.32 1020.68,-1459.89 1044.28,-1453.66"/>
<polygon fill="black" stroke="black" points="1049.32,-1452.38 1045.03,-1455.79 1046.9,-1453 1044.48,-1453.61 1044.48,-1453.61 1044.48,-1453.61 1046.9,-1453 1043.92,-1451.43 1049.32,-1452.38 1049.32,-1452.38"/>
</g>
<!-- Packaging DAGs -->
<g id="node29" class="node"><title>Packaging DAGs</title>
<polygon fill="#db082c" stroke="black" stroke-width="0.1" points="1301.5,-1386 1049.5,-1386 1049.5,-1343 1301.5,-1343 1301.5,-1386"/>
<text text-anchor="middle" x="1175.5" y="-1360.7" font-family="Microsoft YaHei" font-size="16.00">Packaging DAGs</text>
</g>
<!-- DAGs&#45;&gt;Packaging DAGs -->
<g id="edge28" class="edge"><title>DAGs&#45;&gt;Packaging DAGs</title>
<path fill="none" stroke="black" d="M832,-1765.5C832,-1765.5 841.108,-1510.39 978,-1404.5 997.217,-1389.63 1020.56,-1379.9 1044.35,-1373.61"/>
<polygon fill="black" stroke="black" points="1049.43,-1372.32 1045.14,-1375.73 1047.01,-1372.93 1044.59,-1373.55 1044.59,-1373.55 1044.59,-1373.55 1047.01,-1372.93 1044.03,-1371.37 1049.43,-1372.32 1049.43,-1372.32"/>
</g>
<!-- Relationships -->
<g id="node30" class="node"><title>Relationships</title>
<polygon fill="#ced5df" stroke="black" stroke-width="0.1" points="1301.5,-1307 1049.5,-1307 1049.5,-1264 1301.5,-1264 1301.5,-1307"/>
<text text-anchor="middle" x="1175.5" y="-1281.7" font-family="Microsoft YaHei" font-size="16.00">Relationships</text>
</g>
<!-- Tasks&#45;&gt;Relationships -->
<g id="edge29" class="edge"><title>Tasks&#45;&gt;Relationships</title>
<path fill="none" stroke="black" d="M832,-984.5C832,-984.5 865.627,-1174.79 978,-1246.5 997.913,-1259.21 1021.09,-1267.92 1044.4,-1273.86"/>
<polygon fill="black" stroke="black" points="1049.38,-1275.08 1043.98,-1276.07 1046.95,-1274.48 1044.52,-1273.89 1044.52,-1273.89 1044.52,-1273.89 1046.95,-1274.48 1045.06,-1271.7 1049.38,-1275.08 1049.38,-1275.08"/>
</g>
<!-- Task Instances -->
<g id="node31" class="node"><title>Task Instances</title>
<polygon fill="#ced5df" stroke="black" stroke-width="0.1" points="1301.5,-1228 1049.5,-1228 1049.5,-1185 1301.5,-1185 1301.5,-1228"/>
<text text-anchor="middle" x="1175.5" y="-1202.7" font-family="Microsoft YaHei" font-size="16.00">Task Instances</text>
</g>
<!-- Tasks&#45;&gt;Task Instances -->
<g id="edge30" class="edge"><title>Tasks&#45;&gt;Task Instances</title>
<path fill="none" stroke="black" d="M832,-984.5C832,-984.5 844.042,-1034.2 867,-1066.5 905.645,-1120.86 918.446,-1137.47 978,-1167.5 998.512,-1177.84 1021.52,-1185.45 1044.37,-1191.03"/>
<polygon fill="black" stroke="black" points="1049.24,-1192.2 1043.86,-1193.23 1046.81,-1191.62 1044.38,-1191.04 1044.38,-1191.04 1044.38,-1191.04 1046.81,-1191.62 1044.9,-1188.85 1049.24,-1192.2 1049.24,-1192.2"/>
</g>
<!-- Timeouts -->
<g id="node32" class="node"><title>Timeouts</title>
<polygon fill="#ced5df" stroke="black" stroke-width="0.1" points="1301.5,-1149 1049.5,-1149 1049.5,-1106 1301.5,-1106 1301.5,-1149"/>
<text text-anchor="middle" x="1175.5" y="-1123.7" font-family="Microsoft YaHei" font-size="16.00">Timeouts</text>
</g>
<!-- Tasks&#45;&gt;Timeouts -->
<g id="edge31" class="edge"><title>Tasks&#45;&gt;Timeouts</title>
<path fill="none" stroke="black" d="M832,-984.5C832,-984.5 845.301,-1019.87 867,-1038.5 916.216,-1080.76 984.475,-1102.98 1044.18,-1114.66"/>
<polygon fill="black" stroke="black" points="1049.2,-1115.62 1043.86,-1116.89 1046.74,-1115.15 1044.29,-1114.68 1044.29,-1114.68 1044.29,-1114.68 1046.74,-1115.15 1044.71,-1112.47 1049.2,-1115.62 1049.2,-1115.62"/>
</g>
<!-- SLAs -->
<g id="node33" class="node"><title>SLAs</title>
<polygon fill="#ced5df" stroke="black" stroke-width="0.1" points="1301.5,-1070 1049.5,-1070 1049.5,-1027 1301.5,-1027 1301.5,-1070"/>
<text text-anchor="middle" x="1175.5" y="-1044.7" font-family="Microsoft YaHei" font-size="16.00">SLAs</text>
</g>
<!-- Tasks&#45;&gt;SLAs -->
<g id="edge32" class="edge"><title>Tasks&#45;&gt;SLAs</title>
<path fill="none" stroke="black" d="M832,-984.5C832,-984.5 849.011,-1003.3 867,-1010.5 922.622,-1032.78 988.057,-1042.86 1044.23,-1047.15"/>
<polygon fill="black" stroke="black" points="1049.3,-1047.52 1044.14,-1049.4 1046.8,-1047.34 1044.31,-1047.15 1044.31,-1047.15 1044.31,-1047.15 1046.8,-1047.34 1044.47,-1044.91 1049.3,-1047.52 1049.3,-1047.52"/>
</g>
<!-- Special Exceptions -->
<g id="node34" class="node"><title>Special Exceptions</title>
<polygon fill="#ced5df" stroke="black" stroke-width="0.1" points="1301.5,-991 1049.5,-991 1049.5,-948 1301.5,-948 1301.5,-991"/>
<text text-anchor="middle" x="1175.5" y="-965.7" font-family="Microsoft YaHei" font-size="16.00">Special Exceptions</text>
</g>
<!-- Tasks&#45;&gt;Special Exceptions -->
<g id="edge33" class="edge"><title>Tasks&#45;&gt;Special Exceptions</title>
<path fill="none" stroke="black" d="M832,-984.5C832,-984.5 947.39,-979.446 1044.22,-975.206"/>
<polygon fill="black" stroke="black" points="1049.4,-974.979 1044.5,-977.446 1046.9,-975.088 1044.4,-975.198 1044.4,-975.198 1044.4,-975.198 1046.9,-975.088 1044.3,-972.95 1049.4,-974.979 1049.4,-974.979"/>
</g>
<!-- Zombie/Undead Tasks -->
<g id="node35" class="node"><title>Zombie/Undead Tasks</title>
<polygon fill="#ced5df" stroke="black" stroke-width="0.1" points="1301.5,-912 1049.5,-912 1049.5,-869 1301.5,-869 1301.5,-912"/>
<text text-anchor="middle" x="1175.5" y="-886.7" font-family="Microsoft YaHei" font-size="16.00">Zombie/Undead Tasks</text>
</g>
<!-- Tasks&#45;&gt;Zombie/Undead Tasks -->
<g id="edge34" class="edge"><title>Tasks&#45;&gt;Zombie/Undead Tasks</title>
<path fill="none" stroke="black" d="M832,-984.5C832,-984.5 911.463,-949.456 978,-930.5 1000.66,-924.044 1025.08,-918.205 1048.73,-913.109"/>
<polygon fill="black" stroke="black" points="1053.77,-912.033 1049.35,-915.278 1051.33,-912.555 1048.88,-913.078 1048.88,-913.078 1048.88,-913.078 1051.33,-912.555 1048.41,-910.878 1053.77,-912.033 1053.77,-912.033"/>
</g>
<!-- Executor Configuration -->
<g id="node36" class="node"><title>Executor Configuration</title>
<polygon fill="#ced5df" stroke="black" stroke-width="0.1" points="1301.5,-833 1049.5,-833 1049.5,-790 1301.5,-790 1301.5,-833"/>
<text text-anchor="middle" x="1175.5" y="-807.7" font-family="Microsoft YaHei" font-size="16.00">Executor Configuration</text>
</g>
<!-- Tasks&#45;&gt;Executor Configuration -->
<g id="edge35" class="edge"><title>Tasks&#45;&gt;Executor Configuration</title>
<path fill="none" stroke="black" d="M832,-984.5C832,-984.5 899.735,-891.239 978,-851.5 998.576,-841.052 1021.67,-833.333 1044.6,-827.631"/>
<polygon fill="black" stroke="black" points="1049.49,-826.444 1045.16,-829.81 1047.06,-827.034 1044.63,-827.623 1044.63,-827.623 1044.63,-827.623 1047.06,-827.034 1044.1,-825.437 1049.49,-826.444 1049.49,-826.444"/>
</g>
<!-- Jinja Templating -->
<g id="node37" class="node"><title>Jinja Templating</title>
<polygon fill="#0052c0" stroke="black" stroke-width="0.1" points="1301.5,-754 1049.5,-754 1049.5,-711 1301.5,-711 1301.5,-754"/>
<text text-anchor="middle" x="1175.5" y="-728.7" font-family="Microsoft YaHei" font-size="16.00">Jinja Templating</text>
</g>
<!-- Operators&#45;&gt;Jinja Templating -->
<g id="edge36" class="edge"><title>Operators&#45;&gt;Jinja Templating</title>
<path fill="none" stroke="black" d="M831.09,-732.5C892.546,-732.5 975.253,-732.5 1044.1,-732.5"/>
<polygon fill="black" stroke="black" points="1049.45,-732.5 1044.45,-734.75 1046.95,-732.5 1044.45,-732.5 1044.45,-732.5 1044.45,-732.5 1046.95,-732.5 1044.45,-730.25 1049.45,-732.5 1049.45,-732.5"/>
</g>
<!-- Enable/Disable Smart Sensor -->
<g id="node38" class="node"><title>Enable/Disable Smart Sensor</title>
<polygon fill="#bfae5a" stroke="black" stroke-width="0.1" points="1301.5,-675 1049.5,-675 1049.5,-632 1301.5,-632 1301.5,-675"/>
<text text-anchor="middle" x="1175.5" y="-649.7" font-family="Microsoft YaHei" font-size="16.00">Enable/Disable Smart Sensor</text>
</g>
<!-- Smart Sensors&#45;&gt;Enable/Disable Smart Sensor -->
<g id="edge37" class="edge"><title>Smart Sensors&#45;&gt;Enable/Disable Smart Sensor</title>
<path fill="none" stroke="black" d="M832,-582.5C832,-582.5 848.902,-601.857 867,-609.5 922.459,-632.921 988.021,-644.283 1044.33,-649.649"/>
<polygon fill="black" stroke="black" points="1049.4,-650.119 1044.22,-651.898 1046.91,-649.888 1044.42,-649.658 1044.42,-649.658 1044.42,-649.658 1046.91,-649.888 1044.63,-647.417 1049.4,-650.119 1049.4,-650.119"/>
</g>
<!-- Support new operators in the smart sensor service -->
<g id="node39" class="node"><title>Support new operators in the smart sensor service</title>
<polygon fill="#bfae5a" stroke="black" stroke-width="0.1" points="1373,-596 978,-596 978,-553 1373,-553 1373,-596"/>
<text text-anchor="middle" x="1175.5" y="-570.7" font-family="Microsoft YaHei" font-size="16.00">Support new operators in the smart sensor service</text>
</g>
<!-- Smart Sensors&#45;&gt;Support new operators in the smart sensor service -->
<g id="edge38" class="edge"><title>Smart Sensors&#45;&gt;Support new operators in the smart sensor service</title>
<path fill="none" stroke="black" d="M832,-582.5C832,-582.5 898.201,-580.954 972.393,-579.221"/>
<polygon fill="black" stroke="black" points="977.747,-579.096 972.801,-581.462 975.248,-579.154 972.749,-579.213 972.749,-579.213 972.749,-579.213 975.248,-579.154 972.696,-576.963 977.747,-579.096 977.747,-579.096"/>
</g>
<!-- History -->
<g id="node40" class="node"><title>History</title>
<polygon fill="#db082c" stroke="black" stroke-width="0.1" points="1301.5,-517 1049.5,-517 1049.5,-474 1301.5,-474 1301.5,-517"/>
<text text-anchor="middle" x="1175.5" y="-491.7" font-family="Microsoft YaHei" font-size="16.00">History</text>
</g>
<!-- TaskFlow&#45;&gt;History -->
<g id="edge39" class="edge"><title>TaskFlow&#45;&gt;History</title>
<path fill="none" stroke="black" d="M831.09,-495.5C892.546,-495.5 975.253,-495.5 1044.1,-495.5"/>
<polygon fill="black" stroke="black" points="1049.45,-495.5 1044.45,-497.75 1046.95,-495.5 1044.45,-495.5 1044.45,-495.5 1044.45,-495.5 1046.95,-495.5 1044.45,-493.25 1049.45,-495.5 1049.45,-495.5"/>
</g>
<!-- Executor Types -->
<g id="node41" class="node"><title>Executor Types</title>
<polygon fill="#f5fafc" stroke="black" stroke-width="0.1" points="1301.5,-438 1049.5,-438 1049.5,-395 1301.5,-395 1301.5,-438"/>
<text text-anchor="middle" x="1175.5" y="-412.7" font-family="Microsoft YaHei" font-size="16.00">Executor Types</text>
</g>
<!-- Executor&#45;&gt;Executor Types -->
<g id="edge40" class="edge"><title>Executor&#45;&gt;Executor Types</title>
<path fill="none" stroke="black" d="M831.09,-416.5C892.546,-416.5 975.253,-416.5 1044.1,-416.5"/>
<polygon fill="black" stroke="black" points="1049.45,-416.5 1044.45,-418.75 1046.95,-416.5 1044.45,-416.5 1044.45,-416.5 1044.45,-416.5 1046.95,-416.5 1044.45,-414.25 1049.45,-416.5 1049.45,-416.5"/>
</g>
<!-- Triggering DAG with Future Date -->
<g id="node42" class="node"><title>Triggering DAG with Future Date</title>
<polygon fill="#bfae5a" stroke="black" stroke-width="0.1" points="1307.5,-359 1043.5,-359 1043.5,-316 1307.5,-316 1307.5,-359"/>
<text text-anchor="middle" x="1175.5" y="-333.7" font-family="Microsoft YaHei" font-size="16.00">Triggering DAG with Future Date</text>
</g>
<!-- Scheduler&#45;&gt;Triggering DAG with Future Date -->
<g id="edge41" class="edge"><title>Scheduler&#45;&gt;Triggering DAG with Future Date</title>
<path fill="none" stroke="black" d="M832,-329.5C832,-329.5 942.484,-332.081 1037.95,-334.311"/>
<polygon fill="black" stroke="black" points="1043.06,-334.43 1038.01,-336.562 1040.56,-334.371 1038.06,-334.313 1038.06,-334.313 1038.06,-334.313 1040.56,-334.371 1038.11,-332.064 1043.06,-334.43 1043.06,-334.43"/>
</g>
<!-- Running More Than One Scheduler -->
<g id="node43" class="node"><title>Running More Than One Scheduler</title>
<polygon fill="#bfae5a" stroke="black" stroke-width="0.1" points="1316,-280 1035,-280 1035,-237 1316,-237 1316,-280"/>
<text text-anchor="middle" x="1175.5" y="-254.7" font-family="Microsoft YaHei" font-size="16.00">Running More Than One Scheduler</text>
</g>
<!-- Scheduler&#45;&gt;Running More Than One Scheduler -->
<g id="edge42" class="edge"><title>Scheduler&#45;&gt;Running More Than One Scheduler</title>
<path fill="none" stroke="black" d="M832,-329.5C832,-329.5 851.344,-324.089 867,-320.5 928.834,-306.327 998.061,-292.215 1055.15,-281.043"/>
<polygon fill="black" stroke="black" points="1060.29,-280.04 1055.81,-283.207 1057.83,-280.52 1055.38,-280.999 1055.38,-280.999 1055.38,-280.999 1057.83,-280.52 1054.95,-278.791 1060.29,-280.04 1060.29,-280.04"/>
</g>
<!-- Examples -->
<g id="node44" class="node"><title>Examples</title>
<polygon fill="#e5eaed" stroke="black" stroke-width="0.1" points="1301.5,-201 1049.5,-201 1049.5,-158 1301.5,-158 1301.5,-201"/>
<text text-anchor="middle" x="1175.5" y="-175.7" font-family="Microsoft YaHei" font-size="16.00">Examples</text>
</g>
<!-- Cluster Policies&#45;&gt;Examples -->
<g id="edge43" class="edge"><title>Cluster Policies&#45;&gt;Examples</title>
<path fill="none" stroke="black" d="M832,-100.5C832,-100.5 848.807,-120.385 867,-128.5 922.17,-153.107 987.695,-165.952 1044.05,-172.613"/>
<polygon fill="black" stroke="black" points="1049.13,-173.199 1043.91,-174.861 1046.65,-172.912 1044.16,-172.625 1044.16,-172.625 1044.16,-172.625 1046.65,-172.912 1044.42,-170.39 1049.13,-173.199 1049.13,-173.199"/>
</g>
<!-- Task policies -->
<g id="node45" class="node"><title>Task policies</title>
<polygon fill="#e5eaed" stroke="black" stroke-width="0.1" points="1301.5,-122 1049.5,-122 1049.5,-79 1301.5,-79 1301.5,-122"/>
<text text-anchor="middle" x="1175.5" y="-96.7" font-family="Microsoft YaHei" font-size="16.00">Task policies</text>
</g>
<!-- Cluster Policies&#45;&gt;Task policies -->
<g id="edge44" class="edge"><title>Cluster Policies&#45;&gt;Task policies</title>
<path fill="none" stroke="black" d="M832,-100.5C832,-100.5 947.39,-100.5 1044.22,-100.5"/>
<polygon fill="black" stroke="black" points="1049.4,-100.5 1044.4,-102.75 1046.9,-100.5 1044.4,-100.5 1044.4,-100.5 1044.4,-100.5 1046.9,-100.5 1044.4,-98.2501 1049.4,-100.5 1049.4,-100.5"/>
</g>
<!-- Task instance mutation -->
<g id="node46" class="node"><title>Task instance mutation</title>
<polygon fill="#e5eaed" stroke="black" stroke-width="0.1" points="1301.5,-43 1049.5,-43 1049.5,-0 1301.5,-0 1301.5,-43"/>
<text text-anchor="middle" x="1175.5" y="-17.7" font-family="Microsoft YaHei" font-size="16.00">Task instance mutation</text>
</g>
<!-- Cluster Policies&#45;&gt;Task instance mutation -->
<g id="edge45" class="edge"><title>Cluster Policies&#45;&gt;Task instance mutation</title>
<path fill="none" stroke="black" d="M832,-100.5C832,-100.5 912.619,-76.8723 978,-61.5 1003.76,-55.4427 1031.55,-49.4557 1057.89,-44.0314"/>
<polygon fill="black" stroke="black" points="1062.79,-43.0252 1058.35,-46.2349 1060.34,-43.528 1057.9,-44.0309 1057.9,-44.0309 1057.9,-44.0309 1060.34,-43.528 1057.44,-41.8268 1062.79,-43.0252 1062.79,-43.0252"/>
</g>
</g>
</svg>
