<?xml version="1.0" encoding="UTF-8" standalone="no"?>
<!DOCTYPE svg PUBLIC "-//W3C//DTD SVG 1.1//EN"
 "http://www.w3.org/Graphics/SVG/1.1/DTD/svg11.dtd">
<!-- Generated by graphviz version 2.38.0 (20140413.2041)
 -->
<!-- Title: %3 Pages: 1 -->
<svg width="472pt" height="469pt"
 viewBox="0.00 0.00 472.00 469.00" xmlns="http://www.w3.org/2000/svg" xmlns:xlink="http://www.w3.org/1999/xlink">
<g id="graph0" class="graph" transform="scale(1 1) rotate(0) translate(4 465)">
<title>%3</title>
<polygon fill="white" stroke="none" points="-4,4 -4,-465 468,-465 468,4 -4,4"/>
<g id="clust1" class="cluster"><title>cluster_box</title>
<polygon fill="none" stroke="black" stroke-width="0.1" points="8,-8 8,-453 456,-453 456,-8 8,-8"/>
</g>
<!-- start -->
<g id="node1" class="node"><title>start</title>
<ellipse fill="#ffffcd" stroke="black" stroke-width="0.1" cx="232" cy="-409" rx="216" ry="36"/>
<text text-anchor="middle" x="232" y="-405.2" font-family="Microsoft YaHei" font-size="16.00">Apache Airflow Documentation</text>
</g>
<!-- oneline -->
<g id="node2" class="node"><title>oneline</title>
<polygon fill="#ccffcc" stroke="black" stroke-width="0.1" points="448,-337 16,-337 16,-265 448,-265 448,-337"/>
<text text-anchor="start" x="23" y="-296.7" font-family="Microsoft YaHei" font-size="16.00">Airflow is a platform to programmatically </text>
<text text-anchor="start" x="23" y="-278.7" font-family="Microsoft YaHei" font-size="16.00">author, schedule and monitor workflows.</text>
</g>
<!-- start&#45;&gt;oneline -->
<g id="edge1" class="edge"><title>start&#45;&gt;oneline</title>
<path fill="none" stroke="black" d="M232,-372.998C232,-363.241 232,-352.561 232,-342.515"/>
<polygon fill="black" stroke="black" points="232,-337.328 234.25,-342.327 232,-339.828 232,-342.328 232,-342.328 232,-342.328 232,-339.828 229.75,-342.328 232,-337.328 232,-337.328"/>
</g>
<!-- parag -->
<g id="node3" class="node"><title>parag</title>
<polygon fill="#ccffcc" stroke="black" stroke-width="0.1" points="448,-229 16,-229 16,-16 448,-16 448,-229"/>
<text text-anchor="start" x="23" y="-190.2" font-family="Microsoft YaHei" font-size="16.00">Use Airflow to author workflows as </text>
<text text-anchor="start" x="23" y="-172.2" font-family="Microsoft YaHei" font-size="16.00">Directed Acyclic Graphs (DAGs) of tasks. </text>
<text text-anchor="start" x="23" y="-154.2" font-family="Microsoft YaHei" font-size="16.00">The Airflow scheduler executes your tasks </text>
<text text-anchor="start" x="23" y="-136.2" font-family="Microsoft YaHei" font-size="16.00">on an array of workers while following the </text>
<text text-anchor="start" x="23" y="-118.2" font-family="Microsoft YaHei" font-size="16.00">specified dependencies. Rich command line </text>
<text text-anchor="start" x="23" y="-100.2" font-family="Microsoft YaHei" font-size="16.00">utilities make performing complex surgeries </text>
<text text-anchor="start" x="23" y="-82.2" font-family="Microsoft YaHei" font-size="16.00">on DAGs a snap. The rich user interface </text>
<text text-anchor="start" x="23" y="-64.2" font-family="Microsoft YaHei" font-size="16.00">makes it easy to visualize pipelines </text>
<text text-anchor="start" x="23" y="-46.2" font-family="Microsoft YaHei" font-size="16.00">running in production, monitor progress, </text>
<text text-anchor="start" x="23" y="-28.2" font-family="Microsoft YaHei" font-size="16.00">and troubleshoot issues when needed.</text>
</g>
<!-- oneline&#45;&gt;parag -->
<g id="edge2" class="edge"><title>oneline&#45;&gt;parag</title>
<path fill="none" stroke="black" d="M232,-264.707C232,-255.547 232,-245.179 232,-234.322"/>
<polygon fill="black" stroke="black" points="232,-229.302 234.25,-234.302 232,-231.802 232,-234.302 232,-234.302 232,-234.302 232,-231.802 229.75,-234.302 232,-229.302 232,-229.302"/>
</g>
</g>
</svg>
