<?xml version="1.0" encoding="UTF-8" standalone="no"?>
<!DOCTYPE svg PUBLIC "-//W3C//DTD SVG 1.1//EN"
 "http://www.w3.org/Graphics/SVG/1.1/DTD/svg11.dtd">
<!-- Generated by graphviz version 2.38.0 (20140413.2041)
 -->
<!-- Title: %3 Pages: 1 -->
<svg width="2440pt" height="990pt"
 viewBox="0.00 0.00 2440.00 989.50" xmlns="http://www.w3.org/2000/svg" xmlns:xlink="http://www.w3.org/1999/xlink">
<g id="graph0" class="graph" transform="scale(1 1) rotate(0) translate(4 985.5)">
<title>%3</title>
<polygon fill="white" stroke="none" points="-4,4 -4,-985.5 2436,-985.5 2436,4 -4,4"/>
<g id="clust1" class="cluster"><title>cluster_entry</title>
<polygon fill="#1fbb1f" stroke="black" stroke-width="0.1" points="8,-8 8,-116 1873,-116 1873,-8 8,-8"/>
</g>
<g id="clust2" class="cluster"><title>cluster_runuse</title>
<polygon fill="none" stroke="black" stroke-width="0.1" points="126,-124 126,-555 1245,-555 1245,-124 126,-124"/>
</g>
<!-- create -->
<g id="node1" class="node"><title>create</title>
<polygon fill="#0e0f11" stroke="black" stroke-width="0.1" points="448,-748.5 16,-748.5 16,-583.5 448,-583.5 448,-748.5"/>
<text text-anchor="start" x="23" y="-714.3" font-family="monospace" font-size="14.00" fill="#ffffff">from setuptools import setup, find_packages</text>
<text text-anchor="start" x="23" y="-699.3" font-family="monospace" font-size="14.00" fill="#ffffff">setup(</text>
<text text-anchor="start" x="23" y="-684.3" font-family="monospace" font-size="14.00" fill="#ffffff"> &#160;&#160;&#160;&#160;&#160;name=&quot;fashion&quot;,</text>
<text text-anchor="start" x="23" y="-669.3" font-family="monospace" font-size="14.00" fill="#ffffff"> &#160;&#160;&#160;&#160;&#160;version=&quot;0.0.1&quot;,</text>
<text text-anchor="start" x="23" y="-654.3" font-family="monospace" font-size="14.00" fill="#ffffff"> &#160;&#160;&#160;&#160;&#160;author=&quot;xxx&quot;,</text>
<text text-anchor="start" x="23" y="-639.3" font-family="monospace" font-size="14.00" fill="#ffffff"> &#160;&#160;&#160;&#160;&#160;author_email=&quot;xxxx&quot;,</text>
<text text-anchor="start" x="23" y="-624.3" font-family="monospace" font-size="14.00" fill="#ffffff"> &#160;&#160;&#160;&#160;&#160;url=&quot;xxx&quot;,</text>
<text text-anchor="start" x="23" y="-609.3" font-family="monospace" font-size="14.00" fill="#ffffff"> &#160;&#160;&#160;&#160;&#160;packages = find_packages(&#39;fashion&#39;),</text>
<text text-anchor="start" x="23" y="-594.3" font-family="monospace" font-size="14.00" fill="#ffffff">)</text>
</g>
<!-- project_menu -->
<g id="node2" class="node"><title>project_menu</title>
<polygon fill="#0e0f11" stroke="black" stroke-width="0.1" points="916,-741 484,-741 484,-591 916,-591 916,-741"/>
<text text-anchor="start" x="491" y="-706.8" font-family="monospace" font-size="14.00" fill="#ffffff">.</text>
<text text-anchor="start" x="491" y="-691.8" font-family="monospace" font-size="14.00" fill="#ffffff">├── hello_world</text>
<text text-anchor="start" x="491" y="-676.8" font-family="monospace" font-size="14.00" fill="#ffffff">│ &#160;&#160;├── __init__.py</text>
<text text-anchor="start" x="491" y="-661.8" font-family="monospace" font-size="14.00" fill="#ffffff">│ &#160;&#160;└── tests</text>
<text text-anchor="start" x="491" y="-646.8" font-family="monospace" font-size="14.00" fill="#ffffff">│ &#160;&#160;&#160;&#160;&#160;&#160;└── __init__.py</text>
<text text-anchor="start" x="491" y="-631.8" font-family="monospace" font-size="14.00" fill="#ffffff">├── README.md</text>
<text text-anchor="start" x="491" y="-616.8" font-family="monospace" font-size="14.00" fill="#ffffff">├── setup.cfg</text>
<text text-anchor="start" x="491" y="-601.8" font-family="monospace" font-size="14.00" fill="#ffffff">└── setup.py</text>
</g>
<!-- create&#45;&gt;project_menu -->
<g id="edge7" class="edge"><title>create&#45;&gt;project_menu</title>
<path fill="none" stroke="black" d="M448.267,-666C458.32,-666 468.416,-666 478.482,-666"/>
<polygon fill="black" stroke="black" points="483.742,-666 478.742,-668.25 481.242,-666 478.742,-666 478.742,-666 478.742,-666 481.242,-666 478.742,-663.75 483.742,-666 483.742,-666"/>
</g>
<!-- set_setupcfg -->
<g id="node3" class="node"><title>set_setupcfg</title>
<polygon fill="#0e0f11" stroke="black" stroke-width="0.1" points="1212.5,-592.5 1123.5,-592.5 1123.5,-563.5 1212.5,-563.5 1212.5,-592.5"/>
<text text-anchor="middle" x="1168" y="-574.3" font-family="monospace" font-size="14.00" fill="#ffffff">setup.cfg</text>
</g>
<!-- project_menu&#45;&gt;set_setupcfg -->
<g id="edge10" class="edge"><title>project_menu&#45;&gt;set_setupcfg</title>
<path fill="none" stroke="black" d="M916.127,-617.929C928.248,-615.511 940.268,-613.183 952,-611 1008.72,-600.443 1074.32,-590.733 1118,-584.619"/>
<polygon fill="black" stroke="black" points="1123.21,-583.891 1118.57,-586.81 1120.74,-584.237 1118.26,-584.582 1118.26,-584.582 1118.26,-584.582 1120.74,-584.237 1117.95,-582.354 1123.21,-583.891 1123.21,-583.891"/>
</g>
<!-- MANIFESTin -->
<g id="node4" class="node"><title>MANIFESTin</title>
<polygon fill="#0e0f11" stroke="black" stroke-width="0.1" points="1220.5,-793.5 1115.5,-793.5 1115.5,-764.5 1220.5,-764.5 1220.5,-793.5"/>
<text text-anchor="middle" x="1168" y="-775.3" font-family="monospace" font-size="14.00" fill="#ffffff">MANIFEST.in</text>
</g>
<!-- project_menu&#45;&gt;MANIFESTin -->
<g id="edge11" class="edge"><title>project_menu&#45;&gt;MANIFESTin</title>
<path fill="none" stroke="black" d="M916.003,-728.07C928.156,-731.188 940.217,-734.188 952,-737 1005.43,-749.752 1067.01,-761.484 1110.53,-769.288"/>
<polygon fill="black" stroke="black" points="1115.48,-770.173 1110.16,-771.508 1113.02,-769.733 1110.56,-769.293 1110.56,-769.293 1110.56,-769.293 1113.02,-769.733 1110.96,-767.078 1115.48,-770.173 1115.48,-770.173"/>
</g>
<!-- use_command -->
<g id="node13" class="node"><title>use_command</title>
<polygon fill="#0e0f11" stroke="black" stroke-width="0.1" points="1237,-527.5 1099,-527.5 1099,-498.5 1237,-498.5 1237,-527.5"/>
<text text-anchor="middle" x="1168" y="-509.3" font-family="monospace" font-size="14.00" fill="#ffffff">python setup.py</text>
</g>
<!-- project_menu&#45;&gt;use_command -->
<g id="edge8" class="edge"><title>project_menu&#45;&gt;use_command</title>
<path fill="none" stroke="black" d="M910.296,-590.858C912.22,-589.59 914.122,-588.305 916,-587 936.191,-572.973 930.483,-556.894 952,-545 995.004,-521.229 1049.88,-513.36 1093.43,-511.367"/>
<polygon fill="black" stroke="black" points="1098.68,-511.153 1093.78,-513.605 1096.19,-511.255 1093.69,-511.357 1093.69,-511.357 1093.69,-511.357 1096.19,-511.255 1093.6,-509.109 1098.68,-511.153 1098.68,-511.153"/>
</g>
<!-- run_pdr -->
<g id="node26" class="node"><title>run_pdr</title>
<polygon fill="#0e0f11" stroke="black" stroke-width="0.1" points="1384,-719 952,-719 952,-629 1384,-629 1384,-719"/>
<text text-anchor="start" x="959" y="-684.8" font-family="monospace" font-size="14.00" fill="#ffffff">setup(</text>
<text text-anchor="start" x="959" y="-669.8" font-family="monospace" font-size="14.00" fill="#ffffff"> &#160;&#160;&#160;setup_requires=[&#39;pbr&#39;, &#39;setuptools&#39;],</text>
<text text-anchor="start" x="959" y="-654.8" font-family="monospace" font-size="14.00" fill="#ffffff"> &#160;&#160;&#160;pbr=True,</text>
<text text-anchor="start" x="959" y="-639.8" font-family="monospace" font-size="14.00" fill="#ffffff">)</text>
</g>
<!-- project_menu&#45;&gt;run_pdr -->
<g id="edge9" class="edge"><title>project_menu&#45;&gt;run_pdr</title>
<path fill="none" stroke="black" d="M916.267,-669.696C926.32,-669.868 936.416,-670.041 946.482,-670.214"/>
<polygon fill="black" stroke="black" points="951.742,-670.305 946.704,-672.468 949.242,-670.262 946.743,-670.219 946.743,-670.219 946.743,-670.219 949.242,-670.262 946.781,-667.969 951.742,-670.305 951.742,-670.305"/>
</g>
<!-- setupcfgwarn -->
<g id="node5" class="node"><title>setupcfgwarn</title>
<polygon fill="#ec7259" stroke="black" stroke-width="0.1" points="1726.5,-432.5 1571.5,-432.5 1571.5,-403.5 1726.5,-403.5 1726.5,-432.5"/>
<text text-anchor="middle" x="1649" y="-414.3" font-family="monospace" font-size="14.00" fill="#ffffff">pdr must with git</text>
</g>
<!-- set_setupcfg&#45;&gt;setupcfgwarn -->
<g id="edge12" class="edge"><title>set_setupcfg&#45;&gt;setupcfgwarn</title>
<path fill="none" stroke="black" d="M1212.82,-587.058C1260.23,-594.188 1335.54,-597.393 1384,-559 1423.99,-527.319 1380.84,-482.696 1420,-450 1460.04,-416.572 1518.5,-408.909 1566.2,-409.429"/>
<polygon fill="black" stroke="black" points="1571.37,-409.518 1566.34,-411.682 1568.87,-409.475 1566.38,-409.432 1566.38,-409.432 1566.38,-409.432 1568.87,-409.475 1566.41,-407.182 1571.37,-409.518 1571.37,-409.518"/>
</g>
<!-- conf_setupcfg -->
<g id="node6" class="node"><title>conf_setupcfg</title>
<polygon fill="#0e0f11" stroke="black" stroke-width="0.1" points="1865,-667.5 1433,-667.5 1433,-468.5 1865,-468.5 1865,-667.5"/>
<text text-anchor="start" x="1440" y="-633.3" font-family="monospace" font-size="14.00" fill="#ffffff">[metadata]</text>
<text text-anchor="start" x="1440" y="-618.3" font-family="monospace" font-size="14.00" fill="#ffffff">name = fashion</text>
<text text-anchor="start" x="1440" y="-603.3" font-family="monospace" font-size="14.00" fill="#ffffff">version = 0.0.1</text>
<text text-anchor="start" x="1440" y="-556.3" font-family="monospace" font-size="14.00" fill="#ffffff">[global]</text>
<text text-anchor="start" x="1440" y="-541.3" font-family="monospace" font-size="14.00" fill="#ffffff">setup&#45;hooks = pbr.hooks.setup_hook</text>
<text text-anchor="start" x="1440" y="-494.3" font-family="monospace" font-size="14.00" fill="#ffffff">[files]</text>
<text text-anchor="start" x="1440" y="-479.3" font-family="monospace" font-size="14.00" fill="#ffffff">packages = fashion</text>
</g>
<!-- set_setupcfg&#45;&gt;conf_setupcfg -->
<g id="edge13" class="edge"><title>set_setupcfg&#45;&gt;conf_setupcfg</title>
<path fill="none" stroke="black" d="M1212.78,-577.086C1262.21,-576.054 1346.38,-574.297 1427.6,-572.601"/>
<polygon fill="black" stroke="black" points="1432.95,-572.49 1428,-574.844 1430.45,-572.542 1427.95,-572.594 1427.95,-572.594 1427.95,-572.594 1430.45,-572.542 1427.9,-570.345 1432.95,-572.49 1432.95,-572.49"/>
</g>
<!-- mani_cfg -->
<g id="node9" class="node"><title>mani_cfg</title>
<polygon fill="#0e0f11" stroke="black" stroke-width="0.1" points="1878,-854.5 1420,-854.5 1420,-703.5 1878,-703.5 1878,-854.5"/>
<text text-anchor="start" x="1427" y="-820.3" font-family="monospace" font-size="14.00" fill="#ffffff">#setup.cfg</text>
<text text-anchor="start" x="1427" y="-805.3" font-family="monospace" font-size="14.00" fill="#ffffff">[files]</text>
<text text-anchor="start" x="1427" y="-790.3" font-family="monospace" font-size="14.00" fill="#ffffff">packages = fashion</text>
<text text-anchor="start" x="1427" y="-775.3" font-family="monospace" font-size="14.00" fill="#ffffff"># 假设我们在 etc 下有 fashion.conf 这个配置文件，想要安装到</text>
<text text-anchor="start" x="1427" y="-760.3" font-family="monospace" font-size="14.00" fill="#ffffff"># 系统的 /etc/fashion/ 目录之下</text>
<text text-anchor="start" x="1427" y="-745.3" font-family="monospace" font-size="14.00" fill="#ffffff">#&#45;&#45;prefix=/</text>
<text text-anchor="start" x="1427" y="-730.3" font-family="monospace" font-size="14.00" fill="#ffffff">data_files = /etc/fashion = etc/fashion.conf</text>
</g>
<!-- set_setupcfg&#45;&gt;mani_cfg -->
<g id="edge15" class="edge"><title>set_setupcfg&#45;&gt;mani_cfg</title>
<path fill="none" stroke="black" d="M1212.64,-573.458C1259.55,-570.933 1334.09,-574.012 1384,-611 1413.71,-633.015 1393.08,-660.654 1420,-686 1425.31,-691 1430.93,-695.747 1436.78,-700.252"/>
<polygon fill="black" stroke="black" points="1440.87,-703.332 1435.53,-702.123 1438.88,-701.828 1436.88,-700.325 1436.88,-700.325 1436.88,-700.325 1438.88,-701.828 1438.23,-698.527 1440.87,-703.332 1440.87,-703.332"/>
</g>
<!-- entry_file -->
<g id="node10" class="node"><title>entry_file</title>
<polygon fill="#0e0f11" stroke="black" stroke-width="0.1" points="1865,-107.5 1433,-107.5 1433,-16.5 1865,-16.5 1865,-107.5"/>
<text text-anchor="start" x="1440" y="-73.3" font-family="monospace" font-size="14.00" fill="#ffffff">#fashion/shell.py</text>
<text text-anchor="start" x="1440" y="-58.3" font-family="monospace" font-size="14.00" fill="#ffffff">def main():</text>
<text text-anchor="start" x="1440" y="-43.3" font-family="monospace" font-size="14.00" fill="#ffffff"> &#160;&#160;&#160;print(&quot;Hello World!&quot;)</text>
</g>
<!-- set_setupcfg&#45;&gt;entry_file -->
<g id="edge14" class="edge"><title>set_setupcfg&#45;&gt;entry_file</title>
<path fill="none" stroke="black" d="M1212.81,-587.943C1260.93,-596.073 1337.54,-600.364 1384,-559 1442.98,-506.486 1388.57,-457.447 1420,-385 1466.18,-278.558 1550.78,-171.855 1602.93,-111.645"/>
<polygon fill="black" stroke="black" points="1606.32,-107.747 1604.74,-112.997 1604.68,-109.634 1603.04,-111.521 1603.04,-111.521 1603.04,-111.521 1604.68,-109.634 1601.34,-110.045 1606.32,-107.747 1606.32,-107.747"/>
</g>
<!-- mani_file -->
<g id="node7" class="node"><title>mani_file</title>
<polygon fill="#0e0f11" stroke="black" stroke-width="0.1" points="1865,-981.5 1433,-981.5 1433,-890.5 1865,-890.5 1865,-981.5"/>
<text text-anchor="start" x="1440" y="-947.3" font-family="monospace" font-size="14.00" fill="#ffffff">#MANIFEST.in</text>
<text text-anchor="start" x="1440" y="-932.3" font-family="monospace" font-size="14.00" fill="#ffffff">include scripts/*</text>
<text text-anchor="start" x="1440" y="-917.3" font-family="monospace" font-size="14.00" fill="#ffffff">recursive&#45;include static *.html *.css</text>
</g>
<!-- MANIFESTin&#45;&gt;mani_file -->
<g id="edge16" class="edge"><title>MANIFESTin&#45;&gt;mani_file</title>
<path fill="none" stroke="black" d="M1204.81,-793.557C1253.19,-812.961 1342.33,-847.78 1420,-873 1436.69,-878.42 1454.16,-883.785 1471.69,-888.964"/>
<polygon fill="black" stroke="black" points="1476.63,-890.42 1471.2,-891.166 1474.24,-889.713 1471.84,-889.007 1471.84,-889.007 1471.84,-889.007 1474.24,-889.713 1472.47,-886.849 1476.63,-890.42 1476.63,-890.42"/>
</g>
<!-- MANIFESTin&#45;&gt;mani_cfg -->
<g id="edge17" class="edge"><title>MANIFESTin&#45;&gt;mani_cfg</title>
<path fill="none" stroke="black" d="M1220.72,-779C1268.08,-779 1341.71,-779 1414.59,-779"/>
<polygon fill="black" stroke="black" points="1419.83,-779 1414.83,-781.25 1417.33,-779 1414.83,-779 1414.83,-779 1414.83,-779 1417.33,-779 1414.83,-776.75 1419.83,-779 1419.83,-779"/>
</g>
<!-- mani_use -->
<g id="node8" class="node"><title>mani_use</title>
<polygon fill="#0e0f11" stroke="black" stroke-width="0.1" points="2432,-981.5 1914,-981.5 1914,-890.5 2432,-890.5 2432,-981.5"/>
<text text-anchor="start" x="1921" y="-947.3" font-family="monospace" font-size="14.00" fill="#ffffff">#pkg_resources模块来获取</text>
<text text-anchor="start" x="1921" y="-932.3" font-family="monospace" font-size="14.00" fill="#ffffff">from pkg_resources import resource_stream</text>
<text text-anchor="start" x="1921" y="-917.3" font-family="monospace" font-size="14.00" fill="#ffffff">text = resource_stream(&#39;fashion&#39;,static/fashion.html&#39;).read()</text>
</g>
<!-- mani_file&#45;&gt;mani_use -->
<g id="edge18" class="edge"><title>mani_file&#45;&gt;mani_use</title>
<path fill="none" stroke="black" d="M1865.33,-936C1879.59,-936 1894.03,-936 1908.49,-936"/>
<polygon fill="black" stroke="black" points="1913.81,-936 1908.81,-938.25 1911.31,-936 1908.81,-936 1908.81,-936 1908.81,-936 1911.31,-936 1908.81,-933.75 1913.81,-936 1913.81,-936"/>
</g>
<!-- entry_cfg -->
<g id="node11" class="node"><title>entry_cfg</title>
<polygon fill="#0e0f11" stroke="black" stroke-width="0.1" points="448,-107.5 16,-107.5 16,-16.5 448,-16.5 448,-107.5"/>
<text text-anchor="start" x="23" y="-73.3" font-family="monospace" font-size="14.00" fill="#ffffff">#[entry_points]</text>
<text text-anchor="start" x="23" y="-58.3" font-family="monospace" font-size="14.00" fill="#ffffff">console_scripts =</text>
<text text-anchor="start" x="23" y="-43.3" font-family="monospace" font-size="14.00" fill="#ffffff"> &#160;&#160;&#160;hello_world &#160;= &#160;fashion.shell:main</text>
</g>
<!-- use_install -->
<g id="node16" class="node"><title>use_install</title>
<polygon fill="#0e0f11" stroke="black" stroke-width="0.1" points="802,-161.5 598,-161.5 598,-132.5 802,-132.5 802,-161.5"/>
<text text-anchor="middle" x="700" y="-143.3" font-family="monospace" font-size="14.00" fill="#ffffff">python setup.py install</text>
</g>
<!-- entry_cfg&#45;&gt;use_install -->
<g id="edge19" class="edge"><title>entry_cfg&#45;&gt;use_install</title>
<path fill="none" stroke="black" d="M422.362,-107.504C431.049,-109.961 439.63,-112.465 448,-115 464.281,-119.931 467.389,-124.332 484,-128 518.962,-135.721 557.778,-140.325 592.699,-143.063"/>
<polygon fill="black" stroke="black" points="597.822,-143.454 592.666,-145.317 595.33,-143.264 592.837,-143.074 592.837,-143.074 592.837,-143.074 595.33,-143.264 593.008,-140.83 597.822,-143.454 597.822,-143.454"/>
</g>
<!-- entry_run -->
<g id="node12" class="node"><title>entry_run</title>
<polygon fill="#0e0f11" stroke="black" stroke-width="0.1" points="1384,-102 952,-102 952,-26 1384,-26 1384,-102"/>
<text text-anchor="start" x="959" y="-67.8" font-family="monospace" font-size="14.00" fill="#ffffff">$ hello_world</text>
<text text-anchor="start" x="959" y="-52.8" font-family="monospace" font-size="14.00" fill="#ffffff">Hello World!</text>
</g>
<!-- use_build -->
<g id="node14" class="node"><title>use_build</title>
<polygon fill="#0e0f11" stroke="black" stroke-width="0.1" points="326,-540.5 138,-540.5 138,-511.5 326,-511.5 326,-540.5"/>
<text text-anchor="middle" x="232" y="-522.3" font-family="monospace" font-size="14.00" fill="#ffffff">python setup.py build</text>
</g>
<!-- ubild_label -->
<g id="node15" class="node"><title>ubild_label</title>
<ellipse fill="#ffffcd" stroke="black" stroke-width="0.1" cx="700" cy="-526" rx="30.3115" ry="20.5122"/>
<text text-anchor="middle" x="700" y="-522.3" font-family="monospace" font-size="14.00" fill="#000000">构建</text>
</g>
<!-- use_build&#45;&gt;ubild_label -->
<g id="edge1" class="edge"><title>use_build&#45;&gt;ubild_label</title>
<path fill="none" stroke="black" d="M326.182,-526C430.245,-526 593.354,-526 664.207,-526"/>
<polygon fill="black" stroke="black" points="669.554,-526 664.554,-528.25 667.054,-526 664.554,-526 664.554,-526 664.554,-526 667.054,-526 664.554,-523.75 669.554,-526 669.554,-526"/>
</g>
<!-- use_install&#45;&gt;entry_run -->
<g id="edge20" class="edge"><title>use_install&#45;&gt;entry_run</title>
<path fill="none" stroke="black" d="M802.178,-143.454C838.395,-140.77 879.318,-136.1 916,-128 932.611,-124.332 935.698,-119.86 952,-115 965.343,-111.022 979.223,-107.148 993.221,-103.426"/>
<polygon fill="black" stroke="black" points="998.383,-102.063 994.123,-105.515 995.966,-102.701 993.549,-103.34 993.549,-103.34 993.549,-103.34 995.966,-102.701 992.974,-101.165 998.383,-102.063 998.383,-102.063"/>
</g>
<!-- ui_label -->
<g id="node17" class="node"><title>ui_label</title>
<ellipse fill="#ffffcd" stroke="black" stroke-width="0.1" cx="1168" cy="-159" rx="30.3115" ry="20.5122"/>
<text text-anchor="middle" x="1168" y="-155.3" font-family="monospace" font-size="14.00" fill="#000000">安装</text>
</g>
<!-- use_install&#45;&gt;ui_label -->
<g id="edge2" class="edge"><title>use_install&#45;&gt;ui_label</title>
<path fill="none" stroke="black" d="M802.115,-149.604C906.34,-152.288 1063.06,-156.323 1132.16,-158.103"/>
<polygon fill="black" stroke="black" points="1137.38,-158.237 1132.32,-160.358 1134.88,-158.173 1132.38,-158.108 1132.38,-158.108 1132.38,-158.108 1134.88,-158.173 1132.44,-155.859 1137.38,-158.237 1137.38,-158.237"/>
</g>
<!-- use_sdist -->
<g id="node18" class="node"><title>use_sdist</title>
<polygon fill="#0e0f11" stroke="black" stroke-width="0.1" points="326,-463.5 138,-463.5 138,-434.5 326,-434.5 326,-463.5"/>
<text text-anchor="middle" x="232" y="-445.3" font-family="monospace" font-size="14.00" fill="#ffffff">python setup.py sdist</text>
</g>
<!-- us_label -->
<g id="node19" class="node"><title>us_label</title>
<ellipse fill="#ffffcd" stroke="black" stroke-width="0.1" cx="700" cy="-449" rx="60.623" ry="20.5122"/>
<text text-anchor="middle" x="700" y="-445.3" font-family="monospace" font-size="14.00" fill="#000000">创建源码包</text>
</g>
<!-- use_sdist&#45;&gt;us_label -->
<g id="edge3" class="edge"><title>use_sdist&#45;&gt;us_label</title>
<path fill="none" stroke="black" d="M326.182,-449C417.277,-449 553.619,-449 633.714,-449"/>
<polygon fill="black" stroke="black" points="638.907,-449 633.907,-451.25 636.407,-449 633.907,-449 633.907,-449 633.907,-449 636.407,-449 633.907,-446.75 638.907,-449 638.907,-449"/>
</g>
<!-- use_bdist -->
<g id="node20" class="node"><title>use_bdist</title>
<polygon fill="#0e0f11" stroke="black" stroke-width="0.1" points="326,-386.5 138,-386.5 138,-357.5 326,-357.5 326,-386.5"/>
<text text-anchor="middle" x="232" y="-368.3" font-family="monospace" font-size="14.00" fill="#ffffff">python setup.py bdist</text>
</g>
<!-- ub_label -->
<g id="node21" class="node"><title>ub_label</title>
<ellipse fill="#ffffcd" stroke="black" stroke-width="0.1" cx="700" cy="-372" rx="70.922" ry="20.5122"/>
<text text-anchor="middle" x="700" y="-368.3" font-family="monospace" font-size="14.00" fill="#000000">创建二进制包</text>
</g>
<!-- use_bdist&#45;&gt;ub_label -->
<g id="edge4" class="edge"><title>use_bdist&#45;&gt;ub_label</title>
<path fill="none" stroke="black" d="M326.182,-372C413.639,-372 542.8,-372 623.854,-372"/>
<polygon fill="black" stroke="black" points="629.122,-372 624.122,-374.25 626.622,-372 624.122,-372 624.122,-372 624.122,-372 626.622,-372 624.122,-369.75 629.122,-372 629.122,-372"/>
</g>
<!-- use_upload -->
<g id="node22" class="node"><title>use_upload</title>
<polygon fill="#0e0f11" stroke="black" stroke-width="0.1" points="330,-309.5 134,-309.5 134,-280.5 330,-280.5 330,-309.5"/>
<text text-anchor="middle" x="232" y="-291.3" font-family="monospace" font-size="14.00" fill="#ffffff">python setup.py upload</text>
</g>
<!-- uu_label -->
<g id="node23" class="node"><title>uu_label</title>
<ellipse fill="#ffffcd" stroke="black" stroke-width="0.1" cx="700" cy="-295" rx="69.0935" ry="20.5122"/>
<text text-anchor="middle" x="700" y="-291.3" font-family="monospace" font-size="14.00" fill="#000000">上传到 pypi</text>
</g>
<!-- use_upload&#45;&gt;uu_label -->
<g id="edge5" class="edge"><title>use_upload&#45;&gt;uu_label</title>
<path fill="none" stroke="black" d="M330.122,-295C418.082,-295 545.755,-295 625.499,-295"/>
<polygon fill="black" stroke="black" points="630.681,-295 625.681,-297.25 628.181,-295 625.681,-295 625.681,-295 625.681,-295 628.181,-295 625.681,-292.75 630.681,-295 630.681,-295"/>
</g>
<!-- use_test -->
<g id="node24" class="node"><title>use_test</title>
<polygon fill="#0e0f11" stroke="black" stroke-width="0.1" points="322,-232.5 142,-232.5 142,-203.5 322,-203.5 322,-232.5"/>
<text text-anchor="middle" x="232" y="-214.3" font-family="monospace" font-size="14.00" fill="#ffffff">python setup.py test</text>
</g>
<!-- utest_label -->
<g id="node25" class="node"><title>utest_label</title>
<ellipse fill="#ffffcd" stroke="black" stroke-width="0.1" cx="700" cy="-218" rx="30.3115" ry="20.5122"/>
<text text-anchor="middle" x="700" y="-214.3" font-family="monospace" font-size="14.00" fill="#000000">测试</text>
</g>
<!-- use_test&#45;&gt;utest_label -->
<g id="edge6" class="edge"><title>use_test&#45;&gt;utest_label</title>
<path fill="none" stroke="black" d="M322.023,-218C425.783,-218 592.193,-218 664.071,-218"/>
<polygon fill="black" stroke="black" points="669.494,-218 664.494,-220.25 666.994,-218 664.494,-218 664.494,-218 664.494,-218 666.994,-218 664.494,-215.75 669.494,-218 669.494,-218"/>
</g>
</g>
</svg>
