<?xml version="1.0" encoding="UTF-8" standalone="no"?>
<!DOCTYPE svg PUBLIC "-//W3C//DTD SVG 1.1//EN"
 "http://www.w3.org/Graphics/SVG/1.1/DTD/svg11.dtd">
<!-- Generated by graphviz version 2.38.0 (20140413.2041)
 -->
<!-- Title: %3 Pages: 1 -->
<svg width="634pt" height="1177pt"
 viewBox="0.00 0.00 634.00 1177.00" xmlns="http://www.w3.org/2000/svg" xmlns:xlink="http://www.w3.org/1999/xlink">
<g id="graph0" class="graph" transform="scale(1 1) rotate(0) translate(4 1173)">
<title>%3</title>
<polygon fill="white" stroke="none" points="-4,4 -4,-1173 630,-1173 630,4 -4,4"/>
<!-- set_setupcfg -->
<g id="node1" class="node"><title>set_setupcfg</title>
<polygon fill="#0e0f11" stroke="black" stroke-width="0.1" points="89,-310.5 0,-310.5 0,-281.5 89,-281.5 89,-310.5"/>
<text text-anchor="middle" x="44.5" y="-292.3" font-family="monospace" font-size="14.00" fill="#ffffff">setup.cfg</text>
</g>
<!-- cfg_build -->
<g id="node3" class="node"><title>cfg_build</title>
<polygon fill="#0e0f11" stroke="black" stroke-width="0.1" points="591.5,-577.5 159.5,-577.5 159.5,-486.5 591.5,-486.5 591.5,-577.5"/>
<text text-anchor="start" x="166.5" y="-543.3" font-family="monospace" font-size="14.00" fill="#ffffff">#setup.cfg</text>
<text text-anchor="start" x="166.5" y="-528.3" font-family="monospace" font-size="14.00" fill="#ffffff">[build&#45;system]</text>
<text text-anchor="start" x="166.5" y="-513.3" font-family="monospace" font-size="14.00" fill="#ffffff">requires = [&quot;setuptools&quot;, &quot;wheel&quot;]</text>
</g>
<!-- set_setupcfg&#45;&gt;cfg_build -->
<g id="edge1" class="edge"><title>set_setupcfg&#45;&gt;cfg_build</title>
<path fill="none" stroke="black" d="M47.8963,-310.546C54.1591,-343.784 74.1921,-425.683 125,-468 134.245,-475.7 144.303,-482.489 154.901,-488.472"/>
<polygon fill="black" stroke="black" points="159.475,-490.988 154.01,-490.55 157.285,-489.783 155.094,-488.578 155.094,-488.578 155.094,-488.578 157.285,-489.783 156.178,-486.607 159.475,-490.988 159.475,-490.988"/>
</g>
<!-- cfg_options -->
<g id="node4" class="node"><title>cfg_options</title>
<polygon fill="#0e0f11" stroke="black" stroke-width="0.1" points="591.5,-450 159.5,-450 159.5,-314 591.5,-314 591.5,-450"/>
<text text-anchor="start" x="166.5" y="-415.8" font-family="monospace" font-size="14.00" fill="#ffffff">#setup.cfg</text>
<text text-anchor="start" x="166.5" y="-400.8" font-family="monospace" font-size="14.00" fill="#ffffff">[options]</text>
<text text-anchor="start" x="166.5" y="-385.8" font-family="monospace" font-size="14.00" fill="#ffffff">#...</text>
<text text-anchor="start" x="166.5" y="-370.8" font-family="monospace" font-size="14.00" fill="#ffffff">install_requires =</text>
<text text-anchor="start" x="166.5" y="-355.8" font-family="monospace" font-size="14.00" fill="#ffffff"> &#160;&#160;&#160;docutils</text>
<text text-anchor="start" x="166.5" y="-340.8" font-family="monospace" font-size="14.00" fill="#ffffff"> &#160;&#160;&#160;BazSpam ==1.1</text>
</g>
<!-- set_setupcfg&#45;&gt;cfg_options -->
<g id="edge2" class="edge"><title>set_setupcfg&#45;&gt;cfg_options</title>
<path fill="none" stroke="black" d="M89.1887,-307.42C107.378,-312.175 129.96,-318.078 154.397,-324.465"/>
<polygon fill="black" stroke="black" points="159.308,-325.749 153.902,-326.662 156.889,-325.117 154.471,-324.485 154.471,-324.485 154.471,-324.485 156.889,-325.117 155.04,-322.308 159.308,-325.749 159.308,-325.749"/>
</g>
<!-- cfg_platform -->
<g id="node5" class="node"><title>cfg_platform</title>
<polygon fill="#0e0f11" stroke="black" stroke-width="0.1" points="591.5,-278 159.5,-278 159.5,-142 591.5,-142 591.5,-278"/>
<text text-anchor="start" x="166.5" y="-243.8" font-family="monospace" font-size="14.00" fill="#ffffff">#setup.cfg</text>
<text text-anchor="start" x="166.5" y="-228.8" font-family="monospace" font-size="14.00" fill="#ffffff">[options]</text>
<text text-anchor="start" x="166.5" y="-213.8" font-family="monospace" font-size="14.00" fill="#ffffff">#...</text>
<text text-anchor="start" x="166.5" y="-198.8" font-family="monospace" font-size="14.00" fill="#ffffff">install_requires =</text>
<text text-anchor="start" x="166.5" y="-183.8" font-family="monospace" font-size="14.00" fill="#ffffff"> &#160;&#160;&#160;enum34;python_version&lt;&#39;3.4&#39;</text>
<text text-anchor="start" x="166.5" y="-168.8" font-family="monospace" font-size="14.00" fill="#ffffff"> &#160;&#160;&#160;pywin32 &gt;= 1.0;platform_system==&#39;Windows&#39;</text>
</g>
<!-- set_setupcfg&#45;&gt;cfg_platform -->
<g id="edge3" class="edge"><title>set_setupcfg&#45;&gt;cfg_platform</title>
<path fill="none" stroke="black" d="M89.1887,-284.58C107.378,-279.825 129.96,-273.922 154.397,-267.535"/>
<polygon fill="black" stroke="black" points="159.308,-266.251 155.04,-269.692 156.889,-266.883 154.471,-267.515 154.471,-267.515 154.471,-267.515 156.889,-266.883 153.902,-265.338 159.308,-266.251 159.308,-266.251"/>
</g>
<!-- cfg_link -->
<g id="node6" class="node"><title>cfg_link</title>
<polygon fill="#0e0f11" stroke="black" stroke-width="0.1" points="626,-106 125,-106 125,-0 626,-0 626,-106"/>
<text text-anchor="start" x="132" y="-71.8" font-family="monospace" font-size="14.00" fill="#ffffff">#setup.cfg</text>
<text text-anchor="start" x="132" y="-56.8" font-family="monospace" font-size="14.00" fill="#ffffff">[options]</text>
<text text-anchor="start" x="132" y="-41.8" font-family="monospace" font-size="14.00" fill="#ffffff">#...</text>
<text text-anchor="start" x="132" y="-26.8" font-family="monospace" font-size="14.00" fill="#ffffff">dependency_links = http://peak.telecommunity.com/snapshots/</text>
</g>
<!-- set_setupcfg&#45;&gt;cfg_link -->
<g id="edge4" class="edge"><title>set_setupcfg&#45;&gt;cfg_link</title>
<path fill="none" stroke="black" d="M48.0705,-281.048C54.6019,-247.689 74.9996,-166.763 125,-124 131.377,-118.546 138.148,-113.51 145.221,-108.859"/>
<polygon fill="black" stroke="black" points="149.663,-106.013 146.667,-110.605 147.558,-107.362 145.453,-108.711 145.453,-108.711 145.453,-108.711 147.558,-107.362 144.239,-106.816 149.663,-106.013 149.663,-106.013"/>
</g>
<!-- set_setuppy -->
<g id="node2" class="node"><title>set_setuppy</title>
<polygon fill="#0e0f11" stroke="black" stroke-width="0.1" points="85,-898.5 4,-898.5 4,-869.5 85,-869.5 85,-898.5"/>
<text text-anchor="middle" x="44.5" y="-880.3" font-family="monospace" font-size="14.00" fill="#ffffff">setup.py</text>
</g>
<!-- py_options -->
<g id="node7" class="node"><title>py_options</title>
<polygon fill="#0e0f11" stroke="black" stroke-width="0.1" points="591.5,-1169 159.5,-1169 159.5,-1003 591.5,-1003 591.5,-1169"/>
<text text-anchor="start" x="166.5" y="-1134.8" font-family="monospace" font-size="14.00" fill="#ffffff">#setup.py</text>
<text text-anchor="start" x="166.5" y="-1119.8" font-family="monospace" font-size="14.00" fill="#ffffff">setup(</text>
<text text-anchor="start" x="166.5" y="-1104.8" font-family="monospace" font-size="14.00" fill="#ffffff"> &#160;&#160;&#160;#...,</text>
<text text-anchor="start" x="166.5" y="-1089.8" font-family="monospace" font-size="14.00" fill="#ffffff"> &#160;&#160;&#160;install_requires = [</text>
<text text-anchor="start" x="166.5" y="-1074.8" font-family="monospace" font-size="14.00" fill="#ffffff"> &#160;&#160;&#160;&#160;&#160;&#160;&#160;&#39;docutils&#39;,</text>
<text text-anchor="start" x="166.5" y="-1059.8" font-family="monospace" font-size="14.00" fill="#ffffff"> &#160;&#160;&#160;&#160;&#160;&#160;&#160;&#39;BazSpam ==1.1&#39;</text>
<text text-anchor="start" x="166.5" y="-1044.8" font-family="monospace" font-size="14.00" fill="#ffffff"> &#160;&#160;&#160;]</text>
<text text-anchor="start" x="166.5" y="-1029.8" font-family="monospace" font-size="14.00" fill="#ffffff">)</text>
</g>
<!-- set_setuppy&#45;&gt;py_options -->
<g id="edge5" class="edge"><title>set_setuppy&#45;&gt;py_options</title>
<path fill="none" stroke="black" d="M53.6573,-898.681C66.3369,-920.296 92.7071,-960.74 125,-985 134.481,-992.122 144.533,-998.825 154.951,-1005.12"/>
<polygon fill="black" stroke="black" points="159.438,-1007.79 153.99,-1007.17 157.29,-1006.52 155.142,-1005.24 155.142,-1005.24 155.142,-1005.24 157.29,-1006.52 156.294,-1003.3 159.438,-1007.79 159.438,-1007.79"/>
</g>
<!-- py_platform -->
<g id="node8" class="node"><title>py_platform</title>
<polygon fill="#0e0f11" stroke="black" stroke-width="0.1" points="593,-967 158,-967 158,-801 593,-801 593,-967"/>
<text text-anchor="start" x="165" y="-932.8" font-family="monospace" font-size="14.00" fill="#ffffff">#setup.py</text>
<text text-anchor="start" x="165" y="-917.8" font-family="monospace" font-size="14.00" fill="#ffffff">setup(</text>
<text text-anchor="start" x="165" y="-902.8" font-family="monospace" font-size="14.00" fill="#ffffff"> &#160;&#160;&#160;#...</text>
<text text-anchor="start" x="165" y="-887.8" font-family="monospace" font-size="14.00" fill="#ffffff"> &#160;&#160;&#160;install_requires=[</text>
<text text-anchor="start" x="165" y="-872.8" font-family="monospace" font-size="14.00" fill="#ffffff"> &#160;&#160;&#160;&#160;&#160;&#160;&#160;&quot;enum34;python_version&lt;&#39;3.4&#39;&quot;,</text>
<text text-anchor="start" x="165" y="-857.8" font-family="monospace" font-size="14.00" fill="#ffffff"> &#160;&#160;&#160;&#160;&#160;&#160;&#160;&quot;pywin32 &gt;= 1.0;platform_system==&#39;Windows&#39;&quot;</text>
<text text-anchor="start" x="165" y="-842.8" font-family="monospace" font-size="14.00" fill="#ffffff"> &#160;&#160;&#160;&#160;&#160;&#160;&#160;]</text>
<text text-anchor="start" x="165" y="-827.8" font-family="monospace" font-size="14.00" fill="#ffffff">)</text>
</g>
<!-- set_setuppy&#45;&gt;py_platform -->
<g id="edge6" class="edge"><title>set_setuppy&#45;&gt;py_platform</title>
<path fill="none" stroke="black" d="M85.1851,-884C103.611,-884 127.105,-884 152.716,-884"/>
<polygon fill="black" stroke="black" points="157.866,-884 152.866,-886.25 155.366,-884 152.866,-884 152.866,-884 152.866,-884 155.366,-884 152.866,-881.75 157.866,-884 157.866,-884"/>
</g>
<!-- py_link -->
<g id="node9" class="node"><title>py_link</title>
<polygon fill="#0e0f11" stroke="black" stroke-width="0.1" points="591.5,-764.5 159.5,-764.5 159.5,-613.5 591.5,-613.5 591.5,-764.5"/>
<text text-anchor="start" x="166.5" y="-730.3" font-family="monospace" font-size="14.00" fill="#ffffff">#setup.py</text>
<text text-anchor="start" x="166.5" y="-715.3" font-family="monospace" font-size="14.00" fill="#ffffff">setup(</text>
<text text-anchor="start" x="166.5" y="-700.3" font-family="monospace" font-size="14.00" fill="#ffffff"> &#160;&#160;&#160;#...</text>
<text text-anchor="start" x="166.5" y="-685.3" font-family="monospace" font-size="14.00" fill="#ffffff"> &#160;&#160;&#160;dependency_links=[</text>
<text text-anchor="start" x="166.5" y="-670.3" font-family="monospace" font-size="14.00" fill="#ffffff"> &#160;&#160;&#160;&#160;&#160;&#160;&#160;&quot;http://peak.telecommunity.com/snapshots/&quot;</text>
<text text-anchor="start" x="166.5" y="-655.3" font-family="monospace" font-size="14.00" fill="#ffffff"> &#160;&#160;&#160;],</text>
<text text-anchor="start" x="166.5" y="-640.3" font-family="monospace" font-size="14.00" fill="#ffffff">)</text>
</g>
<!-- set_setuppy&#45;&gt;py_link -->
<g id="edge7" class="edge"><title>set_setuppy&#45;&gt;py_link</title>
<path fill="none" stroke="black" d="M53.5819,-869.218C66.1653,-847.473 92.4143,-806.865 125,-783 134.476,-776.06 144.525,-769.572 154.94,-763.515"/>
<polygon fill="black" stroke="black" points="159.425,-760.946 156.205,-765.383 157.256,-762.188 155.087,-763.431 155.087,-763.431 155.087,-763.431 157.256,-762.188 153.968,-761.479 159.425,-760.946 159.425,-760.946"/>
</g>
</g>
</svg>
