<?xml version="1.0" encoding="UTF-8" standalone="no"?>
<!DOCTYPE svg PUBLIC "-//W3C//DTD SVG 1.1//EN"
 "http://www.w3.org/Graphics/SVG/1.1/DTD/svg11.dtd">
<!-- Generated by graphviz version 2.38.0 (20140413.2041)
 -->
<!-- Title: %3 Pages: 1 -->
<svg width="2440pt" height="1142pt"
 viewBox="0.00 0.00 2440.00 1141.50" xmlns="http://www.w3.org/2000/svg" xmlns:xlink="http://www.w3.org/1999/xlink">
<g id="graph0" class="graph" transform="scale(1 1) rotate(0) translate(4 1137.5)">
<title>%3</title>
<polygon fill="white" stroke="none" points="-4,4 -4,-1137.5 2436,-1137.5 2436,4 -4,4"/>
<g id="clust1" class="cluster"><title>cluster_entry</title>
<polygon fill="#1fbb1f" stroke="black" stroke-width="0.1" points="8,-8 8,-116 1873,-116 1873,-8 8,-8"/>
</g>
<g id="clust2" class="cluster"><title>cluster_runuse</title>
<polygon fill="none" stroke="black" stroke-width="0.1" points="126,-288 126,-707 1245,-707 1245,-288 126,-288"/>
</g>
<!-- create -->
<g id="node1" class="node"><title>create</title>
<polygon fill="#0e0f11" stroke="black" stroke-width="0.1" points="448,-900.5 16,-900.5 16,-735.5 448,-735.5 448,-900.5"/>
<text text-anchor="start" x="23" y="-866.3" font-family="monospace" font-size="14.00" fill="#ffffff">from setuptools import setup, find_packages</text>
<text text-anchor="start" x="23" y="-851.3" font-family="monospace" font-size="14.00" fill="#ffffff">setup(</text>
<text text-anchor="start" x="23" y="-836.3" font-family="monospace" font-size="14.00" fill="#ffffff"> &#160;&#160;&#160;&#160;&#160;name=&quot;fashion&quot;,</text>
<text text-anchor="start" x="23" y="-821.3" font-family="monospace" font-size="14.00" fill="#ffffff"> &#160;&#160;&#160;&#160;&#160;version=&quot;0.0.1&quot;,</text>
<text text-anchor="start" x="23" y="-806.3" font-family="monospace" font-size="14.00" fill="#ffffff"> &#160;&#160;&#160;&#160;&#160;author=&quot;xxx&quot;,</text>
<text text-anchor="start" x="23" y="-791.3" font-family="monospace" font-size="14.00" fill="#ffffff"> &#160;&#160;&#160;&#160;&#160;author_email=&quot;xxxx&quot;,</text>
<text text-anchor="start" x="23" y="-776.3" font-family="monospace" font-size="14.00" fill="#ffffff"> &#160;&#160;&#160;&#160;&#160;url=&quot;xxx&quot;,</text>
<text text-anchor="start" x="23" y="-761.3" font-family="monospace" font-size="14.00" fill="#ffffff"> &#160;&#160;&#160;&#160;&#160;packages = find_packages(&#39;fashion&#39;),</text>
<text text-anchor="start" x="23" y="-746.3" font-family="monospace" font-size="14.00" fill="#ffffff">)</text>
</g>
<!-- project_menu -->
<g id="node2" class="node"><title>project_menu</title>
<polygon fill="#0e0f11" stroke="black" stroke-width="0.1" points="916,-893 484,-893 484,-743 916,-743 916,-893"/>
<text text-anchor="start" x="491" y="-858.8" font-family="monospace" font-size="14.00" fill="#ffffff">.</text>
<text text-anchor="start" x="491" y="-843.8" font-family="monospace" font-size="14.00" fill="#ffffff">├── hello_world</text>
<text text-anchor="start" x="491" y="-828.8" font-family="monospace" font-size="14.00" fill="#ffffff">│ &#160;&#160;├── __init__.py</text>
<text text-anchor="start" x="491" y="-813.8" font-family="monospace" font-size="14.00" fill="#ffffff">│ &#160;&#160;└── tests</text>
<text text-anchor="start" x="491" y="-798.8" font-family="monospace" font-size="14.00" fill="#ffffff">│ &#160;&#160;&#160;&#160;&#160;&#160;└── __init__.py</text>
<text text-anchor="start" x="491" y="-783.8" font-family="monospace" font-size="14.00" fill="#ffffff">├── README.md</text>
<text text-anchor="start" x="491" y="-768.8" font-family="monospace" font-size="14.00" fill="#ffffff">├── setup.cfg</text>
<text text-anchor="start" x="491" y="-753.8" font-family="monospace" font-size="14.00" fill="#ffffff">└── setup.py</text>
</g>
<!-- create&#45;&gt;project_menu -->
<g id="edge7" class="edge"><title>create&#45;&gt;project_menu</title>
<path fill="none" stroke="black" d="M448.267,-818C458.32,-818 468.416,-818 478.482,-818"/>
<polygon fill="black" stroke="black" points="483.742,-818 478.742,-820.25 481.242,-818 478.742,-818 478.742,-818 478.742,-818 481.242,-818 478.742,-815.75 483.742,-818 483.742,-818"/>
</g>
<!-- set_setupcfg -->
<g id="node3" class="node"><title>set_setupcfg</title>
<polygon fill="#0e0f11" stroke="black" stroke-width="0.1" points="1212.5,-744.5 1123.5,-744.5 1123.5,-715.5 1212.5,-715.5 1212.5,-744.5"/>
<text text-anchor="middle" x="1168" y="-726.3" font-family="monospace" font-size="14.00" fill="#ffffff">setup.cfg</text>
</g>
<!-- project_menu&#45;&gt;set_setupcfg -->
<g id="edge10" class="edge"><title>project_menu&#45;&gt;set_setupcfg</title>
<path fill="none" stroke="black" d="M916.127,-769.929C928.248,-767.511 940.268,-765.183 952,-763 1008.72,-752.443 1074.32,-742.733 1118,-736.619"/>
<polygon fill="black" stroke="black" points="1123.21,-735.891 1118.57,-738.81 1120.74,-736.237 1118.26,-736.582 1118.26,-736.582 1118.26,-736.582 1120.74,-736.237 1117.95,-734.354 1123.21,-735.891 1123.21,-735.891"/>
</g>
<!-- MANIFESTin -->
<g id="node4" class="node"><title>MANIFESTin</title>
<polygon fill="#0e0f11" stroke="black" stroke-width="0.1" points="1220.5,-945.5 1115.5,-945.5 1115.5,-916.5 1220.5,-916.5 1220.5,-945.5"/>
<text text-anchor="middle" x="1168" y="-927.3" font-family="monospace" font-size="14.00" fill="#ffffff">MANIFEST.in</text>
</g>
<!-- project_menu&#45;&gt;MANIFESTin -->
<g id="edge11" class="edge"><title>project_menu&#45;&gt;MANIFESTin</title>
<path fill="none" stroke="black" d="M916.003,-880.07C928.156,-883.188 940.217,-886.188 952,-889 1005.43,-901.752 1067.01,-913.484 1110.53,-921.288"/>
<polygon fill="black" stroke="black" points="1115.48,-922.173 1110.16,-923.508 1113.02,-921.733 1110.56,-921.293 1110.56,-921.293 1110.56,-921.293 1113.02,-921.733 1110.96,-919.078 1115.48,-922.173 1115.48,-922.173"/>
</g>
<!-- use_command -->
<g id="node14" class="node"><title>use_command</title>
<polygon fill="#0e0f11" stroke="black" stroke-width="0.1" points="1237,-679.5 1099,-679.5 1099,-650.5 1237,-650.5 1237,-679.5"/>
<text text-anchor="middle" x="1168" y="-661.3" font-family="monospace" font-size="14.00" fill="#ffffff">python setup.py</text>
</g>
<!-- project_menu&#45;&gt;use_command -->
<g id="edge8" class="edge"><title>project_menu&#45;&gt;use_command</title>
<path fill="none" stroke="black" d="M910.296,-742.858C912.22,-741.59 914.122,-740.305 916,-739 936.191,-724.973 930.483,-708.894 952,-697 995.004,-673.229 1049.88,-665.36 1093.43,-663.367"/>
<polygon fill="black" stroke="black" points="1098.68,-663.153 1093.78,-665.605 1096.19,-663.255 1093.69,-663.357 1093.69,-663.357 1093.69,-663.357 1096.19,-663.255 1093.6,-661.109 1098.68,-663.153 1098.68,-663.153"/>
</g>
<!-- run_pdr -->
<g id="node27" class="node"><title>run_pdr</title>
<polygon fill="#0e0f11" stroke="black" stroke-width="0.1" points="1384,-871 952,-871 952,-781 1384,-781 1384,-871"/>
<text text-anchor="start" x="959" y="-836.8" font-family="monospace" font-size="14.00" fill="#ffffff">setup(</text>
<text text-anchor="start" x="959" y="-821.8" font-family="monospace" font-size="14.00" fill="#ffffff"> &#160;&#160;&#160;setup_requires=[&#39;pbr&#39;, &#39;setuptools&#39;],</text>
<text text-anchor="start" x="959" y="-806.8" font-family="monospace" font-size="14.00" fill="#ffffff"> &#160;&#160;&#160;pbr=True,</text>
<text text-anchor="start" x="959" y="-791.8" font-family="monospace" font-size="14.00" fill="#ffffff">)</text>
</g>
<!-- project_menu&#45;&gt;run_pdr -->
<g id="edge9" class="edge"><title>project_menu&#45;&gt;run_pdr</title>
<path fill="none" stroke="black" d="M916.267,-821.696C926.32,-821.868 936.416,-822.041 946.482,-822.214"/>
<polygon fill="black" stroke="black" points="951.742,-822.305 946.704,-824.468 949.242,-822.262 946.743,-822.219 946.743,-822.219 946.743,-822.219 949.242,-822.262 946.781,-819.969 951.742,-822.305 951.742,-822.305"/>
</g>
<!-- setupcfgwarn -->
<g id="node5" class="node"><title>setupcfgwarn</title>
<polygon fill="#ec7259" stroke="black" stroke-width="0.1" points="1726.5,-584.5 1571.5,-584.5 1571.5,-555.5 1726.5,-555.5 1726.5,-584.5"/>
<text text-anchor="middle" x="1649" y="-566.3" font-family="monospace" font-size="14.00" fill="#ffffff">pdr must with git</text>
</g>
<!-- set_setupcfg&#45;&gt;setupcfgwarn -->
<g id="edge12" class="edge"><title>set_setupcfg&#45;&gt;setupcfgwarn</title>
<path fill="none" stroke="black" d="M1212.82,-739.058C1260.23,-746.188 1335.54,-749.393 1384,-711 1423.99,-679.319 1380.84,-634.696 1420,-602 1460.04,-568.572 1518.5,-560.909 1566.2,-561.429"/>
<polygon fill="black" stroke="black" points="1571.37,-561.518 1566.34,-563.682 1568.87,-561.475 1566.38,-561.432 1566.38,-561.432 1566.38,-561.432 1568.87,-561.475 1566.41,-559.182 1571.37,-561.518 1571.37,-561.518"/>
</g>
<!-- conf_setupcfg -->
<g id="node6" class="node"><title>conf_setupcfg</title>
<polygon fill="#0e0f11" stroke="black" stroke-width="0.1" points="1865,-819.5 1433,-819.5 1433,-620.5 1865,-620.5 1865,-819.5"/>
<text text-anchor="start" x="1440" y="-785.3" font-family="monospace" font-size="14.00" fill="#ffffff">[metadata]</text>
<text text-anchor="start" x="1440" y="-770.3" font-family="monospace" font-size="14.00" fill="#ffffff">name = fashion</text>
<text text-anchor="start" x="1440" y="-755.3" font-family="monospace" font-size="14.00" fill="#ffffff">version = 0.0.1</text>
<text text-anchor="start" x="1440" y="-708.3" font-family="monospace" font-size="14.00" fill="#ffffff">[global]</text>
<text text-anchor="start" x="1440" y="-693.3" font-family="monospace" font-size="14.00" fill="#ffffff">setup&#45;hooks = pbr.hooks.setup_hook</text>
<text text-anchor="start" x="1440" y="-646.3" font-family="monospace" font-size="14.00" fill="#ffffff">[files]</text>
<text text-anchor="start" x="1440" y="-631.3" font-family="monospace" font-size="14.00" fill="#ffffff">packages = fashion</text>
</g>
<!-- set_setupcfg&#45;&gt;conf_setupcfg -->
<g id="edge13" class="edge"><title>set_setupcfg&#45;&gt;conf_setupcfg</title>
<path fill="none" stroke="black" d="M1212.78,-729.086C1262.21,-728.054 1346.38,-726.297 1427.6,-724.601"/>
<polygon fill="black" stroke="black" points="1432.95,-724.49 1428,-726.844 1430.45,-724.542 1427.95,-724.594 1427.95,-724.594 1427.95,-724.594 1430.45,-724.542 1427.9,-722.345 1432.95,-724.49 1432.95,-724.49"/>
</g>
<!-- mani_cfg -->
<g id="node9" class="node"><title>mani_cfg</title>
<polygon fill="#0e0f11" stroke="black" stroke-width="0.1" points="1878,-1006.5 1420,-1006.5 1420,-855.5 1878,-855.5 1878,-1006.5"/>
<text text-anchor="start" x="1427" y="-972.3" font-family="monospace" font-size="14.00" fill="#ffffff">#setup.cfg</text>
<text text-anchor="start" x="1427" y="-957.3" font-family="monospace" font-size="14.00" fill="#ffffff">[files]</text>
<text text-anchor="start" x="1427" y="-942.3" font-family="monospace" font-size="14.00" fill="#ffffff">packages = fashion</text>
<text text-anchor="start" x="1427" y="-927.3" font-family="monospace" font-size="14.00" fill="#ffffff"># 假设我们在 etc 下有 fashion.conf 这个配置文件，想要安装到</text>
<text text-anchor="start" x="1427" y="-912.3" font-family="monospace" font-size="14.00" fill="#ffffff"># 系统的 /etc/fashion/ 目录之下</text>
<text text-anchor="start" x="1427" y="-897.3" font-family="monospace" font-size="14.00" fill="#ffffff">#&#45;&#45;prefix=/</text>
<text text-anchor="start" x="1427" y="-882.3" font-family="monospace" font-size="14.00" fill="#ffffff">data_files = /etc/fashion = etc/fashion.conf</text>
</g>
<!-- set_setupcfg&#45;&gt;mani_cfg -->
<g id="edge15" class="edge"><title>set_setupcfg&#45;&gt;mani_cfg</title>
<path fill="none" stroke="black" d="M1212.64,-725.458C1259.55,-722.933 1334.09,-726.012 1384,-763 1413.71,-785.015 1393.08,-812.654 1420,-838 1425.31,-843 1430.93,-847.747 1436.78,-852.252"/>
<polygon fill="black" stroke="black" points="1440.87,-855.332 1435.53,-854.123 1438.88,-853.828 1436.88,-852.325 1436.88,-852.325 1436.88,-852.325 1438.88,-853.828 1438.23,-850.527 1440.87,-855.332 1440.87,-855.332"/>
</g>
<!-- entry_file -->
<g id="node11" class="node"><title>entry_file</title>
<polygon fill="#0e0f11" stroke="black" stroke-width="0.1" points="1865,-107.5 1433,-107.5 1433,-16.5 1865,-16.5 1865,-107.5"/>
<text text-anchor="start" x="1440" y="-73.3" font-family="monospace" font-size="14.00" fill="#ffffff">#fashion/shell.py</text>
<text text-anchor="start" x="1440" y="-58.3" font-family="monospace" font-size="14.00" fill="#ffffff">def main():</text>
<text text-anchor="start" x="1440" y="-43.3" font-family="monospace" font-size="14.00" fill="#ffffff"> &#160;&#160;&#160;print(&quot;Hello World!&quot;)</text>
</g>
<!-- set_setupcfg&#45;&gt;entry_file -->
<g id="edge14" class="edge"><title>set_setupcfg&#45;&gt;entry_file</title>
<path fill="none" stroke="black" d="M1212.81,-739.943C1260.93,-748.073 1337.54,-752.364 1384,-711 1442.98,-658.486 1394.73,-611.818 1420,-537 1474.64,-375.236 1570.82,-196.837 1618.91,-112.063"/>
<polygon fill="black" stroke="black" points="1621.44,-107.603 1620.93,-113.062 1620.21,-109.777 1618.97,-111.95 1618.97,-111.95 1618.97,-111.95 1620.21,-109.777 1617.01,-110.839 1621.44,-107.603 1621.44,-107.603"/>
</g>
<!-- mani_file -->
<g id="node7" class="node"><title>mani_file</title>
<polygon fill="#0e0f11" stroke="black" stroke-width="0.1" points="1865,-1133.5 1433,-1133.5 1433,-1042.5 1865,-1042.5 1865,-1133.5"/>
<text text-anchor="start" x="1440" y="-1099.3" font-family="monospace" font-size="14.00" fill="#ffffff">#MANIFEST.in</text>
<text text-anchor="start" x="1440" y="-1084.3" font-family="monospace" font-size="14.00" fill="#ffffff">include scripts/*</text>
<text text-anchor="start" x="1440" y="-1069.3" font-family="monospace" font-size="14.00" fill="#ffffff">recursive&#45;include static *.html *.css</text>
</g>
<!-- MANIFESTin&#45;&gt;mani_file -->
<g id="edge16" class="edge"><title>MANIFESTin&#45;&gt;mani_file</title>
<path fill="none" stroke="black" d="M1204.81,-945.557C1253.19,-964.961 1342.33,-999.78 1420,-1025 1436.69,-1030.42 1454.16,-1035.79 1471.69,-1040.96"/>
<polygon fill="black" stroke="black" points="1476.63,-1042.42 1471.2,-1043.17 1474.24,-1041.71 1471.84,-1041.01 1471.84,-1041.01 1471.84,-1041.01 1474.24,-1041.71 1472.47,-1038.85 1476.63,-1042.42 1476.63,-1042.42"/>
</g>
<!-- MANIFESTin&#45;&gt;mani_cfg -->
<g id="edge17" class="edge"><title>MANIFESTin&#45;&gt;mani_cfg</title>
<path fill="none" stroke="black" d="M1220.72,-931C1268.08,-931 1341.71,-931 1414.59,-931"/>
<polygon fill="black" stroke="black" points="1419.83,-931 1414.83,-933.25 1417.33,-931 1414.83,-931 1414.83,-931 1414.83,-931 1417.33,-931 1414.83,-928.75 1419.83,-931 1419.83,-931"/>
</g>
<!-- mani_use -->
<g id="node8" class="node"><title>mani_use</title>
<polygon fill="#0e0f11" stroke="black" stroke-width="0.1" points="2432,-1133.5 1914,-1133.5 1914,-1042.5 2432,-1042.5 2432,-1133.5"/>
<text text-anchor="start" x="1921" y="-1099.3" font-family="monospace" font-size="14.00" fill="#ffffff">#pkg_resources模块来获取</text>
<text text-anchor="start" x="1921" y="-1084.3" font-family="monospace" font-size="14.00" fill="#ffffff">from pkg_resources import resource_stream</text>
<text text-anchor="start" x="1921" y="-1069.3" font-family="monospace" font-size="14.00" fill="#ffffff">text = resource_stream(&#39;fashion&#39;,static/fashion.html&#39;).read()</text>
</g>
<!-- mani_file&#45;&gt;mani_use -->
<g id="edge18" class="edge"><title>mani_file&#45;&gt;mani_use</title>
<path fill="none" stroke="black" d="M1865.33,-1088C1879.59,-1088 1894.03,-1088 1908.49,-1088"/>
<polygon fill="black" stroke="black" points="1913.81,-1088 1908.81,-1090.25 1911.31,-1088 1908.81,-1088 1908.81,-1088 1908.81,-1088 1911.31,-1088 1908.81,-1085.75 1913.81,-1088 1913.81,-1088"/>
</g>
<!-- test_cfg -->
<g id="node10" class="node"><title>test_cfg</title>
<polygon fill="#0e0f11" stroke="black" stroke-width="0.1" points="448,-280 16,-280 16,-144 448,-144 448,-280"/>
<text text-anchor="start" x="23" y="-245.8" font-family="monospace" font-size="14.00" fill="#ffffff"># setup.py</text>
<text text-anchor="start" x="23" y="-230.8" font-family="monospace" font-size="14.00" fill="#ffffff">setup(</text>
<text text-anchor="start" x="23" y="-215.8" font-family="monospace" font-size="14.00" fill="#ffffff"> &#160;&#160;&#160;setup_requires=[&#39;pbr&#39;, &#39;setuptools&#39;],</text>
<text text-anchor="start" x="23" y="-200.8" font-family="monospace" font-size="14.00" fill="#ffffff"> &#160;&#160;&#160;pbr=True,</text>
<text text-anchor="start" x="23" y="-185.8" font-family="monospace" font-size="14.00" fill="#ffffff"> &#160;&#160;&#160;test_suite=&#39;fashion.tests&#39;,</text>
<text text-anchor="start" x="23" y="-170.8" font-family="monospace" font-size="14.00" fill="#ffffff">)</text>
</g>
<!-- use_test -->
<g id="node25" class="node"><title>use_test</title>
<polygon fill="#0e0f11" stroke="black" stroke-width="0.1" points="790,-390.5 610,-390.5 610,-361.5 790,-361.5 790,-390.5"/>
<text text-anchor="middle" x="700" y="-372.3" font-family="monospace" font-size="14.00" fill="#ffffff">python setup.py test</text>
</g>
<!-- test_cfg&#45;&gt;use_test -->
<g id="edge21" class="edge"><title>test_cfg&#45;&gt;use_test</title>
<path fill="none" stroke="black" d="M443.482,-280.185C445.011,-281.434 446.518,-282.705 448,-284 475.247,-307.796 454.151,-336.562 484,-357 518.694,-380.756 564.282,-387.336 604.547,-387.234"/>
<polygon fill="black" stroke="black" points="609.937,-387.181 604.96,-389.48 607.437,-387.206 604.937,-387.231 604.937,-387.231 604.937,-387.231 607.437,-387.206 604.915,-384.981 609.937,-387.181 609.937,-387.181"/>
</g>
<!-- entry_cfg -->
<g id="node12" class="node"><title>entry_cfg</title>
<polygon fill="#0e0f11" stroke="black" stroke-width="0.1" points="448,-107.5 16,-107.5 16,-16.5 448,-16.5 448,-107.5"/>
<text text-anchor="start" x="23" y="-73.3" font-family="monospace" font-size="14.00" fill="#ffffff">#[entry_points]</text>
<text text-anchor="start" x="23" y="-58.3" font-family="monospace" font-size="14.00" fill="#ffffff">console_scripts =</text>
<text text-anchor="start" x="23" y="-43.3" font-family="monospace" font-size="14.00" fill="#ffffff"> &#160;&#160;&#160;hello_world &#160;= &#160;fashion.shell:main</text>
</g>
<!-- use_install -->
<g id="node17" class="node"><title>use_install</title>
<polygon fill="#0e0f11" stroke="black" stroke-width="0.1" points="802,-325.5 598,-325.5 598,-296.5 802,-296.5 802,-325.5"/>
<text text-anchor="middle" x="700" y="-307.3" font-family="monospace" font-size="14.00" fill="#ffffff">python setup.py install</text>
</g>
<!-- entry_cfg&#45;&gt;use_install -->
<g id="edge19" class="edge"><title>entry_cfg&#45;&gt;use_install</title>
<path fill="none" stroke="black" d="M427.03,-107.529C434.593,-113.013 441.646,-119.145 448,-126 499.322,-181.365 427.378,-242.069 484,-292 517.759,-321.77 567.171,-327.786 610.116,-325.786"/>
<polygon fill="black" stroke="black" points="615.319,-325.503 610.449,-328.021 612.823,-325.639 610.327,-325.774 610.327,-325.774 610.327,-325.774 612.823,-325.639 610.205,-323.528 615.319,-325.503 615.319,-325.503"/>
</g>
<!-- entry_run -->
<g id="node13" class="node"><title>entry_run</title>
<polygon fill="#0e0f11" stroke="black" stroke-width="0.1" points="1384,-108 952,-108 952,-32 1384,-32 1384,-108"/>
<text text-anchor="start" x="959" y="-73.8" font-family="monospace" font-size="14.00" fill="#ffffff">$ hello_world</text>
<text text-anchor="start" x="959" y="-58.8" font-family="monospace" font-size="14.00" fill="#ffffff">Hello World!</text>
</g>
<!-- use_build -->
<g id="node15" class="node"><title>use_build</title>
<polygon fill="#0e0f11" stroke="black" stroke-width="0.1" points="326,-692.5 138,-692.5 138,-663.5 326,-663.5 326,-692.5"/>
<text text-anchor="middle" x="232" y="-674.3" font-family="monospace" font-size="14.00" fill="#ffffff">python setup.py build</text>
</g>
<!-- ubild_label -->
<g id="node16" class="node"><title>ubild_label</title>
<ellipse fill="#ffffcd" stroke="black" stroke-width="0.1" cx="700" cy="-678" rx="30.3115" ry="20.5122"/>
<text text-anchor="middle" x="700" y="-674.3" font-family="monospace" font-size="14.00" fill="#000000">构建</text>
</g>
<!-- use_build&#45;&gt;ubild_label -->
<g id="edge1" class="edge"><title>use_build&#45;&gt;ubild_label</title>
<path fill="none" stroke="black" d="M326.182,-678C430.245,-678 593.354,-678 664.207,-678"/>
<polygon fill="black" stroke="black" points="669.554,-678 664.554,-680.25 667.054,-678 664.554,-678 664.554,-678 664.554,-678 667.054,-678 664.554,-675.75 669.554,-678 669.554,-678"/>
</g>
<!-- use_install&#45;&gt;entry_run -->
<g id="edge20" class="edge"><title>use_install&#45;&gt;entry_run</title>
<path fill="none" stroke="black" d="M802.142,-315.066C839.22,-313.243 880.716,-307.174 916,-292 1008.45,-252.24 1090.57,-164.841 1134.11,-112.344"/>
<polygon fill="black" stroke="black" points="1137.43,-108.313 1135.98,-113.602 1135.84,-110.242 1134.25,-112.171 1134.25,-112.171 1134.25,-112.171 1135.84,-110.242 1132.51,-110.739 1137.43,-108.313 1137.43,-108.313"/>
</g>
<!-- ui_label -->
<g id="node18" class="node"><title>ui_label</title>
<ellipse fill="#ffffcd" stroke="black" stroke-width="0.1" cx="1168" cy="-317" rx="30.3115" ry="20.5122"/>
<text text-anchor="middle" x="1168" y="-313.3" font-family="monospace" font-size="14.00" fill="#000000">安装</text>
</g>
<!-- use_install&#45;&gt;ui_label -->
<g id="edge2" class="edge"><title>use_install&#45;&gt;ui_label</title>
<path fill="none" stroke="black" d="M802.115,-312.302C906.34,-313.644 1063.06,-315.662 1132.16,-316.551"/>
<polygon fill="black" stroke="black" points="1137.38,-316.619 1132.35,-318.804 1134.88,-316.586 1132.38,-316.554 1132.38,-316.554 1132.38,-316.554 1134.88,-316.586 1132.41,-314.304 1137.38,-316.619 1137.38,-316.619"/>
</g>
<!-- use_sdist -->
<g id="node19" class="node"><title>use_sdist</title>
<polygon fill="#0e0f11" stroke="black" stroke-width="0.1" points="326,-615.5 138,-615.5 138,-586.5 326,-586.5 326,-615.5"/>
<text text-anchor="middle" x="232" y="-597.3" font-family="monospace" font-size="14.00" fill="#ffffff">python setup.py sdist</text>
</g>
<!-- us_label -->
<g id="node20" class="node"><title>us_label</title>
<ellipse fill="#ffffcd" stroke="black" stroke-width="0.1" cx="700" cy="-601" rx="60.623" ry="20.5122"/>
<text text-anchor="middle" x="700" y="-597.3" font-family="monospace" font-size="14.00" fill="#000000">创建源码包</text>
</g>
<!-- use_sdist&#45;&gt;us_label -->
<g id="edge3" class="edge"><title>use_sdist&#45;&gt;us_label</title>
<path fill="none" stroke="black" d="M326.182,-601C417.277,-601 553.619,-601 633.714,-601"/>
<polygon fill="black" stroke="black" points="638.907,-601 633.907,-603.25 636.407,-601 633.907,-601 633.907,-601 633.907,-601 636.407,-601 633.907,-598.75 638.907,-601 638.907,-601"/>
</g>
<!-- use_bdist -->
<g id="node21" class="node"><title>use_bdist</title>
<polygon fill="#0e0f11" stroke="black" stroke-width="0.1" points="326,-538.5 138,-538.5 138,-509.5 326,-509.5 326,-538.5"/>
<text text-anchor="middle" x="232" y="-520.3" font-family="monospace" font-size="14.00" fill="#ffffff">python setup.py bdist</text>
</g>
<!-- ub_label -->
<g id="node22" class="node"><title>ub_label</title>
<ellipse fill="#ffffcd" stroke="black" stroke-width="0.1" cx="700" cy="-524" rx="70.922" ry="20.5122"/>
<text text-anchor="middle" x="700" y="-520.3" font-family="monospace" font-size="14.00" fill="#000000">创建二进制包</text>
</g>
<!-- use_bdist&#45;&gt;ub_label -->
<g id="edge4" class="edge"><title>use_bdist&#45;&gt;ub_label</title>
<path fill="none" stroke="black" d="M326.182,-524C413.639,-524 542.8,-524 623.854,-524"/>
<polygon fill="black" stroke="black" points="629.122,-524 624.122,-526.25 626.622,-524 624.122,-524 624.122,-524 624.122,-524 626.622,-524 624.122,-521.75 629.122,-524 629.122,-524"/>
</g>
<!-- use_upload -->
<g id="node23" class="node"><title>use_upload</title>
<polygon fill="#0e0f11" stroke="black" stroke-width="0.1" points="330,-461.5 134,-461.5 134,-432.5 330,-432.5 330,-461.5"/>
<text text-anchor="middle" x="232" y="-443.3" font-family="monospace" font-size="14.00" fill="#ffffff">python setup.py upload</text>
</g>
<!-- uu_label -->
<g id="node24" class="node"><title>uu_label</title>
<ellipse fill="#ffffcd" stroke="black" stroke-width="0.1" cx="700" cy="-447" rx="69.0935" ry="20.5122"/>
<text text-anchor="middle" x="700" y="-443.3" font-family="monospace" font-size="14.00" fill="#000000">上传到 pypi</text>
</g>
<!-- use_upload&#45;&gt;uu_label -->
<g id="edge5" class="edge"><title>use_upload&#45;&gt;uu_label</title>
<path fill="none" stroke="black" d="M330.122,-447C418.082,-447 545.755,-447 625.499,-447"/>
<polygon fill="black" stroke="black" points="630.681,-447 625.681,-449.25 628.181,-447 625.681,-447 625.681,-447 625.681,-447 628.181,-447 625.681,-444.75 630.681,-447 630.681,-447"/>
</g>
<!-- utest_label -->
<g id="node26" class="node"><title>utest_label</title>
<ellipse fill="#ffffcd" stroke="black" stroke-width="0.1" cx="1168" cy="-394" rx="30.3115" ry="20.5122"/>
<text text-anchor="middle" x="1168" y="-390.3" font-family="monospace" font-size="14.00" fill="#000000">测试</text>
</g>
<!-- use_test&#45;&gt;utest_label -->
<g id="edge6" class="edge"><title>use_test&#45;&gt;utest_label</title>
<path fill="none" stroke="black" d="M790.023,-379.439C893.783,-383.447 1060.19,-389.874 1132.07,-392.651"/>
<polygon fill="black" stroke="black" points="1137.49,-392.86 1132.41,-394.916 1135,-392.764 1132.5,-392.667 1132.5,-392.667 1132.5,-392.667 1135,-392.764 1132.58,-390.419 1137.49,-392.86 1137.49,-392.86"/>
</g>
</g>
</svg>
