<?xml version="1.0" encoding="UTF-8" standalone="no"?>
<!DOCTYPE svg PUBLIC "-//W3C//DTD SVG 1.1//EN"
 "http://www.w3.org/Graphics/SVG/1.1/DTD/svg11.dtd">
<!-- Generated by graphviz version 2.38.0 (20140413.2041)
 -->
<!-- Title: %3 Pages: 1 -->
<svg width="472pt" height="579pt"
 viewBox="0.00 0.00 472.00 579.00" xmlns="http://www.w3.org/2000/svg" xmlns:xlink="http://www.w3.org/1999/xlink">
<g id="graph0" class="graph" transform="scale(1 1) rotate(0) translate(4 575)">
<title>%3</title>
<polygon fill="white" stroke="none" points="-4,4 -4,-575 468,-575 468,4 -4,4"/>
<g id="clust1" class="cluster"><title>cluster_box</title>
<polygon fill="none" stroke="black" stroke-width="0.1" points="8,-8 8,-563 456,-563 456,-8 8,-8"/>
</g>
<!-- start -->
<g id="node1" class="node"><title>start</title>
<ellipse fill="#ffffcd" stroke="black" stroke-width="0.1" cx="232" cy="-519" rx="216" ry="36"/>
<text text-anchor="middle" x="232" y="-515.2" font-family="Microsoft YaHei" font-size="16.00">fashion:create folder</text>
</g>
<!-- create_setuppy -->
<g id="node2" class="node"><title>create_setuppy</title>
<polygon fill="#ccffcc" stroke="black" stroke-width="0.1" points="448,-446 16,-446 16,-251 448,-251 448,-446"/>
<text text-anchor="start" x="23" y="-407.2" font-family="Microsoft YaHei" font-size="16.00">from setuptools import setup</text>
<text text-anchor="start" x="23" y="-389.2" font-family="Microsoft YaHei" font-size="16.00">setup(</text>
<text text-anchor="start" x="23" y="-371.2" font-family="Microsoft YaHei" font-size="16.00"> &#160;&#160;&#160;&#160;&#160;name=&quot;fashion&quot;,</text>
<text text-anchor="start" x="23" y="-353.2" font-family="Microsoft YaHei" font-size="16.00"> &#160;&#160;&#160;&#160;&#160;version=&quot;0.0.1&quot;,</text>
<text text-anchor="start" x="23" y="-335.2" font-family="Microsoft YaHei" font-size="16.00"> &#160;&#160;&#160;&#160;&#160;author=&quot;xxx&quot;,</text>
<text text-anchor="start" x="23" y="-317.2" font-family="Microsoft YaHei" font-size="16.00"> &#160;&#160;&#160;&#160;&#160;author_email=&quot;xxxx&quot;,</text>
<text text-anchor="start" x="23" y="-299.2" font-family="Microsoft YaHei" font-size="16.00"> &#160;&#160;&#160;&#160;&#160;url=&quot;xxx&quot;,</text>
<text text-anchor="start" x="23" y="-281.2" font-family="Microsoft YaHei" font-size="16.00"> &#160;&#160;&#160;&#160;&#160;packages=[&quot;fashion&quot;]</text>
<text text-anchor="start" x="23" y="-263.2" font-family="Microsoft YaHei" font-size="16.00">)</text>
</g>
<!-- start&#45;&gt;create_setuppy -->
<g id="edge1" class="edge"><title>start&#45;&gt;create_setuppy</title>
<path fill="none" stroke="black" d="M232,-482.677C232,-473.22 232,-462.505 232,-451.36"/>
<polygon fill="black" stroke="black" points="232,-446.212 234.25,-451.211 232,-448.712 232,-451.212 232,-451.212 232,-451.212 232,-448.712 229.75,-451.212 232,-446.212 232,-446.212"/>
</g>
<!-- check -->
<g id="node3" class="node"><title>check</title>
<polygon fill="#ff0000" stroke="black" stroke-width="0.1" points="232,-124 138.931,-70 232,-16 325.069,-70 232,-124"/>
<text text-anchor="middle" x="232" y="-66.2" font-family="Microsoft YaHei" font-size="16.00" fill="#ffffcd">setup.py check</text>
</g>
<!-- create_setuppy&#45;&gt;check -->
<g id="edge2" class="edge"><title>create_setuppy&#45;&gt;check</title>
<path fill="none" stroke="black" d="M217.183,-250.575C215.189,-227.465 214.33,-202.871 216,-180 217.325,-161.848 219.876,-142.131 222.558,-124.52"/>
<polygon fill="black" stroke="black" points="223.393,-119.126 224.851,-124.411 223.01,-121.596 222.628,-124.067 222.628,-124.067 222.628,-124.067 223.01,-121.596 220.404,-123.722 223.393,-119.126 223.393,-119.126"/>
</g>
<!-- check&#45;&gt;create_setuppy -->
<g id="edge3" class="edge"><title>check&#45;&gt;create_setuppy</title>
<path fill="none" stroke="black" d="M232,-124.164C232,-158.587 232,-204.525 232,-245.786"/>
<polygon fill="black" stroke="black" points="232,-250.794 229.75,-245.794 232,-248.294 232,-245.794 232,-245.794 232,-245.794 232,-248.294 234.25,-245.794 232,-250.794 232,-250.794"/>
<text text-anchor="middle" x="242.5" y="-183.8" font-family="Times New Roman,serif" font-size="14.00" fill="#ff0000">NO</text>
</g>
</g>
</svg>
