<?xml version="1.0" encoding="UTF-8" standalone="no"?>
<!DOCTYPE svg PUBLIC "-//W3C//DTD SVG 1.1//EN"
 "http://www.w3.org/Graphics/SVG/1.1/DTD/svg11.dtd">
<!-- Generated by graphviz version 2.38.0 (20140413.2041)
 -->
<!-- Title: %3 Pages: 1 -->
<svg width="753pt" height="332pt"
 viewBox="0.00 0.00 752.50 332.00" xmlns="http://www.w3.org/2000/svg" xmlns:xlink="http://www.w3.org/1999/xlink">
<g id="graph0" class="graph" transform="scale(1 1) rotate(0) translate(4 328)">
<title>%3</title>
<polygon fill="white" stroke="none" points="-4,4 -4,-328 748.5,-328 748.5,4 -4,4"/>
<!-- twisted -->
<g id="node1" class="node"><title>twisted</title>
<path fill="none" stroke="black" d="M518.5,-324C518.5,-324 472.5,-324 472.5,-324 466.5,-324 460.5,-318 460.5,-312 460.5,-312 460.5,-300 460.5,-300 460.5,-294 466.5,-288 472.5,-288 472.5,-288 518.5,-288 518.5,-288 524.5,-288 530.5,-294 530.5,-300 530.5,-300 530.5,-312 530.5,-312 530.5,-318 524.5,-324 518.5,-324"/>
<text text-anchor="middle" x="495.5" y="-302.2" font-family="Microsoft YaHei" font-size="16.00">twisted</text>
</g>
<!-- internet -->
<g id="node2" class="node"><title>internet</title>
<path fill="none" stroke="black" d="M560,-180C560,-180 509,-180 509,-180 503,-180 497,-174 497,-168 497,-168 497,-156 497,-156 497,-150 503,-144 509,-144 509,-144 560,-144 560,-144 566,-144 572,-150 572,-156 572,-156 572,-168 572,-168 572,-174 566,-180 560,-180"/>
<text text-anchor="middle" x="534.5" y="-158.2" font-family="Microsoft YaHei" font-size="16.00">internet</text>
</g>
<!-- twisted&#45;&gt;internet -->
<g id="edge2" class="edge"><title>twisted&#45;&gt;internet</title>
<path fill="none" stroke="black" d="M500.204,-287.871C506.88,-263.564 519.17,-218.819 527.081,-190.013"/>
<polygon fill="black" stroke="black" points="530.506,-190.759 529.779,-180.189 523.756,-188.905 530.506,-190.759"/>
</g>
<!-- web -->
<g id="node3" class="node"><title>web</title>
<path fill="none" stroke="black" d="M479.5,-252C479.5,-252 449.5,-252 449.5,-252 443.5,-252 437.5,-246 437.5,-240 437.5,-240 437.5,-228 437.5,-228 437.5,-222 443.5,-216 449.5,-216 449.5,-216 479.5,-216 479.5,-216 485.5,-216 491.5,-222 491.5,-228 491.5,-228 491.5,-240 491.5,-240 491.5,-246 485.5,-252 479.5,-252"/>
<text text-anchor="middle" x="464.5" y="-230.2" font-family="Microsoft YaHei" font-size="16.00">web</text>
</g>
<!-- twisted&#45;&gt;web -->
<g id="edge1" class="edge"><title>twisted&#45;&gt;web</title>
<path fill="none" stroke="black" d="M487.837,-287.697C484.308,-279.728 480.044,-270.1 476.131,-261.264"/>
<polygon fill="black" stroke="black" points="479.324,-259.831 472.075,-252.104 472.924,-262.665 479.324,-259.831"/>
</g>
<!-- reactor -->
<g id="node7" class="node"><title>reactor</title>
<path fill="none" stroke="black" d="M557,-108C557,-108 512,-108 512,-108 506,-108 500,-102 500,-96 500,-96 500,-84 500,-84 500,-78 506,-72 512,-72 512,-72 557,-72 557,-72 563,-72 569,-78 569,-84 569,-84 569,-96 569,-96 569,-102 563,-108 557,-108"/>
<text text-anchor="middle" x="534.5" y="-86.2" font-family="Microsoft YaHei" font-size="16.00">reactor</text>
</g>
<!-- internet&#45;&gt;reactor -->
<g id="edge3" class="edge"><title>internet&#45;&gt;reactor</title>
<path fill="none" stroke="black" d="M534.5,-143.697C534.5,-135.983 534.5,-126.712 534.5,-118.112"/>
<polygon fill="black" stroke="black" points="538,-118.104 534.5,-108.104 531,-118.104 538,-118.104"/>
</g>
<!-- client -->
<g id="node5" class="node"><title>client</title>
<path fill="none" stroke="black" d="M467,-180C467,-180 434,-180 434,-180 428,-180 422,-174 422,-168 422,-168 422,-156 422,-156 422,-150 428,-144 434,-144 434,-144 467,-144 467,-144 473,-144 479,-150 479,-156 479,-156 479,-168 479,-168 479,-174 473,-180 467,-180"/>
<text text-anchor="middle" x="450.5" y="-158.2" font-family="Microsoft YaHei" font-size="16.00">client</text>
</g>
<!-- web&#45;&gt;client -->
<g id="edge4" class="edge"><title>web&#45;&gt;client</title>
<path fill="none" stroke="black" d="M461.039,-215.697C459.497,-207.983 457.642,-198.712 455.922,-190.112"/>
<polygon fill="black" stroke="black" points="459.314,-189.224 453.921,-180.104 452.45,-190.597 459.314,-189.224"/>
</g>
<!-- reactor_p -->
<g id="node4" class="node"><title>reactor_p</title>
<path fill="none" stroke="black" d="M57,-36C57,-36 12,-36 12,-36 6,-36 0,-30 0,-24 0,-24 0,-12 0,-12 0,-6 6,-0 12,-0 12,-0 57,-0 57,-0 63,-0 69,-6 69,-12 69,-12 69,-24 69,-24 69,-30 63,-36 57,-36"/>
<text text-anchor="middle" x="34.5" y="-14.2" font-family="Microsoft YaHei" font-size="16.00">reactor</text>
</g>
<!-- Agent -->
<g id="node6" class="node"><title>Agent</title>
<polygon fill="lightgrey" stroke="black" points="480.5,-108 420.5,-108 420.5,-72 480.5,-72 480.5,-108"/>
<text text-anchor="middle" x="450.5" y="-86.2" font-family="Microsoft YaHei" font-size="16.00">Agent</text>
</g>
<!-- client&#45;&gt;Agent -->
<g id="edge5" class="edge"><title>client&#45;&gt;Agent</title>
<path fill="none" stroke="black" d="M450.5,-143.697C450.5,-135.983 450.5,-126.712 450.5,-118.112"/>
<polygon fill="black" stroke="black" points="454,-118.104 450.5,-108.104 447,-118.104 454,-118.104"/>
</g>
<!-- Agent&#45;&gt;reactor_p -->
<g id="edge7" class="edge"><title>Agent&#45;&gt;reactor_p</title>
<path fill="none" stroke="black" d="M443.5,-71C443.5,-71 244.394,-74.0703 79.265,-36.0615"/>
<polygon fill="black" stroke="black" points="79.9758,-32.6332 69.439,-33.7408 78.3668,-39.4458 79.9758,-32.6332"/>
</g>
<!-- Agent&#45;&gt;reactor -->
<g id="edge6" class="edge"><title>Agent:e&#45;&gt;reactor</title>
<path fill="none" stroke="black" d="M480.5,-90C483.531,-90 486.659,-90 489.809,-90"/>
<polygon fill="black" stroke="black" points="489.855,-93.5001 499.855,-90 489.855,-86.5001 489.855,-93.5001"/>
</g>
<!-- contextFactory -->
<g id="node8" class="node"><title>contextFactory</title>
<ellipse fill="none" stroke="black" cx="152.5" cy="-18" rx="65.7887" ry="18"/>
<text text-anchor="middle" x="152.5" y="-14.3" font-family="Times New Roman,serif" font-size="14.00">contextFactory</text>
</g>
<!-- Agent&#45;&gt;contextFactory -->
<g id="edge8" class="edge"><title>Agent&#45;&gt;contextFactory</title>
<path fill="none" stroke="black" d="M443.5,-71C443.5,-71 322.38,-54.7243 226.5,-36 221.163,-34.9578 215.625,-33.8101 210.089,-32.6179"/>
<polygon fill="black" stroke="black" points="210.688,-29.1661 200.17,-30.4372 209.185,-36.0029 210.688,-29.1661"/>
</g>
<!-- connectTimeout -->
<g id="node9" class="node"><title>connectTimeout</title>
<ellipse fill="none" stroke="black" cx="305.5" cy="-18" rx="69.5877" ry="18"/>
<text text-anchor="middle" x="305.5" y="-14.3" font-family="Times New Roman,serif" font-size="14.00">connectTimeout</text>
</g>
<!-- Agent&#45;&gt;connectTimeout -->
<g id="edge9" class="edge"><title>Agent&#45;&gt;connectTimeout</title>
<path fill="none" stroke="black" d="M443.5,-71C443.5,-71 392.563,-51.8063 352.582,-36.7409"/>
<polygon fill="black" stroke="black" points="353.801,-33.4602 343.209,-33.2092 351.333,-40.0106 353.801,-33.4602"/>
</g>
<!-- bindAddress -->
<g id="node10" class="node"><title>bindAddress</title>
<ellipse fill="none" stroke="black" cx="450.5" cy="-18" rx="57.6901" ry="18"/>
<text text-anchor="middle" x="450.5" y="-14.3" font-family="Times New Roman,serif" font-size="14.00">bindAddress</text>
</g>
<!-- Agent&#45;&gt;bindAddress -->
<g id="edge10" class="edge"><title>Agent&#45;&gt;bindAddress</title>
<path fill="none" stroke="black" d="M443.5,-71C443.5,-71 445.16,-58.6672 446.864,-46.0138"/>
<polygon fill="black" stroke="black" points="450.342,-46.4043 448.208,-36.0267 443.405,-45.4704 450.342,-46.4043"/>
</g>
<!-- pool -->
<g id="node11" class="node"><title>pool</title>
<ellipse fill="none" stroke="black" cx="553.5" cy="-18" rx="27.0966" ry="18"/>
<text text-anchor="middle" x="553.5" y="-14.3" font-family="Times New Roman,serif" font-size="14.00">pool</text>
</g>
<!-- Agent&#45;&gt;pool -->
<g id="edge11" class="edge"><title>Agent&#45;&gt;pool</title>
<path fill="none" stroke="black" d="M443.5,-71C443.5,-71 490.318,-48.8677 522.867,-33.4811"/>
<polygon fill="black" stroke="black" points="524.485,-36.5877 532.03,-29.1496 521.493,-30.2592 524.485,-36.5877"/>
</g>
<!-- request -->
<g id="node12" class="node"><title>request</title>
<ellipse fill="none" stroke="black" cx="635.5" cy="-18" rx="37.0935" ry="18"/>
<text text-anchor="middle" x="635.5" y="-14.3" font-family="Times New Roman,serif" font-size="14.00">request</text>
</g>
<!-- Agent&#45;&gt;request -->
<g id="edge12" class="edge"><title>Agent&#45;&gt;request</title>
<path fill="none" stroke="black" d="M443.5,-71C443.5,-71 525.648,-55.3774 589.5,-36 592.25,-35.1655 595.074,-34.2556 597.905,-33.3047"/>
<polygon fill="black" stroke="black" points="599.176,-36.5681 607.46,-29.9633 596.865,-29.9605 599.176,-36.5681"/>
</g>
<!-- run -->
<g id="node13" class="node"><title>run</title>
<ellipse fill="none" stroke="black" cx="717.5" cy="-18" rx="27" ry="18"/>
<text text-anchor="middle" x="717.5" y="-14.3" font-family="Times New Roman,serif" font-size="14.00">run</text>
</g>
<!-- reactor&#45;&gt;run -->
<g id="edge13" class="edge"><title>reactor&#45;&gt;run</title>
<path fill="none" stroke="black" d="M569.012,-77.5956C599.028,-67.4308 643.543,-51.7629 681.5,-36 683.319,-35.2445 685.18,-34.4465 687.049,-33.6249"/>
<polygon fill="black" stroke="black" points="688.674,-36.7309 696.33,-29.4067 685.778,-30.3583 688.674,-36.7309"/>
</g>
</g>
</svg>
