<?xml version="1.0" encoding="UTF-8" standalone="no"?>
<!DOCTYPE svg PUBLIC "-//W3C//DTD SVG 1.1//EN"
 "http://www.w3.org/Graphics/SVG/1.1/DTD/svg11.dtd">
<!-- Generated by graphviz version 2.38.0 (20140413.2041)
 -->
<!-- Title: %3 Pages: 1 -->
<svg width="669pt" height="639pt"
 viewBox="0.00 0.00 669.00 639.00" xmlns="http://www.w3.org/2000/svg" xmlns:xlink="http://www.w3.org/1999/xlink">
<g id="graph0" class="graph" transform="scale(1 1) rotate(0) translate(4 635)">
<title>%3</title>
<polygon fill="white" stroke="none" points="-4,4 -4,-635 665,-635 665,4 -4,4"/>
<g id="clust1" class="cluster"><title>cluster_commands</title>
<polygon fill="none" stroke="#ff5ee5" points="102,-8 102,-623 653,-623 653,-8 102,-8"/>
<text text-anchor="middle" x="377.5" y="-607.8" font-family="Times New Roman,serif" font-size="14.00">commands</text>
</g>
<!-- setuptools -->
<g id="node1" class="node"><title>setuptools</title>
<path fill="#99ff5e" stroke="black" d="M62,-322C62,-322 12,-322 12,-322 6,-322 0,-316 0,-310 0,-310 0,-298 0,-298 0,-292 6,-286 12,-286 12,-286 62,-286 62,-286 68,-286 74,-292 74,-298 74,-298 74,-310 74,-310 74,-316 68,-322 62,-322"/>
<text text-anchor="middle" x="37" y="-300.3" font-family="Times New Roman,serif" font-size="14.00">setuptools</text>
</g>
<!-- commands_commands -->
<g id="node2" class="node"><title>commands_commands</title>
<path fill="#ff5ee5" stroke="black" d="M176,-322C176,-322 122,-322 122,-322 116,-322 110,-316 110,-310 110,-310 110,-298 110,-298 110,-292 116,-286 122,-286 122,-286 176,-286 176,-286 182,-286 188,-292 188,-298 188,-298 188,-310 188,-310 188,-316 182,-322 176,-322"/>
<text text-anchor="middle" x="149" y="-300.3" font-family="Times New Roman,serif" font-size="14.00">commands</text>
</g>
<!-- setuptools&#45;&gt;commands_commands -->
<g id="edge1" class="edge"><title>setuptools&#45;&gt;commands_commands</title>
<path fill="none" stroke="black" d="M74.0181,-304C82.1254,-304 90.8599,-304 99.3868,-304"/>
<polygon fill="black" stroke="black" points="99.6287,-307.5 109.629,-304 99.6287,-300.5 99.6287,-307.5"/>
</g>
<!-- commandsalias -->
<g id="node3" class="node"><title>commandsalias</title>
<path fill="#ff5ee5" stroke="black" d="M274.5,-52C274.5,-52 244.5,-52 244.5,-52 238.5,-52 232.5,-46 232.5,-40 232.5,-40 232.5,-28 232.5,-28 232.5,-22 238.5,-16 244.5,-16 244.5,-16 274.5,-16 274.5,-16 280.5,-16 286.5,-22 286.5,-28 286.5,-28 286.5,-40 286.5,-40 286.5,-46 280.5,-52 274.5,-52"/>
<text text-anchor="middle" x="259.5" y="-30.3" font-family="Times New Roman,serif" font-size="14.00">alias</text>
</g>
<!-- commands_commands&#45;&gt;commandsalias -->
<g id="edge2" class="edge"><title>commands_commands&#45;&gt;commandsalias</title>
<path fill="none" stroke="black" d="M151.763,-285.931C156.669,-243.289 173.614,-134.464 224,-61 224.436,-60.3649 224.891,-59.7379 225.363,-59.1192"/>
<polygon fill="black" stroke="black" points="228.106,-61.3071 232.297,-51.5763 222.952,-56.5698 228.106,-61.3071"/>
</g>
<!-- commandsbdist_egg -->
<g id="node5" class="node"><title>commandsbdist_egg</title>
<path fill="#ff5ee5" stroke="black" d="M283,-106C283,-106 236,-106 236,-106 230,-106 224,-100 224,-94 224,-94 224,-82 224,-82 224,-76 230,-70 236,-70 236,-70 283,-70 283,-70 289,-70 295,-76 295,-82 295,-82 295,-94 295,-94 295,-100 289,-106 283,-106"/>
<text text-anchor="middle" x="259.5" y="-84.3" font-family="Times New Roman,serif" font-size="14.00">bdist_egg</text>
</g>
<!-- commands_commands&#45;&gt;commandsbdist_egg -->
<g id="edge4" class="edge"><title>commands_commands&#45;&gt;commandsbdist_egg</title>
<path fill="none" stroke="black" d="M153.735,-285.761C161.729,-250.099 183.176,-169.834 224,-115 224.369,-114.504 224.749,-114.013 225.14,-113.526"/>
<polygon fill="black" stroke="black" points="227.865,-115.738 232.191,-106.067 222.778,-110.929 227.865,-115.738"/>
</g>
<!-- commandsdevelop -->
<g id="node7" class="node"><title>commandsdevelop</title>
<path fill="#ff5ee5" stroke="black" d="M278,-160C278,-160 241,-160 241,-160 235,-160 229,-154 229,-148 229,-148 229,-136 229,-136 229,-130 235,-124 241,-124 241,-124 278,-124 278,-124 284,-124 290,-130 290,-136 290,-136 290,-148 290,-148 290,-154 284,-160 278,-160"/>
<text text-anchor="middle" x="259.5" y="-138.3" font-family="Times New Roman,serif" font-size="14.00">develop</text>
</g>
<!-- commands_commands&#45;&gt;commandsdevelop -->
<g id="edge6" class="edge"><title>commands_commands&#45;&gt;commandsdevelop</title>
<path fill="none" stroke="black" d="M157.082,-285.975C168.393,-258.668 192.511,-206.077 224,-169 224.499,-168.413 225.012,-167.83 225.537,-167.252"/>
<polygon fill="black" stroke="black" points="228.204,-169.541 232.924,-160.055 223.319,-164.527 228.204,-169.541"/>
</g>
<!-- commandsegg_info -->
<g id="node9" class="node"><title>commandsegg_info</title>
<path fill="#ff5ee5" stroke="black" d="M280,-214C280,-214 239,-214 239,-214 233,-214 227,-208 227,-202 227,-202 227,-190 227,-190 227,-184 233,-178 239,-178 239,-178 280,-178 280,-178 286,-178 292,-184 292,-190 292,-190 292,-202 292,-202 292,-208 286,-214 280,-214"/>
<text text-anchor="middle" x="259.5" y="-192.3" font-family="Times New Roman,serif" font-size="14.00">egg_info</text>
</g>
<!-- commands_commands&#45;&gt;commandsegg_info -->
<g id="edge8" class="edge"><title>commands_commands&#45;&gt;commandsegg_info</title>
<path fill="none" stroke="black" d="M165.075,-285.822C179.493,-268.856 202.204,-243.195 224,-223 224.809,-222.25 225.637,-221.499 226.479,-220.749"/>
<polygon fill="black" stroke="black" points="228.963,-223.232 234.317,-214.09 224.43,-217.897 228.963,-223.232"/>
</g>
<!-- commandsrotate -->
<g id="node11" class="node"><title>commandsrotate</title>
<path fill="#ff5ee5" stroke="black" d="M274.5,-268C274.5,-268 244.5,-268 244.5,-268 238.5,-268 232.5,-262 232.5,-256 232.5,-256 232.5,-244 232.5,-244 232.5,-238 238.5,-232 244.5,-232 244.5,-232 274.5,-232 274.5,-232 280.5,-232 286.5,-238 286.5,-244 286.5,-244 286.5,-256 286.5,-256 286.5,-262 280.5,-268 274.5,-268"/>
<text text-anchor="middle" x="259.5" y="-246.3" font-family="Times New Roman,serif" font-size="14.00">rotate</text>
</g>
<!-- commands_commands&#45;&gt;commandsrotate -->
<g id="edge10" class="edge"><title>commands_commands&#45;&gt;commandsrotate</title>
<path fill="none" stroke="black" d="M186.431,-285.869C198.284,-279.969 211.413,-273.435 223.183,-267.577"/>
<polygon fill="black" stroke="black" points="224.888,-270.638 232.281,-263.049 221.769,-264.372 224.888,-270.638"/>
</g>
<!-- commandssaveopts -->
<g id="node13" class="node"><title>commandssaveopts</title>
<path fill="#ff5ee5" stroke="black" d="M280.5,-322C280.5,-322 238.5,-322 238.5,-322 232.5,-322 226.5,-316 226.5,-310 226.5,-310 226.5,-298 226.5,-298 226.5,-292 232.5,-286 238.5,-286 238.5,-286 280.5,-286 280.5,-286 286.5,-286 292.5,-292 292.5,-298 292.5,-298 292.5,-310 292.5,-310 292.5,-316 286.5,-322 280.5,-322"/>
<text text-anchor="middle" x="259.5" y="-300.3" font-family="Times New Roman,serif" font-size="14.00">saveopts</text>
</g>
<!-- commands_commands&#45;&gt;commandssaveopts -->
<g id="edge12" class="edge"><title>commands_commands&#45;&gt;commandssaveopts</title>
<path fill="none" stroke="black" d="M188.253,-304C197.296,-304 206.99,-304 216.201,-304"/>
<polygon fill="black" stroke="black" points="216.334,-307.5 226.334,-304 216.334,-300.5 216.334,-307.5"/>
</g>
<!-- commandssetopt -->
<g id="node15" class="node"><title>commandssetopt</title>
<path fill="#ff5ee5" stroke="black" d="M274.5,-376C274.5,-376 244.5,-376 244.5,-376 238.5,-376 232.5,-370 232.5,-364 232.5,-364 232.5,-352 232.5,-352 232.5,-346 238.5,-340 244.5,-340 244.5,-340 274.5,-340 274.5,-340 280.5,-340 286.5,-346 286.5,-352 286.5,-352 286.5,-364 286.5,-364 286.5,-370 280.5,-376 274.5,-376"/>
<text text-anchor="middle" x="259.5" y="-354.3" font-family="Times New Roman,serif" font-size="14.00">setopt</text>
</g>
<!-- commands_commands&#45;&gt;commandssetopt -->
<g id="edge14" class="edge"><title>commands_commands&#45;&gt;commandssetopt</title>
<path fill="none" stroke="black" d="M186.431,-322.131C198.284,-328.031 211.413,-334.565 223.183,-340.423"/>
<polygon fill="black" stroke="black" points="221.769,-343.628 232.281,-344.951 224.888,-337.362 221.769,-343.628"/>
</g>
<!-- commandstest -->
<g id="node17" class="node"><title>commandstest</title>
<path fill="#ff5ee5" stroke="black" d="M274.5,-430C274.5,-430 244.5,-430 244.5,-430 238.5,-430 232.5,-424 232.5,-418 232.5,-418 232.5,-406 232.5,-406 232.5,-400 238.5,-394 244.5,-394 244.5,-394 274.5,-394 274.5,-394 280.5,-394 286.5,-400 286.5,-406 286.5,-406 286.5,-418 286.5,-418 286.5,-424 280.5,-430 274.5,-430"/>
<text text-anchor="middle" x="259.5" y="-408.3" font-family="Times New Roman,serif" font-size="14.00">test</text>
</g>
<!-- commands_commands&#45;&gt;commandstest -->
<g id="edge16" class="edge"><title>commands_commands&#45;&gt;commandstest</title>
<path fill="none" stroke="black" d="M165.075,-322.178C179.493,-339.144 202.204,-364.805 224,-385 224.809,-385.75 225.637,-386.501 226.479,-387.251"/>
<polygon fill="black" stroke="black" points="224.43,-390.103 234.317,-393.91 228.963,-384.768 224.43,-390.103"/>
</g>
<!-- commandsupload -->
<g id="node19" class="node"><title>commandsupload</title>
<path fill="#ff5ee5" stroke="black" d="M275,-484C275,-484 244,-484 244,-484 238,-484 232,-478 232,-472 232,-472 232,-460 232,-460 232,-454 238,-448 244,-448 244,-448 275,-448 275,-448 281,-448 287,-454 287,-460 287,-460 287,-472 287,-472 287,-478 281,-484 275,-484"/>
<text text-anchor="middle" x="259.5" y="-462.3" font-family="Times New Roman,serif" font-size="14.00">upload</text>
</g>
<!-- commands_commands&#45;&gt;commandsupload -->
<g id="edge18" class="edge"><title>commands_commands&#45;&gt;commandsupload</title>
<path fill="none" stroke="black" d="M157.082,-322.025C168.393,-349.332 192.511,-401.923 224,-439 224.499,-439.587 225.012,-440.17 225.537,-440.748"/>
<polygon fill="black" stroke="black" points="223.319,-443.473 232.924,-447.945 228.204,-438.459 223.319,-443.473"/>
</g>
<!-- commandsbuild -->
<g id="node21" class="node"><title>commandsbuild</title>
<path fill="#ff5ee5" stroke="black" d="M274.5,-538C274.5,-538 244.5,-538 244.5,-538 238.5,-538 232.5,-532 232.5,-526 232.5,-526 232.5,-514 232.5,-514 232.5,-508 238.5,-502 244.5,-502 244.5,-502 274.5,-502 274.5,-502 280.5,-502 286.5,-508 286.5,-514 286.5,-514 286.5,-526 286.5,-526 286.5,-532 280.5,-538 274.5,-538"/>
<text text-anchor="middle" x="259.5" y="-516.3" font-family="Times New Roman,serif" font-size="14.00">build</text>
</g>
<!-- commands_commands&#45;&gt;commandsbuild -->
<g id="edge20" class="edge"><title>commands_commands&#45;&gt;commandsbuild</title>
<path fill="none" stroke="black" d="M153.735,-322.239C161.729,-357.901 183.176,-438.166 224,-493 224.369,-493.496 224.749,-493.987 225.14,-494.474"/>
<polygon fill="black" stroke="black" points="222.778,-497.071 232.191,-501.933 227.865,-492.262 222.778,-497.071"/>
</g>
<!-- commandsrelease -->
<g id="node23" class="node"><title>commandsrelease</title>
<path fill="#ff5ee5" stroke="black" d="M274.5,-592C274.5,-592 244.5,-592 244.5,-592 238.5,-592 232.5,-586 232.5,-580 232.5,-580 232.5,-568 232.5,-568 232.5,-562 238.5,-556 244.5,-556 244.5,-556 274.5,-556 274.5,-556 280.5,-556 286.5,-562 286.5,-568 286.5,-568 286.5,-580 286.5,-580 286.5,-586 280.5,-592 274.5,-592"/>
<text text-anchor="middle" x="259.5" y="-570.3" font-family="Times New Roman,serif" font-size="14.00">release</text>
</g>
<!-- commands_commands&#45;&gt;commandsrelease -->
<g id="edge22" class="edge"><title>commands_commands&#45;&gt;commandsrelease</title>
<path fill="none" stroke="black" d="M151.763,-322.069C156.669,-364.711 173.614,-473.536 224,-547 224.436,-547.635 224.891,-548.262 225.363,-548.881"/>
<polygon fill="black" stroke="black" points="222.952,-551.43 232.297,-556.424 228.106,-546.693 222.952,-551.43"/>
</g>
<!-- commandsalias2 -->
<g id="node4" class="node"><title>commandsalias2</title>
<path fill="#ff5ee5" stroke="black" d="M625.5,-52C625.5,-52 350.5,-52 350.5,-52 344.5,-52 338.5,-46 338.5,-40 338.5,-40 338.5,-28 338.5,-28 338.5,-22 344.5,-16 350.5,-16 350.5,-16 625.5,-16 625.5,-16 631.5,-16 637.5,-22 637.5,-28 637.5,-28 637.5,-40 637.5,-40 637.5,-46 631.5,-52 625.5,-52"/>
<text text-anchor="middle" x="488" y="-30.3" font-family="Times New Roman,serif" font-size="14.00"> &#45; Define shortcuts for commonly used commands</text>
</g>
<!-- commandsalias&#45;&gt;commandsalias2 -->
<g id="edge3" class="edge"><title>commandsalias&#45;&gt;commandsalias2</title>
<path fill="none" stroke="black" d="M286.926,-34C298.221,-34 312.397,-34 327.96,-34"/>
<polygon fill="black" stroke="black" points="328.372,-37.5001 338.372,-34 328.372,-30.5001 328.372,-37.5001"/>
</g>
<!-- commandsbdist_egg2 -->
<g id="node6" class="node"><title>commandsbdist_egg2</title>
<path fill="#ff5ee5" stroke="black" d="M589.5,-106C589.5,-106 386.5,-106 386.5,-106 380.5,-106 374.5,-100 374.5,-94 374.5,-94 374.5,-82 374.5,-82 374.5,-76 380.5,-70 386.5,-70 386.5,-70 589.5,-70 589.5,-70 595.5,-70 601.5,-76 601.5,-82 601.5,-82 601.5,-94 601.5,-94 601.5,-100 595.5,-106 589.5,-106"/>
<text text-anchor="middle" x="488" y="-84.3" font-family="Times New Roman,serif" font-size="14.00"> &#45; Create a Python Egg for the project</text>
</g>
<!-- commandsbdist_egg&#45;&gt;commandsbdist_egg2 -->
<g id="edge5" class="edge"><title>commandsbdist_egg&#45;&gt;commandsbdist_egg2</title>
<path fill="none" stroke="black" d="M295.394,-88C314.346,-88 339.041,-88 364.365,-88"/>
<polygon fill="black" stroke="black" points="364.472,-91.5001 374.472,-88 364.472,-84.5001 364.472,-91.5001"/>
</g>
<!-- commandsdevelop2 -->
<g id="node8" class="node"><title>commandsdevelop2</title>
<path fill="#ff5ee5" stroke="black" d="M633,-160C633,-160 343,-160 343,-160 337,-160 331,-154 331,-148 331,-148 331,-136 331,-136 331,-130 337,-124 343,-124 343,-124 633,-124 633,-124 639,-124 645,-130 645,-136 645,-136 645,-148 645,-148 645,-154 639,-160 633,-160"/>
<text text-anchor="middle" x="488" y="-138.3" font-family="Times New Roman,serif" font-size="14.00"> &#45; Deploy the project source in “Development Mode”</text>
</g>
<!-- commandsdevelop&#45;&gt;commandsdevelop2 -->
<g id="edge7" class="edge"><title>commandsdevelop&#45;&gt;commandsdevelop2</title>
<path fill="none" stroke="black" d="M290.111,-142C298.922,-142 309.259,-142 320.502,-142"/>
<polygon fill="black" stroke="black" points="320.6,-145.5 330.6,-142 320.6,-138.5 320.6,-145.5"/>
</g>
<!-- commandsegg_info2 -->
<g id="node10" class="node"><title>commandsegg_info2</title>
<path fill="#ff5ee5" stroke="black" d="M597,-214C597,-214 379,-214 379,-214 373,-214 367,-208 367,-202 367,-202 367,-190 367,-190 367,-184 373,-178 379,-178 379,-178 597,-178 597,-178 603,-178 609,-184 609,-190 609,-190 609,-202 609,-202 609,-208 603,-214 597,-214"/>
<text text-anchor="middle" x="488" y="-192.3" font-family="Times New Roman,serif" font-size="14.00"> &#45; Create egg metadata and set build tags</text>
</g>
<!-- commandsegg_info&#45;&gt;commandsegg_info2 -->
<g id="edge9" class="edge"><title>commandsegg_info&#45;&gt;commandsegg_info2</title>
<path fill="none" stroke="black" d="M292.472,-196C309.864,-196 332.661,-196 356.503,-196"/>
<polygon fill="black" stroke="black" points="356.772,-199.5 366.772,-196 356.772,-192.5 356.772,-199.5"/>
</g>
<!-- commandsrotate2 -->
<g id="node12" class="node"><title>commandsrotate2</title>
<path fill="#ff5ee5" stroke="black" d="M580.5,-268C580.5,-268 395.5,-268 395.5,-268 389.5,-268 383.5,-262 383.5,-256 383.5,-256 383.5,-244 383.5,-244 383.5,-238 389.5,-232 395.5,-232 395.5,-232 580.5,-232 580.5,-232 586.5,-232 592.5,-238 592.5,-244 592.5,-244 592.5,-256 592.5,-256 592.5,-262 586.5,-268 580.5,-268"/>
<text text-anchor="middle" x="488" y="-246.3" font-family="Times New Roman,serif" font-size="14.00"> &#45; Delete outdated distribution files</text>
</g>
<!-- commandsrotate&#45;&gt;commandsrotate2 -->
<g id="edge11" class="edge"><title>commandsrotate&#45;&gt;commandsrotate2</title>
<path fill="none" stroke="black" d="M286.926,-250C308.606,-250 340.895,-250 373.239,-250"/>
<polygon fill="black" stroke="black" points="373.267,-253.5 383.267,-250 373.267,-246.5 373.267,-253.5"/>
</g>
<!-- commandssaveopts2 -->
<g id="node14" class="node"><title>commandssaveopts2</title>
<path fill="#ff5ee5" stroke="black" d="M603,-322C603,-322 373,-322 373,-322 367,-322 361,-316 361,-310 361,-310 361,-298 361,-298 361,-292 367,-286 373,-286 373,-286 603,-286 603,-286 609,-286 615,-292 615,-298 615,-298 615,-310 615,-310 615,-316 609,-322 603,-322"/>
<text text-anchor="middle" x="488" y="-300.3" font-family="Times New Roman,serif" font-size="14.00"> &#45; Save used options to a configuration file</text>
</g>
<!-- commandssaveopts&#45;&gt;commandssaveopts2 -->
<g id="edge13" class="edge"><title>commandssaveopts&#45;&gt;commandssaveopts2</title>
<path fill="none" stroke="black" d="M292.952,-304C308.845,-304 329.167,-304 350.647,-304"/>
<polygon fill="black" stroke="black" points="350.927,-307.5 360.927,-304 350.927,-300.5 350.927,-307.5"/>
</g>
<!-- commandssetopt2 -->
<g id="node16" class="node"><title>commandssetopt2</title>
<path fill="#ff5ee5" stroke="black" d="M627,-376C627,-376 349,-376 349,-376 343,-376 337,-370 337,-364 337,-364 337,-352 337,-352 337,-346 343,-340 349,-340 349,-340 627,-340 627,-340 633,-340 639,-346 639,-352 639,-352 639,-364 639,-364 639,-370 633,-376 627,-376"/>
<text text-anchor="middle" x="488" y="-354.3" font-family="Times New Roman,serif" font-size="14.00"> &#45; Set a distutils or setuptools option in a config file</text>
</g>
<!-- commandssetopt&#45;&gt;commandssetopt2 -->
<g id="edge15" class="edge"><title>commandssetopt&#45;&gt;commandssetopt2</title>
<path fill="none" stroke="black" d="M286.926,-358C297.934,-358 311.678,-358 326.776,-358"/>
<polygon fill="black" stroke="black" points="326.878,-361.5 336.878,-358 326.878,-354.5 326.878,-361.5"/>
</g>
<!-- commandstest2 -->
<g id="node18" class="node"><title>commandstest2</title>
<path fill="#ff5ee5" stroke="black" d="M594,-430C594,-430 382,-430 382,-430 376,-430 370,-424 370,-418 370,-418 370,-406 370,-406 370,-400 376,-394 382,-394 382,-394 594,-394 594,-394 600,-394 606,-400 606,-406 606,-406 606,-418 606,-418 606,-424 600,-430 594,-430"/>
<text text-anchor="middle" x="488" y="-408.3" font-family="Times New Roman,serif" font-size="14.00"> &#45; Build package and run a unittest suite</text>
</g>
<!-- commandstest&#45;&gt;commandstest2 -->
<g id="edge17" class="edge"><title>commandstest&#45;&gt;commandstest2</title>
<path fill="none" stroke="black" d="M286.926,-412C305.582,-412 332.093,-412 359.736,-412"/>
<polygon fill="black" stroke="black" points="359.959,-415.5 369.959,-412 359.959,-408.5 359.959,-415.5"/>
</g>
<!-- commandsupload2 -->
<g id="node20" class="node"><title>commandsupload2</title>
<path fill="#ff5ee5" stroke="black" d="M622.5,-484C622.5,-484 353.5,-484 353.5,-484 347.5,-484 341.5,-478 341.5,-472 341.5,-472 341.5,-460 341.5,-460 341.5,-454 347.5,-448 353.5,-448 353.5,-448 622.5,-448 622.5,-448 628.5,-448 634.5,-454 634.5,-460 634.5,-460 634.5,-472 634.5,-472 634.5,-478 628.5,-484 622.5,-484"/>
<text text-anchor="middle" x="488" y="-462.3" font-family="Times New Roman,serif" font-size="14.00"> &#45; Upload source and/or egg distributions to PyPI</text>
</g>
<!-- commandsupload&#45;&gt;commandsupload2 -->
<g id="edge19" class="edge"><title>commandsupload&#45;&gt;commandsupload2</title>
<path fill="none" stroke="black" d="M287.372,-466C299.308,-466 314.396,-466 330.909,-466"/>
<polygon fill="black" stroke="black" points="331.36,-469.5 341.36,-466 331.36,-462.5 331.36,-469.5"/>
</g>
<!-- commandsbuild2 -->
<g id="node22" class="node"><title>commandsbuild2</title>
<path fill="#ff5ee5" stroke="black" d="M584,-538C584,-538 392,-538 392,-538 386,-538 380,-532 380,-526 380,-526 380,-514 380,-514 380,-508 386,-502 392,-502 392,-502 584,-502 584,-502 590,-502 596,-508 596,-514 596,-514 596,-526 596,-526 596,-532 590,-538 584,-538"/>
<text text-anchor="middle" x="488" y="-516.3" font-family="Times New Roman,serif" font-size="14.00">setup.py build &#45;&#45;compiler=mingw32</text>
</g>
<!-- commandsbuild&#45;&gt;commandsbuild2 -->
<g id="edge21" class="edge"><title>commandsbuild&#45;&gt;commandsbuild2</title>
<path fill="none" stroke="black" d="M286.926,-520C307.828,-520 338.591,-520 369.758,-520"/>
<polygon fill="black" stroke="black" points="369.88,-523.5 379.88,-520 369.88,-516.5 369.88,-523.5"/>
</g>
</g>
</svg>
