<?xml version="1.0" encoding="UTF-8" standalone="no"?>
<!DOCTYPE svg PUBLIC "-//W3C//DTD SVG 1.1//EN"
 "http://www.w3.org/Graphics/SVG/1.1/DTD/svg11.dtd">
<!-- Generated by graphviz version 2.38.0 (20140413.2041)
 -->
<!-- Title: %3 Pages: 1 -->
<svg width="1851pt" height="849pt"
 viewBox="0.00 0.00 1851.00 849.00" xmlns="http://www.w3.org/2000/svg" xmlns:xlink="http://www.w3.org/1999/xlink">
<g id="graph0" class="graph" transform="scale(1 1) rotate(0) translate(4 845)">
<title>%3</title>
<polygon fill="white" stroke="none" points="-4,4 -4,-845 1847,-845 1847,4 -4,4"/>
<g id="clust1" class="cluster"><title>cluster_setup.cfg</title>
<polygon fill="none" stroke="#ff5ee5" points="102,-8 102,-833 1835,-833 1835,-8 102,-8"/>
<text text-anchor="middle" x="968.5" y="-817.8" font-family="Times New Roman,serif" font-size="14.00">setup.cfg</text>
</g>
<g id="clust2" class="cluster"><title>cluster_values</title>
<polygon fill="none" stroke="#ea4f16" points="511.5,-276 511.5,-621 1661.5,-621 1661.5,-276 511.5,-276"/>
<text text-anchor="middle" x="1086.5" y="-605.8" font-family="Times New Roman,serif" font-size="14.00">values</text>
</g>
<g id="clust3" class="cluster"><title>cluster_directives</title>
<polygon fill="none" stroke="#ea4f16" points="503.5,-629 503.5,-758 1827,-758 1827,-629 503.5,-629"/>
<text text-anchor="middle" x="1165.25" y="-742.8" font-family="Times New Roman,serif" font-size="14.00">directives</text>
</g>
<!-- setuptools -->
<g id="node1" class="node"><title>setuptools</title>
<path fill="#99ff5e" stroke="black" d="M62,-241C62,-241 12,-241 12,-241 6,-241 0,-235 0,-229 0,-229 0,-217 0,-217 0,-211 6,-205 12,-205 12,-205 62,-205 62,-205 68,-205 74,-211 74,-217 74,-217 74,-229 74,-229 74,-235 68,-241 62,-241"/>
<text text-anchor="middle" x="37" y="-219.3" font-family="Times New Roman,serif" font-size="14.00">setuptools</text>
</g>
<!-- setup.cfg_setup.cfg -->
<g id="node2" class="node"><title>setup.cfg_setup.cfg</title>
<path fill="#ff5ee5" stroke="black" d="M166,-241C166,-241 122,-241 122,-241 116,-241 110,-235 110,-229 110,-229 110,-217 110,-217 110,-211 116,-205 122,-205 122,-205 166,-205 166,-205 172,-205 178,-211 178,-217 178,-217 178,-229 178,-229 178,-235 172,-241 166,-241"/>
<text text-anchor="middle" x="144" y="-219.3" font-family="Times New Roman,serif" font-size="14.00">setup.cfg</text>
</g>
<!-- setuptools&#45;&gt;setup.cfg_setup.cfg -->
<g id="edge1" class="edge"><title>setuptools&#45;&gt;setup.cfg_setup.cfg</title>
<path fill="none" stroke="black" d="M74.135,-223C82.4012,-223 91.2687,-223 99.798,-223"/>
<polygon fill="black" stroke="black" points="99.971,-226.5 109.971,-223 99.9709,-219.5 99.971,-226.5"/>
</g>
<!-- setup.cfg[metadata] -->
<g id="node3" class="node"><title>setup.cfg[metadata]</title>
<path fill="#ff5ee5" stroke="black" d="M314.5,-52C314.5,-52 263.5,-52 263.5,-52 257.5,-52 251.5,-46 251.5,-40 251.5,-40 251.5,-28 251.5,-28 251.5,-22 257.5,-16 263.5,-16 263.5,-16 314.5,-16 314.5,-16 320.5,-16 326.5,-22 326.5,-28 326.5,-28 326.5,-40 326.5,-40 326.5,-46 320.5,-52 314.5,-52"/>
<text text-anchor="middle" x="289" y="-30.3" font-family="Times New Roman,serif" font-size="14.00">[metadata]</text>
</g>
<!-- setup.cfg_setup.cfg&#45;&gt;setup.cfg[metadata] -->
<g id="edge2" class="edge"><title>setup.cfg_setup.cfg&#45;&gt;setup.cfg[metadata]</title>
<path fill="none" stroke="black" d="M147.893,-204.743C154.079,-171.583 171.638,-101.183 214,-61 221.745,-53.6539 231.646,-48.2774 241.669,-44.3524"/>
<polygon fill="black" stroke="black" points="242.956,-47.6104 251.249,-41.017 240.654,-40.9995 242.956,-47.6104"/>
</g>
<!-- setup.cfg[options] -->
<g id="node6" class="node"><title>setup.cfg[options]</title>
<path fill="#ff5ee5" stroke="black" d="M311,-106C311,-106 267,-106 267,-106 261,-106 255,-100 255,-94 255,-94 255,-82 255,-82 255,-76 261,-70 267,-70 267,-70 311,-70 311,-70 317,-70 323,-76 323,-82 323,-82 323,-94 323,-94 323,-100 317,-106 311,-106"/>
<text text-anchor="middle" x="289" y="-84.3" font-family="Times New Roman,serif" font-size="14.00">[options]</text>
</g>
<!-- setup.cfg_setup.cfg&#45;&gt;setup.cfg[options] -->
<g id="edge5" class="edge"><title>setup.cfg_setup.cfg&#45;&gt;setup.cfg[options]</title>
<path fill="none" stroke="black" d="M152.23,-204.723C162.536,-180.886 183.627,-139.364 214,-115 222.984,-107.793 234.066,-102.406 244.893,-98.4212"/>
<polygon fill="black" stroke="black" points="246.322,-101.634 254.697,-95.144 244.103,-94.9949 246.322,-101.634"/>
</g>
<!-- setup.cfg[options.package_data] -->
<g id="node8" class="node"><title>setup.cfg[options.package_data]</title>
<path fill="#ff5ee5" stroke="black" d="M351,-160C351,-160 227,-160 227,-160 221,-160 215,-154 215,-148 215,-148 215,-136 215,-136 215,-130 221,-124 227,-124 227,-124 351,-124 351,-124 357,-124 363,-130 363,-136 363,-136 363,-148 363,-148 363,-154 357,-160 351,-160"/>
<text text-anchor="middle" x="289" y="-138.3" font-family="Times New Roman,serif" font-size="14.00">[options.package_data]</text>
</g>
<!-- setup.cfg_setup.cfg&#45;&gt;setup.cfg[options.package_data] -->
<g id="edge7" class="edge"><title>setup.cfg_setup.cfg&#45;&gt;setup.cfg[options.package_data]</title>
<path fill="none" stroke="black" d="M164.641,-204.895C177.841,-193.442 196.047,-178.97 214,-169 217.021,-167.322 220.166,-165.713 223.382,-164.175"/>
<polygon fill="black" stroke="black" points="224.905,-167.327 232.586,-160.03 222.031,-160.944 224.905,-167.327"/>
</g>
<!-- setup.cfg[options.extras_require] -->
<g id="node10" class="node"><title>setup.cfg[options.extras_require]</title>
<path fill="#ff5ee5" stroke="black" d="M352,-214C352,-214 226,-214 226,-214 220,-214 214,-208 214,-202 214,-202 214,-190 214,-190 214,-184 220,-178 226,-178 226,-178 352,-178 352,-178 358,-178 364,-184 364,-190 364,-190 364,-202 364,-202 364,-208 358,-214 352,-214"/>
<text text-anchor="middle" x="289" y="-192.3" font-family="Times New Roman,serif" font-size="14.00">[options.extras_require]</text>
</g>
<!-- setup.cfg_setup.cfg&#45;&gt;setup.cfg[options.extras_require] -->
<g id="edge9" class="edge"><title>setup.cfg_setup.cfg&#45;&gt;setup.cfg[options.extras_require]</title>
<path fill="none" stroke="black" d="M178.167,-216.738C186.043,-215.251 194.801,-213.597 203.838,-211.891"/>
<polygon fill="black" stroke="black" points="204.548,-215.319 213.725,-210.024 203.249,-208.44 204.548,-215.319"/>
</g>
<!-- setup.cfg[options.packages.find] -->
<g id="node12" class="node"><title>setup.cfg[options.packages.find]</title>
<path fill="#ff5ee5" stroke="black" d="M351.5,-268C351.5,-268 226.5,-268 226.5,-268 220.5,-268 214.5,-262 214.5,-256 214.5,-256 214.5,-244 214.5,-244 214.5,-238 220.5,-232 226.5,-232 226.5,-232 351.5,-232 351.5,-232 357.5,-232 363.5,-238 363.5,-244 363.5,-244 363.5,-256 363.5,-256 363.5,-262 357.5,-268 351.5,-268"/>
<text text-anchor="middle" x="289" y="-246.3" font-family="Times New Roman,serif" font-size="14.00">[options.packages.find]</text>
</g>
<!-- setup.cfg_setup.cfg&#45;&gt;setup.cfg[options.packages.find] -->
<g id="edge11" class="edge"><title>setup.cfg_setup.cfg&#45;&gt;setup.cfg[options.packages.find]</title>
<path fill="none" stroke="black" d="M178.167,-229.262C186.165,-230.772 195.071,-232.454 204.256,-234.188"/>
<polygon fill="black" stroke="black" points="203.825,-237.669 214.301,-236.085 205.124,-230.79 203.825,-237.669"/>
</g>
<!-- setup.cfgvalues -->
<g id="node15" class="node"><title>setup.cfgvalues</title>
<path fill="#ff5ee5" stroke="black" d="M304,-375C304,-375 274,-375 274,-375 268,-375 262,-369 262,-363 262,-363 262,-351 262,-351 262,-345 268,-339 274,-339 274,-339 304,-339 304,-339 310,-339 316,-345 316,-351 316,-351 316,-363 316,-363 316,-369 310,-375 304,-375"/>
<text text-anchor="middle" x="289" y="-353.3" font-family="Times New Roman,serif" font-size="14.00">values</text>
</g>
<!-- setup.cfg_setup.cfg&#45;&gt;setup.cfgvalues -->
<g id="edge14" class="edge"><title>setup.cfg_setup.cfg&#45;&gt;setup.cfgvalues</title>
<path fill="none" stroke="black" d="M164.286,-241.072C189.233,-264.449 232.827,-305.299 261.041,-331.738"/>
<polygon fill="black" stroke="black" points="258.873,-334.503 268.563,-338.787 263.659,-329.395 258.873,-334.503"/>
</g>
<!-- setup.cfgdirectives -->
<g id="node16" class="node"><title>setup.cfgdirectives</title>
<path fill="#ff5ee5" stroke="black" d="M312,-577C312,-577 266,-577 266,-577 260,-577 254,-571 254,-565 254,-565 254,-553 254,-553 254,-547 260,-541 266,-541 266,-541 312,-541 312,-541 318,-541 324,-547 324,-553 324,-553 324,-565 324,-565 324,-571 318,-577 312,-577"/>
<text text-anchor="middle" x="289" y="-555.3" font-family="Times New Roman,serif" font-size="14.00">directives</text>
</g>
<!-- setup.cfg_setup.cfg&#45;&gt;setup.cfgdirectives -->
<g id="edge15" class="edge"><title>setup.cfg_setup.cfg&#45;&gt;setup.cfgdirectives</title>
<path fill="none" stroke="black" d="M152.688,-241.065C176.305,-296.557 247.912,-464.807 276.262,-531.42"/>
<polygon fill="black" stroke="black" points="273.137,-533.015 280.274,-540.846 279.578,-530.274 273.137,-533.015"/>
</g>
<!-- setup.cfgread_configuration() -->
<g id="node17" class="node"><title>setup.cfgread_configuration()</title>
<path fill="#ff5ee5" stroke="black" d="M342.5,-743C342.5,-743 235.5,-743 235.5,-743 229.5,-743 223.5,-737 223.5,-731 223.5,-731 223.5,-719 223.5,-719 223.5,-713 229.5,-707 235.5,-707 235.5,-707 342.5,-707 342.5,-707 348.5,-707 354.5,-713 354.5,-719 354.5,-719 354.5,-731 354.5,-731 354.5,-737 348.5,-743 342.5,-743"/>
<text text-anchor="middle" x="289" y="-721.3" font-family="Times New Roman,serif" font-size="14.00">read_configuration()</text>
</g>
<!-- setup.cfg_setup.cfg&#45;&gt;setup.cfgread_configuration() -->
<g id="edge16" class="edge"><title>setup.cfg_setup.cfg&#45;&gt;setup.cfgread_configuration()</title>
<path fill="none" stroke="black" d="M146.514,-241.254C151.407,-295.292 169.156,-458.63 214,-586 228.519,-627.239 253.776,-671.198 270.69,-698.386"/>
<polygon fill="black" stroke="black" points="267.785,-700.341 276.078,-706.935 273.707,-696.609 267.785,-700.341"/>
</g>
<!-- setup.cfg[metadata]2 -->
<g id="node4" class="node"><title>setup.cfg[metadata]2</title>
<path fill="#ff5ee5" stroke="black" d="M602.5,-52C602.5,-52 490.5,-52 490.5,-52 484.5,-52 478.5,-46 478.5,-40 478.5,-40 478.5,-28 478.5,-28 478.5,-22 484.5,-16 490.5,-16 490.5,-16 602.5,-16 602.5,-16 608.5,-16 614.5,-22 614.5,-28 614.5,-28 614.5,-40 614.5,-40 614.5,-46 608.5,-52 602.5,-52"/>
<text text-anchor="middle" x="546.5" y="-30.3" font-family="Times New Roman,serif" font-size="14.00"> name = my_package</text>
</g>
<!-- setup.cfg[metadata]&#45;&gt;setup.cfg[metadata]2 -->
<g id="edge3" class="edge"><title>setup.cfg[metadata]&#45;&gt;setup.cfg[metadata]2</title>
<path fill="none" stroke="black" d="M326.607,-34C363.373,-34 421.154,-34 468.12,-34"/>
<polygon fill="black" stroke="black" points="468.271,-37.5001 478.271,-34 468.271,-30.5001 468.271,-37.5001"/>
</g>
<!-- setup.cfg[metadata]3 -->
<g id="node5" class="node"><title>setup.cfg[metadata]3</title>
<path fill="#ff5ee5" stroke="black" d="M1008,-52C1008,-52 853,-52 853,-52 847,-52 841,-46 841,-40 841,-40 841,-28 841,-28 841,-22 847,-16 853,-16 853,-16 1008,-16 1008,-16 1014,-16 1020,-22 1020,-28 1020,-28 1020,-40 1020,-40 1020,-46 1014,-52 1008,-52"/>
<text text-anchor="middle" x="930.5" y="-30.3" font-family="Times New Roman,serif" font-size="14.00">version = attr: src.VERSION</text>
</g>
<!-- setup.cfg[metadata]2&#45;&gt;setup.cfg[metadata]3 -->
<g id="edge4" class="edge"><title>setup.cfg[metadata]2&#45;&gt;setup.cfg[metadata]3</title>
<path fill="none" stroke="black" d="M614.915,-34C674.709,-34 762.824,-34 830.598,-34"/>
<polygon fill="black" stroke="black" points="830.869,-37.5001 840.868,-34 830.868,-30.5001 830.869,-37.5001"/>
</g>
<!-- setup.cfg[options]2 -->
<g id="node7" class="node"><title>setup.cfg[options]2</title>
<path fill="#ff5ee5" stroke="black" d="M588.5,-106C588.5,-106 504.5,-106 504.5,-106 498.5,-106 492.5,-100 492.5,-94 492.5,-94 492.5,-82 492.5,-82 492.5,-76 498.5,-70 504.5,-70 504.5,-70 588.5,-70 588.5,-70 594.5,-70 600.5,-76 600.5,-82 600.5,-82 600.5,-94 600.5,-94 600.5,-100 594.5,-106 588.5,-106"/>
<text text-anchor="middle" x="546.5" y="-84.3" font-family="Times New Roman,serif" font-size="14.00">zip_safe = False</text>
</g>
<!-- setup.cfg[options]&#45;&gt;setup.cfg[options]2 -->
<g id="edge6" class="edge"><title>setup.cfg[options]&#45;&gt;setup.cfg[options]2</title>
<path fill="none" stroke="black" d="M323.14,-88C363.31,-88 431.874,-88 482.271,-88"/>
<polygon fill="black" stroke="black" points="482.414,-91.5001 492.414,-88 482.414,-84.5001 482.414,-91.5001"/>
</g>
<!-- setup.cfg[options.package_data]2 -->
<g id="node9" class="node"><title>setup.cfg[options.package_data]2</title>
<path fill="#ff5ee5" stroke="black" d="M587.5,-160C587.5,-160 505.5,-160 505.5,-160 499.5,-160 493.5,-154 493.5,-148 493.5,-148 493.5,-136 493.5,-136 493.5,-130 499.5,-124 505.5,-124 505.5,-124 587.5,-124 587.5,-124 593.5,-124 599.5,-130 599.5,-136 599.5,-136 599.5,-148 599.5,-148 599.5,-154 593.5,-160 587.5,-160"/>
<text text-anchor="middle" x="546.5" y="-138.3" font-family="Times New Roman,serif" font-size="14.00"> * = *.txt, *.rst”</text>
</g>
<!-- setup.cfg[options.package_data]&#45;&gt;setup.cfg[options.package_data]2 -->
<g id="edge8" class="edge"><title>setup.cfg[options.package_data]&#45;&gt;setup.cfg[options.package_data]2</title>
<path fill="none" stroke="black" d="M363.216,-142C401.064,-142 446.773,-142 482.951,-142"/>
<polygon fill="black" stroke="black" points="483.37,-145.5 493.37,-142 483.37,-138.5 483.37,-145.5"/>
</g>
<!-- setup.cfg[options.extras_require]2 -->
<g id="node11" class="node"><title>setup.cfg[options.extras_require]2</title>
<path fill="#ff5ee5" stroke="black" d="M627,-214C627,-214 466,-214 466,-214 460,-214 454,-208 454,-202 454,-202 454,-190 454,-190 454,-184 460,-178 466,-178 466,-178 627,-178 627,-178 633,-178 639,-184 639,-190 639,-190 639,-202 639,-202 639,-208 633,-214 627,-214"/>
<text text-anchor="middle" x="546.5" y="-192.3" font-family="Times New Roman,serif" font-size="14.00"> pdf = ReportLab&gt;=1.2; RXP</text>
</g>
<!-- setup.cfg[options.extras_require]&#45;&gt;setup.cfg[options.extras_require]2 -->
<g id="edge10" class="edge"><title>setup.cfg[options.extras_require]&#45;&gt;setup.cfg[options.extras_require]2</title>
<path fill="none" stroke="black" d="M364.244,-196C389.067,-196 417.18,-196 443.73,-196"/>
<polygon fill="black" stroke="black" points="443.818,-199.5 453.818,-196 443.818,-192.5 443.818,-199.5"/>
</g>
<!-- setup.cfg[options.packages.find]2 -->
<g id="node13" class="node"><title>setup.cfg[options.packages.find]2</title>
<path fill="#ff5ee5" stroke="black" d="M570,-268C570,-268 523,-268 523,-268 517,-268 511,-262 511,-256 511,-256 511,-244 511,-244 511,-238 517,-232 523,-232 523,-232 570,-232 570,-232 576,-232 582,-238 582,-244 582,-244 582,-256 582,-256 582,-262 576,-268 570,-268"/>
<text text-anchor="middle" x="546.5" y="-246.3" font-family="Times New Roman,serif" font-size="14.00">exclude =</text>
</g>
<!-- setup.cfg[options.packages.find]&#45;&gt;setup.cfg[options.packages.find]2 -->
<g id="edge12" class="edge"><title>setup.cfg[options.packages.find]&#45;&gt;setup.cfg[options.packages.find]2</title>
<path fill="none" stroke="black" d="M363.558,-250C407.892,-250 462.914,-250 500.774,-250"/>
<polygon fill="black" stroke="black" points="500.974,-253.5 510.974,-250 500.974,-246.5 500.974,-253.5"/>
</g>
<!-- setup.cfg[options.packages.find]3 -->
<g id="node14" class="node"><title>setup.cfg[options.packages.find]3</title>
<path fill="#ff5ee5" stroke="black" d="M973.5,-266C973.5,-266 887.5,-266 887.5,-266 881.5,-266 875.5,-260 875.5,-254 875.5,-254 875.5,-242 875.5,-242 875.5,-236 881.5,-230 887.5,-230 887.5,-230 973.5,-230 973.5,-230 979.5,-230 985.5,-236 985.5,-242 985.5,-242 985.5,-254 985.5,-254 985.5,-260 979.5,-266 973.5,-266"/>
<text text-anchor="middle" x="930.5" y="-244.3" font-family="Times New Roman,serif" font-size="14.00">src.subpackage1</text>
</g>
<!-- setup.cfg[options.packages.find]2&#45;&gt;setup.cfg[options.packages.find]3 -->
<g id="edge13" class="edge"><title>setup.cfg[options.packages.find]2&#45;&gt;setup.cfg[options.packages.find]3</title>
<path fill="none" stroke="black" d="M582.074,-249.819C646.007,-249.484 783.608,-248.764 865.148,-248.337"/>
<polygon fill="black" stroke="black" points="865.312,-251.836 875.293,-248.284 865.275,-244.836 865.312,-251.836"/>
</g>
<!-- values_values -->
<g id="node20" class="node"><title>values_values</title>
<path fill="#ea4f16" stroke="black" d="M561.5,-428C561.5,-428 531.5,-428 531.5,-428 525.5,-428 519.5,-422 519.5,-416 519.5,-416 519.5,-404 519.5,-404 519.5,-398 525.5,-392 531.5,-392 531.5,-392 561.5,-392 561.5,-392 567.5,-392 573.5,-398 573.5,-404 573.5,-404 573.5,-416 573.5,-416 573.5,-422 567.5,-428 561.5,-428"/>
<text text-anchor="middle" x="546.5" y="-406.3" font-family="Times New Roman,serif" font-size="14.00">values</text>
</g>
<!-- setup.cfgvalues&#45;&gt;values_values -->
<g id="edge19" class="edge"><title>setup.cfgvalues&#45;&gt;values_values</title>
<path fill="none" stroke="black" d="M316.44,-365.454C338.579,-372.289 371.101,-381.768 400,-388 436.811,-395.938 479.468,-402.028 509.035,-405.767"/>
<polygon fill="black" stroke="black" points="508.947,-409.283 519.301,-407.037 509.807,-402.336 508.947,-409.283"/>
</g>
<!-- directives_directives -->
<g id="node33" class="node"><title>directives_directives</title>
<path fill="#ea4f16" stroke="black" d="M569.5,-673C569.5,-673 523.5,-673 523.5,-673 517.5,-673 511.5,-667 511.5,-661 511.5,-661 511.5,-649 511.5,-649 511.5,-643 517.5,-637 523.5,-637 523.5,-637 569.5,-637 569.5,-637 575.5,-637 581.5,-643 581.5,-649 581.5,-649 581.5,-661 581.5,-661 581.5,-667 575.5,-673 569.5,-673"/>
<text text-anchor="middle" x="546.5" y="-651.3" font-family="Times New Roman,serif" font-size="14.00">directives</text>
</g>
<!-- setup.cfgdirectives&#45;&gt;directives_directives -->
<g id="edge32" class="edge"><title>setup.cfgdirectives&#45;&gt;directives_directives</title>
<path fill="none" stroke="black" d="M314.523,-577.034C336.028,-592.014 368.669,-612.78 400,-625 432.779,-637.785 471.939,-645.463 501.372,-649.846"/>
<polygon fill="black" stroke="black" points="500.959,-653.323 511.351,-651.262 501.942,-646.392 500.959,-653.323"/>
</g>
<!-- setup.cfgread_configuration()2 -->
<g id="node18" class="node"><title>setup.cfgread_configuration()2</title>
<path fill="#ff5ee5" stroke="black" d="M681,-802C681,-802 412,-802 412,-802 406,-802 400,-796 400,-790 400,-790 400,-778 400,-778 400,-772 406,-766 412,-766 412,-766 681,-766 681,-766 687,-766 693,-772 693,-778 693,-778 693,-790 693,-790 693,-796 687,-802 681,-802"/>
<text text-anchor="middle" x="546.5" y="-780.3" font-family="Times New Roman,serif" font-size="14.00">from setuptools.config import read_configuration</text>
</g>
<!-- setup.cfgread_configuration()&#45;&gt;setup.cfgread_configuration()2 -->
<g id="edge17" class="edge"><title>setup.cfgread_configuration()&#45;&gt;setup.cfgread_configuration()2</title>
<path fill="none" stroke="black" d="M337.659,-743.052C356.814,-749.774 379.241,-756.98 400,-762 402.499,-762.604 405.026,-763.195 407.575,-763.772"/>
<polygon fill="black" stroke="black" points="406.99,-767.227 417.506,-765.933 408.479,-760.387 406.99,-767.227"/>
</g>
<!-- setup.cfgread_configuration()3 -->
<g id="node19" class="node"><title>setup.cfgread_configuration()3</title>
<path fill="#ff5ee5" stroke="black" d="M1120,-802C1120,-802 741,-802 741,-802 735,-802 729,-796 729,-790 729,-790 729,-778 729,-778 729,-772 735,-766 741,-766 741,-766 1120,-766 1120,-766 1126,-766 1132,-772 1132,-778 1132,-778 1132,-790 1132,-790 1132,-796 1126,-802 1120,-802"/>
<text text-anchor="middle" x="930.5" y="-780.3" font-family="Times New Roman,serif" font-size="14.00">conf_dict = read_configuration(&quot;/home/user/dev/package/setup.cfg&quot;)</text>
</g>
<!-- setup.cfgread_configuration()2&#45;&gt;setup.cfgread_configuration()3 -->
<g id="edge18" class="edge"><title>setup.cfgread_configuration()2&#45;&gt;setup.cfgread_configuration()3</title>
<path fill="none" stroke="black" d="M693.008,-784C701.494,-784 710.108,-784 718.776,-784"/>
<polygon fill="black" stroke="black" points="718.973,-787.5 728.973,-784 718.973,-780.5 718.973,-787.5"/>
</g>
<!-- valuesstr -->
<g id="node21" class="node"><title>valuesstr</title>
<path fill="#ea4f16" stroke="black" d="M945.5,-320C945.5,-320 915.5,-320 915.5,-320 909.5,-320 903.5,-314 903.5,-308 903.5,-308 903.5,-296 903.5,-296 903.5,-290 909.5,-284 915.5,-284 915.5,-284 945.5,-284 945.5,-284 951.5,-284 957.5,-290 957.5,-296 957.5,-296 957.5,-308 957.5,-308 957.5,-314 951.5,-320 945.5,-320"/>
<text text-anchor="middle" x="930.5" y="-298.3" font-family="Times New Roman,serif" font-size="14.00">str</text>
</g>
<!-- values_values&#45;&gt;valuesstr -->
<g id="edge20" class="edge"><title>values_values&#45;&gt;valuesstr</title>
<path fill="none" stroke="black" d="M573.756,-412.371C604.841,-413.84 656.934,-411.966 693,-388 718.585,-370.999 703.278,-345.793 729,-329 778.751,-296.518 850.3,-295.175 893.116,-298"/>
<polygon fill="black" stroke="black" points="893.111,-301.51 903.351,-298.792 893.651,-294.531 893.111,-301.51"/>
</g>
<!-- valueslist&#45;comma -->
<g id="node23" class="node"><title>valueslist&#45;comma</title>
<path fill="#ea4f16" stroke="black" d="M957.5,-374C957.5,-374 903.5,-374 903.5,-374 897.5,-374 891.5,-368 891.5,-362 891.5,-362 891.5,-350 891.5,-350 891.5,-344 897.5,-338 903.5,-338 903.5,-338 957.5,-338 957.5,-338 963.5,-338 969.5,-344 969.5,-350 969.5,-350 969.5,-362 969.5,-362 969.5,-368 963.5,-374 957.5,-374"/>
<text text-anchor="middle" x="930.5" y="-352.3" font-family="Times New Roman,serif" font-size="14.00">list&#45;comma</text>
</g>
<!-- values_values&#45;&gt;valueslist&#45;comma -->
<g id="edge22" class="edge"><title>values_values&#45;&gt;valueslist&#45;comma</title>
<path fill="none" stroke="black" d="M573.633,-405.997C608.886,-400.623 673.644,-390.844 729,-383 780.985,-375.633 840.625,-367.664 881.254,-362.307"/>
<polygon fill="black" stroke="black" points="881.957,-365.745 891.414,-360.97 881.043,-358.805 881.957,-365.745"/>
</g>
<!-- valueslist&#45;semi -->
<g id="node25" class="node"><title>valueslist&#45;semi</title>
<path fill="#ea4f16" stroke="black" d="M949.5,-428C949.5,-428 911.5,-428 911.5,-428 905.5,-428 899.5,-422 899.5,-416 899.5,-416 899.5,-404 899.5,-404 899.5,-398 905.5,-392 911.5,-392 911.5,-392 949.5,-392 949.5,-392 955.5,-392 961.5,-398 961.5,-404 961.5,-404 961.5,-416 961.5,-416 961.5,-422 955.5,-428 949.5,-428"/>
<text text-anchor="middle" x="930.5" y="-406.3" font-family="Times New Roman,serif" font-size="14.00">list&#45;semi</text>
</g>
<!-- values_values&#45;&gt;valueslist&#45;semi -->
<g id="edge24" class="edge"><title>values_values&#45;&gt;valueslist&#45;semi</title>
<path fill="none" stroke="black" d="M573.756,-410C639.28,-410 810.363,-410 888.953,-410"/>
<polygon fill="black" stroke="black" points="889.408,-413.5 899.408,-410 889.408,-406.5 889.408,-413.5"/>
</g>
<!-- valuesbool -->
<g id="node27" class="node"><title>valuesbool</title>
<path fill="#ea4f16" stroke="black" d="M945.5,-482C945.5,-482 915.5,-482 915.5,-482 909.5,-482 903.5,-476 903.5,-470 903.5,-470 903.5,-458 903.5,-458 903.5,-452 909.5,-446 915.5,-446 915.5,-446 945.5,-446 945.5,-446 951.5,-446 957.5,-452 957.5,-458 957.5,-458 957.5,-470 957.5,-470 957.5,-476 951.5,-482 945.5,-482"/>
<text text-anchor="middle" x="930.5" y="-460.3" font-family="Times New Roman,serif" font-size="14.00">bool</text>
</g>
<!-- values_values&#45;&gt;valuesbool -->
<g id="edge26" class="edge"><title>values_values&#45;&gt;valuesbool</title>
<path fill="none" stroke="black" d="M573.633,-414.003C608.886,-419.377 673.644,-429.156 729,-437 786.302,-445.12 852.904,-453.973 893.094,-459.251"/>
<polygon fill="black" stroke="black" points="892.84,-462.748 903.21,-460.578 893.75,-455.807 892.84,-462.748"/>
</g>
<!-- valuesdict -->
<g id="node29" class="node"><title>valuesdict</title>
<path fill="#ea4f16" stroke="black" d="M945.5,-536C945.5,-536 915.5,-536 915.5,-536 909.5,-536 903.5,-530 903.5,-524 903.5,-524 903.5,-512 903.5,-512 903.5,-506 909.5,-500 915.5,-500 915.5,-500 945.5,-500 945.5,-500 951.5,-500 957.5,-506 957.5,-512 957.5,-512 957.5,-524 957.5,-524 957.5,-530 951.5,-536 945.5,-536"/>
<text text-anchor="middle" x="930.5" y="-514.3" font-family="Times New Roman,serif" font-size="14.00">dict</text>
</g>
<!-- values_values&#45;&gt;valuesdict -->
<g id="edge28" class="edge"><title>values_values&#45;&gt;valuesdict</title>
<path fill="none" stroke="black" d="M573.659,-424.557C608.152,-443.069 671.245,-474.592 729,-491 784.981,-506.904 852.489,-513.532 893.151,-516.228"/>
<polygon fill="black" stroke="black" points="893.185,-519.737 903.382,-516.861 893.617,-512.75 893.185,-519.737"/>
</g>
<!-- valuessection -->
<g id="node31" class="node"><title>valuessection</title>
<path fill="#ea4f16" stroke="black" d="M946.5,-590C946.5,-590 914.5,-590 914.5,-590 908.5,-590 902.5,-584 902.5,-578 902.5,-578 902.5,-566 902.5,-566 902.5,-560 908.5,-554 914.5,-554 914.5,-554 946.5,-554 946.5,-554 952.5,-554 958.5,-560 958.5,-566 958.5,-566 958.5,-578 958.5,-578 958.5,-584 952.5,-590 946.5,-590"/>
<text text-anchor="middle" x="930.5" y="-568.3" font-family="Times New Roman,serif" font-size="14.00">section</text>
</g>
<!-- values_values&#45;&gt;valuessection -->
<g id="edge30" class="edge"><title>values_values&#45;&gt;valuessection</title>
<path fill="none" stroke="black" d="M565.125,-428.099C595.49,-458.037 660.985,-517.305 729,-545 782.865,-566.933 850.932,-571.789 892.294,-572.483"/>
<polygon fill="black" stroke="black" points="892.429,-575.984 902.461,-572.578 892.494,-568.985 892.429,-575.984"/>
</g>
<!-- valuesstr2 -->
<g id="node22" class="node"><title>valuesstr2</title>
<path fill="#ea4f16" stroke="black" d="M1525,-320C1525,-320 1462,-320 1462,-320 1456,-320 1450,-314 1450,-308 1450,-308 1450,-296 1450,-296 1450,-290 1456,-284 1462,-284 1462,-284 1525,-284 1525,-284 1531,-284 1537,-290 1537,-296 1537,-296 1537,-308 1537,-308 1537,-314 1531,-320 1525,-320"/>
<text text-anchor="middle" x="1493.5" y="-298.3" font-family="Times New Roman,serif" font-size="14.00">simple string</text>
</g>
<!-- valuesstr&#45;&gt;valuesstr2 -->
<g id="edge21" class="edge"><title>valuesstr&#45;&gt;valuesstr2</title>
<path fill="none" stroke="black" d="M957.806,-302C1044.55,-302 1322.64,-302 1439.74,-302"/>
<polygon fill="black" stroke="black" points="1439.89,-305.5 1449.89,-302 1439.89,-298.5 1439.89,-305.5"/>
</g>
<!-- valueslist&#45;comma2 -->
<g id="node24" class="node"><title>valueslist&#45;comma2</title>
<path fill="#ea4f16" stroke="black" d="M1626.5,-374C1626.5,-374 1360.5,-374 1360.5,-374 1354.5,-374 1348.5,-368 1348.5,-362 1348.5,-362 1348.5,-350 1348.5,-350 1348.5,-344 1354.5,-338 1360.5,-338 1360.5,-338 1626.5,-338 1626.5,-338 1632.5,-338 1638.5,-344 1638.5,-350 1638.5,-350 1638.5,-362 1638.5,-362 1638.5,-368 1632.5,-374 1626.5,-374"/>
<text text-anchor="middle" x="1493.5" y="-352.3" font-family="Times New Roman,serif" font-size="14.00">dangling list or string of comma&#45;separated values</text>
</g>
<!-- valueslist&#45;comma&#45;&gt;valueslist&#45;comma2 -->
<g id="edge23" class="edge"><title>valueslist&#45;comma&#45;&gt;valueslist&#45;comma2</title>
<path fill="none" stroke="black" d="M969.619,-356C1044.05,-356 1212.44,-356 1338.14,-356"/>
<polygon fill="black" stroke="black" points="1338.25,-359.5 1348.25,-356 1338.25,-352.5 1338.25,-359.5"/>
</g>
<!-- valueslist&#45;semi2 -->
<g id="node26" class="node"><title>valueslist&#45;semi2</title>
<path fill="#ea4f16" stroke="black" d="M1634,-428C1634,-428 1353,-428 1353,-428 1347,-428 1341,-422 1341,-416 1341,-416 1341,-404 1341,-404 1341,-398 1347,-392 1353,-392 1353,-392 1634,-392 1634,-392 1640,-392 1646,-398 1646,-404 1646,-404 1646,-416 1646,-416 1646,-422 1640,-428 1634,-428"/>
<text text-anchor="middle" x="1493.5" y="-406.3" font-family="Times New Roman,serif" font-size="14.00">dangling list or string of semicolon&#45;separated values</text>
</g>
<!-- valueslist&#45;semi&#45;&gt;valueslist&#45;semi2 -->
<g id="edge25" class="edge"><title>valueslist&#45;semi&#45;&gt;valueslist&#45;semi2</title>
<path fill="none" stroke="black" d="M961.662,-410C1030.09,-410 1201.21,-410 1330.82,-410"/>
<polygon fill="black" stroke="black" points="1330.86,-413.5 1340.86,-410 1330.86,-406.5 1330.86,-413.5"/>
</g>
<!-- valuesbool2 -->
<g id="node28" class="node"><title>valuesbool2</title>
<path fill="#ea4f16" stroke="black" d="M1542,-482C1542,-482 1445,-482 1445,-482 1439,-482 1433,-476 1433,-470 1433,-470 1433,-458 1433,-458 1433,-452 1439,-446 1445,-446 1445,-446 1542,-446 1542,-446 1548,-446 1554,-452 1554,-458 1554,-458 1554,-470 1554,-470 1554,-476 1548,-482 1542,-482"/>
<text text-anchor="middle" x="1493.5" y="-460.3" font-family="Times New Roman,serif" font-size="14.00">True is 1, yes, true</text>
</g>
<!-- valuesbool&#45;&gt;valuesbool2 -->
<g id="edge27" class="edge"><title>valuesbool&#45;&gt;valuesbool2</title>
<path fill="none" stroke="black" d="M957.806,-464C1040.51,-464 1297.16,-464 1422.37,-464"/>
<polygon fill="black" stroke="black" points="1422.61,-467.5 1432.61,-464 1422.61,-460.5 1422.61,-467.5"/>
</g>
<!-- valuesdict2 -->
<g id="node30" class="node"><title>valuesdict2</title>
<path fill="#ea4f16" stroke="black" d="M1641.5,-536C1641.5,-536 1345.5,-536 1345.5,-536 1339.5,-536 1333.5,-530 1333.5,-524 1333.5,-524 1333.5,-512 1333.5,-512 1333.5,-506 1339.5,-500 1345.5,-500 1345.5,-500 1641.5,-500 1641.5,-500 1647.5,-500 1653.5,-506 1653.5,-512 1653.5,-512 1653.5,-524 1653.5,-524 1653.5,-530 1647.5,-536 1641.5,-536"/>
<text text-anchor="middle" x="1493.5" y="-514.3" font-family="Times New Roman,serif" font-size="14.00">list&#45;comma where keys are separated from values by =</text>
</g>
<!-- valuesdict&#45;&gt;valuesdict2 -->
<g id="edge29" class="edge"><title>valuesdict&#45;&gt;valuesdict2</title>
<path fill="none" stroke="black" d="M957.806,-518C1022.2,-518 1192.05,-518 1323.2,-518"/>
<polygon fill="black" stroke="black" points="1323.37,-521.5 1333.37,-518 1323.37,-514.5 1323.37,-521.5"/>
</g>
<!-- valuessection2 -->
<g id="node32" class="node"><title>valuessection2</title>
<path fill="#ea4f16" stroke="black" d="M1616.5,-590C1616.5,-590 1370.5,-590 1370.5,-590 1364.5,-590 1358.5,-584 1358.5,-578 1358.5,-578 1358.5,-566 1358.5,-566 1358.5,-560 1364.5,-554 1370.5,-554 1370.5,-554 1616.5,-554 1616.5,-554 1622.5,-554 1628.5,-560 1628.5,-566 1628.5,-566 1628.5,-578 1628.5,-578 1628.5,-584 1622.5,-590 1616.5,-590"/>
<text text-anchor="middle" x="1493.5" y="-568.3" font-family="Times New Roman,serif" font-size="14.00">values are read from a dedicated (sub)section</text>
</g>
<!-- valuessection&#45;&gt;valuessection2 -->
<g id="edge31" class="edge"><title>valuessection&#45;&gt;valuessection2</title>
<path fill="none" stroke="black" d="M958.558,-572C1027.73,-572 1214.92,-572 1348.1,-572"/>
<polygon fill="black" stroke="black" points="1348.39,-575.5 1358.39,-572 1348.39,-568.5 1348.39,-575.5"/>
</g>
<!-- directivesattr -->
<g id="node34" class="node"><title>directivesattr</title>
<path fill="#ea4f16" stroke="black" d="M945.5,-673C945.5,-673 915.5,-673 915.5,-673 909.5,-673 903.5,-667 903.5,-661 903.5,-661 903.5,-649 903.5,-649 903.5,-643 909.5,-637 915.5,-637 915.5,-637 945.5,-637 945.5,-637 951.5,-637 957.5,-643 957.5,-649 957.5,-649 957.5,-661 957.5,-661 957.5,-667 951.5,-673 945.5,-673"/>
<text text-anchor="middle" x="930.5" y="-651.3" font-family="Times New Roman,serif" font-size="14.00">attr</text>
</g>
<!-- directives_directives&#45;&gt;directivesattr -->
<g id="edge33" class="edge"><title>directives_directives&#45;&gt;directivesattr</title>
<path fill="none" stroke="black" d="M581.736,-655C653.474,-655 819.014,-655 892.825,-655"/>
<polygon fill="black" stroke="black" points="893.027,-658.5 903.027,-655 893.027,-651.5 893.027,-658.5"/>
</g>
<!-- directivesfile -->
<g id="node36" class="node"><title>directivesfile</title>
<path fill="#ea4f16" stroke="black" d="M945.5,-727C945.5,-727 915.5,-727 915.5,-727 909.5,-727 903.5,-721 903.5,-715 903.5,-715 903.5,-703 903.5,-703 903.5,-697 909.5,-691 915.5,-691 915.5,-691 945.5,-691 945.5,-691 951.5,-691 957.5,-697 957.5,-703 957.5,-703 957.5,-715 957.5,-715 957.5,-721 951.5,-727 945.5,-727"/>
<text text-anchor="middle" x="930.5" y="-705.3" font-family="Times New Roman,serif" font-size="14.00">file</text>
</g>
<!-- directives_directives&#45;&gt;directivesfile -->
<g id="edge35" class="edge"><title>directives_directives&#45;&gt;directivesfile</title>
<path fill="none" stroke="black" d="M581.6,-660.216C618.063,-665.76 677.586,-674.714 729,-682 786.302,-690.12 852.904,-698.973 893.094,-704.251"/>
<polygon fill="black" stroke="black" points="892.84,-707.748 903.21,-705.578 893.75,-700.807 892.84,-707.748"/>
</g>
<!-- directivesattr2 -->
<g id="node35" class="node"><title>directivesattr2</title>
<path fill="#ea4f16" stroke="black" d="M1807,-673C1807,-673 1180,-673 1180,-673 1174,-673 1168,-667 1168,-661 1168,-661 1168,-649 1168,-649 1168,-643 1174,-637 1180,-637 1180,-637 1807,-637 1807,-637 1813,-637 1819,-643 1819,-649 1819,-649 1819,-661 1819,-661 1819,-667 1813,-673 1807,-673"/>
<text text-anchor="middle" x="1493.5" y="-651.3" font-family="Times New Roman,serif" font-size="14.00">Value is read from a module attribute. attr: supports callables and iterables; unsupported types are cast using str().</text>
</g>
<!-- directivesattr&#45;&gt;directivesattr2 -->
<g id="edge34" class="edge"><title>directivesattr&#45;&gt;directivesattr2</title>
<path fill="none" stroke="black" d="M957.806,-655C996.668,-655 1073.94,-655 1157.94,-655"/>
<polygon fill="black" stroke="black" points="1157.94,-658.5 1167.94,-655 1157.94,-651.5 1157.94,-658.5"/>
</g>
<!-- directivesfile2 -->
<g id="node37" class="node"><title>directivesfile2</title>
<path fill="#ea4f16" stroke="black" d="M1641,-727C1641,-727 1346,-727 1346,-727 1340,-727 1334,-721 1334,-715 1334,-715 1334,-703 1334,-703 1334,-697 1340,-691 1346,-691 1346,-691 1641,-691 1641,-691 1647,-691 1653,-697 1653,-703 1653,-703 1653,-715 1653,-715 1653,-721 1647,-727 1641,-727"/>
<text text-anchor="middle" x="1493.5" y="-705.3" font-family="Times New Roman,serif" font-size="14.00">Value is read from a list of files and then concatenated</text>
</g>
<!-- directivesfile&#45;&gt;directivesfile2 -->
<g id="edge36" class="edge"><title>directivesfile&#45;&gt;directivesfile2</title>
<path fill="none" stroke="black" d="M957.806,-709C1022.25,-709 1192.33,-709 1323.53,-709"/>
<polygon fill="black" stroke="black" points="1323.7,-712.5 1333.7,-709 1323.7,-705.5 1323.7,-712.5"/>
</g>
</g>
</svg>
