<?xml version="1.0" encoding="UTF-8" standalone="no"?>
<!DOCTYPE svg PUBLIC "-//W3C//DTD SVG 1.1//EN"
 "http://www.w3.org/Graphics/SVG/1.1/DTD/svg11.dtd">
<!-- Generated by graphviz version 2.38.0 (20140413.2041)
 -->
<!-- Title: %3 Pages: 1 -->
<svg width="1084pt" height="744pt"
 viewBox="0.00 0.00 1084.00 744.00" xmlns="http://www.w3.org/2000/svg" xmlns:xlink="http://www.w3.org/1999/xlink">
<g id="graph0" class="graph" transform="scale(1 1) rotate(0) translate(4 740)">
<title>%3</title>
<polygon fill="white" stroke="none" points="-4,4 -4,-740 1080,-740 1080,4 -4,4"/>
<g id="clust1" class="cluster"><title>cluster_setuptools</title>
<polygon fill="none" stroke="#ff5ee5" points="8,-8 8,-692 1068,-692 1068,-8 8,-8"/>
<text text-anchor="middle" x="538" y="-676.8" font-family="Times New Roman,serif" font-size="14.00">setuptools</text>
</g>
<g id="clust2" class="cluster"><title>cluster_entry_points</title>
<polygon fill="none" stroke="#ea4f16" points="16,-16 16,-545 1060,-545 1060,-16 16,-16"/>
<text text-anchor="middle" x="538" y="-529.8" font-family="Times New Roman,serif" font-size="14.00">entry_points</text>
</g>
<g id="clust3" class="cluster"><title>cluster_setup.py install</title>
<polygon fill="none" stroke="#ea4f16" points="24,-24 24,-398 478,-398 478,-24 24,-24"/>
<text text-anchor="middle" x="251" y="-382.8" font-family="Times New Roman,serif" font-size="14.00">setup.py install</text>
</g>
<g id="clust4" class="cluster"><title>cluster_platforms</title>
<polygon fill="none" stroke="#4f00ea" points="272,-32 272,-251 470,-251 470,-32 272,-32"/>
<text text-anchor="middle" x="371" y="-235.8" font-family="Times New Roman,serif" font-size="14.00">platforms</text>
</g>
<g id="clust5" class="cluster"><title>cluster_setup.py develop</title>
<polygon fill="none" stroke="#ff00ff" points="486,-176 486,-398 662,-398 662,-176 486,-176"/>
<text text-anchor="middle" x="574" y="-382.8" font-family="Times New Roman,serif" font-size="14.00">setup.py develop</text>
</g>
<g id="clust6" class="cluster"><title>cluster_pip install</title>
<polygon fill="none" stroke="#ea1644" points="670,-32 670,-398 1052,-398 1052,-32 670,-32"/>
<text text-anchor="middle" x="861" y="-382.8" font-family="Times New Roman,serif" font-size="14.00">pip install</text>
</g>
<!-- setup.py -->
<g id="node1" class="node"><title>setup.py</title>
<path fill="#99ff5e" stroke="black" d="M649.5,-736C649.5,-736 608.5,-736 608.5,-736 602.5,-736 596.5,-730 596.5,-724 596.5,-724 596.5,-712 596.5,-712 596.5,-706 602.5,-700 608.5,-700 608.5,-700 649.5,-700 649.5,-700 655.5,-700 661.5,-706 661.5,-712 661.5,-712 661.5,-724 661.5,-724 661.5,-730 655.5,-736 649.5,-736"/>
<text text-anchor="middle" x="629" y="-714.3" font-family="Times New Roman,serif" font-size="14.00">setup.py</text>
</g>
<!-- setuptoolsautomatic -->
<g id="node2" class="node"><title>setuptoolsautomatic</title>
<path fill="#ff5ee5" stroke="black" d="M654,-661C654,-661 604,-661 604,-661 598,-661 592,-655 592,-649 592,-649 592,-637 592,-637 592,-631 598,-625 604,-625 604,-625 654,-625 654,-625 660,-625 666,-631 666,-637 666,-637 666,-649 666,-649 666,-655 660,-661 654,-661"/>
<text text-anchor="middle" x="629" y="-639.3" font-family="Times New Roman,serif" font-size="14.00">setuptools</text>
</g>
<!-- setup.py&#45;&gt;setuptoolsautomatic -->
<g id="edge1" class="edge"><title>setup.py&#45;&gt;setuptoolsautomatic</title>
<path fill="none" stroke="black" d="M629,-699.7C629,-691.245 629,-680.869 629,-671.373"/>
<polygon fill="black" stroke="black" points="632.5,-671.176 629,-661.176 625.5,-671.176 632.5,-671.176"/>
</g>
<!-- setuptoolsautomatic&#45;script&#45;creation -->
<g id="node3" class="node"><title>setuptoolsautomatic&#45;script&#45;creation</title>
<path fill="#ff5ee5" stroke="black" d="M694.5,-589C694.5,-589 563.5,-589 563.5,-589 557.5,-589 551.5,-583 551.5,-577 551.5,-577 551.5,-565 551.5,-565 551.5,-559 557.5,-553 563.5,-553 563.5,-553 694.5,-553 694.5,-553 700.5,-553 706.5,-559 706.5,-565 706.5,-565 706.5,-577 706.5,-577 706.5,-583 700.5,-589 694.5,-589"/>
<text text-anchor="middle" x="629" y="-567.3" font-family="Times New Roman,serif" font-size="14.00">automatic&#45;script&#45;creation</text>
</g>
<!-- setuptoolsautomatic&#45;&gt;setuptoolsautomatic&#45;script&#45;creation -->
<g id="edge2" class="edge"><title>setuptoolsautomatic&#45;&gt;setuptoolsautomatic&#45;script&#45;creation</title>
<path fill="none" stroke="black" d="M629,-624.697C629,-616.983 629,-607.712 629,-599.112"/>
<polygon fill="black" stroke="black" points="632.5,-599.104 629,-589.104 625.5,-599.104 632.5,-599.104"/>
</g>
<!-- entry_pointsentry -->
<g id="node4" class="node"><title>entry_pointsentry</title>
<path fill="#ea4f16" stroke="black" d="M660,-514C660,-514 598,-514 598,-514 592,-514 586,-508 586,-502 586,-502 586,-490 586,-490 586,-484 592,-478 598,-478 598,-478 660,-478 660,-478 666,-478 672,-484 672,-490 672,-490 672,-502 672,-502 672,-508 666,-514 660,-514"/>
<text text-anchor="middle" x="629" y="-492.3" font-family="Times New Roman,serif" font-size="14.00">entry_points</text>
</g>
<!-- setuptoolsautomatic&#45;script&#45;creation&#45;&gt;entry_pointsentry -->
<g id="edge3" class="edge"><title>setuptoolsautomatic&#45;script&#45;creation&#45;&gt;entry_pointsentry</title>
<path fill="none" stroke="black" d="M629,-552.7C629,-544.245 629,-533.869 629,-524.373"/>
<polygon fill="black" stroke="black" points="632.5,-524.176 629,-514.176 625.5,-524.176 632.5,-524.176"/>
</g>
<!-- entry_pointsconsole_scripts -->
<g id="node5" class="node"><title>entry_pointsconsole_scripts</title>
<path fill="#ea4f16" stroke="black" d="M614.5,-442C614.5,-442 533.5,-442 533.5,-442 527.5,-442 521.5,-436 521.5,-430 521.5,-430 521.5,-418 521.5,-418 521.5,-412 527.5,-406 533.5,-406 533.5,-406 614.5,-406 614.5,-406 620.5,-406 626.5,-412 626.5,-418 626.5,-418 626.5,-430 626.5,-430 626.5,-436 620.5,-442 614.5,-442"/>
<text text-anchor="middle" x="574" y="-420.3" font-family="Times New Roman,serif" font-size="14.00">console_scripts</text>
</g>
<!-- entry_pointsentry&#45;&gt;entry_pointsconsole_scripts -->
<g id="edge4" class="edge"><title>entry_pointsentry&#45;&gt;entry_pointsconsole_scripts</title>
<path fill="none" stroke="black" d="M615.404,-477.697C608.877,-469.389 600.932,-459.277 593.753,-450.141"/>
<polygon fill="black" stroke="black" points="596.369,-447.805 587.439,-442.104 590.865,-452.13 596.369,-447.805"/>
</g>
<!-- entry_pointsgui_scripts -->
<g id="node6" class="node"><title>entry_pointsgui_scripts</title>
<path fill="#ea4f16" stroke="black" d="M750,-442C750,-442 696,-442 696,-442 690,-442 684,-436 684,-430 684,-430 684,-418 684,-418 684,-412 690,-406 696,-406 696,-406 750,-406 750,-406 756,-406 762,-412 762,-418 762,-418 762,-430 762,-430 762,-436 756,-442 750,-442"/>
<text text-anchor="middle" x="723" y="-420.3" font-family="Times New Roman,serif" font-size="14.00">gui_scripts</text>
</g>
<!-- entry_pointsentry&#45;&gt;entry_pointsgui_scripts -->
<g id="edge5" class="edge"><title>entry_pointsentry&#45;&gt;entry_pointsgui_scripts</title>
<path fill="none" stroke="black" d="M652.236,-477.697C664.188,-468.796 678.923,-457.823 691.847,-448.199"/>
<polygon fill="black" stroke="black" points="694.101,-450.884 700.031,-442.104 689.92,-445.27 694.101,-450.884"/>
</g>
<!-- setup.py installentry -->
<g id="node7" class="node"><title>setup.py installentry</title>
<path fill="#ea4f16" stroke="black" d="M431,-367C431,-367 355,-367 355,-367 349,-367 343,-361 343,-355 343,-355 343,-343 343,-343 343,-337 349,-331 355,-331 355,-331 431,-331 431,-331 437,-331 443,-337 443,-343 443,-343 443,-355 443,-355 443,-361 437,-367 431,-367"/>
<text text-anchor="middle" x="393" y="-345.3" font-family="Times New Roman,serif" font-size="14.00">setup.py install</text>
</g>
<!-- entry_pointsconsole_scripts&#45;&gt;setup.py installentry -->
<g id="edge6" class="edge"><title>entry_pointsconsole_scripts&#45;&gt;setup.py installentry</title>
<path fill="none" stroke="black" d="M521.257,-410.896C508.232,-407.301 494.45,-402.972 482,-398 464.147,-390.87 445.282,-381.056 429.538,-372.16"/>
<polygon fill="black" stroke="black" points="431.074,-369.006 420.66,-367.056 427.584,-375.074 431.074,-369.006"/>
</g>
<!-- setup.py developentry -->
<g id="node15" class="node"><title>setup.py developentry</title>
<path fill="#ff00ff" stroke="black" d="M618.5,-367C618.5,-367 529.5,-367 529.5,-367 523.5,-367 517.5,-361 517.5,-355 517.5,-355 517.5,-343 517.5,-343 517.5,-337 523.5,-331 529.5,-331 529.5,-331 618.5,-331 618.5,-331 624.5,-331 630.5,-337 630.5,-343 630.5,-343 630.5,-355 630.5,-355 630.5,-361 624.5,-367 618.5,-367"/>
<text text-anchor="middle" x="574" y="-345.3" font-family="Times New Roman,serif" font-size="14.00">setup.py develop</text>
</g>
<!-- entry_pointsconsole_scripts&#45;&gt;setup.py developentry -->
<g id="edge14" class="edge"><title>entry_pointsconsole_scripts&#45;&gt;setup.py developentry</title>
<path fill="none" stroke="black" d="M574,-405.7C574,-397.245 574,-386.869 574,-377.373"/>
<polygon fill="black" stroke="black" points="577.5,-377.176 574,-367.176 570.5,-377.176 577.5,-377.176"/>
</g>
<!-- pip installentry -->
<g id="node18" class="node"><title>pip installentry</title>
<path fill="#ea1644" stroke="black" d="M786,-367C786,-367 740,-367 740,-367 734,-367 728,-361 728,-355 728,-355 728,-343 728,-343 728,-337 734,-331 740,-331 740,-331 786,-331 786,-331 792,-331 798,-337 798,-343 798,-343 798,-355 798,-355 798,-361 792,-367 786,-367"/>
<text text-anchor="middle" x="763" y="-345.3" font-family="Times New Roman,serif" font-size="14.00">pip install</text>
</g>
<!-- entry_pointsgui_scripts&#45;&gt;pip installentry -->
<g id="edge17" class="edge"><title>entry_pointsgui_scripts&#45;&gt;pip installentry</title>
<path fill="none" stroke="black" d="M732.479,-405.7C737.311,-396.882 743.289,-385.973 748.67,-376.153"/>
<polygon fill="black" stroke="black" points="751.853,-377.627 753.589,-367.176 745.714,-374.264 751.853,-377.627"/>
</g>
<!-- setup.py installfoo -->
<g id="node8" class="node"><title>setup.py installfoo</title>
<path fill="#ea4f16" stroke="black" d="M381,-295C381,-295 351,-295 351,-295 345,-295 339,-289 339,-283 339,-283 339,-271 339,-271 339,-265 345,-259 351,-259 351,-259 381,-259 381,-259 387,-259 393,-265 393,-271 393,-271 393,-283 393,-283 393,-289 387,-295 381,-295"/>
<text text-anchor="middle" x="366" y="-273.3" font-family="Times New Roman,serif" font-size="14.00">foo</text>
</g>
<!-- setup.py installentry&#45;&gt;setup.py installfoo -->
<g id="edge7" class="edge"><title>setup.py installentry&#45;&gt;setup.py installfoo</title>
<path fill="none" stroke="black" d="M386.326,-330.697C383.285,-322.813 379.617,-313.304 376.239,-304.546"/>
<polygon fill="black" stroke="black" points="379.462,-303.175 372.597,-295.104 372.931,-305.694 379.462,-303.175"/>
</g>
<!-- setup.py installfoo2 -->
<g id="node9" class="node"><title>setup.py installfoo2</title>
<path fill="#ea4f16" stroke="black" d="M251.5,-220C251.5,-220 44.5,-220 44.5,-220 38.5,-220 32.5,-214 32.5,-208 32.5,-208 32.5,-196 32.5,-196 32.5,-190 38.5,-184 44.5,-184 44.5,-184 251.5,-184 251.5,-184 257.5,-184 263.5,-190 263.5,-196 263.5,-196 263.5,-208 263.5,-208 263.5,-214 257.5,-220 251.5,-220"/>
<text text-anchor="middle" x="148" y="-198.3" font-family="Times New Roman,serif" font-size="14.00">my_package.some_module:main_func</text>
</g>
<!-- setup.py installfoo&#45;&gt;setup.py installfoo2 -->
<g id="edge8" class="edge"><title>setup.py installfoo&#45;&gt;setup.py installfoo2</title>
<path fill="none" stroke="black" d="M338.689,-270.043C318.877,-265.478 291.539,-258.674 268,-251 244.028,-243.185 217.979,-232.982 196.297,-223.994"/>
<polygon fill="black" stroke="black" points="197.554,-220.726 186.978,-220.095 194.852,-227.184 197.554,-220.726"/>
</g>
<!-- platformsplatforms -->
<g id="node10" class="node"><title>platformsplatforms</title>
<path fill="#4f00ea" stroke="black" d="M389,-220C389,-220 343,-220 343,-220 337,-220 331,-214 331,-208 331,-208 331,-196 331,-196 331,-190 337,-184 343,-184 343,-184 389,-184 389,-184 395,-184 401,-190 401,-196 401,-196 401,-208 401,-208 401,-214 395,-220 389,-220"/>
<text text-anchor="middle" x="366" y="-198.3" font-family="Times New Roman,serif" font-size="14.00">platforms</text>
</g>
<!-- setup.py installfoo&#45;&gt;platformsplatforms -->
<g id="edge9" class="edge"><title>setup.py installfoo&#45;&gt;platformsplatforms</title>
<path fill="none" stroke="black" d="M366,-258.7C366,-250.245 366,-239.869 366,-230.373"/>
<polygon fill="black" stroke="black" points="369.5,-230.176 366,-220.176 362.5,-230.176 369.5,-230.176"/>
</g>
<!-- platformswindows -->
<g id="node11" class="node"><title>platformswindows</title>
<path fill="#4f00ea" stroke="black" d="M335.5,-148C335.5,-148 292.5,-148 292.5,-148 286.5,-148 280.5,-142 280.5,-136 280.5,-136 280.5,-124 280.5,-124 280.5,-118 286.5,-112 292.5,-112 292.5,-112 335.5,-112 335.5,-112 341.5,-112 347.5,-118 347.5,-124 347.5,-124 347.5,-136 347.5,-136 347.5,-142 341.5,-148 335.5,-148"/>
<text text-anchor="middle" x="314" y="-126.3" font-family="Times New Roman,serif" font-size="14.00">windows</text>
</g>
<!-- platformsplatforms&#45;&gt;platformswindows -->
<g id="edge10" class="edge"><title>platformsplatforms&#45;&gt;platformswindows</title>
<path fill="none" stroke="black" d="M353.146,-183.697C346.975,-175.389 339.463,-165.277 332.676,-156.141"/>
<polygon fill="black" stroke="black" points="335.479,-154.045 326.706,-148.104 329.86,-158.219 335.479,-154.045"/>
</g>
<!-- platformsnon&#45;Windows -->
<g id="node13" class="node"><title>platformsnon&#45;Windows</title>
<path fill="#4f00ea" stroke="black" d="M450,-148C450,-148 378,-148 378,-148 372,-148 366,-142 366,-136 366,-136 366,-124 366,-124 366,-118 372,-112 378,-112 378,-112 450,-112 450,-112 456,-112 462,-118 462,-124 462,-124 462,-136 462,-136 462,-142 456,-148 450,-148"/>
<text text-anchor="middle" x="414" y="-126.3" font-family="Times New Roman,serif" font-size="14.00">non&#45;Windows</text>
</g>
<!-- platformsplatforms&#45;&gt;platformsnon&#45;Windows -->
<g id="edge12" class="edge"><title>platformsplatforms&#45;&gt;platformsnon&#45;Windows</title>
<path fill="none" stroke="black" d="M377.865,-183.697C383.503,-175.474 390.354,-165.483 396.569,-156.421"/>
<polygon fill="black" stroke="black" points="399.503,-158.331 402.271,-148.104 393.729,-154.372 399.503,-158.331"/>
</g>
<!-- platformswindows2 -->
<g id="node12" class="node"><title>platformswindows2</title>
<path fill="#4f00ea" stroke="black" d="M331.5,-76C331.5,-76 296.5,-76 296.5,-76 290.5,-76 284.5,-70 284.5,-64 284.5,-64 284.5,-52 284.5,-52 284.5,-46 290.5,-40 296.5,-40 296.5,-40 331.5,-40 331.5,-40 337.5,-40 343.5,-46 343.5,-52 343.5,-52 343.5,-64 343.5,-64 343.5,-70 337.5,-76 331.5,-76"/>
<text text-anchor="middle" x="314" y="-54.3" font-family="Times New Roman,serif" font-size="14.00">foo.exe</text>
</g>
<!-- platformswindows&#45;&gt;platformswindows2 -->
<g id="edge11" class="edge"><title>platformswindows&#45;&gt;platformswindows2</title>
<path fill="none" stroke="black" d="M314,-111.697C314,-103.983 314,-94.7125 314,-86.1124"/>
<polygon fill="black" stroke="black" points="317.5,-86.1043 314,-76.1043 310.5,-86.1044 317.5,-86.1043"/>
</g>
<!-- platformsnon&#45;Windows2 -->
<g id="node14" class="node"><title>platformsnon&#45;Windows2</title>
<path fill="#4f00ea" stroke="black" d="M440.5,-76C440.5,-76 387.5,-76 387.5,-76 381.5,-76 375.5,-70 375.5,-64 375.5,-64 375.5,-52 375.5,-52 375.5,-46 381.5,-40 387.5,-40 387.5,-40 440.5,-40 440.5,-40 446.5,-40 452.5,-46 452.5,-52 452.5,-52 452.5,-64 452.5,-64 452.5,-70 446.5,-76 440.5,-76"/>
<text text-anchor="middle" x="414" y="-54.3" font-family="Times New Roman,serif" font-size="14.00">foo scripts</text>
</g>
<!-- platformsnon&#45;Windows&#45;&gt;platformsnon&#45;Windows2 -->
<g id="edge13" class="edge"><title>platformsnon&#45;Windows&#45;&gt;platformsnon&#45;Windows2</title>
<path fill="none" stroke="black" d="M414,-111.697C414,-103.983 414,-94.7125 414,-86.1124"/>
<polygon fill="black" stroke="black" points="417.5,-86.1043 414,-76.1043 410.5,-86.1044 417.5,-86.1043"/>
</g>
<!-- setup.py developbar -->
<g id="node16" class="node"><title>setup.py developbar</title>
<path fill="#ff00ff" stroke="black" d="M589,-295C589,-295 559,-295 559,-295 553,-295 547,-289 547,-283 547,-283 547,-271 547,-271 547,-265 553,-259 559,-259 559,-259 589,-259 589,-259 595,-259 601,-265 601,-271 601,-271 601,-283 601,-283 601,-289 595,-295 589,-295"/>
<text text-anchor="middle" x="574" y="-273.3" font-family="Times New Roman,serif" font-size="14.00">bar</text>
</g>
<!-- setup.py developentry&#45;&gt;setup.py developbar -->
<g id="edge15" class="edge"><title>setup.py developentry&#45;&gt;setup.py developbar</title>
<path fill="none" stroke="black" d="M574,-330.697C574,-322.983 574,-313.712 574,-305.112"/>
<polygon fill="black" stroke="black" points="577.5,-305.104 574,-295.104 570.5,-305.104 577.5,-305.104"/>
</g>
<!-- setup.py developbar2 -->
<g id="node17" class="node"><title>setup.py developbar2</title>
<path fill="#ff00ff" stroke="black" d="M641.5,-220C641.5,-220 506.5,-220 506.5,-220 500.5,-220 494.5,-214 494.5,-208 494.5,-208 494.5,-196 494.5,-196 494.5,-190 500.5,-184 506.5,-184 506.5,-184 641.5,-184 641.5,-184 647.5,-184 653.5,-190 653.5,-196 653.5,-196 653.5,-208 653.5,-208 653.5,-214 647.5,-220 641.5,-220"/>
<text text-anchor="middle" x="574" y="-198.3" font-family="Times New Roman,serif" font-size="14.00">other_module:some_func</text>
</g>
<!-- setup.py developbar&#45;&gt;setup.py developbar2 -->
<g id="edge16" class="edge"><title>setup.py developbar&#45;&gt;setup.py developbar2</title>
<path fill="none" stroke="black" d="M574,-258.7C574,-250.245 574,-239.869 574,-230.373"/>
<polygon fill="black" stroke="black" points="577.5,-230.176 574,-220.176 570.5,-230.176 577.5,-230.176"/>
</g>
<!-- pip installbaz -->
<g id="node19" class="node"><title>pip installbaz</title>
<path fill="#ea1644" stroke="black" d="M778,-295C778,-295 748,-295 748,-295 742,-295 736,-289 736,-283 736,-283 736,-271 736,-271 736,-265 742,-259 748,-259 748,-259 778,-259 778,-259 784,-259 790,-265 790,-271 790,-271 790,-283 790,-283 790,-289 784,-295 778,-295"/>
<text text-anchor="middle" x="763" y="-273.3" font-family="Times New Roman,serif" font-size="14.00">baz</text>
</g>
<!-- pip installentry&#45;&gt;pip installbaz -->
<g id="edge18" class="edge"><title>pip installentry&#45;&gt;pip installbaz</title>
<path fill="none" stroke="black" d="M763,-330.697C763,-322.983 763,-313.712 763,-305.112"/>
<polygon fill="black" stroke="black" points="766.5,-305.104 763,-295.104 759.5,-305.104 766.5,-305.104"/>
</g>
<!-- pip installbaz_2 -->
<g id="node23" class="node"><title>pip installbaz_2</title>
<path fill="#ea1644" stroke="black" d="M910,-295C910,-295 880,-295 880,-295 874,-295 868,-289 868,-283 868,-283 868,-271 868,-271 868,-265 874,-259 880,-259 880,-259 910,-259 910,-259 916,-259 922,-265 922,-271 922,-271 922,-283 922,-283 922,-289 916,-295 910,-295"/>
<text text-anchor="middle" x="895" y="-273.3" font-family="Times New Roman,serif" font-size="14.00">baz_2</text>
</g>
<!-- pip installentry&#45;&gt;pip installbaz_2 -->
<g id="edge22" class="edge"><title>pip installentry&#45;&gt;pip installbaz_2</title>
<path fill="none" stroke="black" d="M795.291,-330.876C814.531,-320.673 838.995,-307.7 858.875,-297.157"/>
<polygon fill="black" stroke="black" points="860.742,-300.129 867.937,-292.352 857.462,-293.945 860.742,-300.129"/>
</g>
<!-- pip installbaz2 -->
<g id="node20" class="node"><title>pip installbaz2</title>
<path fill="#ea1644" stroke="black" d="M836,-220C836,-220 690,-220 690,-220 684,-220 678,-214 678,-208 678,-208 678,-196 678,-196 678,-190 684,-184 690,-184 690,-184 836,-184 836,-184 842,-184 848,-190 848,-196 848,-196 848,-208 848,-208 848,-214 842,-220 836,-220"/>
<text text-anchor="middle" x="763" y="-198.3" font-family="Times New Roman,serif" font-size="14.00">my_package_gui:start_func</text>
</g>
<!-- pip installbaz&#45;&gt;pip installbaz2 -->
<g id="edge19" class="edge"><title>pip installbaz&#45;&gt;pip installbaz2</title>
<path fill="none" stroke="black" d="M763,-258.7C763,-250.245 763,-239.869 763,-230.373"/>
<polygon fill="black" stroke="black" points="766.5,-230.176 763,-220.176 759.5,-230.176 766.5,-230.176"/>
</g>
<!-- pip installbaz3 -->
<g id="node21" class="node"><title>pip installbaz3</title>
<path fill="#ea1644" stroke="black" d="M784.5,-148C784.5,-148 741.5,-148 741.5,-148 735.5,-148 729.5,-142 729.5,-136 729.5,-136 729.5,-124 729.5,-124 729.5,-118 735.5,-112 741.5,-112 741.5,-112 784.5,-112 784.5,-112 790.5,-112 796.5,-118 796.5,-124 796.5,-124 796.5,-136 796.5,-136 796.5,-142 790.5,-148 784.5,-148"/>
<text text-anchor="middle" x="763" y="-126.3" font-family="Times New Roman,serif" font-size="14.00">windows</text>
</g>
<!-- pip installbaz2&#45;&gt;pip installbaz3 -->
<g id="edge20" class="edge"><title>pip installbaz2&#45;&gt;pip installbaz3</title>
<path fill="none" stroke="black" d="M763,-183.697C763,-175.983 763,-166.712 763,-158.112"/>
<polygon fill="black" stroke="black" points="766.5,-158.104 763,-148.104 759.5,-158.104 766.5,-158.104"/>
</g>
<!-- pip installbaz4 -->
<g id="node22" class="node"><title>pip installbaz4</title>
<path fill="#ea1644" stroke="black" d="M783,-76C783,-76 743,-76 743,-76 737,-76 731,-70 731,-64 731,-64 731,-52 731,-52 731,-46 737,-40 743,-40 743,-40 783,-40 783,-40 789,-40 795,-46 795,-52 795,-52 795,-64 795,-64 795,-70 789,-76 783,-76"/>
<text text-anchor="middle" x="763" y="-54.3" font-family="Times New Roman,serif" font-size="14.00">baz.pyw</text>
</g>
<!-- pip installbaz3&#45;&gt;pip installbaz4 -->
<g id="edge21" class="edge"><title>pip installbaz3&#45;&gt;pip installbaz4</title>
<path fill="none" stroke="black" d="M763,-111.697C763,-103.983 763,-94.7125 763,-86.1124"/>
<polygon fill="black" stroke="black" points="766.5,-86.1043 763,-76.1043 759.5,-86.1044 766.5,-86.1043"/>
</g>
<!-- pip installbaz_22 -->
<g id="node24" class="node"><title>pip installbaz_22</title>
<path fill="#ea1644" stroke="black" d="M1031.5,-220C1031.5,-220 878.5,-220 878.5,-220 872.5,-220 866.5,-214 866.5,-208 866.5,-208 866.5,-196 866.5,-196 866.5,-190 872.5,-184 878.5,-184 878.5,-184 1031.5,-184 1031.5,-184 1037.5,-184 1043.5,-190 1043.5,-196 1043.5,-196 1043.5,-208 1043.5,-208 1043.5,-214 1037.5,-220 1031.5,-220"/>
<text text-anchor="middle" x="955" y="-198.3" font-family="Times New Roman,serif" font-size="14.00">my_package_gui:start_func2</text>
</g>
<!-- pip installbaz_2&#45;&gt;pip installbaz_22 -->
<g id="edge23" class="edge"><title>pip installbaz_2&#45;&gt;pip installbaz_22</title>
<path fill="none" stroke="black" d="M909.219,-258.7C916.766,-249.518 926.176,-238.069 934.498,-227.944"/>
<polygon fill="black" stroke="black" points="937.237,-230.124 940.883,-220.176 931.829,-225.679 937.237,-230.124"/>
</g>
<!-- pip installbaz_23 -->
<g id="node25" class="node"><title>pip installbaz_23</title>
<path fill="#ea1644" stroke="black" d="M991,-148C991,-148 919,-148 919,-148 913,-148 907,-142 907,-136 907,-136 907,-124 907,-124 907,-118 913,-112 919,-112 919,-112 991,-112 991,-112 997,-112 1003,-118 1003,-124 1003,-124 1003,-136 1003,-136 1003,-142 997,-148 991,-148"/>
<text text-anchor="middle" x="955" y="-126.3" font-family="Times New Roman,serif" font-size="14.00">non&#45;Windows</text>
</g>
<!-- pip installbaz_22&#45;&gt;pip installbaz_23 -->
<g id="edge24" class="edge"><title>pip installbaz_22&#45;&gt;pip installbaz_23</title>
<path fill="none" stroke="black" d="M955,-183.697C955,-175.983 955,-166.712 955,-158.112"/>
<polygon fill="black" stroke="black" points="958.5,-158.104 955,-148.104 951.5,-158.104 958.5,-158.104"/>
</g>
<!-- pip installbaz_24 -->
<g id="node26" class="node"><title>pip installbaz_24</title>
<path fill="#ea1644" stroke="black" d="M983.5,-76C983.5,-76 926.5,-76 926.5,-76 920.5,-76 914.5,-70 914.5,-64 914.5,-64 914.5,-52 914.5,-52 914.5,-46 920.5,-40 926.5,-40 926.5,-40 983.5,-40 983.5,-40 989.5,-40 995.5,-46 995.5,-52 995.5,-52 995.5,-64 995.5,-64 995.5,-70 989.5,-76 983.5,-76"/>
<text text-anchor="middle" x="955" y="-54.3" font-family="Times New Roman,serif" font-size="14.00">baz scripts </text>
</g>
<!-- pip installbaz_23&#45;&gt;pip installbaz_24 -->
<g id="edge25" class="edge"><title>pip installbaz_23&#45;&gt;pip installbaz_24</title>
<path fill="none" stroke="black" d="M955,-111.697C955,-103.983 955,-94.7125 955,-86.1124"/>
<polygon fill="black" stroke="black" points="958.5,-86.1043 955,-76.1043 951.5,-86.1044 958.5,-86.1043"/>
</g>
</g>
</svg>
