<?xml version="1.0" encoding="UTF-8" standalone="no"?>
<!DOCTYPE svg PUBLIC "-//W3C//DTD SVG 1.1//EN"
 "http://www.w3.org/Graphics/SVG/1.1/DTD/svg11.dtd">
<!-- Generated by graphviz version 2.38.0 (20140413.2041)
 -->
<!-- Title: %3 Pages: 1 -->
<svg width="2296pt" height="918pt"
 viewBox="0.00 0.00 2296.00 918.00" xmlns="http://www.w3.org/2000/svg" xmlns:xlink="http://www.w3.org/1999/xlink">
<g id="graph0" class="graph" transform="scale(1 1) rotate(0) translate(4 914)">
<title>%3</title>
<polygon fill="white" stroke="none" points="-4,4 -4,-914 2292,-914 2292,4 -4,4"/>
<g id="clust2" class="cluster"><title>cluster_tg</title>
<polygon fill="none" stroke="black" points="778,-79 778,-902 2280,-902 2280,-79 778,-79"/>
<text text-anchor="middle" x="1529" y="-886.8" font-family="Times New Roman,serif" font-size="14.00">tg</text>
</g>
<g id="clust3" class="cluster"><title>cluster_tg_root_controller</title>
<polygon fill="none" stroke="red" points="1070,-87 1070,-721 1308,-721 1308,-87 1070,-87"/>
<text text-anchor="middle" x="1189" y="-705.8" font-family="Times New Roman,serif" font-size="14.00">RootController</text>
</g>
<g id="clust4" class="cluster"><title>cluster_tg_index</title>
<polygon fill="none" stroke="blue" points="1098,-95 1098,-268.5 1280,-268.5 1280,-95 1098,-95"/>
<text text-anchor="middle" x="1189" y="-253.3" font-family="Times New Roman,serif" font-size="14.00">index</text>
</g>
<g id="clust1" class="cluster"><title>cluster_array</title>
<polygon fill="none" stroke="black" points="106,-8 106,-721 770,-721 770,-8 106,-8"/>
<text text-anchor="middle" x="438" y="-705.8" font-family="Times New Roman,serif" font-size="14.00">wsgiref</text>
</g>
<!-- firstEel -->
<g id="node1" class="node"><title>firstEel</title>
<path fill="#00e599" stroke="black" d="M86,-139C86,-139 12,-139 12,-139 6,-139 0,-133 0,-127 0,-127 0,-115 0,-115 0,-109 6,-103 12,-103 12,-103 86,-103 86,-103 92,-103 98,-109 98,-115 98,-115 98,-127 98,-127 98,-133 92,-139 86,-139"/>
<text text-anchor="middle" x="49" y="-117.3" font-family="Times New Roman,serif" font-size="14.00">minimal mode </text>
</g>
<!-- end -->
<g id="node6" class="node"><title>end</title>
<ellipse fill="none" stroke="black" cx="217" cy="-34" rx="87.9851" ry="18"/>
<text text-anchor="middle" x="217" y="-30.3" font-family="Times New Roman,serif" font-size="14.00">httpd.serve_forever()</text>
</g>
<!-- firstEel&#45;&gt;end -->
<g id="edge18" class="edge"><title>firstEel&#45;&gt;end</title>
<path fill="none" stroke="black" d="M68.1664,-102.965C77.837,-94.9607 90.0326,-85.7244 102,-79 120.414,-68.6534 141.745,-59.7391 160.998,-52.6927"/>
<polygon fill="black" stroke="black" points="162.312,-55.94 170.555,-49.2833 159.96,-49.347 162.312,-55.94"/>
</g>
<!-- wsgiref -->
<g id="node2" class="node"><title>wsgiref</title>
<path fill="#ff5e99" stroke="black" d="M454.5,-690C454.5,-690 421.5,-690 421.5,-690 415.5,-690 409.5,-684 409.5,-678 409.5,-678 409.5,-666 409.5,-666 409.5,-660 415.5,-654 421.5,-654 421.5,-654 454.5,-654 454.5,-654 460.5,-654 466.5,-660 466.5,-666 466.5,-666 466.5,-678 466.5,-678 466.5,-684 460.5,-690 454.5,-690"/>
<text text-anchor="middle" x="438" y="-668.3" font-family="Times New Roman,serif" font-size="14.00">wsgiref</text>
</g>
<!-- make_server -->
<g id="node3" class="node"><title>make_server</title>
<path fill="#ff5e99" stroke="black" d="M749.5,-469.5C749.5,-469.5 126.5,-469.5 126.5,-469.5 120.5,-469.5 114.5,-463.5 114.5,-457.5 114.5,-457.5 114.5,-445.5 114.5,-445.5 114.5,-439.5 120.5,-433.5 126.5,-433.5 126.5,-433.5 749.5,-433.5 749.5,-433.5 755.5,-433.5 761.5,-439.5 761.5,-445.5 761.5,-445.5 761.5,-457.5 761.5,-457.5 761.5,-463.5 755.5,-469.5 749.5,-469.5"/>
<text text-anchor="middle" x="438" y="-447.8" font-family="Times New Roman,serif" font-size="14.00">make_server</text>
</g>
<!-- wsgiref&#45;&gt;make_server -->
<g id="edge1" class="edge"><title>wsgiref&#45;&gt;make_server</title>
<path fill="none" stroke="black" d="M438,-653.855C438,-616.041 438,-525.231 438,-479.615"/>
<polygon fill="black" stroke="black" points="441.5,-479.566 438,-469.566 434.5,-479.566 441.5,-479.566"/>
<text text-anchor="middle" x="572" y="-624.8" font-family="Times New Roman,serif" font-size="14.00">from wsgiref.simple_server import make_server</text>
</g>
<!-- make_server_run -->
<g id="node4" class="node"><title>make_server_run</title>
<path fill="#ff5e99" stroke="black" d="M631.5,-263C631.5,-263 244.5,-263 244.5,-263 238.5,-263 232.5,-257 232.5,-251 232.5,-251 232.5,-188 232.5,-188 232.5,-182 238.5,-176 244.5,-176 244.5,-176 631.5,-176 631.5,-176 637.5,-176 643.5,-182 643.5,-188 643.5,-188 643.5,-251 643.5,-251 643.5,-257 637.5,-263 631.5,-263"/>
<text text-anchor="middle" x="438" y="-215.8" font-family="Times New Roman,serif" font-size="14.00">make_server(&#39;&#39;, 8080, config.make_wsgi_app())</text>
</g>
<!-- make_server&#45;&gt;make_server_run -->
<g id="edge2" class="edge"><title>make_server&#45;&gt;make_server_run</title>
<path fill="none" stroke="black" d="M438,-433.213C438,-399.689 438,-324.631 438,-273.271"/>
<polygon fill="black" stroke="black" points="441.5,-273.014 438,-263.014 434.5,-273.014 441.5,-273.014"/>
</g>
<!-- NAMEhttpd -->
<g id="node5" class="node"><title>NAMEhttpd</title>
<path fill="#ff5e99" stroke="black" d="M320,-139C320,-139 290,-139 290,-139 284,-139 278,-133 278,-127 278,-127 278,-115 278,-115 278,-109 284,-103 290,-103 290,-103 320,-103 320,-103 326,-103 332,-109 332,-115 332,-115 332,-127 332,-127 332,-133 326,-139 320,-139"/>
<text text-anchor="middle" x="305" y="-117.3" font-family="Times New Roman,serif" font-size="14.00">httpd</text>
</g>
<!-- make_server_run&#45;&gt;NAMEhttpd -->
<g id="edge3" class="edge"><title>make_server_run&#45;&gt;NAMEhttpd</title>
<path fill="none" stroke="black" d="M379.277,-175.893C364.69,-165.309 349.596,-154.358 336.856,-145.114"/>
<polygon fill="black" stroke="black" points="338.597,-142.053 328.448,-139.013 334.486,-147.718 338.597,-142.053"/>
</g>
<!-- NAMEhttpd&#45;&gt;end -->
<g id="edge4" class="edge"><title>NAMEhttpd&#45;&gt;end</title>
<path fill="none" stroke="black" d="M287.192,-102.799C274.105,-90.1583 256.158,-72.8229 241.687,-58.8458"/>
<polygon fill="black" stroke="black" points="244.106,-56.3154 234.481,-51.8854 239.242,-61.3502 244.106,-56.3154"/>
</g>
<!-- tg -->
<g id="node7" class="node"><title>tg</title>
<path fill="#99ff5e" stroke="black" d="M1401,-871C1401,-871 1371,-871 1371,-871 1365,-871 1359,-865 1359,-859 1359,-859 1359,-847 1359,-847 1359,-841 1365,-835 1371,-835 1371,-835 1401,-835 1401,-835 1407,-835 1413,-841 1413,-847 1413,-847 1413,-859 1413,-859 1413,-865 1407,-871 1401,-871"/>
<text text-anchor="middle" x="1386" y="-849.3" font-family="Times New Roman,serif" font-size="14.00">tg</text>
</g>
<!-- expose -->
<g id="node8" class="node"><title>expose</title>
<path fill="#99ff5e" stroke="black" d="M1102,-784C1102,-784 798,-784 798,-784 792,-784 786,-778 786,-772 786,-772 786,-760 786,-760 786,-754 792,-748 798,-748 798,-748 1102,-748 1102,-748 1108,-748 1114,-754 1114,-760 1114,-760 1114,-772 1114,-772 1114,-778 1108,-784 1102,-784"/>
<text text-anchor="middle" x="950" y="-762.3" font-family="Times New Roman,serif" font-size="14.00">expose</text>
</g>
<!-- tg&#45;&gt;expose -->
<g id="edge15" class="edge"><title>tg&#45;&gt;expose</title>
<path fill="none" stroke="black" d="M1358.73,-846.683C1297.65,-834.777 1147.41,-805.486 1047.1,-785.931"/>
<polygon fill="black" stroke="black" points="1047.74,-782.489 1037.25,-784.011 1046.4,-789.36 1047.74,-782.489"/>
<text text-anchor="middle" x="1257" y="-805.8" font-family="Times New Roman,serif" font-size="14.00">from tg import expose</text>
</g>
<!-- TGController -->
<g id="node9" class="node"><title>TGController</title>
<path fill="#99ff5e" stroke="black" d="M1628,-784C1628,-784 1144,-784 1144,-784 1138,-784 1132,-778 1132,-772 1132,-772 1132,-760 1132,-760 1132,-754 1138,-748 1144,-748 1144,-748 1628,-748 1628,-748 1634,-748 1640,-754 1640,-760 1640,-760 1640,-772 1640,-772 1640,-778 1634,-784 1628,-784"/>
<text text-anchor="middle" x="1386" y="-762.3" font-family="Times New Roman,serif" font-size="14.00">TGController</text>
</g>
<!-- tg&#45;&gt;TGController -->
<g id="edge14" class="edge"><title>tg&#45;&gt;TGController</title>
<path fill="none" stroke="black" d="M1386,-834.799C1386,-823.163 1386,-807.548 1386,-794.237"/>
<polygon fill="black" stroke="black" points="1389.5,-794.175 1386,-784.175 1382.5,-794.175 1389.5,-794.175"/>
<text text-anchor="middle" x="1467" y="-805.8" font-family="Times New Roman,serif" font-size="14.00">from tg import TGController</text>
</g>
<!-- MinimalApplicationConfigurator -->
<g id="node10" class="node"><title>MinimalApplicationConfigurator</title>
<path fill="#99ff5e" stroke="black" d="M2259.5,-784C2259.5,-784 1670.5,-784 1670.5,-784 1664.5,-784 1658.5,-778 1658.5,-772 1658.5,-772 1658.5,-760 1658.5,-760 1658.5,-754 1664.5,-748 1670.5,-748 1670.5,-748 2259.5,-748 2259.5,-748 2265.5,-748 2271.5,-754 2271.5,-760 2271.5,-760 2271.5,-772 2271.5,-772 2271.5,-778 2265.5,-784 2259.5,-784"/>
<text text-anchor="middle" x="1965" y="-762.3" font-family="Times New Roman,serif" font-size="14.00">MinimalApplicationConfigurator</text>
</g>
<!-- tg&#45;&gt;MinimalApplicationConfigurator -->
<g id="edge13" class="edge"><title>tg&#45;&gt;MinimalApplicationConfigurator</title>
<path fill="none" stroke="black" d="M1413.15,-848.014C1487.91,-837.039 1700.4,-805.845 1838.83,-785.522"/>
<polygon fill="black" stroke="black" points="1839.69,-788.933 1849.08,-784.018 1838.68,-782.007 1839.69,-788.933"/>
<text text-anchor="middle" x="1843" y="-805.8" font-family="Times New Roman,serif" font-size="14.00">from tg import MinimalApplicationConfigurator</text>
</g>
<!-- @expose -->
<g id="node15" class="node"><title>@expose</title>
<path fill="#ea4f16" stroke="black" d="M1287.5,-469.5C1287.5,-469.5 1090.5,-469.5 1090.5,-469.5 1084.5,-469.5 1078.5,-463.5 1078.5,-457.5 1078.5,-457.5 1078.5,-445.5 1078.5,-445.5 1078.5,-439.5 1084.5,-433.5 1090.5,-433.5 1090.5,-433.5 1287.5,-433.5 1287.5,-433.5 1293.5,-433.5 1299.5,-439.5 1299.5,-445.5 1299.5,-445.5 1299.5,-457.5 1299.5,-457.5 1299.5,-463.5 1293.5,-469.5 1287.5,-469.5"/>
<text text-anchor="middle" x="1189" y="-447.8" font-family="Times New Roman,serif" font-size="14.00">@expose(content_type=&quot;text/plain&quot;)</text>
</g>
<!-- expose&#45;&gt;@expose -->
<g id="edge12" class="edge"><title>expose&#45;&gt;@expose</title>
<path fill="none" stroke="black" d="M963.19,-747.754C1003.1,-695.572 1122.7,-539.196 1169.71,-477.717"/>
<polygon fill="black" stroke="black" points="1172.56,-479.763 1175.85,-469.693 1167,-475.51 1172.56,-479.763"/>
</g>
<!-- RootController -->
<g id="node14" class="node"><title>RootController</title>
<path fill="#ea4f16" stroke="black" d="M1287.5,-690C1287.5,-690 1090.5,-690 1090.5,-690 1084.5,-690 1078.5,-684 1078.5,-678 1078.5,-678 1078.5,-666 1078.5,-666 1078.5,-660 1084.5,-654 1090.5,-654 1090.5,-654 1287.5,-654 1287.5,-654 1293.5,-654 1299.5,-660 1299.5,-666 1299.5,-666 1299.5,-678 1299.5,-678 1299.5,-684 1293.5,-690 1287.5,-690"/>
<text text-anchor="middle" x="1189" y="-668.3" font-family="Times New Roman,serif" font-size="14.00">class RootController(TGController):</text>
</g>
<!-- TGController&#45;&gt;RootController -->
<g id="edge9" class="edge"><title>TGController&#45;&gt;RootController</title>
<path fill="none" stroke="black" d="M1349.41,-747.911C1317.17,-732.854 1270.04,-710.847 1235.21,-694.579"/>
<polygon fill="black" stroke="black" points="1236.27,-691.213 1225.73,-690.153 1233.31,-697.556 1236.27,-691.213"/>
</g>
<!-- get_config -->
<g id="node11" class="node"><title>get_config</title>
<path fill="#99ff5e" stroke="black" d="M2045.5,-690C2045.5,-690 1396.5,-690 1396.5,-690 1390.5,-690 1384.5,-684 1384.5,-678 1384.5,-678 1384.5,-666 1384.5,-666 1384.5,-660 1390.5,-654 1396.5,-654 1396.5,-654 2045.5,-654 2045.5,-654 2051.5,-654 2057.5,-660 2057.5,-666 2057.5,-666 2057.5,-678 2057.5,-678 2057.5,-684 2051.5,-690 2045.5,-690"/>
<text text-anchor="middle" x="1721" y="-668.3" font-family="Times New Roman,serif" font-size="14.00">config = MinimalApplicationConfigurator()</text>
</g>
<!-- MinimalApplicationConfigurator&#45;&gt;get_config -->
<g id="edge8" class="edge"><title>MinimalApplicationConfigurator&#45;&gt;get_config</title>
<path fill="none" stroke="black" d="M1919.68,-747.911C1879.06,-732.597 1819.38,-710.093 1776.03,-693.75"/>
<polygon fill="black" stroke="black" points="1777.09,-690.406 1766.49,-690.153 1774.62,-696.956 1777.09,-690.406"/>
</g>
<!-- config -->
<g id="node12" class="node"><title>config</title>
<path fill="#99ff5e" stroke="black" d="M1583,-603C1583,-603 1427,-603 1427,-603 1421,-603 1415,-597 1415,-591 1415,-591 1415,-312 1415,-312 1415,-306 1421,-300 1427,-300 1427,-300 1583,-300 1583,-300 1589,-300 1595,-306 1595,-312 1595,-312 1595,-591 1595,-591 1595,-597 1589,-603 1583,-603"/>
<text text-anchor="middle" x="1505" y="-447.8" font-family="Times New Roman,serif" font-size="14.00">config</text>
</g>
<!-- get_config&#45;&gt;config -->
<g id="edge7" class="edge"><title>get_config&#45;&gt;config</title>
<path fill="none" stroke="black" d="M1704.05,-653.855C1681.86,-631.409 1641.21,-590.289 1602.41,-551.033"/>
<polygon fill="black" stroke="black" points="1604.71,-548.381 1595.19,-543.73 1599.73,-553.302 1604.71,-548.381"/>
</g>
<!-- config&#45;&gt;make_server_run -->
<g id="edge17" class="edge"><title>config&#45;&gt;make_server_run</title>
<path fill="none" stroke="black" d="M1414.6,-362.825C1384.27,-338.364 1348.75,-314.529 1312,-300 1281.75,-288.038 902.725,-256.643 653.848,-237.075"/>
<polygon fill="black" stroke="black" points="653.818,-233.562 643.575,-236.268 653.27,-240.54 653.818,-233.562"/>
</g>
<!-- update_blueprint -->
<g id="node13" class="node"><title>update_blueprint</title>
<path fill="#99ff5e" stroke="black" d="M1681.5,-237.5C1681.5,-237.5 1328.5,-237.5 1328.5,-237.5 1322.5,-237.5 1316.5,-231.5 1316.5,-225.5 1316.5,-225.5 1316.5,-213.5 1316.5,-213.5 1316.5,-207.5 1322.5,-201.5 1328.5,-201.5 1328.5,-201.5 1681.5,-201.5 1681.5,-201.5 1687.5,-201.5 1693.5,-207.5 1693.5,-213.5 1693.5,-213.5 1693.5,-225.5 1693.5,-225.5 1693.5,-231.5 1687.5,-237.5 1681.5,-237.5"/>
<text text-anchor="middle" x="1505" y="-215.8" font-family="Times New Roman,serif" font-size="14.00"> config.update_blueprint({ &#39;root_controller&#39;: RootController() }) </text>
</g>
<!-- config&#45;&gt;update_blueprint -->
<g id="edge5" class="edge"><title>config&#45;&gt;update_blueprint</title>
<path fill="none" stroke="black" d="M1505,-299.975C1505,-280.133 1505,-261.855 1505,-247.844"/>
<polygon fill="black" stroke="black" points="1508.5,-247.573 1505,-237.573 1501.5,-247.573 1508.5,-247.573"/>
</g>
<!-- RootController&#45;&gt;update_blueprint -->
<g id="edge6" class="edge"><title>RootController&#45;&gt;update_blueprint</title>
<path fill="none" stroke="black" d="M1236.58,-653.918C1261.3,-642.849 1290.2,-626.134 1309,-603 1398.19,-493.278 1325.92,-416.54 1406,-300 1421.84,-276.949 1446.29,-257.22 1466.94,-243.181"/>
<polygon fill="black" stroke="black" points="1469.09,-245.95 1475.51,-237.52 1465.24,-240.107 1469.09,-245.95"/>
</g>
<!-- RootController&#45;&gt;@expose -->
<g id="edge10" class="edge"><title>RootController&#45;&gt;@expose</title>
<path fill="none" stroke="black" d="M1189,-653.855C1189,-616.041 1189,-525.231 1189,-479.615"/>
<polygon fill="black" stroke="black" points="1192.5,-479.566 1189,-469.566 1185.5,-479.566 1192.5,-479.566"/>
</g>
<!-- index -->
<g id="node16" class="node"><title>index</title>
<path fill="#164fea" stroke="black" d="M1227,-237.5C1227,-237.5 1151,-237.5 1151,-237.5 1145,-237.5 1139,-231.5 1139,-225.5 1139,-225.5 1139,-213.5 1139,-213.5 1139,-207.5 1145,-201.5 1151,-201.5 1151,-201.5 1227,-201.5 1227,-201.5 1233,-201.5 1239,-207.5 1239,-213.5 1239,-213.5 1239,-225.5 1239,-225.5 1239,-231.5 1233,-237.5 1227,-237.5"/>
<text text-anchor="middle" x="1189" y="-215.8" font-family="Times New Roman,serif" font-size="14.00">def index(self):</text>
</g>
<!-- @expose&#45;&gt;index -->
<g id="edge11" class="edge"><title>@expose&#45;&gt;index</title>
<path fill="none" stroke="black" d="M1189,-433.213C1189,-393.572 1189,-295.859 1189,-247.92"/>
<polygon fill="black" stroke="black" points="1192.5,-247.674 1189,-237.674 1185.5,-247.674 1192.5,-247.674"/>
</g>
<!-- return &#39;Hello World&#39; -->
<g id="node17" class="node"><title>return &#39;Hello World&#39;</title>
<ellipse fill="none" stroke="black" cx="1189" cy="-121" rx="83.3857" ry="18"/>
<text text-anchor="middle" x="1189" y="-117.3" font-family="Times New Roman,serif" font-size="14.00">return &#39;Hello World&#39;</text>
</g>
<!-- index&#45;&gt;return &#39;Hello World&#39; -->
<g id="edge16" class="edge"><title>index&#45;&gt;return &#39;Hello World&#39;</title>
<path fill="none" stroke="black" d="M1189,-201.248C1189,-186.839 1189,-166.035 1189,-149.358"/>
<polygon fill="black" stroke="black" points="1192.5,-149.103 1189,-139.103 1185.5,-149.103 1192.5,-149.103"/>
</g>
</g>
</svg>
