<?xml version="1.0" encoding="UTF-8" standalone="no"?>
<!DOCTYPE svg PUBLIC "-//W3C//DTD SVG 1.1//EN"
 "http://www.w3.org/Graphics/SVG/1.1/DTD/svg11.dtd">
<!-- Generated by graphviz version 2.38.0 (20140413.2041)
 -->
<!-- Title: %3 Pages: 1 -->
<svg width="386pt" height="476pt"
 viewBox="0.00 0.00 386.00 476.00" xmlns="http://www.w3.org/2000/svg" xmlns:xlink="http://www.w3.org/1999/xlink">
<g id="graph0" class="graph" transform="scale(1 1) rotate(0) translate(4 472)">
<title>%3</title>
<polygon fill="white" stroke="none" points="-4,4 -4,-472 382,-472 382,4 -4,4"/>
<!-- venv -->
<g id="node1" class="node"><title>venv</title>
<path fill="#00e599" stroke="black" d="M366,-396C366,-396 12,-396 12,-396 6,-396 0,-390 0,-384 0,-384 0,-372 0,-372 0,-366 6,-360 12,-360 12,-360 366,-360 366,-360 372,-360 378,-366 378,-372 378,-372 378,-384 378,-384 378,-390 372,-396 366,-396"/>
<text text-anchor="middle" x="189" y="-374.3" font-family="Times New Roman,serif" font-size="14.00">virtualenv &#45;&#45;system&#45;site&#45;packages venv &amp; source .venv/bin/active</text>
</g>
<!-- tg2 -->
<g id="node2" class="node"><title>tg2</title>
<path fill="#00e599" stroke="black" d="M251.5,-324C251.5,-324 126.5,-324 126.5,-324 120.5,-324 114.5,-318 114.5,-312 114.5,-312 114.5,-300 114.5,-300 114.5,-294 120.5,-288 126.5,-288 126.5,-288 251.5,-288 251.5,-288 257.5,-288 263.5,-294 263.5,-300 263.5,-300 263.5,-312 263.5,-312 263.5,-318 257.5,-324 251.5,-324"/>
<text text-anchor="middle" x="189" y="-302.3" font-family="Times New Roman,serif" font-size="14.00">pip install TurboGears2</text>
</g>
<!-- venv&#45;&gt;tg2 -->
<g id="edge2" class="edge"><title>venv&#45;&gt;tg2</title>
<path fill="none" stroke="black" d="M189,-359.697C189,-351.983 189,-342.712 189,-334.112"/>
<polygon fill="black" stroke="black" points="192.5,-334.104 189,-324.104 185.5,-334.104 192.5,-334.104"/>
</g>
<!-- tgdev -->
<g id="node3" class="node"><title>tgdev</title>
<path fill="#00e599" stroke="black" d="M245,-252C245,-252 133,-252 133,-252 127,-252 121,-246 121,-240 121,-240 121,-228 121,-228 121,-222 127,-216 133,-216 133,-216 245,-216 245,-216 251,-216 257,-222 257,-228 257,-228 257,-240 257,-240 257,-246 251,-252 245,-252"/>
<text text-anchor="middle" x="189" y="-230.3" font-family="Times New Roman,serif" font-size="14.00">pip install tg.devtools</text>
</g>
<!-- tg2&#45;&gt;tgdev -->
<g id="edge3" class="edge"><title>tg2&#45;&gt;tgdev</title>
<path fill="none" stroke="black" d="M189,-287.697C189,-279.983 189,-270.712 189,-262.112"/>
<polygon fill="black" stroke="black" points="192.5,-262.104 189,-252.104 185.5,-262.104 192.5,-262.104"/>
</g>
<!-- tgstart -->
<g id="node4" class="node"><title>tgstart</title>
<path fill="#00e599" stroke="black" d="M257,-180C257,-180 121,-180 121,-180 115,-180 109,-174 109,-168 109,-168 109,-156 109,-156 109,-150 115,-144 121,-144 121,-144 257,-144 257,-144 263,-144 269,-150 269,-156 269,-156 269,-168 269,-168 269,-174 263,-180 257,-180"/>
<text text-anchor="middle" x="189" y="-158.3" font-family="Times New Roman,serif" font-size="14.00">gearbox quickstart wiki20</text>
</g>
<!-- tgdev&#45;&gt;tgstart -->
<g id="edge4" class="edge"><title>tgdev&#45;&gt;tgstart</title>
<path fill="none" stroke="black" d="M189,-215.697C189,-207.983 189,-198.712 189,-190.112"/>
<polygon fill="black" stroke="black" points="192.5,-190.104 189,-180.104 185.5,-190.104 192.5,-190.104"/>
</g>
<!-- tg_install -->
<g id="node5" class="node"><title>tg_install</title>
<path fill="#00e599" stroke="black" d="M223,-108C223,-108 155,-108 155,-108 149,-108 143,-102 143,-96 143,-96 143,-84 143,-84 143,-78 149,-72 155,-72 155,-72 223,-72 223,-72 229,-72 235,-78 235,-84 235,-84 235,-96 235,-96 235,-102 229,-108 223,-108"/>
<text text-anchor="middle" x="189" y="-86.3" font-family="Times New Roman,serif" font-size="14.00">pip install &#45;e .</text>
</g>
<!-- tgstart&#45;&gt;tg_install -->
<g id="edge5" class="edge"><title>tgstart&#45;&gt;tg_install</title>
<path fill="none" stroke="black" d="M189,-143.697C189,-135.983 189,-126.712 189,-118.112"/>
<polygon fill="black" stroke="black" points="192.5,-118.104 189,-108.104 185.5,-118.104 192.5,-118.104"/>
</g>
<!-- tg_serve -->
<g id="node6" class="node"><title>tg_serve</title>
<path fill="#00e599" stroke="black" d="M271.5,-36C271.5,-36 106.5,-36 106.5,-36 100.5,-36 94.5,-30 94.5,-24 94.5,-24 94.5,-12 94.5,-12 94.5,-6 100.5,-0 106.5,-0 106.5,-0 271.5,-0 271.5,-0 277.5,-0 283.5,-6 283.5,-12 283.5,-12 283.5,-24 283.5,-24 283.5,-30 277.5,-36 271.5,-36"/>
<text text-anchor="middle" x="189" y="-14.3" font-family="Times New Roman,serif" font-size="14.00">gearbox serve &#45;&#45;reload &#45;&#45;debug</text>
</g>
<!-- tg_install&#45;&gt;tg_serve -->
<g id="edge6" class="edge"><title>tg_install&#45;&gt;tg_serve</title>
<path fill="none" stroke="black" d="M189,-71.6966C189,-63.9827 189,-54.7125 189,-46.1124"/>
<polygon fill="black" stroke="black" points="192.5,-46.1043 189,-36.1043 185.5,-46.1044 192.5,-46.1043"/>
</g>
<!-- start -->
<g id="node7" class="node"><title>start</title>
<ellipse fill="none" stroke="black" cx="189" cy="-450" rx="27" ry="18"/>
<text text-anchor="middle" x="189" y="-446.3" font-family="Times New Roman,serif" font-size="14.00">start</text>
</g>
<!-- start&#45;&gt;venv -->
<g id="edge1" class="edge"><title>start&#45;&gt;venv</title>
<path fill="none" stroke="black" d="M189,-431.697C189,-423.983 189,-414.712 189,-406.112"/>
<polygon fill="black" stroke="black" points="192.5,-406.104 189,-396.104 185.5,-406.104 192.5,-406.104"/>
</g>
</g>
</svg>
