<?xml version="1.0" encoding="UTF-8" standalone="no"?>
<!DOCTYPE svg PUBLIC "-//W3C//DTD SVG 1.1//EN"
 "http://www.w3.org/Graphics/SVG/1.1/DTD/svg11.dtd">
<!-- Generated by graphviz version 2.38.0 (20140413.2041)
 -->
<!-- Title: %3 Pages: 1 -->
<svg width="168pt" height="332pt"
 viewBox="0.00 0.00 168.00 332.00" xmlns="http://www.w3.org/2000/svg" xmlns:xlink="http://www.w3.org/1999/xlink">
<g id="graph0" class="graph" transform="scale(1 1) rotate(0) translate(4 328)">
<title>%3</title>
<polygon fill="white" stroke="none" points="-4,4 -4,-328 164,-328 164,4 -4,4"/>
<!-- tg2 -->
<g id="node1" class="node"><title>tg2</title>
<path fill="#00e599" stroke="black" d="M142.5,-252C142.5,-252 17.5,-252 17.5,-252 11.5,-252 5.5,-246 5.5,-240 5.5,-240 5.5,-228 5.5,-228 5.5,-222 11.5,-216 17.5,-216 17.5,-216 142.5,-216 142.5,-216 148.5,-216 154.5,-222 154.5,-228 154.5,-228 154.5,-240 154.5,-240 154.5,-246 148.5,-252 142.5,-252"/>
<text text-anchor="middle" x="80" y="-230.3" font-family="Times New Roman,serif" font-size="14.00">pip install TurboGears2</text>
</g>
<!-- tgdev -->
<g id="node2" class="node"><title>tgdev</title>
<path fill="#00e599" stroke="black" d="M136,-180C136,-180 24,-180 24,-180 18,-180 12,-174 12,-168 12,-168 12,-156 12,-156 12,-150 18,-144 24,-144 24,-144 136,-144 136,-144 142,-144 148,-150 148,-156 148,-156 148,-168 148,-168 148,-174 142,-180 136,-180"/>
<text text-anchor="middle" x="80" y="-158.3" font-family="Times New Roman,serif" font-size="14.00">pip install tg.devtools</text>
</g>
<!-- tg2&#45;&gt;tgdev -->
<g id="edge2" class="edge"><title>tg2&#45;&gt;tgdev</title>
<path fill="none" stroke="black" d="M80,-215.697C80,-207.983 80,-198.712 80,-190.112"/>
<polygon fill="black" stroke="black" points="83.5001,-190.104 80,-180.104 76.5001,-190.104 83.5001,-190.104"/>
</g>
<!-- tgstart -->
<g id="node3" class="node"><title>tgstart</title>
<path fill="#00e599" stroke="black" d="M148,-108C148,-108 12,-108 12,-108 6,-108 0,-102 0,-96 0,-96 0,-84 0,-84 0,-78 6,-72 12,-72 12,-72 148,-72 148,-72 154,-72 160,-78 160,-84 160,-84 160,-96 160,-96 160,-102 154,-108 148,-108"/>
<text text-anchor="middle" x="80" y="-86.3" font-family="Times New Roman,serif" font-size="14.00">gearbox quickstart wiki20</text>
</g>
<!-- tgdev&#45;&gt;tgstart -->
<g id="edge3" class="edge"><title>tgdev&#45;&gt;tgstart</title>
<path fill="none" stroke="black" d="M80,-143.697C80,-135.983 80,-126.712 80,-118.112"/>
<polygon fill="black" stroke="black" points="83.5001,-118.104 80,-108.104 76.5001,-118.104 83.5001,-118.104"/>
</g>
<!-- tg_install -->
<g id="node4" class="node"><title>tg_install</title>
<path fill="#00e599" stroke="black" d="M114,-36C114,-36 46,-36 46,-36 40,-36 34,-30 34,-24 34,-24 34,-12 34,-12 34,-6 40,-0 46,-0 46,-0 114,-0 114,-0 120,-0 126,-6 126,-12 126,-12 126,-24 126,-24 126,-30 120,-36 114,-36"/>
<text text-anchor="middle" x="80" y="-14.3" font-family="Times New Roman,serif" font-size="14.00">pip install &#45;e .</text>
</g>
<!-- tgstart&#45;&gt;tg_install -->
<g id="edge4" class="edge"><title>tgstart&#45;&gt;tg_install</title>
<path fill="none" stroke="black" d="M80,-71.6966C80,-63.9827 80,-54.7125 80,-46.1124"/>
<polygon fill="black" stroke="black" points="83.5001,-46.1043 80,-36.1043 76.5001,-46.1044 83.5001,-46.1043"/>
</g>
<!-- start -->
<g id="node5" class="node"><title>start</title>
<ellipse fill="none" stroke="black" cx="80" cy="-306" rx="27" ry="18"/>
<text text-anchor="middle" x="80" y="-302.3" font-family="Times New Roman,serif" font-size="14.00">start</text>
</g>
<!-- start&#45;&gt;tg2 -->
<g id="edge1" class="edge"><title>start&#45;&gt;tg2</title>
<path fill="none" stroke="black" d="M80,-287.697C80,-279.983 80,-270.712 80,-262.112"/>
<polygon fill="black" stroke="black" points="83.5001,-262.104 80,-252.104 76.5001,-262.104 83.5001,-262.104"/>
</g>
</g>
</svg>
