<?xml version="1.0" encoding="UTF-8" standalone="no"?>
<!DOCTYPE svg PUBLIC "-//W3C//DTD SVG 1.1//EN"
 "http://www.w3.org/Graphics/SVG/1.1/DTD/svg11.dtd">
<!-- Generated by graphviz version 2.38.0 (20140413.2041)
 -->
<!-- Title: %3 Pages: 1 -->
<svg width="197pt" height="404pt"
 viewBox="0.00 0.00 197.00 404.00" xmlns="http://www.w3.org/2000/svg" xmlns:xlink="http://www.w3.org/1999/xlink">
<g id="graph0" class="graph" transform="scale(1 1) rotate(0) translate(4 400)">
<title>%3</title>
<polygon fill="white" stroke="none" points="-4,4 -4,-400 193,-400 193,4 -4,4"/>
<!-- tg2 -->
<g id="node1" class="node"><title>tg2</title>
<path fill="#00e599" stroke="black" d="M157,-324C157,-324 32,-324 32,-324 26,-324 20,-318 20,-312 20,-312 20,-300 20,-300 20,-294 26,-288 32,-288 32,-288 157,-288 157,-288 163,-288 169,-294 169,-300 169,-300 169,-312 169,-312 169,-318 163,-324 157,-324"/>
<text text-anchor="middle" x="94.5" y="-302.3" font-family="Times New Roman,serif" font-size="14.00">pip install TurboGears2</text>
</g>
<!-- tgdev -->
<g id="node2" class="node"><title>tgdev</title>
<path fill="#00e599" stroke="black" d="M150.5,-252C150.5,-252 38.5,-252 38.5,-252 32.5,-252 26.5,-246 26.5,-240 26.5,-240 26.5,-228 26.5,-228 26.5,-222 32.5,-216 38.5,-216 38.5,-216 150.5,-216 150.5,-216 156.5,-216 162.5,-222 162.5,-228 162.5,-228 162.5,-240 162.5,-240 162.5,-246 156.5,-252 150.5,-252"/>
<text text-anchor="middle" x="94.5" y="-230.3" font-family="Times New Roman,serif" font-size="14.00">pip install tg.devtools</text>
</g>
<!-- tg2&#45;&gt;tgdev -->
<g id="edge2" class="edge"><title>tg2&#45;&gt;tgdev</title>
<path fill="none" stroke="black" d="M94.5,-287.697C94.5,-279.983 94.5,-270.712 94.5,-262.112"/>
<polygon fill="black" stroke="black" points="98.0001,-262.104 94.5,-252.104 91.0001,-262.104 98.0001,-262.104"/>
</g>
<!-- tgstart -->
<g id="node3" class="node"><title>tgstart</title>
<path fill="#00e599" stroke="black" d="M162.5,-180C162.5,-180 26.5,-180 26.5,-180 20.5,-180 14.5,-174 14.5,-168 14.5,-168 14.5,-156 14.5,-156 14.5,-150 20.5,-144 26.5,-144 26.5,-144 162.5,-144 162.5,-144 168.5,-144 174.5,-150 174.5,-156 174.5,-156 174.5,-168 174.5,-168 174.5,-174 168.5,-180 162.5,-180"/>
<text text-anchor="middle" x="94.5" y="-158.3" font-family="Times New Roman,serif" font-size="14.00">gearbox quickstart wiki20</text>
</g>
<!-- tgdev&#45;&gt;tgstart -->
<g id="edge3" class="edge"><title>tgdev&#45;&gt;tgstart</title>
<path fill="none" stroke="black" d="M94.5,-215.697C94.5,-207.983 94.5,-198.712 94.5,-190.112"/>
<polygon fill="black" stroke="black" points="98.0001,-190.104 94.5,-180.104 91.0001,-190.104 98.0001,-190.104"/>
</g>
<!-- tg_install -->
<g id="node4" class="node"><title>tg_install</title>
<path fill="#00e599" stroke="black" d="M128.5,-108C128.5,-108 60.5,-108 60.5,-108 54.5,-108 48.5,-102 48.5,-96 48.5,-96 48.5,-84 48.5,-84 48.5,-78 54.5,-72 60.5,-72 60.5,-72 128.5,-72 128.5,-72 134.5,-72 140.5,-78 140.5,-84 140.5,-84 140.5,-96 140.5,-96 140.5,-102 134.5,-108 128.5,-108"/>
<text text-anchor="middle" x="94.5" y="-86.3" font-family="Times New Roman,serif" font-size="14.00">pip install &#45;e .</text>
</g>
<!-- tgstart&#45;&gt;tg_install -->
<g id="edge4" class="edge"><title>tgstart&#45;&gt;tg_install</title>
<path fill="none" stroke="black" d="M94.5,-143.697C94.5,-135.983 94.5,-126.712 94.5,-118.112"/>
<polygon fill="black" stroke="black" points="98.0001,-118.104 94.5,-108.104 91.0001,-118.104 98.0001,-118.104"/>
</g>
<!-- tg_serve -->
<g id="node5" class="node"><title>tg_serve</title>
<path fill="#00e599" stroke="black" d="M177,-36C177,-36 12,-36 12,-36 6,-36 0,-30 0,-24 0,-24 0,-12 0,-12 0,-6 6,-0 12,-0 12,-0 177,-0 177,-0 183,-0 189,-6 189,-12 189,-12 189,-24 189,-24 189,-30 183,-36 177,-36"/>
<text text-anchor="middle" x="94.5" y="-14.3" font-family="Times New Roman,serif" font-size="14.00">gearbox serve &#45;&#45;reload &#45;&#45;debug</text>
</g>
<!-- tg_install&#45;&gt;tg_serve -->
<g id="edge5" class="edge"><title>tg_install&#45;&gt;tg_serve</title>
<path fill="none" stroke="black" d="M94.5,-71.6966C94.5,-63.9827 94.5,-54.7125 94.5,-46.1124"/>
<polygon fill="black" stroke="black" points="98.0001,-46.1043 94.5,-36.1043 91.0001,-46.1044 98.0001,-46.1043"/>
</g>
<!-- start -->
<g id="node6" class="node"><title>start</title>
<ellipse fill="none" stroke="black" cx="94.5" cy="-378" rx="27" ry="18"/>
<text text-anchor="middle" x="94.5" y="-374.3" font-family="Times New Roman,serif" font-size="14.00">start</text>
</g>
<!-- start&#45;&gt;tg2 -->
<g id="edge1" class="edge"><title>start&#45;&gt;tg2</title>
<path fill="none" stroke="black" d="M94.5,-359.697C94.5,-351.983 94.5,-342.712 94.5,-334.112"/>
<polygon fill="black" stroke="black" points="98.0001,-334.104 94.5,-324.104 91.0001,-334.104 98.0001,-334.104"/>
</g>
</g>
</svg>
