<?xml version="1.0" encoding="UTF-8" standalone="no"?>
<!DOCTYPE svg PUBLIC "-//W3C//DTD SVG 1.1//EN"
 "http://www.w3.org/Graphics/SVG/1.1/DTD/svg11.dtd">
<!-- Generated by graphviz version 2.38.0 (20140413.2041)
 -->
<!-- Title: %3 Pages: 1 -->
<svg width="2428pt" height="1274pt"
 viewBox="0.00 0.00 2427.58 1274.00" xmlns="http://www.w3.org/2000/svg" xmlns:xlink="http://www.w3.org/1999/xlink">
<g id="graph0" class="graph" transform="scale(1 1) rotate(0) translate(4 1270)">
<title>%3</title>
<polygon fill="white" stroke="none" points="-4,4 -4,-1270 2423.58,-1270 2423.58,4 -4,4"/>
<g id="clust1" class="cluster"><title>cluster_btree_step1end</title>
<polygon fill="none" stroke="#ea4f16" points="8,-967 8,-1258 555.582,-1258 555.582,-967 8,-967"/>
<text text-anchor="middle" x="281.791" y="-1242.8" font-family="Times New Roman,serif" font-size="14.00">start 4 num</text>
</g>
<g id="clust2" class="cluster"><title>cluster_t_n_end</title>
<polygon fill="none" stroke="black" points="304.782,-1041 304.782,-1224 547.582,-1224 547.582,-1041 304.782,-1041"/>
<text text-anchor="middle" x="426.182" y="-1208.8" font-family="Times New Roman,serif" font-size="14.00">_Bnode</text>
</g>
<g id="clust3" class="cluster"><title>cluster_btree_theninsert5</title>
<polygon fill="none" stroke="#ea4f16" points="130.826,-668 130.826,-959 1135.32,-959 1135.32,-668 130.826,-668"/>
<text text-anchor="middle" x="633.074" y="-943.8" font-family="Times New Roman,serif" font-size="14.00">btree.insert(5)</text>
</g>
<g id="clust4" class="cluster"><title>cluster_Bnode.insert(5)</title>
<polygon fill="none" stroke="black" points="863.557,-742 863.557,-925 1127.32,-925 1127.32,-742 863.557,-742"/>
<text text-anchor="middle" x="995.44" y="-909.8" font-family="Times New Roman,serif" font-size="14.00">_Bnode</text>
</g>
<g id="clust5" class="cluster"><title>cluster_check_len</title>
<polygon fill="none" stroke="black" points="253.653,-531 253.653,-660 1068.44,-660 1068.44,-531 253.653,-531"/>
<text text-anchor="middle" x="661.046" y="-644.8" font-family="Times New Roman,serif" font-size="14.00">check _Bnode content length vs tree order</text>
</g>
<g id="clust6" class="cluster"><title>cluster_splitnode</title>
<polygon fill="none" stroke="black" points="1734.09,-8 1734.09,-565 2223.5,-565 2223.5,-8 1734.09,-8"/>
<text text-anchor="middle" x="1978.79" y="-549.8" font-family="Times New Roman,serif" font-size="14.00">current bnode split</text>
</g>
<g id="clust7" class="cluster"><title>cluster_sibling</title>
<polygon fill="none" stroke="blue" points="1742.09,-116 1742.09,-299 2215.5,-299 2215.5,-116 1742.09,-116"/>
<text text-anchor="middle" x="1978.79" y="-283.8" font-family="Times New Roman,serif" font-size="14.00">sibling</text>
</g>
<g id="clust8" class="cluster"><title>cluster_cur_bnode</title>
<polygon fill="none" stroke="#ea4f16" points="1756.38,-307 1756.38,-490 2201.2,-490 2201.2,-307 1756.38,-307"/>
<text text-anchor="middle" x="1978.79" y="-474.8" font-family="Times New Roman,serif" font-size="14.00">cur node</text>
</g>
<g id="clust11" class="cluster"><title>cluster_par_op</title>
<polygon fill="none" stroke="blue" points="637.711,-253 637.711,-436 1353.17,-436 1353.17,-253 637.711,-253"/>
<text text-anchor="middle" x="995.44" y="-420.8" font-family="Times New Roman,serif" font-size="14.00">parent_op</text>
</g>
<g id="clust9" class="cluster"><title>cluster_newroot_newroot</title>
<polygon fill="none" stroke="black" points="1372.17,-573 1372.17,-885 2411.58,-885 2411.58,-573 1372.17,-573"/>
<text text-anchor="middle" x="1891.88" y="-869.8" font-family="Times New Roman,serif" font-size="14.00">get parent=btree root</text>
</g>
<g id="clust10" class="cluster"><title>cluster_new_bnode</title>
<polygon fill="none" stroke="black" points="1380.17,-627 1380.17,-756 1661.09,-756 1661.09,-627 1380.17,-627"/>
<text text-anchor="middle" x="1520.63" y="-740.8" font-family="Times New Roman,serif" font-size="14.00">new_Bnode =tree root ,child=current node</text>
</g>
<!-- BRANCH_step1end -->
<g id="node1" class="node"><title>BRANCH_step1end</title>
<path fill="lightgrey" stroke="black" d="M83.9131,-1227C83.9131,-1227 33.9131,-1227 33.9131,-1227 27.9131,-1227 21.9131,-1221 21.9131,-1215 21.9131,-1215 21.9131,-1203 21.9131,-1203 21.9131,-1197 27.9131,-1191 33.9131,-1191 33.9131,-1191 83.9131,-1191 83.9131,-1191 89.9131,-1191 95.9131,-1197 95.9131,-1203 95.9131,-1203 95.9131,-1215 95.9131,-1215 95.9131,-1221 89.9131,-1227 83.9131,-1227"/>
<text text-anchor="middle" x="58.9131" y="-1205.3" font-family="Times New Roman,serif" font-size="14.00">BRANCH</text>
</g>
<!-- LEAF_step1end -->
<g id="node2" class="node"><title>LEAF_step1end</title>
<path fill="lightgrey" stroke="black" d="M73.9131,-1173C73.9131,-1173 43.9131,-1173 43.9131,-1173 37.9131,-1173 31.9131,-1167 31.9131,-1161 31.9131,-1161 31.9131,-1149 31.9131,-1149 31.9131,-1143 37.9131,-1137 43.9131,-1137 43.9131,-1137 73.9131,-1137 73.9131,-1137 79.9131,-1137 85.9131,-1143 85.9131,-1149 85.9131,-1149 85.9131,-1161 85.9131,-1161 85.9131,-1167 79.9131,-1173 73.9131,-1173"/>
<text text-anchor="middle" x="58.9131" y="-1151.3" font-family="Times New Roman,serif" font-size="14.00">LEAF</text>
</g>
<!-- _root_step1end -->
<g id="node3" class="node"><title>_root_step1end</title>
<polygon fill="lightgrey" stroke="black" points="85.9131,-1119 43.9131,-1119 43.9131,-1123 31.9131,-1123 31.9131,-1083 85.9131,-1083 85.9131,-1119"/>
<polyline fill="none" stroke="black" points="31.9131,-1119 43.9131,-1119 "/>
<text text-anchor="middle" x="58.9131" y="-1097.3" font-family="Times New Roman,serif" font-size="14.00">_root</text>
</g>
<!-- _root_s_end_step1end -->
<g id="node6" class="node"><title>_root_s_end_step1end</title>
</g>
<!-- _root_step1end&#45;&gt;_root_s_end_step1end -->
<g id="edge1" class="edge"><title>_root_step1end&#45;&gt;_root_s_end_step1end</title>
<path fill="none" stroke="black" d="M86.2186,-1088.53C99.3144,-1082.96 115.573,-1076.99 130.826,-1074 222.247,-1056.06 332.689,-1060.12 388.734,-1063.94"/>
<polygon fill="black" stroke="black" points="388.646,-1067.44 398.872,-1064.67 389.15,-1060.46 388.646,-1067.44"/>
</g>
<!-- _bottom_step1end -->
<g id="node7" class="node"><title>_bottom_step1end</title>
<polygon fill="lightgrey" stroke="black" points="214.239,-1119 161.239,-1119 161.239,-1123 149.239,-1123 149.239,-1083 214.239,-1083 214.239,-1119"/>
<polyline fill="none" stroke="black" points="149.239,-1119 161.239,-1119 "/>
<text text-anchor="middle" x="181.739" y="-1097.3" font-family="Times New Roman,serif" font-size="14.00">_bottom</text>
</g>
<!-- _root_step1end&#45;&gt;_bottom_step1end -->
<g id="edge3" class="edge"><title>_root_step1end&#45;&gt;_bottom_step1end</title>
<path fill="none" stroke="black" d="M96.1543,-1094.76C109.553,-1094.16 124.851,-1094.09 138.72,-1094.54"/>
<polygon fill="black" stroke="black" points="95.9172,-1091.26 86.1307,-1095.32 96.3122,-1098.25 95.9172,-1091.26"/>
<polygon fill="black" stroke="black" points="138.85,-1098.04 148.991,-1094.98 139.15,-1091.05 138.85,-1098.04"/>
</g>
<!-- _root_step1end&#45;&gt;_bottom_step1end -->
<g id="edge4" class="edge"><title>_root_step1end&#45;&gt;_bottom_step1end</title>
<path fill="none" stroke="black" d="M96.1543,-1107.24C109.553,-1107.84 124.851,-1107.91 138.72,-1107.46"/>
<polygon fill="black" stroke="black" points="96.3122,-1103.75 86.1307,-1106.68 95.9172,-1110.74 96.3122,-1103.75"/>
<polygon fill="black" stroke="black" points="139.15,-1110.95 148.991,-1107.02 138.85,-1103.96 139.15,-1110.95"/>
</g>
<!-- contents_step1end -->
<g id="node4" class="node"><title>contents_step1end</title>
<path fill="lightgrey" stroke="black" d="M527.481,-1193C527.481,-1193 371.247,-1193 371.247,-1193 365.247,-1193 354.508,-1189.32 349.769,-1185.64 349.769,-1185.64 322.36,-1164.36 322.36,-1164.36 317.621,-1160.68 318.882,-1157 324.882,-1157 324.882,-1157 481.116,-1157 481.116,-1157 487.116,-1157 497.856,-1160.68 502.595,-1164.36 502.595,-1164.36 530.003,-1185.64 530.003,-1185.64 534.742,-1189.32 533.481,-1193 527.481,-1193"/>
<text text-anchor="middle" x="426.182" y="-1171.3" font-family="Times New Roman,serif" font-size="14.00">contents=[1,2,3,4]</text>
</g>
<!-- children_step1end -->
<g id="node5" class="node"><title>children_step1end</title>
<path fill="lightgrey" stroke="black" d="M488.341,-1139C488.341,-1139 394.37,-1139 394.37,-1139 388.37,-1139 378.503,-1134.41 374.636,-1129.83 374.636,-1129.83 359.757,-1112.17 359.757,-1112.17 355.89,-1107.59 358.023,-1103 364.023,-1103 364.023,-1103 457.993,-1103 457.993,-1103 463.993,-1103 473.86,-1107.59 477.727,-1112.17 477.727,-1112.17 492.606,-1129.83 492.606,-1129.83 496.473,-1134.41 494.341,-1139 488.341,-1139"/>
<text text-anchor="middle" x="426.182" y="-1117.3" font-family="Times New Roman,serif" font-size="14.00">children=[]</text>
</g>
<!-- _bottom_step1end&#45;&gt;_root_s_end_step1end -->
<g id="edge2" class="edge"><title>_bottom_step1end&#45;&gt;_root_s_end_step1end</title>
<path fill="none" stroke="black" d="M214.435,-1096.56C259.421,-1090.25 341.576,-1078.72 388.93,-1072.08"/>
<polygon fill="black" stroke="black" points="389.628,-1075.52 399.045,-1070.67 388.656,-1068.59 389.628,-1075.52"/>
</g>
<!-- order_step1end -->
<g id="node8" class="node"><title>order_step1end</title>
<path fill="lightgrey" stroke="black" d="M63.1837,-1029.06C63.1837,-1029.06 65.1924,-1029.14 65.1924,-1029.14 65.3462,-1029.14 65.6537,-1029.16 65.8073,-1029.17 65.8073,-1029.17 67.7894,-1029.28 67.7894,-1029.28 67.9431,-1029.29 68.2502,-1029.31 68.4036,-1029.32 68.4036,-1029.32 70.3488,-1029.47 70.3488,-1029.47 70.5022,-1029.48 70.8089,-1029.51 70.962,-1029.52 70.962,-1029.52 72.8602,-1029.71 72.8602,-1029.71 73.0134,-1029.72 73.3194,-1029.75 73.4722,-1029.77 73.4722,-1029.77 75.3136,-1029.99 75.3136,-1029.99 75.4664,-1030.01 75.7716,-1030.05 75.924,-1030.07 75.924,-1030.07 77.6993,-1030.32 77.6993,-1030.32 77.8517,-1030.34 78.1559,-1030.39 78.3077,-1030.41 78.3077,-1030.41 80.0082,-1030.7 80.0082,-1030.7 80.16,-1030.72 80.4629,-1030.78 80.6141,-1030.81 80.6141,-1030.81 82.2314,-1031.12 82.2314,-1031.12 82.3825,-1031.15 82.6839,-1031.21 82.8341,-1031.24 82.8341,-1031.24 84.3608,-1031.58 84.3608,-1031.58 84.511,-1031.61 84.8105,-1031.69 84.9597,-1031.72 84.9597,-1031.72 86.3888,-1032.09 86.3888,-1032.09 86.538,-1032.12 86.835,-1032.2 86.9828,-1032.25 86.9828,-1032.25 88.3084,-1032.63 88.3084,-1032.63 88.4563,-1032.67 88.7503,-1032.76 88.8965,-1032.81 88.8965,-1032.81 90.1135,-1033.21 90.1135,-1033.21 90.2597,-1033.26 90.55,-1033.36 90.694,-1033.42 90.694,-1033.42 91.7985,-1033.83 91.7985,-1033.83 91.9426,-1033.88 92.2281,-1034 92.3695,-1034.06 92.3695,-1034.06 93.3586,-1034.48 93.3586,-1034.48 93.5,-1034.54 93.7796,-1034.67 93.9177,-1034.74 93.9177,-1034.74 94.7899,-1035.17 94.7899,-1035.17 94.928,-1035.24 95.2,-1035.38 95.3338,-1035.46 95.3338,-1035.46 96.0893,-1035.89 96.0893,-1035.89 96.2232,-1035.96 96.4854,-1036.12 96.6138,-1036.21 96.6138,-1036.21 97.2546,-1036.63 97.2546,-1036.63 97.383,-1036.72 97.6329,-1036.9 97.7543,-1036.99 97.7543,-1036.99 98.2844,-1037.4 98.2844,-1037.4 98.4058,-1037.5 98.6399,-1037.7 98.7525,-1037.8 98.7525,-1037.8 99.1782,-1038.2 99.1782,-1038.2 99.2907,-1038.3 99.5047,-1038.52 99.6061,-1038.64 99.6061,-1038.64 99.9362,-1039.02 99.9362,-1039.02 100.038,-1039.13 100.227,-1039.37 100.314,-1039.5 100.314,-1039.5 100.559,-1039.86 100.559,-1039.86 100.647,-1039.98 100.805,-1040.25 100.876,-1040.38 100.876,-1040.38 101.049,-1040.72 101.049,-1040.72 101.12,-1040.85 101.242,-1041.13 101.293,-1041.28 101.293,-1041.28 101.406,-1041.6 101.406,-1041.6 101.457,-1041.74 101.539,-1042.04 101.569,-1042.19 101.569,-1042.19 101.63,-1042.49 101.63,-1042.49 101.66,-1042.65 101.699,-1042.95 101.707,-1043.1 101.707,-1043.1 101.723,-1043.41 101.723,-1043.41 101.731,-1043.56 101.726,-1043.87 101.713,-1044.03 101.713,-1044.03 101.685,-1044.34 101.685,-1044.34 101.672,-1044.5 101.625,-1044.8 101.592,-1044.95 101.592,-1044.95 101.518,-1045.29 101.518,-1045.29 101.485,-1045.44 101.401,-1045.73 101.35,-1045.88 101.35,-1045.88 101.224,-1046.24 101.224,-1046.24 101.173,-1046.38 101.056,-1046.67 100.99,-1046.81 100.99,-1046.81 100.807,-1047.19 100.807,-1047.19 100.741,-1047.33 100.597,-1047.6 100.518,-1047.74 100.518,-1047.74 100.273,-1048.15 100.273,-1048.15 100.195,-1048.28 100.027,-1048.54 99.9377,-1048.66 99.9377,-1048.66 99.6276,-1049.1 99.6276,-1049.1 99.5384,-1049.22 99.3512,-1049.47 99.2532,-1049.59 99.2532,-1049.59 98.8763,-1050.04 98.8763,-1050.04 98.7783,-1050.16 98.575,-1050.39 98.4697,-1050.51 98.4697,-1050.51 98.0256,-1050.98 98.0256,-1050.98 97.9203,-1051.09 97.7036,-1051.31 97.5921,-1051.42 97.5921,-1051.42 97.0819,-1051.9 97.0819,-1051.9 96.9704,-1052.01 96.7424,-1052.21 96.6258,-1052.31 96.6258,-1052.31 96.0512,-1052.81 96.0512,-1052.81 95.9346,-1052.91 95.697,-1053.11 95.576,-1053.2 95.576,-1053.2 94.94,-1053.7 94.94,-1053.7 94.819,-1053.8 94.5732,-1053.98 94.4484,-1054.07 94.4484,-1054.07 93.7543,-1054.57 93.7543,-1054.57 93.6295,-1054.66 93.3766,-1054.84 93.2485,-1054.92 93.2485,-1054.92 92.5,-1055.42 92.5,-1055.42 92.3719,-1055.51 92.1128,-1055.67 91.9819,-1055.75 91.9819,-1055.75 91.1829,-1056.25 91.1829,-1056.25 91.052,-1056.33 90.7875,-1056.48 90.6539,-1056.56 90.6539,-1056.56 89.8087,-1057.05 89.8087,-1057.05 89.6752,-1057.12 89.4059,-1057.27 89.2701,-1057.34 89.2701,-1057.34 88.3828,-1057.82 88.3828,-1057.82 88.247,-1057.89 87.9733,-1058.03 87.8354,-1058.1 87.8354,-1058.1 86.9102,-1058.56 86.9102,-1058.56 86.7723,-1058.63 86.4947,-1058.76 86.355,-1058.82 86.355,-1058.82 85.3959,-1059.27 85.3959,-1059.27 85.2562,-1059.33 84.975,-1059.46 84.8335,-1059.52 84.8335,-1059.52 83.8445,-1059.94 83.8445,-1059.94 83.703,-1060 83.4186,-1060.12 83.2756,-1060.17 83.2756,-1060.17 82.2603,-1060.58 82.2603,-1060.58 82.1172,-1060.64 81.8298,-1060.75 81.6853,-1060.8 81.6853,-1060.8 80.6472,-1061.18 80.6472,-1061.18 80.5027,-1061.23 80.2125,-1061.33 80.0666,-1061.38 80.0666,-1061.38 79.009,-1061.74 79.009,-1061.74 78.8632,-1061.79 78.5704,-1061.88 78.4233,-1061.93 78.4233,-1061.93 77.3491,-1062.26 77.3491,-1062.26 77.202,-1062.31 76.9068,-1062.39 76.7586,-1062.44 76.7586,-1062.44 75.6705,-1062.74 75.6705,-1062.74 75.5223,-1062.78 75.2249,-1062.86 75.0757,-1062.9 75.0757,-1062.9 73.976,-1063.18 73.976,-1063.18 73.8267,-1063.21 73.5273,-1063.29 73.3772,-1063.32 73.3772,-1063.32 72.268,-1063.57 72.268,-1063.57 72.1179,-1063.6 71.8167,-1063.67 71.6657,-1063.69 71.6657,-1063.69 70.5489,-1063.91 70.5489,-1063.91 70.3979,-1063.94 70.0951,-1064 69.9434,-1064.02 69.9434,-1064.02 68.8206,-1064.21 68.8206,-1064.21 68.6689,-1064.24 68.3647,-1064.29 68.2123,-1064.31 68.2123,-1064.31 67.0849,-1064.47 67.0849,-1064.47 66.9325,-1064.49 66.6271,-1064.53 66.4742,-1064.54 66.4742,-1064.54 65.3433,-1064.67 65.3433,-1064.67 65.1903,-1064.69 64.8841,-1064.72 64.7307,-1064.73 64.7307,-1064.73 63.5972,-1064.83 63.5972,-1064.83 63.4439,-1064.84 63.1369,-1064.86 62.9832,-1064.87 62.9832,-1064.87 61.848,-1064.93 61.848,-1064.93 61.6944,-1064.94 61.3869,-1064.95 61.233,-1064.96 61.233,-1064.96 60.0969,-1064.99 60.0969,-1064.99 59.943,-1065 59.6353,-1065 59.4814,-1065 59.4814,-1065 58.3449,-1065 58.3449,-1065 58.191,-1065 57.8833,-1065 57.7294,-1064.99 57.7294,-1064.99 56.5933,-1064.96 56.5933,-1064.96 56.4394,-1064.95 56.1319,-1064.94 55.9783,-1064.93 55.9783,-1064.93 54.8431,-1064.87 54.8431,-1064.87 54.6894,-1064.86 54.3824,-1064.84 54.2291,-1064.83 54.2291,-1064.83 53.0956,-1064.73 53.0956,-1064.73 52.9422,-1064.72 52.6359,-1064.69 52.483,-1064.67 52.483,-1064.67 51.3521,-1064.54 51.3521,-1064.54 51.1992,-1064.53 50.8938,-1064.49 50.7414,-1064.47 50.7414,-1064.47 49.614,-1064.31 49.614,-1064.31 49.4616,-1064.29 49.1574,-1064.24 49.0057,-1064.21 49.0057,-1064.21 47.8829,-1064.02 47.8829,-1064.02 47.7312,-1064 47.4284,-1063.94 47.2774,-1063.91 47.2774,-1063.91 46.1606,-1063.69 46.1606,-1063.69 46.0096,-1063.67 45.7084,-1063.6 45.5583,-1063.57 45.5583,-1063.57 44.4491,-1063.32 44.4491,-1063.32 44.2989,-1063.29 43.9996,-1063.21 43.8503,-1063.18 43.8503,-1063.18 42.7506,-1062.9 42.7506,-1062.9 42.6014,-1062.86 42.304,-1062.78 42.1558,-1062.74 42.1558,-1062.74 41.0677,-1062.44 41.0677,-1062.44 40.9195,-1062.39 40.6242,-1062.31 40.4772,-1062.26 40.4772,-1062.26 39.403,-1061.93 39.403,-1061.93 39.2559,-1061.88 38.9631,-1061.79 38.8173,-1061.74 38.8173,-1061.74 37.7596,-1061.38 37.7596,-1061.38 37.6138,-1061.33 37.3236,-1061.23 37.1791,-1061.18 37.1791,-1061.18 36.141,-1060.8 36.141,-1060.8 35.9965,-1060.75 35.7091,-1060.64 35.566,-1060.58 35.566,-1060.58 34.5507,-1060.17 34.5507,-1060.17 34.4077,-1060.12 34.1232,-1060 33.9818,-1059.94 33.9818,-1059.94 32.9928,-1059.52 32.9928,-1059.52 32.8513,-1059.46 32.5701,-1059.33 32.4304,-1059.27 32.4304,-1059.27 31.4713,-1058.82 31.4713,-1058.82 31.3316,-1058.76 31.054,-1058.63 30.9161,-1058.56 30.9161,-1058.56 29.9909,-1058.1 29.9909,-1058.1 29.853,-1058.03 29.5793,-1057.89 29.4435,-1057.82 29.4435,-1057.82 28.5562,-1057.34 28.5562,-1057.34 28.4204,-1057.27 28.1511,-1057.12 28.0176,-1057.05 28.0176,-1057.05 27.1723,-1056.56 27.1723,-1056.56 27.0388,-1056.48 26.7743,-1056.33 26.6434,-1056.25 26.6434,-1056.25 25.8444,-1055.75 25.8444,-1055.75 25.7134,-1055.67 25.4544,-1055.51 25.3263,-1055.42 25.3263,-1055.42 24.5778,-1054.92 24.5778,-1054.92 24.4497,-1054.84 24.1968,-1054.66 24.072,-1054.57 24.072,-1054.57 23.3779,-1054.07 23.3779,-1054.07 23.2531,-1053.98 23.0073,-1053.8 22.8863,-1053.7 22.8863,-1053.7 22.2503,-1053.2 22.2503,-1053.2 22.1293,-1053.11 21.8917,-1052.91 21.775,-1052.81 21.775,-1052.81 21.2005,-1052.31 21.2005,-1052.31 21.0839,-1052.21 20.8559,-1052.01 20.7444,-1051.9 20.7444,-1051.9 20.2342,-1051.42 20.2342,-1051.42 20.1227,-1051.31 19.906,-1051.09 19.8007,-1050.98 19.8007,-1050.98 19.3566,-1050.51 19.3566,-1050.51 19.2513,-1050.39 19.048,-1050.16 18.95,-1050.04 18.95,-1050.04 18.5731,-1049.59 18.5731,-1049.59 18.4751,-1049.47 18.2879,-1049.22 18.1987,-1049.1 18.1987,-1049.1 17.8886,-1048.66 17.8886,-1048.66 17.7994,-1048.54 17.6316,-1048.28 17.553,-1048.15 17.553,-1048.15 17.308,-1047.74 17.308,-1047.74 17.2294,-1047.6 17.0849,-1047.33 17.019,-1047.19 17.019,-1047.19 16.8359,-1046.81 16.8359,-1046.81 16.7699,-1046.67 16.6532,-1046.38 16.6024,-1046.24 16.6024,-1046.24 16.4764,-1045.88 16.4764,-1045.88 16.4256,-1045.73 16.3416,-1045.44 16.3084,-1045.29 16.3084,-1045.29 16.234,-1044.95 16.234,-1044.95 16.2008,-1044.8 16.1543,-1044.5 16.141,-1044.34 16.141,-1044.34 16.1133,-1044.03 16.1133,-1044.03 16.1,-1043.87 16.0948,-1043.56 16.103,-1043.41 16.103,-1043.41 16.1194,-1043.1 16.1194,-1043.1 16.1275,-1042.95 16.1659,-1042.65 16.1961,-1042.49 16.1961,-1042.49 16.2575,-1042.19 16.2575,-1042.19 16.2877,-1042.04 16.3693,-1041.74 16.4208,-1041.6 16.4208,-1041.6 16.533,-1041.28 16.533,-1041.28 16.5845,-1041.13 16.7067,-1040.85 16.7775,-1040.72 16.7775,-1040.72 16.9503,-1040.38 16.9503,-1040.38 17.0211,-1040.25 17.1794,-1039.98 17.2669,-1039.86 17.2669,-1039.86 17.5123,-1039.5 17.5123,-1039.5 17.5998,-1039.37 17.7887,-1039.13 17.8901,-1039.02 17.8901,-1039.02 18.2202,-1038.64 18.2202,-1038.64 18.3216,-1038.52 18.5356,-1038.3 18.6481,-1038.2 18.6481,-1038.2 19.0738,-1037.8 19.0738,-1037.8 19.1864,-1037.7 19.4205,-1037.5 19.5419,-1037.4 19.5419,-1037.4 20.072,-1036.99 20.072,-1036.99 20.1934,-1036.9 20.4433,-1036.72 20.5717,-1036.63 20.5717,-1036.63 21.2125,-1036.21 21.2125,-1036.21 21.3409,-1036.12 21.6031,-1035.96 21.737,-1035.89 21.737,-1035.89 22.4925,-1035.46 22.4925,-1035.46 22.6263,-1035.38 22.8983,-1035.24 23.0364,-1035.17 23.0364,-1035.17 23.9086,-1034.74 23.9086,-1034.74 24.0467,-1034.67 24.3263,-1034.54 24.4677,-1034.48 24.4677,-1034.48 25.4568,-1034.06 25.4568,-1034.06 25.5982,-1034 25.8837,-1033.88 26.0278,-1033.83 26.0278,-1033.83 27.1323,-1033.42 27.1323,-1033.42 27.2763,-1033.36 27.5666,-1033.26 27.7128,-1033.21 27.7128,-1033.21 28.9298,-1032.81 28.9298,-1032.81 29.076,-1032.76 29.37,-1032.67 29.5179,-1032.63 29.5179,-1032.63 30.8435,-1032.25 30.8435,-1032.25 30.9913,-1032.2 31.2883,-1032.12 31.4375,-1032.09 31.4375,-1032.09 32.8666,-1031.72 32.8666,-1031.72 33.0158,-1031.69 33.3153,-1031.61 33.4655,-1031.58 33.4655,-1031.58 34.9922,-1031.24 34.9922,-1031.24 35.1424,-1031.21 35.4438,-1031.15 35.5949,-1031.12 35.5949,-1031.12 37.2122,-1030.81 37.2122,-1030.81 37.3634,-1030.78 37.6663,-1030.72 37.8181,-1030.7 37.8181,-1030.7 39.5186,-1030.41 39.5186,-1030.41 39.6704,-1030.39 39.9746,-1030.34 40.127,-1030.32 40.127,-1030.32 41.9023,-1030.07 41.9023,-1030.07 42.0547,-1030.05 42.3599,-1030.01 42.5127,-1029.99 42.5127,-1029.99 44.3541,-1029.77 44.3541,-1029.77 44.5069,-1029.75 44.8129,-1029.72 44.9661,-1029.71 44.9661,-1029.71 46.8643,-1029.52 46.8643,-1029.52 47.0174,-1029.51 47.3241,-1029.48 47.4775,-1029.47 47.4775,-1029.47 49.4227,-1029.32 49.4227,-1029.32 49.5761,-1029.31 49.8832,-1029.29 50.0369,-1029.28 50.0369,-1029.28 52.019,-1029.17 52.019,-1029.17 52.1726,-1029.16 52.4801,-1029.14 52.6339,-1029.14 52.6339,-1029.14 54.6426,-1029.06 54.6426,-1029.06 54.7963,-1029.06 55.104,-1029.05 55.2579,-1029.04 55.2579,-1029.04 57.2826,-1029.01 57.2826,-1029.01 57.4365,-1029 57.7442,-1029 57.8981,-1029 57.8981,-1029 59.9282,-1029 59.9282,-1029 60.0821,-1029 60.3898,-1029 60.5437,-1029.01 60.5437,-1029.01 62.5684,-1029.04 62.5684,-1029.04 62.7223,-1029.05 63.03,-1029.06 63.1837,-1029.06"/>
<text text-anchor="middle" x="58.9131" y="-1043.3" font-family="Times New Roman,serif" font-size="14.00">order=4</text>
</g>
<!-- tag__2 -->
<g id="node9" class="node"><title>tag__2</title>
</g>
<!-- tag__3 -->
<g id="node18" class="node"><title>tag__3</title>
</g>
<!-- tag__2&#45;&gt;tag__3 -->
<g id="edge18" class="edge"><title>tag__2&#45;&gt;tag__3</title>
<path fill="none" stroke="black" d="M59.8729,-974.979C60.6775,-928.028 68.7949,-800.109 130.826,-721 134.816,-715.912 140.04,-711.659 145.603,-708.146"/>
<polygon fill="black" stroke="black" points="147.443,-711.128 154.497,-703.222 144.053,-705.004 147.443,-711.128"/>
</g>
<!-- BRANCH_theninsert5 -->
<g id="node10" class="node"><title>BRANCH_theninsert5</title>
<path fill="lightgrey" stroke="black" d="M206.739,-928C206.739,-928 156.739,-928 156.739,-928 150.739,-928 144.739,-922 144.739,-916 144.739,-916 144.739,-904 144.739,-904 144.739,-898 150.739,-892 156.739,-892 156.739,-892 206.739,-892 206.739,-892 212.739,-892 218.739,-898 218.739,-904 218.739,-904 218.739,-916 218.739,-916 218.739,-922 212.739,-928 206.739,-928"/>
<text text-anchor="middle" x="181.739" y="-906.3" font-family="Times New Roman,serif" font-size="14.00">BRANCH</text>
</g>
<!-- LEAF_theninsert5 -->
<g id="node11" class="node"><title>LEAF_theninsert5</title>
<path fill="lightgrey" stroke="black" d="M196.739,-874C196.739,-874 166.739,-874 166.739,-874 160.739,-874 154.739,-868 154.739,-862 154.739,-862 154.739,-850 154.739,-850 154.739,-844 160.739,-838 166.739,-838 166.739,-838 196.739,-838 196.739,-838 202.739,-838 208.739,-844 208.739,-850 208.739,-850 208.739,-862 208.739,-862 208.739,-868 202.739,-874 196.739,-874"/>
<text text-anchor="middle" x="181.739" y="-852.3" font-family="Times New Roman,serif" font-size="14.00">LEAF</text>
</g>
<!-- _root_theninsert5 -->
<g id="node12" class="node"><title>_root_theninsert5</title>
<polygon fill="lightgrey" stroke="black" points="208.739,-820 166.739,-820 166.739,-824 154.739,-824 154.739,-784 208.739,-784 208.739,-820"/>
<polyline fill="none" stroke="black" points="154.739,-820 166.739,-820 "/>
<text text-anchor="middle" x="181.739" y="-798.3" font-family="Times New Roman,serif" font-size="14.00">_root</text>
</g>
<!-- _root_s_end_theninsert5 -->
<g id="node15" class="node"><title>_root_s_end_theninsert5</title>
</g>
<!-- _root_theninsert5&#45;&gt;_root_s_end_theninsert5 -->
<g id="edge5" class="edge"><title>_root_theninsert5&#45;&gt;_root_s_end_theninsert5</title>
<path fill="none" stroke="black" d="M209.027,-789.436C222.118,-783.846 238.378,-777.884 253.653,-775 519.979,-724.712 849.809,-752.472 958.126,-763.862"/>
<polygon fill="black" stroke="black" points="957.883,-767.356 968.199,-764.942 958.629,-760.396 957.883,-767.356"/>
</g>
<!-- _bottom_theninsert5 -->
<g id="node16" class="node"><title>_bottom_theninsert5</title>
<polygon fill="lightgrey" stroke="black" points="458.682,-820 405.682,-820 405.682,-824 393.682,-824 393.682,-784 458.682,-784 458.682,-820"/>
<polyline fill="none" stroke="black" points="393.682,-820 405.682,-820 "/>
<text text-anchor="middle" x="426.182" y="-798.3" font-family="Times New Roman,serif" font-size="14.00">_bottom</text>
</g>
<!-- _root_theninsert5&#45;&gt;_bottom_theninsert5 -->
<g id="edge7" class="edge"><title>_root_theninsert5&#45;&gt;_bottom_theninsert5</title>
<path fill="none" stroke="black" d="M219.275,-797.005C263.331,-794.751 337.209,-794.668 383.462,-796.756"/>
<polygon fill="black" stroke="black" points="218.925,-793.52 209.147,-797.598 219.334,-800.508 218.925,-793.52"/>
<polygon fill="black" stroke="black" points="383.292,-800.252 393.457,-797.267 383.649,-793.261 383.292,-800.252"/>
</g>
<!-- _root_theninsert5&#45;&gt;_bottom_theninsert5 -->
<g id="edge8" class="edge"><title>_root_theninsert5&#45;&gt;_bottom_theninsert5</title>
<path fill="none" stroke="black" d="M219.275,-806.995C263.331,-809.249 337.209,-809.332 383.462,-807.244"/>
<polygon fill="black" stroke="black" points="219.334,-803.492 209.147,-806.402 218.925,-810.48 219.334,-803.492"/>
<polygon fill="black" stroke="black" points="383.649,-810.739 393.457,-806.733 383.292,-803.748 383.649,-810.739"/>
</g>
<!-- contents_theninsert5 -->
<g id="node13" class="node"><title>contents_theninsert5</title>
<path fill="lightgrey" stroke="black" d="M1107.2,-894C1107.2,-894 934.323,-894 934.323,-894 928.323,-894 917.432,-890.524 912.542,-887.048 912.542,-887.048 881.456,-864.952 881.456,-864.952 876.566,-861.476 877.675,-858 883.675,-858 883.675,-858 1056.56,-858 1056.56,-858 1062.56,-858 1073.45,-861.476 1078.34,-864.952 1078.34,-864.952 1109.42,-887.048 1109.42,-887.048 1114.31,-890.524 1113.2,-894 1107.2,-894"/>
<text text-anchor="middle" x="995.44" y="-872.3" font-family="Times New Roman,serif" font-size="14.00">contents=[1,2,3,4,5]</text>
</g>
<!-- children_theninsert5 -->
<g id="node14" class="node"><title>children_theninsert5</title>
<path fill="lightgrey" stroke="black" d="M1057.6,-840C1057.6,-840 963.628,-840 963.628,-840 957.628,-840 947.761,-835.413 943.894,-830.825 943.894,-830.825 929.015,-813.175 929.015,-813.175 925.148,-808.587 927.281,-804 933.281,-804 933.281,-804 1027.25,-804 1027.25,-804 1033.25,-804 1043.12,-808.587 1046.99,-813.175 1046.99,-813.175 1061.86,-830.825 1061.86,-830.825 1065.73,-835.413 1063.6,-840 1057.6,-840"/>
<text text-anchor="middle" x="995.44" y="-818.3" font-family="Times New Roman,serif" font-size="14.00">children=[]</text>
</g>
<!-- _bottom_theninsert5&#45;&gt;_root_s_end_theninsert5 -->
<g id="edge6" class="edge"><title>_bottom_theninsert5&#45;&gt;_root_s_end_theninsert5</title>
<path fill="none" stroke="black" d="M458.895,-800.099C556.908,-794.225 854.591,-776.382 958.326,-770.165"/>
<polygon fill="black" stroke="black" points="958.539,-773.658 968.311,-769.566 958.12,-766.671 958.539,-773.658"/>
</g>
<!-- order_theninsert5 -->
<g id="node17" class="node"><title>order_theninsert5</title>
<path fill="lightgrey" stroke="black" d="M186.01,-730.061C186.01,-730.061 188.019,-730.136 188.019,-730.136 188.173,-730.142 188.48,-730.157 188.634,-730.165 188.634,-730.165 190.616,-730.278 190.616,-730.278 190.769,-730.287 191.076,-730.307 191.23,-730.319 191.23,-730.319 193.175,-730.468 193.175,-730.468 193.329,-730.48 193.635,-730.506 193.788,-730.521 193.788,-730.521 195.686,-730.706 195.686,-730.706 195.84,-730.72 196.146,-730.753 196.298,-730.772 196.298,-730.772 198.14,-730.99 198.14,-730.99 198.293,-731.008 198.598,-731.048 198.75,-731.07 198.75,-731.07 200.526,-731.321 200.526,-731.321 200.678,-731.343 200.982,-731.39 201.134,-731.415 201.134,-731.415 202.834,-731.697 202.834,-731.697 202.986,-731.723 203.289,-731.777 203.44,-731.806 203.44,-731.806 205.058,-732.118 205.058,-732.118 205.209,-732.147 205.51,-732.209 205.66,-732.242 205.66,-732.242 207.187,-732.581 207.187,-732.581 207.337,-732.614 207.637,-732.685 207.786,-732.723 207.786,-732.723 209.215,-733.085 209.215,-733.085 209.364,-733.123 209.661,-733.203 209.809,-733.246 209.809,-733.246 211.135,-733.629 211.135,-733.629 211.283,-733.672 211.577,-733.763 211.723,-733.811 211.723,-733.811 212.94,-734.212 212.94,-734.212 213.086,-734.26 213.376,-734.362 213.52,-734.416 213.52,-734.416 214.625,-734.831 214.625,-734.831 214.769,-734.885 215.054,-734.999 215.196,-735.06 215.196,-735.06 216.185,-735.484 216.185,-735.484 216.326,-735.545 216.606,-735.673 216.744,-735.741 216.744,-735.741 217.616,-736.17 217.616,-736.17 217.754,-736.238 218.026,-736.382 218.16,-736.458 218.16,-736.458 218.916,-736.887 218.916,-736.887 219.049,-736.963 219.312,-737.123 219.44,-737.208 219.44,-737.208 220.081,-737.632 220.081,-737.632 220.209,-737.716 220.459,-737.896 220.581,-737.99 220.581,-737.99 221.111,-738.403 221.111,-738.403 221.232,-738.497 221.466,-738.697 221.579,-738.802 221.579,-738.802 222.004,-739.198 222.004,-739.198 222.117,-739.303 222.331,-739.524 222.432,-739.64 222.432,-739.64 222.762,-740.017 222.762,-740.017 222.864,-740.132 223.053,-740.375 223.14,-740.501 223.14,-740.501 223.386,-740.856 223.386,-740.856 223.473,-740.983 223.631,-741.246 223.702,-741.383 223.702,-741.383 223.875,-741.716 223.875,-741.716 223.946,-741.853 224.068,-742.134 224.12,-742.28 224.12,-742.28 224.232,-742.596 224.232,-742.596 224.283,-742.741 224.365,-743.037 224.395,-743.188 224.395,-743.188 224.457,-743.495 224.457,-743.495 224.487,-743.646 224.525,-743.95 224.533,-744.104 224.533,-744.104 224.55,-744.411 224.55,-744.411 224.558,-744.565 224.553,-744.872 224.539,-745.025 224.539,-745.025 224.512,-745.343 224.512,-745.343 224.498,-745.496 224.452,-745.8 224.419,-745.95 224.419,-745.95 224.344,-746.287 224.344,-746.287 224.311,-746.437 224.227,-746.733 224.176,-746.878 224.176,-746.878 224.05,-747.238 224.05,-747.238 223.999,-747.383 223.883,-747.668 223.817,-747.807 223.817,-747.807 223.634,-748.193 223.634,-748.193 223.568,-748.332 223.423,-748.604 223.345,-748.736 223.345,-748.736 223.1,-749.148 223.1,-749.148 223.021,-749.28 222.853,-749.538 222.764,-749.664 222.764,-749.664 222.454,-750.099 222.454,-750.099 222.365,-750.225 222.178,-750.469 222.08,-750.588 222.08,-750.588 221.703,-751.044 221.703,-751.044 221.605,-751.163 221.401,-751.394 221.296,-751.506 221.296,-751.506 220.852,-751.979 220.852,-751.979 220.747,-752.091 220.53,-752.31 220.418,-752.416 220.418,-752.416 219.908,-752.902 219.908,-752.902 219.797,-753.008 219.569,-753.214 219.452,-753.315 219.452,-753.315 218.878,-753.81 218.878,-753.81 218.761,-753.91 218.523,-754.106 218.402,-754.201 218.402,-754.201 217.766,-754.7 217.766,-754.7 217.645,-754.796 217.4,-754.981 217.275,-755.071 217.275,-755.071 216.581,-755.572 216.581,-755.572 216.456,-755.662 216.203,-755.837 216.075,-755.923 216.075,-755.923 215.326,-756.421 215.326,-756.421 215.198,-756.506 214.939,-756.673 214.808,-756.753 214.808,-756.753 214.009,-757.247 214.009,-757.247 213.878,-757.327 213.614,-757.485 213.48,-757.561 213.48,-757.561 212.635,-758.046 212.635,-758.046 212.501,-758.122 212.232,-758.271 212.096,-758.344 212.096,-758.344 211.209,-758.817 211.209,-758.817 211.073,-758.889 210.8,-759.03 210.662,-759.098 210.662,-759.098 209.736,-759.557 209.736,-759.557 209.599,-759.626 209.321,-759.759 209.181,-759.823 209.181,-759.823 208.222,-760.266 208.222,-760.266 208.082,-760.33 207.801,-760.455 207.66,-760.516 207.66,-760.516 206.671,-760.94 206.671,-760.94 206.529,-761.001 206.245,-761.118 206.102,-761.175 206.102,-761.175 205.087,-761.578 205.087,-761.578 204.944,-761.635 204.656,-761.745 204.512,-761.798 204.512,-761.798 203.474,-762.179 203.474,-762.179 203.329,-762.232 203.039,-762.334 202.893,-762.384 202.893,-762.384 201.835,-762.741 201.835,-762.741 201.69,-762.79 201.397,-762.885 201.25,-762.93 201.25,-762.93 200.175,-763.262 200.175,-763.262 200.028,-763.307 199.733,-763.394 199.585,-763.436 199.585,-763.436 198.497,-763.741 198.497,-763.741 198.349,-763.783 198.051,-763.862 197.902,-763.899 197.902,-763.899 196.802,-764.177 196.802,-764.177 196.653,-764.214 196.354,-764.286 196.203,-764.319 196.203,-764.319 195.094,-764.568 195.094,-764.568 194.944,-764.602 194.643,-764.665 194.492,-764.695 194.492,-764.695 193.375,-764.914 193.375,-764.914 193.224,-764.944 192.921,-764.999 192.77,-765.024 192.77,-765.024 191.647,-765.214 191.647,-765.214 191.495,-765.239 191.191,-765.286 191.039,-765.307 191.039,-765.307 189.911,-765.466 189.911,-765.466 189.759,-765.487 189.453,-765.526 189.301,-765.543 189.301,-765.543 188.17,-765.67 188.17,-765.67 188.017,-765.687 187.71,-765.718 187.557,-765.731 187.557,-765.731 186.424,-765.826 186.424,-765.826 186.27,-765.839 185.963,-765.861 185.81,-765.869 185.81,-765.869 184.674,-765.933 184.674,-765.933 184.521,-765.942 184.213,-765.955 184.059,-765.959 184.059,-765.959 182.923,-765.991 182.923,-765.991 182.769,-765.996 182.462,-766 182.308,-766 182.308,-766 181.171,-766 181.171,-766 181.017,-766 180.71,-765.996 180.556,-765.991 180.556,-765.991 179.42,-765.959 179.42,-765.959 179.266,-765.955 178.958,-765.942 178.805,-765.933 178.805,-765.933 177.669,-765.869 177.669,-765.869 177.516,-765.861 177.209,-765.839 177.055,-765.826 177.055,-765.826 175.922,-765.731 175.922,-765.731 175.769,-765.718 175.462,-765.687 175.309,-765.67 175.309,-765.67 174.178,-765.543 174.178,-765.543 174.025,-765.526 173.72,-765.487 173.568,-765.466 173.568,-765.466 172.44,-765.307 172.44,-765.307 172.288,-765.286 171.984,-765.239 171.832,-765.214 171.832,-765.214 170.709,-765.024 170.709,-765.024 170.557,-764.999 170.255,-764.944 170.104,-764.914 170.104,-764.914 168.987,-764.695 168.987,-764.695 168.836,-764.665 168.535,-764.602 168.385,-764.568 168.385,-764.568 167.275,-764.319 167.275,-764.319 167.125,-764.286 166.826,-764.214 166.677,-764.177 166.677,-764.177 165.577,-763.899 165.577,-763.899 165.428,-763.862 165.13,-763.783 164.982,-763.741 164.982,-763.741 163.894,-763.436 163.894,-763.436 163.746,-763.394 163.451,-763.307 163.303,-763.262 163.303,-763.262 162.229,-762.93 162.229,-762.93 162.082,-762.885 161.789,-762.79 161.644,-762.741 161.644,-762.741 160.586,-762.384 160.586,-762.384 160.44,-762.334 160.15,-762.232 160.005,-762.179 160.005,-762.179 158.967,-761.798 158.967,-761.798 158.823,-761.745 158.535,-761.635 158.392,-761.578 158.392,-761.578 157.377,-761.175 157.377,-761.175 157.234,-761.118 156.95,-761.001 156.808,-760.94 156.808,-760.94 155.819,-760.516 155.819,-760.516 155.678,-760.455 155.396,-760.33 155.257,-760.266 155.257,-760.266 154.298,-759.823 154.298,-759.823 154.158,-759.759 153.88,-759.626 153.742,-759.557 153.742,-759.557 152.817,-759.098 152.817,-759.098 152.679,-759.03 152.406,-758.889 152.27,-758.817 152.27,-758.817 151.383,-758.344 151.383,-758.344 151.247,-758.271 150.977,-758.122 150.844,-758.046 150.844,-758.046 149.999,-757.561 149.999,-757.561 149.865,-757.485 149.601,-757.327 149.47,-757.247 149.47,-757.247 148.671,-756.753 148.671,-756.753 148.54,-756.673 148.281,-756.506 148.153,-756.421 148.153,-756.421 147.404,-755.923 147.404,-755.923 147.276,-755.837 147.023,-755.662 146.898,-755.572 146.898,-755.572 146.204,-755.071 146.204,-755.071 146.079,-754.981 145.834,-754.796 145.713,-754.7 145.713,-754.7 145.077,-754.201 145.077,-754.201 144.956,-754.106 144.718,-753.91 144.601,-753.81 144.601,-753.81 144.027,-753.315 144.027,-753.315 143.91,-753.214 143.682,-753.008 143.571,-752.902 143.571,-752.902 143.06,-752.416 143.06,-752.416 142.949,-752.31 142.732,-752.091 142.627,-751.979 142.627,-751.979 142.183,-751.506 142.183,-751.506 142.078,-751.394 141.874,-751.163 141.776,-751.044 141.776,-751.044 141.399,-750.588 141.399,-750.588 141.301,-750.469 141.114,-750.225 141.025,-750.099 141.025,-750.099 140.715,-749.664 140.715,-749.664 140.626,-749.538 140.458,-749.28 140.379,-749.148 140.379,-749.148 140.134,-748.736 140.134,-748.736 140.056,-748.604 139.911,-748.332 139.845,-748.193 139.845,-748.193 139.662,-747.807 139.662,-747.807 139.596,-747.668 139.48,-747.383 139.429,-747.238 139.429,-747.238 139.303,-746.878 139.303,-746.878 139.252,-746.733 139.168,-746.437 139.135,-746.287 139.135,-746.287 139.06,-745.95 139.06,-745.95 139.027,-745.8 138.981,-745.496 138.967,-745.343 138.967,-745.343 138.94,-745.025 138.94,-745.025 138.926,-744.872 138.921,-744.565 138.929,-744.411 138.929,-744.411 138.946,-744.104 138.946,-744.104 138.954,-743.95 138.992,-743.646 139.022,-743.495 139.022,-743.495 139.084,-743.188 139.084,-743.188 139.114,-743.037 139.196,-742.741 139.247,-742.596 139.247,-742.596 139.359,-742.28 139.359,-742.28 139.411,-742.134 139.533,-741.853 139.604,-741.716 139.604,-741.716 139.777,-741.383 139.777,-741.383 139.847,-741.246 140.006,-740.983 140.093,-740.856 140.093,-740.856 140.339,-740.501 140.339,-740.501 140.426,-740.375 140.615,-740.132 140.716,-740.017 140.716,-740.017 141.046,-739.64 141.046,-739.64 141.148,-739.524 141.362,-739.303 141.474,-739.198 141.474,-739.198 141.9,-738.802 141.9,-738.802 142.013,-738.697 142.247,-738.497 142.368,-738.403 142.368,-738.403 142.898,-737.99 142.898,-737.99 143.02,-737.896 143.27,-737.716 143.398,-737.632 143.398,-737.632 144.039,-737.208 144.039,-737.208 144.167,-737.123 144.429,-736.963 144.563,-736.887 144.563,-736.887 145.319,-736.458 145.319,-736.458 145.453,-736.382 145.725,-736.238 145.863,-736.17 145.863,-736.17 146.735,-735.741 146.735,-735.741 146.873,-735.673 147.153,-735.545 147.294,-735.484 147.294,-735.484 148.283,-735.06 148.283,-735.06 148.424,-734.999 148.71,-734.885 148.854,-734.831 148.854,-734.831 149.959,-734.416 149.959,-734.416 150.103,-734.362 150.393,-734.26 150.539,-734.212 150.539,-734.212 151.756,-733.811 151.756,-733.811 151.902,-733.763 152.196,-733.672 152.344,-733.629 152.344,-733.629 153.67,-733.246 153.67,-733.246 153.818,-733.203 154.115,-733.123 154.264,-733.085 154.264,-733.085 155.693,-732.723 155.693,-732.723 155.842,-732.685 156.142,-732.614 156.292,-732.581 156.292,-732.581 157.818,-732.242 157.818,-732.242 157.969,-732.209 158.27,-732.147 158.421,-732.118 158.421,-732.118 160.039,-731.806 160.039,-731.806 160.19,-731.777 160.493,-731.723 160.644,-731.697 160.644,-731.697 162.345,-731.415 162.345,-731.415 162.497,-731.39 162.801,-731.343 162.953,-731.321 162.953,-731.321 164.729,-731.07 164.729,-731.07 164.881,-731.048 165.186,-731.008 165.339,-730.99 165.339,-730.99 167.18,-730.772 167.18,-730.772 167.333,-730.753 167.639,-730.72 167.792,-730.706 167.792,-730.706 169.691,-730.521 169.691,-730.521 169.844,-730.506 170.15,-730.48 170.304,-730.468 170.304,-730.468 172.249,-730.319 172.249,-730.319 172.402,-730.307 172.71,-730.287 172.863,-730.278 172.863,-730.278 174.845,-730.165 174.845,-730.165 174.999,-730.157 175.306,-730.142 175.46,-730.136 175.46,-730.136 177.469,-730.061 177.469,-730.061 177.623,-730.055 177.93,-730.046 178.084,-730.044 178.084,-730.044 180.109,-730.006 180.109,-730.006 180.263,-730.003 180.571,-730 180.724,-730 180.724,-730 182.754,-730 182.754,-730 182.908,-730 183.216,-730.003 183.37,-730.006 183.37,-730.006 185.395,-730.044 185.395,-730.044 185.549,-730.046 185.856,-730.055 186.01,-730.061"/>
<text text-anchor="middle" x="181.739" y="-744.3" font-family="Times New Roman,serif" font-size="14.00">order=4</text>
</g>
<!-- tag__4 -->
<g id="node21" class="node"><title>tag__4</title>
</g>
<!-- tag__3&#45;&gt;tag__4 -->
<g id="edge19" class="edge"><title>tag__3&#45;&gt;tag__4</title>
<path fill="none" stroke="black" d="M189.038,-675.733C198.715,-650.628 219.759,-606.068 253.653,-584 294.351,-557.501 351.753,-553.661 388.72,-554.456"/>
<polygon fill="black" stroke="black" points="388.92,-557.964 399.034,-554.809 389.16,-550.968 388.92,-557.964"/>
</g>
<!-- chndlen -->
<g id="node19" class="node"><title>chndlen</title>
<polygon fill="lightgrey" stroke="black" points="426.182,-629 261.623,-611 426.182,-593 590.74,-611 426.182,-629"/>
<text text-anchor="middle" x="426.182" y="-607.3" font-family="Times New Roman,serif" font-size="14.00">len(contents)&gt; (tree.order=4)</text>
</g>
<!-- fn_shrink -->
<g id="node20" class="node"><title>fn_shrink</title>
<polygon fill="lightgrey" stroke="black" points="1042.44,-623 930.44,-623 930.44,-599 1042.44,-599 1042.44,-593 1060.44,-611 1042.44,-629 1042.44,-623"/>
<text text-anchor="middle" x="995.44" y="-607.3" font-family="Times New Roman,serif" font-size="14.00">shrink(ancestors=[])</text>
</g>
<!-- chndlen&#45;&gt;fn_shrink -->
<g id="edge9" class="edge"><title>chndlen&#45;&gt;fn_shrink</title>
<path fill="none" stroke="black" d="M590.876,-611C699.573,-611 837.078,-611 920.27,-611"/>
<polygon fill="black" stroke="black" points="920.39,-614.5 930.39,-611 920.39,-607.5 920.39,-614.5"/>
<text text-anchor="middle" x="618.211" y="-614.8" font-family="Times New Roman,serif" font-size="14.00">yes</text>
</g>
<!-- fn_split -->
<g id="node22" class="node"><title>fn_split</title>
<polygon fill="lightgrey" stroke="black" points="2005.29,-528 1934.29,-528 1934.29,-504 2005.29,-504 2005.29,-498 2023.29,-516 2005.29,-534 2005.29,-528"/>
<text text-anchor="middle" x="1978.79" y="-512.3" font-family="Times New Roman,serif" font-size="14.00">Bnode split()</text>
</g>
<!-- fn_shrink&#45;&gt;fn_split -->
<g id="edge10" class="edge"><title>fn_shrink&#45;&gt;fn_split</title>
<path fill="none" stroke="black" d="M1060.55,-603.359C1135.3,-594.56 1262.6,-579.916 1372.17,-569 1575.7,-548.721 1818.15,-528.772 1923.95,-520.275"/>
<polygon fill="black" stroke="black" points="1924.37,-523.753 1934.06,-519.465 1923.81,-516.775 1924.37,-523.753"/>
</g>
<!-- bnode_fn -->
<g id="node31" class="node"><title>bnode_fn</title>
<polygon fill="lightgrey" stroke="black" points="1567.63,-794 1455.63,-794 1455.63,-770 1567.63,-770 1567.63,-764 1585.63,-782 1567.63,-800 1567.63,-794"/>
<text text-anchor="middle" x="1520.63" y="-778.3" font-family="Times New Roman,serif" font-size="14.00">BRANCH=BNODE</text>
</g>
<!-- fn_shrink&#45;&gt;bnode_fn -->
<g id="edge11" class="edge"><title>fn_shrink&#45;&gt;bnode_fn</title>
<path fill="none" stroke="black" d="M1060.6,-623.365C1135.76,-640.104 1261.62,-675.34 1353.17,-738 1363.83,-745.297 1360.85,-753.769 1372.17,-760 1394.29,-772.179 1420.97,-778.27 1445.51,-781.145"/>
<polygon fill="black" stroke="black" points="1445.22,-784.633 1455.52,-782.158 1445.92,-777.669 1445.22,-784.633"/>
</g>
<!-- center_2 -->
<g id="node23" class="node"><title>center_2</title>
<text text-anchor="middle" x="1978.79" y="-84.3" font-family="Times New Roman,serif" font-size="14.00">center=len(contents)//2=2</text>
</g>
<!-- median_3 -->
<g id="node24" class="node"><title>median_3</title>
<text text-anchor="middle" x="1978.79" y="-30.3" font-family="Times New Roman,serif" font-size="14.00">median=contents[center]=3</text>
</g>
<!-- contents_sib -->
<g id="node25" class="node"><title>contents_sib</title>
<path fill="lightgrey" stroke="black" d="M2195.7,-268C2195.7,-268 1855.56,-268 1855.56,-268 1849.56,-268 1837.95,-265.848 1832.35,-263.695 1832.35,-263.695 1761.08,-236.305 1761.08,-236.305 1755.48,-234.152 1755.88,-232 1761.88,-232 1761.88,-232 2102.03,-232 2102.03,-232 2108.03,-232 2119.63,-234.152 2125.23,-236.305 2125.23,-236.305 2196.5,-263.695 2196.5,-263.695 2202.1,-265.848 2201.7,-268 2195.7,-268"/>
<text text-anchor="middle" x="1978.79" y="-246.3" font-family="Times New Roman,serif" font-size="14.00">contents=cur_contents[center+1:]=[4,5]</text>
</g>
<!-- children_sib -->
<g id="node26" class="node"><title>children_sib</title>
<path fill="lightgrey" stroke="black" d="M2173.37,-214C2173.37,-214 1868.75,-214 1868.75,-214 1862.75,-214 1851.23,-211.649 1845.71,-209.298 1845.71,-209.298 1783.26,-182.702 1783.26,-182.702 1777.74,-180.351 1778.21,-178 1784.21,-178 1784.21,-178 2088.83,-178 2088.83,-178 2094.83,-178 2106.35,-180.351 2111.87,-182.702 2111.87,-182.702 2174.33,-209.298 2174.33,-209.298 2179.85,-211.649 2179.37,-214 2173.37,-214"/>
<text text-anchor="middle" x="1978.79" y="-192.3" font-family="Times New Roman,serif" font-size="14.00">children=cur_children[center+1:]=[]</text>
</g>
<!-- _sibling_Bnode -->
<g id="node27" class="node"><title>_sibling_Bnode</title>
</g>
<!-- contents_cur -->
<g id="node28" class="node"><title>contents_cur</title>
<path fill="lightgrey" stroke="black" d="M2181.11,-459C2181.11,-459 1864.17,-459 1864.17,-459 1858.17,-459 1846.62,-456.722 1841.07,-454.443 1841.07,-454.443 1775.57,-427.557 1775.57,-427.557 1770.02,-425.278 1770.47,-423 1776.47,-423 1776.47,-423 2093.41,-423 2093.41,-423 2099.41,-423 2110.96,-425.278 2116.51,-427.557 2116.51,-427.557 2182.01,-454.443 2182.01,-454.443 2187.56,-456.722 2187.11,-459 2181.11,-459"/>
<text text-anchor="middle" x="1978.79" y="-437.3" font-family="Times New Roman,serif" font-size="14.00">contents=cur_contents[:center]=[1,2]</text>
</g>
<!-- children_cur -->
<g id="node29" class="node"><title>children_cur</title>
<path fill="lightgrey" stroke="black" d="M2173.37,-405C2173.37,-405 1868.75,-405 1868.75,-405 1862.75,-405 1851.23,-402.649 1845.71,-400.298 1845.71,-400.298 1783.26,-373.702 1783.26,-373.702 1777.74,-371.351 1778.21,-369 1784.21,-369 1784.21,-369 2088.83,-369 2088.83,-369 2094.83,-369 2106.35,-371.351 2111.87,-373.702 2111.87,-373.702 2174.33,-400.298 2174.33,-400.298 2179.85,-402.649 2179.37,-405 2173.37,-405"/>
<text text-anchor="middle" x="1978.79" y="-383.3" font-family="Times New Roman,serif" font-size="14.00">children=cur_children[:center+1]=[]</text>
</g>
<!-- _cur_Bnode -->
<g id="node30" class="node"><title>_cur_Bnode</title>
</g>
<!-- children_newroot -->
<g id="node32" class="node"><title>children_newroot</title>
<path fill="lightgrey" stroke="black" d="M1641.04,-725C1641.04,-725 1454.4,-725 1454.4,-725 1448.4,-725 1437.4,-721.68 1432.4,-718.36 1432.4,-718.36 1398.2,-695.64 1398.2,-695.64 1393.21,-692.32 1394.21,-689 1400.21,-689 1400.21,-689 1586.86,-689 1586.86,-689 1592.86,-689 1603.85,-692.32 1608.85,-695.64 1608.85,-695.64 1643.05,-718.36 1643.05,-718.36 1648.05,-721.68 1647.04,-725 1641.04,-725"/>
<text text-anchor="middle" x="1520.63" y="-703.3" font-family="Times New Roman,serif" font-size="14.00">children=[cur_bnode]</text>
</g>
<!-- children_newroot&#45;&gt;_cur_Bnode -->
<g id="edge12" class="edge"><title>children_newroot&#45;&gt;_cur_Bnode</title>
<path fill="none" stroke="black" d="M1629.37,-699.583C1641.12,-695.051 1652.06,-688.727 1661.09,-680 1664.36,-676.83 1730.68,-363.035 1734.09,-360 1791.41,-308.859 1889.03,-316.404 1941.64,-325.309"/>
<polygon fill="black" stroke="black" points="1628.13,-696.307 1619.8,-702.845 1630.39,-702.933 1628.13,-696.307"/>
<polygon fill="black" stroke="black" points="1941.07,-328.763 1951.53,-327.091 1942.31,-321.874 1941.07,-328.763"/>
<text text-anchor="middle" x="1698.59" y="-636.8" font-family="Times New Roman,serif" font-size="14.00">index=[0]</text>
</g>
<!-- parent_emp -->
<g id="node33" class="node"><title>parent_emp</title>
<polygon fill="lightgrey" stroke="black" points="1978.79,-854 1897.18,-836 1978.79,-818 2060.4,-836 1978.79,-854"/>
<text text-anchor="middle" x="1978.79" y="-832.3" font-family="Times New Roman,serif" font-size="14.00">parent=None</text>
</g>
<!-- tree root=parent -->
<g id="node35" class="node"><title>tree root=parent</title>
<ellipse fill="none" stroke="black" cx="2334.04" cy="-836" rx="69.5877" ry="18"/>
<text text-anchor="middle" x="2334.04" y="-832.3" font-family="Times New Roman,serif" font-size="14.00">tree root=parent</text>
</g>
<!-- parent_emp&#45;&gt;tree root=parent -->
<g id="edge14" class="edge"><title>parent_emp&#45;&gt;tree root=parent</title>
<path fill="none" stroke="black" d="M2060.83,-836C2118.86,-836 2196.6,-836 2254.13,-836"/>
<polygon fill="black" stroke="black" points="2254.27,-839.5 2264.27,-836 2254.27,-832.5 2254.27,-839.5"/>
<text text-anchor="middle" x="2239" y="-839.8" font-family="Times New Roman,serif" font-size="14.00">no</text>
</g>
<!-- start -->
<g id="node34" class="node"><title>start</title>
<ellipse fill="none" stroke="black" cx="1520.63" cy="-836" rx="27" ry="18"/>
<text text-anchor="middle" x="1520.63" y="-832.3" font-family="Times New Roman,serif" font-size="14.00">start</text>
</g>
<!-- start&#45;&gt;parent_emp -->
<g id="edge13" class="edge"><title>start&#45;&gt;parent_emp</title>
<path fill="none" stroke="black" d="M1547.79,-836C1612.26,-836 1781.17,-836 1887.09,-836"/>
<polygon fill="black" stroke="black" points="1887.13,-839.5 1897.13,-836 1887.13,-832.5 1887.13,-839.5"/>
</g>
<!-- contents_newroot -->
<g id="node36" class="node"><title>contents_newroot</title>
<path fill="lightgrey" stroke="black" d="M1586,-671C1586,-671 1486.91,-671 1486.91,-671 1480.91,-671 1470.95,-666.495 1466.99,-661.989 1466.99,-661.989 1451.18,-644.011 1451.18,-644.011 1447.21,-639.505 1449.25,-635 1455.25,-635 1455.25,-635 1554.34,-635 1554.34,-635 1560.34,-635 1570.3,-639.505 1574.26,-644.011 1574.26,-644.011 1590.08,-661.989 1590.08,-661.989 1594.04,-666.495 1592,-671 1586,-671"/>
<text text-anchor="middle" x="1520.63" y="-649.3" font-family="Times New Roman,serif" font-size="14.00">contents=[]</text>
</g>
<!-- _new_root -->
<g id="node37" class="node"><title>_new_root</title>
</g>
<!-- children_parop -->
<g id="node38" class="node"><title>children_parop</title>
<path fill="lightgrey" stroke="black" d="M1333.4,-351C1333.4,-351 800.693,-351 800.693,-351 794.693,-351 782.874,-349.537 777.055,-348.074 777.055,-348.074 657.12,-317.926 657.12,-317.926 651.301,-316.463 651.482,-315 657.482,-315 657.482,-315 1190.19,-315 1190.19,-315 1196.19,-315 1208.01,-316.463 1213.82,-317.926 1213.82,-317.926 1333.76,-348.074 1333.76,-348.074 1339.58,-349.537 1339.4,-351 1333.4,-351"/>
<text text-anchor="middle" x="995.44" y="-329.3" font-family="Times New Roman,serif" font-size="14.00">children.insert(parend_index+1=1,sibling)=[cur_bnode,sibling]</text>
</g>
<!-- children_parop&#45;&gt;_sibling_Bnode -->
<g id="edge16" class="edge"><title>children_parop&#45;&gt;_sibling_Bnode</title>
<path fill="none" stroke="black" d="M1247.17,-322.609C1282.97,-318.639 1319.16,-313.262 1353.17,-306 1529.11,-268.425 1558.82,-209.63 1734.09,-169 1806.37,-152.242 1893.21,-145.787 1941.27,-143.374"/>
<polygon fill="black" stroke="black" points="1246.66,-319.144 1237.09,-323.691 1247.4,-326.104 1246.66,-319.144"/>
<polygon fill="black" stroke="black" points="1941.66,-146.86 1951.48,-142.893 1941.33,-139.867 1941.66,-146.86"/>
<text text-anchor="middle" x="1520.63" y="-305.8" font-family="Times New Roman,serif" font-size="14.00">index=1</text>
</g>
<!-- children_parop&#45;&gt;_cur_Bnode -->
<g id="edge15" class="edge"><title>children_parop&#45;&gt;_cur_Bnode</title>
<path fill="none" stroke="black" d="M1284.21,-333C1521.57,-333 1835.82,-333 1941.43,-333"/>
<polygon fill="black" stroke="black" points="1284.05,-329.5 1274.05,-333 1284.05,-336.5 1284.05,-329.5"/>
<polygon fill="black" stroke="black" points="1941.56,-336.5 1951.56,-333 1941.56,-329.5 1941.56,-336.5"/>
<text text-anchor="middle" x="1520.63" y="-336.8" font-family="Times New Roman,serif" font-size="14.00">index=0</text>
</g>
<!-- _new_rootop -->
<g id="node39" class="node"><title>_new_rootop</title>
</g>
<!-- _new_rootop&#45;&gt;_new_root -->
<g id="edge17" class="edge"><title>_new_rootop&#45;&gt;_new_root</title>
<path fill="none" stroke="black" d="M1032.2,-400.57C1096.64,-425.123 1236.4,-478.851 1353.17,-527 1398.6,-545.736 1450.52,-568.392 1484.12,-583.222"/>
<polygon fill="black" stroke="black" points="1033.11,-397.172 1022.52,-396.885 1030.62,-403.714 1033.11,-397.172"/>
<polygon fill="black" stroke="black" points="1482.95,-586.531 1493.51,-587.374 1485.78,-580.129 1482.95,-586.531"/>
</g>
<!-- contents_parop -->
<g id="node40" class="node"><title>contents_parop</title>
<path fill="lightgrey" stroke="black" d="M1298.79,-297C1298.79,-297 821.141,-297 821.141,-297 815.141,-297 803.361,-295.388 797.582,-293.776 797.582,-293.776 691.652,-264.224 691.652,-264.224 685.873,-262.612 686.094,-261 692.094,-261 692.094,-261 1169.74,-261 1169.74,-261 1175.74,-261 1187.52,-262.612 1193.3,-264.224 1193.3,-264.224 1299.23,-293.776 1299.23,-293.776 1305.01,-295.388 1304.79,-297 1298.79,-297"/>
<text text-anchor="middle" x="995.44" y="-275.3" font-family="Times New Roman,serif" font-size="14.00">contents.insert(parend_index=0,median=3),contents=[3]</text>
</g>
</g>
</svg>
