<?xml version="1.0" encoding="UTF-8" standalone="no"?>
<!DOCTYPE svg PUBLIC "-//W3C//DTD SVG 1.1//EN"
 "http://www.w3.org/Graphics/SVG/1.1/DTD/svg11.dtd">
<!-- Generated by graphviz version 2.38.0 (20140413.2041)
 -->
<!-- Title: cluster_btree_base Pages: 1 -->
<svg width="378pt" height="877pt"
 viewBox="0.00 0.00 378.00 877.00" xmlns="http://www.w3.org/2000/svg" xmlns:xlink="http://www.w3.org/1999/xlink">
<g id="graph0" class="graph" transform="scale(1 1) rotate(0) translate(4 873)">
<title>cluster_btree_base</title>
<polygon fill="white" stroke="none" points="-4,4 -4,-873 374,-873 374,4 -4,4"/>
<text text-anchor="middle" x="185" y="-7.8" font-family="Times New Roman,serif" font-size="14.00">tree structure(4 order)</text>
<!-- tree_root_node -->
<g id="node1" class="node"><title>tree_root_node</title>
<path fill="lightgrey" stroke="black" d="M84,-464C84,-464 12,-464 12,-464 6,-464 0,-458 0,-452 0,-452 0,-440 0,-440 0,-434 6,-428 12,-428 12,-428 84,-428 84,-428 90,-428 96,-434 96,-440 96,-440 96,-452 96,-452 96,-458 90,-464 84,-464"/>
<text text-anchor="middle" x="48" y="-442.3" font-family="Times New Roman,serif" font-size="14.00">root(_BNode)</text>
</g>
<!-- 1_1 -->
<g id="node2" class="node"><title>1_1</title>
<path fill="lightgrey" stroke="black" d="M214,-761C214,-761 144,-761 144,-761 138,-761 132,-755 132,-749 132,-749 132,-737 132,-737 132,-731 138,-725 144,-725 144,-725 214,-725 214,-725 220,-725 226,-731 226,-737 226,-737 226,-749 226,-749 226,-755 220,-761 214,-761"/>
<text text-anchor="middle" x="179" y="-739.3" font-family="Times New Roman,serif" font-size="14.00">_BNode(1_1)</text>
</g>
<!-- tree_root_node&#45;&gt;1_1 -->
<g id="edge1" class="edge"><title>tree_root_node&#45;&gt;1_1</title>
<path fill="none" stroke="black" d="M56.8753,-464.132C78.6907,-514.358 140.007,-655.528 166.054,-715.498"/>
<polygon fill="black" stroke="black" points="162.87,-716.951 170.064,-724.728 169.29,-714.162 162.87,-716.951"/>
</g>
<!-- 1_2 -->
<g id="node7" class="node"><title>1_2</title>
<path fill="lightgrey" stroke="black" d="M214,-545C214,-545 144,-545 144,-545 138,-545 132,-539 132,-533 132,-533 132,-521 132,-521 132,-515 138,-509 144,-509 144,-509 214,-509 214,-509 220,-509 226,-515 226,-521 226,-521 226,-533 226,-533 226,-539 220,-545 214,-545"/>
<text text-anchor="middle" x="179" y="-523.3" font-family="Times New Roman,serif" font-size="14.00">_BNode(1_2)</text>
</g>
<!-- tree_root_node&#45;&gt;1_2 -->
<g id="edge6" class="edge"><title>tree_root_node&#45;&gt;1_2</title>
<path fill="none" stroke="black" d="M77.9501,-464.178C96.4567,-475.798 120.642,-490.984 140.597,-503.515"/>
<polygon fill="black" stroke="black" points="138.816,-506.529 149.147,-508.883 142.539,-500.601 138.816,-506.529"/>
</g>
<!-- 1_3 -->
<g id="node12" class="node"><title>1_3</title>
<path fill="lightgrey" stroke="black" d="M214,-383C214,-383 144,-383 144,-383 138,-383 132,-377 132,-371 132,-371 132,-359 132,-359 132,-353 138,-347 144,-347 144,-347 214,-347 214,-347 220,-347 226,-353 226,-359 226,-359 226,-371 226,-371 226,-377 220,-383 214,-383"/>
<text text-anchor="middle" x="179" y="-361.3" font-family="Times New Roman,serif" font-size="14.00">_BNode(1_3)</text>
</g>
<!-- tree_root_node&#45;&gt;1_3 -->
<g id="edge11" class="edge"><title>tree_root_node&#45;&gt;1_3</title>
<path fill="none" stroke="black" d="M77.9501,-427.822C96.4567,-416.202 120.642,-401.016 140.597,-388.485"/>
<polygon fill="black" stroke="black" points="142.539,-391.399 149.147,-383.117 138.816,-385.471 142.539,-391.399"/>
</g>
<!-- 1_4 -->
<g id="node17" class="node"><title>1_4</title>
<path fill="lightgrey" stroke="black" d="M214,-167C214,-167 144,-167 144,-167 138,-167 132,-161 132,-155 132,-155 132,-143 132,-143 132,-137 138,-131 144,-131 144,-131 214,-131 214,-131 220,-131 226,-137 226,-143 226,-143 226,-155 226,-155 226,-161 220,-167 214,-167"/>
<text text-anchor="middle" x="179" y="-145.3" font-family="Times New Roman,serif" font-size="14.00">_BNode(1_4)</text>
</g>
<!-- tree_root_node&#45;&gt;1_4 -->
<g id="edge16" class="edge"><title>tree_root_node&#45;&gt;1_4</title>
<path fill="none" stroke="black" d="M56.8753,-427.868C78.6907,-377.642 140.007,-236.472 166.054,-176.502"/>
<polygon fill="black" stroke="black" points="169.29,-177.838 170.064,-167.272 162.87,-175.049 169.29,-177.838"/>
</g>
<!-- 2_1_1 -->
<g id="node3" class="node"><title>2_1_1</title>
<path fill="lightgrey" stroke="black" d="M358,-869C358,-869 274,-869 274,-869 268,-869 262,-863 262,-857 262,-857 262,-845 262,-845 262,-839 268,-833 274,-833 274,-833 358,-833 358,-833 364,-833 370,-839 370,-845 370,-845 370,-857 370,-857 370,-863 364,-869 358,-869"/>
<text text-anchor="middle" x="316" y="-847.3" font-family="Times New Roman,serif" font-size="14.00">_BNode(2_1_1)</text>
</g>
<!-- 1_1&#45;&gt;2_1_1 -->
<g id="edge2" class="edge"><title>1_1&#45;&gt;2_1_1</title>
<path fill="none" stroke="black" d="M195.285,-761.054C210.818,-778.642 236.202,-805.379 262,-824 263.633,-825.179 265.324,-826.334 267.056,-827.464"/>
<polygon fill="black" stroke="black" points="265.603,-830.676 275.967,-832.877 269.237,-824.693 265.603,-830.676"/>
</g>
<!-- 2_1_2 -->
<g id="node4" class="node"><title>2_1_2</title>
<path fill="lightgrey" stroke="black" d="M358,-815C358,-815 274,-815 274,-815 268,-815 262,-809 262,-803 262,-803 262,-791 262,-791 262,-785 268,-779 274,-779 274,-779 358,-779 358,-779 364,-779 370,-785 370,-791 370,-791 370,-803 370,-803 370,-809 364,-815 358,-815"/>
<text text-anchor="middle" x="316" y="-793.3" font-family="Times New Roman,serif" font-size="14.00">_BNode(2_1_2)</text>
</g>
<!-- 1_1&#45;&gt;2_1_2 -->
<g id="edge3" class="edge"><title>1_1&#45;&gt;2_1_2</title>
<path fill="none" stroke="black" d="M225.329,-761.131C236.459,-765.584 248.495,-770.398 260.026,-775.01"/>
<polygon fill="black" stroke="black" points="258.977,-778.36 269.561,-778.824 261.576,-771.861 258.977,-778.36"/>
</g>
<!-- 2_1_3 -->
<g id="node5" class="node"><title>2_1_3</title>
<path fill="lightgrey" stroke="black" d="M358,-761C358,-761 274,-761 274,-761 268,-761 262,-755 262,-749 262,-749 262,-737 262,-737 262,-731 268,-725 274,-725 274,-725 358,-725 358,-725 364,-725 370,-731 370,-737 370,-737 370,-749 370,-749 370,-755 364,-761 358,-761"/>
<text text-anchor="middle" x="316" y="-739.3" font-family="Times New Roman,serif" font-size="14.00">_BNode(2_1_3)</text>
</g>
<!-- 1_1&#45;&gt;2_1_3 -->
<g id="edge4" class="edge"><title>1_1&#45;&gt;2_1_3</title>
<path fill="none" stroke="black" d="M226.082,-743C234.317,-743 243.026,-743 251.646,-743"/>
<polygon fill="black" stroke="black" points="251.688,-746.5 261.688,-743 251.688,-739.5 251.688,-746.5"/>
</g>
<!-- 2_1_4 -->
<g id="node6" class="node"><title>2_1_4</title>
<path fill="lightgrey" stroke="black" d="M358,-707C358,-707 274,-707 274,-707 268,-707 262,-701 262,-695 262,-695 262,-683 262,-683 262,-677 268,-671 274,-671 274,-671 358,-671 358,-671 364,-671 370,-677 370,-683 370,-683 370,-695 370,-695 370,-701 364,-707 358,-707"/>
<text text-anchor="middle" x="316" y="-685.3" font-family="Times New Roman,serif" font-size="14.00">_BNode(2_1_4)</text>
</g>
<!-- 1_1&#45;&gt;2_1_4 -->
<g id="edge5" class="edge"><title>1_1&#45;&gt;2_1_4</title>
<path fill="none" stroke="black" d="M225.329,-724.869C236.459,-720.416 248.495,-715.602 260.026,-710.99"/>
<polygon fill="black" stroke="black" points="261.576,-714.139 269.561,-707.176 258.977,-707.64 261.576,-714.139"/>
</g>
<!-- 2_2_1 -->
<g id="node8" class="node"><title>2_2_1</title>
<path fill="lightgrey" stroke="black" d="M358,-653C358,-653 274,-653 274,-653 268,-653 262,-647 262,-641 262,-641 262,-629 262,-629 262,-623 268,-617 274,-617 274,-617 358,-617 358,-617 364,-617 370,-623 370,-629 370,-629 370,-641 370,-641 370,-647 364,-653 358,-653"/>
<text text-anchor="middle" x="316" y="-631.3" font-family="Times New Roman,serif" font-size="14.00">_BNode(2_2_1)</text>
</g>
<!-- 1_2&#45;&gt;2_2_1 -->
<g id="edge7" class="edge"><title>1_2&#45;&gt;2_2_1</title>
<path fill="none" stroke="black" d="M195.285,-545.054C210.818,-562.642 236.202,-589.379 262,-608 263.633,-609.179 265.324,-610.334 267.056,-611.464"/>
<polygon fill="black" stroke="black" points="265.603,-614.676 275.967,-616.877 269.237,-608.693 265.603,-614.676"/>
</g>
<!-- 2_2_2 -->
<g id="node9" class="node"><title>2_2_2</title>
<path fill="lightgrey" stroke="black" d="M358,-599C358,-599 274,-599 274,-599 268,-599 262,-593 262,-587 262,-587 262,-575 262,-575 262,-569 268,-563 274,-563 274,-563 358,-563 358,-563 364,-563 370,-569 370,-575 370,-575 370,-587 370,-587 370,-593 364,-599 358,-599"/>
<text text-anchor="middle" x="316" y="-577.3" font-family="Times New Roman,serif" font-size="14.00">_BNode(2_2_2)</text>
</g>
<!-- 1_2&#45;&gt;2_2_2 -->
<g id="edge8" class="edge"><title>1_2&#45;&gt;2_2_2</title>
<path fill="none" stroke="black" d="M225.329,-545.131C236.459,-549.584 248.495,-554.398 260.026,-559.01"/>
<polygon fill="black" stroke="black" points="258.977,-562.36 269.561,-562.824 261.576,-555.861 258.977,-562.36"/>
</g>
<!-- 2_2_3 -->
<g id="node10" class="node"><title>2_2_3</title>
<path fill="lightgrey" stroke="black" d="M358,-545C358,-545 274,-545 274,-545 268,-545 262,-539 262,-533 262,-533 262,-521 262,-521 262,-515 268,-509 274,-509 274,-509 358,-509 358,-509 364,-509 370,-515 370,-521 370,-521 370,-533 370,-533 370,-539 364,-545 358,-545"/>
<text text-anchor="middle" x="316" y="-523.3" font-family="Times New Roman,serif" font-size="14.00">_BNode(2_2_3)</text>
</g>
<!-- 1_2&#45;&gt;2_2_3 -->
<g id="edge9" class="edge"><title>1_2&#45;&gt;2_2_3</title>
<path fill="none" stroke="black" d="M226.082,-527C234.317,-527 243.026,-527 251.646,-527"/>
<polygon fill="black" stroke="black" points="251.688,-530.5 261.688,-527 251.688,-523.5 251.688,-530.5"/>
</g>
<!-- 2_2_4 -->
<g id="node11" class="node"><title>2_2_4</title>
<path fill="lightgrey" stroke="black" d="M358,-491C358,-491 274,-491 274,-491 268,-491 262,-485 262,-479 262,-479 262,-467 262,-467 262,-461 268,-455 274,-455 274,-455 358,-455 358,-455 364,-455 370,-461 370,-467 370,-467 370,-479 370,-479 370,-485 364,-491 358,-491"/>
<text text-anchor="middle" x="316" y="-469.3" font-family="Times New Roman,serif" font-size="14.00">_BNode(2_2_4)</text>
</g>
<!-- 1_2&#45;&gt;2_2_4 -->
<g id="edge10" class="edge"><title>1_2&#45;&gt;2_2_4</title>
<path fill="none" stroke="black" d="M225.329,-508.869C236.459,-504.416 248.495,-499.602 260.026,-494.99"/>
<polygon fill="black" stroke="black" points="261.576,-498.139 269.561,-491.176 258.977,-491.64 261.576,-498.139"/>
</g>
<!-- 2_3_1 -->
<g id="node13" class="node"><title>2_3_1</title>
<path fill="lightgrey" stroke="black" d="M358,-437C358,-437 274,-437 274,-437 268,-437 262,-431 262,-425 262,-425 262,-413 262,-413 262,-407 268,-401 274,-401 274,-401 358,-401 358,-401 364,-401 370,-407 370,-413 370,-413 370,-425 370,-425 370,-431 364,-437 358,-437"/>
<text text-anchor="middle" x="316" y="-415.3" font-family="Times New Roman,serif" font-size="14.00">_BNode(2_3_1)</text>
</g>
<!-- 1_3&#45;&gt;2_3_1 -->
<g id="edge12" class="edge"><title>1_3&#45;&gt;2_3_1</title>
<path fill="none" stroke="black" d="M225.329,-383.131C236.459,-387.584 248.495,-392.398 260.026,-397.01"/>
<polygon fill="black" stroke="black" points="258.977,-400.36 269.561,-400.824 261.576,-393.861 258.977,-400.36"/>
</g>
<!-- 2_3_2 -->
<g id="node14" class="node"><title>2_3_2</title>
<path fill="lightgrey" stroke="black" d="M358,-383C358,-383 274,-383 274,-383 268,-383 262,-377 262,-371 262,-371 262,-359 262,-359 262,-353 268,-347 274,-347 274,-347 358,-347 358,-347 364,-347 370,-353 370,-359 370,-359 370,-371 370,-371 370,-377 364,-383 358,-383"/>
<text text-anchor="middle" x="316" y="-361.3" font-family="Times New Roman,serif" font-size="14.00">_BNode(2_3_2)</text>
</g>
<!-- 1_3&#45;&gt;2_3_2 -->
<g id="edge13" class="edge"><title>1_3&#45;&gt;2_3_2</title>
<path fill="none" stroke="black" d="M226.082,-365C234.317,-365 243.026,-365 251.646,-365"/>
<polygon fill="black" stroke="black" points="251.688,-368.5 261.688,-365 251.688,-361.5 251.688,-368.5"/>
</g>
<!-- 2_3_3 -->
<g id="node15" class="node"><title>2_3_3</title>
<path fill="lightgrey" stroke="black" d="M358,-329C358,-329 274,-329 274,-329 268,-329 262,-323 262,-317 262,-317 262,-305 262,-305 262,-299 268,-293 274,-293 274,-293 358,-293 358,-293 364,-293 370,-299 370,-305 370,-305 370,-317 370,-317 370,-323 364,-329 358,-329"/>
<text text-anchor="middle" x="316" y="-307.3" font-family="Times New Roman,serif" font-size="14.00">_BNode(2_3_3)</text>
</g>
<!-- 1_3&#45;&gt;2_3_3 -->
<g id="edge14" class="edge"><title>1_3&#45;&gt;2_3_3</title>
<path fill="none" stroke="black" d="M225.329,-346.869C236.459,-342.416 248.495,-337.602 260.026,-332.99"/>
<polygon fill="black" stroke="black" points="261.576,-336.139 269.561,-329.176 258.977,-329.64 261.576,-336.139"/>
</g>
<!-- 2_3_4 -->
<g id="node16" class="node"><title>2_3_4</title>
<path fill="lightgrey" stroke="black" d="M358,-275C358,-275 274,-275 274,-275 268,-275 262,-269 262,-263 262,-263 262,-251 262,-251 262,-245 268,-239 274,-239 274,-239 358,-239 358,-239 364,-239 370,-245 370,-251 370,-251 370,-263 370,-263 370,-269 364,-275 358,-275"/>
<text text-anchor="middle" x="316" y="-253.3" font-family="Times New Roman,serif" font-size="14.00">_BNode(2_3_4)</text>
</g>
<!-- 1_3&#45;&gt;2_3_4 -->
<g id="edge15" class="edge"><title>1_3&#45;&gt;2_3_4</title>
<path fill="none" stroke="black" d="M195.285,-346.946C210.818,-329.358 236.202,-302.621 262,-284 263.633,-282.821 265.324,-281.666 267.056,-280.536"/>
<polygon fill="black" stroke="black" points="269.237,-283.307 275.967,-275.123 265.603,-277.324 269.237,-283.307"/>
</g>
<!-- 2_4_1 -->
<g id="node18" class="node"><title>2_4_1</title>
<path fill="lightgrey" stroke="black" d="M358,-221C358,-221 274,-221 274,-221 268,-221 262,-215 262,-209 262,-209 262,-197 262,-197 262,-191 268,-185 274,-185 274,-185 358,-185 358,-185 364,-185 370,-191 370,-197 370,-197 370,-209 370,-209 370,-215 364,-221 358,-221"/>
<text text-anchor="middle" x="316" y="-199.3" font-family="Times New Roman,serif" font-size="14.00">_BNode(2_4_1)</text>
</g>
<!-- 1_4&#45;&gt;2_4_1 -->
<g id="edge17" class="edge"><title>1_4&#45;&gt;2_4_1</title>
<path fill="none" stroke="black" d="M225.329,-167.131C236.459,-171.584 248.495,-176.398 260.026,-181.01"/>
<polygon fill="black" stroke="black" points="258.977,-184.36 269.561,-184.824 261.576,-177.861 258.977,-184.36"/>
</g>
<!-- 2_4_2 -->
<g id="node19" class="node"><title>2_4_2</title>
<path fill="lightgrey" stroke="black" d="M358,-167C358,-167 274,-167 274,-167 268,-167 262,-161 262,-155 262,-155 262,-143 262,-143 262,-137 268,-131 274,-131 274,-131 358,-131 358,-131 364,-131 370,-137 370,-143 370,-143 370,-155 370,-155 370,-161 364,-167 358,-167"/>
<text text-anchor="middle" x="316" y="-145.3" font-family="Times New Roman,serif" font-size="14.00">_BNode(2_4_2)</text>
</g>
<!-- 1_4&#45;&gt;2_4_2 -->
<g id="edge18" class="edge"><title>1_4&#45;&gt;2_4_2</title>
<path fill="none" stroke="black" d="M226.082,-149C234.317,-149 243.026,-149 251.646,-149"/>
<polygon fill="black" stroke="black" points="251.688,-152.5 261.688,-149 251.688,-145.5 251.688,-152.5"/>
</g>
<!-- 2_4_3 -->
<g id="node20" class="node"><title>2_4_3</title>
<path fill="lightgrey" stroke="black" d="M358,-113C358,-113 274,-113 274,-113 268,-113 262,-107 262,-101 262,-101 262,-89 262,-89 262,-83 268,-77 274,-77 274,-77 358,-77 358,-77 364,-77 370,-83 370,-89 370,-89 370,-101 370,-101 370,-107 364,-113 358,-113"/>
<text text-anchor="middle" x="316" y="-91.3" font-family="Times New Roman,serif" font-size="14.00">_BNode(2_4_3)</text>
</g>
<!-- 1_4&#45;&gt;2_4_3 -->
<g id="edge19" class="edge"><title>1_4&#45;&gt;2_4_3</title>
<path fill="none" stroke="black" d="M225.329,-130.869C236.459,-126.416 248.495,-121.602 260.026,-116.99"/>
<polygon fill="black" stroke="black" points="261.576,-120.139 269.561,-113.176 258.977,-113.64 261.576,-120.139"/>
</g>
<!-- 2_4_4 -->
<g id="node21" class="node"><title>2_4_4</title>
<path fill="lightgrey" stroke="black" d="M358,-59C358,-59 274,-59 274,-59 268,-59 262,-53 262,-47 262,-47 262,-35 262,-35 262,-29 268,-23 274,-23 274,-23 358,-23 358,-23 364,-23 370,-29 370,-35 370,-35 370,-47 370,-47 370,-53 364,-59 358,-59"/>
<text text-anchor="middle" x="316" y="-37.3" font-family="Times New Roman,serif" font-size="14.00">_BNode(2_4_4)</text>
</g>
<!-- 1_4&#45;&gt;2_4_4 -->
<g id="edge20" class="edge"><title>1_4&#45;&gt;2_4_4</title>
<path fill="none" stroke="black" d="M195.285,-130.946C210.818,-113.358 236.202,-86.6214 262,-68 263.633,-66.8214 265.324,-65.6658 267.056,-64.5364"/>
<polygon fill="black" stroke="black" points="269.237,-67.3067 275.967,-59.1234 265.603,-61.3241 269.237,-67.3067"/>
</g>
</g>
</svg>
